<?xml version="1.0" encoding="utf-8" standalone="no"?>
<!DOCTYPE svg PUBLIC "-//W3C//DTD SVG 1.1//EN"
  "http://www.w3.org/Graphics/SVG/1.1/DTD/svg11.dtd">
<!-- Created with matplotlib (https://matplotlib.org/) -->
<svg height="432pt" version="1.1" viewBox="0 0 576 432" width="576pt" xmlns="http://www.w3.org/2000/svg" xmlns:xlink="http://www.w3.org/1999/xlink">
 <metadata>
  <rdf:RDF xmlns:cc="http://creativecommons.org/ns#" xmlns:dc="http://purl.org/dc/elements/1.1/" xmlns:rdf="http://www.w3.org/1999/02/22-rdf-syntax-ns#">
   <cc:Work>
    <dc:type rdf:resource="http://purl.org/dc/dcmitype/StillImage"/>
    <dc:date>2020-09-18T21:25:13.454440</dc:date>
    <dc:format>image/svg+xml</dc:format>
    <dc:creator>
     <cc:Agent>
      <dc:title>Matplotlib v3.3.0, https://matplotlib.org/</dc:title>
     </cc:Agent>
    </dc:creator>
   </cc:Work>
  </rdf:RDF>
 </metadata>
 <defs>
  <style type="text/css">*{stroke-linecap:butt;stroke-linejoin:round;}</style>
 </defs>
 <g id="figure_1">
  <g id="patch_1">
   <path d="M 0 432 
L 576 432 
L 576 0 
L 0 0 
z
" style="fill:#ffffff;"/>
  </g>
  <g id="axes_1">
   <g id="patch_2">
    <path d="M 72 384.48 
L 518.4 384.48 
L 518.4 51.84 
L 72 51.84 
z
" style="fill:#ffffff;"/>
   </g>
   <g id="matplotlib.axis_1">
    <g id="xtick_1">
     <g id="line2d_1">
      <defs>
       <path d="M 0 0 
L 0 3.5 
" id="m92067a9827" style="stroke:#000000;stroke-width:0.8;"/>
      </defs>
      <g>
       <use style="stroke:#000000;stroke-width:0.8;" x="92.290909" xlink:href="#m92067a9827" y="384.48"/>
      </g>
     </g>
     <g id="text_1">
      <!-- 0.0 -->
      <g transform="translate(79.568409 403.6375)scale(0.16 -0.16)">
       <defs>
        <path d="M 31.78125 66.40625 
Q 24.171875 66.40625 20.328125 58.90625 
Q 16.5 51.421875 16.5 36.375 
Q 16.5 21.390625 20.328125 13.890625 
Q 24.171875 6.390625 31.78125 6.390625 
Q 39.453125 6.390625 43.28125 13.890625 
Q 47.125 21.390625 47.125 36.375 
Q 47.125 51.421875 43.28125 58.90625 
Q 39.453125 66.40625 31.78125 66.40625 
z
M 31.78125 74.21875 
Q 44.046875 74.21875 50.515625 64.515625 
Q 56.984375 54.828125 56.984375 36.375 
Q 56.984375 17.96875 50.515625 8.265625 
Q 44.046875 -1.421875 31.78125 -1.421875 
Q 19.53125 -1.421875 13.0625 8.265625 
Q 6.59375 17.96875 6.59375 36.375 
Q 6.59375 54.828125 13.0625 64.515625 
Q 19.53125 74.21875 31.78125 74.21875 
z
" id="DejaVuSans-48"/>
        <path d="M 10.6875 12.40625 
L 21 12.40625 
L 21 0 
L 10.6875 0 
z
" id="DejaVuSans-46"/>
       </defs>
       <use xlink:href="#DejaVuSans-48"/>
       <use x="63.623047" xlink:href="#DejaVuSans-46"/>
       <use x="95.410156" xlink:href="#DejaVuSans-48"/>
      </g>
     </g>
    </g>
    <g id="xtick_2">
     <g id="line2d_2">
      <g>
       <use style="stroke:#000000;stroke-width:0.8;" x="173.454545" xlink:href="#m92067a9827" y="384.48"/>
      </g>
     </g>
     <g id="text_2">
      <!-- 0.2 -->
      <g transform="translate(160.732045 403.6375)scale(0.16 -0.16)">
       <defs>
        <path d="M 19.1875 8.296875 
L 53.609375 8.296875 
L 53.609375 0 
L 7.328125 0 
L 7.328125 8.296875 
Q 12.9375 14.109375 22.625 23.890625 
Q 32.328125 33.6875 34.8125 36.53125 
Q 39.546875 41.84375 41.421875 45.53125 
Q 43.3125 49.21875 43.3125 52.78125 
Q 43.3125 58.59375 39.234375 62.25 
Q 35.15625 65.921875 28.609375 65.921875 
Q 23.96875 65.921875 18.8125 64.3125 
Q 13.671875 62.703125 7.8125 59.421875 
L 7.8125 69.390625 
Q 13.765625 71.78125 18.9375 73 
Q 24.125 74.21875 28.421875 74.21875 
Q 39.75 74.21875 46.484375 68.546875 
Q 53.21875 62.890625 53.21875 53.421875 
Q 53.21875 48.921875 51.53125 44.890625 
Q 49.859375 40.875 45.40625 35.40625 
Q 44.1875 33.984375 37.640625 27.21875 
Q 31.109375 20.453125 19.1875 8.296875 
z
" id="DejaVuSans-50"/>
       </defs>
       <use xlink:href="#DejaVuSans-48"/>
       <use x="63.623047" xlink:href="#DejaVuSans-46"/>
       <use x="95.410156" xlink:href="#DejaVuSans-50"/>
      </g>
     </g>
    </g>
    <g id="xtick_3">
     <g id="line2d_3">
      <g>
       <use style="stroke:#000000;stroke-width:0.8;" x="254.618182" xlink:href="#m92067a9827" y="384.48"/>
      </g>
     </g>
     <g id="text_3">
      <!-- 0.4 -->
      <g transform="translate(241.895682 403.6375)scale(0.16 -0.16)">
       <defs>
        <path d="M 37.796875 64.3125 
L 12.890625 25.390625 
L 37.796875 25.390625 
z
M 35.203125 72.90625 
L 47.609375 72.90625 
L 47.609375 25.390625 
L 58.015625 25.390625 
L 58.015625 17.1875 
L 47.609375 17.1875 
L 47.609375 0 
L 37.796875 0 
L 37.796875 17.1875 
L 4.890625 17.1875 
L 4.890625 26.703125 
z
" id="DejaVuSans-52"/>
       </defs>
       <use xlink:href="#DejaVuSans-48"/>
       <use x="63.623047" xlink:href="#DejaVuSans-46"/>
       <use x="95.410156" xlink:href="#DejaVuSans-52"/>
      </g>
     </g>
    </g>
    <g id="xtick_4">
     <g id="line2d_4">
      <g>
       <use style="stroke:#000000;stroke-width:0.8;" x="335.781818" xlink:href="#m92067a9827" y="384.48"/>
      </g>
     </g>
     <g id="text_4">
      <!-- 0.6 -->
      <g transform="translate(323.059318 403.6375)scale(0.16 -0.16)">
       <defs>
        <path d="M 33.015625 40.375 
Q 26.375 40.375 22.484375 35.828125 
Q 18.609375 31.296875 18.609375 23.390625 
Q 18.609375 15.53125 22.484375 10.953125 
Q 26.375 6.390625 33.015625 6.390625 
Q 39.65625 6.390625 43.53125 10.953125 
Q 47.40625 15.53125 47.40625 23.390625 
Q 47.40625 31.296875 43.53125 35.828125 
Q 39.65625 40.375 33.015625 40.375 
z
M 52.59375 71.296875 
L 52.59375 62.3125 
Q 48.875 64.0625 45.09375 64.984375 
Q 41.3125 65.921875 37.59375 65.921875 
Q 27.828125 65.921875 22.671875 59.328125 
Q 17.53125 52.734375 16.796875 39.40625 
Q 19.671875 43.65625 24.015625 45.921875 
Q 28.375 48.1875 33.59375 48.1875 
Q 44.578125 48.1875 50.953125 41.515625 
Q 57.328125 34.859375 57.328125 23.390625 
Q 57.328125 12.15625 50.6875 5.359375 
Q 44.046875 -1.421875 33.015625 -1.421875 
Q 20.359375 -1.421875 13.671875 8.265625 
Q 6.984375 17.96875 6.984375 36.375 
Q 6.984375 53.65625 15.1875 63.9375 
Q 23.390625 74.21875 37.203125 74.21875 
Q 40.921875 74.21875 44.703125 73.484375 
Q 48.484375 72.75 52.59375 71.296875 
z
" id="DejaVuSans-54"/>
       </defs>
       <use xlink:href="#DejaVuSans-48"/>
       <use x="63.623047" xlink:href="#DejaVuSans-46"/>
       <use x="95.410156" xlink:href="#DejaVuSans-54"/>
      </g>
     </g>
    </g>
    <g id="xtick_5">
     <g id="line2d_5">
      <g>
       <use style="stroke:#000000;stroke-width:0.8;" x="416.945455" xlink:href="#m92067a9827" y="384.48"/>
      </g>
     </g>
     <g id="text_5">
      <!-- 0.8 -->
      <g transform="translate(404.222955 403.6375)scale(0.16 -0.16)">
       <defs>
        <path d="M 31.78125 34.625 
Q 24.75 34.625 20.71875 30.859375 
Q 16.703125 27.09375 16.703125 20.515625 
Q 16.703125 13.921875 20.71875 10.15625 
Q 24.75 6.390625 31.78125 6.390625 
Q 38.8125 6.390625 42.859375 10.171875 
Q 46.921875 13.96875 46.921875 20.515625 
Q 46.921875 27.09375 42.890625 30.859375 
Q 38.875 34.625 31.78125 34.625 
z
M 21.921875 38.8125 
Q 15.578125 40.375 12.03125 44.71875 
Q 8.5 49.078125 8.5 55.328125 
Q 8.5 64.0625 14.71875 69.140625 
Q 20.953125 74.21875 31.78125 74.21875 
Q 42.671875 74.21875 48.875 69.140625 
Q 55.078125 64.0625 55.078125 55.328125 
Q 55.078125 49.078125 51.53125 44.71875 
Q 48 40.375 41.703125 38.8125 
Q 48.828125 37.15625 52.796875 32.3125 
Q 56.78125 27.484375 56.78125 20.515625 
Q 56.78125 9.90625 50.3125 4.234375 
Q 43.84375 -1.421875 31.78125 -1.421875 
Q 19.734375 -1.421875 13.25 4.234375 
Q 6.78125 9.90625 6.78125 20.515625 
Q 6.78125 27.484375 10.78125 32.3125 
Q 14.796875 37.15625 21.921875 38.8125 
z
M 18.3125 54.390625 
Q 18.3125 48.734375 21.84375 45.5625 
Q 25.390625 42.390625 31.78125 42.390625 
Q 38.140625 42.390625 41.71875 45.5625 
Q 45.3125 48.734375 45.3125 54.390625 
Q 45.3125 60.0625 41.71875 63.234375 
Q 38.140625 66.40625 31.78125 66.40625 
Q 25.390625 66.40625 21.84375 63.234375 
Q 18.3125 60.0625 18.3125 54.390625 
z
" id="DejaVuSans-56"/>
       </defs>
       <use xlink:href="#DejaVuSans-48"/>
       <use x="63.623047" xlink:href="#DejaVuSans-46"/>
       <use x="95.410156" xlink:href="#DejaVuSans-56"/>
      </g>
     </g>
    </g>
    <g id="xtick_6">
     <g id="line2d_6">
      <g>
       <use style="stroke:#000000;stroke-width:0.8;" x="498.109091" xlink:href="#m92067a9827" y="384.48"/>
      </g>
     </g>
     <g id="text_6">
      <!-- 1.0 -->
      <g transform="translate(485.386591 403.6375)scale(0.16 -0.16)">
       <defs>
        <path d="M 12.40625 8.296875 
L 28.515625 8.296875 
L 28.515625 63.921875 
L 10.984375 60.40625 
L 10.984375 69.390625 
L 28.421875 72.90625 
L 38.28125 72.90625 
L 38.28125 8.296875 
L 54.390625 8.296875 
L 54.390625 0 
L 12.40625 0 
z
" id="DejaVuSans-49"/>
       </defs>
       <use xlink:href="#DejaVuSans-49"/>
       <use x="63.623047" xlink:href="#DejaVuSans-46"/>
       <use x="95.410156" xlink:href="#DejaVuSans-48"/>
      </g>
     </g>
    </g>
    <g id="text_7">
     <!-- False Positive Rate -->
     <g transform="translate(220.85375 423.1225)scale(0.16 -0.16)">
      <defs>
       <path d="M 9.8125 72.90625 
L 51.703125 72.90625 
L 51.703125 64.59375 
L 19.671875 64.59375 
L 19.671875 43.109375 
L 48.578125 43.109375 
L 48.578125 34.8125 
L 19.671875 34.8125 
L 19.671875 0 
L 9.8125 0 
z
" id="DejaVuSans-70"/>
       <path d="M 34.28125 27.484375 
Q 23.390625 27.484375 19.1875 25 
Q 14.984375 22.515625 14.984375 16.5 
Q 14.984375 11.71875 18.140625 8.90625 
Q 21.296875 6.109375 26.703125 6.109375 
Q 34.1875 6.109375 38.703125 11.40625 
Q 43.21875 16.703125 43.21875 25.484375 
L 43.21875 27.484375 
z
M 52.203125 31.203125 
L 52.203125 0 
L 43.21875 0 
L 43.21875 8.296875 
Q 40.140625 3.328125 35.546875 0.953125 
Q 30.953125 -1.421875 24.3125 -1.421875 
Q 15.921875 -1.421875 10.953125 3.296875 
Q 6 8.015625 6 15.921875 
Q 6 25.140625 12.171875 29.828125 
Q 18.359375 34.515625 30.609375 34.515625 
L 43.21875 34.515625 
L 43.21875 35.40625 
Q 43.21875 41.609375 39.140625 45 
Q 35.0625 48.390625 27.6875 48.390625 
Q 23 48.390625 18.546875 47.265625 
Q 14.109375 46.140625 10.015625 43.890625 
L 10.015625 52.203125 
Q 14.9375 54.109375 19.578125 55.046875 
Q 24.21875 56 28.609375 56 
Q 40.484375 56 46.34375 49.84375 
Q 52.203125 43.703125 52.203125 31.203125 
z
" id="DejaVuSans-97"/>
       <path d="M 9.421875 75.984375 
L 18.40625 75.984375 
L 18.40625 0 
L 9.421875 0 
z
" id="DejaVuSans-108"/>
       <path d="M 44.28125 53.078125 
L 44.28125 44.578125 
Q 40.484375 46.53125 36.375 47.5 
Q 32.28125 48.484375 27.875 48.484375 
Q 21.1875 48.484375 17.84375 46.4375 
Q 14.5 44.390625 14.5 40.28125 
Q 14.5 37.15625 16.890625 35.375 
Q 19.28125 33.59375 26.515625 31.984375 
L 29.59375 31.296875 
Q 39.15625 29.25 43.1875 25.515625 
Q 47.21875 21.78125 47.21875 15.09375 
Q 47.21875 7.46875 41.1875 3.015625 
Q 35.15625 -1.421875 24.609375 -1.421875 
Q 20.21875 -1.421875 15.453125 -0.5625 
Q 10.6875 0.296875 5.421875 2 
L 5.421875 11.28125 
Q 10.40625 8.6875 15.234375 7.390625 
Q 20.0625 6.109375 24.8125 6.109375 
Q 31.15625 6.109375 34.5625 8.28125 
Q 37.984375 10.453125 37.984375 14.40625 
Q 37.984375 18.0625 35.515625 20.015625 
Q 33.0625 21.96875 24.703125 23.78125 
L 21.578125 24.515625 
Q 13.234375 26.265625 9.515625 29.90625 
Q 5.8125 33.546875 5.8125 39.890625 
Q 5.8125 47.609375 11.28125 51.796875 
Q 16.75 56 26.8125 56 
Q 31.78125 56 36.171875 55.265625 
Q 40.578125 54.546875 44.28125 53.078125 
z
" id="DejaVuSans-115"/>
       <path d="M 56.203125 29.59375 
L 56.203125 25.203125 
L 14.890625 25.203125 
Q 15.484375 15.921875 20.484375 11.0625 
Q 25.484375 6.203125 34.421875 6.203125 
Q 39.59375 6.203125 44.453125 7.46875 
Q 49.3125 8.734375 54.109375 11.28125 
L 54.109375 2.78125 
Q 49.265625 0.734375 44.1875 -0.34375 
Q 39.109375 -1.421875 33.890625 -1.421875 
Q 20.796875 -1.421875 13.15625 6.1875 
Q 5.515625 13.8125 5.515625 26.8125 
Q 5.515625 40.234375 12.765625 48.109375 
Q 20.015625 56 32.328125 56 
Q 43.359375 56 49.78125 48.890625 
Q 56.203125 41.796875 56.203125 29.59375 
z
M 47.21875 32.234375 
Q 47.125 39.59375 43.09375 43.984375 
Q 39.0625 48.390625 32.421875 48.390625 
Q 24.90625 48.390625 20.390625 44.140625 
Q 15.875 39.890625 15.1875 32.171875 
z
" id="DejaVuSans-101"/>
       <path id="DejaVuSans-32"/>
       <path d="M 19.671875 64.796875 
L 19.671875 37.40625 
L 32.078125 37.40625 
Q 38.96875 37.40625 42.71875 40.96875 
Q 46.484375 44.53125 46.484375 51.125 
Q 46.484375 57.671875 42.71875 61.234375 
Q 38.96875 64.796875 32.078125 64.796875 
z
M 9.8125 72.90625 
L 32.078125 72.90625 
Q 44.34375 72.90625 50.609375 67.359375 
Q 56.890625 61.8125 56.890625 51.125 
Q 56.890625 40.328125 50.609375 34.8125 
Q 44.34375 29.296875 32.078125 29.296875 
L 19.671875 29.296875 
L 19.671875 0 
L 9.8125 0 
z
" id="DejaVuSans-80"/>
       <path d="M 30.609375 48.390625 
Q 23.390625 48.390625 19.1875 42.75 
Q 14.984375 37.109375 14.984375 27.296875 
Q 14.984375 17.484375 19.15625 11.84375 
Q 23.34375 6.203125 30.609375 6.203125 
Q 37.796875 6.203125 41.984375 11.859375 
Q 46.1875 17.53125 46.1875 27.296875 
Q 46.1875 37.015625 41.984375 42.703125 
Q 37.796875 48.390625 30.609375 48.390625 
z
M 30.609375 56 
Q 42.328125 56 49.015625 48.375 
Q 55.71875 40.765625 55.71875 27.296875 
Q 55.71875 13.875 49.015625 6.21875 
Q 42.328125 -1.421875 30.609375 -1.421875 
Q 18.84375 -1.421875 12.171875 6.21875 
Q 5.515625 13.875 5.515625 27.296875 
Q 5.515625 40.765625 12.171875 48.375 
Q 18.84375 56 30.609375 56 
z
" id="DejaVuSans-111"/>
       <path d="M 9.421875 54.6875 
L 18.40625 54.6875 
L 18.40625 0 
L 9.421875 0 
z
M 9.421875 75.984375 
L 18.40625 75.984375 
L 18.40625 64.59375 
L 9.421875 64.59375 
z
" id="DejaVuSans-105"/>
       <path d="M 18.3125 70.21875 
L 18.3125 54.6875 
L 36.8125 54.6875 
L 36.8125 47.703125 
L 18.3125 47.703125 
L 18.3125 18.015625 
Q 18.3125 11.328125 20.140625 9.421875 
Q 21.96875 7.515625 27.59375 7.515625 
L 36.8125 7.515625 
L 36.8125 0 
L 27.59375 0 
Q 17.1875 0 13.234375 3.875 
Q 9.28125 7.765625 9.28125 18.015625 
L 9.28125 47.703125 
L 2.6875 47.703125 
L 2.6875 54.6875 
L 9.28125 54.6875 
L 9.28125 70.21875 
z
" id="DejaVuSans-116"/>
       <path d="M 2.984375 54.6875 
L 12.5 54.6875 
L 29.59375 8.796875 
L 46.6875 54.6875 
L 56.203125 54.6875 
L 35.6875 0 
L 23.484375 0 
z
" id="DejaVuSans-118"/>
       <path d="M 44.390625 34.1875 
Q 47.5625 33.109375 50.5625 29.59375 
Q 53.5625 26.078125 56.59375 19.921875 
L 66.609375 0 
L 56 0 
L 46.6875 18.703125 
Q 43.0625 26.03125 39.671875 28.421875 
Q 36.28125 30.8125 30.421875 30.8125 
L 19.671875 30.8125 
L 19.671875 0 
L 9.8125 0 
L 9.8125 72.90625 
L 32.078125 72.90625 
Q 44.578125 72.90625 50.734375 67.671875 
Q 56.890625 62.453125 56.890625 51.90625 
Q 56.890625 45.015625 53.6875 40.46875 
Q 50.484375 35.9375 44.390625 34.1875 
z
M 19.671875 64.796875 
L 19.671875 38.921875 
L 32.078125 38.921875 
Q 39.203125 38.921875 42.84375 42.21875 
Q 46.484375 45.515625 46.484375 51.90625 
Q 46.484375 58.296875 42.84375 61.546875 
Q 39.203125 64.796875 32.078125 64.796875 
z
" id="DejaVuSans-82"/>
      </defs>
      <use xlink:href="#DejaVuSans-70"/>
      <use x="48.394531" xlink:href="#DejaVuSans-97"/>
      <use x="109.673828" xlink:href="#DejaVuSans-108"/>
      <use x="137.457031" xlink:href="#DejaVuSans-115"/>
      <use x="189.556641" xlink:href="#DejaVuSans-101"/>
      <use x="251.080078" xlink:href="#DejaVuSans-32"/>
      <use x="282.867188" xlink:href="#DejaVuSans-80"/>
      <use x="339.544922" xlink:href="#DejaVuSans-111"/>
      <use x="400.726562" xlink:href="#DejaVuSans-115"/>
      <use x="452.826172" xlink:href="#DejaVuSans-105"/>
      <use x="480.609375" xlink:href="#DejaVuSans-116"/>
      <use x="519.818359" xlink:href="#DejaVuSans-105"/>
      <use x="547.601562" xlink:href="#DejaVuSans-118"/>
      <use x="606.78125" xlink:href="#DejaVuSans-101"/>
      <use x="668.304688" xlink:href="#DejaVuSans-32"/>
      <use x="700.091797" xlink:href="#DejaVuSans-82"/>
      <use x="767.324219" xlink:href="#DejaVuSans-97"/>
      <use x="828.603516" xlink:href="#DejaVuSans-116"/>
      <use x="867.8125" xlink:href="#DejaVuSans-101"/>
     </g>
    </g>
   </g>
   <g id="matplotlib.axis_2">
    <g id="ytick_1">
     <g id="line2d_7">
      <defs>
       <path d="M 0 0 
L -3.5 0 
" id="mf09546f849" style="stroke:#000000;stroke-width:0.8;"/>
      </defs>
      <g>
       <use style="stroke:#000000;stroke-width:0.8;" x="72" xlink:href="#mf09546f849" y="369.36"/>
      </g>
     </g>
     <g id="text_8">
      <!-- 0.0 -->
      <g transform="translate(39.555 375.43875)scale(0.16 -0.16)">
       <use xlink:href="#DejaVuSans-48"/>
       <use x="63.623047" xlink:href="#DejaVuSans-46"/>
       <use x="95.410156" xlink:href="#DejaVuSans-48"/>
      </g>
     </g>
    </g>
    <g id="ytick_2">
     <g id="line2d_8">
      <g>
       <use style="stroke:#000000;stroke-width:0.8;" x="72" xlink:href="#mf09546f849" y="308.88"/>
      </g>
     </g>
     <g id="text_9">
      <!-- 0.2 -->
      <g transform="translate(39.555 314.95875)scale(0.16 -0.16)">
       <use xlink:href="#DejaVuSans-48"/>
       <use x="63.623047" xlink:href="#DejaVuSans-46"/>
       <use x="95.410156" xlink:href="#DejaVuSans-50"/>
      </g>
     </g>
    </g>
    <g id="ytick_3">
     <g id="line2d_9">
      <g>
       <use style="stroke:#000000;stroke-width:0.8;" x="72" xlink:href="#mf09546f849" y="248.4"/>
      </g>
     </g>
     <g id="text_10">
      <!-- 0.4 -->
      <g transform="translate(39.555 254.47875)scale(0.16 -0.16)">
       <use xlink:href="#DejaVuSans-48"/>
       <use x="63.623047" xlink:href="#DejaVuSans-46"/>
       <use x="95.410156" xlink:href="#DejaVuSans-52"/>
      </g>
     </g>
    </g>
    <g id="ytick_4">
     <g id="line2d_10">
      <g>
       <use style="stroke:#000000;stroke-width:0.8;" x="72" xlink:href="#mf09546f849" y="187.92"/>
      </g>
     </g>
     <g id="text_11">
      <!-- 0.6 -->
      <g transform="translate(39.555 193.99875)scale(0.16 -0.16)">
       <use xlink:href="#DejaVuSans-48"/>
       <use x="63.623047" xlink:href="#DejaVuSans-46"/>
       <use x="95.410156" xlink:href="#DejaVuSans-54"/>
      </g>
     </g>
    </g>
    <g id="ytick_5">
     <g id="line2d_11">
      <g>
       <use style="stroke:#000000;stroke-width:0.8;" x="72" xlink:href="#mf09546f849" y="127.44"/>
      </g>
     </g>
     <g id="text_12">
      <!-- 0.8 -->
      <g transform="translate(39.555 133.51875)scale(0.16 -0.16)">
       <use xlink:href="#DejaVuSans-48"/>
       <use x="63.623047" xlink:href="#DejaVuSans-46"/>
       <use x="95.410156" xlink:href="#DejaVuSans-56"/>
      </g>
     </g>
    </g>
    <g id="ytick_6">
     <g id="line2d_12">
      <g>
       <use style="stroke:#000000;stroke-width:0.8;" x="72" xlink:href="#mf09546f849" y="66.96"/>
      </g>
     </g>
     <g id="text_13">
      <!-- 1.0 -->
      <g transform="translate(39.555 73.03875)scale(0.16 -0.16)">
       <use xlink:href="#DejaVuSans-49"/>
       <use x="63.623047" xlink:href="#DejaVuSans-46"/>
       <use x="95.410156" xlink:href="#DejaVuSans-48"/>
      </g>
     </g>
    </g>
    <g id="text_14">
     <!-- True Positive Rate -->
     <g transform="translate(32.2275 289.4075)rotate(-90)scale(0.16 -0.16)">
      <defs>
       <path d="M -0.296875 72.90625 
L 61.375 72.90625 
L 61.375 64.59375 
L 35.5 64.59375 
L 35.5 0 
L 25.59375 0 
L 25.59375 64.59375 
L -0.296875 64.59375 
z
" id="DejaVuSans-84"/>
       <path d="M 41.109375 46.296875 
Q 39.59375 47.171875 37.8125 47.578125 
Q 36.03125 48 33.890625 48 
Q 26.265625 48 22.1875 43.046875 
Q 18.109375 38.09375 18.109375 28.8125 
L 18.109375 0 
L 9.078125 0 
L 9.078125 54.6875 
L 18.109375 54.6875 
L 18.109375 46.1875 
Q 20.953125 51.171875 25.484375 53.578125 
Q 30.03125 56 36.53125 56 
Q 37.453125 56 38.578125 55.875 
Q 39.703125 55.765625 41.0625 55.515625 
z
" id="DejaVuSans-114"/>
       <path d="M 8.5 21.578125 
L 8.5 54.6875 
L 17.484375 54.6875 
L 17.484375 21.921875 
Q 17.484375 14.15625 20.5 10.265625 
Q 23.53125 6.390625 29.59375 6.390625 
Q 36.859375 6.390625 41.078125 11.03125 
Q 45.3125 15.671875 45.3125 23.6875 
L 45.3125 54.6875 
L 54.296875 54.6875 
L 54.296875 0 
L 45.3125 0 
L 45.3125 8.40625 
Q 42.046875 3.421875 37.71875 1 
Q 33.40625 -1.421875 27.6875 -1.421875 
Q 18.265625 -1.421875 13.375 4.4375 
Q 8.5 10.296875 8.5 21.578125 
z
M 31.109375 56 
z
" id="DejaVuSans-117"/>
      </defs>
      <use xlink:href="#DejaVuSans-84"/>
      <use x="46.333984" xlink:href="#DejaVuSans-114"/>
      <use x="87.447266" xlink:href="#DejaVuSans-117"/>
      <use x="150.826172" xlink:href="#DejaVuSans-101"/>
      <use x="212.349609" xlink:href="#DejaVuSans-32"/>
      <use x="244.136719" xlink:href="#DejaVuSans-80"/>
      <use x="300.814453" xlink:href="#DejaVuSans-111"/>
      <use x="361.996094" xlink:href="#DejaVuSans-115"/>
      <use x="414.095703" xlink:href="#DejaVuSans-105"/>
      <use x="441.878906" xlink:href="#DejaVuSans-116"/>
      <use x="481.087891" xlink:href="#DejaVuSans-105"/>
      <use x="508.871094" xlink:href="#DejaVuSans-118"/>
      <use x="568.050781" xlink:href="#DejaVuSans-101"/>
      <use x="629.574219" xlink:href="#DejaVuSans-32"/>
      <use x="661.361328" xlink:href="#DejaVuSans-82"/>
      <use x="728.59375" xlink:href="#DejaVuSans-97"/>
      <use x="789.873047" xlink:href="#DejaVuSans-116"/>
      <use x="829.082031" xlink:href="#DejaVuSans-101"/>
     </g>
    </g>
   </g>
   <g id="line2d_13">
    <path clip-path="url(#p19f55dfaf6)" d="M 92.290909 369.36 
L 498.109091 66.96 
" style="fill:none;stroke:#0000ff;stroke-linecap:square;stroke-width:1.5;"/>
   </g>
   <g id="line2d_14">
    <path clip-path="url(#p19f55dfaf6)" d="M 92.290909 369.36 
L 92.296259 369.308107 
L 92.406699 365.748262 
L 92.410138 365.665234 
L 92.52096 363.10173 
L 92.529749 362.997945 
L 92.640571 360.164599 
L 92.644775 360.060813 
L 92.755214 357.196332 
L 92.760947 357.092546 
L 92.87024 353.844058 
L 92.877119 353.740273 
L 92.98794 350.74087 
L 92.989851 350.657841 
L 93.100673 346.85929 
L 93.102966 346.755504 
L 93.213788 343.289066 
L 93.216845 343.206038 
L 93.327667 339.293322 
L 93.331106 339.189536 
L 93.440781 334.477672 
L 93.445367 334.394643 
L 93.556189 329.994135 
L 93.559628 329.89035 
L 93.67045 326.029527 
L 93.673125 325.925741 
L 93.783947 321.328041 
L 93.789679 321.245012 
L 93.899737 316.439741 
L 93.902412 316.335955 
L 94.013234 312.516646 
L 94.020112 312.443996 
L 94.020112 312.412861 
L 94.130552 307.327368 
L 94.132463 307.233961 
L 94.243285 302.470204 
L 94.245195 302.470204 
L 94.245195 302.387175 
L 94.356017 297.758339 
L 94.359074 297.696068 
L 94.469514 292.652089 
L 94.471425 292.558682 
L 94.581864 288.012874 
L 94.584922 287.929846 
L 94.694979 283.539717 
L 94.696126 283.539717 
L 94.696126 283.435931 
L 94.806565 278.153246 
L 94.814972 278.04946 
L 94.923884 273.690466 
L 94.925412 273.690466 
L 94.928469 273.597059 
L 95.038909 269.103144 
L 95.041202 269.020116 
L 95.152024 264.982858 
L 95.154699 264.879072 
L 95.265138 260.976735 
L 95.270489 260.872949 
L 95.38131 256.462063 
L 95.386278 256.379034 
L 95.495954 252.705025 
L 95.498247 252.60124 
L 95.609068 248.584738 
L 95.615947 248.480953 
L 95.726387 245.637228 
L 95.731737 245.543821 
L 95.731737 245.533443 
L 95.84103 242.098141 
L 95.845998 241.994355 
L 95.95682 238.808138 
L 95.963316 238.704353 
L 96.073756 235.393593 
L 96.079488 235.289807 
L 96.189546 232.051698 
L 96.194131 231.947912 
L 96.304953 229.498573 
L 96.309921 229.415544 
L 96.420743 226.28122 
L 96.424182 226.177435 
L 96.534622 223.645067 
L 96.53959 223.55166 
L 96.650412 220.3862 
L 96.653851 220.323929 
L 96.653851 220.31355 
L 96.764673 217.853833 
L 96.772698 217.760426 
L 96.882755 215.113894 
L 96.889634 215.010108 
L 97.000456 212.207898 
L 97.007335 212.145627 
L 97.007335 212.124869 
L 97.118156 209.67553 
L 97.12236 209.571745 
L 97.233182 207.51679 
L 97.238532 207.423383 
L 97.348972 204.85988 
L 97.360054 204.756094 
L 97.470876 202.472812 
L 97.478901 202.369026 
L 97.58934 199.961201 
L 97.597365 199.857416 
L 97.707041 197.532619 
L 97.718887 197.459969 
L 97.718887 197.439212 
L 97.829709 195.695615 
L 97.83697 195.591829 
L 97.946263 193.256654 
L 97.95467 193.163247 
L 98.098739 190.464822 
L 98.107528 190.361036 
L 98.217968 188.461761 
L 98.221789 188.357975 
L 98.332611 186.344535 
L 98.33949 186.24075 
L 98.447254 184.237688 
L 98.449165 184.237688 
L 98.460247 184.133903 
L 98.571069 182.172355 
L 98.573744 182.06857 
L 98.683037 180.221187 
L 98.691062 180.117401 
L 98.799209 178.404939 
L 98.801884 178.404939 
L 98.807234 178.301154 
L 98.918056 176.17355 
L 98.924553 176.069764 
L 99.033846 174.149731 
L 99.043782 174.045946 
L 99.152693 172.374998 
L 99.154221 172.374998 
L 99.163011 172.271213 
L 99.273833 170.320044 
L 99.280711 170.247394 
L 99.38924 168.586825 
L 99.399176 168.503797 
L 99.509616 166.957392 
L 99.511144 166.957392 
L 99.511144 166.884742 
L 99.621966 165.130766 
L 99.629609 165.02698 
L 99.740049 163.324897 
L 99.74922 163.221111 
L 99.860042 161.93417 
L 99.876474 161.86152 
L 99.986914 160.346251 
L 99.994557 160.242466 
L 100.104232 158.571518 
L 100.104614 158.571518 
L 100.119136 158.48849 
L 100.229958 157.211927 
L 100.240658 157.108142 
L 100.350333 155.426815 
L 100.363326 155.32303 
L 100.474148 154.02571 
L 100.489816 153.921925 
L 100.600638 152.676498 
L 100.609045 152.572712 
L 100.719867 151.192364 
L 100.731331 151.088579 
L 100.842153 149.936559 
L 100.849032 149.832773 
L 100.958707 148.369397 
L 100.959471 148.369397 
L 100.970553 148.265611 
L 101.079082 146.895642 
L 101.080993 146.895642 
L 101.095897 146.791856 
L 101.205572 145.930436 
L 101.220858 145.826651 
L 101.329005 144.809552 
L 101.33168 144.809552 
L 101.345055 144.705767 
L 101.454348 143.761318 
L 101.467341 143.657532 
L 101.637013 142.059235 
L 101.652681 141.955449 
L 101.761974 140.813808 
L 101.772292 140.710022 
L 101.88235 139.620274 
L 101.891521 139.516488 
L 102.002343 138.364469 
L 102.012279 138.260683 
L 102.121954 137.295477 
L 102.128451 137.191692 
L 102.238508 136.319893 
L 102.239273 136.319893 
L 102.253794 136.216107 
L 102.36347 135.354687 
L 102.376845 135.250902 
L 102.487284 134.430996 
L 102.50792 134.32721 
L 102.61836 133.372383 
L 102.634792 133.278976 
L 102.634792 133.268597 
L 102.745614 132.427934 
L 102.765868 132.334527 
L 102.875543 131.649543 
L 102.897707 131.545757 
L 103.008147 130.684337 
L 103.021522 130.580551 
L 103.130815 129.957838 
L 103.132344 129.957838 
L 103.154508 129.854052 
L 103.261127 129.065282 
L 103.28138 128.961496 
L 103.392202 128.266133 
L 103.394877 128.183105 
L 103.505699 127.446227 
L 103.530156 127.342442 
L 103.640596 126.6367 
L 103.661996 126.532914 
L 103.771671 125.796037 
L 103.790779 125.692251 
L 103.898543 124.996888 
L 103.912683 124.903481 
L 104.021212 124.166603 
L 104.023122 124.166603 
L 104.044523 124.073196 
L 104.151905 123.315562 
L 104.17063 123.211776 
L 104.278777 122.640955 
L 104.310495 122.53717 
L 104.420935 121.686128 
L 104.448831 121.592721 
L 104.557742 120.938872 
L 104.57341 120.835087 
L 104.680029 120.326537 
L 104.68385 120.326537 
L 104.700282 120.222752 
L 104.809193 119.558524 
L 104.81034 119.558524 
L 104.822951 119.454739 
L 104.924601 118.842404 
L 104.926512 118.842404 
L 104.953644 118.738618 
L 105.060262 118.115905 
L 105.062555 118.115905 
L 105.077459 118.022498 
L 105.077459 118.012119 
L 105.187134 117.368649 
L 105.203948 117.264863 
L 105.31477 116.78745 
L 105.335406 116.683664 
L 105.443935 116.185493 
L 105.445846 116.185493 
L 105.456164 116.092086 
L 105.565457 115.56278 
L 105.591443 115.469373 
L 105.7015 114.981581 
L 105.721372 114.877795 
L 105.826079 114.390003 
L 105.829901 114.390003 
L 105.856269 114.296596 
L 105.967091 113.725775 
L 105.98658 113.62199 
L 106.090523 113.227605 
L 106.124534 113.123819 
L 106.233827 112.511484 
L 106.235356 112.511484 
L 106.265163 112.428456 
L 106.371782 111.868014 
L 106.374074 111.868014 
L 106.403882 111.764228 
L 106.513175 111.286815 
L 106.564382 111.183029 
L 106.675204 110.788644 
L 106.69049 110.684858 
L 106.793287 110.248959 
L 106.795198 110.248959 
L 106.833412 110.145173 
L 106.942705 109.626246 
L 106.976716 109.52246 
L 107.075309 109.034668 
L 107.078749 109.034668 
L 107.10397 108.930882 
L 107.214028 108.494983 
L 107.254153 108.391197 
L 107.358478 107.955298 
L 107.364593 107.955298 
L 107.420004 107.851513 
L 107.530061 107.353342 
L 107.556047 107.249556 
L 107.666104 106.803278 
L 107.695912 106.709871 
L 107.789155 106.263593 
L 107.804441 106.263593 
L 107.841127 106.180565 
L 107.841127 106.170186 
L 107.951566 105.817315 
L 107.951948 105.817315 
L 107.983666 105.71353 
L 108.092195 105.277631 
L 108.123531 105.173845 
L 108.293203 104.644539 
L 108.311164 104.540753 
L 108.42084 104.135989 
L 108.4495 104.032204 
L 108.558794 103.741604 
L 108.55994 103.741604 
L 108.599683 103.648197 
L 108.708212 103.264191 
L 108.708976 103.264191 
L 108.752159 103.160405 
L 108.860688 102.797156 
L 108.862598 102.797156 
L 108.930238 102.69337 
L 109.040678 102.350878 
L 109.060549 102.257471 
L 109.164875 101.987628 
L 109.170607 101.987628 
L 109.221432 101.883843 
L 109.330343 101.437565 
L 109.331489 101.437565 
L 109.373908 101.333779 
L 109.478997 100.929015 
L 109.484729 100.929015 
L 109.523326 100.835608 
L 109.627651 100.524252 
L 109.628798 100.524252 
L 109.664337 100.430845 
L 109.770955 100.088352 
L 109.816049 99.984567 
L 109.921903 99.631696 
L 109.926488 99.631696 
L 109.96776 99.52791 
L 110.074378 99.154282 
L 110.0782 99.154282 
L 110.130935 99.050497 
L 110.240229 98.915575 
L 110.240993 98.915575 
L 110.288379 98.81179 
L 110.392322 98.438162 
L 110.394233 98.438162 
L 110.524544 98.334376 
L 110.635366 97.888098 
L 110.677402 97.784313 
L 110.77867 97.389928 
L 110.787077 97.389928 
L 110.831788 97.286142 
L 110.938406 96.964407 
L 110.941081 96.964407 
L 111.017128 96.871 
L 111.127568 96.497372 
L 111.166929 96.393586 
L 111.275458 96.144501 
L 111.311761 96.040715 
L 111.422583 95.656709 
L 111.443601 95.552923 
L 111.546016 95.293459 
L 111.55022 95.293459 
L 111.597223 95.200052 
L 111.703459 94.909453 
L 111.745113 94.805667 
L 111.852114 94.608474 
L 111.921282 94.504689 
L 112.022168 94.120682 
L 112.030193 94.120682 
L 112.058089 94.016897 
L 112.168911 93.757433 
L 112.246869 93.664026 
L 112.338965 93.508347 
L 112.353487 93.508347 
L 112.465455 93.404562 
L 112.572074 93.186612 
L 112.576277 93.186612 
L 112.648502 93.082827 
L 112.757796 92.792227 
L 112.857917 92.688442 
L 112.966829 92.470492 
L 112.967975 92.470492 
L 112.998164 92.366706 
L 113.088733 92.148757 
L 113.107458 92.148757 
L 113.141086 92.044971 
L 113.249233 91.76475 
L 113.284773 91.660964 
L 113.39483 91.432636 
L 113.395595 91.432636 
L 113.459795 91.328851 
L 113.576731 91.110901 
L 113.626028 91.007115 
L 113.728442 90.872194 
L 113.736085 90.872194 
L 113.836971 90.768409 
L 113.957347 90.477809 
L 114.047915 90.384402 
L 114.153769 90.156074 
L 114.232491 90.052288 
L 114.316562 89.927745 
L 114.34293 89.927745 
L 114.401016 89.82396 
L 114.511456 89.668282 
L 114.610431 89.564496 
L 114.705585 89.398439 
L 114.714375 89.398439 
L 114.775518 89.294654 
L 114.862647 89.128597 
L 114.885957 89.128597 
L 114.937165 89.024811 
L 115.047605 88.81724 
L 115.141612 88.723833 
L 115.25167 88.588912 
L 115.319691 88.485126 
L 115.413699 88.319069 
L 115.428985 88.319069 
L 115.49051 88.215284 
L 115.586046 88.080362 
L 115.599039 88.080362 
L 115.672411 87.976577 
L 115.779411 87.81052 
L 115.78285 87.81052 
L 115.873036 87.706734 
L 115.952904 87.59257 
L 115.983094 87.59257 
L 116.062198 87.488785 
L 116.15353 87.353863 
L 116.16958 87.353863 
L 116.231106 87.250078 
L 116.341163 87.063264 
L 116.398867 86.959478 
L 116.500135 86.845314 
L 116.503574 86.845314 
L 116.558603 86.751907 
L 116.658343 86.544336 
L 116.665604 86.544336 
L 116.770693 86.440551 
L 116.879222 86.201844 
L 116.881515 86.201844 
L 116.960237 86.098058 
L 117.060359 85.952758 
L 117.167359 85.859351 
L 117.268245 85.662159 
L 117.278181 85.662159 
L 117.387474 85.568752 
L 117.493328 85.402695 
L 117.497914 85.402695 
L 117.590775 85.298909 
L 117.688222 85.039445 
L 117.701215 85.039445 
L 117.767708 84.93566 
L 117.858276 84.852631 
L 117.872798 84.852631 
L 117.98553 84.748846 
L 118.083359 84.634682 
L 118.091384 84.634682 
L 118.194945 84.530896 
L 118.296596 84.416732 
L 118.305003 84.416732 
L 118.401303 84.312946 
L 118.506393 84.157268 
L 118.511361 84.157268 
L 118.566007 84.063861 
L 118.673772 83.877047 
L 118.676065 83.877047 
L 118.781155 83.773261 
L 118.838476 83.71099 
L 118.888919 83.71099 
L 118.966877 83.607205 
L 119.059356 83.461905 
L 119.072349 83.461905 
L 119.15986 83.358119 
L 119.261128 83.212819 
L 119.270682 83.212819 
L 119.383796 83.109034 
L 119.47895 82.984491 
L 119.494618 82.984491 
L 119.581747 82.880706 
L 119.661233 82.735406 
L 119.68913 82.735406 
L 119.883641 82.63162 
L 119.97077 82.434428 
L 119.994463 82.434428 
L 120.04911 82.330642 
L 120.142353 82.102314 
L 120.159167 82.102314 
L 120.235978 81.998528 
L 120.344507 81.863607 
L 120.345272 81.863607 
L 120.487429 81.759822 
L 120.59099 81.6249 
L 120.593283 81.6249 
L 120.815691 81.521115 
L 120.918106 81.427708 
L 120.990331 81.323922 
L 121.096949 81.178622 
L 121.101153 81.178622 
L 121.194014 81.074837 
L 121.301015 80.950294 
L 121.304454 80.950294 
L 121.37324 80.846509 
L 121.481387 80.701209 
L 121.582273 80.597423 
L 121.656409 80.535152 
L 121.684305 80.535152 
L 121.78672 80.431366 
L 121.895631 80.379474 
L 121.896778 80.379474 
L 122.047342 80.275688 
L 122.147082 80.151145 
L 122.295354 80.04736 
L 122.39624 79.870924 
L 122.402355 79.870924 
L 122.585019 79.767139 
L 122.645398 79.673732 
L 122.694313 79.673732 
L 122.838763 79.569946 
L 122.94691 79.414268 
L 122.949203 79.414268 
L 123.078368 79.310482 
L 123.186133 79.18594 
L 123.188808 79.18594 
L 123.357715 79.082154 
L 123.441787 78.978368 
L 123.468537 78.978368 
L 123.530827 78.874583 
L 123.627891 78.82269 
L 123.64012 78.82269 
L 123.803296 78.718904 
L 123.894628 78.60474 
L 123.906092 78.60474 
L 124.141876 78.500955 
L 124.239704 78.376412 
L 124.252697 78.376412 
L 124.494977 78.272627 
L 124.605417 78.148084 
L 124.725792 78.044298 
L 124.754071 78.002784 
L 124.835085 78.002784 
L 125.003229 77.898999 
L 125.062079 77.847106 
L 125.109465 77.847106 
L 125.242069 77.74332 
L 125.343337 77.691427 
L 125.576445 77.587642 
L 125.678478 77.463099 
L 125.686121 77.463099 
L 125.8856 77.359314 
L 125.8856 77.348935 
L 125.990308 77.348935 
L 126.24558 77.245149 
L 126.330798 77.120607 
L 126.352963 77.120607 
L 126.696128 77.016821 
L 126.801982 76.964928 
L 126.806186 76.964928 
L 127.161198 76.861143 
L 127.229602 76.830007 
L 127.267434 76.830007 
L 127.375199 76.7366 
L 127.460035 76.674329 
L 127.480288 76.674329 
L 127.625121 76.570543 
L 127.732122 76.446001 
L 127.734414 76.446001 
L 127.941919 76.342215 
L 128.052741 76.248808 
L 128.252602 76.145022 
L 128.36266 76.061994 
L 128.363042 76.061994 
L 128.645829 75.958208 
L 128.651561 75.927073 
L 128.756651 75.927073 
L 129.15217 75.823287 
L 129.15217 75.812909 
L 129.262228 75.812909 
L 129.583229 75.709123 
L 129.692904 75.626095 
L 129.694051 75.626095 
L 130.101034 75.522309 
L 130.211474 75.460038 
L 130.592472 75.356252 
L 130.592472 75.345874 
L 130.646354 75.345874 
L 131.01092 75.242088 
L 131.114863 75.190195 
L 131.12136 75.190195 
L 131.432043 75.08641 
L 131.542865 75.044895 
L 131.842848 74.94111 
L 131.911634 74.899596 
L 131.952906 74.899596 
L 132.162321 74.79581 
L 132.240278 74.702403 
L 132.271614 74.702403 
L 132.409568 74.619375 
L 132.508544 74.546725 
L 132.52039 74.546725 
L 132.884192 74.442939 
L 132.967881 74.391046 
L 132.987753 74.391046 
L 133.270157 74.287261 
L 133.318308 74.245747 
L 133.380979 74.245747 
L 133.684784 74.15234 
L 133.747456 74.07969 
L 133.795224 74.07969 
L 134.321819 73.975904 
L 134.408948 73.924011 
L 134.431112 73.924011 
L 134.807906 73.820226 
L 134.872489 73.78909 
L 134.917964 73.78909 
L 135.251576 73.685305 
L 135.342526 73.612655 
L 135.361633 73.612655 
L 135.587099 73.508869 
L 135.664292 73.467355 
L 135.69792 73.467355 
L 136.291773 73.363569 
L 136.315466 73.332434 
L 136.398391 73.332434 
L 136.672771 73.228648 
L 136.777478 73.155998 
L 136.782828 73.155998 
L 137.327766 73.052213 
L 137.327766 73.041834 
L 137.438588 73.041834 
L 137.967476 72.938049 
L 138.010276 72.896534 
L 138.078297 72.896534 
L 138.684761 72.792749 
L 138.740554 72.761613 
L 138.79329 72.761613 
L 139.181548 72.657828 
L 139.257213 72.626692 
L 139.291224 72.626692 
L 139.792979 72.522906 
L 139.887751 72.491771 
L 139.902272 72.491771 
L 140.317281 72.387985 
L 140.397531 72.346471 
L 140.421224 72.346471 
L 141.010873 72.242685 
L 141.118256 72.21155 
L 141.120549 72.21155 
L 141.802294 72.107764 
L 141.851209 72.087007 
L 141.911587 72.087007 
L 142.542508 71.983221 
L 142.593333 71.952086 
L 142.64989 71.952086 
L 143.294568 71.8483 
L 143.366029 71.827543 
L 143.404243 71.827543 
L 144.061531 71.723757 
L 144.103185 71.703 
L 144.165093 71.703 
L 144.705062 71.599215 
L 144.769263 71.578458 
L 144.815502 71.578458 
L 145.681441 71.474672 
L 145.681441 71.464294 
L 145.791881 71.464294 
L 146.549673 71.360508 
L 146.644063 71.339751 
L 146.660113 71.339751 
L 147.086968 71.235965 
L 147.086968 71.225587 
L 147.197408 71.225587 
L 147.887178 71.121801 
L 147.982332 71.080287 
L 147.996854 71.080287 
L 148.747767 70.976501 
L 148.834896 70.945366 
L 148.853621 70.945366 
L 149.607974 70.84158 
L 149.607974 70.831202 
L 149.709243 70.831202 
L 150.535821 70.727416 
L 150.586264 70.706659 
L 150.624096 70.706659 
L 151.244699 70.602873 
L 151.244699 70.592495 
L 151.35361 70.592495 
L 151.973066 70.488709 
L 152.072423 70.457574 
L 152.081213 70.457574 
L 153.041541 70.353788 
L 153.070966 70.322652 
L 153.147395 70.322652 
L 154.00722 70.218867 
L 154.078299 70.187731 
L 154.11766 70.187731 
L 155.648148 70.083945 
L 155.648148 70.073567 
L 155.754766 70.073567 
L 156.922217 69.969781 
L 156.922217 69.959403 
L 157.0296 69.959403 
L 158.390033 69.855617 
L 158.476016 69.83486 
L 158.500473 69.83486 
L 159.42488 69.731075 
L 159.450866 69.699939 
L 159.534938 69.699939 
L 160.941229 69.596153 
L 160.941229 69.585775 
L 161.043262 69.585775 
L 162.820233 69.481989 
L 162.90889 69.461232 
L 162.929526 69.461232 
L 163.775211 69.357447 
L 163.858137 69.326311 
L 163.885269 69.326311 
L 164.730954 69.222525 
L 164.730954 69.212147 
L 164.839483 69.212147 
L 166.20756 69.108361 
L 166.295453 69.056468 
L 166.318 69.056468 
L 167.736138 68.952683 
L 167.736138 68.942304 
L 167.846195 68.942304 
L 169.919328 68.838519 
L 169.968243 68.817762 
L 170.020596 68.817762 
L 172.103283 68.713976 
L 172.188501 68.693219 
L 172.214105 68.693219 
L 173.910826 68.589433 
L 173.910826 68.579055 
L 174.021648 68.579055 
L 176.41005 68.475269 
L 176.41005 68.464891 
L 176.512082 68.464891 
L 178.196957 68.361105 
L 178.307014 68.350727 
L 179.17945 68.267698 
L 179.17945 68.236562 
L 179.290272 68.236562 
L 180.887635 68.132777 
L 180.945721 68.091263 
L 180.997693 68.091263 
L 185.995376 67.987477 
L 185.995376 67.977099 
L 186.104287 67.977099 
L 189.551611 67.873313 
L 189.551611 67.862934 
L 189.661287 67.862934 
L 197.786058 67.759149 
L 197.786058 67.74877 
L 197.896115 67.74877 
L 201.312104 67.644985 
L 201.380125 67.624228 
L 201.419868 67.624228 
L 209.329874 67.530821 
L 209.329874 67.510063 
L 209.433435 67.510063 
L 215.773974 67.406278 
L 215.773974 67.395899 
L 215.875242 67.395899 
L 232.027337 67.292114 
L 232.027337 67.281735 
L 232.13128 67.281735 
L 256.497186 67.17795 
L 256.497186 67.167571 
L 256.60304 67.167571 
L 312.639539 67.063786 
L 312.639539 67.053407 
L 312.749979 67.053407 
L 498.109091 66.96 
L 498.109091 66.96 
" style="fill:none;stroke:#ff0000;stroke-linecap:square;stroke-width:1.5;"/>
   </g>
   <g id="patch_3">
    <path d="M 72 384.48 
L 72 51.84 
" style="fill:none;stroke:#000000;stroke-linecap:square;stroke-linejoin:miter;stroke-width:0.8;"/>
   </g>
   <g id="patch_4">
    <path d="M 518.4 384.48 
L 518.4 51.84 
" style="fill:none;stroke:#000000;stroke-linecap:square;stroke-linejoin:miter;stroke-width:0.8;"/>
   </g>
   <g id="patch_5">
    <path d="M 72 384.48 
L 518.4 384.48 
" style="fill:none;stroke:#000000;stroke-linecap:square;stroke-linejoin:miter;stroke-width:0.8;"/>
   </g>
   <g id="patch_6">
    <path d="M 72 51.84 
L 518.4 51.84 
" style="fill:none;stroke:#000000;stroke-linecap:square;stroke-linejoin:miter;stroke-width:0.8;"/>
   </g>
   <g id="text_15">
    <!-- ROC Curves -->
    <g transform="translate(237.894 45.84)scale(0.192 -0.192)">
     <defs>
      <path d="M 39.40625 66.21875 
Q 28.65625 66.21875 22.328125 58.203125 
Q 16.015625 50.203125 16.015625 36.375 
Q 16.015625 22.609375 22.328125 14.59375 
Q 28.65625 6.59375 39.40625 6.59375 
Q 50.140625 6.59375 56.421875 14.59375 
Q 62.703125 22.609375 62.703125 36.375 
Q 62.703125 50.203125 56.421875 58.203125 
Q 50.140625 66.21875 39.40625 66.21875 
z
M 39.40625 74.21875 
Q 54.734375 74.21875 63.90625 63.9375 
Q 73.09375 53.65625 73.09375 36.375 
Q 73.09375 19.140625 63.90625 8.859375 
Q 54.734375 -1.421875 39.40625 -1.421875 
Q 24.03125 -1.421875 14.8125 8.828125 
Q 5.609375 19.09375 5.609375 36.375 
Q 5.609375 53.65625 14.8125 63.9375 
Q 24.03125 74.21875 39.40625 74.21875 
z
" id="DejaVuSans-79"/>
      <path d="M 64.40625 67.28125 
L 64.40625 56.890625 
Q 59.421875 61.53125 53.78125 63.8125 
Q 48.140625 66.109375 41.796875 66.109375 
Q 29.296875 66.109375 22.65625 58.46875 
Q 16.015625 50.828125 16.015625 36.375 
Q 16.015625 21.96875 22.65625 14.328125 
Q 29.296875 6.6875 41.796875 6.6875 
Q 48.140625 6.6875 53.78125 8.984375 
Q 59.421875 11.28125 64.40625 15.921875 
L 64.40625 5.609375 
Q 59.234375 2.09375 53.4375 0.328125 
Q 47.65625 -1.421875 41.21875 -1.421875 
Q 24.65625 -1.421875 15.125 8.703125 
Q 5.609375 18.84375 5.609375 36.375 
Q 5.609375 53.953125 15.125 64.078125 
Q 24.65625 74.21875 41.21875 74.21875 
Q 47.75 74.21875 53.53125 72.484375 
Q 59.328125 70.75 64.40625 67.28125 
z
" id="DejaVuSans-67"/>
     </defs>
     <use xlink:href="#DejaVuSans-82"/>
     <use x="69.482422" xlink:href="#DejaVuSans-79"/>
     <use x="148.193359" xlink:href="#DejaVuSans-67"/>
     <use x="218.017578" xlink:href="#DejaVuSans-32"/>
     <use x="249.804688" xlink:href="#DejaVuSans-67"/>
     <use x="319.628906" xlink:href="#DejaVuSans-117"/>
     <use x="383.007812" xlink:href="#DejaVuSans-114"/>
     <use x="424.121094" xlink:href="#DejaVuSans-118"/>
     <use x="483.300781" xlink:href="#DejaVuSans-101"/>
     <use x="544.824219" xlink:href="#DejaVuSans-115"/>
    </g>
   </g>
   <g id="legend_1">
    <g id="patch_7">
     <path d="M 388.9825 376.48 
L 507.2 376.48 
Q 510.4 376.48 510.4 373.28 
L 510.4 327.91 
Q 510.4 324.71 507.2 324.71 
L 388.9825 324.71 
Q 385.7825 324.71 385.7825 327.91 
L 385.7825 373.28 
Q 385.7825 376.48 388.9825 376.48 
z
" style="fill:#ffffff;opacity:0.8;stroke:#cccccc;stroke-linejoin:miter;"/>
    </g>
    <g id="line2d_15">
     <path d="M 392.1825 337.6675 
L 424.1825 337.6675 
" style="fill:none;stroke:#0000ff;stroke-linecap:square;stroke-width:1.5;"/>
    </g>
    <g id="line2d_16"/>
    <g id="text_16">
     <!-- baseline -->
     <g transform="translate(436.9825 343.2675)scale(0.16 -0.16)">
      <defs>
       <path d="M 48.6875 27.296875 
Q 48.6875 37.203125 44.609375 42.84375 
Q 40.53125 48.484375 33.40625 48.484375 
Q 26.265625 48.484375 22.1875 42.84375 
Q 18.109375 37.203125 18.109375 27.296875 
Q 18.109375 17.390625 22.1875 11.75 
Q 26.265625 6.109375 33.40625 6.109375 
Q 40.53125 6.109375 44.609375 11.75 
Q 48.6875 17.390625 48.6875 27.296875 
z
M 18.109375 46.390625 
Q 20.953125 51.265625 25.265625 53.625 
Q 29.59375 56 35.59375 56 
Q 45.5625 56 51.78125 48.09375 
Q 58.015625 40.1875 58.015625 27.296875 
Q 58.015625 14.40625 51.78125 6.484375 
Q 45.5625 -1.421875 35.59375 -1.421875 
Q 29.59375 -1.421875 25.265625 0.953125 
Q 20.953125 3.328125 18.109375 8.203125 
L 18.109375 0 
L 9.078125 0 
L 9.078125 75.984375 
L 18.109375 75.984375 
z
" id="DejaVuSans-98"/>
       <path d="M 54.890625 33.015625 
L 54.890625 0 
L 45.90625 0 
L 45.90625 32.71875 
Q 45.90625 40.484375 42.875 44.328125 
Q 39.84375 48.1875 33.796875 48.1875 
Q 26.515625 48.1875 22.3125 43.546875 
Q 18.109375 38.921875 18.109375 30.90625 
L 18.109375 0 
L 9.078125 0 
L 9.078125 54.6875 
L 18.109375 54.6875 
L 18.109375 46.1875 
Q 21.34375 51.125 25.703125 53.5625 
Q 30.078125 56 35.796875 56 
Q 45.21875 56 50.046875 50.171875 
Q 54.890625 44.34375 54.890625 33.015625 
z
" id="DejaVuSans-110"/>
      </defs>
      <use xlink:href="#DejaVuSans-98"/>
      <use x="63.476562" xlink:href="#DejaVuSans-97"/>
      <use x="124.755859" xlink:href="#DejaVuSans-115"/>
      <use x="176.855469" xlink:href="#DejaVuSans-101"/>
      <use x="238.378906" xlink:href="#DejaVuSans-108"/>
      <use x="266.162109" xlink:href="#DejaVuSans-105"/>
      <use x="293.945312" xlink:href="#DejaVuSans-110"/>
      <use x="357.324219" xlink:href="#DejaVuSans-101"/>
     </g>
    </g>
    <g id="line2d_17">
     <path d="M 392.1825 361.1525 
L 424.1825 361.1525 
" style="fill:none;stroke:#ff0000;stroke-linecap:square;stroke-width:1.5;"/>
    </g>
    <g id="line2d_18"/>
    <g id="text_17">
     <!-- model -->
     <g transform="translate(436.9825 366.7525)scale(0.16 -0.16)">
      <defs>
       <path d="M 52 44.1875 
Q 55.375 50.25 60.0625 53.125 
Q 64.75 56 71.09375 56 
Q 79.640625 56 84.28125 50.015625 
Q 88.921875 44.046875 88.921875 33.015625 
L 88.921875 0 
L 79.890625 0 
L 79.890625 32.71875 
Q 79.890625 40.578125 77.09375 44.375 
Q 74.3125 48.1875 68.609375 48.1875 
Q 61.625 48.1875 57.5625 43.546875 
Q 53.515625 38.921875 53.515625 30.90625 
L 53.515625 0 
L 44.484375 0 
L 44.484375 32.71875 
Q 44.484375 40.625 41.703125 44.40625 
Q 38.921875 48.1875 33.109375 48.1875 
Q 26.21875 48.1875 22.15625 43.53125 
Q 18.109375 38.875 18.109375 30.90625 
L 18.109375 0 
L 9.078125 0 
L 9.078125 54.6875 
L 18.109375 54.6875 
L 18.109375 46.1875 
Q 21.1875 51.21875 25.484375 53.609375 
Q 29.78125 56 35.6875 56 
Q 41.65625 56 45.828125 52.96875 
Q 50 49.953125 52 44.1875 
z
" id="DejaVuSans-109"/>
       <path d="M 45.40625 46.390625 
L 45.40625 75.984375 
L 54.390625 75.984375 
L 54.390625 0 
L 45.40625 0 
L 45.40625 8.203125 
Q 42.578125 3.328125 38.25 0.953125 
Q 33.9375 -1.421875 27.875 -1.421875 
Q 17.96875 -1.421875 11.734375 6.484375 
Q 5.515625 14.40625 5.515625 27.296875 
Q 5.515625 40.1875 11.734375 48.09375 
Q 17.96875 56 27.875 56 
Q 33.9375 56 38.25 53.625 
Q 42.578125 51.265625 45.40625 46.390625 
z
M 14.796875 27.296875 
Q 14.796875 17.390625 18.875 11.75 
Q 22.953125 6.109375 30.078125 6.109375 
Q 37.203125 6.109375 41.296875 11.75 
Q 45.40625 17.390625 45.40625 27.296875 
Q 45.40625 37.203125 41.296875 42.84375 
Q 37.203125 48.484375 30.078125 48.484375 
Q 22.953125 48.484375 18.875 42.84375 
Q 14.796875 37.203125 14.796875 27.296875 
z
" id="DejaVuSans-100"/>
      </defs>
      <use xlink:href="#DejaVuSans-109"/>
      <use x="97.412109" xlink:href="#DejaVuSans-111"/>
      <use x="158.59375" xlink:href="#DejaVuSans-100"/>
      <use x="222.070312" xlink:href="#DejaVuSans-101"/>
      <use x="283.59375" xlink:href="#DejaVuSans-108"/>
     </g>
    </g>
   </g>
  </g>
 </g>
 <defs>
  <clipPath id="p19f55dfaf6">
   <rect height="332.64" width="446.4" x="72" y="51.84"/>
  </clipPath>
 </defs>
</svg>
