<?xml version="1.0" encoding="utf-8" standalone="no"?>
<!DOCTYPE svg PUBLIC "-//W3C//DTD SVG 1.1//EN"
  "http://www.w3.org/Graphics/SVG/1.1/DTD/svg11.dtd">
<!-- Created with matplotlib (https://matplotlib.org/) -->
<svg height="432pt" version="1.1" viewBox="0 0 576 432" width="576pt" xmlns="http://www.w3.org/2000/svg" xmlns:xlink="http://www.w3.org/1999/xlink">
 <metadata>
  <rdf:RDF xmlns:cc="http://creativecommons.org/ns#" xmlns:dc="http://purl.org/dc/elements/1.1/" xmlns:rdf="http://www.w3.org/1999/02/22-rdf-syntax-ns#">
   <cc:Work>
    <dc:type rdf:resource="http://purl.org/dc/dcmitype/StillImage"/>
    <dc:date>2020-09-18T01:34:58.249947</dc:date>
    <dc:format>image/svg+xml</dc:format>
    <dc:creator>
     <cc:Agent>
      <dc:title>Matplotlib v3.3.0, https://matplotlib.org/</dc:title>
     </cc:Agent>
    </dc:creator>
   </cc:Work>
  </rdf:RDF>
 </metadata>
 <defs>
  <style type="text/css">*{stroke-linecap:butt;stroke-linejoin:round;}</style>
 </defs>
 <g id="figure_1">
  <g id="patch_1">
   <path d="M 0 432 
L 576 432 
L 576 0 
L 0 0 
z
" style="fill:#ffffff;"/>
  </g>
  <g id="axes_1">
   <g id="patch_2">
    <path d="M 72 384.48 
L 518.4 384.48 
L 518.4 51.84 
L 72 51.84 
z
" style="fill:#ffffff;"/>
   </g>
   <g id="matplotlib.axis_1">
    <g id="xtick_1">
     <g id="line2d_1">
      <defs>
       <path d="M 0 0 
L 0 3.5 
" id="m32e86a2494" style="stroke:#000000;stroke-width:0.8;"/>
      </defs>
      <g>
       <use style="stroke:#000000;stroke-width:0.8;" x="92.290909" xlink:href="#m32e86a2494" y="384.48"/>
      </g>
     </g>
     <g id="text_1">
      <!-- 0.0 -->
      <g transform="translate(79.568409 403.6375)scale(0.16 -0.16)">
       <defs>
        <path d="M 31.78125 66.40625 
Q 24.171875 66.40625 20.328125 58.90625 
Q 16.5 51.421875 16.5 36.375 
Q 16.5 21.390625 20.328125 13.890625 
Q 24.171875 6.390625 31.78125 6.390625 
Q 39.453125 6.390625 43.28125 13.890625 
Q 47.125 21.390625 47.125 36.375 
Q 47.125 51.421875 43.28125 58.90625 
Q 39.453125 66.40625 31.78125 66.40625 
z
M 31.78125 74.21875 
Q 44.046875 74.21875 50.515625 64.515625 
Q 56.984375 54.828125 56.984375 36.375 
Q 56.984375 17.96875 50.515625 8.265625 
Q 44.046875 -1.421875 31.78125 -1.421875 
Q 19.53125 -1.421875 13.0625 8.265625 
Q 6.59375 17.96875 6.59375 36.375 
Q 6.59375 54.828125 13.0625 64.515625 
Q 19.53125 74.21875 31.78125 74.21875 
z
" id="DejaVuSans-48"/>
        <path d="M 10.6875 12.40625 
L 21 12.40625 
L 21 0 
L 10.6875 0 
z
" id="DejaVuSans-46"/>
       </defs>
       <use xlink:href="#DejaVuSans-48"/>
       <use x="63.623047" xlink:href="#DejaVuSans-46"/>
       <use x="95.410156" xlink:href="#DejaVuSans-48"/>
      </g>
     </g>
    </g>
    <g id="xtick_2">
     <g id="line2d_2">
      <g>
       <use style="stroke:#000000;stroke-width:0.8;" x="173.454545" xlink:href="#m32e86a2494" y="384.48"/>
      </g>
     </g>
     <g id="text_2">
      <!-- 0.2 -->
      <g transform="translate(160.732045 403.6375)scale(0.16 -0.16)">
       <defs>
        <path d="M 19.1875 8.296875 
L 53.609375 8.296875 
L 53.609375 0 
L 7.328125 0 
L 7.328125 8.296875 
Q 12.9375 14.109375 22.625 23.890625 
Q 32.328125 33.6875 34.8125 36.53125 
Q 39.546875 41.84375 41.421875 45.53125 
Q 43.3125 49.21875 43.3125 52.78125 
Q 43.3125 58.59375 39.234375 62.25 
Q 35.15625 65.921875 28.609375 65.921875 
Q 23.96875 65.921875 18.8125 64.3125 
Q 13.671875 62.703125 7.8125 59.421875 
L 7.8125 69.390625 
Q 13.765625 71.78125 18.9375 73 
Q 24.125 74.21875 28.421875 74.21875 
Q 39.75 74.21875 46.484375 68.546875 
Q 53.21875 62.890625 53.21875 53.421875 
Q 53.21875 48.921875 51.53125 44.890625 
Q 49.859375 40.875 45.40625 35.40625 
Q 44.1875 33.984375 37.640625 27.21875 
Q 31.109375 20.453125 19.1875 8.296875 
z
" id="DejaVuSans-50"/>
       </defs>
       <use xlink:href="#DejaVuSans-48"/>
       <use x="63.623047" xlink:href="#DejaVuSans-46"/>
       <use x="95.410156" xlink:href="#DejaVuSans-50"/>
      </g>
     </g>
    </g>
    <g id="xtick_3">
     <g id="line2d_3">
      <g>
       <use style="stroke:#000000;stroke-width:0.8;" x="254.618182" xlink:href="#m32e86a2494" y="384.48"/>
      </g>
     </g>
     <g id="text_3">
      <!-- 0.4 -->
      <g transform="translate(241.895682 403.6375)scale(0.16 -0.16)">
       <defs>
        <path d="M 37.796875 64.3125 
L 12.890625 25.390625 
L 37.796875 25.390625 
z
M 35.203125 72.90625 
L 47.609375 72.90625 
L 47.609375 25.390625 
L 58.015625 25.390625 
L 58.015625 17.1875 
L 47.609375 17.1875 
L 47.609375 0 
L 37.796875 0 
L 37.796875 17.1875 
L 4.890625 17.1875 
L 4.890625 26.703125 
z
" id="DejaVuSans-52"/>
       </defs>
       <use xlink:href="#DejaVuSans-48"/>
       <use x="63.623047" xlink:href="#DejaVuSans-46"/>
       <use x="95.410156" xlink:href="#DejaVuSans-52"/>
      </g>
     </g>
    </g>
    <g id="xtick_4">
     <g id="line2d_4">
      <g>
       <use style="stroke:#000000;stroke-width:0.8;" x="335.781818" xlink:href="#m32e86a2494" y="384.48"/>
      </g>
     </g>
     <g id="text_4">
      <!-- 0.6 -->
      <g transform="translate(323.059318 403.6375)scale(0.16 -0.16)">
       <defs>
        <path d="M 33.015625 40.375 
Q 26.375 40.375 22.484375 35.828125 
Q 18.609375 31.296875 18.609375 23.390625 
Q 18.609375 15.53125 22.484375 10.953125 
Q 26.375 6.390625 33.015625 6.390625 
Q 39.65625 6.390625 43.53125 10.953125 
Q 47.40625 15.53125 47.40625 23.390625 
Q 47.40625 31.296875 43.53125 35.828125 
Q 39.65625 40.375 33.015625 40.375 
z
M 52.59375 71.296875 
L 52.59375 62.3125 
Q 48.875 64.0625 45.09375 64.984375 
Q 41.3125 65.921875 37.59375 65.921875 
Q 27.828125 65.921875 22.671875 59.328125 
Q 17.53125 52.734375 16.796875 39.40625 
Q 19.671875 43.65625 24.015625 45.921875 
Q 28.375 48.1875 33.59375 48.1875 
Q 44.578125 48.1875 50.953125 41.515625 
Q 57.328125 34.859375 57.328125 23.390625 
Q 57.328125 12.15625 50.6875 5.359375 
Q 44.046875 -1.421875 33.015625 -1.421875 
Q 20.359375 -1.421875 13.671875 8.265625 
Q 6.984375 17.96875 6.984375 36.375 
Q 6.984375 53.65625 15.1875 63.9375 
Q 23.390625 74.21875 37.203125 74.21875 
Q 40.921875 74.21875 44.703125 73.484375 
Q 48.484375 72.75 52.59375 71.296875 
z
" id="DejaVuSans-54"/>
       </defs>
       <use xlink:href="#DejaVuSans-48"/>
       <use x="63.623047" xlink:href="#DejaVuSans-46"/>
       <use x="95.410156" xlink:href="#DejaVuSans-54"/>
      </g>
     </g>
    </g>
    <g id="xtick_5">
     <g id="line2d_5">
      <g>
       <use style="stroke:#000000;stroke-width:0.8;" x="416.945455" xlink:href="#m32e86a2494" y="384.48"/>
      </g>
     </g>
     <g id="text_5">
      <!-- 0.8 -->
      <g transform="translate(404.222955 403.6375)scale(0.16 -0.16)">
       <defs>
        <path d="M 31.78125 34.625 
Q 24.75 34.625 20.71875 30.859375 
Q 16.703125 27.09375 16.703125 20.515625 
Q 16.703125 13.921875 20.71875 10.15625 
Q 24.75 6.390625 31.78125 6.390625 
Q 38.8125 6.390625 42.859375 10.171875 
Q 46.921875 13.96875 46.921875 20.515625 
Q 46.921875 27.09375 42.890625 30.859375 
Q 38.875 34.625 31.78125 34.625 
z
M 21.921875 38.8125 
Q 15.578125 40.375 12.03125 44.71875 
Q 8.5 49.078125 8.5 55.328125 
Q 8.5 64.0625 14.71875 69.140625 
Q 20.953125 74.21875 31.78125 74.21875 
Q 42.671875 74.21875 48.875 69.140625 
Q 55.078125 64.0625 55.078125 55.328125 
Q 55.078125 49.078125 51.53125 44.71875 
Q 48 40.375 41.703125 38.8125 
Q 48.828125 37.15625 52.796875 32.3125 
Q 56.78125 27.484375 56.78125 20.515625 
Q 56.78125 9.90625 50.3125 4.234375 
Q 43.84375 -1.421875 31.78125 -1.421875 
Q 19.734375 -1.421875 13.25 4.234375 
Q 6.78125 9.90625 6.78125 20.515625 
Q 6.78125 27.484375 10.78125 32.3125 
Q 14.796875 37.15625 21.921875 38.8125 
z
M 18.3125 54.390625 
Q 18.3125 48.734375 21.84375 45.5625 
Q 25.390625 42.390625 31.78125 42.390625 
Q 38.140625 42.390625 41.71875 45.5625 
Q 45.3125 48.734375 45.3125 54.390625 
Q 45.3125 60.0625 41.71875 63.234375 
Q 38.140625 66.40625 31.78125 66.40625 
Q 25.390625 66.40625 21.84375 63.234375 
Q 18.3125 60.0625 18.3125 54.390625 
z
" id="DejaVuSans-56"/>
       </defs>
       <use xlink:href="#DejaVuSans-48"/>
       <use x="63.623047" xlink:href="#DejaVuSans-46"/>
       <use x="95.410156" xlink:href="#DejaVuSans-56"/>
      </g>
     </g>
    </g>
    <g id="xtick_6">
     <g id="line2d_6">
      <g>
       <use style="stroke:#000000;stroke-width:0.8;" x="498.109091" xlink:href="#m32e86a2494" y="384.48"/>
      </g>
     </g>
     <g id="text_6">
      <!-- 1.0 -->
      <g transform="translate(485.386591 403.6375)scale(0.16 -0.16)">
       <defs>
        <path d="M 12.40625 8.296875 
L 28.515625 8.296875 
L 28.515625 63.921875 
L 10.984375 60.40625 
L 10.984375 69.390625 
L 28.421875 72.90625 
L 38.28125 72.90625 
L 38.28125 8.296875 
L 54.390625 8.296875 
L 54.390625 0 
L 12.40625 0 
z
" id="DejaVuSans-49"/>
       </defs>
       <use xlink:href="#DejaVuSans-49"/>
       <use x="63.623047" xlink:href="#DejaVuSans-46"/>
       <use x="95.410156" xlink:href="#DejaVuSans-48"/>
      </g>
     </g>
    </g>
    <g id="text_7">
     <!-- False Positive Rate -->
     <g transform="translate(220.85375 423.1225)scale(0.16 -0.16)">
      <defs>
       <path d="M 9.8125 72.90625 
L 51.703125 72.90625 
L 51.703125 64.59375 
L 19.671875 64.59375 
L 19.671875 43.109375 
L 48.578125 43.109375 
L 48.578125 34.8125 
L 19.671875 34.8125 
L 19.671875 0 
L 9.8125 0 
z
" id="DejaVuSans-70"/>
       <path d="M 34.28125 27.484375 
Q 23.390625 27.484375 19.1875 25 
Q 14.984375 22.515625 14.984375 16.5 
Q 14.984375 11.71875 18.140625 8.90625 
Q 21.296875 6.109375 26.703125 6.109375 
Q 34.1875 6.109375 38.703125 11.40625 
Q 43.21875 16.703125 43.21875 25.484375 
L 43.21875 27.484375 
z
M 52.203125 31.203125 
L 52.203125 0 
L 43.21875 0 
L 43.21875 8.296875 
Q 40.140625 3.328125 35.546875 0.953125 
Q 30.953125 -1.421875 24.3125 -1.421875 
Q 15.921875 -1.421875 10.953125 3.296875 
Q 6 8.015625 6 15.921875 
Q 6 25.140625 12.171875 29.828125 
Q 18.359375 34.515625 30.609375 34.515625 
L 43.21875 34.515625 
L 43.21875 35.40625 
Q 43.21875 41.609375 39.140625 45 
Q 35.0625 48.390625 27.6875 48.390625 
Q 23 48.390625 18.546875 47.265625 
Q 14.109375 46.140625 10.015625 43.890625 
L 10.015625 52.203125 
Q 14.9375 54.109375 19.578125 55.046875 
Q 24.21875 56 28.609375 56 
Q 40.484375 56 46.34375 49.84375 
Q 52.203125 43.703125 52.203125 31.203125 
z
" id="DejaVuSans-97"/>
       <path d="M 9.421875 75.984375 
L 18.40625 75.984375 
L 18.40625 0 
L 9.421875 0 
z
" id="DejaVuSans-108"/>
       <path d="M 44.28125 53.078125 
L 44.28125 44.578125 
Q 40.484375 46.53125 36.375 47.5 
Q 32.28125 48.484375 27.875 48.484375 
Q 21.1875 48.484375 17.84375 46.4375 
Q 14.5 44.390625 14.5 40.28125 
Q 14.5 37.15625 16.890625 35.375 
Q 19.28125 33.59375 26.515625 31.984375 
L 29.59375 31.296875 
Q 39.15625 29.25 43.1875 25.515625 
Q 47.21875 21.78125 47.21875 15.09375 
Q 47.21875 7.46875 41.1875 3.015625 
Q 35.15625 -1.421875 24.609375 -1.421875 
Q 20.21875 -1.421875 15.453125 -0.5625 
Q 10.6875 0.296875 5.421875 2 
L 5.421875 11.28125 
Q 10.40625 8.6875 15.234375 7.390625 
Q 20.0625 6.109375 24.8125 6.109375 
Q 31.15625 6.109375 34.5625 8.28125 
Q 37.984375 10.453125 37.984375 14.40625 
Q 37.984375 18.0625 35.515625 20.015625 
Q 33.0625 21.96875 24.703125 23.78125 
L 21.578125 24.515625 
Q 13.234375 26.265625 9.515625 29.90625 
Q 5.8125 33.546875 5.8125 39.890625 
Q 5.8125 47.609375 11.28125 51.796875 
Q 16.75 56 26.8125 56 
Q 31.78125 56 36.171875 55.265625 
Q 40.578125 54.546875 44.28125 53.078125 
z
" id="DejaVuSans-115"/>
       <path d="M 56.203125 29.59375 
L 56.203125 25.203125 
L 14.890625 25.203125 
Q 15.484375 15.921875 20.484375 11.0625 
Q 25.484375 6.203125 34.421875 6.203125 
Q 39.59375 6.203125 44.453125 7.46875 
Q 49.3125 8.734375 54.109375 11.28125 
L 54.109375 2.78125 
Q 49.265625 0.734375 44.1875 -0.34375 
Q 39.109375 -1.421875 33.890625 -1.421875 
Q 20.796875 -1.421875 13.15625 6.1875 
Q 5.515625 13.8125 5.515625 26.8125 
Q 5.515625 40.234375 12.765625 48.109375 
Q 20.015625 56 32.328125 56 
Q 43.359375 56 49.78125 48.890625 
Q 56.203125 41.796875 56.203125 29.59375 
z
M 47.21875 32.234375 
Q 47.125 39.59375 43.09375 43.984375 
Q 39.0625 48.390625 32.421875 48.390625 
Q 24.90625 48.390625 20.390625 44.140625 
Q 15.875 39.890625 15.1875 32.171875 
z
" id="DejaVuSans-101"/>
       <path id="DejaVuSans-32"/>
       <path d="M 19.671875 64.796875 
L 19.671875 37.40625 
L 32.078125 37.40625 
Q 38.96875 37.40625 42.71875 40.96875 
Q 46.484375 44.53125 46.484375 51.125 
Q 46.484375 57.671875 42.71875 61.234375 
Q 38.96875 64.796875 32.078125 64.796875 
z
M 9.8125 72.90625 
L 32.078125 72.90625 
Q 44.34375 72.90625 50.609375 67.359375 
Q 56.890625 61.8125 56.890625 51.125 
Q 56.890625 40.328125 50.609375 34.8125 
Q 44.34375 29.296875 32.078125 29.296875 
L 19.671875 29.296875 
L 19.671875 0 
L 9.8125 0 
z
" id="DejaVuSans-80"/>
       <path d="M 30.609375 48.390625 
Q 23.390625 48.390625 19.1875 42.75 
Q 14.984375 37.109375 14.984375 27.296875 
Q 14.984375 17.484375 19.15625 11.84375 
Q 23.34375 6.203125 30.609375 6.203125 
Q 37.796875 6.203125 41.984375 11.859375 
Q 46.1875 17.53125 46.1875 27.296875 
Q 46.1875 37.015625 41.984375 42.703125 
Q 37.796875 48.390625 30.609375 48.390625 
z
M 30.609375 56 
Q 42.328125 56 49.015625 48.375 
Q 55.71875 40.765625 55.71875 27.296875 
Q 55.71875 13.875 49.015625 6.21875 
Q 42.328125 -1.421875 30.609375 -1.421875 
Q 18.84375 -1.421875 12.171875 6.21875 
Q 5.515625 13.875 5.515625 27.296875 
Q 5.515625 40.765625 12.171875 48.375 
Q 18.84375 56 30.609375 56 
z
" id="DejaVuSans-111"/>
       <path d="M 9.421875 54.6875 
L 18.40625 54.6875 
L 18.40625 0 
L 9.421875 0 
z
M 9.421875 75.984375 
L 18.40625 75.984375 
L 18.40625 64.59375 
L 9.421875 64.59375 
z
" id="DejaVuSans-105"/>
       <path d="M 18.3125 70.21875 
L 18.3125 54.6875 
L 36.8125 54.6875 
L 36.8125 47.703125 
L 18.3125 47.703125 
L 18.3125 18.015625 
Q 18.3125 11.328125 20.140625 9.421875 
Q 21.96875 7.515625 27.59375 7.515625 
L 36.8125 7.515625 
L 36.8125 0 
L 27.59375 0 
Q 17.1875 0 13.234375 3.875 
Q 9.28125 7.765625 9.28125 18.015625 
L 9.28125 47.703125 
L 2.6875 47.703125 
L 2.6875 54.6875 
L 9.28125 54.6875 
L 9.28125 70.21875 
z
" id="DejaVuSans-116"/>
       <path d="M 2.984375 54.6875 
L 12.5 54.6875 
L 29.59375 8.796875 
L 46.6875 54.6875 
L 56.203125 54.6875 
L 35.6875 0 
L 23.484375 0 
z
" id="DejaVuSans-118"/>
       <path d="M 44.390625 34.1875 
Q 47.5625 33.109375 50.5625 29.59375 
Q 53.5625 26.078125 56.59375 19.921875 
L 66.609375 0 
L 56 0 
L 46.6875 18.703125 
Q 43.0625 26.03125 39.671875 28.421875 
Q 36.28125 30.8125 30.421875 30.8125 
L 19.671875 30.8125 
L 19.671875 0 
L 9.8125 0 
L 9.8125 72.90625 
L 32.078125 72.90625 
Q 44.578125 72.90625 50.734375 67.671875 
Q 56.890625 62.453125 56.890625 51.90625 
Q 56.890625 45.015625 53.6875 40.46875 
Q 50.484375 35.9375 44.390625 34.1875 
z
M 19.671875 64.796875 
L 19.671875 38.921875 
L 32.078125 38.921875 
Q 39.203125 38.921875 42.84375 42.21875 
Q 46.484375 45.515625 46.484375 51.90625 
Q 46.484375 58.296875 42.84375 61.546875 
Q 39.203125 64.796875 32.078125 64.796875 
z
" id="DejaVuSans-82"/>
      </defs>
      <use xlink:href="#DejaVuSans-70"/>
      <use x="48.394531" xlink:href="#DejaVuSans-97"/>
      <use x="109.673828" xlink:href="#DejaVuSans-108"/>
      <use x="137.457031" xlink:href="#DejaVuSans-115"/>
      <use x="189.556641" xlink:href="#DejaVuSans-101"/>
      <use x="251.080078" xlink:href="#DejaVuSans-32"/>
      <use x="282.867188" xlink:href="#DejaVuSans-80"/>
      <use x="339.544922" xlink:href="#DejaVuSans-111"/>
      <use x="400.726562" xlink:href="#DejaVuSans-115"/>
      <use x="452.826172" xlink:href="#DejaVuSans-105"/>
      <use x="480.609375" xlink:href="#DejaVuSans-116"/>
      <use x="519.818359" xlink:href="#DejaVuSans-105"/>
      <use x="547.601562" xlink:href="#DejaVuSans-118"/>
      <use x="606.78125" xlink:href="#DejaVuSans-101"/>
      <use x="668.304688" xlink:href="#DejaVuSans-32"/>
      <use x="700.091797" xlink:href="#DejaVuSans-82"/>
      <use x="767.324219" xlink:href="#DejaVuSans-97"/>
      <use x="828.603516" xlink:href="#DejaVuSans-116"/>
      <use x="867.8125" xlink:href="#DejaVuSans-101"/>
     </g>
    </g>
   </g>
   <g id="matplotlib.axis_2">
    <g id="ytick_1">
     <g id="line2d_7">
      <defs>
       <path d="M 0 0 
L -3.5 0 
" id="ma29e1ae280" style="stroke:#000000;stroke-width:0.8;"/>
      </defs>
      <g>
       <use style="stroke:#000000;stroke-width:0.8;" x="72" xlink:href="#ma29e1ae280" y="369.36"/>
      </g>
     </g>
     <g id="text_8">
      <!-- 0.0 -->
      <g transform="translate(39.555 375.43875)scale(0.16 -0.16)">
       <use xlink:href="#DejaVuSans-48"/>
       <use x="63.623047" xlink:href="#DejaVuSans-46"/>
       <use x="95.410156" xlink:href="#DejaVuSans-48"/>
      </g>
     </g>
    </g>
    <g id="ytick_2">
     <g id="line2d_8">
      <g>
       <use style="stroke:#000000;stroke-width:0.8;" x="72" xlink:href="#ma29e1ae280" y="308.88"/>
      </g>
     </g>
     <g id="text_9">
      <!-- 0.2 -->
      <g transform="translate(39.555 314.95875)scale(0.16 -0.16)">
       <use xlink:href="#DejaVuSans-48"/>
       <use x="63.623047" xlink:href="#DejaVuSans-46"/>
       <use x="95.410156" xlink:href="#DejaVuSans-50"/>
      </g>
     </g>
    </g>
    <g id="ytick_3">
     <g id="line2d_9">
      <g>
       <use style="stroke:#000000;stroke-width:0.8;" x="72" xlink:href="#ma29e1ae280" y="248.4"/>
      </g>
     </g>
     <g id="text_10">
      <!-- 0.4 -->
      <g transform="translate(39.555 254.47875)scale(0.16 -0.16)">
       <use xlink:href="#DejaVuSans-48"/>
       <use x="63.623047" xlink:href="#DejaVuSans-46"/>
       <use x="95.410156" xlink:href="#DejaVuSans-52"/>
      </g>
     </g>
    </g>
    <g id="ytick_4">
     <g id="line2d_10">
      <g>
       <use style="stroke:#000000;stroke-width:0.8;" x="72" xlink:href="#ma29e1ae280" y="187.92"/>
      </g>
     </g>
     <g id="text_11">
      <!-- 0.6 -->
      <g transform="translate(39.555 193.99875)scale(0.16 -0.16)">
       <use xlink:href="#DejaVuSans-48"/>
       <use x="63.623047" xlink:href="#DejaVuSans-46"/>
       <use x="95.410156" xlink:href="#DejaVuSans-54"/>
      </g>
     </g>
    </g>
    <g id="ytick_5">
     <g id="line2d_11">
      <g>
       <use style="stroke:#000000;stroke-width:0.8;" x="72" xlink:href="#ma29e1ae280" y="127.44"/>
      </g>
     </g>
     <g id="text_12">
      <!-- 0.8 -->
      <g transform="translate(39.555 133.51875)scale(0.16 -0.16)">
       <use xlink:href="#DejaVuSans-48"/>
       <use x="63.623047" xlink:href="#DejaVuSans-46"/>
       <use x="95.410156" xlink:href="#DejaVuSans-56"/>
      </g>
     </g>
    </g>
    <g id="ytick_6">
     <g id="line2d_12">
      <g>
       <use style="stroke:#000000;stroke-width:0.8;" x="72" xlink:href="#ma29e1ae280" y="66.96"/>
      </g>
     </g>
     <g id="text_13">
      <!-- 1.0 -->
      <g transform="translate(39.555 73.03875)scale(0.16 -0.16)">
       <use xlink:href="#DejaVuSans-49"/>
       <use x="63.623047" xlink:href="#DejaVuSans-46"/>
       <use x="95.410156" xlink:href="#DejaVuSans-48"/>
      </g>
     </g>
    </g>
    <g id="text_14">
     <!-- True Positive Rate -->
     <g transform="translate(32.2275 289.4075)rotate(-90)scale(0.16 -0.16)">
      <defs>
       <path d="M -0.296875 72.90625 
L 61.375 72.90625 
L 61.375 64.59375 
L 35.5 64.59375 
L 35.5 0 
L 25.59375 0 
L 25.59375 64.59375 
L -0.296875 64.59375 
z
" id="DejaVuSans-84"/>
       <path d="M 41.109375 46.296875 
Q 39.59375 47.171875 37.8125 47.578125 
Q 36.03125 48 33.890625 48 
Q 26.265625 48 22.1875 43.046875 
Q 18.109375 38.09375 18.109375 28.8125 
L 18.109375 0 
L 9.078125 0 
L 9.078125 54.6875 
L 18.109375 54.6875 
L 18.109375 46.1875 
Q 20.953125 51.171875 25.484375 53.578125 
Q 30.03125 56 36.53125 56 
Q 37.453125 56 38.578125 55.875 
Q 39.703125 55.765625 41.0625 55.515625 
z
" id="DejaVuSans-114"/>
       <path d="M 8.5 21.578125 
L 8.5 54.6875 
L 17.484375 54.6875 
L 17.484375 21.921875 
Q 17.484375 14.15625 20.5 10.265625 
Q 23.53125 6.390625 29.59375 6.390625 
Q 36.859375 6.390625 41.078125 11.03125 
Q 45.3125 15.671875 45.3125 23.6875 
L 45.3125 54.6875 
L 54.296875 54.6875 
L 54.296875 0 
L 45.3125 0 
L 45.3125 8.40625 
Q 42.046875 3.421875 37.71875 1 
Q 33.40625 -1.421875 27.6875 -1.421875 
Q 18.265625 -1.421875 13.375 4.4375 
Q 8.5 10.296875 8.5 21.578125 
z
M 31.109375 56 
z
" id="DejaVuSans-117"/>
      </defs>
      <use xlink:href="#DejaVuSans-84"/>
      <use x="46.333984" xlink:href="#DejaVuSans-114"/>
      <use x="87.447266" xlink:href="#DejaVuSans-117"/>
      <use x="150.826172" xlink:href="#DejaVuSans-101"/>
      <use x="212.349609" xlink:href="#DejaVuSans-32"/>
      <use x="244.136719" xlink:href="#DejaVuSans-80"/>
      <use x="300.814453" xlink:href="#DejaVuSans-111"/>
      <use x="361.996094" xlink:href="#DejaVuSans-115"/>
      <use x="414.095703" xlink:href="#DejaVuSans-105"/>
      <use x="441.878906" xlink:href="#DejaVuSans-116"/>
      <use x="481.087891" xlink:href="#DejaVuSans-105"/>
      <use x="508.871094" xlink:href="#DejaVuSans-118"/>
      <use x="568.050781" xlink:href="#DejaVuSans-101"/>
      <use x="629.574219" xlink:href="#DejaVuSans-32"/>
      <use x="661.361328" xlink:href="#DejaVuSans-82"/>
      <use x="728.59375" xlink:href="#DejaVuSans-97"/>
      <use x="789.873047" xlink:href="#DejaVuSans-116"/>
      <use x="829.082031" xlink:href="#DejaVuSans-101"/>
     </g>
    </g>
   </g>
   <g id="line2d_13">
    <path clip-path="url(#pf45df30ef8)" d="M 92.290909 369.36 
L 498.109091 66.96 
" style="fill:none;stroke:#0000ff;stroke-linecap:square;stroke-width:1.5;"/>
   </g>
   <g id="line2d_14">
    <path clip-path="url(#pf45df30ef8)" d="M 92.290909 369.36 
L 92.401936 353.693941 
L 92.40389 353.585584 
L 92.514917 344.671842 
L 92.517653 344.597703 
L 92.62868 336.915802 
L 92.632198 336.83596 
L 92.742834 330.659644 
L 92.744007 330.625426 
L 92.744007 330.55699 
L 92.854251 324.654416 
L 92.854642 324.654416 
L 92.858551 324.563168 
L 92.969187 318.483802 
L 92.973096 318.392554 
L 93.083732 312.689584 
L 93.08725 312.60404 
L 93.198277 307.57402 
L 93.201013 307.477069 
L 93.31204 303.02305 
L 93.317122 302.926099 
L 93.428149 298.45497 
L 93.432058 298.346614 
L 93.543084 294.354535 
L 93.547385 294.26899 
L 93.65802 289.997465 
L 93.661539 289.900515 
L 93.772565 285.822891 
L 93.777647 285.725941 
L 93.888674 281.602693 
L 93.892974 281.505743 
L 94.00361 277.998416 
L 94.006737 277.918574 
L 94.116591 274.131802 
L 94.121282 274.023446 
L 94.232309 270.795564 
L 94.235436 270.687208 
L 94.346463 267.653228 
L 94.349981 267.56198 
L 94.461008 264.653465 
L 94.463744 264.550812 
L 94.57438 261.910337 
L 94.579853 261.80198 
L 94.690488 258.973307 
L 94.698698 258.870653 
L 94.809724 255.979248 
L 94.819107 255.876594 
L 94.930133 253.321663 
L 94.934434 253.21901 
L 95.04546 250.538614 
L 95.052497 250.43596 
L 95.163524 247.601584 
L 95.169779 247.498931 
L 95.280805 244.550495 
L 95.288624 244.453545 
L 95.39965 242.349149 
L 95.410597 242.240792 
L 95.521623 239.566099 
L 95.529833 239.469149 
L 95.640468 237.307723 
L 95.651806 237.199366 
L 95.762441 234.992317 
L 95.768305 234.889663 
L 95.878159 232.57996 
L 95.885196 232.471604 
L 95.995831 230.44705 
L 96.002868 230.344396 
L 96.113895 228.02899 
L 96.121322 227.920634 
L 96.232349 225.924594 
L 96.235867 225.827644 
L 96.345721 223.723248 
L 96.346894 223.723248 
L 96.353931 223.626297 
L 96.464566 221.390733 
L 96.473167 221.288079 
L 96.584193 219.360475 
L 96.588103 219.263525 
L 96.588103 219.252119 
L 96.698738 217.44998 
L 96.706557 217.347327 
L 96.817193 215.208713 
L 96.831266 215.100356 
L 96.941902 213.355248 
L 96.94933 213.264 
L 97.059574 211.712792 
L 97.060356 211.712792 
L 97.062702 211.638653 
L 97.062702 211.604436 
L 97.173337 209.887842 
L 97.177638 209.790891 
L 97.177638 209.785188 
L 97.260126 208.547644 
L 97.297656 208.450693 
L 97.297656 208.44499 
L 97.408682 206.791129 
L 97.416892 206.71699 
L 97.527918 205.023208 
L 97.533392 204.914851 
L 97.644418 203.757149 
L 97.65341 203.660198 
L 97.764045 201.80103 
L 97.77421 201.692673 
L 97.884845 200.255525 
L 97.890318 200.164277 
L 98.001345 198.470495 
L 98.0076 198.362139 
L 98.118626 196.833743 
L 98.126054 196.725386 
L 98.23708 195.13996 
L 98.240599 195.060119 
L 98.351625 193.754139 
L 98.364526 193.645782 
L 98.473989 192.510891 
L 98.47438 192.510891 
L 98.481808 192.408238 
L 98.592834 190.931168 
L 98.602999 190.822812 
L 98.714025 189.357149 
L 98.725362 189.260198 
L 98.836389 187.760317 
L 98.844599 187.657663 
L 98.954843 186.380198 
L 98.963835 186.277545 
L 99.074861 185.051406 
L 99.079162 184.94305 
L 99.189406 183.608554 
L 99.201525 183.517307 
L 99.312552 182.25695 
L 99.329362 182.148594 
L 99.438825 180.888238 
L 99.440389 180.888238 
L 99.448207 180.779881 
L 99.558061 179.593663 
L 99.5909 179.502416 
L 99.701926 178.253465 
L 99.714436 178.145109 
L 99.825072 176.987406 
L 99.8411 176.884752 
L 99.8411 176.87905 
L 99.951345 175.601584 
L 99.967764 175.51604 
L 99.967764 175.493228 
L 100.078791 174.341228 
L 100.087 174.238574 
L 100.198027 173.217743 
L 100.210537 173.109386 
L 100.320782 172.042931 
L 100.333292 171.934574 
L 100.443145 171.027802 
L 100.443536 171.027802 
L 100.456828 170.930851 
L 100.456828 170.919446 
L 100.566291 169.744634 
L 100.5745 169.64198 
L 100.685136 168.529901 
L 100.697255 168.421545 
L 100.807891 167.383604 
L 100.808282 167.383604 
L 100.82861 167.275248 
L 100.938855 166.260119 
L 100.959966 166.151762 
L 101.07021 165.330535 
L 101.081157 165.233584 
L 101.081157 165.227881 
L 101.190619 164.172832 
L 101.204693 164.064475 
L 101.315719 163.09497 
L 101.330184 162.99802 
L 101.441211 162.039921 
L 101.463494 161.931564 
L 101.573348 161.00198 
L 101.593286 160.899327 
L 101.593286 160.893624 
L 101.70353 159.975446 
L 101.725423 159.867089 
L 101.834495 158.943208 
L 101.835667 158.943208 
L 101.847786 158.834851 
L 101.958422 158.042139 
L 101.968195 157.933782 
L 102.079222 157.175287 
L 102.096032 157.066931 
L 102.207059 156.108832 
L 102.230906 156.000475 
L 102.340369 155.24198 
L 102.341542 155.24198 
L 102.367734 155.150733 
L 102.367734 155.139327 
L 102.47837 154.375129 
L 102.50339 154.272475 
L 102.613635 153.291564 
L 102.633572 153.183208 
L 102.743817 152.470337 
L 102.763755 152.36198 
L 102.874781 151.632 
L 102.892374 151.523644 
L 103.001445 150.793663 
L 103.023338 150.685307 
L 103.13241 149.829861 
L 103.161339 149.721505 
L 103.272366 149.134099 
L 103.291131 149.031446 
L 103.401766 148.101861 
L 103.431478 147.993505 
L 103.538986 147.320554 
L 103.570652 147.212198 
L 103.681678 146.527842 
L 103.69497 146.419485 
L 103.805215 145.695208 
L 103.825152 145.598257 
L 103.935788 144.908198 
L 103.958462 144.799842 
L 104.069489 144.235248 
L 104.092163 144.126891 
L 104.20319 143.431129 
L 104.2157 143.334178 
L 104.326726 142.615604 
L 104.335718 142.524356 
L 104.445962 141.708832 
L 104.462773 141.606178 
L 104.572235 141.05299 
L 104.573017 141.05299 
L 104.596083 140.944634 
L 104.704373 140.277386 
L 104.706718 140.277386 
L 104.726265 140.16903 
L 104.837292 139.461861 
L 104.876385 139.353505 
L 104.987412 138.623525 
L 105.006568 138.515168 
L 105.117203 137.876436 
L 105.151215 137.768079 
L 105.262242 137.169267 
L 105.284916 137.060911 
L 105.395942 136.38796 
L 105.420181 136.279604 
L 105.530816 135.709307 
L 105.543717 135.60095 
L 105.65318 134.990733 
L 105.684064 134.882376 
L 105.79509 134.243644 
L 105.818156 134.135287 
L 105.928791 133.553584 
L 105.942865 133.456634 
L 105.942865 133.450931 
L 106.049591 132.909149 
L 106.051155 132.909149 
L 106.07422 132.800792 
L 106.182901 132.264713 
L 106.185247 132.264713 
L 106.209094 132.156356 
L 106.318948 131.586059 
L 106.355305 131.483406 
L 106.460076 131.032871 
L 106.464377 131.032871 
L 106.487833 130.935921 
L 106.598469 130.405545 
L 106.613715 130.297188 
L 106.723178 129.778218 
L 106.72396 129.778218 
L 106.758362 129.68697 
L 106.868998 129.11097 
L 106.888545 129.002614 
L 106.99918 128.523564 
L 107.022637 128.420911 
L 107.133272 127.759366 
L 107.160247 127.65101 
L 107.270491 127.160554 
L 107.295512 127.052198 
L 107.406147 126.590257 
L 107.442895 126.487604 
L 107.55314 126.054178 
L 107.568386 125.945822 
L 107.679413 125.432554 
L 107.708342 125.329901 
L 107.819369 124.793822 
L 107.852208 124.685465 
L 107.963234 124.103762 
L 107.983563 123.995406 
L 108.089898 123.447921 
L 108.092635 123.447921 
L 108.116091 123.345267 
L 108.22399 122.88903 
L 108.226336 122.88903 
L 108.249401 122.786376 
L 108.360037 122.227485 
L 108.379192 122.119129 
L 108.490219 121.46899 
L 108.550033 121.360634 
L 108.661059 120.784634 
L 108.689207 120.676277 
L 108.797887 120.185822 
L 108.83229 120.077465 
L 108.93667 119.758099 
L 108.939798 119.758099 
L 108.973419 119.649743 
L 109.084445 119.090851 
L 109.112593 118.999604 
L 109.221274 118.549069 
L 109.223619 118.549069 
L 109.250594 118.440713 
L 109.361229 117.961663 
L 109.397978 117.85901 
L 109.508613 117.414178 
L 109.526596 117.305822 
L 109.630586 116.969347 
L 109.632932 116.969347 
L 109.684535 116.86099 
L 109.79048 116.404752 
L 109.793607 116.404752 
L 109.880396 116.296396 
L 109.990249 115.914297 
L 110.010187 115.811644 
L 110.11574 115.480871 
L 110.121213 115.480871 
L 110.14897 115.372515 
L 110.257651 115.053149 
L 110.259997 115.053149 
L 110.291663 114.944792 
L 110.402298 114.551287 
L 110.464066 114.442931 
L 110.570402 114.060832 
L 110.574311 114.060832 
L 110.617314 113.958178 
L 110.72795 113.564673 
L 110.764307 113.456317 
L 110.874161 113.199683 
L 110.908563 113.091327 
L 111.019199 112.783366 
L 111.063766 112.680713 
L 111.174792 112.355644 
L 111.19473 112.247287 
L 111.302629 111.967842 
L 111.305757 111.967842 
L 111.319439 111.865188 
L 111.427338 111.597149 
L 111.481679 111.488792 
L 111.591923 111.180832 
L 111.632972 111.083881 
L 111.632972 111.072475 
L 111.742826 110.781624 
L 111.774492 110.67897 
L 111.885518 110.319683 
L 111.905065 110.21703 
L 112.009054 109.960396 
L 112.014528 109.960396 
L 112.057922 109.85204 
L 112.16152 109.475644 
L 112.217816 109.367287 
L 112.328842 109.047921 
L 112.356599 108.945267 
L 112.466843 108.688634 
L 112.518056 108.580277 
L 112.629083 108.192475 
L 112.651757 108.084119 
L 112.758874 107.679208 
L 112.80696 107.570851 
L 112.914468 107.348436 
L 112.916031 107.348436 
L 112.987573 107.240079 
L 113.097818 106.989149 
L 113.162713 106.880792 
L 113.273349 106.584238 
L 113.305015 106.475881 
L 113.411741 106.179327 
L 113.41565 106.179327 
L 113.446535 106.07097 
L 113.550524 105.774416 
L 113.557561 105.774416 
L 113.60291 105.666059 
L 113.711982 105.403723 
L 113.750685 105.295366 
L 113.858584 105.004515 
L 113.861711 105.004515 
L 113.912142 104.896158 
L 114.021605 104.633822 
L 114.089237 104.525465 
L 114.1987 104.257426 
L 114.200264 104.257426 
L 114.251867 104.149069 
L 114.362112 103.898139 
L 114.419189 103.789782 
L 114.515751 103.601584 
L 114.51966 103.601584 
L 114.603321 103.493228 
L 114.713566 103.185267 
L 114.789408 103.076911 
L 114.900434 102.763248 
L 114.933664 102.654891 
L 115.043517 102.386851 
L 115.076747 102.284198 
L 115.18621 102.044673 
L 115.186992 102.044673 
L 115.247587 101.947723 
L 115.355095 101.73101 
L 115.357832 101.73101 
L 115.419209 101.622653 
L 115.530236 101.388832 
L 115.588485 101.280475 
L 115.698339 101.069465 
L 115.783173 100.961109 
L 115.884426 100.750099 
L 115.888726 100.750099 
L 115.941503 100.647446 
L 116.051356 100.373703 
L 116.102178 100.265347 
L 116.213205 100.071446 
L 116.302339 99.963089 
L 116.403592 99.786297 
L 116.412974 99.786297 
L 116.47357 99.677941 
L 116.579514 99.455525 
L 116.580296 99.455525 
L 116.641282 99.347168 
L 116.731589 99.11905 
L 116.739408 99.11905 
L 116.804694 99.010693 
L 116.912984 98.782574 
L 116.975144 98.674218 
L 117.083043 98.531644 
L 117.085388 98.531644 
L 117.133865 98.423287 
L 117.237463 98.206574 
L 117.242545 98.206574 
L 117.33207 98.098218 
L 117.438015 97.972752 
L 117.441142 97.972752 
L 117.526367 97.864396 
L 117.637393 97.624871 
L 117.709326 97.516515 
L 117.818397 97.362535 
L 117.895803 97.254178 
L 118.005657 96.980436 
L 118.006439 96.980436 
L 118.056088 96.872079 
L 118.153823 96.729505 
L 118.166333 96.729505 
L 118.242175 96.621149 
L 118.349683 96.421545 
L 118.35281 96.421545 
L 118.405196 96.313188 
L 118.507231 96.130693 
L 118.514659 96.130693 
L 118.60262 96.022337 
L 118.712082 95.845545 
L 118.792225 95.737188 
L 118.901297 95.520475 
L 118.993167 95.417822 
L 119.10263 95.218218 
L 119.103412 95.218218 
L 119.164398 95.109861 
L 119.275424 94.887446 
L 119.380196 94.779089 
L 119.478712 94.642218 
L 119.491222 94.642218 
L 119.550645 94.533861 
L 119.66089 94.408396 
L 119.827038 94.30004 
L 119.91539 94.140356 
L 119.919691 94.140356 
L 120.009607 94.032 
L 120.118287 93.849505 
L 120.204294 93.741149 
L 120.312975 93.615683 
L 120.314929 93.615683 
L 120.385298 93.507327 
L 120.495543 93.30202 
L 120.568257 93.193663 
L 120.674202 92.999762 
L 120.679284 92.999762 
L 120.757472 92.897109 
L 120.866543 92.743129 
L 120.931048 92.634772 
L 121.041293 92.423762 
L 121.128472 92.315406 
L 121.236371 92.132911 
L 121.239498 92.132911 
L 121.355607 92.024554 
L 121.461551 91.842059 
L 121.465461 91.842059 
L 121.525665 91.733703 
L 121.636692 91.579723 
L 121.709015 91.471366 
L 121.820042 91.260356 
L 121.903703 91.152 
L 122.012774 91.037941 
L 122.158203 90.929584 
L 122.266102 90.804119 
L 122.26923 90.804119 
L 122.391594 90.695762 
L 122.49441 90.536079 
L 122.502229 90.536079 
L 122.581199 90.427723 
L 122.682452 90.245228 
L 122.806379 90.136871 
L 122.917406 90.034218 
L 122.988556 89.925861 
L 123.099192 89.766178 
L 123.099583 89.766178 
L 123.245403 89.657822 
L 123.354866 89.475327 
L 123.452209 89.36697 
L 123.562845 89.247208 
L 123.643769 89.138851 
L 123.750104 88.996277 
L 123.753623 88.996277 
L 123.850966 88.887921 
L 123.96082 88.716832 
L 124.064419 88.608475 
L 124.162153 88.460198 
L 124.168408 88.460198 
L 124.270443 88.351842 
L 124.37326 88.266297 
L 124.379906 88.266297 
L 124.509697 88.157941 
L 124.620333 88.021069 
L 124.620724 88.021069 
L 124.720413 87.912713 
L 124.827139 87.821465 
L 124.830658 87.821465 
L 124.992897 87.713109 
L 125.100014 87.593347 
L 125.103142 87.593347 
L 125.196185 87.48499 
L 125.295874 87.342416 
L 125.306429 87.342416 
L 125.475315 87.234059 
L 125.571095 87.097188 
L 125.586341 87.097188 
L 125.688767 86.988832 
L 125.784938 86.891881 
L 125.797839 86.891881 
L 125.911211 86.783525 
L 126.020674 86.680871 
L 126.197378 86.572515 
L 126.300586 86.44705 
L 126.306841 86.44705 
L 126.386983 86.338693 
L 126.498009 86.293069 
L 126.623501 86.184713 
L 126.725144 86.099168 
L 126.7314 86.099168 
L 126.884647 85.990812 
L 126.983164 85.916673 
L 126.992155 85.916673 
L 127.141103 85.808317 
L 127.235319 85.688554 
L 127.251738 85.688554 
L 127.433916 85.585901 
L 127.54416 85.471842 
L 127.699363 85.363485 
L 127.806871 85.272238 
L 127.808825 85.272238 
L 127.913597 85.163881 
L 128.022669 85.078337 
L 128.023451 85.078337 
L 128.147378 84.96998 
L 128.245894 84.884436 
L 128.258014 84.884436 
L 128.35653 84.776079 
L 128.461692 84.679129 
L 128.467556 84.679129 
L 128.624323 84.570772 
L 128.729876 84.462416 
L 128.734567 84.462416 
L 128.884688 84.354059 
L 128.985159 84.245703 
L 128.991805 84.245703 
L 129.152871 84.137347 
L 129.263898 84.057505 
L 129.366324 83.949149 
L 129.476959 83.766653 
L 129.566093 83.664 
L 129.676338 83.612673 
L 129.847178 83.504317 
L 129.956249 83.435881 
L 130.096596 83.327525 
L 130.201368 83.24198 
L 130.206841 83.24198 
L 130.383154 83.133624 
L 130.475025 83.036673 
L 130.489489 83.036673 
L 130.632573 82.928317 
L 130.726398 82.825663 
L 130.741644 82.825663 
L 130.976598 82.717307 
L 131.082152 82.643168 
L 131.086843 82.643168 
L 131.228363 82.540515 
L 131.311242 82.409347 
L 131.338216 82.409347 
L 131.482082 82.30099 
L 131.554796 82.226851 
L 131.592326 82.226851 
L 131.774112 82.118495 
L 131.882011 82.044356 
L 131.884748 82.044356 
L 132.030568 81.936 
L 132.138858 81.87897 
L 132.141594 81.87897 
L 132.230728 81.776317 
L 132.321426 81.707881 
L 132.337455 81.707881 
L 132.576709 81.599525 
L 132.663888 81.502574 
L 132.685781 81.502574 
L 132.86874 81.394218 
L 132.978202 81.268752 
L 133.136141 81.160396 
L 133.244822 81.114772 
L 133.246777 81.114772 
L 133.434427 81.006416 
L 133.544672 80.949386 
L 133.817156 80.84103 
L 133.924273 80.784 
L 133.927792 80.784 
L 134.1647 80.675644 
L 134.26869 80.635723 
L 134.274163 80.635723 
L 134.591996 80.538772 
L 134.692076 80.47604 
L 134.703022 80.47604 
L 134.850406 80.367683 
L 134.954395 80.26503 
L 134.955959 80.26503 
L 135.249163 80.156673 
L 135.34377 80.093941 
L 135.360189 80.093941 
L 135.590452 79.985584 
L 135.685059 79.917149 
L 135.699524 79.917149 
L 135.908285 79.808792 
L 136.006019 79.717545 
L 136.018529 79.717545 
L 136.349263 79.609188 
L 136.451298 79.563564 
L 136.459899 79.563564 
L 136.680779 79.455208 
L 136.717918 79.42099 
L 136.754275 79.42099 
L 137.222619 79.312634 
L 137.330127 79.244198 
L 137.544362 79.147248 
L 137.544362 79.141545 
L 137.643269 79.067406 
L 137.653433 79.067406 
L 137.911453 78.95905 
L 138.011924 78.879208 
L 138.022088 78.879208 
L 138.248441 78.770851 
L 138.351649 78.69101 
L 138.358295 78.69101 
L 138.603023 78.582653 
L 138.708967 78.53703 
L 138.711703 78.53703 
L 139.138999 78.428673 
L 139.248853 78.38305 
L 139.250025 78.38305 
L 139.524855 78.274693 
L 139.633145 78.177743 
L 139.6351 78.177743 
L 139.925176 78.069386 
L 140.030729 78.018059 
L 140.033075 78.018059 
L 140.375146 77.909703 
L 140.467798 77.864079 
L 140.480308 77.864079 
L 140.687115 77.755723 
L 140.782894 77.698693 
L 140.791886 77.698693 
L 141.00182 77.590337 
L 141.094472 77.527604 
L 141.112064 77.527604 
L 141.342327 77.419248 
L 141.415824 77.390733 
L 141.449444 77.390733 
L 141.88925 77.282376 
L 141.992848 77.236752 
L 141.996367 77.236752 
L 142.200828 77.128396 
L 142.301299 77.088475 
L 142.302862 77.088475 
L 142.536644 76.980119 
L 142.634378 76.940198 
L 142.643761 76.940198 
L 142.947129 76.831842 
L 143.038999 76.780515 
L 143.056201 76.780515 
L 143.32243 76.672158 
L 143.427592 76.615129 
L 143.431501 76.615129 
L 143.801329 76.506772 
L 143.885772 76.495366 
L 143.908837 76.495366 
L 144.175457 76.38701 
L 144.265373 76.352792 
L 144.285701 76.352792 
L 144.704396 76.250139 
L 144.793921 76.198812 
L 144.814641 76.198812 
L 145.163358 76.090455 
L 145.265002 76.039129 
L 145.273212 76.039129 
L 145.760321 75.930772 
L 145.858446 75.873743 
L 145.859619 75.873743 
L 146.352201 75.765386 
L 146.414751 75.736871 
L 146.456191 75.736871 
L 146.769332 75.628515 
L 146.842438 75.6 
L 146.879186 75.6 
L 147.319383 75.497347 
L 147.412035 75.457426 
L 147.426109 75.457426 
L 147.897971 75.349069 
L 148.001961 75.320554 
L 148.007825 75.320554 
L 148.493761 75.212198 
L 148.591496 75.17798 
L 148.599315 75.17798 
L 148.97657 75.069624 
L 149.070004 75.024 
L 149.080951 75.024 
L 149.636865 74.915644 
L 149.740463 74.87002 
L 149.746718 74.87002 
L 150.314752 74.761663 
L 150.425778 74.721743 
L 150.787787 74.613386 
L 150.883176 74.562059 
L 150.894513 74.562059 
L 151.429317 74.453703 
L 151.53057 74.396673 
L 151.540343 74.396673 
L 152.03058 74.288317 
L 152.140043 74.254099 
L 152.723714 74.145743 
L 152.817539 74.122931 
L 152.832003 74.122931 
L 153.177593 74.014574 
L 153.288619 73.974653 
L 153.698323 73.866297 
L 153.753836 73.849188 
L 153.809349 73.849188 
L 154.640875 73.740832 
L 154.74291 73.706614 
L 154.751119 73.706614 
L 155.101009 73.598257 
L 155.189361 73.581149 
L 155.210081 73.581149 
L 155.8305 73.472792 
L 155.879758 73.461386 
L 155.902824 73.461386 
L 156.594394 73.35303 
L 156.665935 73.324515 
L 156.704638 73.324515 
L 157.201912 73.216158 
L 157.238269 73.19905 
L 157.312547 73.19905 
L 158.420466 73.090693 
L 158.492008 73.050772 
L 158.53032 73.050772 
L 159.080761 72.942416 
L 159.080761 72.936713 
L 159.182014 72.936713 
L 160.000248 72.828356 
L 160.025659 72.81695 
L 160.111274 72.81695 
L 161.098784 72.708594 
L 161.178927 72.685782 
L 161.206683 72.685782 
L 161.889262 72.577426 
L 161.945557 72.56602 
L 161.998724 72.56602 
L 162.84706 72.457663 
L 162.861134 72.440554 
L 162.957696 72.440554 
L 163.761074 72.332198 
L 163.867018 72.303683 
L 163.870537 72.303683 
L 164.585954 72.195327 
L 164.641076 72.166812 
L 164.693462 72.166812 
L 165.373695 72.058455 
L 165.476511 72.041347 
L 165.480812 72.041347 
L 166.275198 71.93299 
L 166.345567 71.910178 
L 166.382315 71.910178 
L 167.450359 71.801822 
L 167.560213 71.790416 
L 168.654058 71.682059 
L 168.661486 71.670653 
L 168.765084 71.670653 
L 169.88825 71.562297 
L 169.962919 71.550891 
L 169.987157 71.550891 
L 171.172091 71.442535 
L 171.260443 71.425426 
L 171.281163 71.425426 
L 172.541939 71.317069 
L 172.643583 71.294257 
L 172.651793 71.294257 
L 173.559942 71.185901 
L 173.655331 71.163089 
L 173.665887 71.163089 
L 174.583419 71.054733 
L 174.583419 71.04903 
L 174.692882 71.04903 
L 175.573666 70.940673 
L 175.61706 70.923564 
L 175.679219 70.923564 
L 177.111226 70.815208 
L 177.111617 70.803802 
L 177.221861 70.803802 
L 178.66716 70.695446 
L 178.773495 70.661228 
L 179.548726 70.552871 
L 179.655843 70.530059 
L 179.657798 70.530059 
L 180.695348 70.421703 
L 180.787609 70.387485 
L 180.806375 70.387485 
L 182.89594 70.279129 
L 182.986246 70.256317 
L 183.006966 70.256317 
L 184.646952 70.14796 
L 184.724358 70.113743 
L 184.757979 70.113743 
L 185.936658 70.005386 
L 185.936658 69.999683 
L 186.04612 69.999683 
L 187.642321 69.891327 
L 187.642321 69.885624 
L 187.751784 69.885624 
L 189.510225 69.777267 
L 189.589585 69.765861 
L 189.620469 69.765861 
L 191.327306 69.657505 
L 191.410576 69.646099 
L 191.437159 69.646099 
L 193.867623 69.537743 
L 193.927436 69.526337 
L 193.977867 69.526337 
L 196.17455 69.41798 
L 196.17455 69.412277 
L 196.285576 69.412277 
L 198.764125 69.303921 
L 198.764125 69.298218 
L 198.87046 69.298218 
L 200.776284 69.189861 
L 200.776284 69.184158 
L 200.885747 69.184158 
L 202.959675 69.075802 
L 203.038253 69.047287 
L 203.066792 69.047287 
L 205.386619 68.938931 
L 205.386619 68.933228 
L 205.496082 68.933228 
L 208.380034 68.824871 
L 208.40349 68.813465 
L 208.489106 68.813465 
L 210.875393 68.705109 
L 210.955535 68.693703 
L 210.976255 68.693703 
L 215.752348 68.585347 
L 215.765249 68.573941 
L 215.858292 68.573941 
L 219.420131 68.465584 
L 219.420131 68.459881 
L 219.528421 68.459881 
L 224.269721 68.351525 
L 224.269721 68.345822 
L 224.377229 68.345822 
L 232.189349 68.237465 
L 232.189349 68.231762 
L 232.289038 68.231762 
L 238.01472 68.123406 
L 238.01472 68.117703 
L 238.125355 68.117703 
L 246.13959 68.009347 
L 246.13959 68.003644 
L 246.250226 68.003644 
L 252.789451 67.895287 
L 252.789451 67.889584 
L 252.888749 67.889584 
L 258.791135 67.781228 
L 258.791135 67.775525 
L 258.901771 67.775525 
L 269.319885 67.667168 
L 269.319885 67.661465 
L 269.428566 67.661465 
L 287.147453 67.553109 
L 287.147453 67.547406 
L 287.256525 67.547406 
L 302.410857 67.43905 
L 302.410857 67.433347 
L 302.521101 67.433347 
L 314.538544 67.32499 
L 314.538544 67.319287 
L 314.645661 67.319287 
L 337.906881 67.210931 
L 337.906881 67.205228 
L 338.017907 67.205228 
L 388.714784 67.096871 
L 388.714784 67.091168 
L 388.82542 67.091168 
L 466.05176 66.982812 
L 466.05176 66.977109 
L 466.161614 66.977109 
L 498.109091 66.96 
L 498.109091 66.96 
" style="fill:none;stroke:#ff0000;stroke-linecap:square;stroke-width:1.5;"/>
   </g>
   <g id="patch_3">
    <path d="M 72 384.48 
L 72 51.84 
" style="fill:none;stroke:#000000;stroke-linecap:square;stroke-linejoin:miter;stroke-width:0.8;"/>
   </g>
   <g id="patch_4">
    <path d="M 518.4 384.48 
L 518.4 51.84 
" style="fill:none;stroke:#000000;stroke-linecap:square;stroke-linejoin:miter;stroke-width:0.8;"/>
   </g>
   <g id="patch_5">
    <path d="M 72 384.48 
L 518.4 384.48 
" style="fill:none;stroke:#000000;stroke-linecap:square;stroke-linejoin:miter;stroke-width:0.8;"/>
   </g>
   <g id="patch_6">
    <path d="M 72 51.84 
L 518.4 51.84 
" style="fill:none;stroke:#000000;stroke-linecap:square;stroke-linejoin:miter;stroke-width:0.8;"/>
   </g>
   <g id="text_15">
    <!-- ROC Curves -->
    <g transform="translate(237.894 45.84)scale(0.192 -0.192)">
     <defs>
      <path d="M 39.40625 66.21875 
Q 28.65625 66.21875 22.328125 58.203125 
Q 16.015625 50.203125 16.015625 36.375 
Q 16.015625 22.609375 22.328125 14.59375 
Q 28.65625 6.59375 39.40625 6.59375 
Q 50.140625 6.59375 56.421875 14.59375 
Q 62.703125 22.609375 62.703125 36.375 
Q 62.703125 50.203125 56.421875 58.203125 
Q 50.140625 66.21875 39.40625 66.21875 
z
M 39.40625 74.21875 
Q 54.734375 74.21875 63.90625 63.9375 
Q 73.09375 53.65625 73.09375 36.375 
Q 73.09375 19.140625 63.90625 8.859375 
Q 54.734375 -1.421875 39.40625 -1.421875 
Q 24.03125 -1.421875 14.8125 8.828125 
Q 5.609375 19.09375 5.609375 36.375 
Q 5.609375 53.65625 14.8125 63.9375 
Q 24.03125 74.21875 39.40625 74.21875 
z
" id="DejaVuSans-79"/>
      <path d="M 64.40625 67.28125 
L 64.40625 56.890625 
Q 59.421875 61.53125 53.78125 63.8125 
Q 48.140625 66.109375 41.796875 66.109375 
Q 29.296875 66.109375 22.65625 58.46875 
Q 16.015625 50.828125 16.015625 36.375 
Q 16.015625 21.96875 22.65625 14.328125 
Q 29.296875 6.6875 41.796875 6.6875 
Q 48.140625 6.6875 53.78125 8.984375 
Q 59.421875 11.28125 64.40625 15.921875 
L 64.40625 5.609375 
Q 59.234375 2.09375 53.4375 0.328125 
Q 47.65625 -1.421875 41.21875 -1.421875 
Q 24.65625 -1.421875 15.125 8.703125 
Q 5.609375 18.84375 5.609375 36.375 
Q 5.609375 53.953125 15.125 64.078125 
Q 24.65625 74.21875 41.21875 74.21875 
Q 47.75 74.21875 53.53125 72.484375 
Q 59.328125 70.75 64.40625 67.28125 
z
" id="DejaVuSans-67"/>
     </defs>
     <use xlink:href="#DejaVuSans-82"/>
     <use x="69.482422" xlink:href="#DejaVuSans-79"/>
     <use x="148.193359" xlink:href="#DejaVuSans-67"/>
     <use x="218.017578" xlink:href="#DejaVuSans-32"/>
     <use x="249.804688" xlink:href="#DejaVuSans-67"/>
     <use x="319.628906" xlink:href="#DejaVuSans-117"/>
     <use x="383.007812" xlink:href="#DejaVuSans-114"/>
     <use x="424.121094" xlink:href="#DejaVuSans-118"/>
     <use x="483.300781" xlink:href="#DejaVuSans-101"/>
     <use x="544.824219" xlink:href="#DejaVuSans-115"/>
    </g>
   </g>
   <g id="legend_1">
    <g id="patch_7">
     <path d="M 388.9825 376.48 
L 507.2 376.48 
Q 510.4 376.48 510.4 373.28 
L 510.4 327.91 
Q 510.4 324.71 507.2 324.71 
L 388.9825 324.71 
Q 385.7825 324.71 385.7825 327.91 
L 385.7825 373.28 
Q 385.7825 376.48 388.9825 376.48 
z
" style="fill:#ffffff;opacity:0.8;stroke:#cccccc;stroke-linejoin:miter;"/>
    </g>
    <g id="line2d_15">
     <path d="M 392.1825 337.6675 
L 424.1825 337.6675 
" style="fill:none;stroke:#0000ff;stroke-linecap:square;stroke-width:1.5;"/>
    </g>
    <g id="line2d_16"/>
    <g id="text_16">
     <!-- baseline -->
     <g transform="translate(436.9825 343.2675)scale(0.16 -0.16)">
      <defs>
       <path d="M 48.6875 27.296875 
Q 48.6875 37.203125 44.609375 42.84375 
Q 40.53125 48.484375 33.40625 48.484375 
Q 26.265625 48.484375 22.1875 42.84375 
Q 18.109375 37.203125 18.109375 27.296875 
Q 18.109375 17.390625 22.1875 11.75 
Q 26.265625 6.109375 33.40625 6.109375 
Q 40.53125 6.109375 44.609375 11.75 
Q 48.6875 17.390625 48.6875 27.296875 
z
M 18.109375 46.390625 
Q 20.953125 51.265625 25.265625 53.625 
Q 29.59375 56 35.59375 56 
Q 45.5625 56 51.78125 48.09375 
Q 58.015625 40.1875 58.015625 27.296875 
Q 58.015625 14.40625 51.78125 6.484375 
Q 45.5625 -1.421875 35.59375 -1.421875 
Q 29.59375 -1.421875 25.265625 0.953125 
Q 20.953125 3.328125 18.109375 8.203125 
L 18.109375 0 
L 9.078125 0 
L 9.078125 75.984375 
L 18.109375 75.984375 
z
" id="DejaVuSans-98"/>
       <path d="M 54.890625 33.015625 
L 54.890625 0 
L 45.90625 0 
L 45.90625 32.71875 
Q 45.90625 40.484375 42.875 44.328125 
Q 39.84375 48.1875 33.796875 48.1875 
Q 26.515625 48.1875 22.3125 43.546875 
Q 18.109375 38.921875 18.109375 30.90625 
L 18.109375 0 
L 9.078125 0 
L 9.078125 54.6875 
L 18.109375 54.6875 
L 18.109375 46.1875 
Q 21.34375 51.125 25.703125 53.5625 
Q 30.078125 56 35.796875 56 
Q 45.21875 56 50.046875 50.171875 
Q 54.890625 44.34375 54.890625 33.015625 
z
" id="DejaVuSans-110"/>
      </defs>
      <use xlink:href="#DejaVuSans-98"/>
      <use x="63.476562" xlink:href="#DejaVuSans-97"/>
      <use x="124.755859" xlink:href="#DejaVuSans-115"/>
      <use x="176.855469" xlink:href="#DejaVuSans-101"/>
      <use x="238.378906" xlink:href="#DejaVuSans-108"/>
      <use x="266.162109" xlink:href="#DejaVuSans-105"/>
      <use x="293.945312" xlink:href="#DejaVuSans-110"/>
      <use x="357.324219" xlink:href="#DejaVuSans-101"/>
     </g>
    </g>
    <g id="line2d_17">
     <path d="M 392.1825 361.1525 
L 424.1825 361.1525 
" style="fill:none;stroke:#ff0000;stroke-linecap:square;stroke-width:1.5;"/>
    </g>
    <g id="line2d_18"/>
    <g id="text_17">
     <!-- model -->
     <g transform="translate(436.9825 366.7525)scale(0.16 -0.16)">
      <defs>
       <path d="M 52 44.1875 
Q 55.375 50.25 60.0625 53.125 
Q 64.75 56 71.09375 56 
Q 79.640625 56 84.28125 50.015625 
Q 88.921875 44.046875 88.921875 33.015625 
L 88.921875 0 
L 79.890625 0 
L 79.890625 32.71875 
Q 79.890625 40.578125 77.09375 44.375 
Q 74.3125 48.1875 68.609375 48.1875 
Q 61.625 48.1875 57.5625 43.546875 
Q 53.515625 38.921875 53.515625 30.90625 
L 53.515625 0 
L 44.484375 0 
L 44.484375 32.71875 
Q 44.484375 40.625 41.703125 44.40625 
Q 38.921875 48.1875 33.109375 48.1875 
Q 26.21875 48.1875 22.15625 43.53125 
Q 18.109375 38.875 18.109375 30.90625 
L 18.109375 0 
L 9.078125 0 
L 9.078125 54.6875 
L 18.109375 54.6875 
L 18.109375 46.1875 
Q 21.1875 51.21875 25.484375 53.609375 
Q 29.78125 56 35.6875 56 
Q 41.65625 56 45.828125 52.96875 
Q 50 49.953125 52 44.1875 
z
" id="DejaVuSans-109"/>
       <path d="M 45.40625 46.390625 
L 45.40625 75.984375 
L 54.390625 75.984375 
L 54.390625 0 
L 45.40625 0 
L 45.40625 8.203125 
Q 42.578125 3.328125 38.25 0.953125 
Q 33.9375 -1.421875 27.875 -1.421875 
Q 17.96875 -1.421875 11.734375 6.484375 
Q 5.515625 14.40625 5.515625 27.296875 
Q 5.515625 40.1875 11.734375 48.09375 
Q 17.96875 56 27.875 56 
Q 33.9375 56 38.25 53.625 
Q 42.578125 51.265625 45.40625 46.390625 
z
M 14.796875 27.296875 
Q 14.796875 17.390625 18.875 11.75 
Q 22.953125 6.109375 30.078125 6.109375 
Q 37.203125 6.109375 41.296875 11.75 
Q 45.40625 17.390625 45.40625 27.296875 
Q 45.40625 37.203125 41.296875 42.84375 
Q 37.203125 48.484375 30.078125 48.484375 
Q 22.953125 48.484375 18.875 42.84375 
Q 14.796875 37.203125 14.796875 27.296875 
z
" id="DejaVuSans-100"/>
      </defs>
      <use xlink:href="#DejaVuSans-109"/>
      <use x="97.412109" xlink:href="#DejaVuSans-111"/>
      <use x="158.59375" xlink:href="#DejaVuSans-100"/>
      <use x="222.070312" xlink:href="#DejaVuSans-101"/>
      <use x="283.59375" xlink:href="#DejaVuSans-108"/>
     </g>
    </g>
   </g>
  </g>
 </g>
 <defs>
  <clipPath id="pf45df30ef8">
   <rect height="332.64" width="446.4" x="72" y="51.84"/>
  </clipPath>
 </defs>
</svg>
