<?xml version="1.0" encoding="utf-8" standalone="no"?>
<!DOCTYPE svg PUBLIC "-//W3C//DTD SVG 1.1//EN"
  "http://www.w3.org/Graphics/SVG/1.1/DTD/svg11.dtd">
<!-- Created with matplotlib (https://matplotlib.org/) -->
<svg height="432pt" version="1.1" viewBox="0 0 576 432" width="576pt" xmlns="http://www.w3.org/2000/svg" xmlns:xlink="http://www.w3.org/1999/xlink">
 <metadata>
  <rdf:RDF xmlns:cc="http://creativecommons.org/ns#" xmlns:dc="http://purl.org/dc/elements/1.1/" xmlns:rdf="http://www.w3.org/1999/02/22-rdf-syntax-ns#">
   <cc:Work>
    <dc:type rdf:resource="http://purl.org/dc/dcmitype/StillImage"/>
    <dc:date>2020-09-08T18:42:41.765967</dc:date>
    <dc:format>image/svg+xml</dc:format>
    <dc:creator>
     <cc:Agent>
      <dc:title>Matplotlib v3.3.0, https://matplotlib.org/</dc:title>
     </cc:Agent>
    </dc:creator>
   </cc:Work>
  </rdf:RDF>
 </metadata>
 <defs>
  <style type="text/css">*{stroke-linecap:butt;stroke-linejoin:round;}</style>
 </defs>
 <g id="figure_1">
  <g id="patch_1">
   <path d="M 0 432 
L 576 432 
L 576 0 
L 0 0 
z
" style="fill:#ffffff;"/>
  </g>
  <g id="axes_1">
   <g id="patch_2">
    <path d="M 72 384.48 
L 518.4 384.48 
L 518.4 51.84 
L 72 51.84 
z
" style="fill:#ffffff;"/>
   </g>
   <g id="matplotlib.axis_1">
    <g id="xtick_1">
     <g id="line2d_1">
      <defs>
       <path d="M 0 0 
L 0 3.5 
" id="mb17d8482ca" style="stroke:#000000;stroke-width:0.8;"/>
      </defs>
      <g>
       <use style="stroke:#000000;stroke-width:0.8;" x="92.290909" xlink:href="#mb17d8482ca" y="384.48"/>
      </g>
     </g>
     <g id="text_1">
      <!-- 0.0 -->
      <g transform="translate(79.568409 403.6375)scale(0.16 -0.16)">
       <defs>
        <path d="M 31.78125 66.40625 
Q 24.171875 66.40625 20.328125 58.90625 
Q 16.5 51.421875 16.5 36.375 
Q 16.5 21.390625 20.328125 13.890625 
Q 24.171875 6.390625 31.78125 6.390625 
Q 39.453125 6.390625 43.28125 13.890625 
Q 47.125 21.390625 47.125 36.375 
Q 47.125 51.421875 43.28125 58.90625 
Q 39.453125 66.40625 31.78125 66.40625 
z
M 31.78125 74.21875 
Q 44.046875 74.21875 50.515625 64.515625 
Q 56.984375 54.828125 56.984375 36.375 
Q 56.984375 17.96875 50.515625 8.265625 
Q 44.046875 -1.421875 31.78125 -1.421875 
Q 19.53125 -1.421875 13.0625 8.265625 
Q 6.59375 17.96875 6.59375 36.375 
Q 6.59375 54.828125 13.0625 64.515625 
Q 19.53125 74.21875 31.78125 74.21875 
z
" id="DejaVuSans-48"/>
        <path d="M 10.6875 12.40625 
L 21 12.40625 
L 21 0 
L 10.6875 0 
z
" id="DejaVuSans-46"/>
       </defs>
       <use xlink:href="#DejaVuSans-48"/>
       <use x="63.623047" xlink:href="#DejaVuSans-46"/>
       <use x="95.410156" xlink:href="#DejaVuSans-48"/>
      </g>
     </g>
    </g>
    <g id="xtick_2">
     <g id="line2d_2">
      <g>
       <use style="stroke:#000000;stroke-width:0.8;" x="173.454545" xlink:href="#mb17d8482ca" y="384.48"/>
      </g>
     </g>
     <g id="text_2">
      <!-- 0.2 -->
      <g transform="translate(160.732045 403.6375)scale(0.16 -0.16)">
       <defs>
        <path d="M 19.1875 8.296875 
L 53.609375 8.296875 
L 53.609375 0 
L 7.328125 0 
L 7.328125 8.296875 
Q 12.9375 14.109375 22.625 23.890625 
Q 32.328125 33.6875 34.8125 36.53125 
Q 39.546875 41.84375 41.421875 45.53125 
Q 43.3125 49.21875 43.3125 52.78125 
Q 43.3125 58.59375 39.234375 62.25 
Q 35.15625 65.921875 28.609375 65.921875 
Q 23.96875 65.921875 18.8125 64.3125 
Q 13.671875 62.703125 7.8125 59.421875 
L 7.8125 69.390625 
Q 13.765625 71.78125 18.9375 73 
Q 24.125 74.21875 28.421875 74.21875 
Q 39.75 74.21875 46.484375 68.546875 
Q 53.21875 62.890625 53.21875 53.421875 
Q 53.21875 48.921875 51.53125 44.890625 
Q 49.859375 40.875 45.40625 35.40625 
Q 44.1875 33.984375 37.640625 27.21875 
Q 31.109375 20.453125 19.1875 8.296875 
z
" id="DejaVuSans-50"/>
       </defs>
       <use xlink:href="#DejaVuSans-48"/>
       <use x="63.623047" xlink:href="#DejaVuSans-46"/>
       <use x="95.410156" xlink:href="#DejaVuSans-50"/>
      </g>
     </g>
    </g>
    <g id="xtick_3">
     <g id="line2d_3">
      <g>
       <use style="stroke:#000000;stroke-width:0.8;" x="254.618182" xlink:href="#mb17d8482ca" y="384.48"/>
      </g>
     </g>
     <g id="text_3">
      <!-- 0.4 -->
      <g transform="translate(241.895682 403.6375)scale(0.16 -0.16)">
       <defs>
        <path d="M 37.796875 64.3125 
L 12.890625 25.390625 
L 37.796875 25.390625 
z
M 35.203125 72.90625 
L 47.609375 72.90625 
L 47.609375 25.390625 
L 58.015625 25.390625 
L 58.015625 17.1875 
L 47.609375 17.1875 
L 47.609375 0 
L 37.796875 0 
L 37.796875 17.1875 
L 4.890625 17.1875 
L 4.890625 26.703125 
z
" id="DejaVuSans-52"/>
       </defs>
       <use xlink:href="#DejaVuSans-48"/>
       <use x="63.623047" xlink:href="#DejaVuSans-46"/>
       <use x="95.410156" xlink:href="#DejaVuSans-52"/>
      </g>
     </g>
    </g>
    <g id="xtick_4">
     <g id="line2d_4">
      <g>
       <use style="stroke:#000000;stroke-width:0.8;" x="335.781818" xlink:href="#mb17d8482ca" y="384.48"/>
      </g>
     </g>
     <g id="text_4">
      <!-- 0.6 -->
      <g transform="translate(323.059318 403.6375)scale(0.16 -0.16)">
       <defs>
        <path d="M 33.015625 40.375 
Q 26.375 40.375 22.484375 35.828125 
Q 18.609375 31.296875 18.609375 23.390625 
Q 18.609375 15.53125 22.484375 10.953125 
Q 26.375 6.390625 33.015625 6.390625 
Q 39.65625 6.390625 43.53125 10.953125 
Q 47.40625 15.53125 47.40625 23.390625 
Q 47.40625 31.296875 43.53125 35.828125 
Q 39.65625 40.375 33.015625 40.375 
z
M 52.59375 71.296875 
L 52.59375 62.3125 
Q 48.875 64.0625 45.09375 64.984375 
Q 41.3125 65.921875 37.59375 65.921875 
Q 27.828125 65.921875 22.671875 59.328125 
Q 17.53125 52.734375 16.796875 39.40625 
Q 19.671875 43.65625 24.015625 45.921875 
Q 28.375 48.1875 33.59375 48.1875 
Q 44.578125 48.1875 50.953125 41.515625 
Q 57.328125 34.859375 57.328125 23.390625 
Q 57.328125 12.15625 50.6875 5.359375 
Q 44.046875 -1.421875 33.015625 -1.421875 
Q 20.359375 -1.421875 13.671875 8.265625 
Q 6.984375 17.96875 6.984375 36.375 
Q 6.984375 53.65625 15.1875 63.9375 
Q 23.390625 74.21875 37.203125 74.21875 
Q 40.921875 74.21875 44.703125 73.484375 
Q 48.484375 72.75 52.59375 71.296875 
z
" id="DejaVuSans-54"/>
       </defs>
       <use xlink:href="#DejaVuSans-48"/>
       <use x="63.623047" xlink:href="#DejaVuSans-46"/>
       <use x="95.410156" xlink:href="#DejaVuSans-54"/>
      </g>
     </g>
    </g>
    <g id="xtick_5">
     <g id="line2d_5">
      <g>
       <use style="stroke:#000000;stroke-width:0.8;" x="416.945455" xlink:href="#mb17d8482ca" y="384.48"/>
      </g>
     </g>
     <g id="text_5">
      <!-- 0.8 -->
      <g transform="translate(404.222955 403.6375)scale(0.16 -0.16)">
       <defs>
        <path d="M 31.78125 34.625 
Q 24.75 34.625 20.71875 30.859375 
Q 16.703125 27.09375 16.703125 20.515625 
Q 16.703125 13.921875 20.71875 10.15625 
Q 24.75 6.390625 31.78125 6.390625 
Q 38.8125 6.390625 42.859375 10.171875 
Q 46.921875 13.96875 46.921875 20.515625 
Q 46.921875 27.09375 42.890625 30.859375 
Q 38.875 34.625 31.78125 34.625 
z
M 21.921875 38.8125 
Q 15.578125 40.375 12.03125 44.71875 
Q 8.5 49.078125 8.5 55.328125 
Q 8.5 64.0625 14.71875 69.140625 
Q 20.953125 74.21875 31.78125 74.21875 
Q 42.671875 74.21875 48.875 69.140625 
Q 55.078125 64.0625 55.078125 55.328125 
Q 55.078125 49.078125 51.53125 44.71875 
Q 48 40.375 41.703125 38.8125 
Q 48.828125 37.15625 52.796875 32.3125 
Q 56.78125 27.484375 56.78125 20.515625 
Q 56.78125 9.90625 50.3125 4.234375 
Q 43.84375 -1.421875 31.78125 -1.421875 
Q 19.734375 -1.421875 13.25 4.234375 
Q 6.78125 9.90625 6.78125 20.515625 
Q 6.78125 27.484375 10.78125 32.3125 
Q 14.796875 37.15625 21.921875 38.8125 
z
M 18.3125 54.390625 
Q 18.3125 48.734375 21.84375 45.5625 
Q 25.390625 42.390625 31.78125 42.390625 
Q 38.140625 42.390625 41.71875 45.5625 
Q 45.3125 48.734375 45.3125 54.390625 
Q 45.3125 60.0625 41.71875 63.234375 
Q 38.140625 66.40625 31.78125 66.40625 
Q 25.390625 66.40625 21.84375 63.234375 
Q 18.3125 60.0625 18.3125 54.390625 
z
" id="DejaVuSans-56"/>
       </defs>
       <use xlink:href="#DejaVuSans-48"/>
       <use x="63.623047" xlink:href="#DejaVuSans-46"/>
       <use x="95.410156" xlink:href="#DejaVuSans-56"/>
      </g>
     </g>
    </g>
    <g id="xtick_6">
     <g id="line2d_6">
      <g>
       <use style="stroke:#000000;stroke-width:0.8;" x="498.109091" xlink:href="#mb17d8482ca" y="384.48"/>
      </g>
     </g>
     <g id="text_6">
      <!-- 1.0 -->
      <g transform="translate(485.386591 403.6375)scale(0.16 -0.16)">
       <defs>
        <path d="M 12.40625 8.296875 
L 28.515625 8.296875 
L 28.515625 63.921875 
L 10.984375 60.40625 
L 10.984375 69.390625 
L 28.421875 72.90625 
L 38.28125 72.90625 
L 38.28125 8.296875 
L 54.390625 8.296875 
L 54.390625 0 
L 12.40625 0 
z
" id="DejaVuSans-49"/>
       </defs>
       <use xlink:href="#DejaVuSans-49"/>
       <use x="63.623047" xlink:href="#DejaVuSans-46"/>
       <use x="95.410156" xlink:href="#DejaVuSans-48"/>
      </g>
     </g>
    </g>
    <g id="text_7">
     <!-- False Positive Rate -->
     <g transform="translate(220.85375 423.1225)scale(0.16 -0.16)">
      <defs>
       <path d="M 9.8125 72.90625 
L 51.703125 72.90625 
L 51.703125 64.59375 
L 19.671875 64.59375 
L 19.671875 43.109375 
L 48.578125 43.109375 
L 48.578125 34.8125 
L 19.671875 34.8125 
L 19.671875 0 
L 9.8125 0 
z
" id="DejaVuSans-70"/>
       <path d="M 34.28125 27.484375 
Q 23.390625 27.484375 19.1875 25 
Q 14.984375 22.515625 14.984375 16.5 
Q 14.984375 11.71875 18.140625 8.90625 
Q 21.296875 6.109375 26.703125 6.109375 
Q 34.1875 6.109375 38.703125 11.40625 
Q 43.21875 16.703125 43.21875 25.484375 
L 43.21875 27.484375 
z
M 52.203125 31.203125 
L 52.203125 0 
L 43.21875 0 
L 43.21875 8.296875 
Q 40.140625 3.328125 35.546875 0.953125 
Q 30.953125 -1.421875 24.3125 -1.421875 
Q 15.921875 -1.421875 10.953125 3.296875 
Q 6 8.015625 6 15.921875 
Q 6 25.140625 12.171875 29.828125 
Q 18.359375 34.515625 30.609375 34.515625 
L 43.21875 34.515625 
L 43.21875 35.40625 
Q 43.21875 41.609375 39.140625 45 
Q 35.0625 48.390625 27.6875 48.390625 
Q 23 48.390625 18.546875 47.265625 
Q 14.109375 46.140625 10.015625 43.890625 
L 10.015625 52.203125 
Q 14.9375 54.109375 19.578125 55.046875 
Q 24.21875 56 28.609375 56 
Q 40.484375 56 46.34375 49.84375 
Q 52.203125 43.703125 52.203125 31.203125 
z
" id="DejaVuSans-97"/>
       <path d="M 9.421875 75.984375 
L 18.40625 75.984375 
L 18.40625 0 
L 9.421875 0 
z
" id="DejaVuSans-108"/>
       <path d="M 44.28125 53.078125 
L 44.28125 44.578125 
Q 40.484375 46.53125 36.375 47.5 
Q 32.28125 48.484375 27.875 48.484375 
Q 21.1875 48.484375 17.84375 46.4375 
Q 14.5 44.390625 14.5 40.28125 
Q 14.5 37.15625 16.890625 35.375 
Q 19.28125 33.59375 26.515625 31.984375 
L 29.59375 31.296875 
Q 39.15625 29.25 43.1875 25.515625 
Q 47.21875 21.78125 47.21875 15.09375 
Q 47.21875 7.46875 41.1875 3.015625 
Q 35.15625 -1.421875 24.609375 -1.421875 
Q 20.21875 -1.421875 15.453125 -0.5625 
Q 10.6875 0.296875 5.421875 2 
L 5.421875 11.28125 
Q 10.40625 8.6875 15.234375 7.390625 
Q 20.0625 6.109375 24.8125 6.109375 
Q 31.15625 6.109375 34.5625 8.28125 
Q 37.984375 10.453125 37.984375 14.40625 
Q 37.984375 18.0625 35.515625 20.015625 
Q 33.0625 21.96875 24.703125 23.78125 
L 21.578125 24.515625 
Q 13.234375 26.265625 9.515625 29.90625 
Q 5.8125 33.546875 5.8125 39.890625 
Q 5.8125 47.609375 11.28125 51.796875 
Q 16.75 56 26.8125 56 
Q 31.78125 56 36.171875 55.265625 
Q 40.578125 54.546875 44.28125 53.078125 
z
" id="DejaVuSans-115"/>
       <path d="M 56.203125 29.59375 
L 56.203125 25.203125 
L 14.890625 25.203125 
Q 15.484375 15.921875 20.484375 11.0625 
Q 25.484375 6.203125 34.421875 6.203125 
Q 39.59375 6.203125 44.453125 7.46875 
Q 49.3125 8.734375 54.109375 11.28125 
L 54.109375 2.78125 
Q 49.265625 0.734375 44.1875 -0.34375 
Q 39.109375 -1.421875 33.890625 -1.421875 
Q 20.796875 -1.421875 13.15625 6.1875 
Q 5.515625 13.8125 5.515625 26.8125 
Q 5.515625 40.234375 12.765625 48.109375 
Q 20.015625 56 32.328125 56 
Q 43.359375 56 49.78125 48.890625 
Q 56.203125 41.796875 56.203125 29.59375 
z
M 47.21875 32.234375 
Q 47.125 39.59375 43.09375 43.984375 
Q 39.0625 48.390625 32.421875 48.390625 
Q 24.90625 48.390625 20.390625 44.140625 
Q 15.875 39.890625 15.1875 32.171875 
z
" id="DejaVuSans-101"/>
       <path id="DejaVuSans-32"/>
       <path d="M 19.671875 64.796875 
L 19.671875 37.40625 
L 32.078125 37.40625 
Q 38.96875 37.40625 42.71875 40.96875 
Q 46.484375 44.53125 46.484375 51.125 
Q 46.484375 57.671875 42.71875 61.234375 
Q 38.96875 64.796875 32.078125 64.796875 
z
M 9.8125 72.90625 
L 32.078125 72.90625 
Q 44.34375 72.90625 50.609375 67.359375 
Q 56.890625 61.8125 56.890625 51.125 
Q 56.890625 40.328125 50.609375 34.8125 
Q 44.34375 29.296875 32.078125 29.296875 
L 19.671875 29.296875 
L 19.671875 0 
L 9.8125 0 
z
" id="DejaVuSans-80"/>
       <path d="M 30.609375 48.390625 
Q 23.390625 48.390625 19.1875 42.75 
Q 14.984375 37.109375 14.984375 27.296875 
Q 14.984375 17.484375 19.15625 11.84375 
Q 23.34375 6.203125 30.609375 6.203125 
Q 37.796875 6.203125 41.984375 11.859375 
Q 46.1875 17.53125 46.1875 27.296875 
Q 46.1875 37.015625 41.984375 42.703125 
Q 37.796875 48.390625 30.609375 48.390625 
z
M 30.609375 56 
Q 42.328125 56 49.015625 48.375 
Q 55.71875 40.765625 55.71875 27.296875 
Q 55.71875 13.875 49.015625 6.21875 
Q 42.328125 -1.421875 30.609375 -1.421875 
Q 18.84375 -1.421875 12.171875 6.21875 
Q 5.515625 13.875 5.515625 27.296875 
Q 5.515625 40.765625 12.171875 48.375 
Q 18.84375 56 30.609375 56 
z
" id="DejaVuSans-111"/>
       <path d="M 9.421875 54.6875 
L 18.40625 54.6875 
L 18.40625 0 
L 9.421875 0 
z
M 9.421875 75.984375 
L 18.40625 75.984375 
L 18.40625 64.59375 
L 9.421875 64.59375 
z
" id="DejaVuSans-105"/>
       <path d="M 18.3125 70.21875 
L 18.3125 54.6875 
L 36.8125 54.6875 
L 36.8125 47.703125 
L 18.3125 47.703125 
L 18.3125 18.015625 
Q 18.3125 11.328125 20.140625 9.421875 
Q 21.96875 7.515625 27.59375 7.515625 
L 36.8125 7.515625 
L 36.8125 0 
L 27.59375 0 
Q 17.1875 0 13.234375 3.875 
Q 9.28125 7.765625 9.28125 18.015625 
L 9.28125 47.703125 
L 2.6875 47.703125 
L 2.6875 54.6875 
L 9.28125 54.6875 
L 9.28125 70.21875 
z
" id="DejaVuSans-116"/>
       <path d="M 2.984375 54.6875 
L 12.5 54.6875 
L 29.59375 8.796875 
L 46.6875 54.6875 
L 56.203125 54.6875 
L 35.6875 0 
L 23.484375 0 
z
" id="DejaVuSans-118"/>
       <path d="M 44.390625 34.1875 
Q 47.5625 33.109375 50.5625 29.59375 
Q 53.5625 26.078125 56.59375 19.921875 
L 66.609375 0 
L 56 0 
L 46.6875 18.703125 
Q 43.0625 26.03125 39.671875 28.421875 
Q 36.28125 30.8125 30.421875 30.8125 
L 19.671875 30.8125 
L 19.671875 0 
L 9.8125 0 
L 9.8125 72.90625 
L 32.078125 72.90625 
Q 44.578125 72.90625 50.734375 67.671875 
Q 56.890625 62.453125 56.890625 51.90625 
Q 56.890625 45.015625 53.6875 40.46875 
Q 50.484375 35.9375 44.390625 34.1875 
z
M 19.671875 64.796875 
L 19.671875 38.921875 
L 32.078125 38.921875 
Q 39.203125 38.921875 42.84375 42.21875 
Q 46.484375 45.515625 46.484375 51.90625 
Q 46.484375 58.296875 42.84375 61.546875 
Q 39.203125 64.796875 32.078125 64.796875 
z
" id="DejaVuSans-82"/>
      </defs>
      <use xlink:href="#DejaVuSans-70"/>
      <use x="48.394531" xlink:href="#DejaVuSans-97"/>
      <use x="109.673828" xlink:href="#DejaVuSans-108"/>
      <use x="137.457031" xlink:href="#DejaVuSans-115"/>
      <use x="189.556641" xlink:href="#DejaVuSans-101"/>
      <use x="251.080078" xlink:href="#DejaVuSans-32"/>
      <use x="282.867188" xlink:href="#DejaVuSans-80"/>
      <use x="339.544922" xlink:href="#DejaVuSans-111"/>
      <use x="400.726562" xlink:href="#DejaVuSans-115"/>
      <use x="452.826172" xlink:href="#DejaVuSans-105"/>
      <use x="480.609375" xlink:href="#DejaVuSans-116"/>
      <use x="519.818359" xlink:href="#DejaVuSans-105"/>
      <use x="547.601562" xlink:href="#DejaVuSans-118"/>
      <use x="606.78125" xlink:href="#DejaVuSans-101"/>
      <use x="668.304688" xlink:href="#DejaVuSans-32"/>
      <use x="700.091797" xlink:href="#DejaVuSans-82"/>
      <use x="767.324219" xlink:href="#DejaVuSans-97"/>
      <use x="828.603516" xlink:href="#DejaVuSans-116"/>
      <use x="867.8125" xlink:href="#DejaVuSans-101"/>
     </g>
    </g>
   </g>
   <g id="matplotlib.axis_2">
    <g id="ytick_1">
     <g id="line2d_7">
      <defs>
       <path d="M 0 0 
L -3.5 0 
" id="m73cc674d74" style="stroke:#000000;stroke-width:0.8;"/>
      </defs>
      <g>
       <use style="stroke:#000000;stroke-width:0.8;" x="72" xlink:href="#m73cc674d74" y="369.36"/>
      </g>
     </g>
     <g id="text_8">
      <!-- 0.0 -->
      <g transform="translate(39.555 375.43875)scale(0.16 -0.16)">
       <use xlink:href="#DejaVuSans-48"/>
       <use x="63.623047" xlink:href="#DejaVuSans-46"/>
       <use x="95.410156" xlink:href="#DejaVuSans-48"/>
      </g>
     </g>
    </g>
    <g id="ytick_2">
     <g id="line2d_8">
      <g>
       <use style="stroke:#000000;stroke-width:0.8;" x="72" xlink:href="#m73cc674d74" y="308.88"/>
      </g>
     </g>
     <g id="text_9">
      <!-- 0.2 -->
      <g transform="translate(39.555 314.95875)scale(0.16 -0.16)">
       <use xlink:href="#DejaVuSans-48"/>
       <use x="63.623047" xlink:href="#DejaVuSans-46"/>
       <use x="95.410156" xlink:href="#DejaVuSans-50"/>
      </g>
     </g>
    </g>
    <g id="ytick_3">
     <g id="line2d_9">
      <g>
       <use style="stroke:#000000;stroke-width:0.8;" x="72" xlink:href="#m73cc674d74" y="248.4"/>
      </g>
     </g>
     <g id="text_10">
      <!-- 0.4 -->
      <g transform="translate(39.555 254.47875)scale(0.16 -0.16)">
       <use xlink:href="#DejaVuSans-48"/>
       <use x="63.623047" xlink:href="#DejaVuSans-46"/>
       <use x="95.410156" xlink:href="#DejaVuSans-52"/>
      </g>
     </g>
    </g>
    <g id="ytick_4">
     <g id="line2d_10">
      <g>
       <use style="stroke:#000000;stroke-width:0.8;" x="72" xlink:href="#m73cc674d74" y="187.92"/>
      </g>
     </g>
     <g id="text_11">
      <!-- 0.6 -->
      <g transform="translate(39.555 193.99875)scale(0.16 -0.16)">
       <use xlink:href="#DejaVuSans-48"/>
       <use x="63.623047" xlink:href="#DejaVuSans-46"/>
       <use x="95.410156" xlink:href="#DejaVuSans-54"/>
      </g>
     </g>
    </g>
    <g id="ytick_5">
     <g id="line2d_11">
      <g>
       <use style="stroke:#000000;stroke-width:0.8;" x="72" xlink:href="#m73cc674d74" y="127.44"/>
      </g>
     </g>
     <g id="text_12">
      <!-- 0.8 -->
      <g transform="translate(39.555 133.51875)scale(0.16 -0.16)">
       <use xlink:href="#DejaVuSans-48"/>
       <use x="63.623047" xlink:href="#DejaVuSans-46"/>
       <use x="95.410156" xlink:href="#DejaVuSans-56"/>
      </g>
     </g>
    </g>
    <g id="ytick_6">
     <g id="line2d_12">
      <g>
       <use style="stroke:#000000;stroke-width:0.8;" x="72" xlink:href="#m73cc674d74" y="66.96"/>
      </g>
     </g>
     <g id="text_13">
      <!-- 1.0 -->
      <g transform="translate(39.555 73.03875)scale(0.16 -0.16)">
       <use xlink:href="#DejaVuSans-49"/>
       <use x="63.623047" xlink:href="#DejaVuSans-46"/>
       <use x="95.410156" xlink:href="#DejaVuSans-48"/>
      </g>
     </g>
    </g>
    <g id="text_14">
     <!-- True Positive Rate -->
     <g transform="translate(32.2275 289.4075)rotate(-90)scale(0.16 -0.16)">
      <defs>
       <path d="M -0.296875 72.90625 
L 61.375 72.90625 
L 61.375 64.59375 
L 35.5 64.59375 
L 35.5 0 
L 25.59375 0 
L 25.59375 64.59375 
L -0.296875 64.59375 
z
" id="DejaVuSans-84"/>
       <path d="M 41.109375 46.296875 
Q 39.59375 47.171875 37.8125 47.578125 
Q 36.03125 48 33.890625 48 
Q 26.265625 48 22.1875 43.046875 
Q 18.109375 38.09375 18.109375 28.8125 
L 18.109375 0 
L 9.078125 0 
L 9.078125 54.6875 
L 18.109375 54.6875 
L 18.109375 46.1875 
Q 20.953125 51.171875 25.484375 53.578125 
Q 30.03125 56 36.53125 56 
Q 37.453125 56 38.578125 55.875 
Q 39.703125 55.765625 41.0625 55.515625 
z
" id="DejaVuSans-114"/>
       <path d="M 8.5 21.578125 
L 8.5 54.6875 
L 17.484375 54.6875 
L 17.484375 21.921875 
Q 17.484375 14.15625 20.5 10.265625 
Q 23.53125 6.390625 29.59375 6.390625 
Q 36.859375 6.390625 41.078125 11.03125 
Q 45.3125 15.671875 45.3125 23.6875 
L 45.3125 54.6875 
L 54.296875 54.6875 
L 54.296875 0 
L 45.3125 0 
L 45.3125 8.40625 
Q 42.046875 3.421875 37.71875 1 
Q 33.40625 -1.421875 27.6875 -1.421875 
Q 18.265625 -1.421875 13.375 4.4375 
Q 8.5 10.296875 8.5 21.578125 
z
M 31.109375 56 
z
" id="DejaVuSans-117"/>
      </defs>
      <use xlink:href="#DejaVuSans-84"/>
      <use x="46.333984" xlink:href="#DejaVuSans-114"/>
      <use x="87.447266" xlink:href="#DejaVuSans-117"/>
      <use x="150.826172" xlink:href="#DejaVuSans-101"/>
      <use x="212.349609" xlink:href="#DejaVuSans-32"/>
      <use x="244.136719" xlink:href="#DejaVuSans-80"/>
      <use x="300.814453" xlink:href="#DejaVuSans-111"/>
      <use x="361.996094" xlink:href="#DejaVuSans-115"/>
      <use x="414.095703" xlink:href="#DejaVuSans-105"/>
      <use x="441.878906" xlink:href="#DejaVuSans-116"/>
      <use x="481.087891" xlink:href="#DejaVuSans-105"/>
      <use x="508.871094" xlink:href="#DejaVuSans-118"/>
      <use x="568.050781" xlink:href="#DejaVuSans-101"/>
      <use x="629.574219" xlink:href="#DejaVuSans-32"/>
      <use x="661.361328" xlink:href="#DejaVuSans-82"/>
      <use x="728.59375" xlink:href="#DejaVuSans-97"/>
      <use x="789.873047" xlink:href="#DejaVuSans-116"/>
      <use x="829.082031" xlink:href="#DejaVuSans-101"/>
     </g>
    </g>
   </g>
   <g id="line2d_13">
    <path clip-path="url(#pf1420a1194)" d="M 92.290909 369.36 
L 498.109091 66.96 
" style="fill:none;stroke:#0000ff;stroke-linecap:square;stroke-width:1.5;"/>
   </g>
   <g id="line2d_14">
    <path clip-path="url(#pf1420a1194)" d="M 92.290909 369.36 
L 92.294577 369.260146 
L 92.40524 366.181309 
L 92.40738 366.106419 
L 92.518348 363.684955 
L 92.522933 363.593422 
L 92.633901 361.438237 
L 92.638487 361.338383 
L 92.749455 358.517503 
L 92.757709 358.417648 
L 92.868677 355.704944 
L 92.874485 355.60509 
L 92.985453 352.709319 
L 92.988816 352.609465 
L 93.097644 349.547271 
L 93.103146 349.439095 
L 93.214115 346.127266 
L 93.22084 346.01909 
L 93.331197 342.973538 
L 93.331502 342.973538 
L 93.336088 342.865363 
L 93.44675 339.453679 
L 93.448584 339.38711 
L 93.448584 339.345504 
L 93.55833 335.268126 
L 93.558635 335.268126 
L 93.563221 335.193235 
L 93.673883 331.240675 
L 93.676023 331.215711 
L 93.676023 331.174105 
L 93.786685 327.055121 
L 93.791576 326.963588 
L 93.901933 322.644896 
L 93.905296 322.536721 
L 94.015041 318.242992 
L 94.019321 318.134816 
L 94.130289 313.624737 
L 94.13304 313.524883 
L 94.243703 308.656992 
L 94.249511 308.548817 
L 94.360479 303.947205 
L 94.364147 303.84735 
L 94.475115 299.254059 
L 94.479395 299.162526 
L 94.590057 294.419454 
L 94.592197 294.344563 
L 94.592197 294.319599 
L 94.70286 290.025871 
L 94.707751 289.917695 
L 94.81719 285.873602 
L 94.818413 285.873602 
L 94.824221 285.798711 
L 94.824221 285.765426 
L 94.93519 281.047317 
L 94.936107 281.005711 
L 95.046463 277.003224 
L 95.049826 276.895049 
L 95.160794 273.158839 
L 95.166908 273.050663 
L 95.277876 268.989928 
L 95.281544 268.890073 
L 95.392513 265.41182 
L 95.394958 265.311966 
L 95.505926 261.525829 
L 95.510817 261.417654 
L 95.621785 257.781298 
L 95.62362 257.731371 
L 95.62362 257.681444 
L 95.734588 254.319687 
L 95.741007 254.219833 
L 95.851975 250.150776 
L 95.855338 250.050922 
L 95.966306 246.198216 
L 95.970892 246.123325 
L 96.08186 243.252518 
L 96.084917 243.152664 
L 96.195579 240.140397 
L 96.19833 240.032221 
L 96.309298 237.153093 
L 96.315718 237.086524 
L 96.426075 233.749731 
L 96.433411 233.641555 
L 96.543157 230.304762 
L 96.544379 230.304762 
L 96.548353 230.196587 
L 96.659322 226.926363 
L 96.663601 226.826509 
L 96.774569 224.180374 
L 96.7816 224.072198 
L 96.892263 221.292924 
L 96.900517 221.201391 
L 97.011179 218.546935 
L 97.016682 218.43876 
L 97.125815 216.025617 
L 97.129484 215.925763 
L 97.240452 213.612475 
L 97.243203 213.512621 
L 97.353866 211.116121 
L 97.358757 211.007946 
L 97.469419 208.49495 
L 97.473699 208.403417 
L 97.473699 208.395095 
L 97.584667 205.873778 
L 97.589864 205.782245 
L 97.589864 205.765602 
L 97.70022 203.252606 
L 97.7045 203.161073 
L 97.814551 200.589829 
L 97.824639 200.481653 
L 97.935607 198.650994 
L 97.943861 198.559461 
L 98.054829 196.37099 
L 98.064 196.262815 
L 98.174051 194.382228 
L 98.174662 194.382228 
L 98.186279 194.274053 
L 98.297247 192.06894 
L 98.302444 191.960765 
L 98.4128 189.955361 
L 98.420443 189.847185 
L 98.531411 187.475649 
L 98.543639 187.367474 
L 98.654301 185.395354 
L 98.658275 185.2955 
L 98.768326 183.340023 
L 98.777803 183.231847 
L 98.888771 181.13491 
L 98.896108 181.051698 
L 98.896108 181.035056 
L 99.007076 179.254323 
L 99.012273 179.146148 
L 99.122935 177.298846 
L 99.129966 177.190671 
L 99.240323 175.127018 
L 99.253773 175.018843 
L 99.364741 173.279716 
L 99.370855 173.188183 
L 99.479989 171.374166 
L 99.481212 171.374166 
L 99.486715 171.26599 
L 99.59646 169.734893 
L 99.609911 169.635039 
L 99.71935 167.870949 
L 99.728521 167.771095 
L 99.838572 166.031968 
L 99.848354 165.923793 
L 99.958711 164.326126 
L 99.967882 164.217951 
L 100.078544 162.670212 
L 100.090467 162.562036 
L 100.201435 160.931085 
L 100.204797 160.82291 
L 100.31546 159.41663 
L 100.328605 159.316776 
L 100.439573 157.943781 
L 100.453635 157.835606 
L 100.564603 156.687283 
L 100.575608 156.579108 
L 100.685048 155.247719 
L 100.686576 155.247719 
L 100.700027 155.156186 
L 100.700027 155.139544 
L 100.809161 153.891367 
L 100.810995 153.891367 
L 100.818637 153.816476 
L 100.929605 152.518372 
L 100.94061 152.418518 
L 101.049744 151.511509 
L 101.051578 151.511509 
L 101.061361 151.403334 
L 101.171717 150.080266 
L 101.182722 149.972091 
L 101.293385 148.649023 
L 101.301333 148.549169 
L 101.411078 147.367562 
L 101.41169 147.367562 
L 101.42942 147.259386 
L 101.539777 146.111064 
L 101.540388 146.111064 
L 101.563927 146.002888 
L 101.674589 144.638215 
L 101.698128 144.530039 
L 101.806956 143.231935 
L 101.827438 143.132081 
L 101.937489 141.942152 
L 101.9381 141.942152 
L 101.950634 141.833977 
L 102.059462 141.051786 
L 102.074747 140.943611 
L 102.184492 139.653828 
L 102.200083 139.545653 
L 102.309828 138.339081 
L 102.326947 138.230906 
L 102.436081 137.390467 
L 102.437304 137.390467 
L 102.447086 137.298934 
L 102.447086 137.282292 
L 102.557137 136.192217 
L 102.568753 136.084042 
L 102.678499 135.160391 
L 102.679416 135.160391 
L 102.712431 135.052215 
L 102.822788 133.995426 
L 102.83257 133.903893 
L 102.942315 132.905351 
L 102.954849 132.805497 
L 103.065511 131.990021 
L 103.078656 131.881846 
L 103.189624 131.13294 
L 103.208272 131.024764 
L 103.31924 130.267537 
L 103.332079 130.159362 
L 103.443047 129.227389 
L 103.464752 129.119214 
L 103.572969 128.420235 
L 103.574803 128.420235 
L 103.584891 128.31206 
L 103.695247 127.496584 
L 103.715729 127.388409 
L 103.826392 126.656145 
L 103.855433 126.54797 
L 103.96365 125.790742 
L 103.965789 125.790742 
L 103.985965 125.682567 
L 104.096016 124.733952 
L 104.096934 124.733952 
L 104.127198 124.625777 
L 104.238166 123.976725 
L 104.264456 123.876871 
L 104.373895 123.16957 
L 104.403854 123.061395 
L 104.514516 122.270883 
L 104.523992 122.171029 
L 104.630681 121.413801 
L 104.634961 121.413801 
L 104.643826 121.313947 
L 104.754182 120.748107 
L 104.795452 120.639932 
L 104.905808 119.999201 
L 104.918953 119.891026 
L 105.028393 119.35847 
L 105.029921 119.35847 
L 105.051014 119.250295 
L 105.161982 118.576279 
L 105.187967 118.468104 
L 105.289152 117.844015 
L 105.291598 117.844015 
L 105.329199 117.744161 
L 105.439556 117.128394 
L 105.46768 117.020218 
L 105.577119 116.479342 
L 105.601881 116.387809 
L 105.601881 116.371166 
L 105.707041 115.672187 
L 105.707958 115.672187 
L 105.733025 115.572333 
L 105.843993 115.147953 
L 105.874868 115.039778 
L 105.984308 114.532186 
L 105.985531 114.532186 
L 106.023131 114.432332 
L 106.13196 113.949703 
L 106.155498 113.841528 
L 106.261881 113.417148 
L 106.263104 113.417148 
L 106.293979 113.317293 
L 106.40189 112.892913 
L 106.404641 112.892913 
L 106.451107 112.784738 
L 106.559019 112.368679 
L 106.575526 112.268825 
L 106.68466 111.794517 
L 106.711561 111.686342 
L 106.819472 111.162108 
L 106.822224 111.162108 
L 106.865327 111.053932 
L 106.924021 110.795976 
L 106.925549 110.795976 
L 107.015119 110.696122 
L 107.126087 110.321669 
L 107.158185 110.213493 
L 107.268236 109.797434 
L 107.268847 109.797434 
L 107.305225 109.689259 
L 107.411608 109.264879 
L 107.414359 109.264879 
L 107.440955 109.156703 
L 107.551312 108.665754 
L 107.576684 108.574221 
L 107.576684 108.557578 
L 107.685818 108.149841 
L 107.747569 108.041665 
L 107.857926 107.534073 
L 107.88605 107.425898 
L 107.996101 106.885021 
L 108.043178 106.776846 
L 108.151395 106.285896 
L 108.19511 106.177721 
L 108.306078 105.686771 
L 108.327171 105.578596 
L 108.435693 105.054362 
L 108.437833 105.054362 
L 108.475434 104.946186 
L 108.584874 104.605018 
L 108.620029 104.496843 
L 108.716935 104.172317 
L 108.727328 104.172317 
L 108.782965 104.064141 
L 108.893933 103.739615 
L 108.93612 103.639761 
L 109.045865 103.28195 
L 109.046782 103.28195 
L 109.080409 103.182096 
L 109.180983 102.840928 
L 109.19046 102.840928 
L 109.225615 102.732753 
L 109.335972 102.424869 
L 109.336583 102.424869 
L 109.366541 102.316694 
L 109.473535 101.925598 
L 109.476898 101.925598 
L 109.519084 101.817423 
L 109.622715 101.509539 
L 109.630052 101.509539 
L 109.660928 101.401364 
L 109.765782 101.035232 
L 109.769756 101.035232 
L 109.814999 100.927056 
L 109.924133 100.619173 
L 109.925661 100.619173 
L 109.987718 100.510997 
L 110.096546 100.194793 
L 110.09838 100.194793 
L 110.134758 100.086617 
L 110.245115 99.745449 
L 110.287913 99.637274 
L 110.395518 99.454208 
L 110.398575 99.454208 
L 110.448709 99.346032 
L 110.557537 99.029827 
L 110.617148 98.938294 
L 110.726282 98.55552 
L 110.726894 98.55552 
L 110.79323 98.447345 
L 110.896556 98.247637 
L 110.900835 98.247637 
L 110.973897 98.139461 
L 111.083337 97.873183 
L 111.083948 97.873183 
L 111.125828 97.765008 
L 111.227626 97.473767 
L 111.23374 97.473767 
L 111.35663 97.365591 
L 111.460873 97.024423 
L 111.465764 97.024423 
L 111.494805 96.916248 
L 111.603327 96.64997 
L 111.656213 96.541795 
L 111.763207 96.275517 
L 111.766875 96.275517 
L 111.828626 96.175663 
L 111.937454 95.901064 
L 111.990034 95.80121 
L 112.101002 95.443399 
L 112.17651 95.335224 
L 112.286255 95.077267 
L 112.286866 95.077267 
L 112.369405 94.969092 
L 112.47915 94.711135 
L 112.547932 94.60296 
L 112.658288 94.32004 
L 112.698029 94.211864 
L 112.813277 93.962229 
L 112.8521 93.854054 
L 112.961234 93.604418 
L 112.998224 93.496243 
L 113.105218 93.271571 
L 113.109192 93.271571 
L 113.178891 93.163396 
L 113.289859 92.880475 
L 113.345801 92.7723 
L 113.455852 92.547628 
L 113.456464 92.547628 
L 113.523717 92.439453 
L 113.631322 92.239745 
L 113.633768 92.239745 
L 113.67412 92.131569 
L 113.776834 91.981788 
L 113.780503 91.981788 
L 113.841642 91.873613 
L 113.950776 91.665583 
L 114.015278 91.557408 
L 114.126246 91.341057 
L 114.192277 91.232882 
L 114.302633 91.033174 
L 114.384255 90.924998 
L 114.482383 90.791859 
L 114.494305 90.791859 
L 114.572564 90.683684 
L 114.680781 90.500618 
L 114.746506 90.400764 
L 114.85564 90.142807 
L 114.857474 90.142807 
L 114.91525 90.034632 
L 115.023773 89.768354 
L 115.025607 89.768354 
L 115.122207 89.660179 
L 115.231953 89.38558 
L 115.233176 89.38558 
L 115.311434 89.277405 
L 115.421485 89.094339 
L 115.422096 89.094339 
L 115.483236 88.986163 
L 115.59237 88.811419 
L 115.593898 88.811419 
L 115.676131 88.703243 
L 115.784042 88.553462 
L 115.786487 88.553462 
L 115.870248 88.445287 
L 115.97388 88.312148 
L 115.981216 88.312148 
L 116.04633 88.203972 
L 116.155158 88.020906 
L 116.157298 88.020906 
L 116.217215 87.912731 
L 116.314121 87.76295 
L 116.326654 87.76295 
L 116.40369 87.663096 
L 116.508544 87.55492 
L 116.514658 87.55492 
L 116.632963 87.446745 
L 116.743931 87.305285 
L 116.841754 87.19711 
L 116.951499 86.964117 
L 117.049934 86.855941 
L 117.159985 86.681196 
L 117.223875 86.573021 
L 117.326284 86.439882 
L 117.334232 86.439882 
L 117.403625 86.331707 
L 117.504811 86.173604 
L 117.512148 86.173604 
L 117.610277 86.07375 
L 117.720328 85.915648 
L 117.720633 85.915648 
L 117.793084 85.807473 
L 117.88999 85.591122 
L 117.90344 85.591122 
L 118.042227 85.482947 
L 118.130879 85.36645 
L 118.136076 85.36645 
L 118.246738 85.258275 
L 118.357706 85.075209 
L 118.417317 84.967033 
L 118.505358 84.775646 
L 118.52798 84.775646 
L 118.617549 84.667471 
L 118.725154 84.550974 
L 118.728517 84.550974 
L 118.777734 84.442799 
L 118.888397 84.251412 
L 118.970018 84.151558 
L 119.08068 84.02674 
L 119.220078 83.918565 
L 119.324932 83.685572 
L 119.327683 83.685572 
L 119.397688 83.585718 
L 119.503459 83.377688 
L 119.507433 83.377688 
L 119.678318 83.269513 
L 119.788063 83.153016 
L 119.901477 83.053162 
L 120.009694 82.836811 
L 120.010917 82.836811 
L 120.122802 82.728636 
L 120.22949 82.620461 
L 120.232853 82.620461 
L 120.332816 82.54557 
L 120.443172 82.379146 
L 120.579513 82.270971 
L 120.676419 82.129511 
L 120.685896 82.129511 
L 120.832936 82.021336 
L 120.924951 81.929803 
L 120.943904 81.929803 
L 121.04937 81.821627 
L 121.153001 81.69681 
L 121.158809 81.69681 
L 121.259995 81.588634 
L 121.370657 81.463817 
L 121.443413 81.363962 
L 121.543682 81.297393 
L 121.551019 81.297393 
L 121.750028 81.189218 
L 121.860384 81.097685 
L 122.025155 80.989509 
L 122.13918 80.906298 
L 122.22447 80.798122 
L 122.329935 80.706589 
L 122.333604 80.706589 
L 122.49226 80.598414 
L 122.587027 80.506881 
L 122.602923 80.506881 
L 122.828833 80.398706 
L 122.930324 80.298851 
L 122.937967 80.298851 
L 123.037013 80.190676 
L 123.121385 80.132428 
L 123.146452 80.132428 
L 123.225016 80.032574 
L 123.332622 79.891114 
L 123.335679 79.891114 
L 123.492502 79.791259 
L 123.594604 79.683084 
L 123.602552 79.683084 
L 123.735531 79.574909 
L 123.845276 79.458412 
L 124.039394 79.350237 
L 124.141191 79.291989 
L 124.150056 79.291989 
L 124.297096 79.183813 
L 124.405008 79.075638 
L 124.407759 79.075638 
L 124.584452 78.967463 
L 124.678301 78.884251 
L 124.695114 78.884251 
L 124.893512 78.776076 
L 125.003563 78.684543 
L 125.3007 78.576367 
L 125.396689 78.484834 
L 125.411668 78.484834 
L 125.68435 78.376659 
L 125.794707 78.310089 
L 125.938385 78.201914 
L 125.960089 78.135345 
L 126.049047 78.135345 
L 126.229408 78.027169 
L 126.338848 77.952279 
L 126.339765 77.952279 
L 126.485582 77.844103 
L 126.572095 77.777534 
L 126.58524 77.777534 
L 126.777218 77.669359 
L 126.8836 77.561183 
L 126.887574 77.561183 
L 127.048982 77.453008 
L 127.107065 77.411402 
L 127.158728 77.411402 
L 127.284063 77.303227 
L 127.357736 77.220015 
L 127.392892 77.220015 
L 127.539015 77.11184 
L 127.64448 77.061912 
L 127.649983 77.061912 
L 127.852049 76.953737 
L 127.948955 76.878846 
L 127.9621 76.878846 
L 128.141238 76.778992 
L 128.249149 76.695781 
L 128.250984 76.695781 
L 128.402609 76.587605 
L 128.479951 76.512715 
L 128.513577 76.512715 
L 128.822332 76.404539 
L 128.910984 76.33797 
L 128.932688 76.33797 
L 129.124972 76.229794 
L 129.220044 76.171546 
L 129.229214 76.171546 
L 129.475606 76.063371 
L 129.574041 75.98848 
L 129.581072 75.98848 
L 129.828992 75.880305 
L 129.931401 75.822057 
L 129.932929 75.822057 
L 130.193689 75.713881 
L 130.274393 75.647312 
L 130.303434 75.647312 
L 130.548909 75.539137 
L 130.653152 75.489209 
L 130.658043 75.489209 
L 130.999507 75.381034 
L 131.093356 75.306143 
L 131.106501 75.306143 
L 131.391716 75.197968 
L 131.475477 75.148041 
L 131.501767 75.148041 
L 131.775978 75.039866 
L 131.886029 74.981617 
L 132.230855 74.873442 
L 132.334486 74.806873 
L 132.341212 74.806873 
L 132.837358 74.698697 
L 132.911031 74.682055 
L 132.939461 74.682055 
L 133.251883 74.57388 
L 133.325556 74.548916 
L 133.35796 74.548916 
L 133.68903 74.440741 
L 133.786242 74.415777 
L 133.79847 74.415777 
L 134.26313 74.307602 
L 134.360341 74.249354 
L 134.371346 74.249354 
L 134.628743 74.141178 
L 134.697525 74.08293 
L 134.739712 74.08293 
L 135.082398 73.974755 
L 135.179915 73.924828 
L 135.192755 73.924828 
L 135.558369 73.833295 
L 135.65558 73.725119 
L 135.668725 73.725119 
L 136.127271 73.616944 
L 136.229068 73.583659 
L 136.233348 73.583659 
L 136.695256 73.475484 
L 136.776877 73.433878 
L 136.804696 73.433878 
L 137.461945 73.325703 
L 137.544483 73.275776 
L 137.566493 73.275776 
L 138.200203 73.1676 
L 138.286716 73.142637 
L 138.310866 73.142637 
L 138.818629 73.034461 
L 138.902696 73.009498 
L 138.929291 73.009498 
L 139.491774 72.901322 
L 139.5951 72.876359 
L 139.602131 72.876359 
L 140.363928 72.768184 
L 140.457777 72.718257 
L 140.473979 72.718257 
L 141.06 72.618402 
L 141.141927 72.576796 
L 141.170663 72.576796 
L 141.843197 72.468621 
L 141.884466 72.451979 
L 141.952942 72.451979 
L 142.421576 72.343803 
L 142.531015 72.31884 
L 142.531627 72.31884 
L 142.936981 72.210665 
L 143.014628 72.169059 
L 143.047338 72.169059 
L 143.459723 72.060883 
L 143.565189 72.019277 
L 144.091905 71.911102 
L 144.173832 71.877817 
L 144.202567 71.877817 
L 144.776361 71.769642 
L 144.882132 71.728036 
L 144.887023 71.728036 
L 145.48619 71.619861 
L 145.594712 71.603218 
L 146.539316 71.495043 
L 146.636528 71.47008 
L 146.638057 71.47008 
L 147.291943 71.361904 
L 147.291943 71.353583 
L 147.398937 71.353583 
L 148.108766 71.245408 
L 148.116102 71.228765 
L 148.218817 71.228765 
L 148.974194 71.12059 
L 149.068043 71.095626 
L 149.084857 71.095626 
L 150.038326 70.987451 
L 150.123616 70.962488 
L 150.148683 70.962488 
L 150.908952 70.854312 
L 151.011666 70.812706 
L 151.019308 70.812706 
L 151.827572 70.704531 
L 151.827572 70.69621 
L 151.937928 70.69621 
L 152.689026 70.588034 
L 152.784404 70.571392 
L 152.798466 70.571392 
L 153.422088 70.463217 
L 153.478948 70.438253 
L 153.533056 70.438253 
L 154.055187 70.330078 
L 154.167378 70.313436 
L 155.360819 70.20526 
L 155.407897 70.180297 
L 155.465062 70.180297 
L 156.7334 70.072121 
L 156.761524 70.055479 
L 156.83856 70.055479 
L 158.21114 69.947304 
L 158.21114 69.938982 
L 158.321496 69.938982 
L 159.108667 69.830807 
L 159.108667 69.822486 
L 159.214438 69.822486 
L 160.644489 69.714311 
L 160.644489 69.705989 
L 160.755152 69.705989 
L 161.740414 69.597814 
L 161.830289 69.564529 
L 161.85077 69.564529 
L 163.23191 69.456354 
L 163.340433 69.439712 
L 163.342878 69.439712 
L 164.461118 69.331536 
L 164.461118 69.323215 
L 164.539988 69.323215 
L 165.708668 69.21504 
L 165.792124 69.198397 
L 165.819637 69.198397 
L 166.887437 69.090222 
L 166.921369 69.065259 
L 166.992597 69.065259 
L 167.732689 68.957083 
L 167.829595 68.940441 
L 167.843657 68.940441 
L 169.413107 68.832265 
L 169.462324 68.807302 
L 169.521629 68.807302 
L 171.117063 68.699127 
L 171.205409 68.665842 
L 171.227725 68.665842 
L 172.151848 68.557667 
L 172.151848 68.549345 
L 172.261899 68.549345 
L 174.258407 68.44117 
L 174.304873 68.424528 
L 174.368458 68.424528 
L 177.989441 68.316352 
L 178.029487 68.29971 
L 178.099492 68.29971 
L 181.423948 68.191535 
L 181.423948 68.183213 
L 181.533694 68.183213 
L 185.032398 68.075038 
L 185.032398 68.066717 
L 185.143366 68.066717 
L 187.59842 67.958542 
L 187.59842 67.95022 
L 187.708471 67.95022 
L 190.916762 67.842045 
L 190.916762 67.833724 
L 191.02773 67.833724 
L 194.770992 67.725549 
L 194.770992 67.717227 
L 194.878292 67.717227 
L 201.355403 67.609052 
L 201.355403 67.600731 
L 201.466371 67.600731 
L 212.009561 67.492556 
L 212.09699 67.475913 
L 212.119918 67.475913 
L 218.483921 67.367738 
L 218.483921 67.359417 
L 218.593666 67.359417 
L 240.241917 67.259562 
L 240.241917 67.24292 
L 240.352885 67.24292 
L 273.577581 67.134745 
L 273.577581 67.126424 
L 273.686104 67.126424 
L 335.126342 67.018248 
L 335.126342 67.009927 
L 335.237005 67.009927 
L 498.109091 66.96 
L 498.109091 66.96 
" style="fill:none;stroke:#ff0000;stroke-linecap:square;stroke-width:1.5;"/>
   </g>
   <g id="patch_3">
    <path d="M 72 384.48 
L 72 51.84 
" style="fill:none;stroke:#000000;stroke-linecap:square;stroke-linejoin:miter;stroke-width:0.8;"/>
   </g>
   <g id="patch_4">
    <path d="M 518.4 384.48 
L 518.4 51.84 
" style="fill:none;stroke:#000000;stroke-linecap:square;stroke-linejoin:miter;stroke-width:0.8;"/>
   </g>
   <g id="patch_5">
    <path d="M 72 384.48 
L 518.4 384.48 
" style="fill:none;stroke:#000000;stroke-linecap:square;stroke-linejoin:miter;stroke-width:0.8;"/>
   </g>
   <g id="patch_6">
    <path d="M 72 51.84 
L 518.4 51.84 
" style="fill:none;stroke:#000000;stroke-linecap:square;stroke-linejoin:miter;stroke-width:0.8;"/>
   </g>
   <g id="text_15">
    <!-- ROC Curves -->
    <g transform="translate(237.894 45.84)scale(0.192 -0.192)">
     <defs>
      <path d="M 39.40625 66.21875 
Q 28.65625 66.21875 22.328125 58.203125 
Q 16.015625 50.203125 16.015625 36.375 
Q 16.015625 22.609375 22.328125 14.59375 
Q 28.65625 6.59375 39.40625 6.59375 
Q 50.140625 6.59375 56.421875 14.59375 
Q 62.703125 22.609375 62.703125 36.375 
Q 62.703125 50.203125 56.421875 58.203125 
Q 50.140625 66.21875 39.40625 66.21875 
z
M 39.40625 74.21875 
Q 54.734375 74.21875 63.90625 63.9375 
Q 73.09375 53.65625 73.09375 36.375 
Q 73.09375 19.140625 63.90625 8.859375 
Q 54.734375 -1.421875 39.40625 -1.421875 
Q 24.03125 -1.421875 14.8125 8.828125 
Q 5.609375 19.09375 5.609375 36.375 
Q 5.609375 53.65625 14.8125 63.9375 
Q 24.03125 74.21875 39.40625 74.21875 
z
" id="DejaVuSans-79"/>
      <path d="M 64.40625 67.28125 
L 64.40625 56.890625 
Q 59.421875 61.53125 53.78125 63.8125 
Q 48.140625 66.109375 41.796875 66.109375 
Q 29.296875 66.109375 22.65625 58.46875 
Q 16.015625 50.828125 16.015625 36.375 
Q 16.015625 21.96875 22.65625 14.328125 
Q 29.296875 6.6875 41.796875 6.6875 
Q 48.140625 6.6875 53.78125 8.984375 
Q 59.421875 11.28125 64.40625 15.921875 
L 64.40625 5.609375 
Q 59.234375 2.09375 53.4375 0.328125 
Q 47.65625 -1.421875 41.21875 -1.421875 
Q 24.65625 -1.421875 15.125 8.703125 
Q 5.609375 18.84375 5.609375 36.375 
Q 5.609375 53.953125 15.125 64.078125 
Q 24.65625 74.21875 41.21875 74.21875 
Q 47.75 74.21875 53.53125 72.484375 
Q 59.328125 70.75 64.40625 67.28125 
z
" id="DejaVuSans-67"/>
     </defs>
     <use xlink:href="#DejaVuSans-82"/>
     <use x="69.482422" xlink:href="#DejaVuSans-79"/>
     <use x="148.193359" xlink:href="#DejaVuSans-67"/>
     <use x="218.017578" xlink:href="#DejaVuSans-32"/>
     <use x="249.804688" xlink:href="#DejaVuSans-67"/>
     <use x="319.628906" xlink:href="#DejaVuSans-117"/>
     <use x="383.007812" xlink:href="#DejaVuSans-114"/>
     <use x="424.121094" xlink:href="#DejaVuSans-118"/>
     <use x="483.300781" xlink:href="#DejaVuSans-101"/>
     <use x="544.824219" xlink:href="#DejaVuSans-115"/>
    </g>
   </g>
   <g id="legend_1">
    <g id="patch_7">
     <path d="M 388.9825 376.48 
L 507.2 376.48 
Q 510.4 376.48 510.4 373.28 
L 510.4 327.91 
Q 510.4 324.71 507.2 324.71 
L 388.9825 324.71 
Q 385.7825 324.71 385.7825 327.91 
L 385.7825 373.28 
Q 385.7825 376.48 388.9825 376.48 
z
" style="fill:#ffffff;opacity:0.8;stroke:#cccccc;stroke-linejoin:miter;"/>
    </g>
    <g id="line2d_15">
     <path d="M 392.1825 337.6675 
L 424.1825 337.6675 
" style="fill:none;stroke:#0000ff;stroke-linecap:square;stroke-width:1.5;"/>
    </g>
    <g id="line2d_16"/>
    <g id="text_16">
     <!-- baseline -->
     <g transform="translate(436.9825 343.2675)scale(0.16 -0.16)">
      <defs>
       <path d="M 48.6875 27.296875 
Q 48.6875 37.203125 44.609375 42.84375 
Q 40.53125 48.484375 33.40625 48.484375 
Q 26.265625 48.484375 22.1875 42.84375 
Q 18.109375 37.203125 18.109375 27.296875 
Q 18.109375 17.390625 22.1875 11.75 
Q 26.265625 6.109375 33.40625 6.109375 
Q 40.53125 6.109375 44.609375 11.75 
Q 48.6875 17.390625 48.6875 27.296875 
z
M 18.109375 46.390625 
Q 20.953125 51.265625 25.265625 53.625 
Q 29.59375 56 35.59375 56 
Q 45.5625 56 51.78125 48.09375 
Q 58.015625 40.1875 58.015625 27.296875 
Q 58.015625 14.40625 51.78125 6.484375 
Q 45.5625 -1.421875 35.59375 -1.421875 
Q 29.59375 -1.421875 25.265625 0.953125 
Q 20.953125 3.328125 18.109375 8.203125 
L 18.109375 0 
L 9.078125 0 
L 9.078125 75.984375 
L 18.109375 75.984375 
z
" id="DejaVuSans-98"/>
       <path d="M 54.890625 33.015625 
L 54.890625 0 
L 45.90625 0 
L 45.90625 32.71875 
Q 45.90625 40.484375 42.875 44.328125 
Q 39.84375 48.1875 33.796875 48.1875 
Q 26.515625 48.1875 22.3125 43.546875 
Q 18.109375 38.921875 18.109375 30.90625 
L 18.109375 0 
L 9.078125 0 
L 9.078125 54.6875 
L 18.109375 54.6875 
L 18.109375 46.1875 
Q 21.34375 51.125 25.703125 53.5625 
Q 30.078125 56 35.796875 56 
Q 45.21875 56 50.046875 50.171875 
Q 54.890625 44.34375 54.890625 33.015625 
z
" id="DejaVuSans-110"/>
      </defs>
      <use xlink:href="#DejaVuSans-98"/>
      <use x="63.476562" xlink:href="#DejaVuSans-97"/>
      <use x="124.755859" xlink:href="#DejaVuSans-115"/>
      <use x="176.855469" xlink:href="#DejaVuSans-101"/>
      <use x="238.378906" xlink:href="#DejaVuSans-108"/>
      <use x="266.162109" xlink:href="#DejaVuSans-105"/>
      <use x="293.945312" xlink:href="#DejaVuSans-110"/>
      <use x="357.324219" xlink:href="#DejaVuSans-101"/>
     </g>
    </g>
    <g id="line2d_17">
     <path d="M 392.1825 361.1525 
L 424.1825 361.1525 
" style="fill:none;stroke:#ff0000;stroke-linecap:square;stroke-width:1.5;"/>
    </g>
    <g id="line2d_18"/>
    <g id="text_17">
     <!-- model -->
     <g transform="translate(436.9825 366.7525)scale(0.16 -0.16)">
      <defs>
       <path d="M 52 44.1875 
Q 55.375 50.25 60.0625 53.125 
Q 64.75 56 71.09375 56 
Q 79.640625 56 84.28125 50.015625 
Q 88.921875 44.046875 88.921875 33.015625 
L 88.921875 0 
L 79.890625 0 
L 79.890625 32.71875 
Q 79.890625 40.578125 77.09375 44.375 
Q 74.3125 48.1875 68.609375 48.1875 
Q 61.625 48.1875 57.5625 43.546875 
Q 53.515625 38.921875 53.515625 30.90625 
L 53.515625 0 
L 44.484375 0 
L 44.484375 32.71875 
Q 44.484375 40.625 41.703125 44.40625 
Q 38.921875 48.1875 33.109375 48.1875 
Q 26.21875 48.1875 22.15625 43.53125 
Q 18.109375 38.875 18.109375 30.90625 
L 18.109375 0 
L 9.078125 0 
L 9.078125 54.6875 
L 18.109375 54.6875 
L 18.109375 46.1875 
Q 21.1875 51.21875 25.484375 53.609375 
Q 29.78125 56 35.6875 56 
Q 41.65625 56 45.828125 52.96875 
Q 50 49.953125 52 44.1875 
z
" id="DejaVuSans-109"/>
       <path d="M 45.40625 46.390625 
L 45.40625 75.984375 
L 54.390625 75.984375 
L 54.390625 0 
L 45.40625 0 
L 45.40625 8.203125 
Q 42.578125 3.328125 38.25 0.953125 
Q 33.9375 -1.421875 27.875 -1.421875 
Q 17.96875 -1.421875 11.734375 6.484375 
Q 5.515625 14.40625 5.515625 27.296875 
Q 5.515625 40.1875 11.734375 48.09375 
Q 17.96875 56 27.875 56 
Q 33.9375 56 38.25 53.625 
Q 42.578125 51.265625 45.40625 46.390625 
z
M 14.796875 27.296875 
Q 14.796875 17.390625 18.875 11.75 
Q 22.953125 6.109375 30.078125 6.109375 
Q 37.203125 6.109375 41.296875 11.75 
Q 45.40625 17.390625 45.40625 27.296875 
Q 45.40625 37.203125 41.296875 42.84375 
Q 37.203125 48.484375 30.078125 48.484375 
Q 22.953125 48.484375 18.875 42.84375 
Q 14.796875 37.203125 14.796875 27.296875 
z
" id="DejaVuSans-100"/>
      </defs>
      <use xlink:href="#DejaVuSans-109"/>
      <use x="97.412109" xlink:href="#DejaVuSans-111"/>
      <use x="158.59375" xlink:href="#DejaVuSans-100"/>
      <use x="222.070312" xlink:href="#DejaVuSans-101"/>
      <use x="283.59375" xlink:href="#DejaVuSans-108"/>
     </g>
    </g>
   </g>
  </g>
 </g>
 <defs>
  <clipPath id="pf1420a1194">
   <rect height="332.64" width="446.4" x="72" y="51.84"/>
  </clipPath>
 </defs>
</svg>
