<?xml version="1.0" encoding="utf-8" standalone="no"?>
<!DOCTYPE svg PUBLIC "-//W3C//DTD SVG 1.1//EN"
  "http://www.w3.org/Graphics/SVG/1.1/DTD/svg11.dtd">
<!-- Created with matplotlib (https://matplotlib.org/) -->
<svg height="432pt" version="1.1" viewBox="0 0 576 432" width="576pt" xmlns="http://www.w3.org/2000/svg" xmlns:xlink="http://www.w3.org/1999/xlink">
 <metadata>
  <rdf:RDF xmlns:cc="http://creativecommons.org/ns#" xmlns:dc="http://purl.org/dc/elements/1.1/" xmlns:rdf="http://www.w3.org/1999/02/22-rdf-syntax-ns#">
   <cc:Work>
    <dc:type rdf:resource="http://purl.org/dc/dcmitype/StillImage"/>
    <dc:date>2020-08-26T22:09:13.074065</dc:date>
    <dc:format>image/svg+xml</dc:format>
    <dc:creator>
     <cc:Agent>
      <dc:title>Matplotlib v3.3.0, https://matplotlib.org/</dc:title>
     </cc:Agent>
    </dc:creator>
   </cc:Work>
  </rdf:RDF>
 </metadata>
 <defs>
  <style type="text/css">*{stroke-linecap:butt;stroke-linejoin:round;}</style>
 </defs>
 <g id="figure_1">
  <g id="patch_1">
   <path d="M 0 432 
L 576 432 
L 576 0 
L 0 0 
z
" style="fill:#f0f0f0;"/>
  </g>
  <g id="axes_1">
   <g id="patch_2">
    <path d="M 46.08 401.76 
L 547.2 401.76 
L 547.2 51.84 
L 46.08 51.84 
z
" style="fill:#f0f0f0;"/>
   </g>
   <g id="matplotlib.axis_1">
    <g id="xtick_1">
     <g id="line2d_1">
      <path clip-path="url(#p989a40972c)" d="M 68.858182 401.76 
L 68.858182 51.84 
" style="fill:none;stroke:#cbcbcb;"/>
     </g>
     <g id="line2d_2"/>
     <g id="text_1">
      <!-- 0.0 -->
      <g transform="translate(56.135682 417.4175)scale(0.16 -0.16)">
       <defs>
        <path d="M 31.78125 66.40625 
Q 24.171875 66.40625 20.328125 58.90625 
Q 16.5 51.421875 16.5 36.375 
Q 16.5 21.390625 20.328125 13.890625 
Q 24.171875 6.390625 31.78125 6.390625 
Q 39.453125 6.390625 43.28125 13.890625 
Q 47.125 21.390625 47.125 36.375 
Q 47.125 51.421875 43.28125 58.90625 
Q 39.453125 66.40625 31.78125 66.40625 
z
M 31.78125 74.21875 
Q 44.046875 74.21875 50.515625 64.515625 
Q 56.984375 54.828125 56.984375 36.375 
Q 56.984375 17.96875 50.515625 8.265625 
Q 44.046875 -1.421875 31.78125 -1.421875 
Q 19.53125 -1.421875 13.0625 8.265625 
Q 6.59375 17.96875 6.59375 36.375 
Q 6.59375 54.828125 13.0625 64.515625 
Q 19.53125 74.21875 31.78125 74.21875 
z
" id="DejaVuSans-48"/>
        <path d="M 10.6875 12.40625 
L 21 12.40625 
L 21 0 
L 10.6875 0 
z
" id="DejaVuSans-46"/>
       </defs>
       <use xlink:href="#DejaVuSans-48"/>
       <use x="63.623047" xlink:href="#DejaVuSans-46"/>
       <use x="95.410156" xlink:href="#DejaVuSans-48"/>
      </g>
     </g>
    </g>
    <g id="xtick_2">
     <g id="line2d_3">
      <path clip-path="url(#p989a40972c)" d="M 159.970909 401.76 
L 159.970909 51.84 
" style="fill:none;stroke:#cbcbcb;"/>
     </g>
     <g id="line2d_4"/>
     <g id="text_2">
      <!-- 0.2 -->
      <g transform="translate(147.248409 417.4175)scale(0.16 -0.16)">
       <defs>
        <path d="M 19.1875 8.296875 
L 53.609375 8.296875 
L 53.609375 0 
L 7.328125 0 
L 7.328125 8.296875 
Q 12.9375 14.109375 22.625 23.890625 
Q 32.328125 33.6875 34.8125 36.53125 
Q 39.546875 41.84375 41.421875 45.53125 
Q 43.3125 49.21875 43.3125 52.78125 
Q 43.3125 58.59375 39.234375 62.25 
Q 35.15625 65.921875 28.609375 65.921875 
Q 23.96875 65.921875 18.8125 64.3125 
Q 13.671875 62.703125 7.8125 59.421875 
L 7.8125 69.390625 
Q 13.765625 71.78125 18.9375 73 
Q 24.125 74.21875 28.421875 74.21875 
Q 39.75 74.21875 46.484375 68.546875 
Q 53.21875 62.890625 53.21875 53.421875 
Q 53.21875 48.921875 51.53125 44.890625 
Q 49.859375 40.875 45.40625 35.40625 
Q 44.1875 33.984375 37.640625 27.21875 
Q 31.109375 20.453125 19.1875 8.296875 
z
" id="DejaVuSans-50"/>
       </defs>
       <use xlink:href="#DejaVuSans-48"/>
       <use x="63.623047" xlink:href="#DejaVuSans-46"/>
       <use x="95.410156" xlink:href="#DejaVuSans-50"/>
      </g>
     </g>
    </g>
    <g id="xtick_3">
     <g id="line2d_5">
      <path clip-path="url(#p989a40972c)" d="M 251.083636 401.76 
L 251.083636 51.84 
" style="fill:none;stroke:#cbcbcb;"/>
     </g>
     <g id="line2d_6"/>
     <g id="text_3">
      <!-- 0.4 -->
      <g transform="translate(238.361136 417.4175)scale(0.16 -0.16)">
       <defs>
        <path d="M 37.796875 64.3125 
L 12.890625 25.390625 
L 37.796875 25.390625 
z
M 35.203125 72.90625 
L 47.609375 72.90625 
L 47.609375 25.390625 
L 58.015625 25.390625 
L 58.015625 17.1875 
L 47.609375 17.1875 
L 47.609375 0 
L 37.796875 0 
L 37.796875 17.1875 
L 4.890625 17.1875 
L 4.890625 26.703125 
z
" id="DejaVuSans-52"/>
       </defs>
       <use xlink:href="#DejaVuSans-48"/>
       <use x="63.623047" xlink:href="#DejaVuSans-46"/>
       <use x="95.410156" xlink:href="#DejaVuSans-52"/>
      </g>
     </g>
    </g>
    <g id="xtick_4">
     <g id="line2d_7">
      <path clip-path="url(#p989a40972c)" d="M 342.196364 401.76 
L 342.196364 51.84 
" style="fill:none;stroke:#cbcbcb;"/>
     </g>
     <g id="line2d_8"/>
     <g id="text_4">
      <!-- 0.6 -->
      <g transform="translate(329.473864 417.4175)scale(0.16 -0.16)">
       <defs>
        <path d="M 33.015625 40.375 
Q 26.375 40.375 22.484375 35.828125 
Q 18.609375 31.296875 18.609375 23.390625 
Q 18.609375 15.53125 22.484375 10.953125 
Q 26.375 6.390625 33.015625 6.390625 
Q 39.65625 6.390625 43.53125 10.953125 
Q 47.40625 15.53125 47.40625 23.390625 
Q 47.40625 31.296875 43.53125 35.828125 
Q 39.65625 40.375 33.015625 40.375 
z
M 52.59375 71.296875 
L 52.59375 62.3125 
Q 48.875 64.0625 45.09375 64.984375 
Q 41.3125 65.921875 37.59375 65.921875 
Q 27.828125 65.921875 22.671875 59.328125 
Q 17.53125 52.734375 16.796875 39.40625 
Q 19.671875 43.65625 24.015625 45.921875 
Q 28.375 48.1875 33.59375 48.1875 
Q 44.578125 48.1875 50.953125 41.515625 
Q 57.328125 34.859375 57.328125 23.390625 
Q 57.328125 12.15625 50.6875 5.359375 
Q 44.046875 -1.421875 33.015625 -1.421875 
Q 20.359375 -1.421875 13.671875 8.265625 
Q 6.984375 17.96875 6.984375 36.375 
Q 6.984375 53.65625 15.1875 63.9375 
Q 23.390625 74.21875 37.203125 74.21875 
Q 40.921875 74.21875 44.703125 73.484375 
Q 48.484375 72.75 52.59375 71.296875 
z
" id="DejaVuSans-54"/>
       </defs>
       <use xlink:href="#DejaVuSans-48"/>
       <use x="63.623047" xlink:href="#DejaVuSans-46"/>
       <use x="95.410156" xlink:href="#DejaVuSans-54"/>
      </g>
     </g>
    </g>
    <g id="xtick_5">
     <g id="line2d_9">
      <path clip-path="url(#p989a40972c)" d="M 433.309091 401.76 
L 433.309091 51.84 
" style="fill:none;stroke:#cbcbcb;"/>
     </g>
     <g id="line2d_10"/>
     <g id="text_5">
      <!-- 0.8 -->
      <g transform="translate(420.586591 417.4175)scale(0.16 -0.16)">
       <defs>
        <path d="M 31.78125 34.625 
Q 24.75 34.625 20.71875 30.859375 
Q 16.703125 27.09375 16.703125 20.515625 
Q 16.703125 13.921875 20.71875 10.15625 
Q 24.75 6.390625 31.78125 6.390625 
Q 38.8125 6.390625 42.859375 10.171875 
Q 46.921875 13.96875 46.921875 20.515625 
Q 46.921875 27.09375 42.890625 30.859375 
Q 38.875 34.625 31.78125 34.625 
z
M 21.921875 38.8125 
Q 15.578125 40.375 12.03125 44.71875 
Q 8.5 49.078125 8.5 55.328125 
Q 8.5 64.0625 14.71875 69.140625 
Q 20.953125 74.21875 31.78125 74.21875 
Q 42.671875 74.21875 48.875 69.140625 
Q 55.078125 64.0625 55.078125 55.328125 
Q 55.078125 49.078125 51.53125 44.71875 
Q 48 40.375 41.703125 38.8125 
Q 48.828125 37.15625 52.796875 32.3125 
Q 56.78125 27.484375 56.78125 20.515625 
Q 56.78125 9.90625 50.3125 4.234375 
Q 43.84375 -1.421875 31.78125 -1.421875 
Q 19.734375 -1.421875 13.25 4.234375 
Q 6.78125 9.90625 6.78125 20.515625 
Q 6.78125 27.484375 10.78125 32.3125 
Q 14.796875 37.15625 21.921875 38.8125 
z
M 18.3125 54.390625 
Q 18.3125 48.734375 21.84375 45.5625 
Q 25.390625 42.390625 31.78125 42.390625 
Q 38.140625 42.390625 41.71875 45.5625 
Q 45.3125 48.734375 45.3125 54.390625 
Q 45.3125 60.0625 41.71875 63.234375 
Q 38.140625 66.40625 31.78125 66.40625 
Q 25.390625 66.40625 21.84375 63.234375 
Q 18.3125 60.0625 18.3125 54.390625 
z
" id="DejaVuSans-56"/>
       </defs>
       <use xlink:href="#DejaVuSans-48"/>
       <use x="63.623047" xlink:href="#DejaVuSans-46"/>
       <use x="95.410156" xlink:href="#DejaVuSans-56"/>
      </g>
     </g>
    </g>
    <g id="xtick_6">
     <g id="line2d_11">
      <path clip-path="url(#p989a40972c)" d="M 524.421818 401.76 
L 524.421818 51.84 
" style="fill:none;stroke:#cbcbcb;"/>
     </g>
     <g id="line2d_12"/>
     <g id="text_6">
      <!-- 1.0 -->
      <g transform="translate(511.699318 417.4175)scale(0.16 -0.16)">
       <defs>
        <path d="M 12.40625 8.296875 
L 28.515625 8.296875 
L 28.515625 63.921875 
L 10.984375 60.40625 
L 10.984375 69.390625 
L 28.421875 72.90625 
L 38.28125 72.90625 
L 38.28125 8.296875 
L 54.390625 8.296875 
L 54.390625 0 
L 12.40625 0 
z
" id="DejaVuSans-49"/>
       </defs>
       <use xlink:href="#DejaVuSans-49"/>
       <use x="63.623047" xlink:href="#DejaVuSans-46"/>
       <use x="95.410156" xlink:href="#DejaVuSans-48"/>
      </g>
     </g>
    </g>
    <g id="text_7">
     <!-- False Positive Rate -->
     <g transform="translate(207.4245 439.334)scale(0.192 -0.192)">
      <defs>
       <path d="M 9.8125 72.90625 
L 51.703125 72.90625 
L 51.703125 64.59375 
L 19.671875 64.59375 
L 19.671875 43.109375 
L 48.578125 43.109375 
L 48.578125 34.8125 
L 19.671875 34.8125 
L 19.671875 0 
L 9.8125 0 
z
" id="DejaVuSans-70"/>
       <path d="M 34.28125 27.484375 
Q 23.390625 27.484375 19.1875 25 
Q 14.984375 22.515625 14.984375 16.5 
Q 14.984375 11.71875 18.140625 8.90625 
Q 21.296875 6.109375 26.703125 6.109375 
Q 34.1875 6.109375 38.703125 11.40625 
Q 43.21875 16.703125 43.21875 25.484375 
L 43.21875 27.484375 
z
M 52.203125 31.203125 
L 52.203125 0 
L 43.21875 0 
L 43.21875 8.296875 
Q 40.140625 3.328125 35.546875 0.953125 
Q 30.953125 -1.421875 24.3125 -1.421875 
Q 15.921875 -1.421875 10.953125 3.296875 
Q 6 8.015625 6 15.921875 
Q 6 25.140625 12.171875 29.828125 
Q 18.359375 34.515625 30.609375 34.515625 
L 43.21875 34.515625 
L 43.21875 35.40625 
Q 43.21875 41.609375 39.140625 45 
Q 35.0625 48.390625 27.6875 48.390625 
Q 23 48.390625 18.546875 47.265625 
Q 14.109375 46.140625 10.015625 43.890625 
L 10.015625 52.203125 
Q 14.9375 54.109375 19.578125 55.046875 
Q 24.21875 56 28.609375 56 
Q 40.484375 56 46.34375 49.84375 
Q 52.203125 43.703125 52.203125 31.203125 
z
" id="DejaVuSans-97"/>
       <path d="M 9.421875 75.984375 
L 18.40625 75.984375 
L 18.40625 0 
L 9.421875 0 
z
" id="DejaVuSans-108"/>
       <path d="M 44.28125 53.078125 
L 44.28125 44.578125 
Q 40.484375 46.53125 36.375 47.5 
Q 32.28125 48.484375 27.875 48.484375 
Q 21.1875 48.484375 17.84375 46.4375 
Q 14.5 44.390625 14.5 40.28125 
Q 14.5 37.15625 16.890625 35.375 
Q 19.28125 33.59375 26.515625 31.984375 
L 29.59375 31.296875 
Q 39.15625 29.25 43.1875 25.515625 
Q 47.21875 21.78125 47.21875 15.09375 
Q 47.21875 7.46875 41.1875 3.015625 
Q 35.15625 -1.421875 24.609375 -1.421875 
Q 20.21875 -1.421875 15.453125 -0.5625 
Q 10.6875 0.296875 5.421875 2 
L 5.421875 11.28125 
Q 10.40625 8.6875 15.234375 7.390625 
Q 20.0625 6.109375 24.8125 6.109375 
Q 31.15625 6.109375 34.5625 8.28125 
Q 37.984375 10.453125 37.984375 14.40625 
Q 37.984375 18.0625 35.515625 20.015625 
Q 33.0625 21.96875 24.703125 23.78125 
L 21.578125 24.515625 
Q 13.234375 26.265625 9.515625 29.90625 
Q 5.8125 33.546875 5.8125 39.890625 
Q 5.8125 47.609375 11.28125 51.796875 
Q 16.75 56 26.8125 56 
Q 31.78125 56 36.171875 55.265625 
Q 40.578125 54.546875 44.28125 53.078125 
z
" id="DejaVuSans-115"/>
       <path d="M 56.203125 29.59375 
L 56.203125 25.203125 
L 14.890625 25.203125 
Q 15.484375 15.921875 20.484375 11.0625 
Q 25.484375 6.203125 34.421875 6.203125 
Q 39.59375 6.203125 44.453125 7.46875 
Q 49.3125 8.734375 54.109375 11.28125 
L 54.109375 2.78125 
Q 49.265625 0.734375 44.1875 -0.34375 
Q 39.109375 -1.421875 33.890625 -1.421875 
Q 20.796875 -1.421875 13.15625 6.1875 
Q 5.515625 13.8125 5.515625 26.8125 
Q 5.515625 40.234375 12.765625 48.109375 
Q 20.015625 56 32.328125 56 
Q 43.359375 56 49.78125 48.890625 
Q 56.203125 41.796875 56.203125 29.59375 
z
M 47.21875 32.234375 
Q 47.125 39.59375 43.09375 43.984375 
Q 39.0625 48.390625 32.421875 48.390625 
Q 24.90625 48.390625 20.390625 44.140625 
Q 15.875 39.890625 15.1875 32.171875 
z
" id="DejaVuSans-101"/>
       <path id="DejaVuSans-32"/>
       <path d="M 19.671875 64.796875 
L 19.671875 37.40625 
L 32.078125 37.40625 
Q 38.96875 37.40625 42.71875 40.96875 
Q 46.484375 44.53125 46.484375 51.125 
Q 46.484375 57.671875 42.71875 61.234375 
Q 38.96875 64.796875 32.078125 64.796875 
z
M 9.8125 72.90625 
L 32.078125 72.90625 
Q 44.34375 72.90625 50.609375 67.359375 
Q 56.890625 61.8125 56.890625 51.125 
Q 56.890625 40.328125 50.609375 34.8125 
Q 44.34375 29.296875 32.078125 29.296875 
L 19.671875 29.296875 
L 19.671875 0 
L 9.8125 0 
z
" id="DejaVuSans-80"/>
       <path d="M 30.609375 48.390625 
Q 23.390625 48.390625 19.1875 42.75 
Q 14.984375 37.109375 14.984375 27.296875 
Q 14.984375 17.484375 19.15625 11.84375 
Q 23.34375 6.203125 30.609375 6.203125 
Q 37.796875 6.203125 41.984375 11.859375 
Q 46.1875 17.53125 46.1875 27.296875 
Q 46.1875 37.015625 41.984375 42.703125 
Q 37.796875 48.390625 30.609375 48.390625 
z
M 30.609375 56 
Q 42.328125 56 49.015625 48.375 
Q 55.71875 40.765625 55.71875 27.296875 
Q 55.71875 13.875 49.015625 6.21875 
Q 42.328125 -1.421875 30.609375 -1.421875 
Q 18.84375 -1.421875 12.171875 6.21875 
Q 5.515625 13.875 5.515625 27.296875 
Q 5.515625 40.765625 12.171875 48.375 
Q 18.84375 56 30.609375 56 
z
" id="DejaVuSans-111"/>
       <path d="M 9.421875 54.6875 
L 18.40625 54.6875 
L 18.40625 0 
L 9.421875 0 
z
M 9.421875 75.984375 
L 18.40625 75.984375 
L 18.40625 64.59375 
L 9.421875 64.59375 
z
" id="DejaVuSans-105"/>
       <path d="M 18.3125 70.21875 
L 18.3125 54.6875 
L 36.8125 54.6875 
L 36.8125 47.703125 
L 18.3125 47.703125 
L 18.3125 18.015625 
Q 18.3125 11.328125 20.140625 9.421875 
Q 21.96875 7.515625 27.59375 7.515625 
L 36.8125 7.515625 
L 36.8125 0 
L 27.59375 0 
Q 17.1875 0 13.234375 3.875 
Q 9.28125 7.765625 9.28125 18.015625 
L 9.28125 47.703125 
L 2.6875 47.703125 
L 2.6875 54.6875 
L 9.28125 54.6875 
L 9.28125 70.21875 
z
" id="DejaVuSans-116"/>
       <path d="M 2.984375 54.6875 
L 12.5 54.6875 
L 29.59375 8.796875 
L 46.6875 54.6875 
L 56.203125 54.6875 
L 35.6875 0 
L 23.484375 0 
z
" id="DejaVuSans-118"/>
       <path d="M 44.390625 34.1875 
Q 47.5625 33.109375 50.5625 29.59375 
Q 53.5625 26.078125 56.59375 19.921875 
L 66.609375 0 
L 56 0 
L 46.6875 18.703125 
Q 43.0625 26.03125 39.671875 28.421875 
Q 36.28125 30.8125 30.421875 30.8125 
L 19.671875 30.8125 
L 19.671875 0 
L 9.8125 0 
L 9.8125 72.90625 
L 32.078125 72.90625 
Q 44.578125 72.90625 50.734375 67.671875 
Q 56.890625 62.453125 56.890625 51.90625 
Q 56.890625 45.015625 53.6875 40.46875 
Q 50.484375 35.9375 44.390625 34.1875 
z
M 19.671875 64.796875 
L 19.671875 38.921875 
L 32.078125 38.921875 
Q 39.203125 38.921875 42.84375 42.21875 
Q 46.484375 45.515625 46.484375 51.90625 
Q 46.484375 58.296875 42.84375 61.546875 
Q 39.203125 64.796875 32.078125 64.796875 
z
" id="DejaVuSans-82"/>
      </defs>
      <use xlink:href="#DejaVuSans-70"/>
      <use x="48.394531" xlink:href="#DejaVuSans-97"/>
      <use x="109.673828" xlink:href="#DejaVuSans-108"/>
      <use x="137.457031" xlink:href="#DejaVuSans-115"/>
      <use x="189.556641" xlink:href="#DejaVuSans-101"/>
      <use x="251.080078" xlink:href="#DejaVuSans-32"/>
      <use x="282.867188" xlink:href="#DejaVuSans-80"/>
      <use x="339.544922" xlink:href="#DejaVuSans-111"/>
      <use x="400.726562" xlink:href="#DejaVuSans-115"/>
      <use x="452.826172" xlink:href="#DejaVuSans-105"/>
      <use x="480.609375" xlink:href="#DejaVuSans-116"/>
      <use x="519.818359" xlink:href="#DejaVuSans-105"/>
      <use x="547.601562" xlink:href="#DejaVuSans-118"/>
      <use x="606.78125" xlink:href="#DejaVuSans-101"/>
      <use x="668.304688" xlink:href="#DejaVuSans-32"/>
      <use x="700.091797" xlink:href="#DejaVuSans-82"/>
      <use x="767.324219" xlink:href="#DejaVuSans-97"/>
      <use x="828.603516" xlink:href="#DejaVuSans-116"/>
      <use x="867.8125" xlink:href="#DejaVuSans-101"/>
     </g>
    </g>
   </g>
   <g id="matplotlib.axis_2">
    <g id="ytick_1">
     <g id="line2d_13">
      <path clip-path="url(#p989a40972c)" d="M 46.08 385.854545 
L 547.2 385.854545 
" style="fill:none;stroke:#cbcbcb;"/>
     </g>
     <g id="line2d_14"/>
     <g id="text_8">
      <!-- 0.0 -->
      <g transform="translate(17.135 391.933295)scale(0.16 -0.16)">
       <use xlink:href="#DejaVuSans-48"/>
       <use x="63.623047" xlink:href="#DejaVuSans-46"/>
       <use x="95.410156" xlink:href="#DejaVuSans-48"/>
      </g>
     </g>
    </g>
    <g id="ytick_2">
     <g id="line2d_15">
      <path clip-path="url(#p989a40972c)" d="M 46.08 322.232727 
L 547.2 322.232727 
" style="fill:none;stroke:#cbcbcb;"/>
     </g>
     <g id="line2d_16"/>
     <g id="text_9">
      <!-- 0.2 -->
      <g transform="translate(17.135 328.311477)scale(0.16 -0.16)">
       <use xlink:href="#DejaVuSans-48"/>
       <use x="63.623047" xlink:href="#DejaVuSans-46"/>
       <use x="95.410156" xlink:href="#DejaVuSans-50"/>
      </g>
     </g>
    </g>
    <g id="ytick_3">
     <g id="line2d_17">
      <path clip-path="url(#p989a40972c)" d="M 46.08 258.610909 
L 547.2 258.610909 
" style="fill:none;stroke:#cbcbcb;"/>
     </g>
     <g id="line2d_18"/>
     <g id="text_10">
      <!-- 0.4 -->
      <g transform="translate(17.135 264.689659)scale(0.16 -0.16)">
       <use xlink:href="#DejaVuSans-48"/>
       <use x="63.623047" xlink:href="#DejaVuSans-46"/>
       <use x="95.410156" xlink:href="#DejaVuSans-52"/>
      </g>
     </g>
    </g>
    <g id="ytick_4">
     <g id="line2d_19">
      <path clip-path="url(#p989a40972c)" d="M 46.08 194.989091 
L 547.2 194.989091 
" style="fill:none;stroke:#cbcbcb;"/>
     </g>
     <g id="line2d_20"/>
     <g id="text_11">
      <!-- 0.6 -->
      <g transform="translate(17.135 201.067841)scale(0.16 -0.16)">
       <use xlink:href="#DejaVuSans-48"/>
       <use x="63.623047" xlink:href="#DejaVuSans-46"/>
       <use x="95.410156" xlink:href="#DejaVuSans-54"/>
      </g>
     </g>
    </g>
    <g id="ytick_5">
     <g id="line2d_21">
      <path clip-path="url(#p989a40972c)" d="M 46.08 131.367273 
L 547.2 131.367273 
" style="fill:none;stroke:#cbcbcb;"/>
     </g>
     <g id="line2d_22"/>
     <g id="text_12">
      <!-- 0.8 -->
      <g transform="translate(17.135 137.446023)scale(0.16 -0.16)">
       <use xlink:href="#DejaVuSans-48"/>
       <use x="63.623047" xlink:href="#DejaVuSans-46"/>
       <use x="95.410156" xlink:href="#DejaVuSans-56"/>
      </g>
     </g>
    </g>
    <g id="ytick_6">
     <g id="line2d_23">
      <path clip-path="url(#p989a40972c)" d="M 46.08 67.745455 
L 547.2 67.745455 
" style="fill:none;stroke:#cbcbcb;"/>
     </g>
     <g id="line2d_24"/>
     <g id="text_13">
      <!-- 1.0 -->
      <g transform="translate(17.135 73.824205)scale(0.16 -0.16)">
       <use xlink:href="#DejaVuSans-49"/>
       <use x="63.623047" xlink:href="#DejaVuSans-46"/>
       <use x="95.410156" xlink:href="#DejaVuSans-48"/>
      </g>
     </g>
    </g>
    <g id="text_14">
     <!-- True Positive Rate -->
     <g transform="translate(9.142 312.297)rotate(-90)scale(0.192 -0.192)">
      <defs>
       <path d="M -0.296875 72.90625 
L 61.375 72.90625 
L 61.375 64.59375 
L 35.5 64.59375 
L 35.5 0 
L 25.59375 0 
L 25.59375 64.59375 
L -0.296875 64.59375 
z
" id="DejaVuSans-84"/>
       <path d="M 41.109375 46.296875 
Q 39.59375 47.171875 37.8125 47.578125 
Q 36.03125 48 33.890625 48 
Q 26.265625 48 22.1875 43.046875 
Q 18.109375 38.09375 18.109375 28.8125 
L 18.109375 0 
L 9.078125 0 
L 9.078125 54.6875 
L 18.109375 54.6875 
L 18.109375 46.1875 
Q 20.953125 51.171875 25.484375 53.578125 
Q 30.03125 56 36.53125 56 
Q 37.453125 56 38.578125 55.875 
Q 39.703125 55.765625 41.0625 55.515625 
z
" id="DejaVuSans-114"/>
       <path d="M 8.5 21.578125 
L 8.5 54.6875 
L 17.484375 54.6875 
L 17.484375 21.921875 
Q 17.484375 14.15625 20.5 10.265625 
Q 23.53125 6.390625 29.59375 6.390625 
Q 36.859375 6.390625 41.078125 11.03125 
Q 45.3125 15.671875 45.3125 23.6875 
L 45.3125 54.6875 
L 54.296875 54.6875 
L 54.296875 0 
L 45.3125 0 
L 45.3125 8.40625 
Q 42.046875 3.421875 37.71875 1 
Q 33.40625 -1.421875 27.6875 -1.421875 
Q 18.265625 -1.421875 13.375 4.4375 
Q 8.5 10.296875 8.5 21.578125 
z
M 31.109375 56 
z
" id="DejaVuSans-117"/>
      </defs>
      <use xlink:href="#DejaVuSans-84"/>
      <use x="46.333984" xlink:href="#DejaVuSans-114"/>
      <use x="87.447266" xlink:href="#DejaVuSans-117"/>
      <use x="150.826172" xlink:href="#DejaVuSans-101"/>
      <use x="212.349609" xlink:href="#DejaVuSans-32"/>
      <use x="244.136719" xlink:href="#DejaVuSans-80"/>
      <use x="300.814453" xlink:href="#DejaVuSans-111"/>
      <use x="361.996094" xlink:href="#DejaVuSans-115"/>
      <use x="414.095703" xlink:href="#DejaVuSans-105"/>
      <use x="441.878906" xlink:href="#DejaVuSans-116"/>
      <use x="481.087891" xlink:href="#DejaVuSans-105"/>
      <use x="508.871094" xlink:href="#DejaVuSans-118"/>
      <use x="568.050781" xlink:href="#DejaVuSans-101"/>
      <use x="629.574219" xlink:href="#DejaVuSans-32"/>
      <use x="661.361328" xlink:href="#DejaVuSans-82"/>
      <use x="728.59375" xlink:href="#DejaVuSans-97"/>
      <use x="789.873047" xlink:href="#DejaVuSans-116"/>
      <use x="829.082031" xlink:href="#DejaVuSans-101"/>
     </g>
    </g>
   </g>
   <g id="line2d_25">
    <path clip-path="url(#p989a40972c)" d="M 68.858182 385.854545 
L 524.421818 67.745455 
" style="fill:none;stroke:#0000ff;stroke-width:4;"/>
   </g>
   <g id="line2d_26">
    <path clip-path="url(#p989a40972c)" d="M 68.858182 385.854545 
L 68.863873 385.747546 
L 68.974677 369.804642 
L 68.975011 369.804642 
L 69.085481 359.425704 
L 69.090837 359.318705 
L 69.200637 353.219741 
L 69.207332 353.112742 
L 69.316797 346.79978 
L 69.321149 346.69278 
L 69.431618 339.309825 
L 69.433626 339.202825 
L 69.544096 332.675865 
L 69.547778 332.568865 
L 69.658582 325.720906 
L 69.665277 325.613907 
L 69.773738 320.15694 
L 69.774407 320.15694 
L 69.782107 320.04994 
L 69.891237 316.090964 
L 69.892576 316.090964 
L 69.894585 315.983965 
L 70.001037 311.70399 
L 70.005054 311.70399 
L 70.007397 311.596991 
L 70.115858 307.424016 
L 70.119875 307.317017 
L 70.23001 303.572039 
L 70.254447 303.46504 
L 70.356547 299.934061 
L 70.365251 299.934061 
L 70.36659 299.934061 
L 70.473711 296.617081 
L 70.476055 296.617081 
L 70.483419 296.617081 
L 70.589872 293.300101 
L 70.606609 293.193102 
L 70.707371 291.481112 
L 70.717079 291.481112 
L 70.72277 291.374112 
L 70.830896 286.345143 
L 70.836252 286.345143 
L 70.940361 282.493166 
L 70.960781 282.386166 
L 71.062212 279.176186 
L 71.071585 279.176186 
L 71.084305 279.069186 
L 71.192766 277.036199 
L 71.19444 277.036199 
L 71.204817 276.929199 
L 71.311939 275.431208 
L 71.332694 275.324209 
L 71.44082 272.970223 
L 71.456553 272.970223 
L 71.565014 271.258233 
L 71.566688 271.258233 
L 71.572379 271.151234 
L 71.681174 268.47625 
L 71.703603 268.369251 
L 71.811394 267.085258 
L 71.825789 266.978259 
L 71.930902 264.624273 
L 71.941949 264.517274 
L 72.040702 263.019283 
L 72.061122 262.912283 
L 72.170922 260.665297 
L 72.184312 260.558297 
L 72.294446 258.52531 
L 72.319888 258.41831 
L 72.418641 255.957325 
L 72.423662 255.957325 
L 72.442408 255.850326 
L 72.54886 253.817338 
L 72.553212 253.817338 
L 72.558903 253.817338 
L 72.669038 251.998349 
L 72.676067 251.891349 
L 72.783859 249.858362 
L 72.786537 249.858362 
L 72.825703 249.751362 
L 72.913074 248.788368 
L 72.935168 248.788368 
L 72.944541 248.681369 
L 73.054006 246.648381 
L 73.066058 246.541382 
L 73.171171 243.652399 
L 73.189582 243.652399 
L 73.300386 241.298413 
L 73.308086 241.191414 
L 73.401482 240.014421 
L 73.416881 240.014421 
L 73.450022 239.907421 
L 73.560826 237.981433 
L 73.590954 237.874434 
L 73.691046 236.376443 
L 73.716487 236.269443 
L 73.777748 235.09245 
L 73.82294 235.09245 
L 73.845033 234.985451 
L 73.944121 233.273461 
L 73.963537 233.166462 
L 74.059946 231.240473 
L 74.069989 231.240473 
L 74.101791 231.133474 
L 74.211925 229.421484 
L 74.218286 229.314485 
L 74.311348 227.816494 
L 74.32909 227.816494 
L 74.343484 227.709495 
L 74.453954 225.997505 
L 74.470022 225.890505 
L 74.580156 224.713513 
L 74.580826 224.713513 
L 74.596225 224.606513 
L 74.695312 223.108522 
L 74.702342 223.108522 
L 74.723432 223.001523 
L 74.833901 221.931529 
L 74.8416 221.82453 
L 74.951065 220.647537 
L 74.952404 220.647537 
L 75.002283 220.540538 
L 75.113087 219.149546 
L 75.123799 219.042547 
L 75.21887 217.544556 
L 75.234268 217.544556 
L 75.237616 217.544556 
L 75.33436 216.260563 
L 75.347416 216.260563 
L 75.384574 216.153564 
L 75.476966 214.976571 
L 75.494039 214.976571 
L 75.517137 214.869572 
L 75.616559 214.120576 
L 75.624928 214.120576 
L 75.659073 214.013577 
L 75.756822 212.943583 
L 75.768203 212.943583 
L 75.776237 212.943583 
L 75.871308 211.87359 
L 75.87499 211.87359 
L 75.89608 211.76659 
L 75.998515 210.910595 
L 76.040359 210.803596 
L 76.143464 209.519604 
L 76.14882 209.519604 
L 76.154511 209.412604 
L 76.248912 208.021613 
L 76.250921 208.021613 
L 76.284731 207.914613 
L 76.371767 207.058618 
L 76.394865 207.058618 
L 76.414951 206.951619 
L 76.437714 206.416622 
L 76.520733 206.416622 
L 76.540484 206.309623 
L 76.647606 205.239629 
L 76.730625 205.13263 
L 76.821009 204.169636 
L 76.830717 204.169636 
L 76.846451 204.062636 
L 76.922775 203.52764 
L 76.950559 203.52764 
L 77.026214 203.42064 
L 77.128649 202.457646 
L 77.13434 202.457646 
L 77.281633 202.350647 
L 77.377038 201.81565 
L 77.386746 201.81565 
L 77.410513 201.708651 
L 77.495876 200.745656 
L 77.518305 200.745656 
L 77.572535 200.638657 
L 77.683004 199.461664 
L 77.691708 199.354665 
L 77.783431 197.856674 
L 77.857077 197.749674 
L 77.957504 197.107678 
L 77.967212 197.107678 
L 77.978259 197.000679 
L 78.088728 196.251683 
L 78.122538 196.144684 
L 78.224304 195.502688 
L 78.227651 195.502688 
L 78.248071 195.395688 
L 78.248071 195.288689 
L 78.255101 195.288689 
L 78.99625 191.86471 
L 79.003614 191.75771 
L 79.074917 191.329713 
L 79.114419 191.329713 
L 79.121114 191.222714 
L 79.219866 190.687717 
L 79.231583 190.687717 
L 79.252003 190.580717 
L 79.357786 189.510724 
L 79.408669 189.403724 
L 79.516125 188.761728 
L 79.519473 188.761728 
L 79.566004 188.654729 
L 79.674799 187.584735 
L 79.676808 187.584735 
L 79.732042 187.477736 
L 79.833473 186.72874 
L 79.937917 186.621741 
L 80.036 185.444748 
L 80.041356 185.444748 
L 80.064789 185.337749 
L 80.162203 184.481754 
L 80.167224 184.481754 
L 80.195009 184.481754 
L 80.281041 184.053757 
L 80.304474 184.053757 
L 80.366739 183.946757 
L 80.448419 183.197762 
L 80.475534 183.197762 
L 80.492941 183.090762 
L 80.596046 182.127768 
L 80.596716 182.127768 
L 80.620148 182.020769 
L 80.716558 181.378773 
L 80.721245 181.378773 
L 80.7892 181.271773 
L 80.866194 180.308779 
L 80.889292 180.308779 
L 80.943187 180.20178 
L 81.03491 179.773782 
L 81.050979 179.773782 
L 81.078094 179.666783 
L 81.176847 178.917787 
L 81.182538 178.917787 
L 81.23342 178.810788 
L 81.328491 177.954793 
L 81.339538 177.954793 
L 81.389751 177.847794 
L 81.496538 176.991799 
L 81.500555 176.991799 
L 81.511267 176.991799 
L 81.595626 176.135804 
L 81.61069 176.135804 
L 81.658895 176.028805 
L 81.766016 175.493808 
L 81.914982 175.386809 
L 81.998002 175.06581 
L 82.021435 175.06581 
L 82.072652 174.958811 
L 82.176426 174.423814 
L 82.177096 174.423814 
L 82.203876 174.316815 
L 82.304972 173.032823 
L 82.311668 173.032823 
L 82.344139 173.032823 
L 82.432514 172.604825 
L 82.453939 172.604825 
L 82.483062 172.497826 
L 82.588176 172.176828 
L 82.593866 172.176828 
L 82.614956 172.069828 
L 82.716387 171.320833 
L 82.754214 171.213834 
L 82.837568 170.464838 
L 82.861336 170.464838 
L 82.912554 170.357839 
L 82.999255 169.394845 
L 83.019675 169.394845 
L 83.04043 169.287845 
L 83.150565 168.43185 
L 83.173663 168.324851 
L 83.249652 167.575855 
L 83.282793 167.575855 
L 83.38255 167.468856 
L 83.481973 166.719861 
L 83.491346 166.719861 
L 83.543902 166.612861 
L 83.640981 165.863866 
L 83.646672 165.863866 
L 83.700568 165.756866 
L 83.771871 165.007871 
L 83.810702 165.007871 
L 83.8415 164.900871 
L 83.944605 164.151876 
L 83.947283 164.151876 
L 84.03231 164.044877 
L 84.141106 163.188882 
L 84.14278 163.188882 
L 84.198684 163.081882 
L 84.220778 162.653885 
L 84.306475 162.653885 
L 84.386147 162.546886 
L 84.47151 162.118888 
L 84.485569 162.118888 
L 84.614785 162.011889 
L 84.714877 161.476892 
L 84.723246 161.476892 
L 84.76576 161.369893 
L 84.826016 159.871902 
L 84.869199 159.871902 
L 84.924099 159.764902 
L 85.029212 159.229906 
L 85.055323 159.122906 
L 85.119596 158.48091 
L 85.157089 158.48091 
L 85.274923 158.373911 
L 85.378697 157.196918 
L 85.379366 157.196918 
L 85.401125 157.089918 
L 85.501217 156.661921 
L 85.558795 156.554922 
L 85.641145 156.019925 
L 85.666586 156.019925 
L 85.729186 155.912925 
L 85.824591 155.698927 
L 85.836977 155.698927 
L 85.870787 155.591927 
L 85.965523 155.270929 
L 85.977909 155.270929 
L 86.135244 155.16393 
L 86.226298 154.842932 
L 86.245713 154.842932 
L 86.341453 154.735932 
L 86.430833 154.307935 
L 86.44188 154.307935 
L 86.485398 154.200936 
L 86.591181 153.55894 
L 86.625326 153.45194 
L 86.666501 153.237941 
L 86.73613 153.237941 
L 86.842917 153.130942 
L 86.928614 152.595945 
L 86.952382 152.595945 
L 87.017994 152.488946 
L 87.125451 151.953949 
L 87.127459 151.953949 
L 87.25634 151.84695 
L 87.366475 151.418952 
L 87.387564 151.311953 
L 87.496025 150.990955 
L 87.554607 150.883956 
L 87.626245 150.455958 
L 87.665076 150.455958 
L 87.780902 150.348959 
L 87.870951 150.027961 
L 87.889697 150.027961 
L 87.937567 149.920961 
L 88.026277 149.385965 
L 88.048371 149.385965 
L 88.176583 149.278965 
L 88.177252 149.171966 
L 88.26295 149.171966 
L 88.348647 149.064967 
L 88.421624 148.743968 
L 88.458447 148.743968 
L 88.537114 148.636969 
L 88.539123 148.52997 
L 88.640219 148.52997 
L 88.732277 148.42297 
L 88.735959 148.315971 
L 88.838059 148.315971 
L 88.941499 148.208972 
L 89.046277 147.459976 
L 89.175828 147.352977 
L 89.286297 146.924979 
L 89.423547 146.81798 
L 89.523638 146.603981 
L 89.530668 146.603981 
L 89.604984 146.496982 
L 89.695703 145.961985 
L 89.715788 145.961985 
L 89.83697 145.854986 
L 89.939405 145.319989 
L 89.947774 145.319989 
L 90.032467 145.21299 
L 90.037823 145.10599 
L 90.125194 145.10599 
L 90.185785 144.998991 
L 90.292237 144.570993 
L 90.296254 144.570993 
L 90.405049 144.463994 
L 90.405049 144.356995 
L 90.515854 144.356995 
L 90.688253 144.249995 
L 90.766585 144.035997 
L 90.796379 144.035997 
L 90.837554 143.928997 
L 90.849939 143.714999 
L 90.939319 143.714999 
L 90.973129 143.607999 
L 91.02736 143.287001 
L 91.067865 143.287001 
L 91.151219 143.180002 
L 91.250976 142.538006 
L 91.338013 142.431006 
L 91.422036 142.110008 
L 91.426054 142.110008 
L 91.563638 142.003009 
L 91.633267 141.468012 
L 91.674442 141.468012 
L 91.730011 141.361013 
L 91.765161 141.040015 
L 91.838472 141.040015 
L 91.891698 140.933015 
L 91.994803 140.291019 
L 92.001163 140.291019 
L 92.024931 140.18402 
L 92.028279 140.07702 
L 92.1354 140.07702 
L 92.236496 139.970021 
L 92.328219 139.649023 
L 92.429985 139.542024 
L 92.43735 139.328025 
L 92.531081 139.328025 
L 92.64222 139.221026 
L 92.721892 138.793028 
L 92.752689 138.793028 
L 92.777796 138.686029 
L 92.829683 138.47203 
L 92.887261 138.47203 
L 92.984675 138.365031 
L 92.984675 138.258031 
L 93.082423 138.258031 
L 93.498859 138.151032 
L 93.598616 137.937033 
L 93.599955 137.937033 
L 93.748252 137.830034 
L 93.789427 137.509036 
L 93.814533 137.509036 
L 94.106775 137.402037 
L 94.19582 137.081038 
L 94.217579 137.081038 
L 94.280848 136.974039 
L 94.347129 136.653041 
L 94.370897 136.653041 
L 94.479023 136.546042 
L 94.541622 136.225044 
L 94.588823 136.225044 
L 94.664143 136.225044 
L 94.728751 135.690047 
L 94.771265 135.690047 
L 94.898137 135.583047 
L 94.898137 135.476048 
L 94.985843 135.476048 
L 95.031369 135.369049 
L 95.082587 135.048051 
L 95.138156 135.048051 
L 95.424372 134.941051 
L 95.519108 134.406054 
L 95.530155 134.406054 
L 95.602462 134.299055 
L 95.702219 134.085056 
L 95.703893 134.085056 
L 95.733686 133.978057 
L 95.766492 133.657059 
L 95.844156 133.657059 
L 95.901399 133.55006 
L 95.97471 133.336061 
L 95.989439 133.336061 
L 96.14577 133.229062 
L 96.160165 133.015063 
L 96.255235 133.015063 
L 96.339928 132.908063 
L 96.40621 132.694065 
L 96.450732 132.694065 
L 96.588317 132.587065 
L 96.646564 132.159068 
L 96.692761 132.159068 
L 96.720545 132.052069 
L 96.765403 131.731071 
L 96.83068 131.731071 
L 96.893614 131.624071 
L 96.944831 131.303073 
L 97.004418 131.303073 
L 97.055301 131.196074 
L 97.120243 130.982075 
L 97.16577 130.982075 
L 97.261845 130.875076 
L 97.264858 130.768076 
L 97.372649 130.768076 
L 97.459351 130.661077 
L 97.537349 130.23308 
L 97.569485 130.23308 
L 97.771677 130.12608 
L 97.872439 129.698083 
L 97.87813 129.698083 
L 98.104759 129.591083 
L 98.14493 129.377085 
L 98.206525 129.377085 
L 98.306951 129.270085 
L 98.405704 129.056087 
L 98.410725 129.056087 
L 98.555675 128.949087 
L 98.557348 128.842088 
L 98.648402 128.842088 
L 98.808415 128.735089 
L 98.828835 128.628089 
L 98.918884 128.628089 
L 99.050443 128.52109 
L 99.078897 128.307091 
L 99.154887 128.307091 
L 99.436751 128.200092 
L 99.54722 127.986093 
L 99.565297 127.879094 
L 99.594755 127.665095 
L 99.664719 127.665095 
L 99.835779 127.558096 
L 99.873272 127.344097 
L 99.940223 127.344097 
L 100.0055 127.237098 
L 100.036298 127.023099 
L 100.106931 127.023099 
L 100.358333 126.916099 
L 100.402855 126.702101 
L 100.468802 126.702101 
L 100.5468 126.595101 
L 100.619442 126.381103 
L 100.656934 126.381103 
L 100.72489 126.274103 
L 100.785146 126.060105 
L 100.832011 126.060105 
L 100.903314 125.953105 
L 100.997046 125.311109 
L 101.046255 125.20411 
L 101.143334 124.883112 
L 101.291296 124.776112 
L 101.343183 124.348115 
L 101.397413 124.348115 
L 101.544371 124.241115 
L 101.633751 124.027117 
L 101.648815 124.027117 
L 101.762966 123.920117 
L 101.783052 123.706119 
L 101.873436 123.706119 
L 101.994617 123.599119 
L 102.104417 123.064123 
L 102.264095 122.957123 
L 102.366865 122.422126 
L 102.374564 122.422126 
L 102.423104 122.422126 
L 102.486038 121.88713 
L 102.533573 121.88713 
L 102.586799 121.78013 
L 102.587469 121.673131 
L 102.69593 121.673131 
L 103.017295 121.566132 
L 103.115043 121.245133 
L 103.128099 121.245133 
L 103.172287 121.138134 
L 103.174965 121.031135 
L 103.271709 121.031135 
L 103.374814 120.924135 
L 103.448125 120.389139 
L 103.481266 120.389139 
L 103.726307 120.282139 
L 103.796606 119.747142 
L 103.832424 119.747142 
L 104.028591 119.640143 
L 104.121653 118.998147 
L 104.1327 118.998147 
L 104.223084 118.891148 
L 104.223084 118.784148 
L 104.325519 118.784148 
L 104.516999 118.677149 
L 104.519008 118.57015 
L 104.622782 118.57015 
L 104.734255 118.46315 
L 104.734255 118.356151 
L 104.84372 118.356151 
L 104.862132 118.356151 
L 104.880209 118.142152 
L 104.971597 118.142152 
L 105.112529 118.035153 
L 105.112529 117.928153 
L 105.216303 117.928153 
L 105.295975 117.821154 
L 105.403097 117.607155 
L 105.637091 117.500156 
L 105.63843 117.286157 
L 105.743543 117.286157 
L 105.887488 117.179158 
L 105.926989 116.965159 
L 105.996283 116.965159 
L 106.269109 116.85816 
L 106.335056 116.537162 
L 106.369536 116.537162 
L 106.520845 116.430162 
L 106.554321 116.323163 
L 106.625958 116.323163 
L 106.80137 116.216164 
L 106.906818 116.002165 
L 107.203077 115.895166 
L 107.247934 115.681167 
L 107.306516 115.681167 
L 107.661022 115.574168 
L 107.661692 115.467168 
L 107.770487 115.467168 
L 108.169181 115.360169 
L 108.176211 115.14617 
L 108.276972 115.14617 
L 108.477825 115.039171 
L 108.504941 114.825172 
L 108.588295 114.825172 
L 108.869824 114.718173 
L 108.906647 114.504174 
L 108.978285 114.504174 
L 109.112856 114.397175 
L 109.132942 114.183176 
L 109.222991 114.183176 
L 109.356893 114.076176 
L 109.452298 113.862178 
L 109.462006 113.862178 
L 109.596243 113.755178 
L 109.661186 113.54118 
L 109.706378 113.54118 
L 109.918613 113.43418 
L 109.985229 113.220182 
L 110.028413 113.220182 
L 110.069253 113.113182 
L 110.167671 112.899184 
L 110.169679 112.899184 
L 110.578081 112.792184 
L 110.683194 112.578185 
L 110.684198 112.578185 
L 110.726043 112.471186 
L 110.733073 112.364187 
L 110.833499 112.364187 
L 111.088583 112.257187 
L 111.093939 112.150188 
L 111.168255 112.150188 
L 111.268681 112.043189 
L 111.272029 111.936189 
L 111.370447 111.936189 
L 111.785878 111.82919 
L 111.815337 111.615191 
L 111.89367 111.615191 
L 111.9479 111.508192 
L 111.974681 111.294193 
L 112.056026 111.294193 
L 112.181225 111.187194 
L 112.288346 110.973195 
L 112.33789 110.866196 
L 112.33789 110.759196 
L 112.447355 110.759196 
L 112.656243 110.652197 
L 112.657247 110.545198 
L 112.766712 110.545198 
L 113.131595 110.438198 
L 113.201224 110.2242 
L 113.236708 110.2242 
L 113.514221 110.1172 
L 113.514555 110.010201 
L 113.621677 110.010201 
L 113.647119 109.903202 
L 113.732481 109.689203 
L 113.752232 109.689203 
L 113.965471 109.582203 
L 113.965471 109.475204 
L 114.075271 109.475204 
L 114.435133 109.368205 
L 114.436807 109.261205 
L 114.544598 109.261205 
L 115.139124 109.154206 
L 115.2198 108.833208 
L 115.249593 108.833208 
L 115.71189 108.726209 
L 115.71189 108.619209 
L 115.813991 108.619209 
L 115.955257 108.51221 
L 116.029573 108.191212 
L 116.060705 108.191212 
L 116.369685 108.084212 
L 116.470781 107.870214 
L 116.47145 107.870214 
L 117.082379 107.763214 
L 117.179793 107.549216 
L 117.191174 107.549216 
L 117.60761 107.442216 
L 117.616648 107.228218 
L 117.715401 107.228218 
L 118.511784 107.121218 
L 118.516806 107.014219 
L 118.622589 107.014219 
L 118.747118 106.90722 
L 118.747118 106.80022 
L 118.852565 106.80022 
L 119.063796 106.693221 
L 119.066474 106.479222 
L 119.171253 106.479222 
L 119.329592 106.372223 
L 119.3393 106.158224 
L 119.439727 106.158224 
L 119.584341 106.051225 
L 119.670373 105.837226 
L 119.678742 105.837226 
L 120.446001 105.730227 
L 120.448679 105.623227 
L 120.556136 105.623227 
L 120.701754 105.516228 
L 120.701754 105.409229 
L 120.81055 105.409229 
L 121.148653 105.302229 
L 121.167065 105.08823 
L 121.259457 105.08823 
L 121.459976 104.981231 
L 121.46031 104.874232 
L 121.568102 104.874232 
L 121.671541 104.767232 
L 121.674554 104.660233 
L 121.779332 104.660233 
L 122.286152 104.553234 
L 122.300881 104.446234 
L 122.395617 104.446234 
L 122.796989 104.339235 
L 122.798662 104.232236 
L 122.902437 104.232236 
L 123.322889 104.125236 
L 123.39118 103.911238 
L 123.43202 103.911238 
L 123.862515 103.804238 
L 123.87624 103.697239 
L 123.971311 103.697239 
L 124.176516 103.590239 
L 124.182876 103.48324 
L 124.283638 103.48324 
L 124.772715 103.376241 
L 124.774724 103.269241 
L 124.878498 103.269241 
L 125.120861 103.162242 
L 125.181452 102.841244 
L 125.231665 102.841244 
L 125.586171 102.734245 
L 125.664504 102.520246 
L 125.692623 102.520246 
L 125.844602 102.413246 
L 125.849958 102.306247 
L 125.951724 102.306247 
L 126.050811 102.199248 
L 126.113745 101.985249 
L 126.158268 101.985249 
L 126.177684 101.87825 
L 126.19576 101.77125 
L 126.27175 101.77125 
L 127.822672 101.664251 
L 127.831041 101.557252 
L 127.931133 101.557252 
L 128.228395 101.450252 
L 128.230404 101.343253 
L 128.338195 101.343253 
L 128.59194 101.236254 
L 128.600309 101.129254 
L 128.702409 101.129254 
L 129.31769 101.022255 
L 129.322376 100.915255 
L 129.428159 100.915255 
L 129.929623 100.808256 
L 129.936318 100.701257 
L 130.034736 100.701257 
L 130.432425 100.701257 
L 130.434099 100.487258 
L 130.540886 100.487258 
L 130.696882 100.380259 
L 130.69889 100.273259 
L 130.805677 100.273259 
L 131.574611 100.16626 
L 131.585658 100.059261 
L 131.685415 100.059261 
L 132.336179 99.952261 
L 132.345552 99.845262 
L 132.44464 99.845262 
L 133.483721 99.738263 
L 133.495103 99.631263 
L 133.59419 99.631263 
L 134.270396 99.524264 
L 134.271066 99.417264 
L 134.376179 99.417264 
L 135.238844 99.310265 
L 135.298765 99.096266 
L 135.34697 99.096266 
L 135.634859 98.989267 
L 135.635529 98.882268 
L 135.741646 98.882268 
L 136.27056 98.775268 
L 136.27056 98.668269 
L 136.381029 98.668269 
L 136.959821 98.56127 
L 137.01606 98.347271 
L 137.064934 98.347271 
L 137.88475 98.240272 
L 137.901823 98.026273 
L 137.99455 98.026273 
L 138.683477 97.919273 
L 138.724652 97.705275 
L 138.791938 97.705275 
L 139.238836 97.598275 
L 139.242184 97.491276 
L 139.339263 97.491276 
L 139.565223 97.384277 
L 139.567901 97.277277 
L 139.675692 97.277277 
L 140.192889 97.170278 
L 140.208288 97.063279 
L 140.30068 97.063279 
L 141.454582 96.956279 
L 141.459938 96.742281 
L 141.563378 96.742281 
L 141.80641 96.635281 
L 141.80641 96.528282 
L 141.90918 96.528282 
L 142.421356 96.421282 
L 142.523122 96.207284 
L 142.531156 96.207284 
L 143.382439 96.100284 
L 143.386121 95.993285 
L 143.482531 95.993285 
L 143.761717 95.886286 
L 143.762386 95.779286 
L 143.864152 95.779286 
L 145.203843 95.672287 
L 145.267112 95.458288 
L 145.3113 95.458288 
L 145.463948 95.351289 
L 145.463948 95.24429 
L 145.569396 95.24429 
L 146.198736 95.13729 
L 146.215139 95.030291 
L 146.300837 95.030291 
L 146.666055 94.923291 
L 146.667729 94.816292 
L 146.773176 94.816292 
L 147.110945 94.709293 
L 147.125674 94.602293 
L 147.215723 94.602293 
L 148.612323 94.495294 
L 148.618683 94.388295 
L 148.712415 94.388295 
L 149.035454 94.281295 
L 149.114456 94.067297 
L 149.146258 94.067297 
L 150.057797 93.960297 
L 150.061144 93.853298 
L 150.168601 93.853298 
L 151.494902 93.746299 
L 151.494902 93.639299 
L 151.602358 93.639299 
L 152.021807 93.5323 
L 152.025154 93.4253 
L 152.115538 93.4253 
L 152.83158 93.318301 
L 152.83158 93.211302 
L 152.939706 93.211302 
L 153.533562 93.104302 
L 153.535236 92.997303 
L 153.642023 92.997303 
L 153.927904 92.890304 
L 154.037704 92.569306 
L 155.020546 92.462306 
L 155.020546 92.355307 
L 155.122646 92.355307 
L 155.736922 92.248307 
L 155.74027 92.141308 
L 155.842036 92.141308 
L 156.569794 92.034309 
L 156.569794 91.927309 
L 156.676581 91.927309 
L 158.136115 91.82031 
L 158.148501 91.606311 
L 158.24491 91.606311 
L 159.409859 91.499312 
L 159.410863 91.392313 
L 159.514972 91.392313 
L 160.034513 91.285313 
L 160.035182 91.178314 
L 160.143978 91.178314 
L 160.50317 91.071315 
L 160.535641 90.857316 
L 160.613974 90.857316 
L 160.717079 90.750316 
L 160.826544 90.536318 
L 162.492287 90.429318 
L 162.499652 90.322319 
L 162.600413 90.322319 
L 163.281975 90.21532 
L 163.282979 90.10832 
L 163.389431 90.10832 
L 164.672884 90.001321 
L 164.695312 89.787322 
L 164.77331 89.787322 
L 165.62292 89.680323 
L 165.625263 89.573324 
L 165.719664 89.573324 
L 166.225814 89.466324 
L 166.269332 89.252325 
L 166.335614 89.252325 
L 166.416625 89.252325 
L 166.452444 88.931327 
L 166.52609 88.931327 
L 166.995417 88.824328 
L 166.995417 88.717329 
L 167.104882 88.717329 
L 167.149739 88.717329 
L 167.159782 88.396331 
L 167.2582 88.396331 
L 169.697897 88.289331 
L 169.701915 88.182332 
L 169.808367 88.182332 
L 170.05709 88.075333 
L 170.05709 87.968333 
L 170.1535 87.968333 
L 172.722747 87.861334 
L 172.723417 87.754334 
L 172.822505 87.754334 
L 173.620227 87.647335 
L 173.620227 87.540336 
L 173.708267 87.540336 
L 174.374096 87.433336 
L 174.3828 87.326337 
L 174.46448 87.326337 
L 174.793879 87.219338 
L 174.893971 87.005339 
L 174.904683 87.005339 
L 176.199517 86.89834 
L 176.2032 86.79134 
L 176.306974 86.79134 
L 176.880075 86.684341 
L 176.933636 86.470342 
L 176.979163 86.470342 
L 177.612855 86.363343 
L 177.685831 86.149344 
L 177.723659 86.149344 
L 178.272323 86.042345 
L 178.28337 85.935345 
L 178.371411 85.935345 
L 178.886264 85.828346 
L 178.888942 85.721347 
L 178.995729 85.721347 
L 180.686914 85.614347 
L 180.686914 85.507348 
L 180.789684 85.507348 
L 181.811023 85.400349 
L 181.818052 85.293349 
L 181.91781 85.293349 
L 182.396175 85.18635 
L 182.401531 85.079351 
L 182.505975 85.079351 
L 182.816293 84.972351 
L 182.816628 84.865352 
L 182.924419 84.865352 
L 184.434501 84.758352 
L 184.480028 84.437354 
L 184.540283 84.437354 
L 186.465462 84.330355 
L 186.466801 84.223356 
L 186.573253 84.223356 
L 187.677611 84.116356 
L 187.760631 83.902358 
L 187.773686 83.902358 
L 188.202173 83.795358 
L 188.202173 83.688359 
L 188.312977 83.688359 
L 188.740795 83.58136 
L 188.749498 83.47436 
L 188.84323 83.47436 
L 192.428795 83.367361 
L 192.439173 83.153362 
L 192.539264 83.153362 
L 193.135799 83.046363 
L 193.137807 82.939363 
L 193.2225 82.939363 
L 193.723964 82.832364 
L 193.733002 82.618365 
L 193.834098 82.618365 
L 193.956619 82.511366 
L 193.956619 82.404367 
L 194.067423 82.404367 
L 194.835687 82.297367 
L 194.840038 82.190368 
L 194.946491 82.190368 
L 195.500511 82.083368 
L 195.572818 81.86937 
L 195.611315 81.86937 
L 196.989168 81.76237 
L 197.001554 81.655371 
L 197.096625 81.655371 
L 197.723622 81.548372 
L 197.723956 81.441372 
L 197.823714 81.441372 
L 198.639178 81.334373 
L 198.726549 81.120374 
L 198.741278 81.120374 
L 198.96456 81.013375 
L 198.966903 80.906376 
L 199.073356 80.906376 
L 200.164993 80.799376 
L 200.204829 80.585377 
L 200.274458 80.585377 
L 200.976775 80.478378 
L 200.978114 80.371379 
L 201.083897 80.371379 
L 202.724198 80.264379 
L 202.783115 80.050381 
L 202.834667 80.050381 
L 205.027985 79.943381 
L 205.027985 79.836382 
L 205.138789 79.836382 
L 206.986304 79.729383 
L 206.990321 79.622383 
L 207.096439 79.622383 
L 208.746114 79.515384 
L 208.746114 79.408385 
L 208.854574 79.408385 
L 209.524085 79.301385 
L 209.530445 79.194386 
L 209.632546 79.194386 
L 214.590274 79.087386 
L 214.590274 78.980387 
L 214.696056 78.980387 
L 216.465239 78.873388 
L 216.466578 78.766388 
L 216.575373 78.766388 
L 216.972393 78.659389 
L 216.972393 78.55239 
L 217.075163 78.55239 
L 218.749275 78.44539 
L 218.83899 78.231392 
L 218.859075 78.231392 
L 221.611434 78.124392 
L 221.681398 77.803394 
L 221.71889 77.803394 
L 223.154322 77.696395 
L 223.156665 77.589395 
L 223.258765 77.589395 
L 225.049037 77.482396 
L 225.060754 77.375397 
L 225.159507 77.375397 
L 229.908347 77.268397 
L 229.908682 77.161398 
L 230.006431 77.161398 
L 230.506555 77.054399 
L 230.581875 76.8404 
L 230.617024 76.8404 
L 230.907257 76.733401 
L 230.908596 76.626401 
L 231.016053 76.626401 
L 232.164599 76.519402 
L 232.165603 76.412403 
L 232.274064 76.412403 
L 233.173552 76.305403 
L 233.181586 76.198404 
L 233.260588 76.198404 
L 233.418593 76.091404 
L 233.432987 75.984405 
L 233.529397 75.984405 
L 237.149442 75.877406 
L 237.149777 75.770406 
L 237.252881 75.770406 
L 239.796688 75.663407 
L 239.799701 75.556408 
L 239.899792 75.556408 
L 243.395978 75.449408 
L 243.405351 75.23541 
L 243.506113 75.23541 
L 247.548954 75.12841 
L 247.611888 74.914412 
L 247.649046 74.914412 
L 255.495043 74.807412 
L 255.496048 74.700413 
L 255.60183 74.700413 
L 260.124711 74.593413 
L 260.141114 74.486414 
L 260.231833 74.486414 
L 260.649273 74.379415 
L 260.662663 74.272415 
L 260.753047 74.272415 
L 262.650441 74.165416 
L 262.659814 74.058417 
L 262.754884 74.058417 
L 265.394431 73.951417 
L 265.39577 73.844418 
L 265.5049 73.844418 
L 267.31827 73.737419 
L 267.329987 73.630419 
L 267.428739 73.630419 
L 280.076804 73.52342 
L 280.085507 73.416421 
L 280.166518 73.416421 
L 282.3123 73.309421 
L 282.327699 73.202422 
L 282.4221 73.202422 
L 285.880124 73.095422 
L 285.887488 72.988423 
L 285.981889 72.988423 
L 290.335049 72.881424 
L 290.339401 72.774424 
L 290.445518 72.774424 
L 294.386594 72.667425 
L 294.40601 72.560426 
L 294.48836 72.560426 
L 300.197948 72.453426 
L 300.20163 72.346427 
L 300.302726 72.346427 
L 302.355112 72.239428 
L 302.355782 72.132428 
L 302.459221 72.132428 
L 308.395774 72.025429 
L 308.40113 71.91843 
L 308.497874 71.91843 
L 313.783997 71.81143 
L 313.789353 71.704431 
L 313.893462 71.704431 
L 321.760549 71.597431 
L 321.761219 71.490432 
L 321.862315 71.490432 
L 323.210375 71.383433 
L 323.211044 71.276433 
L 323.320509 71.276433 
L 327.286692 71.169434 
L 327.28937 71.062435 
L 327.338244 71.062435 
L 332.676589 70.955435 
L 332.685627 70.848436 
L 332.781367 70.848436 
L 336.682607 70.741437 
L 336.702358 70.634437 
L 336.789729 70.634437 
L 342.338969 70.527438 
L 342.341647 70.420438 
L 342.44743 70.420438 
L 346.502657 70.313439 
L 346.508683 70.20644 
L 346.611788 70.20644 
L 354.530427 70.09944 
L 354.530762 69.992441 
L 354.635206 69.992441 
L 355.969206 69.885442 
L 355.974562 69.778442 
L 356.08001 69.778442 
L 360.746166 69.671443 
L 360.746166 69.564444 
L 360.855296 69.564444 
L 365.807668 69.457444 
L 365.818045 69.350445 
L 365.90073 69.350445 
L 377.492641 69.243446 
L 377.492641 69.136446 
L 377.584029 69.136446 
L 384.629961 69.029447 
L 384.635317 68.922447 
L 384.733066 68.922447 
L 392.429428 68.815448 
L 392.429428 68.708449 
L 392.539897 68.708449 
L 403.231651 68.601449 
L 403.234664 68.49445 
L 403.34212 68.49445 
L 408.31056 68.387451 
L 408.31056 68.280451 
L 408.421364 68.280451 
L 433.546433 68.173452 
L 433.549111 68.066453 
L 433.645855 68.066453 
L 467.519087 67.959453 
L 467.519087 67.852454 
L 467.629556 67.852454 
L 524.421818 67.745455 
L 524.421818 67.745455 
" style="fill:none;stroke:#ff0000;stroke-width:4;"/>
   </g>
   <g id="patch_3">
    <path d="M 46.08 401.76 
L 46.08 51.84 
" style="fill:none;stroke:#f0f0f0;stroke-linecap:square;stroke-linejoin:miter;stroke-width:3;"/>
   </g>
   <g id="patch_4">
    <path d="M 547.2 401.76 
L 547.2 51.84 
" style="fill:none;stroke:#f0f0f0;stroke-linecap:square;stroke-linejoin:miter;stroke-width:3;"/>
   </g>
   <g id="patch_5">
    <path d="M 46.08 401.76 
L 547.2 401.76 
" style="fill:none;stroke:#f0f0f0;stroke-linecap:square;stroke-linejoin:miter;stroke-width:3;"/>
   </g>
   <g id="patch_6">
    <path d="M 46.08 51.84 
L 547.2 51.84 
" style="fill:none;stroke:#f0f0f0;stroke-linecap:square;stroke-linejoin:miter;stroke-width:3;"/>
   </g>
   <g id="text_15">
    <!-- ROC Curves -->
    <g transform="translate(227.8728 45.84)scale(0.2304 -0.2304)">
     <defs>
      <path d="M 39.40625 66.21875 
Q 28.65625 66.21875 22.328125 58.203125 
Q 16.015625 50.203125 16.015625 36.375 
Q 16.015625 22.609375 22.328125 14.59375 
Q 28.65625 6.59375 39.40625 6.59375 
Q 50.140625 6.59375 56.421875 14.59375 
Q 62.703125 22.609375 62.703125 36.375 
Q 62.703125 50.203125 56.421875 58.203125 
Q 50.140625 66.21875 39.40625 66.21875 
z
M 39.40625 74.21875 
Q 54.734375 74.21875 63.90625 63.9375 
Q 73.09375 53.65625 73.09375 36.375 
Q 73.09375 19.140625 63.90625 8.859375 
Q 54.734375 -1.421875 39.40625 -1.421875 
Q 24.03125 -1.421875 14.8125 8.828125 
Q 5.609375 19.09375 5.609375 36.375 
Q 5.609375 53.65625 14.8125 63.9375 
Q 24.03125 74.21875 39.40625 74.21875 
z
" id="DejaVuSans-79"/>
      <path d="M 64.40625 67.28125 
L 64.40625 56.890625 
Q 59.421875 61.53125 53.78125 63.8125 
Q 48.140625 66.109375 41.796875 66.109375 
Q 29.296875 66.109375 22.65625 58.46875 
Q 16.015625 50.828125 16.015625 36.375 
Q 16.015625 21.96875 22.65625 14.328125 
Q 29.296875 6.6875 41.796875 6.6875 
Q 48.140625 6.6875 53.78125 8.984375 
Q 59.421875 11.28125 64.40625 15.921875 
L 64.40625 5.609375 
Q 59.234375 2.09375 53.4375 0.328125 
Q 47.65625 -1.421875 41.21875 -1.421875 
Q 24.65625 -1.421875 15.125 8.703125 
Q 5.609375 18.84375 5.609375 36.375 
Q 5.609375 53.953125 15.125 64.078125 
Q 24.65625 74.21875 41.21875 74.21875 
Q 47.75 74.21875 53.53125 72.484375 
Q 59.328125 70.75 64.40625 67.28125 
z
" id="DejaVuSans-67"/>
     </defs>
     <use xlink:href="#DejaVuSans-82"/>
     <use x="69.482422" xlink:href="#DejaVuSans-79"/>
     <use x="148.193359" xlink:href="#DejaVuSans-67"/>
     <use x="218.017578" xlink:href="#DejaVuSans-32"/>
     <use x="249.804688" xlink:href="#DejaVuSans-67"/>
     <use x="319.628906" xlink:href="#DejaVuSans-117"/>
     <use x="383.007812" xlink:href="#DejaVuSans-114"/>
     <use x="424.121094" xlink:href="#DejaVuSans-118"/>
     <use x="483.300781" xlink:href="#DejaVuSans-101"/>
     <use x="544.824219" xlink:href="#DejaVuSans-115"/>
    </g>
   </g>
   <g id="legend_1">
    <g id="patch_7">
     <path d="M 417.7825 393.76 
L 536 393.76 
Q 539.2 393.76 539.2 390.56 
L 539.2 345.19 
Q 539.2 341.99 536 341.99 
L 417.7825 341.99 
Q 414.5825 341.99 414.5825 345.19 
L 414.5825 390.56 
Q 414.5825 393.76 417.7825 393.76 
z
" style="fill:#f0f0f0;opacity:0.8;stroke:#cccccc;stroke-linejoin:miter;stroke-width:0.5;"/>
    </g>
    <g id="line2d_27">
     <path d="M 420.9825 354.9475 
L 452.9825 354.9475 
" style="fill:none;stroke:#0000ff;stroke-width:4;"/>
    </g>
    <g id="line2d_28"/>
    <g id="text_16">
     <!-- baseline -->
     <g transform="translate(465.7825 360.5475)scale(0.16 -0.16)">
      <defs>
       <path d="M 48.6875 27.296875 
Q 48.6875 37.203125 44.609375 42.84375 
Q 40.53125 48.484375 33.40625 48.484375 
Q 26.265625 48.484375 22.1875 42.84375 
Q 18.109375 37.203125 18.109375 27.296875 
Q 18.109375 17.390625 22.1875 11.75 
Q 26.265625 6.109375 33.40625 6.109375 
Q 40.53125 6.109375 44.609375 11.75 
Q 48.6875 17.390625 48.6875 27.296875 
z
M 18.109375 46.390625 
Q 20.953125 51.265625 25.265625 53.625 
Q 29.59375 56 35.59375 56 
Q 45.5625 56 51.78125 48.09375 
Q 58.015625 40.1875 58.015625 27.296875 
Q 58.015625 14.40625 51.78125 6.484375 
Q 45.5625 -1.421875 35.59375 -1.421875 
Q 29.59375 -1.421875 25.265625 0.953125 
Q 20.953125 3.328125 18.109375 8.203125 
L 18.109375 0 
L 9.078125 0 
L 9.078125 75.984375 
L 18.109375 75.984375 
z
" id="DejaVuSans-98"/>
       <path d="M 54.890625 33.015625 
L 54.890625 0 
L 45.90625 0 
L 45.90625 32.71875 
Q 45.90625 40.484375 42.875 44.328125 
Q 39.84375 48.1875 33.796875 48.1875 
Q 26.515625 48.1875 22.3125 43.546875 
Q 18.109375 38.921875 18.109375 30.90625 
L 18.109375 0 
L 9.078125 0 
L 9.078125 54.6875 
L 18.109375 54.6875 
L 18.109375 46.1875 
Q 21.34375 51.125 25.703125 53.5625 
Q 30.078125 56 35.796875 56 
Q 45.21875 56 50.046875 50.171875 
Q 54.890625 44.34375 54.890625 33.015625 
z
" id="DejaVuSans-110"/>
      </defs>
      <use xlink:href="#DejaVuSans-98"/>
      <use x="63.476562" xlink:href="#DejaVuSans-97"/>
      <use x="124.755859" xlink:href="#DejaVuSans-115"/>
      <use x="176.855469" xlink:href="#DejaVuSans-101"/>
      <use x="238.378906" xlink:href="#DejaVuSans-108"/>
      <use x="266.162109" xlink:href="#DejaVuSans-105"/>
      <use x="293.945312" xlink:href="#DejaVuSans-110"/>
      <use x="357.324219" xlink:href="#DejaVuSans-101"/>
     </g>
    </g>
    <g id="line2d_29">
     <path d="M 420.9825 378.4325 
L 452.9825 378.4325 
" style="fill:none;stroke:#ff0000;stroke-width:4;"/>
    </g>
    <g id="line2d_30"/>
    <g id="text_17">
     <!-- model -->
     <g transform="translate(465.7825 384.0325)scale(0.16 -0.16)">
      <defs>
       <path d="M 52 44.1875 
Q 55.375 50.25 60.0625 53.125 
Q 64.75 56 71.09375 56 
Q 79.640625 56 84.28125 50.015625 
Q 88.921875 44.046875 88.921875 33.015625 
L 88.921875 0 
L 79.890625 0 
L 79.890625 32.71875 
Q 79.890625 40.578125 77.09375 44.375 
Q 74.3125 48.1875 68.609375 48.1875 
Q 61.625 48.1875 57.5625 43.546875 
Q 53.515625 38.921875 53.515625 30.90625 
L 53.515625 0 
L 44.484375 0 
L 44.484375 32.71875 
Q 44.484375 40.625 41.703125 44.40625 
Q 38.921875 48.1875 33.109375 48.1875 
Q 26.21875 48.1875 22.15625 43.53125 
Q 18.109375 38.875 18.109375 30.90625 
L 18.109375 0 
L 9.078125 0 
L 9.078125 54.6875 
L 18.109375 54.6875 
L 18.109375 46.1875 
Q 21.1875 51.21875 25.484375 53.609375 
Q 29.78125 56 35.6875 56 
Q 41.65625 56 45.828125 52.96875 
Q 50 49.953125 52 44.1875 
z
" id="DejaVuSans-109"/>
       <path d="M 45.40625 46.390625 
L 45.40625 75.984375 
L 54.390625 75.984375 
L 54.390625 0 
L 45.40625 0 
L 45.40625 8.203125 
Q 42.578125 3.328125 38.25 0.953125 
Q 33.9375 -1.421875 27.875 -1.421875 
Q 17.96875 -1.421875 11.734375 6.484375 
Q 5.515625 14.40625 5.515625 27.296875 
Q 5.515625 40.1875 11.734375 48.09375 
Q 17.96875 56 27.875 56 
Q 33.9375 56 38.25 53.625 
Q 42.578125 51.265625 45.40625 46.390625 
z
M 14.796875 27.296875 
Q 14.796875 17.390625 18.875 11.75 
Q 22.953125 6.109375 30.078125 6.109375 
Q 37.203125 6.109375 41.296875 11.75 
Q 45.40625 17.390625 45.40625 27.296875 
Q 45.40625 37.203125 41.296875 42.84375 
Q 37.203125 48.484375 30.078125 48.484375 
Q 22.953125 48.484375 18.875 42.84375 
Q 14.796875 37.203125 14.796875 27.296875 
z
" id="DejaVuSans-100"/>
      </defs>
      <use xlink:href="#DejaVuSans-109"/>
      <use x="97.412109" xlink:href="#DejaVuSans-111"/>
      <use x="158.59375" xlink:href="#DejaVuSans-100"/>
      <use x="222.070312" xlink:href="#DejaVuSans-101"/>
      <use x="283.59375" xlink:href="#DejaVuSans-108"/>
     </g>
    </g>
   </g>
  </g>
 </g>
 <defs>
  <clipPath id="p989a40972c">
   <rect height="349.92" width="501.12" x="46.08" y="51.84"/>
  </clipPath>
 </defs>
</svg>
