<?xml version="1.0" encoding="utf-8" standalone="no"?>
<!DOCTYPE svg PUBLIC "-//W3C//DTD SVG 1.1//EN"
  "http://www.w3.org/Graphics/SVG/1.1/DTD/svg11.dtd">
<!-- Created with matplotlib (https://matplotlib.org/) -->
<svg height="432pt" version="1.1" viewBox="0 0 576 432" width="576pt" xmlns="http://www.w3.org/2000/svg" xmlns:xlink="http://www.w3.org/1999/xlink">
 <metadata>
  <rdf:RDF xmlns:cc="http://creativecommons.org/ns#" xmlns:dc="http://purl.org/dc/elements/1.1/" xmlns:rdf="http://www.w3.org/1999/02/22-rdf-syntax-ns#">
   <cc:Work>
    <dc:type rdf:resource="http://purl.org/dc/dcmitype/StillImage"/>
    <dc:date>2020-09-26T16:12:22.085119</dc:date>
    <dc:format>image/svg+xml</dc:format>
    <dc:creator>
     <cc:Agent>
      <dc:title>Matplotlib v3.3.0, https://matplotlib.org/</dc:title>
     </cc:Agent>
    </dc:creator>
   </cc:Work>
  </rdf:RDF>
 </metadata>
 <defs>
  <style type="text/css">*{stroke-linecap:butt;stroke-linejoin:round;}</style>
 </defs>
 <g id="figure_1">
  <g id="patch_1">
   <path d="M 0 432 
L 576 432 
L 576 0 
L 0 0 
z
" style="fill:#ffffff;"/>
  </g>
  <g id="axes_1">
   <g id="patch_2">
    <path d="M 72 384.48 
L 518.4 384.48 
L 518.4 51.84 
L 72 51.84 
z
" style="fill:#ffffff;"/>
   </g>
   <g id="matplotlib.axis_1">
    <g id="xtick_1">
     <g id="line2d_1">
      <defs>
       <path d="M 0 0 
L 0 3.5 
" id="m7093cd9fcc" style="stroke:#000000;stroke-width:0.8;"/>
      </defs>
      <g>
       <use style="stroke:#000000;stroke-width:0.8;" x="92.290909" xlink:href="#m7093cd9fcc" y="384.48"/>
      </g>
     </g>
     <g id="text_1">
      <!-- 0.0 -->
      <g transform="translate(79.568409 403.6375)scale(0.16 -0.16)">
       <defs>
        <path d="M 31.78125 66.40625 
Q 24.171875 66.40625 20.328125 58.90625 
Q 16.5 51.421875 16.5 36.375 
Q 16.5 21.390625 20.328125 13.890625 
Q 24.171875 6.390625 31.78125 6.390625 
Q 39.453125 6.390625 43.28125 13.890625 
Q 47.125 21.390625 47.125 36.375 
Q 47.125 51.421875 43.28125 58.90625 
Q 39.453125 66.40625 31.78125 66.40625 
z
M 31.78125 74.21875 
Q 44.046875 74.21875 50.515625 64.515625 
Q 56.984375 54.828125 56.984375 36.375 
Q 56.984375 17.96875 50.515625 8.265625 
Q 44.046875 -1.421875 31.78125 -1.421875 
Q 19.53125 -1.421875 13.0625 8.265625 
Q 6.59375 17.96875 6.59375 36.375 
Q 6.59375 54.828125 13.0625 64.515625 
Q 19.53125 74.21875 31.78125 74.21875 
z
" id="DejaVuSans-48"/>
        <path d="M 10.6875 12.40625 
L 21 12.40625 
L 21 0 
L 10.6875 0 
z
" id="DejaVuSans-46"/>
       </defs>
       <use xlink:href="#DejaVuSans-48"/>
       <use x="63.623047" xlink:href="#DejaVuSans-46"/>
       <use x="95.410156" xlink:href="#DejaVuSans-48"/>
      </g>
     </g>
    </g>
    <g id="xtick_2">
     <g id="line2d_2">
      <g>
       <use style="stroke:#000000;stroke-width:0.8;" x="173.454545" xlink:href="#m7093cd9fcc" y="384.48"/>
      </g>
     </g>
     <g id="text_2">
      <!-- 0.2 -->
      <g transform="translate(160.732045 403.6375)scale(0.16 -0.16)">
       <defs>
        <path d="M 19.1875 8.296875 
L 53.609375 8.296875 
L 53.609375 0 
L 7.328125 0 
L 7.328125 8.296875 
Q 12.9375 14.109375 22.625 23.890625 
Q 32.328125 33.6875 34.8125 36.53125 
Q 39.546875 41.84375 41.421875 45.53125 
Q 43.3125 49.21875 43.3125 52.78125 
Q 43.3125 58.59375 39.234375 62.25 
Q 35.15625 65.921875 28.609375 65.921875 
Q 23.96875 65.921875 18.8125 64.3125 
Q 13.671875 62.703125 7.8125 59.421875 
L 7.8125 69.390625 
Q 13.765625 71.78125 18.9375 73 
Q 24.125 74.21875 28.421875 74.21875 
Q 39.75 74.21875 46.484375 68.546875 
Q 53.21875 62.890625 53.21875 53.421875 
Q 53.21875 48.921875 51.53125 44.890625 
Q 49.859375 40.875 45.40625 35.40625 
Q 44.1875 33.984375 37.640625 27.21875 
Q 31.109375 20.453125 19.1875 8.296875 
z
" id="DejaVuSans-50"/>
       </defs>
       <use xlink:href="#DejaVuSans-48"/>
       <use x="63.623047" xlink:href="#DejaVuSans-46"/>
       <use x="95.410156" xlink:href="#DejaVuSans-50"/>
      </g>
     </g>
    </g>
    <g id="xtick_3">
     <g id="line2d_3">
      <g>
       <use style="stroke:#000000;stroke-width:0.8;" x="254.618182" xlink:href="#m7093cd9fcc" y="384.48"/>
      </g>
     </g>
     <g id="text_3">
      <!-- 0.4 -->
      <g transform="translate(241.895682 403.6375)scale(0.16 -0.16)">
       <defs>
        <path d="M 37.796875 64.3125 
L 12.890625 25.390625 
L 37.796875 25.390625 
z
M 35.203125 72.90625 
L 47.609375 72.90625 
L 47.609375 25.390625 
L 58.015625 25.390625 
L 58.015625 17.1875 
L 47.609375 17.1875 
L 47.609375 0 
L 37.796875 0 
L 37.796875 17.1875 
L 4.890625 17.1875 
L 4.890625 26.703125 
z
" id="DejaVuSans-52"/>
       </defs>
       <use xlink:href="#DejaVuSans-48"/>
       <use x="63.623047" xlink:href="#DejaVuSans-46"/>
       <use x="95.410156" xlink:href="#DejaVuSans-52"/>
      </g>
     </g>
    </g>
    <g id="xtick_4">
     <g id="line2d_4">
      <g>
       <use style="stroke:#000000;stroke-width:0.8;" x="335.781818" xlink:href="#m7093cd9fcc" y="384.48"/>
      </g>
     </g>
     <g id="text_4">
      <!-- 0.6 -->
      <g transform="translate(323.059318 403.6375)scale(0.16 -0.16)">
       <defs>
        <path d="M 33.015625 40.375 
Q 26.375 40.375 22.484375 35.828125 
Q 18.609375 31.296875 18.609375 23.390625 
Q 18.609375 15.53125 22.484375 10.953125 
Q 26.375 6.390625 33.015625 6.390625 
Q 39.65625 6.390625 43.53125 10.953125 
Q 47.40625 15.53125 47.40625 23.390625 
Q 47.40625 31.296875 43.53125 35.828125 
Q 39.65625 40.375 33.015625 40.375 
z
M 52.59375 71.296875 
L 52.59375 62.3125 
Q 48.875 64.0625 45.09375 64.984375 
Q 41.3125 65.921875 37.59375 65.921875 
Q 27.828125 65.921875 22.671875 59.328125 
Q 17.53125 52.734375 16.796875 39.40625 
Q 19.671875 43.65625 24.015625 45.921875 
Q 28.375 48.1875 33.59375 48.1875 
Q 44.578125 48.1875 50.953125 41.515625 
Q 57.328125 34.859375 57.328125 23.390625 
Q 57.328125 12.15625 50.6875 5.359375 
Q 44.046875 -1.421875 33.015625 -1.421875 
Q 20.359375 -1.421875 13.671875 8.265625 
Q 6.984375 17.96875 6.984375 36.375 
Q 6.984375 53.65625 15.1875 63.9375 
Q 23.390625 74.21875 37.203125 74.21875 
Q 40.921875 74.21875 44.703125 73.484375 
Q 48.484375 72.75 52.59375 71.296875 
z
" id="DejaVuSans-54"/>
       </defs>
       <use xlink:href="#DejaVuSans-48"/>
       <use x="63.623047" xlink:href="#DejaVuSans-46"/>
       <use x="95.410156" xlink:href="#DejaVuSans-54"/>
      </g>
     </g>
    </g>
    <g id="xtick_5">
     <g id="line2d_5">
      <g>
       <use style="stroke:#000000;stroke-width:0.8;" x="416.945455" xlink:href="#m7093cd9fcc" y="384.48"/>
      </g>
     </g>
     <g id="text_5">
      <!-- 0.8 -->
      <g transform="translate(404.222955 403.6375)scale(0.16 -0.16)">
       <defs>
        <path d="M 31.78125 34.625 
Q 24.75 34.625 20.71875 30.859375 
Q 16.703125 27.09375 16.703125 20.515625 
Q 16.703125 13.921875 20.71875 10.15625 
Q 24.75 6.390625 31.78125 6.390625 
Q 38.8125 6.390625 42.859375 10.171875 
Q 46.921875 13.96875 46.921875 20.515625 
Q 46.921875 27.09375 42.890625 30.859375 
Q 38.875 34.625 31.78125 34.625 
z
M 21.921875 38.8125 
Q 15.578125 40.375 12.03125 44.71875 
Q 8.5 49.078125 8.5 55.328125 
Q 8.5 64.0625 14.71875 69.140625 
Q 20.953125 74.21875 31.78125 74.21875 
Q 42.671875 74.21875 48.875 69.140625 
Q 55.078125 64.0625 55.078125 55.328125 
Q 55.078125 49.078125 51.53125 44.71875 
Q 48 40.375 41.703125 38.8125 
Q 48.828125 37.15625 52.796875 32.3125 
Q 56.78125 27.484375 56.78125 20.515625 
Q 56.78125 9.90625 50.3125 4.234375 
Q 43.84375 -1.421875 31.78125 -1.421875 
Q 19.734375 -1.421875 13.25 4.234375 
Q 6.78125 9.90625 6.78125 20.515625 
Q 6.78125 27.484375 10.78125 32.3125 
Q 14.796875 37.15625 21.921875 38.8125 
z
M 18.3125 54.390625 
Q 18.3125 48.734375 21.84375 45.5625 
Q 25.390625 42.390625 31.78125 42.390625 
Q 38.140625 42.390625 41.71875 45.5625 
Q 45.3125 48.734375 45.3125 54.390625 
Q 45.3125 60.0625 41.71875 63.234375 
Q 38.140625 66.40625 31.78125 66.40625 
Q 25.390625 66.40625 21.84375 63.234375 
Q 18.3125 60.0625 18.3125 54.390625 
z
" id="DejaVuSans-56"/>
       </defs>
       <use xlink:href="#DejaVuSans-48"/>
       <use x="63.623047" xlink:href="#DejaVuSans-46"/>
       <use x="95.410156" xlink:href="#DejaVuSans-56"/>
      </g>
     </g>
    </g>
    <g id="xtick_6">
     <g id="line2d_6">
      <g>
       <use style="stroke:#000000;stroke-width:0.8;" x="498.109091" xlink:href="#m7093cd9fcc" y="384.48"/>
      </g>
     </g>
     <g id="text_6">
      <!-- 1.0 -->
      <g transform="translate(485.386591 403.6375)scale(0.16 -0.16)">
       <defs>
        <path d="M 12.40625 8.296875 
L 28.515625 8.296875 
L 28.515625 63.921875 
L 10.984375 60.40625 
L 10.984375 69.390625 
L 28.421875 72.90625 
L 38.28125 72.90625 
L 38.28125 8.296875 
L 54.390625 8.296875 
L 54.390625 0 
L 12.40625 0 
z
" id="DejaVuSans-49"/>
       </defs>
       <use xlink:href="#DejaVuSans-49"/>
       <use x="63.623047" xlink:href="#DejaVuSans-46"/>
       <use x="95.410156" xlink:href="#DejaVuSans-48"/>
      </g>
     </g>
    </g>
    <g id="text_7">
     <!-- False Positive Rate -->
     <g transform="translate(220.85375 423.1225)scale(0.16 -0.16)">
      <defs>
       <path d="M 9.8125 72.90625 
L 51.703125 72.90625 
L 51.703125 64.59375 
L 19.671875 64.59375 
L 19.671875 43.109375 
L 48.578125 43.109375 
L 48.578125 34.8125 
L 19.671875 34.8125 
L 19.671875 0 
L 9.8125 0 
z
" id="DejaVuSans-70"/>
       <path d="M 34.28125 27.484375 
Q 23.390625 27.484375 19.1875 25 
Q 14.984375 22.515625 14.984375 16.5 
Q 14.984375 11.71875 18.140625 8.90625 
Q 21.296875 6.109375 26.703125 6.109375 
Q 34.1875 6.109375 38.703125 11.40625 
Q 43.21875 16.703125 43.21875 25.484375 
L 43.21875 27.484375 
z
M 52.203125 31.203125 
L 52.203125 0 
L 43.21875 0 
L 43.21875 8.296875 
Q 40.140625 3.328125 35.546875 0.953125 
Q 30.953125 -1.421875 24.3125 -1.421875 
Q 15.921875 -1.421875 10.953125 3.296875 
Q 6 8.015625 6 15.921875 
Q 6 25.140625 12.171875 29.828125 
Q 18.359375 34.515625 30.609375 34.515625 
L 43.21875 34.515625 
L 43.21875 35.40625 
Q 43.21875 41.609375 39.140625 45 
Q 35.0625 48.390625 27.6875 48.390625 
Q 23 48.390625 18.546875 47.265625 
Q 14.109375 46.140625 10.015625 43.890625 
L 10.015625 52.203125 
Q 14.9375 54.109375 19.578125 55.046875 
Q 24.21875 56 28.609375 56 
Q 40.484375 56 46.34375 49.84375 
Q 52.203125 43.703125 52.203125 31.203125 
z
" id="DejaVuSans-97"/>
       <path d="M 9.421875 75.984375 
L 18.40625 75.984375 
L 18.40625 0 
L 9.421875 0 
z
" id="DejaVuSans-108"/>
       <path d="M 44.28125 53.078125 
L 44.28125 44.578125 
Q 40.484375 46.53125 36.375 47.5 
Q 32.28125 48.484375 27.875 48.484375 
Q 21.1875 48.484375 17.84375 46.4375 
Q 14.5 44.390625 14.5 40.28125 
Q 14.5 37.15625 16.890625 35.375 
Q 19.28125 33.59375 26.515625 31.984375 
L 29.59375 31.296875 
Q 39.15625 29.25 43.1875 25.515625 
Q 47.21875 21.78125 47.21875 15.09375 
Q 47.21875 7.46875 41.1875 3.015625 
Q 35.15625 -1.421875 24.609375 -1.421875 
Q 20.21875 -1.421875 15.453125 -0.5625 
Q 10.6875 0.296875 5.421875 2 
L 5.421875 11.28125 
Q 10.40625 8.6875 15.234375 7.390625 
Q 20.0625 6.109375 24.8125 6.109375 
Q 31.15625 6.109375 34.5625 8.28125 
Q 37.984375 10.453125 37.984375 14.40625 
Q 37.984375 18.0625 35.515625 20.015625 
Q 33.0625 21.96875 24.703125 23.78125 
L 21.578125 24.515625 
Q 13.234375 26.265625 9.515625 29.90625 
Q 5.8125 33.546875 5.8125 39.890625 
Q 5.8125 47.609375 11.28125 51.796875 
Q 16.75 56 26.8125 56 
Q 31.78125 56 36.171875 55.265625 
Q 40.578125 54.546875 44.28125 53.078125 
z
" id="DejaVuSans-115"/>
       <path d="M 56.203125 29.59375 
L 56.203125 25.203125 
L 14.890625 25.203125 
Q 15.484375 15.921875 20.484375 11.0625 
Q 25.484375 6.203125 34.421875 6.203125 
Q 39.59375 6.203125 44.453125 7.46875 
Q 49.3125 8.734375 54.109375 11.28125 
L 54.109375 2.78125 
Q 49.265625 0.734375 44.1875 -0.34375 
Q 39.109375 -1.421875 33.890625 -1.421875 
Q 20.796875 -1.421875 13.15625 6.1875 
Q 5.515625 13.8125 5.515625 26.8125 
Q 5.515625 40.234375 12.765625 48.109375 
Q 20.015625 56 32.328125 56 
Q 43.359375 56 49.78125 48.890625 
Q 56.203125 41.796875 56.203125 29.59375 
z
M 47.21875 32.234375 
Q 47.125 39.59375 43.09375 43.984375 
Q 39.0625 48.390625 32.421875 48.390625 
Q 24.90625 48.390625 20.390625 44.140625 
Q 15.875 39.890625 15.1875 32.171875 
z
" id="DejaVuSans-101"/>
       <path id="DejaVuSans-32"/>
       <path d="M 19.671875 64.796875 
L 19.671875 37.40625 
L 32.078125 37.40625 
Q 38.96875 37.40625 42.71875 40.96875 
Q 46.484375 44.53125 46.484375 51.125 
Q 46.484375 57.671875 42.71875 61.234375 
Q 38.96875 64.796875 32.078125 64.796875 
z
M 9.8125 72.90625 
L 32.078125 72.90625 
Q 44.34375 72.90625 50.609375 67.359375 
Q 56.890625 61.8125 56.890625 51.125 
Q 56.890625 40.328125 50.609375 34.8125 
Q 44.34375 29.296875 32.078125 29.296875 
L 19.671875 29.296875 
L 19.671875 0 
L 9.8125 0 
z
" id="DejaVuSans-80"/>
       <path d="M 30.609375 48.390625 
Q 23.390625 48.390625 19.1875 42.75 
Q 14.984375 37.109375 14.984375 27.296875 
Q 14.984375 17.484375 19.15625 11.84375 
Q 23.34375 6.203125 30.609375 6.203125 
Q 37.796875 6.203125 41.984375 11.859375 
Q 46.1875 17.53125 46.1875 27.296875 
Q 46.1875 37.015625 41.984375 42.703125 
Q 37.796875 48.390625 30.609375 48.390625 
z
M 30.609375 56 
Q 42.328125 56 49.015625 48.375 
Q 55.71875 40.765625 55.71875 27.296875 
Q 55.71875 13.875 49.015625 6.21875 
Q 42.328125 -1.421875 30.609375 -1.421875 
Q 18.84375 -1.421875 12.171875 6.21875 
Q 5.515625 13.875 5.515625 27.296875 
Q 5.515625 40.765625 12.171875 48.375 
Q 18.84375 56 30.609375 56 
z
" id="DejaVuSans-111"/>
       <path d="M 9.421875 54.6875 
L 18.40625 54.6875 
L 18.40625 0 
L 9.421875 0 
z
M 9.421875 75.984375 
L 18.40625 75.984375 
L 18.40625 64.59375 
L 9.421875 64.59375 
z
" id="DejaVuSans-105"/>
       <path d="M 18.3125 70.21875 
L 18.3125 54.6875 
L 36.8125 54.6875 
L 36.8125 47.703125 
L 18.3125 47.703125 
L 18.3125 18.015625 
Q 18.3125 11.328125 20.140625 9.421875 
Q 21.96875 7.515625 27.59375 7.515625 
L 36.8125 7.515625 
L 36.8125 0 
L 27.59375 0 
Q 17.1875 0 13.234375 3.875 
Q 9.28125 7.765625 9.28125 18.015625 
L 9.28125 47.703125 
L 2.6875 47.703125 
L 2.6875 54.6875 
L 9.28125 54.6875 
L 9.28125 70.21875 
z
" id="DejaVuSans-116"/>
       <path d="M 2.984375 54.6875 
L 12.5 54.6875 
L 29.59375 8.796875 
L 46.6875 54.6875 
L 56.203125 54.6875 
L 35.6875 0 
L 23.484375 0 
z
" id="DejaVuSans-118"/>
       <path d="M 44.390625 34.1875 
Q 47.5625 33.109375 50.5625 29.59375 
Q 53.5625 26.078125 56.59375 19.921875 
L 66.609375 0 
L 56 0 
L 46.6875 18.703125 
Q 43.0625 26.03125 39.671875 28.421875 
Q 36.28125 30.8125 30.421875 30.8125 
L 19.671875 30.8125 
L 19.671875 0 
L 9.8125 0 
L 9.8125 72.90625 
L 32.078125 72.90625 
Q 44.578125 72.90625 50.734375 67.671875 
Q 56.890625 62.453125 56.890625 51.90625 
Q 56.890625 45.015625 53.6875 40.46875 
Q 50.484375 35.9375 44.390625 34.1875 
z
M 19.671875 64.796875 
L 19.671875 38.921875 
L 32.078125 38.921875 
Q 39.203125 38.921875 42.84375 42.21875 
Q 46.484375 45.515625 46.484375 51.90625 
Q 46.484375 58.296875 42.84375 61.546875 
Q 39.203125 64.796875 32.078125 64.796875 
z
" id="DejaVuSans-82"/>
      </defs>
      <use xlink:href="#DejaVuSans-70"/>
      <use x="48.394531" xlink:href="#DejaVuSans-97"/>
      <use x="109.673828" xlink:href="#DejaVuSans-108"/>
      <use x="137.457031" xlink:href="#DejaVuSans-115"/>
      <use x="189.556641" xlink:href="#DejaVuSans-101"/>
      <use x="251.080078" xlink:href="#DejaVuSans-32"/>
      <use x="282.867188" xlink:href="#DejaVuSans-80"/>
      <use x="339.544922" xlink:href="#DejaVuSans-111"/>
      <use x="400.726562" xlink:href="#DejaVuSans-115"/>
      <use x="452.826172" xlink:href="#DejaVuSans-105"/>
      <use x="480.609375" xlink:href="#DejaVuSans-116"/>
      <use x="519.818359" xlink:href="#DejaVuSans-105"/>
      <use x="547.601562" xlink:href="#DejaVuSans-118"/>
      <use x="606.78125" xlink:href="#DejaVuSans-101"/>
      <use x="668.304688" xlink:href="#DejaVuSans-32"/>
      <use x="700.091797" xlink:href="#DejaVuSans-82"/>
      <use x="767.324219" xlink:href="#DejaVuSans-97"/>
      <use x="828.603516" xlink:href="#DejaVuSans-116"/>
      <use x="867.8125" xlink:href="#DejaVuSans-101"/>
     </g>
    </g>
   </g>
   <g id="matplotlib.axis_2">
    <g id="ytick_1">
     <g id="line2d_7">
      <defs>
       <path d="M 0 0 
L -3.5 0 
" id="mce249198fc" style="stroke:#000000;stroke-width:0.8;"/>
      </defs>
      <g>
       <use style="stroke:#000000;stroke-width:0.8;" x="72" xlink:href="#mce249198fc" y="369.36"/>
      </g>
     </g>
     <g id="text_8">
      <!-- 0.0 -->
      <g transform="translate(39.555 375.43875)scale(0.16 -0.16)">
       <use xlink:href="#DejaVuSans-48"/>
       <use x="63.623047" xlink:href="#DejaVuSans-46"/>
       <use x="95.410156" xlink:href="#DejaVuSans-48"/>
      </g>
     </g>
    </g>
    <g id="ytick_2">
     <g id="line2d_8">
      <g>
       <use style="stroke:#000000;stroke-width:0.8;" x="72" xlink:href="#mce249198fc" y="308.88"/>
      </g>
     </g>
     <g id="text_9">
      <!-- 0.2 -->
      <g transform="translate(39.555 314.95875)scale(0.16 -0.16)">
       <use xlink:href="#DejaVuSans-48"/>
       <use x="63.623047" xlink:href="#DejaVuSans-46"/>
       <use x="95.410156" xlink:href="#DejaVuSans-50"/>
      </g>
     </g>
    </g>
    <g id="ytick_3">
     <g id="line2d_9">
      <g>
       <use style="stroke:#000000;stroke-width:0.8;" x="72" xlink:href="#mce249198fc" y="248.4"/>
      </g>
     </g>
     <g id="text_10">
      <!-- 0.4 -->
      <g transform="translate(39.555 254.47875)scale(0.16 -0.16)">
       <use xlink:href="#DejaVuSans-48"/>
       <use x="63.623047" xlink:href="#DejaVuSans-46"/>
       <use x="95.410156" xlink:href="#DejaVuSans-52"/>
      </g>
     </g>
    </g>
    <g id="ytick_4">
     <g id="line2d_10">
      <g>
       <use style="stroke:#000000;stroke-width:0.8;" x="72" xlink:href="#mce249198fc" y="187.92"/>
      </g>
     </g>
     <g id="text_11">
      <!-- 0.6 -->
      <g transform="translate(39.555 193.99875)scale(0.16 -0.16)">
       <use xlink:href="#DejaVuSans-48"/>
       <use x="63.623047" xlink:href="#DejaVuSans-46"/>
       <use x="95.410156" xlink:href="#DejaVuSans-54"/>
      </g>
     </g>
    </g>
    <g id="ytick_5">
     <g id="line2d_11">
      <g>
       <use style="stroke:#000000;stroke-width:0.8;" x="72" xlink:href="#mce249198fc" y="127.44"/>
      </g>
     </g>
     <g id="text_12">
      <!-- 0.8 -->
      <g transform="translate(39.555 133.51875)scale(0.16 -0.16)">
       <use xlink:href="#DejaVuSans-48"/>
       <use x="63.623047" xlink:href="#DejaVuSans-46"/>
       <use x="95.410156" xlink:href="#DejaVuSans-56"/>
      </g>
     </g>
    </g>
    <g id="ytick_6">
     <g id="line2d_12">
      <g>
       <use style="stroke:#000000;stroke-width:0.8;" x="72" xlink:href="#mce249198fc" y="66.96"/>
      </g>
     </g>
     <g id="text_13">
      <!-- 1.0 -->
      <g transform="translate(39.555 73.03875)scale(0.16 -0.16)">
       <use xlink:href="#DejaVuSans-49"/>
       <use x="63.623047" xlink:href="#DejaVuSans-46"/>
       <use x="95.410156" xlink:href="#DejaVuSans-48"/>
      </g>
     </g>
    </g>
    <g id="text_14">
     <!-- True Positive Rate -->
     <g transform="translate(32.2275 289.4075)rotate(-90)scale(0.16 -0.16)">
      <defs>
       <path d="M -0.296875 72.90625 
L 61.375 72.90625 
L 61.375 64.59375 
L 35.5 64.59375 
L 35.5 0 
L 25.59375 0 
L 25.59375 64.59375 
L -0.296875 64.59375 
z
" id="DejaVuSans-84"/>
       <path d="M 41.109375 46.296875 
Q 39.59375 47.171875 37.8125 47.578125 
Q 36.03125 48 33.890625 48 
Q 26.265625 48 22.1875 43.046875 
Q 18.109375 38.09375 18.109375 28.8125 
L 18.109375 0 
L 9.078125 0 
L 9.078125 54.6875 
L 18.109375 54.6875 
L 18.109375 46.1875 
Q 20.953125 51.171875 25.484375 53.578125 
Q 30.03125 56 36.53125 56 
Q 37.453125 56 38.578125 55.875 
Q 39.703125 55.765625 41.0625 55.515625 
z
" id="DejaVuSans-114"/>
       <path d="M 8.5 21.578125 
L 8.5 54.6875 
L 17.484375 54.6875 
L 17.484375 21.921875 
Q 17.484375 14.15625 20.5 10.265625 
Q 23.53125 6.390625 29.59375 6.390625 
Q 36.859375 6.390625 41.078125 11.03125 
Q 45.3125 15.671875 45.3125 23.6875 
L 45.3125 54.6875 
L 54.296875 54.6875 
L 54.296875 0 
L 45.3125 0 
L 45.3125 8.40625 
Q 42.046875 3.421875 37.71875 1 
Q 33.40625 -1.421875 27.6875 -1.421875 
Q 18.265625 -1.421875 13.375 4.4375 
Q 8.5 10.296875 8.5 21.578125 
z
M 31.109375 56 
z
" id="DejaVuSans-117"/>
      </defs>
      <use xlink:href="#DejaVuSans-84"/>
      <use x="46.333984" xlink:href="#DejaVuSans-114"/>
      <use x="87.447266" xlink:href="#DejaVuSans-117"/>
      <use x="150.826172" xlink:href="#DejaVuSans-101"/>
      <use x="212.349609" xlink:href="#DejaVuSans-32"/>
      <use x="244.136719" xlink:href="#DejaVuSans-80"/>
      <use x="300.814453" xlink:href="#DejaVuSans-111"/>
      <use x="361.996094" xlink:href="#DejaVuSans-115"/>
      <use x="414.095703" xlink:href="#DejaVuSans-105"/>
      <use x="441.878906" xlink:href="#DejaVuSans-116"/>
      <use x="481.087891" xlink:href="#DejaVuSans-105"/>
      <use x="508.871094" xlink:href="#DejaVuSans-118"/>
      <use x="568.050781" xlink:href="#DejaVuSans-101"/>
      <use x="629.574219" xlink:href="#DejaVuSans-32"/>
      <use x="661.361328" xlink:href="#DejaVuSans-82"/>
      <use x="728.59375" xlink:href="#DejaVuSans-97"/>
      <use x="789.873047" xlink:href="#DejaVuSans-116"/>
      <use x="829.082031" xlink:href="#DejaVuSans-101"/>
     </g>
    </g>
   </g>
   <g id="line2d_13">
    <path clip-path="url(#p63e9e7c949)" d="M 92.290909 369.36 
L 498.109091 66.96 
" style="fill:none;stroke:#0000ff;stroke-linecap:square;stroke-width:1.5;"/>
   </g>
   <g id="line2d_14">
    <path clip-path="url(#p63e9e7c949)" d="M 92.290909 369.36 
L 92.294364 369.254839 
L 92.404933 366.057955 
L 92.410691 365.952795 
L 92.520492 363.187069 
L 92.523947 363.081908 
L 92.633748 360.526504 
L 92.639507 360.421344 
L 92.750459 357.739747 
L 92.757753 357.645102 
L 92.868706 355.089698 
L 92.872929 354.995054 
L 92.983113 352.082103 
L 92.98772 352.008491 
L 92.98772 351.976943 
L 93.584329 332.616865 
L 93.694897 328.936241 
L 93.699504 328.852113 
L 93.810456 324.856008 
L 93.813528 324.803427 
L 93.92448 319.966037 
L 93.927167 319.881908 
L 94.03812 315.780643 
L 94.044646 315.675482 
L 94.155599 311.426991 
L 94.159054 311.321831 
L 94.269622 306.863019 
L 94.273845 306.768374 
L 94.384798 302.782785 
L 94.389021 302.68814 
L 94.499973 297.430107 
L 94.50266 297.335463 
L 94.613613 292.803038 
L 94.6163 292.697877 
L 94.726869 287.902551 
L 94.730324 287.807907 
L 94.841276 283.927478 
L 94.845499 283.864382 
L 94.956452 279.910341 
L 94.958755 279.815696 
L 95.069707 275.756495 
L 95.073547 275.682882 
L 95.073547 275.66185 
L 95.184499 271.539552 
L 95.188338 271.46594 
L 95.29929 267.532931 
L 95.303129 267.438286 
L 95.414082 263.315988 
L 95.419457 263.210828 
L 95.530409 259.824654 
L 95.535784 259.73001 
L 95.646352 255.565648 
L 95.648656 255.513067 
L 95.757304 251.653671 
L 95.758072 251.653671 
L 95.761527 251.54851 
L 95.872096 248.63556 
L 95.875935 248.572463 
L 95.875935 248.540915 
L 95.986887 244.944421 
L 95.993414 244.860292 
L 96.102063 241.137605 
L 96.103982 241.137605 
L 96.111277 241.032444 
L 96.221845 238.066913 
L 96.226452 237.961753 
L 96.336253 234.901577 
L 96.33894 234.827965 
L 96.449508 232.11482 
L 96.455267 232.020175 
L 96.56622 228.497293 
L 96.571978 228.392132 
L 96.682547 225.479182 
L 96.685234 225.395054 
L 96.685234 225.384537 
L 96.795419 222.986874 
L 96.801945 222.881714 
L 96.912514 219.947731 
L 96.912897 219.947731 
L 97.451918 208.211801 
L 97.458829 208.106641 
L 97.569781 205.351431 
L 97.572852 205.267303 
L 97.683805 202.491061 
L 97.691099 202.385901 
L 97.802051 200.30372 
L 97.803587 200.282687 
L 97.803587 200.198559 
L 97.914156 197.969153 
L 97.921066 197.885024 
L 98.031251 195.666134 
L 98.036625 195.57149 
L 98.147194 193.478793 
L 98.147578 193.478793 
L 98.154488 193.384148 
L 98.265057 190.902356 
L 98.280029 190.828744 
L 98.38983 188.704499 
L 98.395973 188.609854 
L 98.395973 188.599338 
L 98.506541 186.475093 
L 98.509996 186.411996 
L 98.509996 186.369932 
L 98.620181 184.098462 
L 98.631698 183.993301 
L 98.739963 182.342278 
L 98.753016 182.25815 
L 98.753016 182.237118 
L 98.860513 179.944615 
L 98.862817 179.944615 
L 98.870111 179.839455 
L 98.979528 177.82037 
L 98.986054 177.715209 
L 99.095471 176.053671 
L 99.101614 175.94851 
L 99.209879 173.740136 
L 99.22178 173.634976 
L 99.330813 171.678987 
L 99.331581 171.678987 
L 99.338107 171.573827 
L 99.448676 169.512678 
L 99.452515 169.407517 
L 99.563467 168.376943 
L 99.568842 168.271782 
L 99.67941 166.389406 
L 99.68824 166.284245 
L 99.797657 164.685803 
L 99.798809 164.685803 
L 99.807639 164.580643 
L 99.916288 163.339747 
L 99.917439 163.339747 
L 99.923966 163.234586 
L 100.034534 161.583564 
L 100.045668 161.478403 
L 100.156236 159.806349 
L 100.163147 159.701188 
L 100.273715 158.14481 
L 100.274099 158.14481 
L 100.28101 158.060682 
L 100.388891 156.683077 
L 100.398873 156.588432 
L 100.509441 155.263408 
L 100.522494 155.179279 
L 100.522494 155.158247 
L 100.633063 153.433612 
L 100.648035 153.328452 
L 100.758988 152.003427 
L 100.762443 151.898267 
L 100.86994 150.773048 
L 100.870324 150.773048 
L 100.881457 150.688919 
L 100.991258 149.363895 
L 101.004695 149.258734 
L 101.114496 148.112483 
L 101.115647 148.112483 
L 101.129468 148.007322 
L 101.237733 146.987264 
L 101.251554 146.892619 
L 101.361355 145.620175 
L 101.370185 145.525531 
L 101.481137 144.473924 
L 101.499949 144.368763 
L 101.610134 143.211996 
L 101.623955 143.106835 
L 101.734907 142.002648 
L 101.745273 141.897488 
L 101.855841 140.814333 
L 101.856225 140.814333 
L 101.864671 140.730204 
L 101.975624 139.573437 
L 101.988677 139.478793 
L 102.098861 138.36409 
L 102.116905 138.279961 
L 102.227858 137.13371 
L 102.235152 137.028549 
L 102.346105 135.745589 
L 102.359542 135.640428 
L 102.470494 134.588822 
L 102.48086 134.483661 
L 102.59066 133.68444 
L 102.600258 133.589796 
L 102.710827 132.653866 
L 102.723496 132.548705 
L 102.834064 131.51813 
L 102.845582 131.41297 
L 102.954998 130.697877 
L 102.968052 130.603233 
L 103.077468 129.730399 
L 103.078236 129.730399 
L 103.091289 129.625239 
L 103.201858 129.130983 
L 103.231419 129.025823 
L 103.341604 128.058345 
L 103.375005 127.953184 
L 103.485573 127.238092 
L 103.496707 127.132931 
L 103.605739 126.470419 
L 103.606891 126.470419 
L 103.62148 126.365258 
L 103.732048 125.587069 
L 103.755467 125.481908 
L 103.865652 124.714236 
L 103.884848 124.609075 
L 103.989657 124.177916 
L 103.995032 124.177916 
L 104.018067 124.083272 
L 104.128252 123.599533 
L 104.134394 123.494372 
L 104.245347 122.716183 
L 104.277596 122.611022 
L 104.385861 121.927478 
L 104.388548 121.927478 
L 104.403521 121.822317 
L 104.511402 121.285998 
L 104.514473 121.285998 
L 104.550561 121.180837 
L 104.661514 120.791743 
L 104.683013 120.686582 
L 104.793198 120.003038 
L 104.806635 119.897877 
L 104.915667 119.077624 
L 104.938319 118.972463 
L 105.048887 118.299435 
L 105.073458 118.194275 
L 105.18249 117.668471 
L 105.182874 117.668471 
L 105.197847 117.573827 
L 105.308799 116.963895 
L 105.336058 116.86925 
L 105.446242 116.322415 
L 105.458911 116.22777 
L 105.569096 115.649387 
L 105.609407 115.544226 
L 105.719208 115.018423 
L 105.741859 114.913262 
L 105.846669 114.503135 
L 105.850124 114.503135 
L 105.873543 114.408491 
L 105.984495 113.767011 
L 106.00945 113.66185 
L 106.120402 113.230691 
L 106.171079 113.125531 
L 106.281264 112.7785 
L 106.314665 112.67334 
L 106.422929 112.242181 
L 106.455179 112.147537 
L 106.56114 111.716378 
L 106.565747 111.716378 
L 106.579184 111.642765 
L 106.579184 111.632249 
L 106.690136 111.116962 
L 106.720082 111.011801 
L 106.827963 110.559611 
L 106.829115 110.559611 
L 106.863283 110.45445 
L 106.9727 110.138968 
L 106.989976 110.033807 
L 107.099777 109.434391 
L 107.120892 109.329231 
L 107.228389 108.845492 
L 107.231461 108.845492 
L 107.26179 108.740331 
L 107.366984 108.256592 
L 107.430714 108.151431 
L 107.533988 107.783369 
L 107.53514 107.783369 
L 107.571996 107.678208 
L 107.682948 107.268082 
L 107.70368 107.183953 
L 107.812329 106.815891 
L 107.847265 106.71073 
L 107.954378 106.321636 
L 107.958217 106.321636 
L 108.016573 106.216475 
L 108.126757 105.922025 
L 108.157855 105.816865 
L 108.268423 105.37519 
L 108.292994 105.270029 
L 108.400875 104.933515 
L 108.440802 104.828354 
L 108.551755 104.376164 
L 108.568263 104.271003 
L 108.678831 103.976553 
L 108.720295 103.871392 
L 108.818194 103.492814 
L 108.828943 103.492814 
L 108.889986 103.387653 
L 108.99518 102.945979 
L 108.999019 102.945979 
L 109.034723 102.840818 
L 109.143372 102.504304 
L 109.191746 102.399143 
L 109.295404 102.052113 
L 109.302314 102.052113 
L 109.31268 101.946952 
L 109.41749 101.599922 
L 109.423632 101.599922 
L 109.44398 101.494761 
L 109.551861 101.158247 
L 109.577199 101.053087 
L 109.687384 100.737605 
L 109.705044 100.632444 
L 109.815996 100.253866 
L 109.891628 100.159221 
L 110.000661 99.833223 
L 110.002197 99.833223 
L 110.057097 99.728062 
L 110.159987 99.423096 
L 110.167665 99.423096 
L 110.199914 99.317936 
L 110.309331 98.739552 
L 110.310483 98.739552 
L 110.337357 98.634391 
L 110.44255 98.434586 
L 110.485549 98.329426 
L 110.59343 98.02446 
L 110.596118 98.02446 
L 110.632974 97.919299 
L 110.739703 97.635365 
L 110.74239 97.635365 
L 110.789612 97.530204 
L 110.895574 97.225239 
L 110.898645 97.225239 
L 110.955465 97.120078 
L 111.060275 96.804596 
L 111.065649 96.804596 
L 111.10788 96.709951 
L 111.216913 96.489114 
L 111.244939 96.383953 
L 111.353204 95.984343 
L 111.355507 95.984343 
L 111.382766 95.879182 
L 111.492566 95.469056 
L 111.555145 95.363895 
L 111.66149 95.048413 
L 111.666097 95.048413 
L 111.691436 94.943252 
L 111.798549 94.753963 
L 111.800084 94.753963 
L 111.848074 94.648802 
L 111.953652 94.470029 
L 111.958259 94.470029 
L 112.038497 94.364869 
L 112.137164 94.070419 
L 112.145227 94.070419 
L 112.195904 93.965258 
L 112.300713 93.69184 
L 112.36214 93.58668 
L 112.466566 93.29223 
L 112.470021 93.29223 
L 112.515324 93.197585 
L 112.614758 93.092425 
L 112.621285 93.092425 
L 112.727246 92.987264 
L 112.834743 92.787459 
L 112.837815 92.787459 
L 112.893483 92.682298 
L 112.981016 92.545589 
L 113.004435 92.545589 
L 113.049353 92.450944 
L 113.150324 92.293204 
L 113.155699 92.293204 
L 113.200233 92.188043 
L 113.30965 91.935657 
L 113.385282 91.830497 
L 113.492395 91.588627 
L 113.635212 91.483466 
L 113.73887 91.36779 
L 113.745781 91.36779 
L 113.808743 91.262629 
L 113.910865 91.12592 
L 113.918928 91.12592 
L 114.001854 91.020759 
L 114.09553 90.77889 
L 114.112422 90.77889 
L 114.193045 90.673729 
L 114.300542 90.337215 
L 114.30323 90.337215 
L 114.383084 90.232055 
L 114.492885 90.063797 
L 114.550473 89.958637 
L 114.659122 89.758832 
L 114.661041 89.758832 
L 114.684076 89.653671 
L 114.786582 89.327673 
L 114.795028 89.327673 
L 114.84225 89.222512 
L 114.91174 89.117352 
L 114.950899 89.117352 
L 115.013478 89.012191 
L 115.107538 88.896514 
L 115.122894 88.896514 
L 115.27339 88.791353 
L 115.376664 88.549484 
L 115.380887 88.549484 
L 115.425806 88.444323 
L 115.532151 88.276066 
L 115.535606 88.276066 
L 115.610086 88.170906 
L 115.720655 87.9711 
L 115.741386 87.86594 
L 115.846964 87.613554 
L 115.848499 87.613554 
L 115.929506 87.508393 
L 116.027021 87.371685 
L 116.040074 87.371685 
L 116.103805 87.266524 
L 116.207079 87.108783 
L 116.212838 87.108783 
L 116.304978 87.003622 
L 116.403261 86.887945 
L 116.411707 86.887945 
L 116.491946 86.793301 
L 116.588309 86.593496 
L 116.598675 86.593496 
L 116.681985 86.488335 
L 116.786411 86.278014 
L 116.792938 86.278014 
L 116.872792 86.172853 
L 116.973379 86.025628 
L 116.979906 86.025628 
L 117.054386 85.920467 
L 117.146142 85.815307 
L 117.164954 85.815307 
L 117.297022 85.710146 
L 117.403751 85.573437 
L 117.406438 85.573437 
L 117.4909 85.468277 
L 117.597246 85.300019 
L 117.599933 85.300019 
L 117.680172 85.205375 
L 117.680172 85.194859 
L 117.789973 84.942473 
L 117.791124 84.942473 
L 117.844873 84.837313 
L 117.936629 84.648023 
L 117.955825 84.648023 
L 118.027234 84.542863 
L 118.127052 84.46925 
L 118.137034 84.46925 
L 118.208059 84.36409 
L 118.318628 84.216865 
L 118.418062 84.111704 
L 118.522104 83.996027 
L 118.528247 83.996027 
L 118.581611 83.890867 
L 118.689108 83.733126 
L 118.690644 83.733126 
L 118.760133 83.627965 
L 118.871086 83.438676 
L 118.969752 83.333515 
L 119.080705 83.18629 
L 119.198184 83.08113 
L 119.28111 82.933905 
L 119.3076 82.933905 
L 119.52221 82.828744 
L 119.62894 82.671003 
L 119.632395 82.671003 
L 119.7564 82.565842 
L 119.866585 82.481714 
L 119.98368 82.376553 
L 120.040116 82.292425 
L 120.089641 82.292425 
L 120.236682 82.187264 
L 120.32767 82.103135 
L 120.347634 82.103135 
L 120.475863 81.997975 
L 120.586047 81.798169 
L 120.586815 81.798169 
L 120.722338 81.693009 
L 120.825612 81.577332 
L 120.831755 81.577332 
L 121.033311 81.472171 
L 121.106256 81.409075 
L 121.144264 81.409075 
L 121.239859 81.303914 
L 121.342749 81.230302 
L 121.349276 81.230302 
L 121.650652 81.125141 
L 121.712846 81.072561 
L 121.758149 81.072561 
L 121.895207 80.9674 
L 121.961241 80.883272 
L 122.00424 80.883272 
L 122.163182 80.778111 
L 122.272599 80.67295 
L 122.27375 80.67295 
L 122.383551 80.56779 
L 122.468397 80.515209 
L 122.490664 80.515209 
L 122.620812 80.410049 
L 122.724086 80.315404 
L 122.730997 80.315404 
L 122.847324 80.210243 
L 122.953669 80.105083 
L 122.95674 80.105083 
L 123.048497 79.999922 
L 123.136414 79.873729 
L 123.15369 79.873729 
L 123.342962 79.789601 
L 123.435486 79.673924 
L 123.450075 79.673924 
L 123.579455 79.568763 
L 123.689256 79.453087 
L 123.820556 79.347926 
L 123.931124 79.169153 
L 124.029023 79.063992 
L 124.12769 78.99038 
L 124.45786 78.885219 
L 124.56766 78.790574 
L 124.672086 78.69593 
L 124.763458 78.622317 
L 124.781887 78.622317 
L 124.932382 78.538189 
L 125.040647 78.380448 
L 125.199589 78.275287 
L 125.27215 78.222707 
L 125.308238 78.222707 
L 125.423413 78.117546 
L 125.442993 78.085998 
L 125.526303 78.085998 
L 125.654148 77.980837 
L 125.754735 77.886193 
L 125.763565 77.886193 
L 125.928266 77.781032 
L 126.03845 77.675871 
L 126.160152 77.581227 
L 126.267265 77.455034 
L 126.269569 77.455034 
L 126.564418 77.349873 
L 126.641201 77.297293 
L 126.673066 77.297293 
L 126.792849 77.192132 
L 126.89881 77.11852 
L 126.899578 77.11852 
L 127.050458 77.013359 
L 127.139143 76.960779 
L 127.1545 76.960779 
L 127.333789 76.855618 
L 127.424778 76.803038 
L 127.441286 76.803038 
L 127.700047 76.697877 
L 127.810999 76.634781 
L 127.948442 76.52962 
L 128.017547 76.456008 
L 128.057475 76.456008 
L 128.325449 76.350847 
L 128.4245 76.287751 
L 128.436402 76.287751 
L 128.849497 76.18259 
L 128.957762 76.087945 
L 129.272575 75.982785 
L 129.366251 75.940721 
L 129.38084 75.940721 
L 129.792784 75.83556 
L 129.900665 75.793496 
L 130.210103 75.688335 
L 130.311841 75.614722 
L 130.3176 75.614722 
L 130.545263 75.509562 
L 130.65468 75.425433 
L 130.656215 75.425433 
L 130.98101 75.320273 
L 130.98101 75.309757 
L 131.076989 75.309757 
L 131.367999 75.204596 
L 131.459756 75.162532 
L 131.475496 75.162532 
L 131.814496 75.057371 
L 131.893199 75.004791 
L 131.921993 75.004791 
L 132.153111 74.89963 
L 132.24602 74.826018 
L 132.262912 74.826018 
L 132.750488 74.720857 
L 132.845316 74.678793 
L 132.858753 74.678793 
L 133.158977 74.573632 
L 133.211957 74.542084 
L 133.256876 74.542084 
L 133.598946 74.436923 
L 133.650008 74.394859 
L 133.709515 74.394859 
L 134.092281 74.289698 
L 134.200546 74.247634 
L 134.202849 74.247634 
L 134.626695 74.142473 
L 134.703862 74.058345 
L 134.737647 74.058345 
L 135.1446 73.953184 
L 135.244035 73.869056 
L 135.255553 73.869056 
L 135.544259 73.774411 
L 135.619507 73.711315 
L 135.652908 73.711315 
L 135.989604 73.606154 
L 136.040281 73.574606 
L 136.099404 73.574606 
L 136.39886 73.469445 
L 136.47526 73.395833 
L 136.507893 73.395833 
L 136.820402 73.290672 
L 136.926747 73.227575 
L 136.930587 73.227575 
L 137.754858 73.122415 
L 137.865811 73.038286 
L 138.408287 72.933126 
L 138.498508 72.880545 
L 138.519239 72.880545 
L 139.081295 72.775385 
L 139.174203 72.754352 
L 139.191096 72.754352 
L 139.408009 72.649192 
L 139.408393 72.617644 
L 139.514738 72.617644 
L 140.105204 72.512483 
L 140.127471 72.491451 
L 140.215773 72.491451 
L 140.803935 72.38629 
L 140.909512 72.323194 
L 141.65009 72.218033 
L 141.747989 72.175969 
L 141.755284 72.175969 
L 142.192566 72.070808 
L 142.210226 72.028744 
L 142.299295 72.028744 
L 142.855209 71.923583 
L 142.951956 71.892035 
L 142.963857 71.892035 
L 143.348159 71.79739 
L 143.422255 71.755326 
L 143.459112 71.755326 
L 144.148244 71.650166 
L 144.192779 71.618617 
L 144.258813 71.618617 
L 145.039702 71.513457 
L 145.150654 71.471392 
L 145.61865 71.366232 
L 145.725379 71.324167 
L 145.728835 71.324167 
L 146.572302 71.219007 
L 146.572302 71.208491 
L 146.680951 71.208491 
L 147.228418 71.10333 
L 147.252221 71.082298 
L 147.334763 71.082298 
L 148.172089 70.977137 
L 148.253863 70.945589 
L 148.281505 70.945589 
L 149.050109 70.840428 
L 149.132267 70.798364 
L 149.159909 70.798364 
L 150.106267 70.693204 
L 150.106267 70.682687 
L 150.212996 70.682687 
L 150.816132 70.577527 
L 150.816132 70.567011 
L 150.9267 70.567011 
L 151.774775 70.46185 
L 151.774775 70.451334 
L 151.885727 70.451334 
L 152.517272 70.346173 
L 152.589065 70.325141 
L 152.627073 70.325141 
L 153.320045 70.219981 
L 153.40873 70.198948 
L 153.429461 70.198948 
L 154.607705 70.093788 
L 154.715202 70.06224 
L 154.71597 70.06224 
L 156.436691 69.957079 
L 156.503876 69.936047 
L 156.545723 69.936047 
L 157.379977 69.830886 
L 157.379977 69.82037 
L 157.490929 69.82037 
L 158.183517 69.715209 
L 158.183517 69.704693 
L 158.287559 69.704693 
L 159.428947 69.599533 
L 159.430867 69.5785 
L 159.539516 69.5785 
L 160.892059 69.47334 
L 160.892059 69.462824 
L 161.001091 69.462824 
L 161.80348 69.357663 
L 161.80348 69.347147 
L 161.913664 69.347147 
L 163.508843 69.241986 
L 163.508843 69.23147 
L 163.618644 69.23147 
L 165.231867 69.136826 
L 165.339748 69.094761 
L 165.342052 69.094761 
L 166.230822 68.989601 
L 166.230822 68.979085 
L 166.340238 68.979085 
L 167.862473 68.873924 
L 167.862473 68.863408 
L 167.973042 68.863408 
L 169.457268 68.758247 
L 169.457268 68.747731 
L 169.567069 68.747731 
L 170.775643 68.642571 
L 170.778714 68.621538 
L 170.884675 68.621538 
L 173.425444 68.516378 
L 173.425444 68.505862 
L 173.535629 68.505862 
L 175.331981 68.400701 
L 175.331981 68.390185 
L 175.442933 68.390185 
L 177.988309 68.285024 
L 177.988309 68.274508 
L 178.098878 68.274508 
L 181.338762 68.169348 
L 181.338762 68.158832 
L 181.448178 68.158832 
L 184.559449 68.053671 
L 184.577877 68.032639 
L 184.665411 68.032639 
L 186.634526 67.927478 
L 186.741639 67.916962 
L 190.456429 67.811801 
L 190.456429 67.801285 
L 190.562391 67.801285 
L 195.608225 67.696125 
L 195.608225 67.685609 
L 195.718409 67.685609 
L 199.768744 67.580448 
L 199.768744 67.569932 
L 199.878928 67.569932 
L 208.54434 67.464771 
L 208.54434 67.454255 
L 208.650302 67.454255 
L 224.325672 67.349094 
L 224.325672 67.338578 
L 224.434321 67.338578 
L 246.668162 67.233418 
L 246.668162 67.222902 
L 246.777963 67.222902 
L 288.464927 67.117741 
L 288.464927 67.107225 
L 288.568585 67.107225 
L 391.283149 67.002064 
L 391.283149 66.991548 
L 391.394101 66.991548 
L 498.109091 66.96 
L 498.109091 66.96 
" style="fill:none;stroke:#ff0000;stroke-linecap:square;stroke-width:1.5;"/>
   </g>
   <g id="patch_3">
    <path d="M 72 384.48 
L 72 51.84 
" style="fill:none;stroke:#000000;stroke-linecap:square;stroke-linejoin:miter;stroke-width:0.8;"/>
   </g>
   <g id="patch_4">
    <path d="M 518.4 384.48 
L 518.4 51.84 
" style="fill:none;stroke:#000000;stroke-linecap:square;stroke-linejoin:miter;stroke-width:0.8;"/>
   </g>
   <g id="patch_5">
    <path d="M 72 384.48 
L 518.4 384.48 
" style="fill:none;stroke:#000000;stroke-linecap:square;stroke-linejoin:miter;stroke-width:0.8;"/>
   </g>
   <g id="patch_6">
    <path d="M 72 51.84 
L 518.4 51.84 
" style="fill:none;stroke:#000000;stroke-linecap:square;stroke-linejoin:miter;stroke-width:0.8;"/>
   </g>
   <g id="text_15">
    <!-- ROC Curves -->
    <g transform="translate(237.894 45.84)scale(0.192 -0.192)">
     <defs>
      <path d="M 39.40625 66.21875 
Q 28.65625 66.21875 22.328125 58.203125 
Q 16.015625 50.203125 16.015625 36.375 
Q 16.015625 22.609375 22.328125 14.59375 
Q 28.65625 6.59375 39.40625 6.59375 
Q 50.140625 6.59375 56.421875 14.59375 
Q 62.703125 22.609375 62.703125 36.375 
Q 62.703125 50.203125 56.421875 58.203125 
Q 50.140625 66.21875 39.40625 66.21875 
z
M 39.40625 74.21875 
Q 54.734375 74.21875 63.90625 63.9375 
Q 73.09375 53.65625 73.09375 36.375 
Q 73.09375 19.140625 63.90625 8.859375 
Q 54.734375 -1.421875 39.40625 -1.421875 
Q 24.03125 -1.421875 14.8125 8.828125 
Q 5.609375 19.09375 5.609375 36.375 
Q 5.609375 53.65625 14.8125 63.9375 
Q 24.03125 74.21875 39.40625 74.21875 
z
" id="DejaVuSans-79"/>
      <path d="M 64.40625 67.28125 
L 64.40625 56.890625 
Q 59.421875 61.53125 53.78125 63.8125 
Q 48.140625 66.109375 41.796875 66.109375 
Q 29.296875 66.109375 22.65625 58.46875 
Q 16.015625 50.828125 16.015625 36.375 
Q 16.015625 21.96875 22.65625 14.328125 
Q 29.296875 6.6875 41.796875 6.6875 
Q 48.140625 6.6875 53.78125 8.984375 
Q 59.421875 11.28125 64.40625 15.921875 
L 64.40625 5.609375 
Q 59.234375 2.09375 53.4375 0.328125 
Q 47.65625 -1.421875 41.21875 -1.421875 
Q 24.65625 -1.421875 15.125 8.703125 
Q 5.609375 18.84375 5.609375 36.375 
Q 5.609375 53.953125 15.125 64.078125 
Q 24.65625 74.21875 41.21875 74.21875 
Q 47.75 74.21875 53.53125 72.484375 
Q 59.328125 70.75 64.40625 67.28125 
z
" id="DejaVuSans-67"/>
     </defs>
     <use xlink:href="#DejaVuSans-82"/>
     <use x="69.482422" xlink:href="#DejaVuSans-79"/>
     <use x="148.193359" xlink:href="#DejaVuSans-67"/>
     <use x="218.017578" xlink:href="#DejaVuSans-32"/>
     <use x="249.804688" xlink:href="#DejaVuSans-67"/>
     <use x="319.628906" xlink:href="#DejaVuSans-117"/>
     <use x="383.007812" xlink:href="#DejaVuSans-114"/>
     <use x="424.121094" xlink:href="#DejaVuSans-118"/>
     <use x="483.300781" xlink:href="#DejaVuSans-101"/>
     <use x="544.824219" xlink:href="#DejaVuSans-115"/>
    </g>
   </g>
   <g id="legend_1">
    <g id="patch_7">
     <path d="M 388.9825 376.48 
L 507.2 376.48 
Q 510.4 376.48 510.4 373.28 
L 510.4 327.91 
Q 510.4 324.71 507.2 324.71 
L 388.9825 324.71 
Q 385.7825 324.71 385.7825 327.91 
L 385.7825 373.28 
Q 385.7825 376.48 388.9825 376.48 
z
" style="fill:#ffffff;opacity:0.8;stroke:#cccccc;stroke-linejoin:miter;"/>
    </g>
    <g id="line2d_15">
     <path d="M 392.1825 337.6675 
L 424.1825 337.6675 
" style="fill:none;stroke:#0000ff;stroke-linecap:square;stroke-width:1.5;"/>
    </g>
    <g id="line2d_16"/>
    <g id="text_16">
     <!-- baseline -->
     <g transform="translate(436.9825 343.2675)scale(0.16 -0.16)">
      <defs>
       <path d="M 48.6875 27.296875 
Q 48.6875 37.203125 44.609375 42.84375 
Q 40.53125 48.484375 33.40625 48.484375 
Q 26.265625 48.484375 22.1875 42.84375 
Q 18.109375 37.203125 18.109375 27.296875 
Q 18.109375 17.390625 22.1875 11.75 
Q 26.265625 6.109375 33.40625 6.109375 
Q 40.53125 6.109375 44.609375 11.75 
Q 48.6875 17.390625 48.6875 27.296875 
z
M 18.109375 46.390625 
Q 20.953125 51.265625 25.265625 53.625 
Q 29.59375 56 35.59375 56 
Q 45.5625 56 51.78125 48.09375 
Q 58.015625 40.1875 58.015625 27.296875 
Q 58.015625 14.40625 51.78125 6.484375 
Q 45.5625 -1.421875 35.59375 -1.421875 
Q 29.59375 -1.421875 25.265625 0.953125 
Q 20.953125 3.328125 18.109375 8.203125 
L 18.109375 0 
L 9.078125 0 
L 9.078125 75.984375 
L 18.109375 75.984375 
z
" id="DejaVuSans-98"/>
       <path d="M 54.890625 33.015625 
L 54.890625 0 
L 45.90625 0 
L 45.90625 32.71875 
Q 45.90625 40.484375 42.875 44.328125 
Q 39.84375 48.1875 33.796875 48.1875 
Q 26.515625 48.1875 22.3125 43.546875 
Q 18.109375 38.921875 18.109375 30.90625 
L 18.109375 0 
L 9.078125 0 
L 9.078125 54.6875 
L 18.109375 54.6875 
L 18.109375 46.1875 
Q 21.34375 51.125 25.703125 53.5625 
Q 30.078125 56 35.796875 56 
Q 45.21875 56 50.046875 50.171875 
Q 54.890625 44.34375 54.890625 33.015625 
z
" id="DejaVuSans-110"/>
      </defs>
      <use xlink:href="#DejaVuSans-98"/>
      <use x="63.476562" xlink:href="#DejaVuSans-97"/>
      <use x="124.755859" xlink:href="#DejaVuSans-115"/>
      <use x="176.855469" xlink:href="#DejaVuSans-101"/>
      <use x="238.378906" xlink:href="#DejaVuSans-108"/>
      <use x="266.162109" xlink:href="#DejaVuSans-105"/>
      <use x="293.945312" xlink:href="#DejaVuSans-110"/>
      <use x="357.324219" xlink:href="#DejaVuSans-101"/>
     </g>
    </g>
    <g id="line2d_17">
     <path d="M 392.1825 361.1525 
L 424.1825 361.1525 
" style="fill:none;stroke:#ff0000;stroke-linecap:square;stroke-width:1.5;"/>
    </g>
    <g id="line2d_18"/>
    <g id="text_17">
     <!-- model -->
     <g transform="translate(436.9825 366.7525)scale(0.16 -0.16)">
      <defs>
       <path d="M 52 44.1875 
Q 55.375 50.25 60.0625 53.125 
Q 64.75 56 71.09375 56 
Q 79.640625 56 84.28125 50.015625 
Q 88.921875 44.046875 88.921875 33.015625 
L 88.921875 0 
L 79.890625 0 
L 79.890625 32.71875 
Q 79.890625 40.578125 77.09375 44.375 
Q 74.3125 48.1875 68.609375 48.1875 
Q 61.625 48.1875 57.5625 43.546875 
Q 53.515625 38.921875 53.515625 30.90625 
L 53.515625 0 
L 44.484375 0 
L 44.484375 32.71875 
Q 44.484375 40.625 41.703125 44.40625 
Q 38.921875 48.1875 33.109375 48.1875 
Q 26.21875 48.1875 22.15625 43.53125 
Q 18.109375 38.875 18.109375 30.90625 
L 18.109375 0 
L 9.078125 0 
L 9.078125 54.6875 
L 18.109375 54.6875 
L 18.109375 46.1875 
Q 21.1875 51.21875 25.484375 53.609375 
Q 29.78125 56 35.6875 56 
Q 41.65625 56 45.828125 52.96875 
Q 50 49.953125 52 44.1875 
z
" id="DejaVuSans-109"/>
       <path d="M 45.40625 46.390625 
L 45.40625 75.984375 
L 54.390625 75.984375 
L 54.390625 0 
L 45.40625 0 
L 45.40625 8.203125 
Q 42.578125 3.328125 38.25 0.953125 
Q 33.9375 -1.421875 27.875 -1.421875 
Q 17.96875 -1.421875 11.734375 6.484375 
Q 5.515625 14.40625 5.515625 27.296875 
Q 5.515625 40.1875 11.734375 48.09375 
Q 17.96875 56 27.875 56 
Q 33.9375 56 38.25 53.625 
Q 42.578125 51.265625 45.40625 46.390625 
z
M 14.796875 27.296875 
Q 14.796875 17.390625 18.875 11.75 
Q 22.953125 6.109375 30.078125 6.109375 
Q 37.203125 6.109375 41.296875 11.75 
Q 45.40625 17.390625 45.40625 27.296875 
Q 45.40625 37.203125 41.296875 42.84375 
Q 37.203125 48.484375 30.078125 48.484375 
Q 22.953125 48.484375 18.875 42.84375 
Q 14.796875 37.203125 14.796875 27.296875 
z
" id="DejaVuSans-100"/>
      </defs>
      <use xlink:href="#DejaVuSans-109"/>
      <use x="97.412109" xlink:href="#DejaVuSans-111"/>
      <use x="158.59375" xlink:href="#DejaVuSans-100"/>
      <use x="222.070312" xlink:href="#DejaVuSans-101"/>
      <use x="283.59375" xlink:href="#DejaVuSans-108"/>
     </g>
    </g>
   </g>
  </g>
 </g>
 <defs>
  <clipPath id="p63e9e7c949">
   <rect height="332.64" width="446.4" x="72" y="51.84"/>
  </clipPath>
 </defs>
</svg>
