<?xml version="1.0" encoding="utf-8" standalone="no"?>
<!DOCTYPE svg PUBLIC "-//W3C//DTD SVG 1.1//EN"
  "http://www.w3.org/Graphics/SVG/1.1/DTD/svg11.dtd">
<!-- Created with matplotlib (https://matplotlib.org/) -->
<svg height="432pt" version="1.1" viewBox="0 0 576 432" width="576pt" xmlns="http://www.w3.org/2000/svg" xmlns:xlink="http://www.w3.org/1999/xlink">
 <metadata>
  <rdf:RDF xmlns:cc="http://creativecommons.org/ns#" xmlns:dc="http://purl.org/dc/elements/1.1/" xmlns:rdf="http://www.w3.org/1999/02/22-rdf-syntax-ns#">
   <cc:Work>
    <dc:type rdf:resource="http://purl.org/dc/dcmitype/StillImage"/>
    <dc:date>2020-09-26T10:43:27.099219</dc:date>
    <dc:format>image/svg+xml</dc:format>
    <dc:creator>
     <cc:Agent>
      <dc:title>Matplotlib v3.3.0, https://matplotlib.org/</dc:title>
     </cc:Agent>
    </dc:creator>
   </cc:Work>
  </rdf:RDF>
 </metadata>
 <defs>
  <style type="text/css">*{stroke-linecap:butt;stroke-linejoin:round;}</style>
 </defs>
 <g id="figure_1">
  <g id="patch_1">
   <path d="M 0 432 
L 576 432 
L 576 0 
L 0 0 
z
" style="fill:#ffffff;"/>
  </g>
  <g id="axes_1">
   <g id="patch_2">
    <path d="M 72 384.48 
L 518.4 384.48 
L 518.4 51.84 
L 72 51.84 
z
" style="fill:#ffffff;"/>
   </g>
   <g id="matplotlib.axis_1">
    <g id="xtick_1">
     <g id="line2d_1">
      <defs>
       <path d="M 0 0 
L 0 3.5 
" id="m2190296855" style="stroke:#000000;stroke-width:0.8;"/>
      </defs>
      <g>
       <use style="stroke:#000000;stroke-width:0.8;" x="92.290909" xlink:href="#m2190296855" y="384.48"/>
      </g>
     </g>
     <g id="text_1">
      <!-- 0.0 -->
      <g transform="translate(79.568409 403.6375)scale(0.16 -0.16)">
       <defs>
        <path d="M 31.78125 66.40625 
Q 24.171875 66.40625 20.328125 58.90625 
Q 16.5 51.421875 16.5 36.375 
Q 16.5 21.390625 20.328125 13.890625 
Q 24.171875 6.390625 31.78125 6.390625 
Q 39.453125 6.390625 43.28125 13.890625 
Q 47.125 21.390625 47.125 36.375 
Q 47.125 51.421875 43.28125 58.90625 
Q 39.453125 66.40625 31.78125 66.40625 
z
M 31.78125 74.21875 
Q 44.046875 74.21875 50.515625 64.515625 
Q 56.984375 54.828125 56.984375 36.375 
Q 56.984375 17.96875 50.515625 8.265625 
Q 44.046875 -1.421875 31.78125 -1.421875 
Q 19.53125 -1.421875 13.0625 8.265625 
Q 6.59375 17.96875 6.59375 36.375 
Q 6.59375 54.828125 13.0625 64.515625 
Q 19.53125 74.21875 31.78125 74.21875 
z
" id="DejaVuSans-48"/>
        <path d="M 10.6875 12.40625 
L 21 12.40625 
L 21 0 
L 10.6875 0 
z
" id="DejaVuSans-46"/>
       </defs>
       <use xlink:href="#DejaVuSans-48"/>
       <use x="63.623047" xlink:href="#DejaVuSans-46"/>
       <use x="95.410156" xlink:href="#DejaVuSans-48"/>
      </g>
     </g>
    </g>
    <g id="xtick_2">
     <g id="line2d_2">
      <g>
       <use style="stroke:#000000;stroke-width:0.8;" x="173.454545" xlink:href="#m2190296855" y="384.48"/>
      </g>
     </g>
     <g id="text_2">
      <!-- 0.2 -->
      <g transform="translate(160.732045 403.6375)scale(0.16 -0.16)">
       <defs>
        <path d="M 19.1875 8.296875 
L 53.609375 8.296875 
L 53.609375 0 
L 7.328125 0 
L 7.328125 8.296875 
Q 12.9375 14.109375 22.625 23.890625 
Q 32.328125 33.6875 34.8125 36.53125 
Q 39.546875 41.84375 41.421875 45.53125 
Q 43.3125 49.21875 43.3125 52.78125 
Q 43.3125 58.59375 39.234375 62.25 
Q 35.15625 65.921875 28.609375 65.921875 
Q 23.96875 65.921875 18.8125 64.3125 
Q 13.671875 62.703125 7.8125 59.421875 
L 7.8125 69.390625 
Q 13.765625 71.78125 18.9375 73 
Q 24.125 74.21875 28.421875 74.21875 
Q 39.75 74.21875 46.484375 68.546875 
Q 53.21875 62.890625 53.21875 53.421875 
Q 53.21875 48.921875 51.53125 44.890625 
Q 49.859375 40.875 45.40625 35.40625 
Q 44.1875 33.984375 37.640625 27.21875 
Q 31.109375 20.453125 19.1875 8.296875 
z
" id="DejaVuSans-50"/>
       </defs>
       <use xlink:href="#DejaVuSans-48"/>
       <use x="63.623047" xlink:href="#DejaVuSans-46"/>
       <use x="95.410156" xlink:href="#DejaVuSans-50"/>
      </g>
     </g>
    </g>
    <g id="xtick_3">
     <g id="line2d_3">
      <g>
       <use style="stroke:#000000;stroke-width:0.8;" x="254.618182" xlink:href="#m2190296855" y="384.48"/>
      </g>
     </g>
     <g id="text_3">
      <!-- 0.4 -->
      <g transform="translate(241.895682 403.6375)scale(0.16 -0.16)">
       <defs>
        <path d="M 37.796875 64.3125 
L 12.890625 25.390625 
L 37.796875 25.390625 
z
M 35.203125 72.90625 
L 47.609375 72.90625 
L 47.609375 25.390625 
L 58.015625 25.390625 
L 58.015625 17.1875 
L 47.609375 17.1875 
L 47.609375 0 
L 37.796875 0 
L 37.796875 17.1875 
L 4.890625 17.1875 
L 4.890625 26.703125 
z
" id="DejaVuSans-52"/>
       </defs>
       <use xlink:href="#DejaVuSans-48"/>
       <use x="63.623047" xlink:href="#DejaVuSans-46"/>
       <use x="95.410156" xlink:href="#DejaVuSans-52"/>
      </g>
     </g>
    </g>
    <g id="xtick_4">
     <g id="line2d_4">
      <g>
       <use style="stroke:#000000;stroke-width:0.8;" x="335.781818" xlink:href="#m2190296855" y="384.48"/>
      </g>
     </g>
     <g id="text_4">
      <!-- 0.6 -->
      <g transform="translate(323.059318 403.6375)scale(0.16 -0.16)">
       <defs>
        <path d="M 33.015625 40.375 
Q 26.375 40.375 22.484375 35.828125 
Q 18.609375 31.296875 18.609375 23.390625 
Q 18.609375 15.53125 22.484375 10.953125 
Q 26.375 6.390625 33.015625 6.390625 
Q 39.65625 6.390625 43.53125 10.953125 
Q 47.40625 15.53125 47.40625 23.390625 
Q 47.40625 31.296875 43.53125 35.828125 
Q 39.65625 40.375 33.015625 40.375 
z
M 52.59375 71.296875 
L 52.59375 62.3125 
Q 48.875 64.0625 45.09375 64.984375 
Q 41.3125 65.921875 37.59375 65.921875 
Q 27.828125 65.921875 22.671875 59.328125 
Q 17.53125 52.734375 16.796875 39.40625 
Q 19.671875 43.65625 24.015625 45.921875 
Q 28.375 48.1875 33.59375 48.1875 
Q 44.578125 48.1875 50.953125 41.515625 
Q 57.328125 34.859375 57.328125 23.390625 
Q 57.328125 12.15625 50.6875 5.359375 
Q 44.046875 -1.421875 33.015625 -1.421875 
Q 20.359375 -1.421875 13.671875 8.265625 
Q 6.984375 17.96875 6.984375 36.375 
Q 6.984375 53.65625 15.1875 63.9375 
Q 23.390625 74.21875 37.203125 74.21875 
Q 40.921875 74.21875 44.703125 73.484375 
Q 48.484375 72.75 52.59375 71.296875 
z
" id="DejaVuSans-54"/>
       </defs>
       <use xlink:href="#DejaVuSans-48"/>
       <use x="63.623047" xlink:href="#DejaVuSans-46"/>
       <use x="95.410156" xlink:href="#DejaVuSans-54"/>
      </g>
     </g>
    </g>
    <g id="xtick_5">
     <g id="line2d_5">
      <g>
       <use style="stroke:#000000;stroke-width:0.8;" x="416.945455" xlink:href="#m2190296855" y="384.48"/>
      </g>
     </g>
     <g id="text_5">
      <!-- 0.8 -->
      <g transform="translate(404.222955 403.6375)scale(0.16 -0.16)">
       <defs>
        <path d="M 31.78125 34.625 
Q 24.75 34.625 20.71875 30.859375 
Q 16.703125 27.09375 16.703125 20.515625 
Q 16.703125 13.921875 20.71875 10.15625 
Q 24.75 6.390625 31.78125 6.390625 
Q 38.8125 6.390625 42.859375 10.171875 
Q 46.921875 13.96875 46.921875 20.515625 
Q 46.921875 27.09375 42.890625 30.859375 
Q 38.875 34.625 31.78125 34.625 
z
M 21.921875 38.8125 
Q 15.578125 40.375 12.03125 44.71875 
Q 8.5 49.078125 8.5 55.328125 
Q 8.5 64.0625 14.71875 69.140625 
Q 20.953125 74.21875 31.78125 74.21875 
Q 42.671875 74.21875 48.875 69.140625 
Q 55.078125 64.0625 55.078125 55.328125 
Q 55.078125 49.078125 51.53125 44.71875 
Q 48 40.375 41.703125 38.8125 
Q 48.828125 37.15625 52.796875 32.3125 
Q 56.78125 27.484375 56.78125 20.515625 
Q 56.78125 9.90625 50.3125 4.234375 
Q 43.84375 -1.421875 31.78125 -1.421875 
Q 19.734375 -1.421875 13.25 4.234375 
Q 6.78125 9.90625 6.78125 20.515625 
Q 6.78125 27.484375 10.78125 32.3125 
Q 14.796875 37.15625 21.921875 38.8125 
z
M 18.3125 54.390625 
Q 18.3125 48.734375 21.84375 45.5625 
Q 25.390625 42.390625 31.78125 42.390625 
Q 38.140625 42.390625 41.71875 45.5625 
Q 45.3125 48.734375 45.3125 54.390625 
Q 45.3125 60.0625 41.71875 63.234375 
Q 38.140625 66.40625 31.78125 66.40625 
Q 25.390625 66.40625 21.84375 63.234375 
Q 18.3125 60.0625 18.3125 54.390625 
z
" id="DejaVuSans-56"/>
       </defs>
       <use xlink:href="#DejaVuSans-48"/>
       <use x="63.623047" xlink:href="#DejaVuSans-46"/>
       <use x="95.410156" xlink:href="#DejaVuSans-56"/>
      </g>
     </g>
    </g>
    <g id="xtick_6">
     <g id="line2d_6">
      <g>
       <use style="stroke:#000000;stroke-width:0.8;" x="498.109091" xlink:href="#m2190296855" y="384.48"/>
      </g>
     </g>
     <g id="text_6">
      <!-- 1.0 -->
      <g transform="translate(485.386591 403.6375)scale(0.16 -0.16)">
       <defs>
        <path d="M 12.40625 8.296875 
L 28.515625 8.296875 
L 28.515625 63.921875 
L 10.984375 60.40625 
L 10.984375 69.390625 
L 28.421875 72.90625 
L 38.28125 72.90625 
L 38.28125 8.296875 
L 54.390625 8.296875 
L 54.390625 0 
L 12.40625 0 
z
" id="DejaVuSans-49"/>
       </defs>
       <use xlink:href="#DejaVuSans-49"/>
       <use x="63.623047" xlink:href="#DejaVuSans-46"/>
       <use x="95.410156" xlink:href="#DejaVuSans-48"/>
      </g>
     </g>
    </g>
    <g id="text_7">
     <!-- False Positive Rate -->
     <g transform="translate(220.85375 423.1225)scale(0.16 -0.16)">
      <defs>
       <path d="M 9.8125 72.90625 
L 51.703125 72.90625 
L 51.703125 64.59375 
L 19.671875 64.59375 
L 19.671875 43.109375 
L 48.578125 43.109375 
L 48.578125 34.8125 
L 19.671875 34.8125 
L 19.671875 0 
L 9.8125 0 
z
" id="DejaVuSans-70"/>
       <path d="M 34.28125 27.484375 
Q 23.390625 27.484375 19.1875 25 
Q 14.984375 22.515625 14.984375 16.5 
Q 14.984375 11.71875 18.140625 8.90625 
Q 21.296875 6.109375 26.703125 6.109375 
Q 34.1875 6.109375 38.703125 11.40625 
Q 43.21875 16.703125 43.21875 25.484375 
L 43.21875 27.484375 
z
M 52.203125 31.203125 
L 52.203125 0 
L 43.21875 0 
L 43.21875 8.296875 
Q 40.140625 3.328125 35.546875 0.953125 
Q 30.953125 -1.421875 24.3125 -1.421875 
Q 15.921875 -1.421875 10.953125 3.296875 
Q 6 8.015625 6 15.921875 
Q 6 25.140625 12.171875 29.828125 
Q 18.359375 34.515625 30.609375 34.515625 
L 43.21875 34.515625 
L 43.21875 35.40625 
Q 43.21875 41.609375 39.140625 45 
Q 35.0625 48.390625 27.6875 48.390625 
Q 23 48.390625 18.546875 47.265625 
Q 14.109375 46.140625 10.015625 43.890625 
L 10.015625 52.203125 
Q 14.9375 54.109375 19.578125 55.046875 
Q 24.21875 56 28.609375 56 
Q 40.484375 56 46.34375 49.84375 
Q 52.203125 43.703125 52.203125 31.203125 
z
" id="DejaVuSans-97"/>
       <path d="M 9.421875 75.984375 
L 18.40625 75.984375 
L 18.40625 0 
L 9.421875 0 
z
" id="DejaVuSans-108"/>
       <path d="M 44.28125 53.078125 
L 44.28125 44.578125 
Q 40.484375 46.53125 36.375 47.5 
Q 32.28125 48.484375 27.875 48.484375 
Q 21.1875 48.484375 17.84375 46.4375 
Q 14.5 44.390625 14.5 40.28125 
Q 14.5 37.15625 16.890625 35.375 
Q 19.28125 33.59375 26.515625 31.984375 
L 29.59375 31.296875 
Q 39.15625 29.25 43.1875 25.515625 
Q 47.21875 21.78125 47.21875 15.09375 
Q 47.21875 7.46875 41.1875 3.015625 
Q 35.15625 -1.421875 24.609375 -1.421875 
Q 20.21875 -1.421875 15.453125 -0.5625 
Q 10.6875 0.296875 5.421875 2 
L 5.421875 11.28125 
Q 10.40625 8.6875 15.234375 7.390625 
Q 20.0625 6.109375 24.8125 6.109375 
Q 31.15625 6.109375 34.5625 8.28125 
Q 37.984375 10.453125 37.984375 14.40625 
Q 37.984375 18.0625 35.515625 20.015625 
Q 33.0625 21.96875 24.703125 23.78125 
L 21.578125 24.515625 
Q 13.234375 26.265625 9.515625 29.90625 
Q 5.8125 33.546875 5.8125 39.890625 
Q 5.8125 47.609375 11.28125 51.796875 
Q 16.75 56 26.8125 56 
Q 31.78125 56 36.171875 55.265625 
Q 40.578125 54.546875 44.28125 53.078125 
z
" id="DejaVuSans-115"/>
       <path d="M 56.203125 29.59375 
L 56.203125 25.203125 
L 14.890625 25.203125 
Q 15.484375 15.921875 20.484375 11.0625 
Q 25.484375 6.203125 34.421875 6.203125 
Q 39.59375 6.203125 44.453125 7.46875 
Q 49.3125 8.734375 54.109375 11.28125 
L 54.109375 2.78125 
Q 49.265625 0.734375 44.1875 -0.34375 
Q 39.109375 -1.421875 33.890625 -1.421875 
Q 20.796875 -1.421875 13.15625 6.1875 
Q 5.515625 13.8125 5.515625 26.8125 
Q 5.515625 40.234375 12.765625 48.109375 
Q 20.015625 56 32.328125 56 
Q 43.359375 56 49.78125 48.890625 
Q 56.203125 41.796875 56.203125 29.59375 
z
M 47.21875 32.234375 
Q 47.125 39.59375 43.09375 43.984375 
Q 39.0625 48.390625 32.421875 48.390625 
Q 24.90625 48.390625 20.390625 44.140625 
Q 15.875 39.890625 15.1875 32.171875 
z
" id="DejaVuSans-101"/>
       <path id="DejaVuSans-32"/>
       <path d="M 19.671875 64.796875 
L 19.671875 37.40625 
L 32.078125 37.40625 
Q 38.96875 37.40625 42.71875 40.96875 
Q 46.484375 44.53125 46.484375 51.125 
Q 46.484375 57.671875 42.71875 61.234375 
Q 38.96875 64.796875 32.078125 64.796875 
z
M 9.8125 72.90625 
L 32.078125 72.90625 
Q 44.34375 72.90625 50.609375 67.359375 
Q 56.890625 61.8125 56.890625 51.125 
Q 56.890625 40.328125 50.609375 34.8125 
Q 44.34375 29.296875 32.078125 29.296875 
L 19.671875 29.296875 
L 19.671875 0 
L 9.8125 0 
z
" id="DejaVuSans-80"/>
       <path d="M 30.609375 48.390625 
Q 23.390625 48.390625 19.1875 42.75 
Q 14.984375 37.109375 14.984375 27.296875 
Q 14.984375 17.484375 19.15625 11.84375 
Q 23.34375 6.203125 30.609375 6.203125 
Q 37.796875 6.203125 41.984375 11.859375 
Q 46.1875 17.53125 46.1875 27.296875 
Q 46.1875 37.015625 41.984375 42.703125 
Q 37.796875 48.390625 30.609375 48.390625 
z
M 30.609375 56 
Q 42.328125 56 49.015625 48.375 
Q 55.71875 40.765625 55.71875 27.296875 
Q 55.71875 13.875 49.015625 6.21875 
Q 42.328125 -1.421875 30.609375 -1.421875 
Q 18.84375 -1.421875 12.171875 6.21875 
Q 5.515625 13.875 5.515625 27.296875 
Q 5.515625 40.765625 12.171875 48.375 
Q 18.84375 56 30.609375 56 
z
" id="DejaVuSans-111"/>
       <path d="M 9.421875 54.6875 
L 18.40625 54.6875 
L 18.40625 0 
L 9.421875 0 
z
M 9.421875 75.984375 
L 18.40625 75.984375 
L 18.40625 64.59375 
L 9.421875 64.59375 
z
" id="DejaVuSans-105"/>
       <path d="M 18.3125 70.21875 
L 18.3125 54.6875 
L 36.8125 54.6875 
L 36.8125 47.703125 
L 18.3125 47.703125 
L 18.3125 18.015625 
Q 18.3125 11.328125 20.140625 9.421875 
Q 21.96875 7.515625 27.59375 7.515625 
L 36.8125 7.515625 
L 36.8125 0 
L 27.59375 0 
Q 17.1875 0 13.234375 3.875 
Q 9.28125 7.765625 9.28125 18.015625 
L 9.28125 47.703125 
L 2.6875 47.703125 
L 2.6875 54.6875 
L 9.28125 54.6875 
L 9.28125 70.21875 
z
" id="DejaVuSans-116"/>
       <path d="M 2.984375 54.6875 
L 12.5 54.6875 
L 29.59375 8.796875 
L 46.6875 54.6875 
L 56.203125 54.6875 
L 35.6875 0 
L 23.484375 0 
z
" id="DejaVuSans-118"/>
       <path d="M 44.390625 34.1875 
Q 47.5625 33.109375 50.5625 29.59375 
Q 53.5625 26.078125 56.59375 19.921875 
L 66.609375 0 
L 56 0 
L 46.6875 18.703125 
Q 43.0625 26.03125 39.671875 28.421875 
Q 36.28125 30.8125 30.421875 30.8125 
L 19.671875 30.8125 
L 19.671875 0 
L 9.8125 0 
L 9.8125 72.90625 
L 32.078125 72.90625 
Q 44.578125 72.90625 50.734375 67.671875 
Q 56.890625 62.453125 56.890625 51.90625 
Q 56.890625 45.015625 53.6875 40.46875 
Q 50.484375 35.9375 44.390625 34.1875 
z
M 19.671875 64.796875 
L 19.671875 38.921875 
L 32.078125 38.921875 
Q 39.203125 38.921875 42.84375 42.21875 
Q 46.484375 45.515625 46.484375 51.90625 
Q 46.484375 58.296875 42.84375 61.546875 
Q 39.203125 64.796875 32.078125 64.796875 
z
" id="DejaVuSans-82"/>
      </defs>
      <use xlink:href="#DejaVuSans-70"/>
      <use x="48.394531" xlink:href="#DejaVuSans-97"/>
      <use x="109.673828" xlink:href="#DejaVuSans-108"/>
      <use x="137.457031" xlink:href="#DejaVuSans-115"/>
      <use x="189.556641" xlink:href="#DejaVuSans-101"/>
      <use x="251.080078" xlink:href="#DejaVuSans-32"/>
      <use x="282.867188" xlink:href="#DejaVuSans-80"/>
      <use x="339.544922" xlink:href="#DejaVuSans-111"/>
      <use x="400.726562" xlink:href="#DejaVuSans-115"/>
      <use x="452.826172" xlink:href="#DejaVuSans-105"/>
      <use x="480.609375" xlink:href="#DejaVuSans-116"/>
      <use x="519.818359" xlink:href="#DejaVuSans-105"/>
      <use x="547.601562" xlink:href="#DejaVuSans-118"/>
      <use x="606.78125" xlink:href="#DejaVuSans-101"/>
      <use x="668.304688" xlink:href="#DejaVuSans-32"/>
      <use x="700.091797" xlink:href="#DejaVuSans-82"/>
      <use x="767.324219" xlink:href="#DejaVuSans-97"/>
      <use x="828.603516" xlink:href="#DejaVuSans-116"/>
      <use x="867.8125" xlink:href="#DejaVuSans-101"/>
     </g>
    </g>
   </g>
   <g id="matplotlib.axis_2">
    <g id="ytick_1">
     <g id="line2d_7">
      <defs>
       <path d="M 0 0 
L -3.5 0 
" id="m34476bce04" style="stroke:#000000;stroke-width:0.8;"/>
      </defs>
      <g>
       <use style="stroke:#000000;stroke-width:0.8;" x="72" xlink:href="#m34476bce04" y="369.36"/>
      </g>
     </g>
     <g id="text_8">
      <!-- 0.0 -->
      <g transform="translate(39.555 375.43875)scale(0.16 -0.16)">
       <use xlink:href="#DejaVuSans-48"/>
       <use x="63.623047" xlink:href="#DejaVuSans-46"/>
       <use x="95.410156" xlink:href="#DejaVuSans-48"/>
      </g>
     </g>
    </g>
    <g id="ytick_2">
     <g id="line2d_8">
      <g>
       <use style="stroke:#000000;stroke-width:0.8;" x="72" xlink:href="#m34476bce04" y="308.88"/>
      </g>
     </g>
     <g id="text_9">
      <!-- 0.2 -->
      <g transform="translate(39.555 314.95875)scale(0.16 -0.16)">
       <use xlink:href="#DejaVuSans-48"/>
       <use x="63.623047" xlink:href="#DejaVuSans-46"/>
       <use x="95.410156" xlink:href="#DejaVuSans-50"/>
      </g>
     </g>
    </g>
    <g id="ytick_3">
     <g id="line2d_9">
      <g>
       <use style="stroke:#000000;stroke-width:0.8;" x="72" xlink:href="#m34476bce04" y="248.4"/>
      </g>
     </g>
     <g id="text_10">
      <!-- 0.4 -->
      <g transform="translate(39.555 254.47875)scale(0.16 -0.16)">
       <use xlink:href="#DejaVuSans-48"/>
       <use x="63.623047" xlink:href="#DejaVuSans-46"/>
       <use x="95.410156" xlink:href="#DejaVuSans-52"/>
      </g>
     </g>
    </g>
    <g id="ytick_4">
     <g id="line2d_10">
      <g>
       <use style="stroke:#000000;stroke-width:0.8;" x="72" xlink:href="#m34476bce04" y="187.92"/>
      </g>
     </g>
     <g id="text_11">
      <!-- 0.6 -->
      <g transform="translate(39.555 193.99875)scale(0.16 -0.16)">
       <use xlink:href="#DejaVuSans-48"/>
       <use x="63.623047" xlink:href="#DejaVuSans-46"/>
       <use x="95.410156" xlink:href="#DejaVuSans-54"/>
      </g>
     </g>
    </g>
    <g id="ytick_5">
     <g id="line2d_11">
      <g>
       <use style="stroke:#000000;stroke-width:0.8;" x="72" xlink:href="#m34476bce04" y="127.44"/>
      </g>
     </g>
     <g id="text_12">
      <!-- 0.8 -->
      <g transform="translate(39.555 133.51875)scale(0.16 -0.16)">
       <use xlink:href="#DejaVuSans-48"/>
       <use x="63.623047" xlink:href="#DejaVuSans-46"/>
       <use x="95.410156" xlink:href="#DejaVuSans-56"/>
      </g>
     </g>
    </g>
    <g id="ytick_6">
     <g id="line2d_12">
      <g>
       <use style="stroke:#000000;stroke-width:0.8;" x="72" xlink:href="#m34476bce04" y="66.96"/>
      </g>
     </g>
     <g id="text_13">
      <!-- 1.0 -->
      <g transform="translate(39.555 73.03875)scale(0.16 -0.16)">
       <use xlink:href="#DejaVuSans-49"/>
       <use x="63.623047" xlink:href="#DejaVuSans-46"/>
       <use x="95.410156" xlink:href="#DejaVuSans-48"/>
      </g>
     </g>
    </g>
    <g id="text_14">
     <!-- True Positive Rate -->
     <g transform="translate(32.2275 289.4075)rotate(-90)scale(0.16 -0.16)">
      <defs>
       <path d="M -0.296875 72.90625 
L 61.375 72.90625 
L 61.375 64.59375 
L 35.5 64.59375 
L 35.5 0 
L 25.59375 0 
L 25.59375 64.59375 
L -0.296875 64.59375 
z
" id="DejaVuSans-84"/>
       <path d="M 41.109375 46.296875 
Q 39.59375 47.171875 37.8125 47.578125 
Q 36.03125 48 33.890625 48 
Q 26.265625 48 22.1875 43.046875 
Q 18.109375 38.09375 18.109375 28.8125 
L 18.109375 0 
L 9.078125 0 
L 9.078125 54.6875 
L 18.109375 54.6875 
L 18.109375 46.1875 
Q 20.953125 51.171875 25.484375 53.578125 
Q 30.03125 56 36.53125 56 
Q 37.453125 56 38.578125 55.875 
Q 39.703125 55.765625 41.0625 55.515625 
z
" id="DejaVuSans-114"/>
       <path d="M 8.5 21.578125 
L 8.5 54.6875 
L 17.484375 54.6875 
L 17.484375 21.921875 
Q 17.484375 14.15625 20.5 10.265625 
Q 23.53125 6.390625 29.59375 6.390625 
Q 36.859375 6.390625 41.078125 11.03125 
Q 45.3125 15.671875 45.3125 23.6875 
L 45.3125 54.6875 
L 54.296875 54.6875 
L 54.296875 0 
L 45.3125 0 
L 45.3125 8.40625 
Q 42.046875 3.421875 37.71875 1 
Q 33.40625 -1.421875 27.6875 -1.421875 
Q 18.265625 -1.421875 13.375 4.4375 
Q 8.5 10.296875 8.5 21.578125 
z
M 31.109375 56 
z
" id="DejaVuSans-117"/>
      </defs>
      <use xlink:href="#DejaVuSans-84"/>
      <use x="46.333984" xlink:href="#DejaVuSans-114"/>
      <use x="87.447266" xlink:href="#DejaVuSans-117"/>
      <use x="150.826172" xlink:href="#DejaVuSans-101"/>
      <use x="212.349609" xlink:href="#DejaVuSans-32"/>
      <use x="244.136719" xlink:href="#DejaVuSans-80"/>
      <use x="300.814453" xlink:href="#DejaVuSans-111"/>
      <use x="361.996094" xlink:href="#DejaVuSans-115"/>
      <use x="414.095703" xlink:href="#DejaVuSans-105"/>
      <use x="441.878906" xlink:href="#DejaVuSans-116"/>
      <use x="481.087891" xlink:href="#DejaVuSans-105"/>
      <use x="508.871094" xlink:href="#DejaVuSans-118"/>
      <use x="568.050781" xlink:href="#DejaVuSans-101"/>
      <use x="629.574219" xlink:href="#DejaVuSans-32"/>
      <use x="661.361328" xlink:href="#DejaVuSans-82"/>
      <use x="728.59375" xlink:href="#DejaVuSans-97"/>
      <use x="789.873047" xlink:href="#DejaVuSans-116"/>
      <use x="829.082031" xlink:href="#DejaVuSans-101"/>
     </g>
    </g>
   </g>
   <g id="line2d_13">
    <path clip-path="url(#p758d41e5bb)" d="M 92.290909 369.36 
L 498.109091 66.96 
" style="fill:none;stroke:#0000ff;stroke-linecap:square;stroke-width:1.5;"/>
   </g>
   <g id="line2d_14">
    <path clip-path="url(#p758d41e5bb)" d="M 92.290909 369.36 
L 92.401698 355.45767 
L 92.403269 355.429053 
L 92.403269 355.354647 
L 92.513665 346.471808 
L 92.516415 346.374509 
L 92.627204 338.373086 
L 92.631525 338.26434 
L 92.742314 331.407612 
L 92.744671 331.310313 
L 92.855459 324.934358 
L 92.860174 324.842782 
L 92.970962 319.142197 
L 92.97332 319.056345 
L 93.083715 313.407272 
L 93.087251 313.298526 
L 93.19804 307.855497 
L 93.20079 307.746751 
L 93.311578 302.675749 
L 93.31315 302.572726 
L 93.423546 298.331629 
L 93.425117 298.23433 
L 93.535906 294.113425 
L 93.540227 294.016126 
L 93.651016 289.116828 
L 93.656123 289.008082 
L 93.766912 285.035988 
L 93.77084 284.944412 
L 93.881629 281.315726 
L 93.8832 281.247045 
L 93.993989 277.589742 
L 93.999096 277.486719 
L 94.109885 274.189995 
L 94.116563 274.104143 
L 94.227352 270.567033 
L 94.229316 270.475458 
L 94.340105 267.43629 
L 94.341676 267.344715 
L 94.452465 264.208248 
L 94.455608 264.105226 
L 94.564825 261.460979 
L 94.566397 261.460979 
L 94.57229 261.357956 
L 94.682685 258.141361 
L 94.691721 258.032615 
L 94.802117 255.468496 
L 94.807224 255.365474 
L 94.918013 252.526628 
L 94.923906 252.423606 
L 94.923906 252.417882 
L 95.034694 249.790805 
L 95.04098 249.69923 
L 95.150197 246.740191 
L 95.158055 246.631445 
L 95.268843 244.010092 
L 95.273558 243.901346 
L 95.384346 241.898128 
L 95.390239 241.806552 
L 95.500635 239.236711 
L 95.51085 239.127964 
L 95.621245 236.86719 
L 95.62596 236.787062 
L 95.736748 234.640757 
L 95.743427 234.532011 
L 95.854216 232.225449 
L 95.856966 232.116703 
L 95.967754 229.62699 
L 95.973254 229.558308 
L 96.084043 227.360492 
L 96.089543 227.268916 
L 96.199546 225.277146 
L 96.209761 225.174123 
L 96.320549 222.879008 
L 96.326835 222.775986 
L 96.437231 220.818556 
L 96.444695 220.70981 
L 96.553519 219.038554 
L 96.554698 219.038554 
L 96.565305 218.964149 
L 96.676094 217.195594 
L 96.686309 217.086848 
L 96.797097 215.558679 
L 96.800633 215.484274 
L 96.911422 213.606973 
L 96.919672 213.509674 
L 97.029282 211.752566 
L 97.029675 211.752566 
L 97.043425 211.649543 
L 97.154214 209.777965 
L 97.162857 209.669219 
L 97.273645 207.751854 
L 97.279931 207.648831 
L 97.279931 207.643108 
L 97.39072 206.132109 
L 97.398184 206.03481 
L 97.398184 206.029087 
L 97.507401 204.071657 
L 97.507794 204.071657 
L 97.529009 203.974358 
L 97.639798 202.079886 
L 97.646869 201.994034 
L 97.757658 200.385737 
L 97.766694 200.276991 
L 97.877482 199.183806 
L 97.889268 199.07506 
L 97.998485 197.501103 
L 98.000057 197.501103 
L 98.009093 197.392357 
L 98.119881 195.726825 
L 98.132453 195.629526 
L 98.243242 193.860971 
L 98.254242 193.757948 
L 98.365031 192.338526 
L 98.373674 192.241226 
L 98.483284 190.735952 
L 98.493498 190.627205 
L 98.600751 189.2364 
L 98.60193 189.2364 
L 98.613716 189.133377 
L 98.724504 187.80553 
L 98.727647 187.719678 
L 98.838436 186.157169 
L 98.84865 186.048422 
L 98.959439 184.732022 
L 98.96651 184.657617 
L 98.96651 184.634723 
L 99.077299 183.455687 
L 99.086335 183.358387 
L 99.197124 181.979029 
L 99.210088 181.870283 
L 99.320484 180.656905 
L 99.336591 180.548159 
L 99.446594 179.340505 
L 99.460738 179.231759 
L 99.571133 178.109957 
L 99.571526 178.109957 
L 99.822175 175.477157 
L 99.932964 174.687317 
L 99.945536 174.578571 
L 100.055539 173.439599 
L 100.067325 173.336576 
L 100.176149 172.151816 
L 100.189506 172.04307 
L 100.300295 170.864033 
L 100.308152 170.766734 
L 100.308152 170.761011 
L 100.418941 169.810913 
L 100.440156 169.713614 
L 100.440156 169.702167 
L 100.550944 168.546024 
L 100.56548 168.443002 
L 100.675876 167.45284 
L 100.689234 167.344094 
L 100.799629 166.308144 
L 100.813773 166.199398 
L 100.924168 165.10049 
L 100.939097 164.997468 
L 101.049493 163.824154 
L 101.067958 163.732579 
L 101.177961 162.891227 
L 101.178746 162.891227 
L 101.199961 162.782481 
L 101.31075 161.912513 
L 101.319393 161.803766 
L 101.429788 160.859392 
L 101.445896 160.750646 
L 101.555113 159.697526 
L 101.572006 159.58878 
L 101.682009 158.747429 
L 101.697331 158.644406 
L 101.806155 157.831672 
L 101.807334 157.831672 
L 101.821477 157.734373 
L 101.932266 156.664083 
L 101.946016 156.555336 
L 102.054448 155.685368 
L 102.056805 155.685368 
L 102.083127 155.576622 
L 102.193915 154.683759 
L 102.206487 154.575013 
L 102.31649 153.722214 
L 102.338491 153.613468 
L 102.447708 152.726329 
L 102.487387 152.623307 
L 102.595033 151.530122 
L 102.596212 151.530122 
L 102.617819 151.432823 
L 102.617819 151.427099 
L 102.728608 150.780346 
L 102.750216 150.677324 
L 102.859433 149.950442 
L 102.871612 149.847419 
L 102.981614 149.097644 
L 102.996543 148.988898 
L 103.105368 148.31925 
L 103.106153 148.31925 
L 103.124225 148.210504 
L 103.235014 147.62671 
L 103.247978 147.523687 
L 103.358374 146.625101 
L 103.380768 146.516355 
L 103.491163 145.66928 
L 103.505699 145.560534 
L 103.615702 144.873716 
L 103.638488 144.76497 
L 103.748884 144.078153 
L 103.758706 143.969407 
L 103.869102 143.173843 
L 103.869494 143.173843 
L 103.886781 143.065097 
L 103.997569 142.361109 
L 104.01132 142.252363 
L 104.121715 141.594163 
L 104.14293 141.485417 
L 104.25254 140.758535 
L 104.276112 140.649789 
L 104.386508 140.088888 
L 104.409687 139.980142 
L 104.520476 139.333389 
L 104.53894 139.224643 
L 104.649336 138.543549 
L 104.661515 138.440526 
L 104.661515 138.434803 
L 104.771125 137.810944 
L 104.788804 137.702197 
L 104.898414 137.101232 
L 104.9212 136.992486 
L 105.031989 136.334286 
L 105.053204 136.231263 
L 105.159671 135.441423 
L 105.162028 135.441423 
L 105.1911 135.338401 
L 105.300317 134.714541 
L 105.301889 134.714541 
L 105.331747 134.605795 
L 105.442142 133.953319 
L 105.464143 133.850296 
L 105.574931 133.209267 
L 105.587896 133.10052 
L 105.697113 132.448044 
L 105.698685 132.448044 
L 105.715185 132.345021 
L 105.825581 131.709715 
L 105.848367 131.600969 
L 105.949334 131.091579 
L 105.95837 131.091579 
L 105.97762 130.982833 
L 106.088409 130.416209 
L 106.275807 129.294407 
L 106.298593 129.185661 
L 106.408203 128.636207 
L 106.432168 128.527461 
L 106.540206 128.058136 
L 106.542171 128.058136 
L 106.57635 127.94939 
L 106.686353 127.382765 
L 106.707961 127.274019 
L 106.817571 126.753183 
L 106.849786 126.644436 
L 106.959789 126.249516 
L 106.960574 126.249516 
L 106.980218 126.14077 
L 107.087471 125.682892 
L 107.090614 125.682892 
L 107.141293 125.574146 
L 107.251296 125.024692 
L 107.267011 124.921669 
L 107.376621 124.366492 
L 107.390764 124.257746 
L 107.550661 123.536587 
L 107.576198 123.433565 
L 107.686986 122.861217 
L 107.73688 122.752471 
L 107.847276 122.351827 
L 107.867705 122.243081 
L 107.978101 121.830991 
L 107.997351 121.727968 
L 108.105783 121.167067 
L 108.107747 121.167067 
L 108.128569 121.058321 
L 108.235036 120.663401 
L 108.237786 120.663401 
L 108.27668 120.554655 
L 108.385111 120.1025 
L 108.420077 119.993754 
L 108.523794 119.547323 
L 108.528508 119.547323 
L 108.564652 119.438577 
L 108.674262 119.03221 
L 108.713548 118.923464 
L 108.822766 118.528544 
L 108.853016 118.425521 
L 108.963019 117.961919 
L 109.036878 117.853173 
L 109.143738 117.45253 
L 109.147667 117.45253 
L 109.159846 117.343783 
L 109.269849 116.874458 
L 109.310314 116.765712 
L 109.419924 116.244876 
L 109.486711 116.136129 
L 109.595143 115.861402 
L 109.656823 115.752656 
L 109.767611 115.374907 
L 109.794326 115.266161 
L 109.903936 114.842623 
L 109.939294 114.733877 
L 110.047726 114.350404 
L 110.050083 114.350404 
L 110.079155 114.241658 
L 110.189158 113.778056 
L 110.189551 113.778056 
L 110.225695 113.675034 
L 110.335698 113.343072 
L 110.363591 113.234326 
L 110.47438 112.856576 
L 110.49363 112.74783 
L 110.602062 112.410145 
L 110.635848 112.301399 
L 110.741922 111.84352 
L 110.74428 111.84352 
L 110.768637 111.734774 
L 110.876283 111.460047 
L 110.879426 111.460047 
L 110.899462 111.351301 
L 111.010251 111.059404 
L 111.057002 110.950658 
L 111.167791 110.675931 
L 111.197256 110.572908 
L 111.306866 110.298181 
L 111.340652 110.189435 
L 111.446726 109.857473 
L 111.502513 109.748727 
L 111.609766 109.468277 
L 111.612123 109.468277 
L 111.639624 109.359531 
L 111.745698 109.021845 
L 111.748448 109.021845 
L 111.772806 108.913099 
L 111.877702 108.758565 
L 111.883595 108.758565 
L 111.922489 108.649819 
L 112.029349 108.363645 
L 112.091029 108.254899 
L 112.201817 107.89432 
L 112.238747 107.791297 
L 112.347178 107.442165 
L 112.393929 107.333419 
L 112.497646 107.007181 
L 112.504325 107.007181 
L 112.551862 106.898435 
L 112.662651 106.600814 
L 112.707438 106.492068 
L 112.818226 106.217341 
L 112.854763 106.108595 
L 112.961623 105.822421 
L 113.004838 105.719398 
L 113.106591 105.39316 
L 113.114448 105.39316 
L 113.166699 105.284414 
L 113.277095 105.049751 
L 113.323061 104.946728 
L 113.427563 104.683448 
L 113.428742 104.683448 
L 113.490422 104.580426 
L 113.600818 104.34004 
L 113.637354 104.242741 
L 113.746572 103.973737 
L 113.747357 103.973737 
L 113.806287 103.864991 
L 113.917076 103.601711 
L 113.987399 103.492965 
L 114.091116 103.229685 
L 114.095438 103.229685 
L 114.144939 103.120939 
L 114.254156 102.892 
L 114.306015 102.783254 
L 114.415232 102.594379 
L 114.416017 102.594379 
L 114.477305 102.485633 
L 114.586129 102.262417 
L 114.652916 102.153671 
L 114.759776 101.798815 
L 114.763705 101.798815 
L 114.8301 101.690069 
L 114.940102 101.392448 
L 114.992747 101.283702 
L 115.103142 101.020422 
L 115.196645 100.911676 
L 115.30429 100.619779 
L 115.349077 100.511032 
L 115.450437 100.253476 
L 115.459473 100.253476 
L 115.52076 100.14473 
L 115.628406 99.921514 
L 115.631156 99.921514 
L 115.679086 99.812768 
L 115.786339 99.629617 
L 115.789482 99.629617 
L 115.854305 99.520871 
L 115.962736 99.24042 
L 115.964308 99.24042 
L 116.014987 99.137398 
L 116.123419 98.954246 
L 116.125776 98.954246 
L 116.179992 98.8455 
L 116.29078 98.668072 
L 116.354425 98.559326 
L 116.458927 98.416239 
L 116.459713 98.416239 
L 116.528072 98.307493 
L 116.636111 98.112895 
L 116.638468 98.112895 
L 116.692684 98.004149 
L 116.802686 97.80955 
L 116.877331 97.700804 
L 116.981834 97.494759 
L 116.986155 97.494759 
L 117.05805 97.386013 
L 117.161767 97.157074 
L 117.164124 97.157074 
L 117.295342 97.048328 
L 117.396702 96.905241 
L 117.404952 96.905241 
L 117.470954 96.796495 
L 117.578599 96.550385 
L 117.646958 96.441639 
L 117.749104 96.22987 
L 117.81157 96.121124 
L 117.920001 95.926526 
L 117.920787 95.926526 
L 117.99386 95.81778 
L 118.094434 95.594564 
L 118.101506 95.594564 
L 118.202865 95.485818 
L 118.298332 95.354178 
L 118.313654 95.354178 
L 118.379263 95.251155 
L 118.485337 95.062281 
L 118.490051 95.062281 
L 118.556053 94.953535 
L 118.655841 94.76466 
L 118.666449 94.76466 
L 118.746987 94.661637 
L 118.849132 94.541444 
L 118.853061 94.541444 
L 118.965028 94.432698 
L 119.072281 94.243823 
L 119.075424 94.243823 
L 119.178748 94.135077 
L 119.288751 93.951926 
L 119.375967 93.84318 
L 119.486756 93.660028 
L 119.535471 93.551282 
L 119.642724 93.396748 
L 119.733869 93.293726 
L 119.839158 93.150639 
L 119.844265 93.150639 
L 119.920088 93.041893 
L 120.028913 92.93887 
L 120.030877 92.93887 
L 120.091771 92.841571 
L 120.200989 92.681314 
L 120.294491 92.572567 
L 120.395851 92.423757 
L 120.404494 92.423757 
L 120.462245 92.315011 
L 120.569105 92.217712 
L 120.571462 92.217712 
L 120.723502 92.108966 
L 120.833898 91.920091 
L 120.925436 91.811345 
L 121.01501 91.719769 
L 121.021688 91.719769 
L 121.128155 91.611023 
L 121.229122 91.462213 
L 121.238158 91.462213 
L 121.318696 91.353466 
L 121.42752 91.204656 
L 121.428699 91.204656 
L 121.544988 91.09591 
L 121.651455 90.958546 
L 121.654205 90.958546 
L 121.770886 90.8498 
L 121.876175 90.660926 
L 121.880889 90.660926 
L 121.977142 90.552179 
L 122.086359 90.351858 
L 122.08793 90.351858 
L 122.188504 90.243112 
L 122.299293 90.128642 
L 122.388081 90.025619 
L 122.388081 90.019896 
L 122.514977 89.905426 
L 122.646195 89.79668 
L 122.756198 89.670764 
L 122.879951 89.562018 
L 122.986811 89.447548 
L 122.989168 89.447548 
L 123.06892 89.344525 
L 123.179709 89.201438 
L 123.282247 89.092692 
L 123.391464 88.978223 
L 123.562754 88.869477 
L 123.6704 88.674878 
L 123.67315 88.674878 
L 123.766652 88.566132 
L 123.871548 88.48028 
L 123.877048 88.48028 
L 124.01573 88.371534 
L 124.124162 88.222724 
L 124.238093 88.113977 
L 124.339453 87.999508 
L 124.348882 87.999508 
L 124.447491 87.890762 
L 124.555923 87.799186 
L 124.669461 87.69044 
L 124.770428 87.570247 
L 124.7775 87.570247 
L 124.841537 87.467224 
L 124.940933 87.375649 
L 124.951933 87.375649 
L 125.088258 87.266903 
L 125.192368 87.198221 
L 125.196296 87.198221 
L 125.272906 87.089475 
L 125.382516 86.957835 
L 125.382908 86.957835 
L 125.495661 86.849089 
L 125.602128 86.717449 
L 125.606057 86.717449 
L 125.766347 86.608703 
L 125.869278 86.52285 
L 125.873993 86.52285 
L 126.008746 86.414104 
L 126.116785 86.316805 
L 126.119535 86.316805 
L 126.231109 86.208059 
L 126.336397 86.064972 
L 126.338362 86.064972 
L 126.464472 85.956226 
L 126.572118 85.84748 
L 126.574868 85.84748 
L 126.675049 85.738734 
L 126.777195 85.641435 
L 126.783088 85.641435 
L 126.877769 85.532689 
L 126.985021 85.458283 
L 126.985807 85.458283 
L 127.205027 85.349537 
L 127.313851 85.235068 
L 127.42464 85.126322 
L 127.533464 85.023299 
L 127.53425 85.023299 
L 127.656432 84.914553 
L 127.765256 84.817254 
L 127.766434 84.817254 
L 127.990369 84.708508 
L 128.075228 84.67989 
L 128.099586 84.67989 
L 128.235518 84.571144 
L 128.343556 84.445228 
L 128.457881 84.342205 
L 128.563955 84.244906 
L 128.567098 84.244906 
L 128.739567 84.13616 
L 128.84682 84.061755 
L 128.84957 84.061755 
L 128.969787 83.953008 
L 129.070361 83.895774 
L 129.080576 83.895774 
L 129.241651 83.787028 
L 129.344582 83.701175 
L 129.352047 83.701175 
L 129.501729 83.592429 
L 129.586982 83.529471 
L 129.605446 83.529471 
L 129.786558 83.426448 
L 129.895382 83.277638 
L 129.896954 83.277638 
L 130.065887 83.174615 
L 130.169211 83.077316 
L 130.171568 83.077316 
L 130.368395 82.96857 
L 130.466611 82.876994 
L 130.479183 82.876994 
L 130.635152 82.768248 
L 130.743976 82.676673 
L 130.745154 82.676673 
L 130.934909 82.567927 
L 131.042555 82.487798 
L 131.044519 82.487798 
L 131.196559 82.379052 
L 131.301454 82.287476 
L 131.307347 82.287476 
L 131.427565 82.17873 
L 131.522246 82.075707 
L 131.537568 82.075707 
L 131.755216 81.966961 
L 131.840076 81.863939 
L 131.865219 81.863939 
L 132.042009 81.755193 
L 132.142191 81.692234 
L 132.253372 81.583488 
L 132.362982 81.554871 
L 132.50245 81.446125 
L 132.597524 81.38889 
L 132.607345 81.38889 
L 132.73267 81.280144 
L 132.840709 81.194292 
L 132.84228 81.194292 
L 133.041071 81.085546 
L 133.142431 81.005417 
L 133.150288 81.005417 
L 133.340436 80.896671 
L 133.44651 80.839436 
L 133.451224 80.839436 
L 133.662194 80.73069 
L 133.77259 80.656285 
L 133.937201 80.547539 
L 134.035418 80.48458 
L 134.04799 80.48458 
L 134.297461 80.375834 
L 134.399999 80.312876 
L 134.407463 80.312876 
L 134.531609 80.20413 
L 134.633755 80.152619 
L 134.638077 80.152619 
L 134.893047 80.043872 
L 134.997943 79.975191 
L 135.001479 79.975191 
L 135.367631 79.866445 
L 135.478027 79.774869 
L 135.675246 79.666123 
L 135.783678 79.585994 
L 135.785249 79.585994 
L 135.945539 79.477248 
L 136.018612 79.41429 
L 136.05397 79.41429 
L 136.246868 79.305544 
L 136.354514 79.231138 
L 136.636985 79.122392 
L 136.725381 79.070881 
L 136.747774 79.070881 
L 136.924564 78.962135 
L 137.009816 78.916347 
L 137.014924 78.916347 
L 137.196821 78.807601 
L 137.298967 78.710302 
L 137.307217 78.710302 
L 137.649012 78.601556 
L 137.7433 78.567215 
L 137.757836 78.567215 
L 138.041879 78.458469 
L 138.151882 78.384064 
L 138.425317 78.275317 
L 138.52982 78.183742 
L 138.53532 78.183742 
L 138.839007 78.074996 
L 138.938009 78.017761 
L 138.948617 78.017761 
L 139.126193 77.909015 
L 139.213802 77.857504 
L 139.229517 77.857504 
L 139.528489 77.748757 
L 139.636527 77.714417 
L 139.639277 77.714417 
L 140.127611 77.60567 
L 140.206971 77.559883 
L 140.237614 77.559883 
L 140.529122 77.451137 
L 140.619874 77.416796 
L 140.63991 77.416796 
L 140.917668 77.30805 
L 141.01392 77.256538 
L 141.026885 77.256538 
L 141.279498 77.159239 
L 141.279498 77.153516 
L 141.333321 77.119175 
L 141.388716 77.119175 
L 141.640936 77.010429 
L 141.71401 76.976088 
L 141.751725 76.976088 
L 142.049518 76.867342 
L 142.061697 76.850171 
L 142.159521 76.850171 
L 142.619569 76.741425 
L 142.655713 76.718531 
L 142.678499 76.718531 
L 143.022651 76.609785 
L 143.108689 76.569721 
L 143.133439 76.569721 
L 143.614702 76.466698 
L 143.721169 76.409463 
L 143.973782 76.300717 
L 144.077499 76.266376 
L 144.084571 76.266376 
L 144.302612 76.15763 
L 144.404365 76.129013 
L 144.411829 76.129013 
L 144.747731 76.020267 
L 144.836126 75.974479 
L 144.85577 75.974479 
L 145.2231 75.865733 
L 145.328782 75.842839 
L 145.33271 75.842839 
L 145.623825 75.734093 
L 145.733828 75.676858 
L 146.04105 75.573836 
L 146.135731 75.510877 
L 146.151839 75.510877 
L 146.536849 75.402131 
L 146.613065 75.362067 
L 146.647244 75.362067 
L 147.153258 75.253321 
L 147.261689 75.201809 
L 147.262475 75.201809 
L 147.779881 75.093063 
L 147.779881 75.08734 
L 147.885955 75.08734 
L 148.406504 74.978594 
L 148.462291 74.967147 
L 148.516507 74.967147 
L 149.081843 74.858401 
L 149.090879 74.846954 
L 149.192239 74.846954 
L 149.735967 74.738208 
L 149.804719 74.70959 
L 149.846363 74.70959 
L 150.246695 74.600844 
L 150.332733 74.543609 
L 150.357091 74.543609 
L 150.757029 74.434863 
L 150.865854 74.417693 
L 150.867425 74.417693 
L 151.275221 74.308947 
L 151.365188 74.274606 
L 151.384439 74.274606 
L 151.712483 74.177307 
L 151.712483 74.16586 
L 151.78752 74.137242 
L 151.822093 74.137242 
L 152.187852 74.028496 
L 152.251497 74.011326 
L 152.288819 74.011326 
L 152.922907 73.90258 
L 153.023481 73.879686 
L 153.033696 73.879686 
L 153.624961 73.77094 
L 153.729856 73.736599 
L 153.733392 73.736599 
L 154.171046 73.627853 
L 154.250798 73.604959 
L 154.280263 73.604959 
L 155.231002 73.496213 
L 155.327648 73.467595 
L 155.341005 73.467595 
L 155.987272 73.358849 
L 156.094918 73.324508 
L 156.097668 73.324508 
L 156.894795 73.215762 
L 156.969833 73.187145 
L 157.004798 73.187145 
L 157.584278 73.078399 
L 157.662458 73.044058 
L 157.695066 73.044058 
L 158.437192 72.935312 
L 158.540909 72.878077 
L 159.096817 72.775054 
L 159.196212 72.746437 
L 159.207212 72.746437 
L 159.751727 72.637691 
L 159.765084 72.626244 
L 159.861336 72.626244 
L 161.034438 72.517498 
L 161.140512 72.48888 
L 161.145227 72.48888 
L 162.135645 72.380134 
L 162.223255 72.35724 
L 162.246041 72.35724 
L 163.143743 72.254218 
L 163.252174 72.2256 
L 163.254531 72.2256 
L 163.801403 72.116854 
L 163.908263 72.088237 
L 164.858216 71.979491 
L 164.954468 71.94515 
L 164.969004 71.94515 
L 165.860813 71.836404 
L 165.94253 71.819233 
L 165.97003 71.819233 
L 166.909376 71.710487 
L 166.909376 71.704764 
L 167.019379 71.704764 
L 168.135908 71.596018 
L 168.210945 71.573124 
L 168.246696 71.573124 
L 169.307045 71.464378 
L 169.386797 71.447207 
L 169.415869 71.447207 
L 170.310821 71.338461 
L 170.37918 71.309844 
L 170.417288 71.309844 
L 171.595104 71.201098 
L 171.681535 71.183927 
L 171.705107 71.183927 
L 172.716348 71.075181 
L 172.735598 71.063734 
L 172.825958 71.063734 
L 174.080383 70.954988 
L 174.107491 70.943541 
L 174.184886 70.943541 
L 175.312022 70.834795 
L 175.396096 70.817625 
L 175.416525 70.817625 
L 176.508303 70.708879 
L 176.579805 70.691708 
L 176.616734 70.691708 
L 178.234562 70.582962 
L 178.333565 70.560068 
L 178.345351 70.560068 
L 180.299865 70.451322 
L 180.325009 70.439875 
L 180.409868 70.439875 
L 182.057554 70.331129 
L 182.057554 70.325406 
L 182.157735 70.325406 
L 183.759062 70.216659 
L 183.759062 70.210936 
L 183.869458 70.210936 
L 185.803151 70.10219 
L 185.803151 70.096466 
L 185.854616 70.096466 
L 187.729379 69.98772 
L 187.729379 69.976273 
L 187.839775 69.976273 
L 189.379422 69.867527 
L 189.379422 69.861804 
L 189.485496 69.861804 
L 190.919462 69.753058 
L 190.919462 69.747334 
L 191.03025 69.747334 
L 192.766724 69.638588 
L 192.818582 69.627141 
L 192.871619 69.627141 
L 194.645022 69.518395 
L 194.707488 69.501225 
L 194.755418 69.501225 
L 198.009145 69.392478 
L 198.037432 69.381032 
L 198.117969 69.381032 
L 200.91322 69.272285 
L 201.019687 69.255115 
L 203.585504 69.146369 
L 203.668399 69.134922 
L 203.6959 69.134922 
L 207.18024 69.026176 
L 207.263528 69.014729 
L 207.28985 69.014729 
L 210.056421 68.905983 
L 210.160924 68.888812 
L 210.166817 68.888812 
L 214.338675 68.780066 
L 214.428642 68.768619 
L 214.448678 68.768619 
L 218.284634 68.659873 
L 218.383637 68.642703 
L 218.39503 68.642703 
L 222.489886 68.533957 
L 222.535066 68.52251 
L 222.599889 68.52251 
L 226.880964 68.413764 
L 226.937144 68.402317 
L 226.990574 68.402317 
L 229.550104 68.293571 
L 229.550104 68.287847 
L 229.655393 68.287847 
L 235.694549 68.179101 
L 235.769194 68.167654 
L 235.804552 68.167654 
L 246.900303 68.058908 
L 246.900303 68.053184 
L 247.009913 68.053184 
L 259.259909 67.944438 
L 259.259909 67.938715 
L 259.370305 67.938715 
L 267.200936 67.829969 
L 267.200936 67.824245 
L 267.309367 67.824245 
L 274.087114 67.715499 
L 274.121294 67.704052 
L 274.197903 67.704052 
L 285.327048 67.595306 
L 285.327048 67.589583 
L 285.431944 67.589583 
L 300.184111 67.480837 
L 300.184111 67.475113 
L 300.292543 67.475113 
L 317.431379 67.366367 
L 317.431379 67.360644 
L 317.52056 67.360644 
L 341.429286 67.251897 
L 341.429286 67.246174 
L 341.539289 67.246174 
L 375.630742 67.137428 
L 375.630742 67.131704 
L 375.734852 67.131704 
L 426.182551 67.022958 
L 426.182551 67.017235 
L 426.293339 67.017235 
L 498.109091 66.96 
L 498.109091 66.96 
" style="fill:none;stroke:#ff0000;stroke-linecap:square;stroke-width:1.5;"/>
   </g>
   <g id="patch_3">
    <path d="M 72 384.48 
L 72 51.84 
" style="fill:none;stroke:#000000;stroke-linecap:square;stroke-linejoin:miter;stroke-width:0.8;"/>
   </g>
   <g id="patch_4">
    <path d="M 518.4 384.48 
L 518.4 51.84 
" style="fill:none;stroke:#000000;stroke-linecap:square;stroke-linejoin:miter;stroke-width:0.8;"/>
   </g>
   <g id="patch_5">
    <path d="M 72 384.48 
L 518.4 384.48 
" style="fill:none;stroke:#000000;stroke-linecap:square;stroke-linejoin:miter;stroke-width:0.8;"/>
   </g>
   <g id="patch_6">
    <path d="M 72 51.84 
L 518.4 51.84 
" style="fill:none;stroke:#000000;stroke-linecap:square;stroke-linejoin:miter;stroke-width:0.8;"/>
   </g>
   <g id="text_15">
    <!-- ROC Curves -->
    <g transform="translate(237.894 45.84)scale(0.192 -0.192)">
     <defs>
      <path d="M 39.40625 66.21875 
Q 28.65625 66.21875 22.328125 58.203125 
Q 16.015625 50.203125 16.015625 36.375 
Q 16.015625 22.609375 22.328125 14.59375 
Q 28.65625 6.59375 39.40625 6.59375 
Q 50.140625 6.59375 56.421875 14.59375 
Q 62.703125 22.609375 62.703125 36.375 
Q 62.703125 50.203125 56.421875 58.203125 
Q 50.140625 66.21875 39.40625 66.21875 
z
M 39.40625 74.21875 
Q 54.734375 74.21875 63.90625 63.9375 
Q 73.09375 53.65625 73.09375 36.375 
Q 73.09375 19.140625 63.90625 8.859375 
Q 54.734375 -1.421875 39.40625 -1.421875 
Q 24.03125 -1.421875 14.8125 8.828125 
Q 5.609375 19.09375 5.609375 36.375 
Q 5.609375 53.65625 14.8125 63.9375 
Q 24.03125 74.21875 39.40625 74.21875 
z
" id="DejaVuSans-79"/>
      <path d="M 64.40625 67.28125 
L 64.40625 56.890625 
Q 59.421875 61.53125 53.78125 63.8125 
Q 48.140625 66.109375 41.796875 66.109375 
Q 29.296875 66.109375 22.65625 58.46875 
Q 16.015625 50.828125 16.015625 36.375 
Q 16.015625 21.96875 22.65625 14.328125 
Q 29.296875 6.6875 41.796875 6.6875 
Q 48.140625 6.6875 53.78125 8.984375 
Q 59.421875 11.28125 64.40625 15.921875 
L 64.40625 5.609375 
Q 59.234375 2.09375 53.4375 0.328125 
Q 47.65625 -1.421875 41.21875 -1.421875 
Q 24.65625 -1.421875 15.125 8.703125 
Q 5.609375 18.84375 5.609375 36.375 
Q 5.609375 53.953125 15.125 64.078125 
Q 24.65625 74.21875 41.21875 74.21875 
Q 47.75 74.21875 53.53125 72.484375 
Q 59.328125 70.75 64.40625 67.28125 
z
" id="DejaVuSans-67"/>
     </defs>
     <use xlink:href="#DejaVuSans-82"/>
     <use x="69.482422" xlink:href="#DejaVuSans-79"/>
     <use x="148.193359" xlink:href="#DejaVuSans-67"/>
     <use x="218.017578" xlink:href="#DejaVuSans-32"/>
     <use x="249.804688" xlink:href="#DejaVuSans-67"/>
     <use x="319.628906" xlink:href="#DejaVuSans-117"/>
     <use x="383.007812" xlink:href="#DejaVuSans-114"/>
     <use x="424.121094" xlink:href="#DejaVuSans-118"/>
     <use x="483.300781" xlink:href="#DejaVuSans-101"/>
     <use x="544.824219" xlink:href="#DejaVuSans-115"/>
    </g>
   </g>
   <g id="legend_1">
    <g id="patch_7">
     <path d="M 388.9825 376.48 
L 507.2 376.48 
Q 510.4 376.48 510.4 373.28 
L 510.4 327.91 
Q 510.4 324.71 507.2 324.71 
L 388.9825 324.71 
Q 385.7825 324.71 385.7825 327.91 
L 385.7825 373.28 
Q 385.7825 376.48 388.9825 376.48 
z
" style="fill:#ffffff;opacity:0.8;stroke:#cccccc;stroke-linejoin:miter;"/>
    </g>
    <g id="line2d_15">
     <path d="M 392.1825 337.6675 
L 424.1825 337.6675 
" style="fill:none;stroke:#0000ff;stroke-linecap:square;stroke-width:1.5;"/>
    </g>
    <g id="line2d_16"/>
    <g id="text_16">
     <!-- baseline -->
     <g transform="translate(436.9825 343.2675)scale(0.16 -0.16)">
      <defs>
       <path d="M 48.6875 27.296875 
Q 48.6875 37.203125 44.609375 42.84375 
Q 40.53125 48.484375 33.40625 48.484375 
Q 26.265625 48.484375 22.1875 42.84375 
Q 18.109375 37.203125 18.109375 27.296875 
Q 18.109375 17.390625 22.1875 11.75 
Q 26.265625 6.109375 33.40625 6.109375 
Q 40.53125 6.109375 44.609375 11.75 
Q 48.6875 17.390625 48.6875 27.296875 
z
M 18.109375 46.390625 
Q 20.953125 51.265625 25.265625 53.625 
Q 29.59375 56 35.59375 56 
Q 45.5625 56 51.78125 48.09375 
Q 58.015625 40.1875 58.015625 27.296875 
Q 58.015625 14.40625 51.78125 6.484375 
Q 45.5625 -1.421875 35.59375 -1.421875 
Q 29.59375 -1.421875 25.265625 0.953125 
Q 20.953125 3.328125 18.109375 8.203125 
L 18.109375 0 
L 9.078125 0 
L 9.078125 75.984375 
L 18.109375 75.984375 
z
" id="DejaVuSans-98"/>
       <path d="M 54.890625 33.015625 
L 54.890625 0 
L 45.90625 0 
L 45.90625 32.71875 
Q 45.90625 40.484375 42.875 44.328125 
Q 39.84375 48.1875 33.796875 48.1875 
Q 26.515625 48.1875 22.3125 43.546875 
Q 18.109375 38.921875 18.109375 30.90625 
L 18.109375 0 
L 9.078125 0 
L 9.078125 54.6875 
L 18.109375 54.6875 
L 18.109375 46.1875 
Q 21.34375 51.125 25.703125 53.5625 
Q 30.078125 56 35.796875 56 
Q 45.21875 56 50.046875 50.171875 
Q 54.890625 44.34375 54.890625 33.015625 
z
" id="DejaVuSans-110"/>
      </defs>
      <use xlink:href="#DejaVuSans-98"/>
      <use x="63.476562" xlink:href="#DejaVuSans-97"/>
      <use x="124.755859" xlink:href="#DejaVuSans-115"/>
      <use x="176.855469" xlink:href="#DejaVuSans-101"/>
      <use x="238.378906" xlink:href="#DejaVuSans-108"/>
      <use x="266.162109" xlink:href="#DejaVuSans-105"/>
      <use x="293.945312" xlink:href="#DejaVuSans-110"/>
      <use x="357.324219" xlink:href="#DejaVuSans-101"/>
     </g>
    </g>
    <g id="line2d_17">
     <path d="M 392.1825 361.1525 
L 424.1825 361.1525 
" style="fill:none;stroke:#ff0000;stroke-linecap:square;stroke-width:1.5;"/>
    </g>
    <g id="line2d_18"/>
    <g id="text_17">
     <!-- model -->
     <g transform="translate(436.9825 366.7525)scale(0.16 -0.16)">
      <defs>
       <path d="M 52 44.1875 
Q 55.375 50.25 60.0625 53.125 
Q 64.75 56 71.09375 56 
Q 79.640625 56 84.28125 50.015625 
Q 88.921875 44.046875 88.921875 33.015625 
L 88.921875 0 
L 79.890625 0 
L 79.890625 32.71875 
Q 79.890625 40.578125 77.09375 44.375 
Q 74.3125 48.1875 68.609375 48.1875 
Q 61.625 48.1875 57.5625 43.546875 
Q 53.515625 38.921875 53.515625 30.90625 
L 53.515625 0 
L 44.484375 0 
L 44.484375 32.71875 
Q 44.484375 40.625 41.703125 44.40625 
Q 38.921875 48.1875 33.109375 48.1875 
Q 26.21875 48.1875 22.15625 43.53125 
Q 18.109375 38.875 18.109375 30.90625 
L 18.109375 0 
L 9.078125 0 
L 9.078125 54.6875 
L 18.109375 54.6875 
L 18.109375 46.1875 
Q 21.1875 51.21875 25.484375 53.609375 
Q 29.78125 56 35.6875 56 
Q 41.65625 56 45.828125 52.96875 
Q 50 49.953125 52 44.1875 
z
" id="DejaVuSans-109"/>
       <path d="M 45.40625 46.390625 
L 45.40625 75.984375 
L 54.390625 75.984375 
L 54.390625 0 
L 45.40625 0 
L 45.40625 8.203125 
Q 42.578125 3.328125 38.25 0.953125 
Q 33.9375 -1.421875 27.875 -1.421875 
Q 17.96875 -1.421875 11.734375 6.484375 
Q 5.515625 14.40625 5.515625 27.296875 
Q 5.515625 40.1875 11.734375 48.09375 
Q 17.96875 56 27.875 56 
Q 33.9375 56 38.25 53.625 
Q 42.578125 51.265625 45.40625 46.390625 
z
M 14.796875 27.296875 
Q 14.796875 17.390625 18.875 11.75 
Q 22.953125 6.109375 30.078125 6.109375 
Q 37.203125 6.109375 41.296875 11.75 
Q 45.40625 17.390625 45.40625 27.296875 
Q 45.40625 37.203125 41.296875 42.84375 
Q 37.203125 48.484375 30.078125 48.484375 
Q 22.953125 48.484375 18.875 42.84375 
Q 14.796875 37.203125 14.796875 27.296875 
z
" id="DejaVuSans-100"/>
      </defs>
      <use xlink:href="#DejaVuSans-109"/>
      <use x="97.412109" xlink:href="#DejaVuSans-111"/>
      <use x="158.59375" xlink:href="#DejaVuSans-100"/>
      <use x="222.070312" xlink:href="#DejaVuSans-101"/>
      <use x="283.59375" xlink:href="#DejaVuSans-108"/>
     </g>
    </g>
   </g>
  </g>
 </g>
 <defs>
  <clipPath id="p758d41e5bb">
   <rect height="332.64" width="446.4" x="72" y="51.84"/>
  </clipPath>
 </defs>
</svg>
