<?xml version="1.0" encoding="utf-8" standalone="no"?>
<!DOCTYPE svg PUBLIC "-//W3C//DTD SVG 1.1//EN"
  "http://www.w3.org/Graphics/SVG/1.1/DTD/svg11.dtd">
<!-- Created with matplotlib (https://matplotlib.org/) -->
<svg height="432pt" version="1.1" viewBox="0 0 576 432" width="576pt" xmlns="http://www.w3.org/2000/svg" xmlns:xlink="http://www.w3.org/1999/xlink">
 <metadata>
  <rdf:RDF xmlns:cc="http://creativecommons.org/ns#" xmlns:dc="http://purl.org/dc/elements/1.1/" xmlns:rdf="http://www.w3.org/1999/02/22-rdf-syntax-ns#">
   <cc:Work>
    <dc:type rdf:resource="http://purl.org/dc/dcmitype/StillImage"/>
    <dc:date>2020-09-26T12:17:12.416465</dc:date>
    <dc:format>image/svg+xml</dc:format>
    <dc:creator>
     <cc:Agent>
      <dc:title>Matplotlib v3.3.0, https://matplotlib.org/</dc:title>
     </cc:Agent>
    </dc:creator>
   </cc:Work>
  </rdf:RDF>
 </metadata>
 <defs>
  <style type="text/css">*{stroke-linecap:butt;stroke-linejoin:round;}</style>
 </defs>
 <g id="figure_1">
  <g id="patch_1">
   <path d="M 0 432 
L 576 432 
L 576 0 
L 0 0 
z
" style="fill:#ffffff;"/>
  </g>
  <g id="axes_1">
   <g id="patch_2">
    <path d="M 72 384.48 
L 518.4 384.48 
L 518.4 51.84 
L 72 51.84 
z
" style="fill:#ffffff;"/>
   </g>
   <g id="matplotlib.axis_1">
    <g id="xtick_1">
     <g id="line2d_1">
      <defs>
       <path d="M 0 0 
L 0 3.5 
" id="m0d5aa78303" style="stroke:#000000;stroke-width:0.8;"/>
      </defs>
      <g>
       <use style="stroke:#000000;stroke-width:0.8;" x="92.290909" xlink:href="#m0d5aa78303" y="384.48"/>
      </g>
     </g>
     <g id="text_1">
      <!-- 0.0 -->
      <g transform="translate(79.568409 403.6375)scale(0.16 -0.16)">
       <defs>
        <path d="M 31.78125 66.40625 
Q 24.171875 66.40625 20.328125 58.90625 
Q 16.5 51.421875 16.5 36.375 
Q 16.5 21.390625 20.328125 13.890625 
Q 24.171875 6.390625 31.78125 6.390625 
Q 39.453125 6.390625 43.28125 13.890625 
Q 47.125 21.390625 47.125 36.375 
Q 47.125 51.421875 43.28125 58.90625 
Q 39.453125 66.40625 31.78125 66.40625 
z
M 31.78125 74.21875 
Q 44.046875 74.21875 50.515625 64.515625 
Q 56.984375 54.828125 56.984375 36.375 
Q 56.984375 17.96875 50.515625 8.265625 
Q 44.046875 -1.421875 31.78125 -1.421875 
Q 19.53125 -1.421875 13.0625 8.265625 
Q 6.59375 17.96875 6.59375 36.375 
Q 6.59375 54.828125 13.0625 64.515625 
Q 19.53125 74.21875 31.78125 74.21875 
z
" id="DejaVuSans-48"/>
        <path d="M 10.6875 12.40625 
L 21 12.40625 
L 21 0 
L 10.6875 0 
z
" id="DejaVuSans-46"/>
       </defs>
       <use xlink:href="#DejaVuSans-48"/>
       <use x="63.623047" xlink:href="#DejaVuSans-46"/>
       <use x="95.410156" xlink:href="#DejaVuSans-48"/>
      </g>
     </g>
    </g>
    <g id="xtick_2">
     <g id="line2d_2">
      <g>
       <use style="stroke:#000000;stroke-width:0.8;" x="173.454545" xlink:href="#m0d5aa78303" y="384.48"/>
      </g>
     </g>
     <g id="text_2">
      <!-- 0.2 -->
      <g transform="translate(160.732045 403.6375)scale(0.16 -0.16)">
       <defs>
        <path d="M 19.1875 8.296875 
L 53.609375 8.296875 
L 53.609375 0 
L 7.328125 0 
L 7.328125 8.296875 
Q 12.9375 14.109375 22.625 23.890625 
Q 32.328125 33.6875 34.8125 36.53125 
Q 39.546875 41.84375 41.421875 45.53125 
Q 43.3125 49.21875 43.3125 52.78125 
Q 43.3125 58.59375 39.234375 62.25 
Q 35.15625 65.921875 28.609375 65.921875 
Q 23.96875 65.921875 18.8125 64.3125 
Q 13.671875 62.703125 7.8125 59.421875 
L 7.8125 69.390625 
Q 13.765625 71.78125 18.9375 73 
Q 24.125 74.21875 28.421875 74.21875 
Q 39.75 74.21875 46.484375 68.546875 
Q 53.21875 62.890625 53.21875 53.421875 
Q 53.21875 48.921875 51.53125 44.890625 
Q 49.859375 40.875 45.40625 35.40625 
Q 44.1875 33.984375 37.640625 27.21875 
Q 31.109375 20.453125 19.1875 8.296875 
z
" id="DejaVuSans-50"/>
       </defs>
       <use xlink:href="#DejaVuSans-48"/>
       <use x="63.623047" xlink:href="#DejaVuSans-46"/>
       <use x="95.410156" xlink:href="#DejaVuSans-50"/>
      </g>
     </g>
    </g>
    <g id="xtick_3">
     <g id="line2d_3">
      <g>
       <use style="stroke:#000000;stroke-width:0.8;" x="254.618182" xlink:href="#m0d5aa78303" y="384.48"/>
      </g>
     </g>
     <g id="text_3">
      <!-- 0.4 -->
      <g transform="translate(241.895682 403.6375)scale(0.16 -0.16)">
       <defs>
        <path d="M 37.796875 64.3125 
L 12.890625 25.390625 
L 37.796875 25.390625 
z
M 35.203125 72.90625 
L 47.609375 72.90625 
L 47.609375 25.390625 
L 58.015625 25.390625 
L 58.015625 17.1875 
L 47.609375 17.1875 
L 47.609375 0 
L 37.796875 0 
L 37.796875 17.1875 
L 4.890625 17.1875 
L 4.890625 26.703125 
z
" id="DejaVuSans-52"/>
       </defs>
       <use xlink:href="#DejaVuSans-48"/>
       <use x="63.623047" xlink:href="#DejaVuSans-46"/>
       <use x="95.410156" xlink:href="#DejaVuSans-52"/>
      </g>
     </g>
    </g>
    <g id="xtick_4">
     <g id="line2d_4">
      <g>
       <use style="stroke:#000000;stroke-width:0.8;" x="335.781818" xlink:href="#m0d5aa78303" y="384.48"/>
      </g>
     </g>
     <g id="text_4">
      <!-- 0.6 -->
      <g transform="translate(323.059318 403.6375)scale(0.16 -0.16)">
       <defs>
        <path d="M 33.015625 40.375 
Q 26.375 40.375 22.484375 35.828125 
Q 18.609375 31.296875 18.609375 23.390625 
Q 18.609375 15.53125 22.484375 10.953125 
Q 26.375 6.390625 33.015625 6.390625 
Q 39.65625 6.390625 43.53125 10.953125 
Q 47.40625 15.53125 47.40625 23.390625 
Q 47.40625 31.296875 43.53125 35.828125 
Q 39.65625 40.375 33.015625 40.375 
z
M 52.59375 71.296875 
L 52.59375 62.3125 
Q 48.875 64.0625 45.09375 64.984375 
Q 41.3125 65.921875 37.59375 65.921875 
Q 27.828125 65.921875 22.671875 59.328125 
Q 17.53125 52.734375 16.796875 39.40625 
Q 19.671875 43.65625 24.015625 45.921875 
Q 28.375 48.1875 33.59375 48.1875 
Q 44.578125 48.1875 50.953125 41.515625 
Q 57.328125 34.859375 57.328125 23.390625 
Q 57.328125 12.15625 50.6875 5.359375 
Q 44.046875 -1.421875 33.015625 -1.421875 
Q 20.359375 -1.421875 13.671875 8.265625 
Q 6.984375 17.96875 6.984375 36.375 
Q 6.984375 53.65625 15.1875 63.9375 
Q 23.390625 74.21875 37.203125 74.21875 
Q 40.921875 74.21875 44.703125 73.484375 
Q 48.484375 72.75 52.59375 71.296875 
z
" id="DejaVuSans-54"/>
       </defs>
       <use xlink:href="#DejaVuSans-48"/>
       <use x="63.623047" xlink:href="#DejaVuSans-46"/>
       <use x="95.410156" xlink:href="#DejaVuSans-54"/>
      </g>
     </g>
    </g>
    <g id="xtick_5">
     <g id="line2d_5">
      <g>
       <use style="stroke:#000000;stroke-width:0.8;" x="416.945455" xlink:href="#m0d5aa78303" y="384.48"/>
      </g>
     </g>
     <g id="text_5">
      <!-- 0.8 -->
      <g transform="translate(404.222955 403.6375)scale(0.16 -0.16)">
       <defs>
        <path d="M 31.78125 34.625 
Q 24.75 34.625 20.71875 30.859375 
Q 16.703125 27.09375 16.703125 20.515625 
Q 16.703125 13.921875 20.71875 10.15625 
Q 24.75 6.390625 31.78125 6.390625 
Q 38.8125 6.390625 42.859375 10.171875 
Q 46.921875 13.96875 46.921875 20.515625 
Q 46.921875 27.09375 42.890625 30.859375 
Q 38.875 34.625 31.78125 34.625 
z
M 21.921875 38.8125 
Q 15.578125 40.375 12.03125 44.71875 
Q 8.5 49.078125 8.5 55.328125 
Q 8.5 64.0625 14.71875 69.140625 
Q 20.953125 74.21875 31.78125 74.21875 
Q 42.671875 74.21875 48.875 69.140625 
Q 55.078125 64.0625 55.078125 55.328125 
Q 55.078125 49.078125 51.53125 44.71875 
Q 48 40.375 41.703125 38.8125 
Q 48.828125 37.15625 52.796875 32.3125 
Q 56.78125 27.484375 56.78125 20.515625 
Q 56.78125 9.90625 50.3125 4.234375 
Q 43.84375 -1.421875 31.78125 -1.421875 
Q 19.734375 -1.421875 13.25 4.234375 
Q 6.78125 9.90625 6.78125 20.515625 
Q 6.78125 27.484375 10.78125 32.3125 
Q 14.796875 37.15625 21.921875 38.8125 
z
M 18.3125 54.390625 
Q 18.3125 48.734375 21.84375 45.5625 
Q 25.390625 42.390625 31.78125 42.390625 
Q 38.140625 42.390625 41.71875 45.5625 
Q 45.3125 48.734375 45.3125 54.390625 
Q 45.3125 60.0625 41.71875 63.234375 
Q 38.140625 66.40625 31.78125 66.40625 
Q 25.390625 66.40625 21.84375 63.234375 
Q 18.3125 60.0625 18.3125 54.390625 
z
" id="DejaVuSans-56"/>
       </defs>
       <use xlink:href="#DejaVuSans-48"/>
       <use x="63.623047" xlink:href="#DejaVuSans-46"/>
       <use x="95.410156" xlink:href="#DejaVuSans-56"/>
      </g>
     </g>
    </g>
    <g id="xtick_6">
     <g id="line2d_6">
      <g>
       <use style="stroke:#000000;stroke-width:0.8;" x="498.109091" xlink:href="#m0d5aa78303" y="384.48"/>
      </g>
     </g>
     <g id="text_6">
      <!-- 1.0 -->
      <g transform="translate(485.386591 403.6375)scale(0.16 -0.16)">
       <defs>
        <path d="M 12.40625 8.296875 
L 28.515625 8.296875 
L 28.515625 63.921875 
L 10.984375 60.40625 
L 10.984375 69.390625 
L 28.421875 72.90625 
L 38.28125 72.90625 
L 38.28125 8.296875 
L 54.390625 8.296875 
L 54.390625 0 
L 12.40625 0 
z
" id="DejaVuSans-49"/>
       </defs>
       <use xlink:href="#DejaVuSans-49"/>
       <use x="63.623047" xlink:href="#DejaVuSans-46"/>
       <use x="95.410156" xlink:href="#DejaVuSans-48"/>
      </g>
     </g>
    </g>
    <g id="text_7">
     <!-- False Positive Rate -->
     <g transform="translate(220.85375 423.1225)scale(0.16 -0.16)">
      <defs>
       <path d="M 9.8125 72.90625 
L 51.703125 72.90625 
L 51.703125 64.59375 
L 19.671875 64.59375 
L 19.671875 43.109375 
L 48.578125 43.109375 
L 48.578125 34.8125 
L 19.671875 34.8125 
L 19.671875 0 
L 9.8125 0 
z
" id="DejaVuSans-70"/>
       <path d="M 34.28125 27.484375 
Q 23.390625 27.484375 19.1875 25 
Q 14.984375 22.515625 14.984375 16.5 
Q 14.984375 11.71875 18.140625 8.90625 
Q 21.296875 6.109375 26.703125 6.109375 
Q 34.1875 6.109375 38.703125 11.40625 
Q 43.21875 16.703125 43.21875 25.484375 
L 43.21875 27.484375 
z
M 52.203125 31.203125 
L 52.203125 0 
L 43.21875 0 
L 43.21875 8.296875 
Q 40.140625 3.328125 35.546875 0.953125 
Q 30.953125 -1.421875 24.3125 -1.421875 
Q 15.921875 -1.421875 10.953125 3.296875 
Q 6 8.015625 6 15.921875 
Q 6 25.140625 12.171875 29.828125 
Q 18.359375 34.515625 30.609375 34.515625 
L 43.21875 34.515625 
L 43.21875 35.40625 
Q 43.21875 41.609375 39.140625 45 
Q 35.0625 48.390625 27.6875 48.390625 
Q 23 48.390625 18.546875 47.265625 
Q 14.109375 46.140625 10.015625 43.890625 
L 10.015625 52.203125 
Q 14.9375 54.109375 19.578125 55.046875 
Q 24.21875 56 28.609375 56 
Q 40.484375 56 46.34375 49.84375 
Q 52.203125 43.703125 52.203125 31.203125 
z
" id="DejaVuSans-97"/>
       <path d="M 9.421875 75.984375 
L 18.40625 75.984375 
L 18.40625 0 
L 9.421875 0 
z
" id="DejaVuSans-108"/>
       <path d="M 44.28125 53.078125 
L 44.28125 44.578125 
Q 40.484375 46.53125 36.375 47.5 
Q 32.28125 48.484375 27.875 48.484375 
Q 21.1875 48.484375 17.84375 46.4375 
Q 14.5 44.390625 14.5 40.28125 
Q 14.5 37.15625 16.890625 35.375 
Q 19.28125 33.59375 26.515625 31.984375 
L 29.59375 31.296875 
Q 39.15625 29.25 43.1875 25.515625 
Q 47.21875 21.78125 47.21875 15.09375 
Q 47.21875 7.46875 41.1875 3.015625 
Q 35.15625 -1.421875 24.609375 -1.421875 
Q 20.21875 -1.421875 15.453125 -0.5625 
Q 10.6875 0.296875 5.421875 2 
L 5.421875 11.28125 
Q 10.40625 8.6875 15.234375 7.390625 
Q 20.0625 6.109375 24.8125 6.109375 
Q 31.15625 6.109375 34.5625 8.28125 
Q 37.984375 10.453125 37.984375 14.40625 
Q 37.984375 18.0625 35.515625 20.015625 
Q 33.0625 21.96875 24.703125 23.78125 
L 21.578125 24.515625 
Q 13.234375 26.265625 9.515625 29.90625 
Q 5.8125 33.546875 5.8125 39.890625 
Q 5.8125 47.609375 11.28125 51.796875 
Q 16.75 56 26.8125 56 
Q 31.78125 56 36.171875 55.265625 
Q 40.578125 54.546875 44.28125 53.078125 
z
" id="DejaVuSans-115"/>
       <path d="M 56.203125 29.59375 
L 56.203125 25.203125 
L 14.890625 25.203125 
Q 15.484375 15.921875 20.484375 11.0625 
Q 25.484375 6.203125 34.421875 6.203125 
Q 39.59375 6.203125 44.453125 7.46875 
Q 49.3125 8.734375 54.109375 11.28125 
L 54.109375 2.78125 
Q 49.265625 0.734375 44.1875 -0.34375 
Q 39.109375 -1.421875 33.890625 -1.421875 
Q 20.796875 -1.421875 13.15625 6.1875 
Q 5.515625 13.8125 5.515625 26.8125 
Q 5.515625 40.234375 12.765625 48.109375 
Q 20.015625 56 32.328125 56 
Q 43.359375 56 49.78125 48.890625 
Q 56.203125 41.796875 56.203125 29.59375 
z
M 47.21875 32.234375 
Q 47.125 39.59375 43.09375 43.984375 
Q 39.0625 48.390625 32.421875 48.390625 
Q 24.90625 48.390625 20.390625 44.140625 
Q 15.875 39.890625 15.1875 32.171875 
z
" id="DejaVuSans-101"/>
       <path id="DejaVuSans-32"/>
       <path d="M 19.671875 64.796875 
L 19.671875 37.40625 
L 32.078125 37.40625 
Q 38.96875 37.40625 42.71875 40.96875 
Q 46.484375 44.53125 46.484375 51.125 
Q 46.484375 57.671875 42.71875 61.234375 
Q 38.96875 64.796875 32.078125 64.796875 
z
M 9.8125 72.90625 
L 32.078125 72.90625 
Q 44.34375 72.90625 50.609375 67.359375 
Q 56.890625 61.8125 56.890625 51.125 
Q 56.890625 40.328125 50.609375 34.8125 
Q 44.34375 29.296875 32.078125 29.296875 
L 19.671875 29.296875 
L 19.671875 0 
L 9.8125 0 
z
" id="DejaVuSans-80"/>
       <path d="M 30.609375 48.390625 
Q 23.390625 48.390625 19.1875 42.75 
Q 14.984375 37.109375 14.984375 27.296875 
Q 14.984375 17.484375 19.15625 11.84375 
Q 23.34375 6.203125 30.609375 6.203125 
Q 37.796875 6.203125 41.984375 11.859375 
Q 46.1875 17.53125 46.1875 27.296875 
Q 46.1875 37.015625 41.984375 42.703125 
Q 37.796875 48.390625 30.609375 48.390625 
z
M 30.609375 56 
Q 42.328125 56 49.015625 48.375 
Q 55.71875 40.765625 55.71875 27.296875 
Q 55.71875 13.875 49.015625 6.21875 
Q 42.328125 -1.421875 30.609375 -1.421875 
Q 18.84375 -1.421875 12.171875 6.21875 
Q 5.515625 13.875 5.515625 27.296875 
Q 5.515625 40.765625 12.171875 48.375 
Q 18.84375 56 30.609375 56 
z
" id="DejaVuSans-111"/>
       <path d="M 9.421875 54.6875 
L 18.40625 54.6875 
L 18.40625 0 
L 9.421875 0 
z
M 9.421875 75.984375 
L 18.40625 75.984375 
L 18.40625 64.59375 
L 9.421875 64.59375 
z
" id="DejaVuSans-105"/>
       <path d="M 18.3125 70.21875 
L 18.3125 54.6875 
L 36.8125 54.6875 
L 36.8125 47.703125 
L 18.3125 47.703125 
L 18.3125 18.015625 
Q 18.3125 11.328125 20.140625 9.421875 
Q 21.96875 7.515625 27.59375 7.515625 
L 36.8125 7.515625 
L 36.8125 0 
L 27.59375 0 
Q 17.1875 0 13.234375 3.875 
Q 9.28125 7.765625 9.28125 18.015625 
L 9.28125 47.703125 
L 2.6875 47.703125 
L 2.6875 54.6875 
L 9.28125 54.6875 
L 9.28125 70.21875 
z
" id="DejaVuSans-116"/>
       <path d="M 2.984375 54.6875 
L 12.5 54.6875 
L 29.59375 8.796875 
L 46.6875 54.6875 
L 56.203125 54.6875 
L 35.6875 0 
L 23.484375 0 
z
" id="DejaVuSans-118"/>
       <path d="M 44.390625 34.1875 
Q 47.5625 33.109375 50.5625 29.59375 
Q 53.5625 26.078125 56.59375 19.921875 
L 66.609375 0 
L 56 0 
L 46.6875 18.703125 
Q 43.0625 26.03125 39.671875 28.421875 
Q 36.28125 30.8125 30.421875 30.8125 
L 19.671875 30.8125 
L 19.671875 0 
L 9.8125 0 
L 9.8125 72.90625 
L 32.078125 72.90625 
Q 44.578125 72.90625 50.734375 67.671875 
Q 56.890625 62.453125 56.890625 51.90625 
Q 56.890625 45.015625 53.6875 40.46875 
Q 50.484375 35.9375 44.390625 34.1875 
z
M 19.671875 64.796875 
L 19.671875 38.921875 
L 32.078125 38.921875 
Q 39.203125 38.921875 42.84375 42.21875 
Q 46.484375 45.515625 46.484375 51.90625 
Q 46.484375 58.296875 42.84375 61.546875 
Q 39.203125 64.796875 32.078125 64.796875 
z
" id="DejaVuSans-82"/>
      </defs>
      <use xlink:href="#DejaVuSans-70"/>
      <use x="48.394531" xlink:href="#DejaVuSans-97"/>
      <use x="109.673828" xlink:href="#DejaVuSans-108"/>
      <use x="137.457031" xlink:href="#DejaVuSans-115"/>
      <use x="189.556641" xlink:href="#DejaVuSans-101"/>
      <use x="251.080078" xlink:href="#DejaVuSans-32"/>
      <use x="282.867188" xlink:href="#DejaVuSans-80"/>
      <use x="339.544922" xlink:href="#DejaVuSans-111"/>
      <use x="400.726562" xlink:href="#DejaVuSans-115"/>
      <use x="452.826172" xlink:href="#DejaVuSans-105"/>
      <use x="480.609375" xlink:href="#DejaVuSans-116"/>
      <use x="519.818359" xlink:href="#DejaVuSans-105"/>
      <use x="547.601562" xlink:href="#DejaVuSans-118"/>
      <use x="606.78125" xlink:href="#DejaVuSans-101"/>
      <use x="668.304688" xlink:href="#DejaVuSans-32"/>
      <use x="700.091797" xlink:href="#DejaVuSans-82"/>
      <use x="767.324219" xlink:href="#DejaVuSans-97"/>
      <use x="828.603516" xlink:href="#DejaVuSans-116"/>
      <use x="867.8125" xlink:href="#DejaVuSans-101"/>
     </g>
    </g>
   </g>
   <g id="matplotlib.axis_2">
    <g id="ytick_1">
     <g id="line2d_7">
      <defs>
       <path d="M 0 0 
L -3.5 0 
" id="m88a5cd23a9" style="stroke:#000000;stroke-width:0.8;"/>
      </defs>
      <g>
       <use style="stroke:#000000;stroke-width:0.8;" x="72" xlink:href="#m88a5cd23a9" y="369.36"/>
      </g>
     </g>
     <g id="text_8">
      <!-- 0.0 -->
      <g transform="translate(39.555 375.43875)scale(0.16 -0.16)">
       <use xlink:href="#DejaVuSans-48"/>
       <use x="63.623047" xlink:href="#DejaVuSans-46"/>
       <use x="95.410156" xlink:href="#DejaVuSans-48"/>
      </g>
     </g>
    </g>
    <g id="ytick_2">
     <g id="line2d_8">
      <g>
       <use style="stroke:#000000;stroke-width:0.8;" x="72" xlink:href="#m88a5cd23a9" y="308.88"/>
      </g>
     </g>
     <g id="text_9">
      <!-- 0.2 -->
      <g transform="translate(39.555 314.95875)scale(0.16 -0.16)">
       <use xlink:href="#DejaVuSans-48"/>
       <use x="63.623047" xlink:href="#DejaVuSans-46"/>
       <use x="95.410156" xlink:href="#DejaVuSans-50"/>
      </g>
     </g>
    </g>
    <g id="ytick_3">
     <g id="line2d_9">
      <g>
       <use style="stroke:#000000;stroke-width:0.8;" x="72" xlink:href="#m88a5cd23a9" y="248.4"/>
      </g>
     </g>
     <g id="text_10">
      <!-- 0.4 -->
      <g transform="translate(39.555 254.47875)scale(0.16 -0.16)">
       <use xlink:href="#DejaVuSans-48"/>
       <use x="63.623047" xlink:href="#DejaVuSans-46"/>
       <use x="95.410156" xlink:href="#DejaVuSans-52"/>
      </g>
     </g>
    </g>
    <g id="ytick_4">
     <g id="line2d_10">
      <g>
       <use style="stroke:#000000;stroke-width:0.8;" x="72" xlink:href="#m88a5cd23a9" y="187.92"/>
      </g>
     </g>
     <g id="text_11">
      <!-- 0.6 -->
      <g transform="translate(39.555 193.99875)scale(0.16 -0.16)">
       <use xlink:href="#DejaVuSans-48"/>
       <use x="63.623047" xlink:href="#DejaVuSans-46"/>
       <use x="95.410156" xlink:href="#DejaVuSans-54"/>
      </g>
     </g>
    </g>
    <g id="ytick_5">
     <g id="line2d_11">
      <g>
       <use style="stroke:#000000;stroke-width:0.8;" x="72" xlink:href="#m88a5cd23a9" y="127.44"/>
      </g>
     </g>
     <g id="text_12">
      <!-- 0.8 -->
      <g transform="translate(39.555 133.51875)scale(0.16 -0.16)">
       <use xlink:href="#DejaVuSans-48"/>
       <use x="63.623047" xlink:href="#DejaVuSans-46"/>
       <use x="95.410156" xlink:href="#DejaVuSans-56"/>
      </g>
     </g>
    </g>
    <g id="ytick_6">
     <g id="line2d_12">
      <g>
       <use style="stroke:#000000;stroke-width:0.8;" x="72" xlink:href="#m88a5cd23a9" y="66.96"/>
      </g>
     </g>
     <g id="text_13">
      <!-- 1.0 -->
      <g transform="translate(39.555 73.03875)scale(0.16 -0.16)">
       <use xlink:href="#DejaVuSans-49"/>
       <use x="63.623047" xlink:href="#DejaVuSans-46"/>
       <use x="95.410156" xlink:href="#DejaVuSans-48"/>
      </g>
     </g>
    </g>
    <g id="text_14">
     <!-- True Positive Rate -->
     <g transform="translate(32.2275 289.4075)rotate(-90)scale(0.16 -0.16)">
      <defs>
       <path d="M -0.296875 72.90625 
L 61.375 72.90625 
L 61.375 64.59375 
L 35.5 64.59375 
L 35.5 0 
L 25.59375 0 
L 25.59375 64.59375 
L -0.296875 64.59375 
z
" id="DejaVuSans-84"/>
       <path d="M 41.109375 46.296875 
Q 39.59375 47.171875 37.8125 47.578125 
Q 36.03125 48 33.890625 48 
Q 26.265625 48 22.1875 43.046875 
Q 18.109375 38.09375 18.109375 28.8125 
L 18.109375 0 
L 9.078125 0 
L 9.078125 54.6875 
L 18.109375 54.6875 
L 18.109375 46.1875 
Q 20.953125 51.171875 25.484375 53.578125 
Q 30.03125 56 36.53125 56 
Q 37.453125 56 38.578125 55.875 
Q 39.703125 55.765625 41.0625 55.515625 
z
" id="DejaVuSans-114"/>
       <path d="M 8.5 21.578125 
L 8.5 54.6875 
L 17.484375 54.6875 
L 17.484375 21.921875 
Q 17.484375 14.15625 20.5 10.265625 
Q 23.53125 6.390625 29.59375 6.390625 
Q 36.859375 6.390625 41.078125 11.03125 
Q 45.3125 15.671875 45.3125 23.6875 
L 45.3125 54.6875 
L 54.296875 54.6875 
L 54.296875 0 
L 45.3125 0 
L 45.3125 8.40625 
Q 42.046875 3.421875 37.71875 1 
Q 33.40625 -1.421875 27.6875 -1.421875 
Q 18.265625 -1.421875 13.375 4.4375 
Q 8.5 10.296875 8.5 21.578125 
z
M 31.109375 56 
z
" id="DejaVuSans-117"/>
      </defs>
      <use xlink:href="#DejaVuSans-84"/>
      <use x="46.333984" xlink:href="#DejaVuSans-114"/>
      <use x="87.447266" xlink:href="#DejaVuSans-117"/>
      <use x="150.826172" xlink:href="#DejaVuSans-101"/>
      <use x="212.349609" xlink:href="#DejaVuSans-32"/>
      <use x="244.136719" xlink:href="#DejaVuSans-80"/>
      <use x="300.814453" xlink:href="#DejaVuSans-111"/>
      <use x="361.996094" xlink:href="#DejaVuSans-115"/>
      <use x="414.095703" xlink:href="#DejaVuSans-105"/>
      <use x="441.878906" xlink:href="#DejaVuSans-116"/>
      <use x="481.087891" xlink:href="#DejaVuSans-105"/>
      <use x="508.871094" xlink:href="#DejaVuSans-118"/>
      <use x="568.050781" xlink:href="#DejaVuSans-101"/>
      <use x="629.574219" xlink:href="#DejaVuSans-32"/>
      <use x="661.361328" xlink:href="#DejaVuSans-82"/>
      <use x="728.59375" xlink:href="#DejaVuSans-97"/>
      <use x="789.873047" xlink:href="#DejaVuSans-116"/>
      <use x="829.082031" xlink:href="#DejaVuSans-101"/>
     </g>
    </g>
   </g>
   <g id="line2d_13">
    <path clip-path="url(#p9cdee61746)" d="M 92.290909 369.36 
L 498.109091 66.96 
" style="fill:none;stroke:#0000ff;stroke-linecap:square;stroke-width:1.5;"/>
   </g>
   <g id="line2d_14">
    <path clip-path="url(#p9cdee61746)" d="M 92.290909 369.36 
L 92.401698 355.343201 
L 92.403269 355.285966 
L 92.514058 346.511873 
L 92.516022 346.403127 
L 92.626811 338.373086 
L 92.630346 338.270063 
L 92.741135 331.619381 
L 92.743885 331.527805 
L 92.853888 324.75693 
L 92.855067 324.75693 
L 92.965855 318.47255 
L 92.969391 318.363804 
L 93.08018 312.995181 
L 93.084108 312.920776 
L 93.194504 307.895562 
L 93.196861 307.792539 
L 93.30765 302.458257 
L 93.311185 302.406746 
L 93.311185 302.360958 
L 93.421581 297.690599 
L 93.424331 297.604747 
L 93.534727 293.140433 
L 93.539049 293.037411 
L 93.649837 288.172454 
L 93.652194 288.086602 
L 93.76259 283.662353 
L 93.764554 283.5765 
L 93.875343 279.409808 
L 93.879272 279.312509 
L 93.99006 275.174434 
L 93.993989 275.088581 
L 93.993989 275.077134 
L 94.104777 271.265298 
L 94.110278 271.156552 
L 94.220673 268.065873 
L 94.222245 267.968574 
L 94.333033 264.872172 
L 94.338926 264.763426 
L 94.449322 261.838728 
L 94.454429 261.729982 
L 94.564825 258.290171 
L 94.568754 258.192872 
L 94.679149 255.090747 
L 94.6819 254.982001 
L 94.792688 252.400712 
L 94.79701 252.297689 
L 94.907405 249.653442 
L 94.907798 249.653442 
L 94.970657 248.38283 
L 95.08066 245.78437 
L 95.089303 245.687071 
L 95.200092 243.26604 
L 95.202842 243.16874 
L 95.312452 240.25549 
L 95.31363 240.25549 
L 95.318345 240.158191 
L 95.429133 238.011886 
L 95.433848 237.926034 
L 95.544636 235.596578 
L 95.551315 235.499279 
L 95.662103 233.501785 
L 95.664854 233.42738 
L 95.774856 231.292522 
L 95.775642 231.292522 
L 95.783892 231.195223 
L 95.894681 229.174835 
L 95.901753 229.071812 
L 96.012541 226.782421 
L 96.018434 226.679398 
L 96.129223 224.321325 
L 96.133937 224.252643 
L 96.244333 222.060551 
L 96.25219 221.968975 
L 96.362979 220.011545 
L 96.368086 219.902799 
L 96.478875 217.607684 
L 96.490661 217.504662 
L 96.601449 215.341187 
L 96.608128 215.232441 
L 96.718917 213.440992 
L 96.72481 213.337969 
L 96.835598 211.638096 
L 96.842277 211.52935 
L 96.953065 209.640602 
L 96.956208 209.543303 
L 97.066604 207.854877 
L 97.07289 207.769024 
L 97.181321 205.983299 
L 97.183286 205.983299 
L 97.19075 205.874553 
L 97.300753 203.962911 
L 97.301539 203.962911 
L 97.309396 203.859888 
L 97.420185 202.245867 
L 97.425292 202.154292 
L 97.536081 200.883679 
L 97.542366 200.78638 
L 97.653155 199.103677 
L 97.661798 199.017825 
L 97.772587 197.352293 
L 97.782015 197.243547 
L 97.889268 195.847018 
L 97.892804 195.847018 
L 97.907733 195.743995 
L 98.018129 194.381808 
L 98.027558 194.278785 
L 98.138346 193.128366 
L 98.145811 193.042513 
L 98.255813 191.468557 
L 98.269171 191.365534 
L 98.37996 189.591256 
L 98.386245 189.493957 
L 98.497034 187.839871 
L 98.504498 187.731125 
L 98.613716 186.586429 
L 98.615287 186.586429 
L 98.630216 186.477683 
L 98.740219 185.144113 
L 98.741005 185.144113 
L 98.757505 185.035367 
L 98.866329 183.678902 
L 98.879687 183.570156 
L 98.988511 182.608612 
L 99.001868 182.499866 
L 99.1103 181.378064 
L 99.112264 181.378064 
L 99.127193 181.275041 
L 99.236803 180.164686 
L 99.237589 180.164686 
L 99.252911 180.061664 
L 99.361735 178.859733 
L 99.374307 178.750987 
L 99.485095 177.245712 
L 99.49256 177.148413 
L 99.602955 176.066675 
L 99.61592 175.957929 
L 99.726316 174.6587 
L 99.726709 174.6587 
L 99.738888 174.549954 
L 99.849676 173.382364 
L 99.863427 173.279341 
L 99.973429 172.312073 
L 99.982858 172.214774 
L 100.093254 170.829692 
L 100.097575 170.720946 
L 100.208364 169.519016 
L 100.218971 169.41027 
L 100.328974 168.151104 
L 100.329367 168.151104 
L 100.340367 168.042358 
L 100.448799 166.966344 
L 100.461763 166.857598 
L 100.569016 165.867436 
L 100.570981 165.867436 
L 100.585517 165.770137 
L 100.696305 164.699847 
L 100.70652 164.591101 
L 100.813773 163.515087 
L 100.814558 163.515087 
L 100.827523 163.40634 
L 100.938311 162.433349 
L 100.952455 162.330326 
L 101.062065 161.357335 
L 101.075815 161.254312 
L 101.186211 160.344279 
L 101.204283 160.235533 
L 101.314678 159.30833 
L 101.315071 159.30833 
L 101.328036 159.205307 
L 101.438432 158.100676 
L 101.453361 157.99193 
L 101.561399 157.167749 
L 101.577899 157.064726 
L 101.688295 156.18331 
L 101.699688 156.074564 
L 101.810477 154.987103 
L 101.831692 154.878357 
L 101.942087 154.19154 
L 101.956624 154.082794 
L 102.067019 152.989609 
L 102.081555 152.886587 
L 102.186058 151.919319 
L 102.189201 151.919319 
L 102.205309 151.816296 
L 102.315704 150.992115 
L 102.329847 150.883369 
L 102.440636 150.001953 
L 102.452029 149.898931 
L 102.560461 149.22356 
L 102.58089 149.114814 
L 102.6905 148.227675 
L 102.718786 148.118929 
L 102.828789 147.357706 
L 102.85079 147.24896 
L 102.961185 146.441949 
L 102.977293 146.333203 
L 103.08651 145.383106 
L 103.10026 145.280083 
L 103.210263 144.547478 
L 103.211049 144.547478 
L 103.227942 144.450179 
L 103.337945 143.837767 
L 103.338338 143.837767 
L 103.34816 143.734744 
L 103.458948 143.03648 
L 103.469948 142.933457 
L 103.580737 142.235193 
L 103.599988 142.13217 
L 103.709205 141.319436 
L 103.726098 141.21069 
L 103.836494 140.340721 
L 103.867137 140.231975 
L 103.977533 139.424965 
L 104.002676 139.316218 
L 104.111501 138.612231 
L 104.113072 138.612231 
L 104.133501 138.509208 
L 104.24429 137.942584 
L 104.265898 137.833837 
L 104.376293 137.089785 
L 104.394365 136.981039 
L 104.502011 136.402968 
L 104.503582 136.402968 
L 104.527154 136.294222 
L 104.63755 135.613128 
L 104.666229 135.504382 
L 104.773482 134.829011 
L 104.776625 134.829011 
L 104.795483 134.720265 
L 104.906271 134.216599 
L 104.931022 134.107853 
L 105.040239 133.621357 
L 105.040632 133.621357 
L 105.064204 133.518334 
L 105.173421 133.049009 
L 105.198565 132.945987 
L 105.308175 132.345021 
L 105.332532 132.236275 
L 105.437821 131.65248 
L 105.443321 131.65248 
L 105.460214 131.549458 
L 105.569038 131.040068 
L 105.57061 131.040068 
L 105.598111 130.931322 
L 105.708506 130.364698 
L 105.720685 130.255952 
L 105.827938 129.872478 
L 105.830688 129.872478 
L 105.861725 129.763732 
L 105.965834 129.271513 
L 105.967013 129.271513 
L 105.992942 129.162767 
L 106.099409 128.567525 
L 106.101374 128.567525 
L 106.12141 128.458779 
L 106.231413 127.943666 
L 106.232198 127.943666 
L 106.248306 127.840644 
L 106.358702 127.342701 
L 106.373238 127.239678 
L 106.484026 126.839035 
L 106.513884 126.730289 
L 106.624673 126.260963 
L 106.63528 126.152217 
L 106.740962 125.511188 
L 106.744497 125.511188 
L 106.775534 125.408165 
L 106.883965 124.95601 
L 106.886323 124.95601 
L 106.909895 124.847264 
L 107.020683 124.423727 
L 107.046612 124.314981 
L 107.157401 123.77125 
L 107.187652 123.662504 
L 107.298048 123.13022 
L 107.323977 123.027198 
L 107.430444 122.638001 
L 107.434372 122.638001 
L 107.459909 122.529255 
L 107.570697 122.04276 
L 107.587198 121.934013 
L 107.697594 121.453241 
L 107.720773 121.344495 
L 107.830383 120.932405 
L 107.857098 120.823659 
L 107.966708 120.485973 
L 108.01503 120.382951 
L 108.01503 120.377227 
L 108.123069 119.919349 
L 108.125426 119.919349 
L 108.176106 119.810603 
L 108.286895 119.335554 
L 108.302609 119.238255 
L 108.302609 119.226808 
L 108.411433 118.648737 
L 108.441291 118.539991 
L 108.55208 118.225199 
L 108.59451 118.116453 
L 108.698619 117.687192 
L 108.703727 117.687192 
L 108.741049 117.578446 
L 108.845945 117.200697 
L 108.851445 117.200697 
L 108.873053 117.097674 
L 108.981484 116.651243 
L 109.010163 116.542496 
L 109.120559 116.118959 
L 109.163381 116.010213 
L 109.272206 115.558058 
L 109.273384 115.558058 
L 109.293813 115.466482 
L 109.293813 115.449312 
L 109.404209 115.031498 
L 109.433281 114.934199 
L 109.54407 114.504938 
L 109.5865 114.396192 
L 109.692181 114.213041 
L 109.696895 114.213041 
L 109.727932 114.104295 
L 109.838328 113.732268 
L 109.859935 113.623522 
L 109.968759 113.331625 
L 110.016296 113.222879 
L 110.127085 112.913811 
L 110.182872 112.805065 
L 110.283839 112.495997 
L 110.290911 112.495997 
L 110.351805 112.387251 
L 110.461022 112.038119 
L 110.487737 111.929373 
L 110.598526 111.637475 
L 110.619741 111.528729 
L 110.728565 111.16815 
L 110.776102 111.059404 
L 110.884533 110.687378 
L 110.885712 110.687378 
L 110.942678 110.578632 
L 111.048752 110.229499 
L 111.04993 110.229499 
L 111.089217 110.120753 
L 111.200006 109.908985 
L 111.251864 109.800238 
L 111.35401 109.393871 
L 111.358724 109.393871 
L 111.433369 109.285125 
L 111.544157 108.987504 
L 111.588944 108.884482 
L 111.699733 108.581138 
L 111.768092 108.472391 
L 111.878487 108.180494 
L 111.87888 108.180494 
L 111.939775 108.071748 
L 112.037206 107.77985 
L 112.049778 107.77985 
L 112.072171 107.676828 
L 112.179817 107.327696 
L 112.182567 107.327696 
L 112.237961 107.21895 
L 112.342857 106.909882 
L 112.344821 106.909882 
L 112.400608 106.801136 
L 112.511397 106.492068 
L 112.546362 106.383322 
L 112.650472 106.137212 
L 112.652436 106.137212 
L 112.698794 106.028466 
L 112.809583 105.730845 
L 112.848084 105.622099 
L 112.956908 105.404607 
L 112.95848 105.404607 
L 112.991873 105.301584 
L 113.094412 105.038304 
L 113.139984 104.929558 
L 113.24763 104.597596 
L 113.249594 104.597596 
L 113.286917 104.48885 
L 113.392205 104.2084 
L 113.438171 104.099654 
L 113.530495 103.876438 
L 113.548959 103.876438 
L 113.572138 103.767692 
L 113.682534 103.555923 
L 113.723 103.447177 
L 113.832609 103.178174 
L 113.866789 103.069427 
L 113.976399 102.726019 
L 114.037293 102.617273 
L 114.14376 102.331099 
L 114.148082 102.331099 
L 114.19719 102.222353 
L 114.305229 101.976243 
L 114.307586 101.976243 
L 114.371623 101.867497 
L 114.479269 101.684346 
L 114.481626 101.684346 
L 114.535056 101.5756 
L 114.631309 101.369554 
L 114.645452 101.369554 
L 114.680417 101.272255 
L 114.787277 101.031869 
L 114.791206 101.031869 
L 114.83285 100.923123 
L 114.942853 100.648396 
L 114.997854 100.53965 
L 115.107857 100.327881 
L 115.167573 100.219135 
L 115.277575 99.995919 
L 115.33297 99.887173 
L 115.443758 99.692575 
L 115.488938 99.589552 
L 115.595405 99.314825 
L 115.685372 99.206079 
L 115.795375 98.982864 
L 115.900663 98.874118 
L 116.00988 98.645178 
L 116.010273 98.645178 
L 116.06056 98.536432 
L 116.166241 98.324664 
L 116.171349 98.324664 
L 116.238529 98.215917 
L 116.33871 98.027043 
L 116.339496 98.027043 
L 116.411783 97.918297 
L 116.521 97.780933 
L 116.567752 97.672187 
L 116.677755 97.460418 
L 116.730792 97.351672 
L 116.839616 97.191415 
L 116.84158 97.191415 
L 116.903653 97.082669 
L 117.00737 96.842283 
L 117.014442 96.842283 
L 117.065907 96.733536 
L 117.171589 96.579003 
L 117.176696 96.579003 
L 117.233269 96.470256 
L 117.336593 96.298552 
L 117.343272 96.298552 
L 117.444239 96.189806 
L 117.552277 95.995208 
L 117.553063 95.995208 
L 117.680745 95.886462 
L 117.78564 95.714757 
L 117.791141 95.714757 
L 117.840642 95.606011 
L 117.945537 95.462924 
L 118.010753 95.354178 
L 118.11997 95.17675 
L 118.121149 95.17675 
L 118.165543 95.068004 
L 118.264153 94.8963 
L 118.270439 94.8963 
L 118.367084 94.787554 
L 118.473944 94.581508 
L 118.475122 94.581508 
L 118.548196 94.472762 
L 118.655449 94.335399 
L 118.65702 94.335399 
L 118.757594 94.232376 
L 118.860918 94.083566 
L 118.86799 94.083566 
L 118.958349 93.97482 
L 119.062066 93.826009 
L 119.066781 93.826009 
L 119.13239 93.734434 
L 119.13239 93.717263 
L 119.234535 93.528388 
L 119.239642 93.528388 
L 119.293072 93.419642 
L 119.399932 93.282279 
L 119.401111 93.282279 
L 119.539007 93.173533 
L 119.634081 93.041893 
L 119.644296 93.041893 
L 119.775513 92.933147 
L 119.882373 92.795783 
L 119.955447 92.687037 
L 120.052878 92.532503 
L 120.060342 92.532503 
L 120.136165 92.423757 
L 120.246954 92.257776 
L 120.333778 92.14903 
L 120.430816 92.01739 
L 120.444566 92.01739 
L 120.53964 91.908644 
L 120.646893 91.788451 
L 120.648857 91.788451 
L 120.721931 91.679705 
L 120.821719 91.49083 
L 120.832719 91.49083 
L 120.941543 91.382084 
L 121.044868 91.261891 
L 121.052332 91.261891 
L 121.15212 91.158868 
L 121.251123 90.975717 
L 121.25623 90.975717 
L 121.362304 90.866971 
L 121.471521 90.689543 
L 121.56306 90.580797 
L 121.658919 90.489221 
L 121.670312 90.489221 
L 121.789351 90.380475 
L 121.889925 90.248835 
L 121.898175 90.248835 
L 121.980285 90.140089 
L 122.09068 90.019896 
L 122.091073 90.019896 
L 122.208148 89.91115 
L 122.313436 89.750892 
L 122.414796 89.642146 
L 122.487083 89.567741 
L 122.524406 89.567741 
L 122.632444 89.464718 
L 122.732626 89.27012 
L 122.742054 89.27012 
L 122.78527 89.161374 
L 122.88938 89.001117 
L 122.992704 88.892371 
L 123.097992 88.749284 
L 123.100742 88.749284 
L 123.196995 88.640538 
L 123.299533 88.514621 
L 123.305819 88.514621 
L 123.396571 88.405875 
L 123.504217 88.274235 
L 123.62247 88.165489 
L 123.726187 88.091084 
L 123.878227 87.982337 
L 123.976836 87.850697 
L 123.989015 87.850697 
L 124.150877 87.741951 
L 124.261665 87.650376 
L 124.405062 87.54163 
L 124.514672 87.415713 
L 124.515457 87.415713 
L 124.631746 87.306967 
L 124.738606 87.16388 
L 124.741356 87.16388 
L 124.797536 87.055134 
L 124.901646 86.997899 
L 124.906753 86.997899 
L 125.00222 86.889153 
L 125.108294 86.797577 
L 125.111044 86.797577 
L 125.240298 86.688831 
L 125.343622 86.545744 
L 125.348336 86.545744 
L 125.478768 86.436998 
L 125.584842 86.299635 
L 125.731382 86.190889 
L 125.835884 86.076419 
L 125.84217 86.076419 
L 126.002853 85.967673 
L 126.092034 85.853203 
L 126.104213 85.853203 
L 126.253502 85.744457 
L 126.360362 85.670052 
L 126.363898 85.670052 
L 126.580761 85.567029 
L 126.680549 85.458283 
L 126.690764 85.458283 
L 126.896233 85.349537 
L 126.9917 85.269409 
L 127.004272 85.269409 
L 127.192848 85.160662 
L 127.301672 85.051916 
L 127.303637 85.051916 
L 127.449783 84.94317 
L 127.557822 84.840148 
L 127.560179 84.840148 
L 127.703576 84.731402 
L 127.810436 84.668443 
L 127.945582 84.559697 
L 128.043799 84.525356 
L 128.055978 84.525356 
L 128.23984 84.41661 
L 128.343556 84.336481 
L 128.348271 84.336481 
L 128.550205 84.227735 
L 128.657457 84.118989 
L 128.6606 84.118989 
L 128.792211 84.010243 
L 128.903 83.924391 
L 129.102576 83.815645 
L 129.196864 83.695452 
L 129.207865 83.695452 
L 129.415691 83.586706 
L 129.508408 83.437895 
L 129.520587 83.437895 
L 129.757879 83.329149 
L 129.867096 83.266191 
L 130.059994 83.157445 
L 130.149568 83.065869 
L 130.170389 83.065869 
L 130.302 82.957123 
L 130.412789 82.871271 
L 130.607258 82.762525 
L 130.717261 82.693843 
L 130.718047 82.693843 
L 130.882658 82.585097 
L 130.988732 82.539309 
L 131.118378 82.430563 
L 131.197345 82.350434 
L 131.218952 82.350434 
L 131.453494 82.241688 
L 131.551318 82.167283 
L 131.55564 82.167283 
L 131.758359 82.058537 
L 131.857362 81.978408 
L 131.867576 81.978408 
L 131.980329 81.869662 
L 132.084832 81.789533 
L 132.090725 81.789533 
L 132.234907 81.680787 
L 132.339803 81.629276 
L 132.34216 81.629276 
L 132.630525 81.52053 
L 132.739742 81.474742 
L 132.741313 81.474742 
L 132.946783 81.365996 
L 133.054036 81.291591 
L 133.057571 81.291591 
L 133.225719 81.182845 
L 133.3314 81.119886 
L 133.334936 81.119886 
L 133.543155 81.01114 
L 133.650801 80.976799 
L 133.652372 80.976799 
L 133.871592 80.868053 
L 133.976881 80.827989 
L 133.978452 80.827989 
L 134.156421 80.73069 
L 134.266817 80.662008 
L 134.54811 80.558986 
L 134.639648 80.496027 
L 134.65772 80.496027 
L 134.948835 80.387281 
L 135.051373 80.341493 
L 135.058445 80.341493 
L 135.274522 80.232747 
L 135.372738 80.181236 
L 135.383739 80.181236 
L 135.583315 80.07249 
L 135.67171 80.038149 
L 135.694104 80.038149 
L 135.826107 79.929403 
L 135.929039 79.837827 
L 135.936503 79.837827 
L 136.211117 79.729081 
L 136.316013 79.666123 
L 136.32112 79.666123 
L 136.595341 79.557377 
L 136.694737 79.488695 
L 136.702987 79.488695 
L 136.869956 79.379949 
L 136.971708 79.328438 
L 136.980351 79.328438 
L 137.220393 79.219691 
L 137.311539 79.16818 
L 137.323325 79.16818 
L 137.600296 79.059434 
L 137.704013 78.979305 
L 137.710299 78.979305 
L 138.12831 78.870559 
L 138.233991 78.824771 
L 138.238705 78.824771 
L 138.533749 78.716025 
L 138.641787 78.653067 
L 138.949402 78.544321 
L 139.049191 78.458469 
L 139.053905 78.458469 
L 139.282161 78.349723 
L 139.387449 78.298211 
L 139.392164 78.298211 
L 139.615312 78.200912 
L 139.694672 78.155124 
L 139.722958 78.155124 
L 140.047859 78.046378 
L 140.135076 77.98342 
L 140.156291 77.98342 
L 140.450941 77.874674 
L 140.531479 77.85178 
L 140.559766 77.85178 
L 140.681554 77.743034 
L 140.784093 77.714417 
L 140.784878 77.714417 
L 141.0756 77.60567 
L 141.177353 77.542712 
L 141.184817 77.542712 
L 141.488897 77.433966 
L 141.582399 77.382455 
L 141.599685 77.382455 
L 141.928515 77.273709 
L 142.015339 77.222197 
L 142.034197 77.222197 
L 142.482851 77.113451 
L 142.549246 77.07911 
L 142.589711 77.07911 
L 142.824646 76.970364 
L 142.934648 76.901683 
L 143.117725 76.792937 
L 143.202584 76.752872 
L 143.228513 76.752872 
L 143.466984 76.644126 
L 143.554593 76.609785 
L 143.575415 76.609785 
L 143.904245 76.501039 
L 144.002855 76.466698 
L 144.014641 76.466698 
L 144.32422 76.357952 
L 144.424401 76.329335 
L 144.43383 76.329335 
L 144.801554 76.220589 
L 144.900949 76.186248 
L 144.91195 76.186248 
L 145.334282 76.077502 
L 145.440749 76.037437 
L 145.444285 76.037437 
L 145.901582 75.928691 
L 145.996263 75.888627 
L 145.998228 75.888627 
L 146.536456 75.779881 
L 146.640566 75.716922 
L 147.057005 75.608176 
L 147.167794 75.568112 
L 147.492695 75.459366 
L 147.538268 75.447919 
L 147.584626 75.447919 
L 148.125211 75.339173 
L 148.176677 75.316279 
L 148.234821 75.316279 
L 148.652832 75.213256 
L 148.753013 75.196086 
L 148.759299 75.196086 
L 149.167488 75.08734 
L 149.277884 75.041552 
L 149.622429 74.932806 
L 149.659751 74.909912 
L 149.730467 74.909912 
L 150.143371 74.801166 
L 150.240016 74.755378 
L 150.253766 74.755378 
L 150.725207 74.646632 
L 150.791602 74.623738 
L 150.834424 74.623738 
L 151.593444 74.514992 
L 151.691661 74.469204 
L 151.70384 74.469204 
L 152.119886 74.360458 
L 152.196495 74.331841 
L 152.222425 74.331841 
L 152.838048 74.223095 
L 152.935872 74.205924 
L 152.945693 74.205924 
L 153.532244 74.097178 
L 153.631247 74.062837 
L 153.633211 74.062837 
L 154.157689 73.954091 
L 154.158475 73.942644 
L 154.267692 73.942644 
L 155.171287 73.833898 
L 155.251039 73.805281 
L 155.280504 73.805281 
L 155.853697 73.696534 
L 155.908698 73.65647 
L 155.964093 73.65647 
L 156.450855 73.547724 
L 156.540822 73.519107 
L 156.554179 73.519107 
L 157.323021 73.410361 
L 157.400023 73.39319 
L 157.430666 73.39319 
L 158.056111 73.284444 
L 158.131935 73.250103 
L 158.166114 73.250103 
L 158.696092 73.141357 
L 158.788023 73.118463 
L 158.806881 73.118463 
L 159.459826 73.009717 
L 159.542328 72.99827 
L 159.570615 72.99827 
L 160.313134 72.889524 
L 160.382671 72.860907 
L 160.420387 72.860907 
L 161.074511 72.75216 
L 161.11144 72.73499 
L 161.185299 72.73499 
L 162.048036 72.626244 
L 162.095966 72.609074 
L 162.158432 72.609074 
L 162.911558 72.500327 
L 162.98031 72.483157 
L 163.021168 72.483157 
L 163.727151 72.374411 
L 163.727151 72.368687 
L 163.836368 72.368687 
L 164.524279 72.259941 
L 164.602852 72.237047 
L 164.632317 72.237047 
L 165.263262 72.128301 
L 165.263262 72.122578 
L 165.373658 72.122578 
L 165.96728 72.013832 
L 166.050175 71.996661 
L 166.073747 71.996661 
L 167.167883 71.887915 
L 167.197348 71.865021 
L 167.278671 71.865021 
L 168.207803 71.756275 
L 168.302091 71.733381 
L 168.317805 71.733381 
L 168.946393 71.624635 
L 168.965644 71.607465 
L 169.050503 71.607465 
L 169.899096 71.498719 
L 169.959991 71.475825 
L 170.005563 71.475825 
L 170.778726 71.367079 
L 170.842764 71.344185 
L 170.88755 71.344185 
L 172.342338 71.235439 
L 172.420519 71.189651 
L 172.449591 71.189651 
L 173.826591 71.080905 
L 173.920093 71.063734 
L 173.937379 71.063734 
L 174.989871 70.954988 
L 175.083766 70.937818 
L 175.099088 70.937818 
L 176.448587 70.829072 
L 176.478838 70.811901 
L 176.555054 70.811901 
L 178.013771 70.703155 
L 178.071915 70.691708 
L 178.124559 70.691708 
L 178.94683 70.582962 
L 179.03719 70.560068 
L 179.057619 70.560068 
L 180.488835 70.451322 
L 180.517121 70.434152 
L 180.597659 70.434152 
L 182.377348 70.325406 
L 182.389527 70.313959 
L 182.486565 70.313959 
L 183.885173 70.210936 
L 183.885173 70.199489 
L 183.995961 70.199489 
L 185.487285 70.090743 
L 185.588645 70.073572 
L 185.597681 70.073572 
L 187.953314 69.964826 
L 187.959599 69.953379 
L 188.058995 69.953379 
L 190.156906 69.844633 
L 190.206015 69.833186 
L 190.258266 69.833186 
L 191.863129 69.72444 
L 191.950738 69.712993 
L 191.969989 69.712993 
L 193.877753 69.604247 
L 193.912325 69.5928 
L 193.988148 69.5928 
L 195.407185 69.484054 
L 195.450008 69.466884 
L 195.515616 69.466884 
L 197.913678 69.358138 
L 197.913678 69.352414 
L 198.021717 69.352414 
L 199.801013 69.243668 
L 199.801013 69.237945 
L 199.911409 69.237945 
L 202.623372 69.129198 
L 202.730625 69.106305 
L 202.733768 69.106305 
L 206.060568 68.997558 
L 206.060568 68.991835 
L 206.161928 68.991835 
L 210.151888 68.883089 
L 210.151888 68.877365 
L 210.261891 68.877365 
L 213.487332 68.768619 
L 213.487332 68.762896 
L 213.59812 68.762896 
L 216.872276 68.65415 
L 216.872276 68.648426 
L 216.981493 68.648426 
L 219.495058 68.53968 
L 219.495058 68.533957 
L 219.602311 68.533957 
L 222.781394 68.425211 
L 222.781394 68.419487 
L 222.891004 68.419487 
L 226.574135 68.310741 
L 226.574135 68.305018 
L 226.680602 68.305018 
L 234.086936 68.196271 
L 234.086936 68.190548 
L 234.197725 68.190548 
L 239.723796 68.081802 
L 239.723796 68.076078 
L 239.832228 68.076078 
L 249.911631 67.967332 
L 249.911631 67.961609 
L 250.020456 67.961609 
L 260.801128 67.852863 
L 260.801128 67.847139 
L 260.911916 67.847139 
L 271.682373 67.738393 
L 271.792769 67.726946 
L 279.640294 67.6182 
L 279.640294 67.612477 
L 279.747939 67.612477 
L 291.999506 67.50373 
L 292.041543 67.492284 
L 292.109902 67.492284 
L 312.833653 67.383537 
L 312.833653 67.377814 
L 312.84151 67.377814 
L 336.423371 67.269068 
L 336.423371 67.263344 
L 336.523552 67.263344 
L 370.1196 67.154598 
L 370.1196 67.148875 
L 370.230388 67.148875 
L 409.368616 67.040129 
L 409.368616 67.034405 
L 409.47744 67.034405 
L 498.109091 66.96 
L 498.109091 66.96 
" style="fill:none;stroke:#ff0000;stroke-linecap:square;stroke-width:1.5;"/>
   </g>
   <g id="patch_3">
    <path d="M 72 384.48 
L 72 51.84 
" style="fill:none;stroke:#000000;stroke-linecap:square;stroke-linejoin:miter;stroke-width:0.8;"/>
   </g>
   <g id="patch_4">
    <path d="M 518.4 384.48 
L 518.4 51.84 
" style="fill:none;stroke:#000000;stroke-linecap:square;stroke-linejoin:miter;stroke-width:0.8;"/>
   </g>
   <g id="patch_5">
    <path d="M 72 384.48 
L 518.4 384.48 
" style="fill:none;stroke:#000000;stroke-linecap:square;stroke-linejoin:miter;stroke-width:0.8;"/>
   </g>
   <g id="patch_6">
    <path d="M 72 51.84 
L 518.4 51.84 
" style="fill:none;stroke:#000000;stroke-linecap:square;stroke-linejoin:miter;stroke-width:0.8;"/>
   </g>
   <g id="text_15">
    <!-- ROC Curves -->
    <g transform="translate(237.894 45.84)scale(0.192 -0.192)">
     <defs>
      <path d="M 39.40625 66.21875 
Q 28.65625 66.21875 22.328125 58.203125 
Q 16.015625 50.203125 16.015625 36.375 
Q 16.015625 22.609375 22.328125 14.59375 
Q 28.65625 6.59375 39.40625 6.59375 
Q 50.140625 6.59375 56.421875 14.59375 
Q 62.703125 22.609375 62.703125 36.375 
Q 62.703125 50.203125 56.421875 58.203125 
Q 50.140625 66.21875 39.40625 66.21875 
z
M 39.40625 74.21875 
Q 54.734375 74.21875 63.90625 63.9375 
Q 73.09375 53.65625 73.09375 36.375 
Q 73.09375 19.140625 63.90625 8.859375 
Q 54.734375 -1.421875 39.40625 -1.421875 
Q 24.03125 -1.421875 14.8125 8.828125 
Q 5.609375 19.09375 5.609375 36.375 
Q 5.609375 53.65625 14.8125 63.9375 
Q 24.03125 74.21875 39.40625 74.21875 
z
" id="DejaVuSans-79"/>
      <path d="M 64.40625 67.28125 
L 64.40625 56.890625 
Q 59.421875 61.53125 53.78125 63.8125 
Q 48.140625 66.109375 41.796875 66.109375 
Q 29.296875 66.109375 22.65625 58.46875 
Q 16.015625 50.828125 16.015625 36.375 
Q 16.015625 21.96875 22.65625 14.328125 
Q 29.296875 6.6875 41.796875 6.6875 
Q 48.140625 6.6875 53.78125 8.984375 
Q 59.421875 11.28125 64.40625 15.921875 
L 64.40625 5.609375 
Q 59.234375 2.09375 53.4375 0.328125 
Q 47.65625 -1.421875 41.21875 -1.421875 
Q 24.65625 -1.421875 15.125 8.703125 
Q 5.609375 18.84375 5.609375 36.375 
Q 5.609375 53.953125 15.125 64.078125 
Q 24.65625 74.21875 41.21875 74.21875 
Q 47.75 74.21875 53.53125 72.484375 
Q 59.328125 70.75 64.40625 67.28125 
z
" id="DejaVuSans-67"/>
     </defs>
     <use xlink:href="#DejaVuSans-82"/>
     <use x="69.482422" xlink:href="#DejaVuSans-79"/>
     <use x="148.193359" xlink:href="#DejaVuSans-67"/>
     <use x="218.017578" xlink:href="#DejaVuSans-32"/>
     <use x="249.804688" xlink:href="#DejaVuSans-67"/>
     <use x="319.628906" xlink:href="#DejaVuSans-117"/>
     <use x="383.007812" xlink:href="#DejaVuSans-114"/>
     <use x="424.121094" xlink:href="#DejaVuSans-118"/>
     <use x="483.300781" xlink:href="#DejaVuSans-101"/>
     <use x="544.824219" xlink:href="#DejaVuSans-115"/>
    </g>
   </g>
   <g id="legend_1">
    <g id="patch_7">
     <path d="M 388.9825 376.48 
L 507.2 376.48 
Q 510.4 376.48 510.4 373.28 
L 510.4 327.91 
Q 510.4 324.71 507.2 324.71 
L 388.9825 324.71 
Q 385.7825 324.71 385.7825 327.91 
L 385.7825 373.28 
Q 385.7825 376.48 388.9825 376.48 
z
" style="fill:#ffffff;opacity:0.8;stroke:#cccccc;stroke-linejoin:miter;"/>
    </g>
    <g id="line2d_15">
     <path d="M 392.1825 337.6675 
L 424.1825 337.6675 
" style="fill:none;stroke:#0000ff;stroke-linecap:square;stroke-width:1.5;"/>
    </g>
    <g id="line2d_16"/>
    <g id="text_16">
     <!-- baseline -->
     <g transform="translate(436.9825 343.2675)scale(0.16 -0.16)">
      <defs>
       <path d="M 48.6875 27.296875 
Q 48.6875 37.203125 44.609375 42.84375 
Q 40.53125 48.484375 33.40625 48.484375 
Q 26.265625 48.484375 22.1875 42.84375 
Q 18.109375 37.203125 18.109375 27.296875 
Q 18.109375 17.390625 22.1875 11.75 
Q 26.265625 6.109375 33.40625 6.109375 
Q 40.53125 6.109375 44.609375 11.75 
Q 48.6875 17.390625 48.6875 27.296875 
z
M 18.109375 46.390625 
Q 20.953125 51.265625 25.265625 53.625 
Q 29.59375 56 35.59375 56 
Q 45.5625 56 51.78125 48.09375 
Q 58.015625 40.1875 58.015625 27.296875 
Q 58.015625 14.40625 51.78125 6.484375 
Q 45.5625 -1.421875 35.59375 -1.421875 
Q 29.59375 -1.421875 25.265625 0.953125 
Q 20.953125 3.328125 18.109375 8.203125 
L 18.109375 0 
L 9.078125 0 
L 9.078125 75.984375 
L 18.109375 75.984375 
z
" id="DejaVuSans-98"/>
       <path d="M 54.890625 33.015625 
L 54.890625 0 
L 45.90625 0 
L 45.90625 32.71875 
Q 45.90625 40.484375 42.875 44.328125 
Q 39.84375 48.1875 33.796875 48.1875 
Q 26.515625 48.1875 22.3125 43.546875 
Q 18.109375 38.921875 18.109375 30.90625 
L 18.109375 0 
L 9.078125 0 
L 9.078125 54.6875 
L 18.109375 54.6875 
L 18.109375 46.1875 
Q 21.34375 51.125 25.703125 53.5625 
Q 30.078125 56 35.796875 56 
Q 45.21875 56 50.046875 50.171875 
Q 54.890625 44.34375 54.890625 33.015625 
z
" id="DejaVuSans-110"/>
      </defs>
      <use xlink:href="#DejaVuSans-98"/>
      <use x="63.476562" xlink:href="#DejaVuSans-97"/>
      <use x="124.755859" xlink:href="#DejaVuSans-115"/>
      <use x="176.855469" xlink:href="#DejaVuSans-101"/>
      <use x="238.378906" xlink:href="#DejaVuSans-108"/>
      <use x="266.162109" xlink:href="#DejaVuSans-105"/>
      <use x="293.945312" xlink:href="#DejaVuSans-110"/>
      <use x="357.324219" xlink:href="#DejaVuSans-101"/>
     </g>
    </g>
    <g id="line2d_17">
     <path d="M 392.1825 361.1525 
L 424.1825 361.1525 
" style="fill:none;stroke:#ff0000;stroke-linecap:square;stroke-width:1.5;"/>
    </g>
    <g id="line2d_18"/>
    <g id="text_17">
     <!-- model -->
     <g transform="translate(436.9825 366.7525)scale(0.16 -0.16)">
      <defs>
       <path d="M 52 44.1875 
Q 55.375 50.25 60.0625 53.125 
Q 64.75 56 71.09375 56 
Q 79.640625 56 84.28125 50.015625 
Q 88.921875 44.046875 88.921875 33.015625 
L 88.921875 0 
L 79.890625 0 
L 79.890625 32.71875 
Q 79.890625 40.578125 77.09375 44.375 
Q 74.3125 48.1875 68.609375 48.1875 
Q 61.625 48.1875 57.5625 43.546875 
Q 53.515625 38.921875 53.515625 30.90625 
L 53.515625 0 
L 44.484375 0 
L 44.484375 32.71875 
Q 44.484375 40.625 41.703125 44.40625 
Q 38.921875 48.1875 33.109375 48.1875 
Q 26.21875 48.1875 22.15625 43.53125 
Q 18.109375 38.875 18.109375 30.90625 
L 18.109375 0 
L 9.078125 0 
L 9.078125 54.6875 
L 18.109375 54.6875 
L 18.109375 46.1875 
Q 21.1875 51.21875 25.484375 53.609375 
Q 29.78125 56 35.6875 56 
Q 41.65625 56 45.828125 52.96875 
Q 50 49.953125 52 44.1875 
z
" id="DejaVuSans-109"/>
       <path d="M 45.40625 46.390625 
L 45.40625 75.984375 
L 54.390625 75.984375 
L 54.390625 0 
L 45.40625 0 
L 45.40625 8.203125 
Q 42.578125 3.328125 38.25 0.953125 
Q 33.9375 -1.421875 27.875 -1.421875 
Q 17.96875 -1.421875 11.734375 6.484375 
Q 5.515625 14.40625 5.515625 27.296875 
Q 5.515625 40.1875 11.734375 48.09375 
Q 17.96875 56 27.875 56 
Q 33.9375 56 38.25 53.625 
Q 42.578125 51.265625 45.40625 46.390625 
z
M 14.796875 27.296875 
Q 14.796875 17.390625 18.875 11.75 
Q 22.953125 6.109375 30.078125 6.109375 
Q 37.203125 6.109375 41.296875 11.75 
Q 45.40625 17.390625 45.40625 27.296875 
Q 45.40625 37.203125 41.296875 42.84375 
Q 37.203125 48.484375 30.078125 48.484375 
Q 22.953125 48.484375 18.875 42.84375 
Q 14.796875 37.203125 14.796875 27.296875 
z
" id="DejaVuSans-100"/>
      </defs>
      <use xlink:href="#DejaVuSans-109"/>
      <use x="97.412109" xlink:href="#DejaVuSans-111"/>
      <use x="158.59375" xlink:href="#DejaVuSans-100"/>
      <use x="222.070312" xlink:href="#DejaVuSans-101"/>
      <use x="283.59375" xlink:href="#DejaVuSans-108"/>
     </g>
    </g>
   </g>
  </g>
 </g>
 <defs>
  <clipPath id="p9cdee61746">
   <rect height="332.64" width="446.4" x="72" y="51.84"/>
  </clipPath>
 </defs>
</svg>
