<?xml version="1.0" encoding="utf-8" standalone="no"?>
<!DOCTYPE svg PUBLIC "-//W3C//DTD SVG 1.1//EN"
  "http://www.w3.org/Graphics/SVG/1.1/DTD/svg11.dtd">
<!-- Created with matplotlib (https://matplotlib.org/) -->
<svg height="432pt" version="1.1" viewBox="0 0 576 432" width="576pt" xmlns="http://www.w3.org/2000/svg" xmlns:xlink="http://www.w3.org/1999/xlink">
 <metadata>
  <rdf:RDF xmlns:cc="http://creativecommons.org/ns#" xmlns:dc="http://purl.org/dc/elements/1.1/" xmlns:rdf="http://www.w3.org/1999/02/22-rdf-syntax-ns#">
   <cc:Work>
    <dc:type rdf:resource="http://purl.org/dc/dcmitype/StillImage"/>
    <dc:date>2020-09-02T20:48:36.532835</dc:date>
    <dc:format>image/svg+xml</dc:format>
    <dc:creator>
     <cc:Agent>
      <dc:title>Matplotlib v3.3.0, https://matplotlib.org/</dc:title>
     </cc:Agent>
    </dc:creator>
   </cc:Work>
  </rdf:RDF>
 </metadata>
 <defs>
  <style type="text/css">*{stroke-linecap:butt;stroke-linejoin:round;}</style>
 </defs>
 <g id="figure_1">
  <g id="patch_1">
   <path d="M 0 432 
L 576 432 
L 576 0 
L 0 0 
z
" style="fill:#ffffff;"/>
  </g>
  <g id="axes_1">
   <g id="patch_2">
    <path d="M 72 384.48 
L 518.4 384.48 
L 518.4 51.84 
L 72 51.84 
z
" style="fill:#ffffff;"/>
   </g>
   <g id="matplotlib.axis_1">
    <g id="xtick_1">
     <g id="line2d_1">
      <defs>
       <path d="M 0 0 
L 0 3.5 
" id="m234ce93216" style="stroke:#000000;stroke-width:0.8;"/>
      </defs>
      <g>
       <use style="stroke:#000000;stroke-width:0.8;" x="92.290909" xlink:href="#m234ce93216" y="384.48"/>
      </g>
     </g>
     <g id="text_1">
      <!-- 0.0 -->
      <g transform="translate(79.568409 403.6375)scale(0.16 -0.16)">
       <defs>
        <path d="M 31.78125 66.40625 
Q 24.171875 66.40625 20.328125 58.90625 
Q 16.5 51.421875 16.5 36.375 
Q 16.5 21.390625 20.328125 13.890625 
Q 24.171875 6.390625 31.78125 6.390625 
Q 39.453125 6.390625 43.28125 13.890625 
Q 47.125 21.390625 47.125 36.375 
Q 47.125 51.421875 43.28125 58.90625 
Q 39.453125 66.40625 31.78125 66.40625 
z
M 31.78125 74.21875 
Q 44.046875 74.21875 50.515625 64.515625 
Q 56.984375 54.828125 56.984375 36.375 
Q 56.984375 17.96875 50.515625 8.265625 
Q 44.046875 -1.421875 31.78125 -1.421875 
Q 19.53125 -1.421875 13.0625 8.265625 
Q 6.59375 17.96875 6.59375 36.375 
Q 6.59375 54.828125 13.0625 64.515625 
Q 19.53125 74.21875 31.78125 74.21875 
z
" id="DejaVuSans-48"/>
        <path d="M 10.6875 12.40625 
L 21 12.40625 
L 21 0 
L 10.6875 0 
z
" id="DejaVuSans-46"/>
       </defs>
       <use xlink:href="#DejaVuSans-48"/>
       <use x="63.623047" xlink:href="#DejaVuSans-46"/>
       <use x="95.410156" xlink:href="#DejaVuSans-48"/>
      </g>
     </g>
    </g>
    <g id="xtick_2">
     <g id="line2d_2">
      <g>
       <use style="stroke:#000000;stroke-width:0.8;" x="173.454545" xlink:href="#m234ce93216" y="384.48"/>
      </g>
     </g>
     <g id="text_2">
      <!-- 0.2 -->
      <g transform="translate(160.732045 403.6375)scale(0.16 -0.16)">
       <defs>
        <path d="M 19.1875 8.296875 
L 53.609375 8.296875 
L 53.609375 0 
L 7.328125 0 
L 7.328125 8.296875 
Q 12.9375 14.109375 22.625 23.890625 
Q 32.328125 33.6875 34.8125 36.53125 
Q 39.546875 41.84375 41.421875 45.53125 
Q 43.3125 49.21875 43.3125 52.78125 
Q 43.3125 58.59375 39.234375 62.25 
Q 35.15625 65.921875 28.609375 65.921875 
Q 23.96875 65.921875 18.8125 64.3125 
Q 13.671875 62.703125 7.8125 59.421875 
L 7.8125 69.390625 
Q 13.765625 71.78125 18.9375 73 
Q 24.125 74.21875 28.421875 74.21875 
Q 39.75 74.21875 46.484375 68.546875 
Q 53.21875 62.890625 53.21875 53.421875 
Q 53.21875 48.921875 51.53125 44.890625 
Q 49.859375 40.875 45.40625 35.40625 
Q 44.1875 33.984375 37.640625 27.21875 
Q 31.109375 20.453125 19.1875 8.296875 
z
" id="DejaVuSans-50"/>
       </defs>
       <use xlink:href="#DejaVuSans-48"/>
       <use x="63.623047" xlink:href="#DejaVuSans-46"/>
       <use x="95.410156" xlink:href="#DejaVuSans-50"/>
      </g>
     </g>
    </g>
    <g id="xtick_3">
     <g id="line2d_3">
      <g>
       <use style="stroke:#000000;stroke-width:0.8;" x="254.618182" xlink:href="#m234ce93216" y="384.48"/>
      </g>
     </g>
     <g id="text_3">
      <!-- 0.4 -->
      <g transform="translate(241.895682 403.6375)scale(0.16 -0.16)">
       <defs>
        <path d="M 37.796875 64.3125 
L 12.890625 25.390625 
L 37.796875 25.390625 
z
M 35.203125 72.90625 
L 47.609375 72.90625 
L 47.609375 25.390625 
L 58.015625 25.390625 
L 58.015625 17.1875 
L 47.609375 17.1875 
L 47.609375 0 
L 37.796875 0 
L 37.796875 17.1875 
L 4.890625 17.1875 
L 4.890625 26.703125 
z
" id="DejaVuSans-52"/>
       </defs>
       <use xlink:href="#DejaVuSans-48"/>
       <use x="63.623047" xlink:href="#DejaVuSans-46"/>
       <use x="95.410156" xlink:href="#DejaVuSans-52"/>
      </g>
     </g>
    </g>
    <g id="xtick_4">
     <g id="line2d_4">
      <g>
       <use style="stroke:#000000;stroke-width:0.8;" x="335.781818" xlink:href="#m234ce93216" y="384.48"/>
      </g>
     </g>
     <g id="text_4">
      <!-- 0.6 -->
      <g transform="translate(323.059318 403.6375)scale(0.16 -0.16)">
       <defs>
        <path d="M 33.015625 40.375 
Q 26.375 40.375 22.484375 35.828125 
Q 18.609375 31.296875 18.609375 23.390625 
Q 18.609375 15.53125 22.484375 10.953125 
Q 26.375 6.390625 33.015625 6.390625 
Q 39.65625 6.390625 43.53125 10.953125 
Q 47.40625 15.53125 47.40625 23.390625 
Q 47.40625 31.296875 43.53125 35.828125 
Q 39.65625 40.375 33.015625 40.375 
z
M 52.59375 71.296875 
L 52.59375 62.3125 
Q 48.875 64.0625 45.09375 64.984375 
Q 41.3125 65.921875 37.59375 65.921875 
Q 27.828125 65.921875 22.671875 59.328125 
Q 17.53125 52.734375 16.796875 39.40625 
Q 19.671875 43.65625 24.015625 45.921875 
Q 28.375 48.1875 33.59375 48.1875 
Q 44.578125 48.1875 50.953125 41.515625 
Q 57.328125 34.859375 57.328125 23.390625 
Q 57.328125 12.15625 50.6875 5.359375 
Q 44.046875 -1.421875 33.015625 -1.421875 
Q 20.359375 -1.421875 13.671875 8.265625 
Q 6.984375 17.96875 6.984375 36.375 
Q 6.984375 53.65625 15.1875 63.9375 
Q 23.390625 74.21875 37.203125 74.21875 
Q 40.921875 74.21875 44.703125 73.484375 
Q 48.484375 72.75 52.59375 71.296875 
z
" id="DejaVuSans-54"/>
       </defs>
       <use xlink:href="#DejaVuSans-48"/>
       <use x="63.623047" xlink:href="#DejaVuSans-46"/>
       <use x="95.410156" xlink:href="#DejaVuSans-54"/>
      </g>
     </g>
    </g>
    <g id="xtick_5">
     <g id="line2d_5">
      <g>
       <use style="stroke:#000000;stroke-width:0.8;" x="416.945455" xlink:href="#m234ce93216" y="384.48"/>
      </g>
     </g>
     <g id="text_5">
      <!-- 0.8 -->
      <g transform="translate(404.222955 403.6375)scale(0.16 -0.16)">
       <defs>
        <path d="M 31.78125 34.625 
Q 24.75 34.625 20.71875 30.859375 
Q 16.703125 27.09375 16.703125 20.515625 
Q 16.703125 13.921875 20.71875 10.15625 
Q 24.75 6.390625 31.78125 6.390625 
Q 38.8125 6.390625 42.859375 10.171875 
Q 46.921875 13.96875 46.921875 20.515625 
Q 46.921875 27.09375 42.890625 30.859375 
Q 38.875 34.625 31.78125 34.625 
z
M 21.921875 38.8125 
Q 15.578125 40.375 12.03125 44.71875 
Q 8.5 49.078125 8.5 55.328125 
Q 8.5 64.0625 14.71875 69.140625 
Q 20.953125 74.21875 31.78125 74.21875 
Q 42.671875 74.21875 48.875 69.140625 
Q 55.078125 64.0625 55.078125 55.328125 
Q 55.078125 49.078125 51.53125 44.71875 
Q 48 40.375 41.703125 38.8125 
Q 48.828125 37.15625 52.796875 32.3125 
Q 56.78125 27.484375 56.78125 20.515625 
Q 56.78125 9.90625 50.3125 4.234375 
Q 43.84375 -1.421875 31.78125 -1.421875 
Q 19.734375 -1.421875 13.25 4.234375 
Q 6.78125 9.90625 6.78125 20.515625 
Q 6.78125 27.484375 10.78125 32.3125 
Q 14.796875 37.15625 21.921875 38.8125 
z
M 18.3125 54.390625 
Q 18.3125 48.734375 21.84375 45.5625 
Q 25.390625 42.390625 31.78125 42.390625 
Q 38.140625 42.390625 41.71875 45.5625 
Q 45.3125 48.734375 45.3125 54.390625 
Q 45.3125 60.0625 41.71875 63.234375 
Q 38.140625 66.40625 31.78125 66.40625 
Q 25.390625 66.40625 21.84375 63.234375 
Q 18.3125 60.0625 18.3125 54.390625 
z
" id="DejaVuSans-56"/>
       </defs>
       <use xlink:href="#DejaVuSans-48"/>
       <use x="63.623047" xlink:href="#DejaVuSans-46"/>
       <use x="95.410156" xlink:href="#DejaVuSans-56"/>
      </g>
     </g>
    </g>
    <g id="xtick_6">
     <g id="line2d_6">
      <g>
       <use style="stroke:#000000;stroke-width:0.8;" x="498.109091" xlink:href="#m234ce93216" y="384.48"/>
      </g>
     </g>
     <g id="text_6">
      <!-- 1.0 -->
      <g transform="translate(485.386591 403.6375)scale(0.16 -0.16)">
       <defs>
        <path d="M 12.40625 8.296875 
L 28.515625 8.296875 
L 28.515625 63.921875 
L 10.984375 60.40625 
L 10.984375 69.390625 
L 28.421875 72.90625 
L 38.28125 72.90625 
L 38.28125 8.296875 
L 54.390625 8.296875 
L 54.390625 0 
L 12.40625 0 
z
" id="DejaVuSans-49"/>
       </defs>
       <use xlink:href="#DejaVuSans-49"/>
       <use x="63.623047" xlink:href="#DejaVuSans-46"/>
       <use x="95.410156" xlink:href="#DejaVuSans-48"/>
      </g>
     </g>
    </g>
    <g id="text_7">
     <!-- False Positive Rate -->
     <g transform="translate(220.85375 423.1225)scale(0.16 -0.16)">
      <defs>
       <path d="M 9.8125 72.90625 
L 51.703125 72.90625 
L 51.703125 64.59375 
L 19.671875 64.59375 
L 19.671875 43.109375 
L 48.578125 43.109375 
L 48.578125 34.8125 
L 19.671875 34.8125 
L 19.671875 0 
L 9.8125 0 
z
" id="DejaVuSans-70"/>
       <path d="M 34.28125 27.484375 
Q 23.390625 27.484375 19.1875 25 
Q 14.984375 22.515625 14.984375 16.5 
Q 14.984375 11.71875 18.140625 8.90625 
Q 21.296875 6.109375 26.703125 6.109375 
Q 34.1875 6.109375 38.703125 11.40625 
Q 43.21875 16.703125 43.21875 25.484375 
L 43.21875 27.484375 
z
M 52.203125 31.203125 
L 52.203125 0 
L 43.21875 0 
L 43.21875 8.296875 
Q 40.140625 3.328125 35.546875 0.953125 
Q 30.953125 -1.421875 24.3125 -1.421875 
Q 15.921875 -1.421875 10.953125 3.296875 
Q 6 8.015625 6 15.921875 
Q 6 25.140625 12.171875 29.828125 
Q 18.359375 34.515625 30.609375 34.515625 
L 43.21875 34.515625 
L 43.21875 35.40625 
Q 43.21875 41.609375 39.140625 45 
Q 35.0625 48.390625 27.6875 48.390625 
Q 23 48.390625 18.546875 47.265625 
Q 14.109375 46.140625 10.015625 43.890625 
L 10.015625 52.203125 
Q 14.9375 54.109375 19.578125 55.046875 
Q 24.21875 56 28.609375 56 
Q 40.484375 56 46.34375 49.84375 
Q 52.203125 43.703125 52.203125 31.203125 
z
" id="DejaVuSans-97"/>
       <path d="M 9.421875 75.984375 
L 18.40625 75.984375 
L 18.40625 0 
L 9.421875 0 
z
" id="DejaVuSans-108"/>
       <path d="M 44.28125 53.078125 
L 44.28125 44.578125 
Q 40.484375 46.53125 36.375 47.5 
Q 32.28125 48.484375 27.875 48.484375 
Q 21.1875 48.484375 17.84375 46.4375 
Q 14.5 44.390625 14.5 40.28125 
Q 14.5 37.15625 16.890625 35.375 
Q 19.28125 33.59375 26.515625 31.984375 
L 29.59375 31.296875 
Q 39.15625 29.25 43.1875 25.515625 
Q 47.21875 21.78125 47.21875 15.09375 
Q 47.21875 7.46875 41.1875 3.015625 
Q 35.15625 -1.421875 24.609375 -1.421875 
Q 20.21875 -1.421875 15.453125 -0.5625 
Q 10.6875 0.296875 5.421875 2 
L 5.421875 11.28125 
Q 10.40625 8.6875 15.234375 7.390625 
Q 20.0625 6.109375 24.8125 6.109375 
Q 31.15625 6.109375 34.5625 8.28125 
Q 37.984375 10.453125 37.984375 14.40625 
Q 37.984375 18.0625 35.515625 20.015625 
Q 33.0625 21.96875 24.703125 23.78125 
L 21.578125 24.515625 
Q 13.234375 26.265625 9.515625 29.90625 
Q 5.8125 33.546875 5.8125 39.890625 
Q 5.8125 47.609375 11.28125 51.796875 
Q 16.75 56 26.8125 56 
Q 31.78125 56 36.171875 55.265625 
Q 40.578125 54.546875 44.28125 53.078125 
z
" id="DejaVuSans-115"/>
       <path d="M 56.203125 29.59375 
L 56.203125 25.203125 
L 14.890625 25.203125 
Q 15.484375 15.921875 20.484375 11.0625 
Q 25.484375 6.203125 34.421875 6.203125 
Q 39.59375 6.203125 44.453125 7.46875 
Q 49.3125 8.734375 54.109375 11.28125 
L 54.109375 2.78125 
Q 49.265625 0.734375 44.1875 -0.34375 
Q 39.109375 -1.421875 33.890625 -1.421875 
Q 20.796875 -1.421875 13.15625 6.1875 
Q 5.515625 13.8125 5.515625 26.8125 
Q 5.515625 40.234375 12.765625 48.109375 
Q 20.015625 56 32.328125 56 
Q 43.359375 56 49.78125 48.890625 
Q 56.203125 41.796875 56.203125 29.59375 
z
M 47.21875 32.234375 
Q 47.125 39.59375 43.09375 43.984375 
Q 39.0625 48.390625 32.421875 48.390625 
Q 24.90625 48.390625 20.390625 44.140625 
Q 15.875 39.890625 15.1875 32.171875 
z
" id="DejaVuSans-101"/>
       <path id="DejaVuSans-32"/>
       <path d="M 19.671875 64.796875 
L 19.671875 37.40625 
L 32.078125 37.40625 
Q 38.96875 37.40625 42.71875 40.96875 
Q 46.484375 44.53125 46.484375 51.125 
Q 46.484375 57.671875 42.71875 61.234375 
Q 38.96875 64.796875 32.078125 64.796875 
z
M 9.8125 72.90625 
L 32.078125 72.90625 
Q 44.34375 72.90625 50.609375 67.359375 
Q 56.890625 61.8125 56.890625 51.125 
Q 56.890625 40.328125 50.609375 34.8125 
Q 44.34375 29.296875 32.078125 29.296875 
L 19.671875 29.296875 
L 19.671875 0 
L 9.8125 0 
z
" id="DejaVuSans-80"/>
       <path d="M 30.609375 48.390625 
Q 23.390625 48.390625 19.1875 42.75 
Q 14.984375 37.109375 14.984375 27.296875 
Q 14.984375 17.484375 19.15625 11.84375 
Q 23.34375 6.203125 30.609375 6.203125 
Q 37.796875 6.203125 41.984375 11.859375 
Q 46.1875 17.53125 46.1875 27.296875 
Q 46.1875 37.015625 41.984375 42.703125 
Q 37.796875 48.390625 30.609375 48.390625 
z
M 30.609375 56 
Q 42.328125 56 49.015625 48.375 
Q 55.71875 40.765625 55.71875 27.296875 
Q 55.71875 13.875 49.015625 6.21875 
Q 42.328125 -1.421875 30.609375 -1.421875 
Q 18.84375 -1.421875 12.171875 6.21875 
Q 5.515625 13.875 5.515625 27.296875 
Q 5.515625 40.765625 12.171875 48.375 
Q 18.84375 56 30.609375 56 
z
" id="DejaVuSans-111"/>
       <path d="M 9.421875 54.6875 
L 18.40625 54.6875 
L 18.40625 0 
L 9.421875 0 
z
M 9.421875 75.984375 
L 18.40625 75.984375 
L 18.40625 64.59375 
L 9.421875 64.59375 
z
" id="DejaVuSans-105"/>
       <path d="M 18.3125 70.21875 
L 18.3125 54.6875 
L 36.8125 54.6875 
L 36.8125 47.703125 
L 18.3125 47.703125 
L 18.3125 18.015625 
Q 18.3125 11.328125 20.140625 9.421875 
Q 21.96875 7.515625 27.59375 7.515625 
L 36.8125 7.515625 
L 36.8125 0 
L 27.59375 0 
Q 17.1875 0 13.234375 3.875 
Q 9.28125 7.765625 9.28125 18.015625 
L 9.28125 47.703125 
L 2.6875 47.703125 
L 2.6875 54.6875 
L 9.28125 54.6875 
L 9.28125 70.21875 
z
" id="DejaVuSans-116"/>
       <path d="M 2.984375 54.6875 
L 12.5 54.6875 
L 29.59375 8.796875 
L 46.6875 54.6875 
L 56.203125 54.6875 
L 35.6875 0 
L 23.484375 0 
z
" id="DejaVuSans-118"/>
       <path d="M 44.390625 34.1875 
Q 47.5625 33.109375 50.5625 29.59375 
Q 53.5625 26.078125 56.59375 19.921875 
L 66.609375 0 
L 56 0 
L 46.6875 18.703125 
Q 43.0625 26.03125 39.671875 28.421875 
Q 36.28125 30.8125 30.421875 30.8125 
L 19.671875 30.8125 
L 19.671875 0 
L 9.8125 0 
L 9.8125 72.90625 
L 32.078125 72.90625 
Q 44.578125 72.90625 50.734375 67.671875 
Q 56.890625 62.453125 56.890625 51.90625 
Q 56.890625 45.015625 53.6875 40.46875 
Q 50.484375 35.9375 44.390625 34.1875 
z
M 19.671875 64.796875 
L 19.671875 38.921875 
L 32.078125 38.921875 
Q 39.203125 38.921875 42.84375 42.21875 
Q 46.484375 45.515625 46.484375 51.90625 
Q 46.484375 58.296875 42.84375 61.546875 
Q 39.203125 64.796875 32.078125 64.796875 
z
" id="DejaVuSans-82"/>
      </defs>
      <use xlink:href="#DejaVuSans-70"/>
      <use x="48.394531" xlink:href="#DejaVuSans-97"/>
      <use x="109.673828" xlink:href="#DejaVuSans-108"/>
      <use x="137.457031" xlink:href="#DejaVuSans-115"/>
      <use x="189.556641" xlink:href="#DejaVuSans-101"/>
      <use x="251.080078" xlink:href="#DejaVuSans-32"/>
      <use x="282.867188" xlink:href="#DejaVuSans-80"/>
      <use x="339.544922" xlink:href="#DejaVuSans-111"/>
      <use x="400.726562" xlink:href="#DejaVuSans-115"/>
      <use x="452.826172" xlink:href="#DejaVuSans-105"/>
      <use x="480.609375" xlink:href="#DejaVuSans-116"/>
      <use x="519.818359" xlink:href="#DejaVuSans-105"/>
      <use x="547.601562" xlink:href="#DejaVuSans-118"/>
      <use x="606.78125" xlink:href="#DejaVuSans-101"/>
      <use x="668.304688" xlink:href="#DejaVuSans-32"/>
      <use x="700.091797" xlink:href="#DejaVuSans-82"/>
      <use x="767.324219" xlink:href="#DejaVuSans-97"/>
      <use x="828.603516" xlink:href="#DejaVuSans-116"/>
      <use x="867.8125" xlink:href="#DejaVuSans-101"/>
     </g>
    </g>
   </g>
   <g id="matplotlib.axis_2">
    <g id="ytick_1">
     <g id="line2d_7">
      <defs>
       <path d="M 0 0 
L -3.5 0 
" id="m6e88f7abf7" style="stroke:#000000;stroke-width:0.8;"/>
      </defs>
      <g>
       <use style="stroke:#000000;stroke-width:0.8;" x="72" xlink:href="#m6e88f7abf7" y="369.36"/>
      </g>
     </g>
     <g id="text_8">
      <!-- 0.0 -->
      <g transform="translate(39.555 375.43875)scale(0.16 -0.16)">
       <use xlink:href="#DejaVuSans-48"/>
       <use x="63.623047" xlink:href="#DejaVuSans-46"/>
       <use x="95.410156" xlink:href="#DejaVuSans-48"/>
      </g>
     </g>
    </g>
    <g id="ytick_2">
     <g id="line2d_8">
      <g>
       <use style="stroke:#000000;stroke-width:0.8;" x="72" xlink:href="#m6e88f7abf7" y="308.88"/>
      </g>
     </g>
     <g id="text_9">
      <!-- 0.2 -->
      <g transform="translate(39.555 314.95875)scale(0.16 -0.16)">
       <use xlink:href="#DejaVuSans-48"/>
       <use x="63.623047" xlink:href="#DejaVuSans-46"/>
       <use x="95.410156" xlink:href="#DejaVuSans-50"/>
      </g>
     </g>
    </g>
    <g id="ytick_3">
     <g id="line2d_9">
      <g>
       <use style="stroke:#000000;stroke-width:0.8;" x="72" xlink:href="#m6e88f7abf7" y="248.4"/>
      </g>
     </g>
     <g id="text_10">
      <!-- 0.4 -->
      <g transform="translate(39.555 254.47875)scale(0.16 -0.16)">
       <use xlink:href="#DejaVuSans-48"/>
       <use x="63.623047" xlink:href="#DejaVuSans-46"/>
       <use x="95.410156" xlink:href="#DejaVuSans-52"/>
      </g>
     </g>
    </g>
    <g id="ytick_4">
     <g id="line2d_10">
      <g>
       <use style="stroke:#000000;stroke-width:0.8;" x="72" xlink:href="#m6e88f7abf7" y="187.92"/>
      </g>
     </g>
     <g id="text_11">
      <!-- 0.6 -->
      <g transform="translate(39.555 193.99875)scale(0.16 -0.16)">
       <use xlink:href="#DejaVuSans-48"/>
       <use x="63.623047" xlink:href="#DejaVuSans-46"/>
       <use x="95.410156" xlink:href="#DejaVuSans-54"/>
      </g>
     </g>
    </g>
    <g id="ytick_5">
     <g id="line2d_11">
      <g>
       <use style="stroke:#000000;stroke-width:0.8;" x="72" xlink:href="#m6e88f7abf7" y="127.44"/>
      </g>
     </g>
     <g id="text_12">
      <!-- 0.8 -->
      <g transform="translate(39.555 133.51875)scale(0.16 -0.16)">
       <use xlink:href="#DejaVuSans-48"/>
       <use x="63.623047" xlink:href="#DejaVuSans-46"/>
       <use x="95.410156" xlink:href="#DejaVuSans-56"/>
      </g>
     </g>
    </g>
    <g id="ytick_6">
     <g id="line2d_12">
      <g>
       <use style="stroke:#000000;stroke-width:0.8;" x="72" xlink:href="#m6e88f7abf7" y="66.96"/>
      </g>
     </g>
     <g id="text_13">
      <!-- 1.0 -->
      <g transform="translate(39.555 73.03875)scale(0.16 -0.16)">
       <use xlink:href="#DejaVuSans-49"/>
       <use x="63.623047" xlink:href="#DejaVuSans-46"/>
       <use x="95.410156" xlink:href="#DejaVuSans-48"/>
      </g>
     </g>
    </g>
    <g id="text_14">
     <!-- True Positive Rate -->
     <g transform="translate(32.2275 289.4075)rotate(-90)scale(0.16 -0.16)">
      <defs>
       <path d="M -0.296875 72.90625 
L 61.375 72.90625 
L 61.375 64.59375 
L 35.5 64.59375 
L 35.5 0 
L 25.59375 0 
L 25.59375 64.59375 
L -0.296875 64.59375 
z
" id="DejaVuSans-84"/>
       <path d="M 41.109375 46.296875 
Q 39.59375 47.171875 37.8125 47.578125 
Q 36.03125 48 33.890625 48 
Q 26.265625 48 22.1875 43.046875 
Q 18.109375 38.09375 18.109375 28.8125 
L 18.109375 0 
L 9.078125 0 
L 9.078125 54.6875 
L 18.109375 54.6875 
L 18.109375 46.1875 
Q 20.953125 51.171875 25.484375 53.578125 
Q 30.03125 56 36.53125 56 
Q 37.453125 56 38.578125 55.875 
Q 39.703125 55.765625 41.0625 55.515625 
z
" id="DejaVuSans-114"/>
       <path d="M 8.5 21.578125 
L 8.5 54.6875 
L 17.484375 54.6875 
L 17.484375 21.921875 
Q 17.484375 14.15625 20.5 10.265625 
Q 23.53125 6.390625 29.59375 6.390625 
Q 36.859375 6.390625 41.078125 11.03125 
Q 45.3125 15.671875 45.3125 23.6875 
L 45.3125 54.6875 
L 54.296875 54.6875 
L 54.296875 0 
L 45.3125 0 
L 45.3125 8.40625 
Q 42.046875 3.421875 37.71875 1 
Q 33.40625 -1.421875 27.6875 -1.421875 
Q 18.265625 -1.421875 13.375 4.4375 
Q 8.5 10.296875 8.5 21.578125 
z
M 31.109375 56 
z
" id="DejaVuSans-117"/>
      </defs>
      <use xlink:href="#DejaVuSans-84"/>
      <use x="46.333984" xlink:href="#DejaVuSans-114"/>
      <use x="87.447266" xlink:href="#DejaVuSans-117"/>
      <use x="150.826172" xlink:href="#DejaVuSans-101"/>
      <use x="212.349609" xlink:href="#DejaVuSans-32"/>
      <use x="244.136719" xlink:href="#DejaVuSans-80"/>
      <use x="300.814453" xlink:href="#DejaVuSans-111"/>
      <use x="361.996094" xlink:href="#DejaVuSans-115"/>
      <use x="414.095703" xlink:href="#DejaVuSans-105"/>
      <use x="441.878906" xlink:href="#DejaVuSans-116"/>
      <use x="481.087891" xlink:href="#DejaVuSans-105"/>
      <use x="508.871094" xlink:href="#DejaVuSans-118"/>
      <use x="568.050781" xlink:href="#DejaVuSans-101"/>
      <use x="629.574219" xlink:href="#DejaVuSans-32"/>
      <use x="661.361328" xlink:href="#DejaVuSans-82"/>
      <use x="728.59375" xlink:href="#DejaVuSans-97"/>
      <use x="789.873047" xlink:href="#DejaVuSans-116"/>
      <use x="829.082031" xlink:href="#DejaVuSans-101"/>
     </g>
    </g>
   </g>
   <g id="line2d_13">
    <path clip-path="url(#p20f3cb0ac3)" d="M 92.290909 369.36 
L 498.109091 66.96 
" style="fill:none;stroke:#0000ff;stroke-linecap:square;stroke-width:1.5;"/>
   </g>
   <g id="line2d_14">
    <path clip-path="url(#p20f3cb0ac3)" d="M 92.290909 369.36 
L 92.434044 369.257803 
L 92.434044 369.155607 
L 92.543782 369.155607 
L 92.872993 369.05341 
L 92.872993 368.951213 
L 92.974977 368.951213 
L 93.121392 368.849017 
L 93.221885 368.44023 
L 93.224569 368.44023 
L 93.398717 368.338033 
L 93.495631 368.13364 
L 93.504876 368.13364 
L 93.806951 368.031443 
L 93.825737 367.82705 
L 93.915495 367.82705 
L 94.355934 367.724853 
L 94.445394 367.52046 
L 94.466864 367.52046 
L 94.933545 367.418263 
L 94.933545 367.316066 
L 95.0403 367.316066 
L 95.16614 367.21387 
L 95.220114 367.009476 
L 95.274386 367.009476 
L 95.409768 366.907279 
L 95.939369 365.885313 
L 95.939369 365.783116 
L 96.004973 365.783116 
L 96.121867 365.680919 
L 96.168386 365.374329 
L 96.226832 365.374329 
L 96.381001 365.272132 
L 96.381001 365.169936 
L 96.485371 365.169936 
L 96.632979 365.067739 
L 96.632979 364.965542 
L 96.740629 364.965542 
L 96.758222 364.863346 
L 96.785955 364.658952 
L 96.834859 364.658952 
L 97.156914 364.556756 
L 97.260091 364.147969 
L 97.267247 364.147969 
L 97.388912 364.045772 
L 97.413663 363.841379 
L 97.492984 363.841379 
L 97.804899 363.739182 
L 97.901218 363.534789 
L 97.908673 363.534789 
L 98.149915 363.432592 
L 98.233113 363.126002 
L 98.241164 363.126002 
L 98.452587 363.023805 
L 98.458253 362.819412 
L 98.538766 362.819412 
L 98.603774 362.819412 
L 98.660133 362.512822 
L 98.703968 362.512822 
L 98.9139 362.410625 
L 98.9139 362.308429 
L 99.003658 362.308429 
L 99.367162 362.206232 
L 99.471531 361.797445 
L 99.52312 361.695248 
L 99.607212 361.490855 
L 99.615263 361.490855 
L 99.698162 361.490855 
L 99.79299 360.979872 
L 99.992186 360.877675 
L 100.077769 360.571085 
L 100.09745 360.571085 
L 100.144268 360.468888 
L 100.144268 360.366691 
L 100.194067 360.366691 
L 100.549818 360.264495 
L 100.590671 360.060101 
L 100.603493 360.060101 
L 100.806865 359.957905 
L 100.806865 359.855708 
L 100.916602 359.855708 
L 101.100292 359.753511 
L 101.151284 359.549118 
L 101.170369 359.549118 
L 101.375231 359.446921 
L 101.375231 359.344725 
L 101.446799 359.344725 
L 101.573533 359.242528 
L 101.652854 358.935938 
L 101.664186 358.935938 
L 101.784658 358.833741 
L 101.784658 358.731544 
L 101.893799 358.731544 
L 102.122219 358.629348 
L 102.122219 358.527151 
L 102.189314 358.527151 
L 102.279966 358.424954 
L 102.326485 358.220561 
L 102.389107 358.220561 
L 102.554607 358.118364 
L 102.554607 358.016168 
L 102.653012 358.016168 
L 102.857278 357.913971 
L 102.950018 357.709578 
L 102.951807 357.709578 
L 103.04574 357.607381 
L 103.04574 357.505184 
L 103.146531 357.505184 
L 103.555361 357.402987 
L 103.560729 357.198594 
L 103.65496 357.198594 
L 103.895308 357.096397 
L 103.994906 356.892004 
L 104.090926 356.789807 
L 104.090926 356.687611 
L 104.157126 356.687611 
L 104.326205 356.585414 
L 104.337238 356.278824 
L 104.434153 356.278824 
L 104.569833 356.176627 
L 104.679272 355.972234 
L 104.812865 355.870037 
L 104.898448 355.665644 
L 104.921409 355.665644 
L 104.96107 355.563447 
L 104.978067 355.359054 
L 105.023393 355.359054 
L 105.241376 355.256857 
L 105.287001 354.950267 
L 105.343658 354.950267 
L 105.850894 354.84807 
L 105.957351 354.54148 
L 105.959438 354.54148 
L 106.005659 354.439284 
L 106.005659 354.337087 
L 106.077525 354.337087 
L 106.313698 354.23489 
L 106.313698 354.132693 
L 106.385863 354.132693 
L 107.050845 354.030497 
L 107.114958 353.826103 
L 107.435223 353.723907 
L 107.435223 353.62171 
L 107.545259 353.62171 
L 107.645155 353.519513 
L 107.723581 353.212923 
L 107.748034 353.212923 
L 108.120484 353.110727 
L 108.141358 352.906333 
L 108.215609 352.906333 
L 108.370971 352.804137 
L 108.370971 352.70194 
L 108.481006 352.70194 
L 108.676922 352.599743 
L 108.775626 351.986563 
L 109.02164 351.884366 
L 109.065773 351.577776 
L 109.131377 351.577776 
L 109.305227 351.47558 
L 109.305227 351.373383 
L 109.413175 351.373383 
L 109.561678 351.271186 
L 109.561678 351.16899 
L 109.647261 351.16899 
L 109.91713 351.066793 
L 109.91713 350.964596 
L 110.025376 350.964596 
L 110.103206 350.964596 
L 110.181036 350.555809 
L 110.213838 350.555809 
L 110.322084 350.453613 
L 110.322084 350.351416 
L 110.404089 350.351416 
L 110.441065 350.249219 
L 110.545733 349.636039 
L 110.756261 349.533843 
L 110.812621 349.329449 
L 110.863315 349.329449 
L 111.055653 349.227252 
L 111.055653 349.125056 
L 111.164793 349.125056 
L 111.267374 349.022859 
L 111.267374 348.920662 
L 111.358622 348.920662 
L 111.40365 348.818466 
L 111.466272 348.511876 
L 111.498478 348.511876 
L 111.743 348.409679 
L 111.743 348.307482 
L 111.846475 348.307482 
L 111.956809 348.205286 
L 111.983945 348.000892 
L 112.064459 348.000892 
L 112.13871 347.898696 
L 112.177178 347.592105 
L 112.19328 347.592105 
L 112.468518 347.489909 
L 112.468518 347.387712 
L 112.578851 347.387712 
L 112.627159 347.285515 
L 112.676064 347.081122 
L 112.734809 347.081122 
L 113.031815 346.978925 
L 113.031815 346.876729 
L 113.139166 346.876729 
L 113.322857 346.774532 
L 113.322857 346.672335 
L 113.426928 346.672335 
L 113.564696 346.570139 
L 113.646999 346.161352 
L 113.667872 346.161352 
L 113.812797 346.059155 
L 113.855738 345.752565 
L 113.916868 345.752565 
L 114.173021 345.752565 
L 114.173021 345.548172 
L 114.266059 345.548172 
L 114.377883 345.445975 
L 114.389811 345.241582 
L 114.461677 345.241582 
L 114.869911 345.139385 
L 114.876173 344.934992 
L 114.958774 344.934992 
L 115.072686 344.832795 
L 115.072686 344.730598 
L 115.18302 344.730598 
L 115.364324 344.628401 
L 115.364324 344.526205 
L 115.428437 344.526205 
L 115.513722 344.424008 
L 115.513722 344.321811 
L 115.596323 344.321811 
L 116.253851 344.219615 
L 116.253851 344.117418 
L 116.353747 344.117418 
L 116.415773 344.015221 
L 116.521633 343.708631 
L 116.65463 343.606435 
L 116.717251 343.402041 
L 116.758403 343.402041 
L 116.898556 343.299845 
L 116.922114 342.993254 
L 116.989805 342.993254 
L 117.815815 342.891058 
L 117.815815 342.788861 
L 117.920483 342.788861 
L 118.04185 342.686664 
L 118.04185 342.584468 
L 118.146517 342.584468 
L 118.43905 342.482271 
L 118.507934 342.277878 
L 118.545209 342.277878 
L 118.742318 342.175681 
L 118.742318 342.073484 
L 118.851161 342.073484 
L 119.064373 341.971288 
L 119.161287 341.664698 
L 119.323507 341.562501 
L 119.346468 341.358107 
L 119.406108 341.358107 
L 120.012048 341.255911 
L 120.012048 341.153714 
L 120.12089 341.153714 
L 120.313228 341.051517 
L 120.323367 340.847124 
L 120.400302 340.847124 
L 120.488867 340.744927 
L 120.586676 340.540534 
L 120.599797 340.540534 
L 120.772454 340.438337 
L 120.87742 340.233944 
L 120.98835 340.131747 
L 121.078108 339.72296 
L 121.295196 339.620764 
L 121.351258 339.41637 
L 121.397478 339.41637 
L 121.716849 339.314174 
L 121.716849 339.211977 
L 121.823902 339.211977 
L 122.149833 339.10978 
L 122.258974 338.598797 
L 122.797521 338.4966 
L 122.797819 338.292207 
L 122.852688 338.292207 
L 123.101385 338.19001 
L 123.162516 337.88342 
L 123.209035 337.88342 
L 123.565084 337.781223 
L 123.614287 337.27024 
L 123.673927 337.27024 
L 124.714341 337.168043 
L 124.793364 336.861453 
L 124.817518 336.861453 
L 125.058164 336.759257 
L 125.058164 336.65706 
L 125.133311 336.65706 
L 125.373659 336.554863 
L 125.449699 336.248273 
L 125.462522 336.248273 
L 125.543035 336.146076 
L 125.543035 336.04388 
L 125.647703 336.04388 
L 125.854951 335.941683 
L 125.939341 335.73729 
L 125.945305 335.73729 
L 126.498166 335.635093 
L 126.498166 335.532896 
L 126.597764 335.532896 
L 126.677085 335.532896 
L 126.677085 335.328503 
L 126.788015 335.328503 
L 127.066234 335.226306 
L 127.163745 335.021913 
L 127.176269 335.021913 
L 127.501604 334.919716 
L 127.501604 334.817519 
L 127.604781 334.817519 
L 127.938167 334.715323 
L 128.035379 334.510929 
L 128.094124 334.408733 
L 128.094124 334.306536 
L 128.187759 334.306536 
L 128.645195 334.204339 
L 128.645195 334.102143 
L 128.751652 334.102143 
L 129.052833 333.999946 
L 129.120226 333.795553 
L 129.149449 333.795553 
L 129.787296 333.693356 
L 129.787296 333.591159 
L 129.834412 333.591159 
L 130.077742 333.488962 
L 130.089073 333.284569 
L 130.184497 333.284569 
L 130.69054 333.182372 
L 130.706941 332.977979 
L 130.796102 332.977979 
L 131.030486 332.875782 
L 131.0448 332.671389 
L 131.139925 332.671389 
L 131.451244 332.569192 
L 131.533547 332.262602 
L 131.865442 332.160406 
L 131.906295 331.956012 
L 131.951323 331.956012 
L 132.17706 331.853815 
L 132.236401 331.445029 
L 132.26801 331.445029 
L 132.351506 331.342832 
L 132.351506 331.240635 
L 132.462138 331.240635 
L 132.638075 331.138439 
L 132.638075 331.036242 
L 132.725149 331.036242 
L 132.854865 330.934045 
L 132.901384 330.729652 
L 132.965497 330.729652 
L 133.177218 330.627455 
L 133.220755 330.320865 
L 133.278605 330.320865 
L 133.476907 330.218668 
L 133.494799 329.912078 
L 133.566069 329.912078 
L 133.746181 329.809882 
L 133.812083 329.605488 
L 133.836833 329.605488 
L 134.016647 329.503292 
L 134.066148 329.298898 
L 134.120718 329.298898 
L 134.409673 329.196702 
L 134.505693 328.992308 
L 134.509271 328.992308 
L 134.657476 328.890112 
L 134.712046 328.685718 
L 134.76274 328.685718 
L 135.162922 328.583521 
L 135.199899 328.276931 
L 135.256855 328.276931 
L 135.465892 328.174735 
L 135.472154 327.970341 
L 135.560123 327.970341 
L 135.816276 327.868145 
L 135.889931 327.663751 
L 135.918259 327.663751 
L 136.213476 327.561555 
L 136.314565 327.152768 
L 136.323213 327.152768 
L 136.557001 327.050571 
L 136.636918 326.641784 
L 136.66644 326.641784 
L 136.67628 326.539588 
L 136.67628 326.437391 
L 136.764249 326.437391 
L 137.008474 326.335194 
L 137.008474 326.232998 
L 137.103301 326.232998 
L 137.200215 326.130801 
L 137.299515 325.722014 
L 137.481417 325.619818 
L 137.571472 325.313227 
L 137.583699 325.313227 
L 137.960025 325.211031 
L 138.064693 324.700047 
L 138.348876 324.597851 
L 138.439827 324.291261 
L 138.595785 324.189064 
L 138.620833 323.882474 
L 138.697172 323.882474 
L 138.814662 323.780277 
L 138.814662 323.67808 
L 138.920225 323.67808 
L 138.944975 323.575884 
L 139.016543 323.269294 
L 139.046959 323.269294 
L 139.281045 323.167097 
L 139.281045 323.0649 
L 139.388993 323.0649 
L 139.54674 322.962704 
L 139.621886 322.656114 
L 139.632621 322.656114 
L 140.032207 322.553917 
L 140.056063 322.349523 
L 140.125544 322.349523 
L 140.401974 322.247327 
L 140.496204 321.940737 
L 140.504256 321.940737 
L 140.656933 321.83854 
L 140.658424 321.634147 
L 140.746393 321.634147 
L 140.940222 321.53195 
L 141.002844 321.327557 
L 141.348456 321.22536 
L 141.376188 321.020967 
L 141.459386 321.020967 
L 141.867322 320.91877 
L 141.977953 320.61218 
L 142.034909 320.509983 
L 142.079341 320.30559 
L 142.127947 320.30559 
L 142.291658 320.203393 
L 142.353385 319.896803 
L 142.401395 319.896803 
L 143.038646 319.794606 
L 143.102758 319.590213 
L 143.228598 319.488016 
L 143.269153 319.283623 
L 143.33923 319.283623 
L 143.604328 319.181426 
L 143.605819 318.977033 
L 143.669336 318.977033 
L 144.138999 318.874836 
L 144.240684 318.568246 
L 144.398133 318.466049 
L 144.398133 318.363853 
L 144.509063 318.363853 
L 144.536497 318.261656 
L 144.536497 318.159459 
L 144.636096 318.159459 
L 145.224441 318.057263 
L 145.224441 317.955066 
L 145.312112 317.955066 
L 145.358034 317.852869 
L 145.362209 317.648476 
L 145.465982 317.648476 
L 146.010791 317.546279 
L 146.010791 317.444082 
L 146.078482 317.444082 
L 146.204322 317.341886 
L 146.204322 317.239689 
L 146.303324 317.239689 
L 146.470912 317.137492 
L 146.470912 317.035296 
L 146.577667 317.035296 
L 146.804894 316.933099 
L 146.875567 316.422116 
L 146.879742 316.422116 
L 147.0357 316.319919 
L 147.0357 316.217722 
L 147.146331 316.217722 
L 147.36998 316.115526 
L 147.36998 316.013329 
L 147.474052 316.013329 
L 148.104742 315.911132 
L 148.147682 315.706739 
L 148.214777 315.706739 
L 148.405922 315.604542 
L 148.405922 315.502345 
L 148.511783 315.502345 
L 149.041682 315.400149 
L 149.041682 315.297952 
L 149.146648 315.297952 
L 149.261454 315.195755 
L 149.30022 314.991362 
L 149.370595 314.991362 
L 149.549514 314.889165 
L 149.635395 314.684772 
L 149.655673 314.684772 
L 149.79016 314.582575 
L 149.814911 314.378182 
L 149.89781 314.378182 
L 150.125634 314.275985 
L 150.125634 314.173788 
L 150.201973 314.173788 
L 150.433971 314.071592 
L 150.526413 313.662805 
L 150.537744 313.662805 
L 150.962379 313.560608 
L 150.962379 313.458412 
L 151.072414 313.458412 
L 151.219724 313.356215 
L 151.219724 313.254018 
L 151.324989 313.254018 
L 151.60619 313.151822 
L 151.629747 312.947428 
L 151.715032 312.947428 
L 152.07794 312.845231 
L 152.07794 312.743035 
L 152.177837 312.743035 
L 152.244633 312.640838 
L 152.331707 312.436445 
L 152.355265 312.436445 
L 152.501084 312.334248 
L 152.501084 312.232051 
L 152.578317 312.232051 
L 152.816876 312.129855 
L 152.923333 311.925461 
L 152.926613 311.925461 
L 153.321726 311.823265 
L 153.321726 311.721068 
L 153.432358 311.721068 
L 153.76306 311.618871 
L 153.808685 311.312281 
L 153.863553 311.312281 
L 154.064539 311.210084 
L 154.064539 311.107888 
L 154.157577 311.107888 
L 154.321884 311.005691 
L 154.425359 310.596904 
L 154.42685 310.596904 
L 154.740257 310.494708 
L 154.765008 310.290314 
L 154.850292 310.290314 
L 155.001181 310.188118 
L 155.001181 310.085921 
L 155.064101 310.085921 
L 155.700457 309.983724 
L 155.700457 309.881528 
L 155.806317 309.881528 
L 156.056804 309.779331 
L 156.056804 309.677134 
L 156.162664 309.677134 
L 156.365738 309.574937 
L 156.381244 309.268347 
L 156.463547 309.268347 
L 156.972572 309.166151 
L 157.02088 308.961757 
L 157.078432 308.961757 
L 157.32057 308.859561 
L 157.32057 308.757364 
L 157.425237 308.757364 
L 157.801862 308.655167 
L 157.821245 308.450774 
L 157.912792 308.450774 
L 158.119742 308.348577 
L 158.217551 308.144184 
L 158.332059 308.041987 
L 158.332059 307.93979 
L 158.4412 307.93979 
L 158.563461 307.837594 
L 158.616243 307.6332 
L 158.654412 307.6332 
L 158.751923 307.531004 
L 158.855994 307.224414 
L 158.94277 307.122217 
L 159.018811 306.917824 
L 159.026862 306.917824 
L 159.212043 306.815627 
L 159.272279 306.611234 
L 159.300608 306.611234 
L 159.44106 306.509037 
L 159.479229 306.304643 
L 159.530221 306.304643 
L 159.571373 306.202447 
L 159.680513 305.998053 
L 159.681408 305.998053 
L 159.753572 305.895857 
L 159.753572 305.79366 
L 159.837962 305.79366 
L 160.176716 305.691463 
L 160.176716 305.589267 
L 160.260808 305.589267 
L 160.311203 305.48707 
L 160.405732 305.18048 
L 160.407223 305.18048 
L 160.582564 305.078283 
L 160.683653 304.87389 
L 160.764465 304.771693 
L 160.781463 304.5673 
L 160.84975 304.5673 
L 160.924598 304.465103 
L 160.924598 304.362906 
L 161.024793 304.362906 
L 161.055805 304.362906 
L 161.127671 303.749726 
L 161.156895 303.749726 
L 161.69395 303.64753 
L 161.69395 303.545333 
L 161.797127 303.545333 
L 162.343129 303.443136 
L 162.343129 303.34094 
L 162.453164 303.34094 
L 162.711106 303.238743 
L 162.805337 303.034349 
L 162.814581 303.034349 
L 163.001551 302.932153 
L 163.001551 302.829956 
L 163.097571 302.829956 
L 163.541291 302.727759 
L 163.636416 302.216776 
L 163.65073 302.216776 
L 163.943859 302.114579 
L 163.99992 301.910186 
L 164.040177 301.910186 
L 164.260844 301.807989 
L 164.279929 301.501399 
L 164.350005 301.501399 
L 164.478231 301.399202 
L 164.571269 301.194809 
L 164.613315 301.092612 
L 164.613315 300.990416 
L 164.723052 300.990416 
L 164.746013 300.888219 
L 164.746013 300.786022 
L 164.827421 300.786022 
L 165.010515 300.683826 
L 165.10236 300.377236 
L 165.120252 300.377236 
L 165.159913 300.275039 
L 165.261897 299.968449 
L 165.722912 299.866252 
L 165.762274 299.559662 
L 165.820423 299.559662 
L 165.89527 299.457465 
L 165.960278 299.150875 
L 165.988607 299.150875 
L 166.041686 299.048679 
L 166.096256 298.742089 
L 166.147248 298.742089 
L 166.184821 298.639892 
L 166.274579 298.026712 
L 166.295453 298.026712 
L 166.418013 297.924515 
L 166.4532 297.720122 
L 166.528644 297.720122 
L 166.791059 297.617925 
L 166.852786 297.209138 
L 166.897516 297.209138 
L 166.999798 297.106942 
L 167.084487 296.800351 
L 167.106851 296.800351 
L 167.435466 296.698155 
L 167.44143 296.493761 
L 167.544309 296.493761 
L 167.985643 296.391565 
L 168.068542 295.982778 
L 168.339008 295.880581 
L 168.42966 295.573991 
L 168.619613 295.471795 
L 168.676271 295.267401 
L 168.719808 295.267401 
L 168.799427 295.165204 
L 168.867118 294.756418 
L 168.89157 294.756418 
L 168.955086 294.654221 
L 169.044844 294.347631 
L 169.062736 294.347631 
L 169.375546 294.245434 
L 169.375546 294.143238 
L 169.482898 294.143238 
L 169.54045 294.041041 
L 169.54045 293.938844 
L 169.617385 293.938844 
L 169.733683 293.836648 
L 169.798392 293.530057 
L 169.83686 293.530057 
L 170.020252 293.427861 
L 170.073331 293.223467 
L 170.130585 293.223467 
L 170.225711 293.121271 
L 170.243006 292.916877 
L 170.33336 292.916877 
L 170.526891 292.814681 
L 170.616351 292.610287 
L 170.663168 292.508091 
L 170.663168 292.405894 
L 170.762766 292.405894 
L 171.086312 292.303697 
L 171.160563 291.997107 
L 171.193663 291.997107 
L 171.294156 291.89491 
L 171.341272 291.690517 
L 171.40121 291.690517 
L 171.582812 291.58832 
L 171.637681 291.383927 
L 171.692848 291.383927 
L 171.988959 291.28173 
L 172.089452 290.66855 
L 172.091241 290.66855 
L 172.6775 290.566353 
L 172.722229 290.36196 
L 172.786044 290.36196 
L 172.829283 290.259763 
L 172.844491 290.05537 
L 172.924706 290.05537 
L 173.140602 289.953173 
L 173.223799 289.646583 
L 173.248848 289.646583 
L 173.505895 289.544387 
L 173.505895 289.44219 
L 173.584918 289.44219 
L 173.803497 289.339993 
L 173.868207 289.1356 
L 173.905183 289.1356 
L 174.141356 289.033403 
L 174.243937 288.624616 
L 174.245428 288.624616 
L 174.537961 288.52242 
L 174.537961 288.420223 
L 174.646803 288.420223 
L 174.762504 288.318026 
L 174.762504 288.21583 
L 174.861506 288.21583 
L 175.028199 288.113633 
L 175.030883 287.90924 
L 175.139129 287.90924 
L 175.233956 287.807043 
L 175.233956 287.704846 
L 175.327591 287.704846 
L 175.379775 287.60265 
L 175.480268 287.091666 
L 175.487127 287.091666 
L 175.658591 286.989469 
L 175.658591 286.887273 
L 175.762066 286.887273 
L 175.860173 286.785076 
L 175.955895 286.478486 
L 176.012255 286.376289 
L 176.116624 286.069699 
L 176.232921 285.967503 
L 176.238587 285.660912 
L 176.334309 285.660912 
L 176.573464 285.558716 
L 176.590163 285.354322 
L 176.678728 285.354322 
L 176.938161 285.252126 
L 176.957842 285.047732 
L 177.038654 285.047732 
L 177.234869 284.945536 
L 177.271547 284.638946 
L 177.341326 284.638946 
L 177.366971 284.638946 
L 177.401562 284.230159 
L 177.439731 284.230159 
L 177.652049 284.127962 
L 177.758506 283.923569 
L 177.856613 283.821372 
L 177.878978 283.616979 
L 177.959193 283.616979 
L 178.087419 283.514782 
L 178.118729 283.208192 
L 178.160179 283.208192 
L 178.242184 283.105995 
L 178.320312 282.799405 
L 178.329556 282.799405 
L 178.461658 282.697209 
L 178.461658 282.595012 
L 178.561554 282.595012 
L 178.741666 282.492815 
L 178.79564 282.288422 
L 178.852 282.288422 
L 179.018096 282.186225 
L 179.100399 281.879635 
L 179.126343 281.879635 
L 179.303473 281.777438 
L 179.359534 281.470848 
L 179.414104 281.470848 
L 179.480006 281.368652 
L 179.579903 280.959865 
L 179.664591 280.857668 
L 179.664591 280.755471 
L 179.772837 280.755471 
L 179.930286 280.653275 
L 179.973823 280.448881 
L 180.040023 280.448881 
L 180.134254 280.346685 
L 180.203138 280.142291 
L 180.243693 280.142291 
L 180.360885 280.040095 
L 180.468833 279.835701 
L 180.470622 279.835701 
L 180.654014 279.733505 
L 180.692482 279.529111 
L 180.759874 279.529111 
L 180.83353 279.426914 
L 180.874085 279.222521 
L 180.92448 279.222521 
L 181.003205 279.120324 
L 181.067019 278.915931 
L 181.106679 278.915931 
L 181.176756 278.813734 
L 181.274863 278.609341 
L 181.382811 278.507144 
L 181.492548 278.098358 
L 181.65119 277.996161 
L 181.65119 277.893964 
L 181.745421 277.893964 
L 181.952073 277.791767 
L 182.03527 277.485177 
L 182.055249 277.485177 
L 182.302754 277.382981 
L 182.302754 277.280784 
L 182.412789 277.280784 
L 182.498074 277.178587 
L 182.498074 277.076391 
L 182.605426 277.076391 
L 182.668644 276.974194 
L 182.668644 276.871997 
L 182.778679 276.871997 
L 182.973999 276.769801 
L 182.973999 276.667604 
L 183.060477 276.667604 
L 183.370007 276.565407 
L 183.380146 276.361014 
L 183.418017 276.361014 
L 183.782416 276.258817 
L 183.782416 276.15662 
L 183.88261 276.15662 
L 183.939566 276.054424 
L 184.036779 275.85003 
L 184.043339 275.85003 
L 184.364499 275.747834 
L 184.364499 275.645637 
L 184.475429 275.645637 
L 184.750666 275.54344 
L 184.858614 275.23685 
L 185.028588 275.134654 
L 185.046778 274.93026 
L 185.121625 274.93026 
L 185.166653 274.828064 
L 185.228977 274.521473 
L 185.25492 274.521473 
L 185.602322 274.419277 
L 185.619319 274.214883 
L 185.712953 274.214883 
L 185.812552 274.112687 
L 185.865035 273.7039 
L 185.899626 273.7039 
L 186.101208 273.601703 
L 186.183511 273.295113 
L 186.204981 273.295113 
L 186.378234 273.192917 
L 186.378234 273.09072 
L 186.477535 273.09072 
L 186.495128 272.988523 
L 186.583395 272.681933 
L 186.864895 272.579736 
L 186.864895 272.47754 
L 186.936462 272.47754 
L 186.983876 272.375343 
L 187.039341 272.17095 
L 187.089438 272.17095 
L 187.133571 272.068753 
L 187.140132 271.86436 
L 187.236152 271.86436 
L 187.410002 271.762163 
L 187.482464 271.55777 
L 187.516757 271.55777 
L 187.864754 271.455573 
L 187.909484 271.251179 
L 187.956301 271.251179 
L 188.163251 271.148983 
L 188.209174 270.842393 
L 188.263744 270.842393 
L 188.417913 270.740196 
L 188.527352 270.433606 
L 188.723566 270.331409 
L 188.799309 270.024819 
L 188.834496 270.024819 
L 189.2809 269.922623 
L 189.2809 269.820426 
L 189.38676 269.820426 
L 189.792608 269.718229 
L 189.800362 269.513836 
L 189.901451 269.513836 
L 190.691081 269.411639 
L 190.784715 269.105049 
L 190.796345 269.105049 
L 191.211139 269.002852 
L 191.295529 268.798459 
L 191.308054 268.798459 
L 191.467292 268.696262 
L 191.467292 268.594066 
L 191.558839 268.594066 
L 192.061005 268.491869 
L 192.11647 268.287475 
L 192.171935 268.287475 
L 192.475203 268.185279 
L 192.475203 268.083082 
L 192.556909 268.083082 
L 192.633845 267.980885 
L 192.662174 267.674295 
L 192.735829 267.674295 
L 192.796363 267.572099 
L 192.859581 267.367705 
L 192.871211 267.367705 
L 193.200124 267.265509 
L 193.237995 267.061115 
L 193.307475 267.061115 
L 193.564821 266.958919 
L 193.564821 266.856722 
L 193.664121 266.856722 
L 193.867194 266.754525 
L 193.867194 266.550132 
L 193.959934 266.550132 
L 194.133784 266.447935 
L 194.23875 266.243542 
L 194.653246 266.141345 
L 194.671436 265.936952 
L 194.75016 265.936952 
L 194.782067 265.834755 
L 194.782067 265.732558 
L 194.880175 265.732558 
L 194.991105 265.630362 
L 194.991105 265.528165 
L 195.10114 265.528165 
L 195.357889 265.425968 
L 195.357889 265.323772 
L 195.44377 265.323772 
L 195.586607 265.221575 
L 195.586607 265.119378 
L 195.696941 265.119378 
L 195.807274 265.017181 
L 195.807274 264.914985 
L 195.917608 264.914985 
L 195.949217 264.812788 
L 196.05955 264.301805 
L 196.359538 264.199608 
L 196.359538 264.097411 
L 196.464802 264.097411 
L 197.03138 263.995215 
L 197.034361 263.790821 
L 197.142011 263.790821 
L 197.684434 263.688625 
L 197.791488 263.382034 
L 197.969214 263.279838 
L 197.969214 263.177641 
L 198.072689 263.177641 
L 198.128154 263.075444 
L 198.237295 262.871051 
L 198.379834 262.768854 
L 198.481519 262.564461 
L 198.483607 262.564461 
L 198.581714 262.462264 
L 198.605868 262.257871 
L 198.687873 262.257871 
L 198.892139 262.155674 
L 198.958637 261.849084 
L 198.998596 261.849084 
L 199.218964 261.746887 
L 199.328702 261.440297 
L 199.329596 261.440297 
L 199.674016 261.338101 
L 199.759599 261.031511 
L 199.776596 261.031511 
L 199.922713 260.929314 
L 199.922713 260.827117 
L 200.02261 260.827117 
L 200.583223 260.724921 
L 200.583223 260.622724 
L 200.686996 260.622724 
L 200.854286 260.520527 
L 200.941061 260.316134 
L 201.040958 260.213937 
L 201.040958 260.11174 
L 201.145924 260.11174 
L 201.298005 260.009544 
L 201.364802 259.702954 
L 201.40804 259.702954 
L 201.475135 259.600757 
L 201.475135 259.49856 
L 201.583679 259.49856 
L 201.686856 259.396364 
L 201.759915 259.19197 
L 201.777807 259.19197 
L 202.361083 259.089774 
L 202.465751 258.783184 
L 202.732042 258.680987 
L 202.820607 258.374397 
L 202.822993 258.374397 
L 202.872792 258.2722 
L 202.972688 258.067807 
L 202.980143 258.067807 
L 203.114929 257.96561 
L 203.114929 257.863413 
L 203.192461 257.863413 
L 203.561034 257.761217 
L 203.606957 257.454627 
L 203.667193 257.454627 
L 203.756653 257.35243 
L 203.756653 257.250233 
L 203.841639 257.250233 
L 203.926924 257.148036 
L 204.020857 256.841446 
L 204.055149 256.841446 
L 204.055149 256.637053 
L 204.162501 256.637053 
L 204.264187 256.637053 
L 204.344998 256.330463 
L 204.37452 256.330463 
L 204.482766 256.228266 
L 204.482766 256.12607 
L 204.587434 256.12607 
L 204.810486 256.023873 
L 204.810486 255.921676 
L 204.883843 255.921676 
L 204.963462 255.81948 
L 205.038608 255.615086 
L 205.203512 255.512889 
L 205.254504 255.308496 
L 205.314442 255.308496 
L 205.52676 255.206299 
L 205.52676 255.104103 
L 205.636198 255.104103 
L 205.79484 255.001906 
L 205.867899 254.797513 
L 205.905174 254.797513 
L 206.024453 254.695316 
L 206.121666 254.490923 
L 206.21858 254.388726 
L 206.21858 254.286529 
L 206.321161 254.286529 
L 206.524532 254.184333 
L 206.543617 253.775546 
L 206.631884 253.775546 
L 206.810803 253.673349 
L 206.810803 253.571152 
L 206.912488 253.571152 
L 206.976899 253.468956 
L 206.976899 253.366759 
L 207.086935 253.366759 
L 207.145978 253.264562 
L 207.145978 253.162366 
L 207.237823 253.162366 
L 207.300743 253.060169 
L 207.32281 252.855776 
L 207.402727 252.855776 
L 207.597152 252.753579 
L 207.671106 252.549186 
L 207.684823 252.549186 
L 207.811557 252.446989 
L 207.88223 252.038202 
L 207.898929 252.038202 
L 208.04624 251.936005 
L 208.114825 251.527219 
L 208.143452 251.527219 
L 208.288377 251.425022 
L 208.322371 251.220629 
L 208.392746 251.220629 
L 208.416006 251.118432 
L 208.468787 250.811842 
L 208.516201 250.811842 
L 208.811119 250.709645 
L 208.811119 250.607448 
L 208.916681 250.607448 
L 209.031488 250.505252 
L 209.083971 250.198662 
L 209.12542 250.198662 
L 209.470138 250.096465 
L 209.557808 249.687678 
L 209.576595 249.687678 
L 209.97469 249.585482 
L 210.005106 249.381088 
L 210.076972 249.381088 
L 210.6352 249.278892 
L 210.6352 249.176695 
L 210.743744 249.176695 
L 211.066395 249.074498 
L 211.160328 248.767908 
L 211.174045 248.767908 
L 211.304059 248.665711 
L 211.348491 248.359121 
L 211.410218 248.359121 
L 211.886143 248.256925 
L 211.905526 248.052531 
L 211.976795 248.052531 
L 212.096969 247.950335 
L 212.096969 247.848138 
L 212.199848 247.848138 
L 212.77388 247.745941 
L 212.827556 247.541548 
L 212.883319 247.541548 
L 213.062536 247.439351 
L 213.13649 247.234958 
L 213.168695 247.234958 
L 213.219389 247.132761 
L 213.219389 247.030564 
L 213.306463 247.030564 
L 213.402185 246.928368 
L 213.430812 246.723974 
L 213.473752 246.723974 
L 213.562019 246.621778 
L 213.635376 246.315188 
L 213.650882 246.315188 
L 213.762409 246.212991 
L 213.805647 246.008597 
L 213.853657 246.008597 
L 213.920752 245.906401 
L 213.920752 245.804204 
L 214.026911 245.804204 
L 214.10325 245.702007 
L 214.10325 245.599811 
L 214.209408 245.599811 
L 214.253243 245.497614 
L 214.350456 244.986631 
L 214.358209 244.986631 
L 214.615853 244.884434 
L 214.698752 244.680041 
L 214.724994 244.680041 
L 214.806402 244.577844 
L 214.806402 244.475647 
L 214.912561 244.475647 
L 214.959676 244.37345 
L 214.959676 244.271254 
L 215.070009 244.271254 
L 215.282327 244.169057 
L 215.326758 243.964664 
L 215.351509 243.964664 
L 215.449616 243.862467 
L 215.534603 243.555877 
L 215.559652 243.555877 
L 215.89095 243.45368 
L 215.89095 243.351484 
L 215.996214 243.351484 
L 216.382978 243.249287 
L 216.490628 243.044894 
L 216.541321 242.942697 
L 216.541321 242.738303 
L 216.648375 242.738303 
L 216.711891 242.636107 
L 216.737238 242.431713 
L 216.760199 242.431713 
L 217.027683 242.329517 
L 217.027683 242.22732 
L 217.129667 242.22732 
L 217.317532 242.125123 
L 217.336319 241.92073 
L 217.427568 241.92073 
L 217.617222 241.818533 
L 217.617222 241.716337 
L 217.727257 241.716337 
L 217.969394 241.61414 
L 217.969394 241.511943 
L 218.072869 241.511943 
L 218.502275 241.409747 
L 218.576527 241.205353 
L 218.588455 241.205353 
L 218.696104 241.103156 
L 218.772443 240.898763 
L 218.801965 240.898763 
L 218.907825 240.796566 
L 218.958519 240.592173 
L 219.017264 240.592173 
L 219.253736 240.489976 
L 219.253736 240.38778 
L 219.321129 240.38778 
L 219.446372 240.285583 
L 219.521816 239.978993 
L 219.549251 239.978993 
L 219.687317 239.876796 
L 219.711471 239.672403 
L 219.79437 239.672403 
L 220.108671 239.570206 
L 220.212444 239.365813 
L 220.21811 239.365813 
L 220.463528 239.263616 
L 220.558057 239.059223 
L 220.571774 239.059223 
L 220.731906 238.957026 
L 220.748009 238.752633 
L 220.835679 238.752633 
L 220.891144 238.650436 
L 220.952872 238.446043 
L 220.997005 238.446043 
L 221.246299 238.343846 
L 221.338442 237.935059 
L 221.342021 237.935059 
L 221.449969 237.832862 
L 221.449969 237.730666 
L 221.560004 237.730666 
L 221.672723 237.628469 
L 221.736836 237.117486 
L 221.770234 237.117486 
L 222.035034 237.015289 
L 222.051733 236.810896 
L 222.145666 236.810896 
L 222.244668 236.708699 
L 222.315341 236.402109 
L 222.352914 236.402109 
L 222.551216 236.299912 
L 222.551216 236.197715 
L 222.645447 236.197715 
L 222.807965 236.095519 
L 222.864026 235.788929 
L 222.917702 235.788929 
L 223.233793 235.686732 
L 223.327427 235.380142 
L 223.338759 235.380142 
L 223.414799 235.277945 
L 223.498295 235.073552 
L 223.512907 235.073552 
L 223.676021 234.971355 
L 223.693615 234.766962 
L 223.78546 234.766962 
L 224.082466 234.664765 
L 224.082466 234.562568 
L 224.19101 234.562568 
L 224.226496 234.460372 
L 224.226496 234.358175 
L 224.335935 234.358175 
L 224.453723 234.255978 
L 224.498453 233.949388 
L 224.561969 233.949388 
L 224.813649 233.847192 
L 224.813649 233.744995 
L 224.922193 233.744995 
L 225.186695 233.642798 
L 225.186695 233.540602 
L 225.279435 233.540602 
L 225.51859 233.438405 
L 225.593438 233.234011 
L 225.60149 233.234011 
L 225.720769 233.131815 
L 225.760131 232.927421 
L 225.830506 232.927421 
L 226.229794 232.825225 
L 226.229794 232.723028 
L 226.335356 232.723028 
L 226.369053 232.620831 
L 226.388436 232.416438 
L 226.479386 232.416438 
L 226.733451 232.314241 
L 226.799353 231.803258 
L 226.844083 231.803258 
L 226.949347 231.701061 
L 226.949347 231.598864 
L 227.047156 231.598864 
L 227.12767 231.496668 
L 227.12767 231.394471 
L 227.232934 231.394471 
L 227.302116 231.292274 
L 227.333427 231.087881 
L 227.409169 231.087881 
L 227.657271 230.985684 
L 227.657271 230.883488 
L 227.730628 230.883488 
L 227.870185 230.781291 
L 227.979922 230.168111 
L 227.980816 230.168111 
L 228.254264 230.065914 
L 228.256352 229.861521 
L 228.36251 229.861521 
L 228.615383 229.759324 
L 228.667866 229.554931 
L 228.714087 229.554931 
L 228.990815 229.452734 
L 228.990815 229.350537 
L 229.101447 229.350537 
L 229.252335 229.248341 
L 229.252335 229.146144 
L 229.345671 229.146144 
L 229.586616 229.043947 
L 229.693073 228.737357 
L 229.867817 228.635161 
L 229.936999 228.32857 
L 229.950716 228.32857 
L 230.053595 228.226374 
L 230.053595 228.124177 
L 230.16363 228.124177 
L 230.217306 228.02198 
L 230.217306 227.919784 
L 230.318395 227.919784 
L 230.521468 227.817587 
L 230.576933 227.510997 
L 230.630907 227.510997 
L 230.753169 227.4088 
L 230.816983 227.204407 
L 230.854854 227.204407 
L 230.94998 227.10221 
L 230.94998 227.000014 
L 231.040632 227.000014 
L 231.074925 226.897817 
L 231.074925 226.79562 
L 231.184364 226.79562 
L 231.36209 226.693423 
L 231.378491 226.48903 
L 231.463776 226.48903 
L 231.852627 226.386833 
L 231.852627 226.284637 
L 231.911074 226.284637 
L 232.008883 226.18244 
L 232.104605 225.978047 
L 232.118024 225.978047 
L 232.269509 225.87585 
L 232.285015 225.671457 
L 232.376264 225.671457 
L 232.473178 225.56926 
L 232.495245 225.26267 
L 232.576951 225.26267 
L 233.165595 225.160473 
L 233.233286 224.95608 
L 233.276227 224.95608 
L 233.368669 224.853883 
L 233.436956 224.547293 
L 233.4793 224.547293 
L 233.617068 224.445096 
L 233.617068 224.3429 
L 233.726805 224.3429 
L 233.851154 224.240703 
L 233.851154 224.138506 
L 233.951647 224.138506 
L 233.98266 224.03631 
L 234.03216 223.831916 
L 234.093291 223.831916 
L 234.139214 223.729719 
L 234.139214 223.627523 
L 234.237023 223.627523 
L 234.544167 223.525326 
L 234.650624 223.218736 
L 234.776166 223.116539 
L 234.794058 222.912146 
L 234.870099 222.912146 
L 234.959856 222.809949 
L 235.006972 222.503359 
L 235.069295 222.503359 
L 235.174858 222.401163 
L 235.256266 221.992376 
L 235.285191 221.992376 
L 235.391648 221.890179 
L 235.461725 221.685786 
L 235.499298 221.685786 
L 235.60814 221.583589 
L 235.680602 221.276999 
L 235.708037 221.276999 
L 235.801671 221.174802 
L 235.905444 220.459425 
L 235.972241 220.357229 
L 236.074523 220.152835 
L 236.078697 220.152835 
L 236.246583 220.050639 
L 236.28356 219.846245 
L 236.355128 219.846245 
L 236.551939 219.744049 
L 236.596072 219.539655 
L 236.639013 219.539655 
L 236.738015 219.437459 
L 236.797654 219.028672 
L 236.837911 219.028672 
L 237.099133 218.926475 
L 237.148634 218.619885 
L 237.202012 218.619885 
L 237.315029 218.517688 
L 237.315029 218.415492 
L 237.423573 218.415492 
L 237.442658 218.313295 
L 237.442658 218.211098 
L 237.54822 218.211098 
L 237.823756 218.108902 
L 237.920968 217.597918 
L 238.138057 217.495722 
L 238.138057 217.393525 
L 238.2138 217.393525 
L 238.387351 217.291328 
L 238.441623 216.984738 
L 238.489335 216.984738 
L 238.598476 216.882541 
L 238.638733 216.575951 
L 238.701951 216.575951 
L 238.799163 216.473755 
L 238.806022 216.269361 
L 238.903533 216.269361 
L 239.16714 216.167165 
L 239.170122 215.962771 
L 239.272405 215.962771 
L 239.52319 215.860575 
L 239.52319 215.758378 
L 239.595055 215.758378 
L 239.901007 215.656181 
L 239.97675 215.451788 
L 240.001798 215.451788 
L 240.070682 215.349591 
L 240.180717 215.145198 
L 240.212625 215.043001 
L 240.319082 214.838608 
L 240.322362 214.838608 
L 240.764889 214.736411 
L 240.764889 214.634214 
L 240.856436 214.634214 
L 240.976311 214.532018 
L 240.976311 214.429821 
L 241.07919 214.429821 
L 241.313574 214.327624 
L 241.380669 213.816641 
L 241.412278 213.816641 
L 241.570025 213.714444 
L 241.578374 213.510051 
L 241.679762 213.510051 
L 241.738507 213.407854 
L 241.738507 213.305657 
L 241.837509 213.305657 
L 241.930249 213.203461 
L 241.930249 213.101264 
L 242.040284 213.101264 
L 242.341465 212.999067 
L 242.341465 212.896871 
L 242.450605 212.896871 
L 242.663817 212.794674 
L 242.667097 212.590281 
L 242.770572 212.590281 
L 242.902078 212.488084 
L 242.905656 212.28369 
L 243.000483 212.28369 
L 243.203855 212.181494 
L 243.203855 212.079297 
L 243.290333 212.079297 
L 243.471339 211.9771 
L 243.517262 211.67051 
L 243.575112 211.67051 
L 243.943089 211.568314 
L 244.009588 211.261724 
L 244.047161 211.261724 
L 244.234728 211.159527 
L 244.234728 211.05733 
L 244.341483 211.05733 
L 244.535014 210.955133 
L 244.605388 210.546347 
L 244.625964 210.546347 
L 244.723475 210.44415 
L 244.828143 210.035363 
L 244.830827 210.035363 
L 244.99573 209.933167 
L 244.99573 209.83097 
L 245.099503 209.83097 
L 245.337466 209.728773 
L 245.444519 209.319986 
L 245.698286 209.21779 
L 245.720353 208.809003 
L 245.794903 208.809003 
L 245.934758 208.706806 
L 246.003642 208.400216 
L 246.0436 208.400216 
L 246.106222 208.29802 
L 246.200453 207.99143 
L 246.459587 207.889233 
L 246.485531 207.684839 
L 246.569623 207.684839 
L 246.990083 207.582643 
L 247.081033 207.378249 
L 247.093259 207.378249 
L 247.26204 207.276053 
L 247.310646 206.662873 
L 247.367006 206.662873 
L 247.409052 206.560676 
L 247.4341 206.356283 
L 247.517894 206.356283 
L 247.6494 206.254086 
L 247.6494 206.151889 
L 247.756751 206.151889 
L 247.94402 206.049692 
L 248.042127 205.743102 
L 248.045706 205.743102 
L 248.100872 205.640906 
L 248.131587 205.436512 
L 248.192718 205.436512 
L 248.291123 205.334316 
L 248.291123 205.232119 
L 248.395194 205.232119 
L 248.486443 205.129922 
L 248.486443 205.027726 
L 248.591707 205.027726 
L 248.651347 204.925529 
L 248.651347 204.823332 
L 248.738719 204.823332 
L 248.867839 204.721136 
L 248.867839 204.618939 
L 248.978173 204.618939 
L 249.4702 204.516742 
L 249.4702 204.414545 
L 249.553398 204.414545 
L 249.636595 204.312349 
L 249.67059 204.107955 
L 249.74007 204.107955 
L 249.944933 204.005759 
L 249.944933 203.903562 
L 250.055564 203.903562 
L 250.17216 203.801365 
L 250.224345 203.596972 
L 250.281002 203.596972 
L 250.392529 203.494775 
L 250.442924 203.290382 
L 250.500178 203.290382 
L 250.645997 203.188185 
L 250.709216 202.983792 
L 250.744403 202.983792 
L 250.884556 202.881595 
L 250.884556 202.779398 
L 250.995188 202.779398 
L 251.198858 202.677202 
L 251.290106 201.961825 
L 251.298754 201.961825 
L 251.416841 201.859628 
L 251.416841 201.757432 
L 251.521807 201.757432 
L 251.67031 201.655235 
L 251.709672 201.450842 
L 251.77617 201.450842 
L 251.936601 201.348645 
L 251.936601 201.246448 
L 252.032025 201.246448 
L 252.116713 201.144251 
L 252.198121 200.531071 
L 252.221977 200.531071 
L 252.351694 200.428875 
L 252.447117 200.020088 
L 252.45815 200.020088 
L 252.620967 199.917891 
L 252.731897 199.713498 
L 252.945407 199.611301 
L 253.020255 199.202514 
L 253.044707 199.202514 
L 253.21975 199.100318 
L 253.320839 198.691531 
L 253.327996 198.691531 
L 253.36378 198.589334 
L 253.428489 198.078351 
L 253.471131 198.078351 
L 253.621423 197.976154 
L 253.667942 197.771761 
L 253.715654 197.771761 
L 253.83225 197.669564 
L 253.84209 197.465171 
L 253.933339 197.465171 
L 253.97956 197.465171 
L 254.080351 196.954187 
L 254.170109 196.851991 
L 254.267023 196.443204 
L 254.35529 196.341007 
L 254.379742 196.136614 
L 254.463834 196.136614 
L 254.489181 196.034417 
L 254.513633 195.727827 
L 254.58699 195.727827 
L 254.680625 195.62563 
L 254.780223 195.31904 
L 254.789169 195.31904 
L 254.921271 195.216844 
L 255.000592 194.910253 
L 255.029219 194.910253 
L 255.082596 194.808057 
L 255.188159 194.603663 
L 255.250184 194.501467 
L 255.31877 194.297073 
L 255.337556 194.297073 
L 255.396599 194.194877 
L 255.48099 193.78609 
L 255.491725 193.78609 
L 255.579395 193.683893 
L 255.677503 193.4795 
L 255.678695 193.4795 
L 255.732967 193.377303 
L 255.819445 192.86632 
L 255.832864 192.86632 
L 255.974508 192.764123 
L 256.082158 192.150943 
L 256.08514 192.150943 
L 256.137623 192.048746 
L 256.195474 191.844353 
L 256.235432 191.844353 
L 256.266743 191.742156 
L 256.347257 191.231173 
L 256.377076 191.231173 
L 256.46415 191.128976 
L 256.559574 190.924583 
L 256.57508 190.924583 
L 256.649928 190.822386 
L 256.749228 190.311403 
L 256.830637 190.209206 
L 256.830637 190.107009 
L 256.935602 190.107009 
L 257.028342 190.004812 
L 257.080229 189.800419 
L 257.132414 189.800419 
L 257.170285 189.698222 
L 257.236187 189.187239 
L 257.28032 189.187239 
L 257.36471 189.085042 
L 257.431209 188.778452 
L 257.47564 188.778452 
L 257.534683 188.676255 
L 257.623547 188.471862 
L 257.645017 188.471862 
L 257.834969 188.369665 
L 257.937252 188.165272 
L 257.942023 188.165272 
L 258.029991 188.063075 
L 258.131975 187.347699 
L 258.140623 187.347699 
L 258.238432 187.245502 
L 258.343696 186.836715 
L 258.347871 186.836715 
L 258.595078 186.734518 
L 258.628476 186.325732 
L 258.698851 186.325732 
L 258.732547 186.223535 
L 258.785925 185.814748 
L 258.84139 185.814748 
L 258.992875 185.712552 
L 259.093069 185.201568 
L 259.101717 185.201568 
L 259.15092 185.099371 
L 259.166128 184.894978 
L 259.260359 184.894978 
L 259.286898 184.792781 
L 259.349222 184.383995 
L 259.391864 184.383995 
L 259.453591 184.281798 
L 259.499812 183.975208 
L 259.562732 183.975208 
L 259.63758 183.873011 
L 259.639071 183.668618 
L 259.746422 183.668618 
L 259.768191 183.566421 
L 259.844828 182.953241 
L 259.878524 182.953241 
L 259.897609 182.851044 
L 259.968282 182.442258 
L 259.994822 182.442258 
L 260.022256 182.442258 
L 260.129906 181.624684 
L 260.172846 181.522487 
L 260.266481 181.215897 
L 260.325524 181.113701 
L 260.395601 180.704914 
L 260.432279 180.704914 
L 260.498778 180.602717 
L 260.604042 179.989537 
L 260.669944 179.88734 
L 260.765069 179.376357 
L 260.770735 179.376357 
L 260.926096 179.27416 
L 261.017643 178.865373 
L 261.0248 178.865373 
L 261.080861 178.763177 
L 261.148851 178.456587 
L 261.182547 178.456587 
L 261.400232 178.35439 
L 261.508776 178.149997 
L 261.509671 178.149997 
L 261.546647 178.149997 
L 261.641475 177.74121 
L 261.652508 177.74121 
L 261.811746 177.639013 
L 261.915519 177.332423 
L 261.92208 177.332423 
L 261.936989 177.230226 
L 261.936989 177.12803 
L 262.047919 177.12803 
L 262.181214 177.025833 
L 262.292144 176.20826 
L 262.381007 176.106063 
L 262.483886 175.799473 
L 262.488359 175.799473 
L 262.518477 175.697276 
L 262.597798 175.288489 
L 262.629407 175.288489 
L 262.642826 175.186293 
L 262.738547 174.777506 
L 262.749879 174.777506 
L 262.808624 174.675309 
L 262.87721 174.368719 
L 262.917765 174.368719 
L 262.990227 174.266522 
L 263.094 173.653342 
L 263.100859 173.653342 
L 263.128591 173.551146 
L 263.145887 173.244556 
L 263.224611 173.244556 
L 263.280374 173.142359 
L 263.347469 172.733572 
L 263.387427 172.733572 
L 263.412476 172.631375 
L 263.494183 172.324785 
L 263.501041 172.324785 
L 263.604516 172.222589 
L 263.682644 172.018195 
L 263.710675 172.018195 
L 263.742582 171.915999 
L 263.823096 171.609409 
L 263.850828 171.609409 
L 263.877368 171.507212 
L 263.985017 171.200622 
L 264.04585 171.098425 
L 264.146045 170.587442 
L 264.150816 170.587442 
L 264.263535 170.485245 
L 264.34554 170.178655 
L 264.364624 170.178655 
L 264.427246 170.076458 
L 264.503287 169.769868 
L 264.536983 169.769868 
L 264.77256 169.667672 
L 264.877824 169.361081 
L 264.890647 169.258885 
L 264.997402 168.850098 
L 265.01589 168.747901 
L 265.123838 168.236918 
L 265.125627 168.236918 
L 265.185863 168.134721 
L 265.28904 167.725934 
L 265.39162 167.623738 
L 265.475414 167.214951 
L 265.496586 167.214951 
L 265.628092 167.112754 
L 265.705922 166.806164 
L 265.735443 166.806164 
L 265.752441 166.703968 
L 265.857108 166.295181 
L 265.979966 166.192984 
L 266.006804 165.784197 
L 266.07867 165.784197 
L 266.11177 165.682001 
L 266.221209 165.171017 
L 266.25252 165.068821 
L 266.344961 164.45564 
L 266.36345 164.45564 
L 266.369115 164.353444 
L 266.463346 163.740264 
L 266.494955 163.638067 
L 266.596939 163.127083 
L 266.605885 163.127083 
L 266.640178 163.024887 
L 266.66791 162.820493 
L 266.738583 162.820493 
L 266.763632 162.718297 
L 266.858459 162.30951 
L 266.872176 162.30951 
L 267.02217 162.207313 
L 267.097018 162.00292 
L 267.130416 162.00292 
L 267.181408 161.900723 
L 267.243434 161.491936 
L 267.292338 161.491936 
L 267.318281 161.38974 
L 267.41281 160.878756 
L 267.428615 160.878756 
L 267.46589 160.77656 
L 267.566681 160.061183 
L 267.572645 160.061183 
L 267.631688 159.958986 
L 267.678207 159.754593 
L 267.741127 159.754593 
L 267.770947 159.652396 
L 267.859214 159.243609 
L 267.873229 159.243609 
L 267.910802 159.141413 
L 268.00056 158.834823 
L 268.009804 158.834823 
L 268.047377 158.732626 
L 268.047377 158.630429 
L 268.157114 158.630429 
L 268.265957 158.528233 
L 268.265957 158.426036 
L 268.371221 158.426036 
L 268.463662 158.323839 
L 268.506305 158.119446 
L 268.572803 158.119446 
L 268.595466 158.017249 
L 268.687311 157.506266 
L 268.702221 157.506266 
L 268.862354 157.404069 
L 268.952708 157.097479 
L 268.959268 157.097479 
L 269.021592 156.995282 
L 269.026065 156.790889 
L 269.102105 156.790889 
L 269.168306 156.688692 
L 269.168306 156.586495 
L 269.27685 156.586495 
L 269.528231 156.484299 
L 269.596519 156.279905 
L 269.622164 156.279905 
L 269.665701 156.177709 
L 269.665701 155.973315 
L 269.772754 155.973315 
L 270.003858 155.871119 
L 270.113595 155.462332 
L 270.149975 155.360135 
L 270.188145 154.849152 
L 270.25017 154.849152 
L 270.319352 154.746955 
L 270.429984 154.338168 
L 270.540317 154.235972 
L 270.540317 154.133775 
L 270.641407 154.133775 
L 270.694486 154.031578 
L 270.754424 153.827185 
L 270.79975 153.827185 
L 270.862074 153.724988 
L 270.972109 153.418398 
L 271.005507 153.316201 
L 271.103018 152.703021 
L 271.153414 152.600825 
L 271.219614 152.294235 
L 271.262853 152.294235 
L 271.279253 152.192038 
L 271.37915 151.885448 
L 271.390183 151.885448 
L 271.559858 151.783251 
L 271.655282 151.272268 
L 271.662737 151.272268 
L 271.835394 151.170071 
L 271.835394 151.067874 
L 271.934992 151.067874 
L 272.013717 150.965678 
L 272.013717 150.863481 
L 272.10586 150.863481 
L 272.263905 150.761284 
L 272.340542 150.250301 
L 272.368871 150.250301 
L 272.538248 150.148104 
L 272.543914 149.943711 
L 272.638741 149.943711 
L 272.817064 149.841514 
L 272.888333 149.432727 
L 272.911891 149.432727 
L 272.965567 149.330531 
L 272.994194 149.126137 
L 273.063078 149.126137 
L 273.202336 149.023941 
L 273.23156 148.71735 
L 273.311775 148.71735 
L 273.33414 148.615154 
L 273.43672 148.10417 
L 273.598642 148.001974 
L 273.672297 147.593187 
L 273.707783 147.593187 
L 273.757582 147.49099 
L 273.847042 146.980007 
L 273.867021 146.980007 
L 273.958568 146.87781 
L 274.028645 146.673417 
L 274.069498 146.673417 
L 274.377537 146.57122 
L 274.377537 146.469023 
L 274.487572 146.469023 
L 274.557351 146.366827 
L 274.557351 146.26463 
L 274.667684 146.26463 
L 274.719571 146.162433 
L 274.828115 145.855843 
L 274.892526 145.753647 
L 274.944114 145.34486 
L 274.985862 145.34486 
L 275.200565 145.242663 
L 275.230385 145.03827 
L 275.309706 145.03827 
L 275.470733 144.936073 
L 275.56884 144.629483 
L 275.579576 144.629483 
L 276.0722 144.527286 
L 276.16643 143.914106 
L 276.179551 143.914106 
L 276.320003 143.811909 
L 276.413339 143.403123 
L 276.418706 143.403123 
L 276.469102 143.300926 
L 276.566613 142.892139 
L 276.574366 142.892139 
L 276.669491 142.789943 
L 276.674561 142.585549 
L 276.777738 142.585549 
L 276.808452 142.483352 
L 276.888966 142.176762 
L 276.89821 142.176762 
L 277.046713 142.074566 
L 277.109334 141.870172 
L 277.123946 141.870172 
L 277.227421 141.767976 
L 277.227421 141.665779 
L 277.329405 141.665779 
L 277.470751 141.563582 
L 277.578699 141.256992 
L 277.983653 141.154796 
L 278.051344 140.848205 
L 278.085637 140.848205 
L 278.180464 140.746009 
L 278.180464 140.643812 
L 278.270818 140.643812 
L 278.403516 140.541615 
L 278.403516 140.439419 
L 278.512061 140.439419 
L 278.937888 140.439419 
L 278.999914 140.132829 
L 279.033908 140.132829 
L 279.330914 140.030632 
L 279.441844 139.621845 
L 279.55844 139.519649 
L 279.563211 139.315255 
L 279.669071 139.315255 
L 279.729009 139.213058 
L 279.836957 138.804272 
L 279.839939 138.804272 
L 279.89779 138.702075 
L 279.962797 138.497682 
L 279.976216 138.497682 
L 280.167361 138.395485 
L 280.266363 138.088895 
L 280.455123 137.986698 
L 280.503431 137.782305 
L 280.552932 137.782305 
L 280.591101 137.680108 
L 280.591101 137.577911 
L 280.696067 137.577911 
L 280.978759 137.475715 
L 281.022893 137.271321 
L 281.085515 137.271321 
L 281.177658 137.169125 
L 281.177658 137.066928 
L 281.281133 137.066928 
L 281.462438 136.964731 
L 281.52655 136.760338 
L 281.565018 136.760338 
L 281.634796 136.658141 
L 281.727238 136.351551 
L 281.742148 136.351551 
L 282.003966 136.249355 
L 282.003966 136.147158 
L 282.110721 136.147158 
L 282.2136 136.044961 
L 282.2136 135.942764 
L 282.320355 135.942764 
L 282.36926 135.840568 
L 282.39729 135.636174 
L 282.478698 135.636174 
L 282.523428 135.533978 
L 282.570544 135.329584 
L 282.63406 135.329584 
L 282.802244 135.227388 
L 282.802244 135.125191 
L 282.891704 135.125191 
L 283.038119 135.022994 
L 283.038119 134.920798 
L 283.146365 134.920798 
L 283.739184 134.818601 
L 283.739184 134.716404 
L 283.83252 134.716404 
L 284.092848 134.614208 
L 284.131912 134.307617 
L 284.164713 134.307617 
L 284.279222 134.205421 
L 284.279222 134.103224 
L 284.379118 134.103224 
L 284.608135 134.001027 
L 284.694016 133.796634 
L 284.713101 133.796634 
L 285.170835 133.694437 
L 285.251945 133.387847 
L 285.270434 133.387847 
L 285.356017 133.285651 
L 285.371821 133.081257 
L 285.465754 133.081257 
L 285.574298 132.97906 
L 285.612766 132.774667 
L 285.680159 132.774667 
L 285.814944 132.67247 
L 285.86862 132.468077 
L 285.91991 132.468077 
L 286.102408 132.36588 
L 286.164433 132.161487 
L 286.207672 132.161487 
L 286.779915 132.05929 
L 286.834784 131.854897 
L 286.870866 131.854897 
L 287.377505 131.7527 
L 287.4446 131.44611 
L 287.487242 131.44611 
L 288.091691 131.343913 
L 288.106303 131.13952 
L 288.19278 131.13952 
L 288.521991 131.037323 
L 288.578053 130.730733 
L 288.629939 130.730733 
L 288.810349 130.628537 
L 288.875357 130.424143 
L 288.920683 130.424143 
L 289.175345 130.424143 
L 289.175345 130.21975 
L 289.265699 130.21975 
L 289.883268 130.117553 
L 289.883268 130.015357 
L 289.994198 130.015357 
L 290.034156 129.91316 
L 290.047277 129.708766 
L 290.135544 129.708766 
L 290.511572 129.60657 
L 290.511572 129.504373 
L 290.620415 129.504373 
L 291.285398 129.402176 
L 291.343248 128.99339 
L 291.395135 128.99339 
L 291.792335 128.891193 
L 291.792335 128.788996 
L 291.879708 128.788996 
L 292.008828 128.6868 
L 292.053557 128.482406 
L 292.112303 128.482406 
L 292.685738 128.38021 
L 292.744185 128.073619 
L 292.771918 128.073619 
L 293.70349 127.971423 
L 293.70349 127.869226 
L 293.805176 127.869226 
L 294.168084 127.767029 
L 294.275733 127.562636 
L 294.278715 127.562636 
L 294.419167 127.460439 
L 294.444514 127.256046 
L 294.530097 127.256046 
L 295.034351 127.153849 
L 295.141106 126.847259 
L 295.144684 126.847259 
L 295.517432 126.745063 
L 295.61226 126.540669 
L 295.838891 126.438472 
L 295.838891 126.336276 
L 295.948628 126.336276 
L 296.253088 126.234079 
L 296.323165 125.927489 
L 296.354178 125.927489 
L 297.088343 125.825292 
L 297.088343 125.723096 
L 297.196887 125.723096 
L 297.310202 125.620899 
L 297.311097 125.416506 
L 297.407415 125.416506 
L 297.639115 125.314309 
L 297.732153 125.109916 
L 297.749449 125.109916 
L 297.870518 125.007719 
L 297.943278 124.803325 
L 297.978764 124.803325 
L 298.370298 124.701129 
L 298.37328 124.496735 
L 298.464529 124.496735 
L 298.594246 124.496735 
L 298.645238 123.985752 
L 298.705175 123.985752 
L 299.272647 123.883555 
L 299.272647 123.781359 
L 299.360914 123.781359 
L 299.9758 123.679162 
L 300.023213 123.474769 
L 300.084344 123.474769 
L 300.404311 123.372572 
L 300.404311 123.270375 
L 300.511364 123.270375 
L 300.896041 123.168178 
L 300.906776 122.963785 
L 300.995043 122.963785 
L 302.098974 122.861588 
L 302.140722 122.657195 
L 302.198274 122.657195 
L 303.066628 122.554998 
L 303.066628 122.452802 
L 303.174576 122.452802 
L 304.229006 122.350605 
L 304.230796 122.146212 
L 304.329798 122.146212 
L 304.48337 122.044015 
L 304.48337 121.941818 
L 304.593405 121.941818 
L 304.790813 121.839621 
L 304.790813 121.737425 
L 304.899357 121.737425 
L 305.155808 121.635228 
L 305.155808 121.533031 
L 305.266738 121.533031 
L 305.313555 121.430835 
L 305.38393 121.226441 
L 305.422397 121.226441 
L 305.830035 121.124245 
L 305.830035 121.022048 
L 305.939474 121.022048 
L 306.371563 120.919851 
L 306.371563 120.817655 
L 306.47146 120.817655 
L 307.137337 120.715458 
L 307.137337 120.613261 
L 307.230077 120.613261 
L 307.8885 120.511065 
L 307.8885 120.408868 
L 307.998833 120.408868 
L 310.55022 120.306671 
L 310.55022 120.204474 
L 310.653994 120.204474 
L 311.315994 120.102278 
L 311.315994 120.000081 
L 311.419469 120.000081 
L 312.561868 119.897884 
L 312.561868 119.795688 
L 312.666536 119.795688 
L 313.427241 119.693491 
L 313.510438 119.489098 
L 313.535785 119.489098 
L 315.118921 119.386901 
L 315.118921 119.284704 
L 315.224185 119.284704 
L 315.305295 119.182508 
L 315.305295 119.080311 
L 315.415331 119.080311 
L 315.99145 118.978114 
L 316.063316 118.773721 
L 316.097311 118.773721 
L 316.811795 118.671524 
L 316.811795 118.569327 
L 316.909306 118.569327 
L 317.607985 118.467131 
L 317.607985 118.364934 
L 317.682236 118.364934 
L 318.312926 118.262737 
L 318.312926 118.160541 
L 318.420278 118.160541 
L 318.786764 118.058344 
L 318.786764 117.956147 
L 318.889344 117.956147 
L 319.05723 117.853951 
L 319.05723 117.751754 
L 319.167564 117.751754 
L 319.501546 117.649557 
L 319.501546 117.547361 
L 319.612178 117.547361 
L 320.031743 117.445164 
L 320.031743 117.342967 
L 320.140288 117.342967 
L 321.348886 117.240771 
L 321.348886 117.138574 
L 321.452958 117.138574 
L 323.789344 117.036377 
L 323.789344 116.93418 
L 323.879102 116.93418 
L 324.831548 116.831984 
L 324.831548 116.729787 
L 324.926077 116.729787 
L 325.231432 116.62759 
L 325.231432 116.525394 
L 325.336995 116.525394 
L 325.591358 116.423197 
L 325.591358 116.321 
L 325.69871 116.321 
L 327.154813 116.218804 
L 327.160181 116.01441 
L 327.245764 116.01441 
L 329.723198 115.912214 
L 329.723198 115.810017 
L 329.81385 115.810017 
L 329.995155 115.70782 
L 330.04406 115.40123 
L 330.102208 115.40123 
L 330.296634 115.299033 
L 330.296634 115.196837 
L 330.406669 115.196837 
L 331.672522 115.09464 
L 331.757211 114.78805 
L 331.773015 114.78805 
L 333.534474 114.685853 
L 333.534474 114.583657 
L 333.635265 114.583657 
L 334.395075 114.48146 
L 334.395075 114.379263 
L 334.500041 114.379263 
L 335.211543 114.277067 
L 335.211543 114.17487 
L 335.312036 114.17487 
L 336.067671 114.072673 
L 336.067671 113.970477 
L 336.158622 113.970477 
L 338.456242 113.86828 
L 338.466977 113.663886 
L 338.551368 113.663886 
L 339.418529 113.56169 
L 339.418529 113.459493 
L 339.524091 113.459493 
L 344.566928 113.357296 
L 344.566928 113.2551 
L 344.671596 113.2551 
L 345.034503 113.152903 
L 345.034503 113.050706 
L 345.136786 113.050706 
L 345.593626 112.94851 
L 345.641934 112.744116 
L 345.704257 112.744116 
L 346.997843 112.64192 
L 346.997843 112.539723 
L 347.10758 112.539723 
L 349.336913 112.437526 
L 349.336913 112.33533 
L 349.446352 112.33533 
L 353.545986 112.233133 
L 353.545986 112.130936 
L 353.64469 112.130936 
L 354.593558 112.028739 
L 354.593558 111.926543 
L 354.695244 111.926543 
L 355.308638 111.824346 
L 355.308638 111.722149 
L 355.41927 111.722149 
L 356.209496 111.619953 
L 356.209496 111.517756 
L 356.314462 111.517756 
L 358.702735 111.415559 
L 358.702735 111.313363 
L 358.813664 111.313363 
L 359.68023 111.211166 
L 359.68023 111.108969 
L 359.736291 111.108969 
L 360.222355 111.006773 
L 360.222355 110.904576 
L 360.330601 110.904576 
L 362.624941 110.802379 
L 362.624941 110.700182 
L 362.734678 110.700182 
L 363.286644 110.597986 
L 363.286644 110.495789 
L 363.396679 110.495789 
L 364.199429 110.393592 
L 364.288889 110.189199 
L 364.30529 110.189199 
L 365.751255 110.087002 
L 365.751255 109.984806 
L 365.861887 109.984806 
L 367.187678 109.882609 
L 367.187678 109.780412 
L 367.298608 109.780412 
L 367.827015 109.678216 
L 367.893812 109.473822 
L 367.933174 109.473822 
L 370.05933 109.371626 
L 370.05933 109.269429 
L 370.167576 109.269429 
L 370.83405 109.167232 
L 370.83405 109.065035 
L 370.93842 109.065035 
L 371.315343 108.962839 
L 371.315343 108.860642 
L 371.409275 108.860642 
L 371.513347 108.758445 
L 371.513347 108.656249 
L 371.616225 108.656249 
L 371.930825 108.554052 
L 371.930825 108.451855 
L 372.03251 108.451855 
L 372.861801 108.349659 
L 372.861801 108.247462 
L 372.970643 108.247462 
L 373.671708 108.145265 
L 373.689004 107.838675 
L 373.777569 107.838675 
L 373.998832 107.838675 
L 373.998832 107.634282 
L 374.109464 107.634282 
L 374.991237 107.532085 
L 374.991237 107.429888 
L 375.092028 107.429888 
L 375.252459 107.327692 
L 375.252459 107.225495 
L 375.360705 107.225495 
L 375.58674 107.123298 
L 375.58674 107.021102 
L 375.691705 107.021102 
L 377.433483 106.918905 
L 377.433483 106.816708 
L 377.528907 106.816708 
L 377.697091 106.714512 
L 377.697091 106.612315 
L 377.807126 106.612315 
L 378.736015 106.510118 
L 378.736015 106.407922 
L 378.843963 106.407922 
L 379.907637 106.305725 
L 379.98994 106.101332 
L 380.016778 106.101332 
L 381.252513 105.999135 
L 381.313942 105.692545 
L 381.363145 105.692545 
L 383.075103 105.590348 
L 383.113571 105.385955 
L 383.185735 105.385955 
L 383.850121 105.283758 
L 383.941966 105.079365 
L 383.957771 105.079365 
L 383.980732 104.977168 
L 384.053194 104.772775 
L 384.090171 104.772775 
L 384.731298 104.670578 
L 384.731298 104.568381 
L 384.840439 104.568381 
L 385.030988 104.466185 
L 385.030988 104.363988 
L 385.141023 104.363988 
L 385.820617 104.261791 
L 385.820617 104.159594 
L 385.925583 104.159594 
L 386.148039 104.057398 
L 386.148039 103.955201 
L 386.256584 103.955201 
L 387.289246 103.853004 
L 387.289246 103.750808 
L 387.400175 103.750808 
L 388.388107 103.648611 
L 388.388107 103.546414 
L 388.474883 103.546414 
L 389.18221 103.444218 
L 389.191753 103.239824 
L 389.258549 103.239824 
L 389.825126 103.137628 
L 389.825126 103.035431 
L 389.931583 103.035431 
L 390.264373 102.933234 
L 390.264373 102.831038 
L 390.362779 102.831038 
L 390.701234 102.728841 
L 390.735825 102.524447 
L 390.807989 102.524447 
L 391.207575 102.422251 
L 391.207575 102.320054 
L 391.307174 102.320054 
L 392.76447 102.217857 
L 392.76447 102.115661 
L 392.873313 102.115661 
L 392.899554 102.115661 
L 392.899554 101.911267 
L 393.009291 101.911267 
L 393.719302 101.809071 
L 393.719302 101.706874 
L 393.825163 101.706874 
L 394.375339 101.604677 
L 394.399791 101.400284 
L 394.482392 101.400284 
L 395.929848 101.298087 
L 395.942074 101.093694 
L 396.01394 101.093694 
L 396.451696 100.991497 
L 396.454678 100.787104 
L 396.56024 100.787104 
L 396.864105 100.684907 
L 396.936269 100.480514 
L 396.972947 100.480514 
L 397.26876 100.378317 
L 397.26876 100.27612 
L 397.378199 100.27612 
L 398.344362 100.173924 
L 398.344362 100.071727 
L 398.427262 100.071727 
L 399.167092 99.96953 
L 399.167092 99.867334 
L 399.27504 99.867334 
L 400.091806 99.765137 
L 400.091806 99.66294 
L 400.190212 99.66294 
L 401.645719 99.560743 
L 401.645719 99.458547 
L 401.75158 99.458547 
L 402.16369 99.35635 
L 402.16369 99.254153 
L 402.260008 99.254153 
L 402.540315 99.151957 
L 402.540315 99.04976 
L 402.646175 99.04976 
L 403.04278 98.947563 
L 403.113751 98.74317 
L 403.152815 98.74317 
L 403.491867 98.640973 
L 403.560154 98.43658 
L 403.590869 98.43658 
L 404.355748 98.334383 
L 404.355748 98.232187 
L 404.465485 98.232187 
L 405.326683 98.12999 
L 405.344873 97.925596 
L 405.424194 97.925596 
L 406.339365 97.8234 
L 406.339365 97.721203 
L 406.447611 97.721203 
L 407.004646 97.619006 
L 407.032677 97.414613 
L 407.11498 97.414613 
L 408.508462 97.312416 
L 408.508462 97.21022 
L 408.613428 97.21022 
L 408.897313 97.108023 
L 408.900891 96.90363 
L 409.005857 96.90363 
L 409.772227 96.801433 
L 409.795487 96.59704 
L 409.874211 96.59704 
L 410.348049 96.494843 
L 410.348049 96.392646 
L 410.453909 96.392646 
L 410.712448 96.290449 
L 410.712448 96.188253 
L 410.821588 96.188253 
L 411.786261 96.086056 
L 411.786261 95.983859 
L 411.868862 95.983859 
L 412.888105 95.881663 
L 412.888105 95.779466 
L 412.977862 95.779466 
L 413.499412 95.677269 
L 413.499412 95.575073 
L 413.580224 95.575073 
L 414.659404 95.472876 
L 414.759599 95.268483 
L 414.760494 95.268483 
L 414.921819 95.166286 
L 415.006806 94.961893 
L 415.032451 94.961893 
L 415.699819 94.859696 
L 415.699819 94.757499 
L 415.80896 94.757499 
L 416.884562 94.655302 
L 416.900665 94.348712 
L 416.982372 94.348712 
L 417.551931 94.246516 
L 417.551931 94.144319 
L 417.656002 94.144319 
L 418.100318 94.042122 
L 418.100318 93.939926 
L 418.208862 93.939926 
L 418.483205 93.837729 
L 418.483205 93.735532 
L 418.572366 93.735532 
L 419.370644 93.633336 
L 419.459507 93.428942 
L 419.475312 93.428942 
L 420.456385 93.326746 
L 420.456385 93.224549 
L 420.564631 93.224549 
L 420.747427 93.122352 
L 420.747427 93.020155 
L 420.847324 93.020155 
L 422.233351 92.917959 
L 422.233351 92.815762 
L 422.344281 92.815762 
L 422.490994 92.713565 
L 422.490994 92.611369 
L 422.572104 92.611369 
L 422.702417 92.509172 
L 422.702417 92.406975 
L 422.812154 92.406975 
L 423.833783 92.304779 
L 423.833783 92.202582 
L 423.93517 92.202582 
L 424.310602 92.100385 
L 424.310602 91.998189 
L 424.412586 91.998189 
L 424.899843 91.895992 
L 424.899843 91.793795 
L 425.009878 91.793795 
L 425.470893 91.691599 
L 425.470893 91.589402 
L 425.578244 91.589402 
L 426.386065 91.487205 
L 426.386065 91.385008 
L 426.483277 91.385008 
L 427.54218 91.282812 
L 427.610468 90.976222 
L 427.651918 90.976222 
L 427.754796 90.874025 
L 427.754796 90.771828 
L 427.862148 90.771828 
L 428.021982 90.669632 
L 428.05538 90.465238 
L 428.118598 90.465238 
L 428.282608 90.363042 
L 428.360437 90.056452 
L 428.390556 90.056452 
L 428.771057 89.954255 
L 428.771057 89.852058 
L 428.873339 89.852058 
L 428.969061 89.749861 
L 428.969061 89.545468 
L 429.041225 89.545468 
L 429.4757 89.443271 
L 429.4757 89.341075 
L 429.572913 89.341075 
L 429.990093 89.238878 
L 429.990093 89.136681 
L 430.093568 89.136681 
L 430.503293 89.034485 
L 430.609451 88.830091 
L 430.610048 88.830091 
L 431.493908 88.727895 
L 431.493908 88.625698 
L 431.591718 88.625698 
L 432.056609 88.523501 
L 432.122511 88.319108 
L 432.129668 88.319108 
L 432.340792 88.216911 
L 432.37926 88.012518 
L 432.442776 88.012518 
L 432.944346 87.910321 
L 433.004881 87.705928 
L 433.041559 87.705928 
L 433.543726 87.603731 
L 433.649288 87.297141 
L 433.654655 87.297141 
L 433.890829 87.194944 
L 433.890829 87.092748 
L 433.993707 87.092748 
L 434.547462 86.990551 
L 434.547462 86.888354 
L 434.653323 86.888354 
L 434.89039 86.786157 
L 434.89039 86.683961 
L 434.992971 86.683961 
L 435.30757 86.581764 
L 435.30757 86.479567 
L 435.391364 86.479567 
L 435.826436 86.377371 
L 435.826436 86.275174 
L 435.915895 86.275174 
L 436.071555 86.172977 
L 436.113899 85.968584 
L 436.165488 85.968584 
L 436.305045 85.866387 
L 436.305045 85.764191 
L 436.415975 85.764191 
L 437.291187 85.661994 
L 437.291187 85.559797 
L 437.393171 85.559797 
L 438.427622 85.457601 
L 438.427622 85.355404 
L 438.528413 85.355404 
L 438.795599 85.253207 
L 438.795599 85.15101 
L 438.883568 85.15101 
L 439.339812 85.048814 
L 439.339812 84.946617 
L 439.384542 84.946617 
L 439.8715 84.84442 
L 439.8715 84.742224 
L 439.94933 84.742224 
L 440.411836 84.640027 
L 440.411836 84.53783 
L 440.509943 84.53783 
L 441.554533 84.435634 
L 441.554533 84.333437 
L 441.653535 84.333437 
L 441.956803 84.23124 
L 441.956803 84.129044 
L 442.05998 84.129044 
L 442.766114 84.026847 
L 442.821579 83.822454 
L 442.86601 83.822454 
L 443.141844 83.720257 
L 443.184785 83.515863 
L 443.249196 83.515863 
L 443.389945 83.413667 
L 443.389945 83.31147 
L 443.474634 83.31147 
L 443.822035 83.209273 
L 443.822035 83.107077 
L 443.898672 83.107077 
L 444.370422 83.00488 
L 444.455111 82.800487 
L 444.481352 82.800487 
L 444.776867 82.69829 
L 444.776867 82.596093 
L 444.887499 82.596093 
L 445.374755 82.493897 
L 445.422765 82.289503 
L 445.477634 82.289503 
L 447.083135 82.187307 
L 447.083135 82.08511 
L 447.161859 82.08511 
L 448.704739 81.982913 
L 448.799864 81.676323 
L 448.808512 81.676323 
L 449.200941 81.574126 
L 449.200941 81.47193 
L 449.281455 81.47193 
L 449.438308 81.369733 
L 449.471109 81.16534 
L 449.546852 81.16534 
L 449.603808 81.063143 
L 449.603808 80.960946 
L 449.703406 80.960946 
L 449.799724 80.85875 
L 449.865924 80.654356 
L 449.90976 80.654356 
L 450.306364 80.55216 
L 450.306364 80.449963 
L 450.396718 80.449963 
L 450.679112 80.347766 
L 450.725035 80.143373 
L 450.784972 80.143373 
L 451.327694 80.041176 
L 451.327694 79.938979 
L 451.438326 79.938979 
L 451.805408 79.836783 
L 451.87787 79.632389 
L 451.90441 79.632389 
L 452.8497 79.530193 
L 452.866101 79.325799 
L 452.957946 79.325799 
L 453.118377 79.223603 
L 453.118377 79.121406 
L 453.216782 79.121406 
L 453.984942 79.019209 
L 453.984942 78.917013 
L 454.093486 78.917013 
L 454.298647 78.814816 
L 454.343973 78.610422 
L 454.404805 78.610422 
L 454.73014 78.508226 
L 454.830335 78.303832 
L 454.831528 78.303832 
L 455.075752 78.201636 
L 455.107958 77.997242 
L 455.183998 77.997242 
L 455.653363 77.895046 
L 455.653363 77.792849 
L 455.758031 77.792849 
L 456.297174 77.690652 
L 456.297174 77.588456 
L 456.402438 77.588456 
L 458.313593 77.486259 
L 458.384862 77.179669 
L 458.422435 77.179669 
L 459.407683 77.077472 
L 459.407683 76.975275 
L 459.515035 76.975275 
L 460.667274 76.873079 
L 460.667274 76.770882 
L 460.746595 76.770882 
L 461.760768 76.668685 
L 461.760768 76.566489 
L 461.840388 76.566489 
L 462.120098 76.464292 
L 462.120098 76.362095 
L 462.211347 76.362095 
L 463.157233 76.259899 
L 463.157233 76.157702 
L 463.250271 76.157702 
L 463.440819 76.055505 
L 463.440819 75.953309 
L 463.551749 75.953309 
L 463.893783 75.851112 
L 463.966544 75.646718 
L 463.985628 75.646718 
L 464.184229 75.544522 
L 464.184229 75.442325 
L 464.290387 75.442325 
L 464.683413 75.340128 
L 464.683413 75.237932 
L 464.778538 75.237932 
L 465.395511 75.135735 
L 465.395511 75.033538 
L 465.500179 75.033538 
L 466.228082 74.931342 
L 466.228082 74.829145 
L 466.331258 74.829145 
L 466.973876 74.829145 
L 467.035007 74.522555 
L 467.063336 74.522555 
L 467.467395 74.420358 
L 467.467395 74.318162 
L 467.550593 74.318162 
L 468.156234 74.215965 
L 468.215874 74.011571 
L 468.260305 74.011571 
L 468.521825 73.909375 
L 468.521825 73.807178 
L 468.631861 73.807178 
L 469.576554 73.704981 
L 469.576554 73.602785 
L 469.685695 73.602785 
L 470.053672 73.500588 
L 470.053672 73.398391 
L 470.136571 73.398391 
L 471.182353 73.296195 
L 471.208595 73.091801 
L 471.277479 73.091801 
L 472.142553 72.989605 
L 472.142553 72.887408 
L 472.249308 72.887408 
L 472.614303 72.785211 
L 472.614303 72.683015 
L 472.715392 72.683015 
L 474.473273 72.580818 
L 474.473273 72.478621 
L 474.581519 72.478621 
L 474.716603 72.376424 
L 474.716603 72.274228 
L 474.806659 72.274228 
L 475.401565 72.172031 
L 475.401565 72.069834 
L 475.507128 72.069834 
L 476.452119 71.967638 
L 476.452119 71.865441 
L 476.552314 71.865441 
L 477.70336 71.763244 
L 477.70336 71.661048 
L 477.81429 71.661048 
L 478.36059 71.558851 
L 478.36059 71.456654 
L 478.442297 71.456654 
L 478.575293 71.354458 
L 478.575293 71.252261 
L 478.595571 71.252261 
L 479.347329 71.150064 
L 479.347329 71.047868 
L 479.437982 71.047868 
L 480.233277 70.945671 
L 480.233277 70.843474 
L 480.314387 70.843474 
L 480.631671 70.741277 
L 480.714272 70.434687 
L 480.738426 70.434687 
L 481.288304 70.332491 
L 481.288304 70.230294 
L 481.395357 70.230294 
L 481.44456 70.128097 
L 481.44456 70.025901 
L 481.550719 70.025901 
L 482.616182 69.923704 
L 482.616182 69.821507 
L 482.726218 69.821507 
L 484.257766 69.719311 
L 484.257766 69.617114 
L 484.351997 69.617114 
L 484.581609 69.514917 
L 484.628725 69.310524 
L 484.638864 69.310524 
L 485.91903 69.208327 
L 486.00849 68.79954 
L 486.950201 68.697344 
L 486.950201 68.595147 
L 487.019979 68.595147 
L 488.133155 68.49295 
L 488.133155 68.390754 
L 488.18355 68.390754 
L 489.908033 68.288557 
L 489.908033 68.18636 
L 490.005842 68.18636 
L 491.518902 68.084164 
L 491.518902 67.981967 
L 491.59196 67.981967 
L 491.912226 67.87977 
L 491.912226 67.777574 
L 492.020472 67.777574 
L 493.057308 67.675377 
L 493.057308 67.57318 
L 493.122912 67.57318 
L 493.838291 67.470983 
L 493.874969 67.26659 
L 493.93103 67.26659 
L 495.39936 67.164393 
L 495.39936 67.062197 
L 495.50373 67.062197 
L 498.109091 66.96 
L 498.109091 66.96 
" style="fill:none;stroke:#ff0000;stroke-linecap:square;stroke-width:1.5;"/>
   </g>
   <g id="patch_3">
    <path d="M 72 384.48 
L 72 51.84 
" style="fill:none;stroke:#000000;stroke-linecap:square;stroke-linejoin:miter;stroke-width:0.8;"/>
   </g>
   <g id="patch_4">
    <path d="M 518.4 384.48 
L 518.4 51.84 
" style="fill:none;stroke:#000000;stroke-linecap:square;stroke-linejoin:miter;stroke-width:0.8;"/>
   </g>
   <g id="patch_5">
    <path d="M 72 384.48 
L 518.4 384.48 
" style="fill:none;stroke:#000000;stroke-linecap:square;stroke-linejoin:miter;stroke-width:0.8;"/>
   </g>
   <g id="patch_6">
    <path d="M 72 51.84 
L 518.4 51.84 
" style="fill:none;stroke:#000000;stroke-linecap:square;stroke-linejoin:miter;stroke-width:0.8;"/>
   </g>
   <g id="text_15">
    <!-- ROC Curves -->
    <g transform="translate(237.894 45.84)scale(0.192 -0.192)">
     <defs>
      <path d="M 39.40625 66.21875 
Q 28.65625 66.21875 22.328125 58.203125 
Q 16.015625 50.203125 16.015625 36.375 
Q 16.015625 22.609375 22.328125 14.59375 
Q 28.65625 6.59375 39.40625 6.59375 
Q 50.140625 6.59375 56.421875 14.59375 
Q 62.703125 22.609375 62.703125 36.375 
Q 62.703125 50.203125 56.421875 58.203125 
Q 50.140625 66.21875 39.40625 66.21875 
z
M 39.40625 74.21875 
Q 54.734375 74.21875 63.90625 63.9375 
Q 73.09375 53.65625 73.09375 36.375 
Q 73.09375 19.140625 63.90625 8.859375 
Q 54.734375 -1.421875 39.40625 -1.421875 
Q 24.03125 -1.421875 14.8125 8.828125 
Q 5.609375 19.09375 5.609375 36.375 
Q 5.609375 53.65625 14.8125 63.9375 
Q 24.03125 74.21875 39.40625 74.21875 
z
" id="DejaVuSans-79"/>
      <path d="M 64.40625 67.28125 
L 64.40625 56.890625 
Q 59.421875 61.53125 53.78125 63.8125 
Q 48.140625 66.109375 41.796875 66.109375 
Q 29.296875 66.109375 22.65625 58.46875 
Q 16.015625 50.828125 16.015625 36.375 
Q 16.015625 21.96875 22.65625 14.328125 
Q 29.296875 6.6875 41.796875 6.6875 
Q 48.140625 6.6875 53.78125 8.984375 
Q 59.421875 11.28125 64.40625 15.921875 
L 64.40625 5.609375 
Q 59.234375 2.09375 53.4375 0.328125 
Q 47.65625 -1.421875 41.21875 -1.421875 
Q 24.65625 -1.421875 15.125 8.703125 
Q 5.609375 18.84375 5.609375 36.375 
Q 5.609375 53.953125 15.125 64.078125 
Q 24.65625 74.21875 41.21875 74.21875 
Q 47.75 74.21875 53.53125 72.484375 
Q 59.328125 70.75 64.40625 67.28125 
z
" id="DejaVuSans-67"/>
     </defs>
     <use xlink:href="#DejaVuSans-82"/>
     <use x="69.482422" xlink:href="#DejaVuSans-79"/>
     <use x="148.193359" xlink:href="#DejaVuSans-67"/>
     <use x="218.017578" xlink:href="#DejaVuSans-32"/>
     <use x="249.804688" xlink:href="#DejaVuSans-67"/>
     <use x="319.628906" xlink:href="#DejaVuSans-117"/>
     <use x="383.007812" xlink:href="#DejaVuSans-114"/>
     <use x="424.121094" xlink:href="#DejaVuSans-118"/>
     <use x="483.300781" xlink:href="#DejaVuSans-101"/>
     <use x="544.824219" xlink:href="#DejaVuSans-115"/>
    </g>
   </g>
   <g id="legend_1">
    <g id="patch_7">
     <path d="M 83.2 111.61 
L 201.4175 111.61 
Q 204.6175 111.61 204.6175 108.41 
L 204.6175 63.04 
Q 204.6175 59.84 201.4175 59.84 
L 83.2 59.84 
Q 80 59.84 80 63.04 
L 80 108.41 
Q 80 111.61 83.2 111.61 
z
" style="fill:#ffffff;opacity:0.8;stroke:#cccccc;stroke-linejoin:miter;"/>
    </g>
    <g id="line2d_15">
     <path d="M 86.4 72.7975 
L 118.4 72.7975 
" style="fill:none;stroke:#0000ff;stroke-linecap:square;stroke-width:1.5;"/>
    </g>
    <g id="line2d_16"/>
    <g id="text_16">
     <!-- baseline -->
     <g transform="translate(131.2 78.3975)scale(0.16 -0.16)">
      <defs>
       <path d="M 48.6875 27.296875 
Q 48.6875 37.203125 44.609375 42.84375 
Q 40.53125 48.484375 33.40625 48.484375 
Q 26.265625 48.484375 22.1875 42.84375 
Q 18.109375 37.203125 18.109375 27.296875 
Q 18.109375 17.390625 22.1875 11.75 
Q 26.265625 6.109375 33.40625 6.109375 
Q 40.53125 6.109375 44.609375 11.75 
Q 48.6875 17.390625 48.6875 27.296875 
z
M 18.109375 46.390625 
Q 20.953125 51.265625 25.265625 53.625 
Q 29.59375 56 35.59375 56 
Q 45.5625 56 51.78125 48.09375 
Q 58.015625 40.1875 58.015625 27.296875 
Q 58.015625 14.40625 51.78125 6.484375 
Q 45.5625 -1.421875 35.59375 -1.421875 
Q 29.59375 -1.421875 25.265625 0.953125 
Q 20.953125 3.328125 18.109375 8.203125 
L 18.109375 0 
L 9.078125 0 
L 9.078125 75.984375 
L 18.109375 75.984375 
z
" id="DejaVuSans-98"/>
       <path d="M 54.890625 33.015625 
L 54.890625 0 
L 45.90625 0 
L 45.90625 32.71875 
Q 45.90625 40.484375 42.875 44.328125 
Q 39.84375 48.1875 33.796875 48.1875 
Q 26.515625 48.1875 22.3125 43.546875 
Q 18.109375 38.921875 18.109375 30.90625 
L 18.109375 0 
L 9.078125 0 
L 9.078125 54.6875 
L 18.109375 54.6875 
L 18.109375 46.1875 
Q 21.34375 51.125 25.703125 53.5625 
Q 30.078125 56 35.796875 56 
Q 45.21875 56 50.046875 50.171875 
Q 54.890625 44.34375 54.890625 33.015625 
z
" id="DejaVuSans-110"/>
      </defs>
      <use xlink:href="#DejaVuSans-98"/>
      <use x="63.476562" xlink:href="#DejaVuSans-97"/>
      <use x="124.755859" xlink:href="#DejaVuSans-115"/>
      <use x="176.855469" xlink:href="#DejaVuSans-101"/>
      <use x="238.378906" xlink:href="#DejaVuSans-108"/>
      <use x="266.162109" xlink:href="#DejaVuSans-105"/>
      <use x="293.945312" xlink:href="#DejaVuSans-110"/>
      <use x="357.324219" xlink:href="#DejaVuSans-101"/>
     </g>
    </g>
    <g id="line2d_17">
     <path d="M 86.4 96.2825 
L 118.4 96.2825 
" style="fill:none;stroke:#ff0000;stroke-linecap:square;stroke-width:1.5;"/>
    </g>
    <g id="line2d_18"/>
    <g id="text_17">
     <!-- model -->
     <g transform="translate(131.2 101.8825)scale(0.16 -0.16)">
      <defs>
       <path d="M 52 44.1875 
Q 55.375 50.25 60.0625 53.125 
Q 64.75 56 71.09375 56 
Q 79.640625 56 84.28125 50.015625 
Q 88.921875 44.046875 88.921875 33.015625 
L 88.921875 0 
L 79.890625 0 
L 79.890625 32.71875 
Q 79.890625 40.578125 77.09375 44.375 
Q 74.3125 48.1875 68.609375 48.1875 
Q 61.625 48.1875 57.5625 43.546875 
Q 53.515625 38.921875 53.515625 30.90625 
L 53.515625 0 
L 44.484375 0 
L 44.484375 32.71875 
Q 44.484375 40.625 41.703125 44.40625 
Q 38.921875 48.1875 33.109375 48.1875 
Q 26.21875 48.1875 22.15625 43.53125 
Q 18.109375 38.875 18.109375 30.90625 
L 18.109375 0 
L 9.078125 0 
L 9.078125 54.6875 
L 18.109375 54.6875 
L 18.109375 46.1875 
Q 21.1875 51.21875 25.484375 53.609375 
Q 29.78125 56 35.6875 56 
Q 41.65625 56 45.828125 52.96875 
Q 50 49.953125 52 44.1875 
z
" id="DejaVuSans-109"/>
       <path d="M 45.40625 46.390625 
L 45.40625 75.984375 
L 54.390625 75.984375 
L 54.390625 0 
L 45.40625 0 
L 45.40625 8.203125 
Q 42.578125 3.328125 38.25 0.953125 
Q 33.9375 -1.421875 27.875 -1.421875 
Q 17.96875 -1.421875 11.734375 6.484375 
Q 5.515625 14.40625 5.515625 27.296875 
Q 5.515625 40.1875 11.734375 48.09375 
Q 17.96875 56 27.875 56 
Q 33.9375 56 38.25 53.625 
Q 42.578125 51.265625 45.40625 46.390625 
z
M 14.796875 27.296875 
Q 14.796875 17.390625 18.875 11.75 
Q 22.953125 6.109375 30.078125 6.109375 
Q 37.203125 6.109375 41.296875 11.75 
Q 45.40625 17.390625 45.40625 27.296875 
Q 45.40625 37.203125 41.296875 42.84375 
Q 37.203125 48.484375 30.078125 48.484375 
Q 22.953125 48.484375 18.875 42.84375 
Q 14.796875 37.203125 14.796875 27.296875 
z
" id="DejaVuSans-100"/>
      </defs>
      <use xlink:href="#DejaVuSans-109"/>
      <use x="97.412109" xlink:href="#DejaVuSans-111"/>
      <use x="158.59375" xlink:href="#DejaVuSans-100"/>
      <use x="222.070312" xlink:href="#DejaVuSans-101"/>
      <use x="283.59375" xlink:href="#DejaVuSans-108"/>
     </g>
    </g>
   </g>
  </g>
 </g>
 <defs>
  <clipPath id="p20f3cb0ac3">
   <rect height="332.64" width="446.4" x="72" y="51.84"/>
  </clipPath>
 </defs>
</svg>
