<?xml version="1.0" encoding="utf-8" standalone="no"?>
<!DOCTYPE svg PUBLIC "-//W3C//DTD SVG 1.1//EN"
  "http://www.w3.org/Graphics/SVG/1.1/DTD/svg11.dtd">
<!-- Created with matplotlib (https://matplotlib.org/) -->
<svg height="432pt" version="1.1" viewBox="0 0 576 432" width="576pt" xmlns="http://www.w3.org/2000/svg" xmlns:xlink="http://www.w3.org/1999/xlink">
 <metadata>
  <rdf:RDF xmlns:cc="http://creativecommons.org/ns#" xmlns:dc="http://purl.org/dc/elements/1.1/" xmlns:rdf="http://www.w3.org/1999/02/22-rdf-syntax-ns#">
   <cc:Work>
    <dc:type rdf:resource="http://purl.org/dc/dcmitype/StillImage"/>
    <dc:date>2020-09-03T01:01:46.703097</dc:date>
    <dc:format>image/svg+xml</dc:format>
    <dc:creator>
     <cc:Agent>
      <dc:title>Matplotlib v3.3.0, https://matplotlib.org/</dc:title>
     </cc:Agent>
    </dc:creator>
   </cc:Work>
  </rdf:RDF>
 </metadata>
 <defs>
  <style type="text/css">*{stroke-linecap:butt;stroke-linejoin:round;}</style>
 </defs>
 <g id="figure_1">
  <g id="patch_1">
   <path d="M 0 432 
L 576 432 
L 576 0 
L 0 0 
z
" style="fill:#ffffff;"/>
  </g>
  <g id="axes_1">
   <g id="patch_2">
    <path d="M 72 384.48 
L 518.4 384.48 
L 518.4 51.84 
L 72 51.84 
z
" style="fill:#ffffff;"/>
   </g>
   <g id="matplotlib.axis_1">
    <g id="xtick_1">
     <g id="line2d_1">
      <defs>
       <path d="M 0 0 
L 0 3.5 
" id="m56ed71bc76" style="stroke:#000000;stroke-width:0.8;"/>
      </defs>
      <g>
       <use style="stroke:#000000;stroke-width:0.8;" x="92.290909" xlink:href="#m56ed71bc76" y="384.48"/>
      </g>
     </g>
     <g id="text_1">
      <!-- 0.0 -->
      <g transform="translate(79.568409 403.6375)scale(0.16 -0.16)">
       <defs>
        <path d="M 31.78125 66.40625 
Q 24.171875 66.40625 20.328125 58.90625 
Q 16.5 51.421875 16.5 36.375 
Q 16.5 21.390625 20.328125 13.890625 
Q 24.171875 6.390625 31.78125 6.390625 
Q 39.453125 6.390625 43.28125 13.890625 
Q 47.125 21.390625 47.125 36.375 
Q 47.125 51.421875 43.28125 58.90625 
Q 39.453125 66.40625 31.78125 66.40625 
z
M 31.78125 74.21875 
Q 44.046875 74.21875 50.515625 64.515625 
Q 56.984375 54.828125 56.984375 36.375 
Q 56.984375 17.96875 50.515625 8.265625 
Q 44.046875 -1.421875 31.78125 -1.421875 
Q 19.53125 -1.421875 13.0625 8.265625 
Q 6.59375 17.96875 6.59375 36.375 
Q 6.59375 54.828125 13.0625 64.515625 
Q 19.53125 74.21875 31.78125 74.21875 
z
" id="DejaVuSans-48"/>
        <path d="M 10.6875 12.40625 
L 21 12.40625 
L 21 0 
L 10.6875 0 
z
" id="DejaVuSans-46"/>
       </defs>
       <use xlink:href="#DejaVuSans-48"/>
       <use x="63.623047" xlink:href="#DejaVuSans-46"/>
       <use x="95.410156" xlink:href="#DejaVuSans-48"/>
      </g>
     </g>
    </g>
    <g id="xtick_2">
     <g id="line2d_2">
      <g>
       <use style="stroke:#000000;stroke-width:0.8;" x="173.454545" xlink:href="#m56ed71bc76" y="384.48"/>
      </g>
     </g>
     <g id="text_2">
      <!-- 0.2 -->
      <g transform="translate(160.732045 403.6375)scale(0.16 -0.16)">
       <defs>
        <path d="M 19.1875 8.296875 
L 53.609375 8.296875 
L 53.609375 0 
L 7.328125 0 
L 7.328125 8.296875 
Q 12.9375 14.109375 22.625 23.890625 
Q 32.328125 33.6875 34.8125 36.53125 
Q 39.546875 41.84375 41.421875 45.53125 
Q 43.3125 49.21875 43.3125 52.78125 
Q 43.3125 58.59375 39.234375 62.25 
Q 35.15625 65.921875 28.609375 65.921875 
Q 23.96875 65.921875 18.8125 64.3125 
Q 13.671875 62.703125 7.8125 59.421875 
L 7.8125 69.390625 
Q 13.765625 71.78125 18.9375 73 
Q 24.125 74.21875 28.421875 74.21875 
Q 39.75 74.21875 46.484375 68.546875 
Q 53.21875 62.890625 53.21875 53.421875 
Q 53.21875 48.921875 51.53125 44.890625 
Q 49.859375 40.875 45.40625 35.40625 
Q 44.1875 33.984375 37.640625 27.21875 
Q 31.109375 20.453125 19.1875 8.296875 
z
" id="DejaVuSans-50"/>
       </defs>
       <use xlink:href="#DejaVuSans-48"/>
       <use x="63.623047" xlink:href="#DejaVuSans-46"/>
       <use x="95.410156" xlink:href="#DejaVuSans-50"/>
      </g>
     </g>
    </g>
    <g id="xtick_3">
     <g id="line2d_3">
      <g>
       <use style="stroke:#000000;stroke-width:0.8;" x="254.618182" xlink:href="#m56ed71bc76" y="384.48"/>
      </g>
     </g>
     <g id="text_3">
      <!-- 0.4 -->
      <g transform="translate(241.895682 403.6375)scale(0.16 -0.16)">
       <defs>
        <path d="M 37.796875 64.3125 
L 12.890625 25.390625 
L 37.796875 25.390625 
z
M 35.203125 72.90625 
L 47.609375 72.90625 
L 47.609375 25.390625 
L 58.015625 25.390625 
L 58.015625 17.1875 
L 47.609375 17.1875 
L 47.609375 0 
L 37.796875 0 
L 37.796875 17.1875 
L 4.890625 17.1875 
L 4.890625 26.703125 
z
" id="DejaVuSans-52"/>
       </defs>
       <use xlink:href="#DejaVuSans-48"/>
       <use x="63.623047" xlink:href="#DejaVuSans-46"/>
       <use x="95.410156" xlink:href="#DejaVuSans-52"/>
      </g>
     </g>
    </g>
    <g id="xtick_4">
     <g id="line2d_4">
      <g>
       <use style="stroke:#000000;stroke-width:0.8;" x="335.781818" xlink:href="#m56ed71bc76" y="384.48"/>
      </g>
     </g>
     <g id="text_4">
      <!-- 0.6 -->
      <g transform="translate(323.059318 403.6375)scale(0.16 -0.16)">
       <defs>
        <path d="M 33.015625 40.375 
Q 26.375 40.375 22.484375 35.828125 
Q 18.609375 31.296875 18.609375 23.390625 
Q 18.609375 15.53125 22.484375 10.953125 
Q 26.375 6.390625 33.015625 6.390625 
Q 39.65625 6.390625 43.53125 10.953125 
Q 47.40625 15.53125 47.40625 23.390625 
Q 47.40625 31.296875 43.53125 35.828125 
Q 39.65625 40.375 33.015625 40.375 
z
M 52.59375 71.296875 
L 52.59375 62.3125 
Q 48.875 64.0625 45.09375 64.984375 
Q 41.3125 65.921875 37.59375 65.921875 
Q 27.828125 65.921875 22.671875 59.328125 
Q 17.53125 52.734375 16.796875 39.40625 
Q 19.671875 43.65625 24.015625 45.921875 
Q 28.375 48.1875 33.59375 48.1875 
Q 44.578125 48.1875 50.953125 41.515625 
Q 57.328125 34.859375 57.328125 23.390625 
Q 57.328125 12.15625 50.6875 5.359375 
Q 44.046875 -1.421875 33.015625 -1.421875 
Q 20.359375 -1.421875 13.671875 8.265625 
Q 6.984375 17.96875 6.984375 36.375 
Q 6.984375 53.65625 15.1875 63.9375 
Q 23.390625 74.21875 37.203125 74.21875 
Q 40.921875 74.21875 44.703125 73.484375 
Q 48.484375 72.75 52.59375 71.296875 
z
" id="DejaVuSans-54"/>
       </defs>
       <use xlink:href="#DejaVuSans-48"/>
       <use x="63.623047" xlink:href="#DejaVuSans-46"/>
       <use x="95.410156" xlink:href="#DejaVuSans-54"/>
      </g>
     </g>
    </g>
    <g id="xtick_5">
     <g id="line2d_5">
      <g>
       <use style="stroke:#000000;stroke-width:0.8;" x="416.945455" xlink:href="#m56ed71bc76" y="384.48"/>
      </g>
     </g>
     <g id="text_5">
      <!-- 0.8 -->
      <g transform="translate(404.222955 403.6375)scale(0.16 -0.16)">
       <defs>
        <path d="M 31.78125 34.625 
Q 24.75 34.625 20.71875 30.859375 
Q 16.703125 27.09375 16.703125 20.515625 
Q 16.703125 13.921875 20.71875 10.15625 
Q 24.75 6.390625 31.78125 6.390625 
Q 38.8125 6.390625 42.859375 10.171875 
Q 46.921875 13.96875 46.921875 20.515625 
Q 46.921875 27.09375 42.890625 30.859375 
Q 38.875 34.625 31.78125 34.625 
z
M 21.921875 38.8125 
Q 15.578125 40.375 12.03125 44.71875 
Q 8.5 49.078125 8.5 55.328125 
Q 8.5 64.0625 14.71875 69.140625 
Q 20.953125 74.21875 31.78125 74.21875 
Q 42.671875 74.21875 48.875 69.140625 
Q 55.078125 64.0625 55.078125 55.328125 
Q 55.078125 49.078125 51.53125 44.71875 
Q 48 40.375 41.703125 38.8125 
Q 48.828125 37.15625 52.796875 32.3125 
Q 56.78125 27.484375 56.78125 20.515625 
Q 56.78125 9.90625 50.3125 4.234375 
Q 43.84375 -1.421875 31.78125 -1.421875 
Q 19.734375 -1.421875 13.25 4.234375 
Q 6.78125 9.90625 6.78125 20.515625 
Q 6.78125 27.484375 10.78125 32.3125 
Q 14.796875 37.15625 21.921875 38.8125 
z
M 18.3125 54.390625 
Q 18.3125 48.734375 21.84375 45.5625 
Q 25.390625 42.390625 31.78125 42.390625 
Q 38.140625 42.390625 41.71875 45.5625 
Q 45.3125 48.734375 45.3125 54.390625 
Q 45.3125 60.0625 41.71875 63.234375 
Q 38.140625 66.40625 31.78125 66.40625 
Q 25.390625 66.40625 21.84375 63.234375 
Q 18.3125 60.0625 18.3125 54.390625 
z
" id="DejaVuSans-56"/>
       </defs>
       <use xlink:href="#DejaVuSans-48"/>
       <use x="63.623047" xlink:href="#DejaVuSans-46"/>
       <use x="95.410156" xlink:href="#DejaVuSans-56"/>
      </g>
     </g>
    </g>
    <g id="xtick_6">
     <g id="line2d_6">
      <g>
       <use style="stroke:#000000;stroke-width:0.8;" x="498.109091" xlink:href="#m56ed71bc76" y="384.48"/>
      </g>
     </g>
     <g id="text_6">
      <!-- 1.0 -->
      <g transform="translate(485.386591 403.6375)scale(0.16 -0.16)">
       <defs>
        <path d="M 12.40625 8.296875 
L 28.515625 8.296875 
L 28.515625 63.921875 
L 10.984375 60.40625 
L 10.984375 69.390625 
L 28.421875 72.90625 
L 38.28125 72.90625 
L 38.28125 8.296875 
L 54.390625 8.296875 
L 54.390625 0 
L 12.40625 0 
z
" id="DejaVuSans-49"/>
       </defs>
       <use xlink:href="#DejaVuSans-49"/>
       <use x="63.623047" xlink:href="#DejaVuSans-46"/>
       <use x="95.410156" xlink:href="#DejaVuSans-48"/>
      </g>
     </g>
    </g>
    <g id="text_7">
     <!-- False Positive Rate -->
     <g transform="translate(220.85375 423.1225)scale(0.16 -0.16)">
      <defs>
       <path d="M 9.8125 72.90625 
L 51.703125 72.90625 
L 51.703125 64.59375 
L 19.671875 64.59375 
L 19.671875 43.109375 
L 48.578125 43.109375 
L 48.578125 34.8125 
L 19.671875 34.8125 
L 19.671875 0 
L 9.8125 0 
z
" id="DejaVuSans-70"/>
       <path d="M 34.28125 27.484375 
Q 23.390625 27.484375 19.1875 25 
Q 14.984375 22.515625 14.984375 16.5 
Q 14.984375 11.71875 18.140625 8.90625 
Q 21.296875 6.109375 26.703125 6.109375 
Q 34.1875 6.109375 38.703125 11.40625 
Q 43.21875 16.703125 43.21875 25.484375 
L 43.21875 27.484375 
z
M 52.203125 31.203125 
L 52.203125 0 
L 43.21875 0 
L 43.21875 8.296875 
Q 40.140625 3.328125 35.546875 0.953125 
Q 30.953125 -1.421875 24.3125 -1.421875 
Q 15.921875 -1.421875 10.953125 3.296875 
Q 6 8.015625 6 15.921875 
Q 6 25.140625 12.171875 29.828125 
Q 18.359375 34.515625 30.609375 34.515625 
L 43.21875 34.515625 
L 43.21875 35.40625 
Q 43.21875 41.609375 39.140625 45 
Q 35.0625 48.390625 27.6875 48.390625 
Q 23 48.390625 18.546875 47.265625 
Q 14.109375 46.140625 10.015625 43.890625 
L 10.015625 52.203125 
Q 14.9375 54.109375 19.578125 55.046875 
Q 24.21875 56 28.609375 56 
Q 40.484375 56 46.34375 49.84375 
Q 52.203125 43.703125 52.203125 31.203125 
z
" id="DejaVuSans-97"/>
       <path d="M 9.421875 75.984375 
L 18.40625 75.984375 
L 18.40625 0 
L 9.421875 0 
z
" id="DejaVuSans-108"/>
       <path d="M 44.28125 53.078125 
L 44.28125 44.578125 
Q 40.484375 46.53125 36.375 47.5 
Q 32.28125 48.484375 27.875 48.484375 
Q 21.1875 48.484375 17.84375 46.4375 
Q 14.5 44.390625 14.5 40.28125 
Q 14.5 37.15625 16.890625 35.375 
Q 19.28125 33.59375 26.515625 31.984375 
L 29.59375 31.296875 
Q 39.15625 29.25 43.1875 25.515625 
Q 47.21875 21.78125 47.21875 15.09375 
Q 47.21875 7.46875 41.1875 3.015625 
Q 35.15625 -1.421875 24.609375 -1.421875 
Q 20.21875 -1.421875 15.453125 -0.5625 
Q 10.6875 0.296875 5.421875 2 
L 5.421875 11.28125 
Q 10.40625 8.6875 15.234375 7.390625 
Q 20.0625 6.109375 24.8125 6.109375 
Q 31.15625 6.109375 34.5625 8.28125 
Q 37.984375 10.453125 37.984375 14.40625 
Q 37.984375 18.0625 35.515625 20.015625 
Q 33.0625 21.96875 24.703125 23.78125 
L 21.578125 24.515625 
Q 13.234375 26.265625 9.515625 29.90625 
Q 5.8125 33.546875 5.8125 39.890625 
Q 5.8125 47.609375 11.28125 51.796875 
Q 16.75 56 26.8125 56 
Q 31.78125 56 36.171875 55.265625 
Q 40.578125 54.546875 44.28125 53.078125 
z
" id="DejaVuSans-115"/>
       <path d="M 56.203125 29.59375 
L 56.203125 25.203125 
L 14.890625 25.203125 
Q 15.484375 15.921875 20.484375 11.0625 
Q 25.484375 6.203125 34.421875 6.203125 
Q 39.59375 6.203125 44.453125 7.46875 
Q 49.3125 8.734375 54.109375 11.28125 
L 54.109375 2.78125 
Q 49.265625 0.734375 44.1875 -0.34375 
Q 39.109375 -1.421875 33.890625 -1.421875 
Q 20.796875 -1.421875 13.15625 6.1875 
Q 5.515625 13.8125 5.515625 26.8125 
Q 5.515625 40.234375 12.765625 48.109375 
Q 20.015625 56 32.328125 56 
Q 43.359375 56 49.78125 48.890625 
Q 56.203125 41.796875 56.203125 29.59375 
z
M 47.21875 32.234375 
Q 47.125 39.59375 43.09375 43.984375 
Q 39.0625 48.390625 32.421875 48.390625 
Q 24.90625 48.390625 20.390625 44.140625 
Q 15.875 39.890625 15.1875 32.171875 
z
" id="DejaVuSans-101"/>
       <path id="DejaVuSans-32"/>
       <path d="M 19.671875 64.796875 
L 19.671875 37.40625 
L 32.078125 37.40625 
Q 38.96875 37.40625 42.71875 40.96875 
Q 46.484375 44.53125 46.484375 51.125 
Q 46.484375 57.671875 42.71875 61.234375 
Q 38.96875 64.796875 32.078125 64.796875 
z
M 9.8125 72.90625 
L 32.078125 72.90625 
Q 44.34375 72.90625 50.609375 67.359375 
Q 56.890625 61.8125 56.890625 51.125 
Q 56.890625 40.328125 50.609375 34.8125 
Q 44.34375 29.296875 32.078125 29.296875 
L 19.671875 29.296875 
L 19.671875 0 
L 9.8125 0 
z
" id="DejaVuSans-80"/>
       <path d="M 30.609375 48.390625 
Q 23.390625 48.390625 19.1875 42.75 
Q 14.984375 37.109375 14.984375 27.296875 
Q 14.984375 17.484375 19.15625 11.84375 
Q 23.34375 6.203125 30.609375 6.203125 
Q 37.796875 6.203125 41.984375 11.859375 
Q 46.1875 17.53125 46.1875 27.296875 
Q 46.1875 37.015625 41.984375 42.703125 
Q 37.796875 48.390625 30.609375 48.390625 
z
M 30.609375 56 
Q 42.328125 56 49.015625 48.375 
Q 55.71875 40.765625 55.71875 27.296875 
Q 55.71875 13.875 49.015625 6.21875 
Q 42.328125 -1.421875 30.609375 -1.421875 
Q 18.84375 -1.421875 12.171875 6.21875 
Q 5.515625 13.875 5.515625 27.296875 
Q 5.515625 40.765625 12.171875 48.375 
Q 18.84375 56 30.609375 56 
z
" id="DejaVuSans-111"/>
       <path d="M 9.421875 54.6875 
L 18.40625 54.6875 
L 18.40625 0 
L 9.421875 0 
z
M 9.421875 75.984375 
L 18.40625 75.984375 
L 18.40625 64.59375 
L 9.421875 64.59375 
z
" id="DejaVuSans-105"/>
       <path d="M 18.3125 70.21875 
L 18.3125 54.6875 
L 36.8125 54.6875 
L 36.8125 47.703125 
L 18.3125 47.703125 
L 18.3125 18.015625 
Q 18.3125 11.328125 20.140625 9.421875 
Q 21.96875 7.515625 27.59375 7.515625 
L 36.8125 7.515625 
L 36.8125 0 
L 27.59375 0 
Q 17.1875 0 13.234375 3.875 
Q 9.28125 7.765625 9.28125 18.015625 
L 9.28125 47.703125 
L 2.6875 47.703125 
L 2.6875 54.6875 
L 9.28125 54.6875 
L 9.28125 70.21875 
z
" id="DejaVuSans-116"/>
       <path d="M 2.984375 54.6875 
L 12.5 54.6875 
L 29.59375 8.796875 
L 46.6875 54.6875 
L 56.203125 54.6875 
L 35.6875 0 
L 23.484375 0 
z
" id="DejaVuSans-118"/>
       <path d="M 44.390625 34.1875 
Q 47.5625 33.109375 50.5625 29.59375 
Q 53.5625 26.078125 56.59375 19.921875 
L 66.609375 0 
L 56 0 
L 46.6875 18.703125 
Q 43.0625 26.03125 39.671875 28.421875 
Q 36.28125 30.8125 30.421875 30.8125 
L 19.671875 30.8125 
L 19.671875 0 
L 9.8125 0 
L 9.8125 72.90625 
L 32.078125 72.90625 
Q 44.578125 72.90625 50.734375 67.671875 
Q 56.890625 62.453125 56.890625 51.90625 
Q 56.890625 45.015625 53.6875 40.46875 
Q 50.484375 35.9375 44.390625 34.1875 
z
M 19.671875 64.796875 
L 19.671875 38.921875 
L 32.078125 38.921875 
Q 39.203125 38.921875 42.84375 42.21875 
Q 46.484375 45.515625 46.484375 51.90625 
Q 46.484375 58.296875 42.84375 61.546875 
Q 39.203125 64.796875 32.078125 64.796875 
z
" id="DejaVuSans-82"/>
      </defs>
      <use xlink:href="#DejaVuSans-70"/>
      <use x="48.394531" xlink:href="#DejaVuSans-97"/>
      <use x="109.673828" xlink:href="#DejaVuSans-108"/>
      <use x="137.457031" xlink:href="#DejaVuSans-115"/>
      <use x="189.556641" xlink:href="#DejaVuSans-101"/>
      <use x="251.080078" xlink:href="#DejaVuSans-32"/>
      <use x="282.867188" xlink:href="#DejaVuSans-80"/>
      <use x="339.544922" xlink:href="#DejaVuSans-111"/>
      <use x="400.726562" xlink:href="#DejaVuSans-115"/>
      <use x="452.826172" xlink:href="#DejaVuSans-105"/>
      <use x="480.609375" xlink:href="#DejaVuSans-116"/>
      <use x="519.818359" xlink:href="#DejaVuSans-105"/>
      <use x="547.601562" xlink:href="#DejaVuSans-118"/>
      <use x="606.78125" xlink:href="#DejaVuSans-101"/>
      <use x="668.304688" xlink:href="#DejaVuSans-32"/>
      <use x="700.091797" xlink:href="#DejaVuSans-82"/>
      <use x="767.324219" xlink:href="#DejaVuSans-97"/>
      <use x="828.603516" xlink:href="#DejaVuSans-116"/>
      <use x="867.8125" xlink:href="#DejaVuSans-101"/>
     </g>
    </g>
   </g>
   <g id="matplotlib.axis_2">
    <g id="ytick_1">
     <g id="line2d_7">
      <defs>
       <path d="M 0 0 
L -3.5 0 
" id="me138600d39" style="stroke:#000000;stroke-width:0.8;"/>
      </defs>
      <g>
       <use style="stroke:#000000;stroke-width:0.8;" x="72" xlink:href="#me138600d39" y="369.36"/>
      </g>
     </g>
     <g id="text_8">
      <!-- 0.0 -->
      <g transform="translate(39.555 375.43875)scale(0.16 -0.16)">
       <use xlink:href="#DejaVuSans-48"/>
       <use x="63.623047" xlink:href="#DejaVuSans-46"/>
       <use x="95.410156" xlink:href="#DejaVuSans-48"/>
      </g>
     </g>
    </g>
    <g id="ytick_2">
     <g id="line2d_8">
      <g>
       <use style="stroke:#000000;stroke-width:0.8;" x="72" xlink:href="#me138600d39" y="308.88"/>
      </g>
     </g>
     <g id="text_9">
      <!-- 0.2 -->
      <g transform="translate(39.555 314.95875)scale(0.16 -0.16)">
       <use xlink:href="#DejaVuSans-48"/>
       <use x="63.623047" xlink:href="#DejaVuSans-46"/>
       <use x="95.410156" xlink:href="#DejaVuSans-50"/>
      </g>
     </g>
    </g>
    <g id="ytick_3">
     <g id="line2d_9">
      <g>
       <use style="stroke:#000000;stroke-width:0.8;" x="72" xlink:href="#me138600d39" y="248.4"/>
      </g>
     </g>
     <g id="text_10">
      <!-- 0.4 -->
      <g transform="translate(39.555 254.47875)scale(0.16 -0.16)">
       <use xlink:href="#DejaVuSans-48"/>
       <use x="63.623047" xlink:href="#DejaVuSans-46"/>
       <use x="95.410156" xlink:href="#DejaVuSans-52"/>
      </g>
     </g>
    </g>
    <g id="ytick_4">
     <g id="line2d_10">
      <g>
       <use style="stroke:#000000;stroke-width:0.8;" x="72" xlink:href="#me138600d39" y="187.92"/>
      </g>
     </g>
     <g id="text_11">
      <!-- 0.6 -->
      <g transform="translate(39.555 193.99875)scale(0.16 -0.16)">
       <use xlink:href="#DejaVuSans-48"/>
       <use x="63.623047" xlink:href="#DejaVuSans-46"/>
       <use x="95.410156" xlink:href="#DejaVuSans-54"/>
      </g>
     </g>
    </g>
    <g id="ytick_5">
     <g id="line2d_11">
      <g>
       <use style="stroke:#000000;stroke-width:0.8;" x="72" xlink:href="#me138600d39" y="127.44"/>
      </g>
     </g>
     <g id="text_12">
      <!-- 0.8 -->
      <g transform="translate(39.555 133.51875)scale(0.16 -0.16)">
       <use xlink:href="#DejaVuSans-48"/>
       <use x="63.623047" xlink:href="#DejaVuSans-46"/>
       <use x="95.410156" xlink:href="#DejaVuSans-56"/>
      </g>
     </g>
    </g>
    <g id="ytick_6">
     <g id="line2d_12">
      <g>
       <use style="stroke:#000000;stroke-width:0.8;" x="72" xlink:href="#me138600d39" y="66.96"/>
      </g>
     </g>
     <g id="text_13">
      <!-- 1.0 -->
      <g transform="translate(39.555 73.03875)scale(0.16 -0.16)">
       <use xlink:href="#DejaVuSans-49"/>
       <use x="63.623047" xlink:href="#DejaVuSans-46"/>
       <use x="95.410156" xlink:href="#DejaVuSans-48"/>
      </g>
     </g>
    </g>
    <g id="text_14">
     <!-- True Positive Rate -->
     <g transform="translate(32.2275 289.4075)rotate(-90)scale(0.16 -0.16)">
      <defs>
       <path d="M -0.296875 72.90625 
L 61.375 72.90625 
L 61.375 64.59375 
L 35.5 64.59375 
L 35.5 0 
L 25.59375 0 
L 25.59375 64.59375 
L -0.296875 64.59375 
z
" id="DejaVuSans-84"/>
       <path d="M 41.109375 46.296875 
Q 39.59375 47.171875 37.8125 47.578125 
Q 36.03125 48 33.890625 48 
Q 26.265625 48 22.1875 43.046875 
Q 18.109375 38.09375 18.109375 28.8125 
L 18.109375 0 
L 9.078125 0 
L 9.078125 54.6875 
L 18.109375 54.6875 
L 18.109375 46.1875 
Q 20.953125 51.171875 25.484375 53.578125 
Q 30.03125 56 36.53125 56 
Q 37.453125 56 38.578125 55.875 
Q 39.703125 55.765625 41.0625 55.515625 
z
" id="DejaVuSans-114"/>
       <path d="M 8.5 21.578125 
L 8.5 54.6875 
L 17.484375 54.6875 
L 17.484375 21.921875 
Q 17.484375 14.15625 20.5 10.265625 
Q 23.53125 6.390625 29.59375 6.390625 
Q 36.859375 6.390625 41.078125 11.03125 
Q 45.3125 15.671875 45.3125 23.6875 
L 45.3125 54.6875 
L 54.296875 54.6875 
L 54.296875 0 
L 45.3125 0 
L 45.3125 8.40625 
Q 42.046875 3.421875 37.71875 1 
Q 33.40625 -1.421875 27.6875 -1.421875 
Q 18.265625 -1.421875 13.375 4.4375 
Q 8.5 10.296875 8.5 21.578125 
z
M 31.109375 56 
z
" id="DejaVuSans-117"/>
      </defs>
      <use xlink:href="#DejaVuSans-84"/>
      <use x="46.333984" xlink:href="#DejaVuSans-114"/>
      <use x="87.447266" xlink:href="#DejaVuSans-117"/>
      <use x="150.826172" xlink:href="#DejaVuSans-101"/>
      <use x="212.349609" xlink:href="#DejaVuSans-32"/>
      <use x="244.136719" xlink:href="#DejaVuSans-80"/>
      <use x="300.814453" xlink:href="#DejaVuSans-111"/>
      <use x="361.996094" xlink:href="#DejaVuSans-115"/>
      <use x="414.095703" xlink:href="#DejaVuSans-105"/>
      <use x="441.878906" xlink:href="#DejaVuSans-116"/>
      <use x="481.087891" xlink:href="#DejaVuSans-105"/>
      <use x="508.871094" xlink:href="#DejaVuSans-118"/>
      <use x="568.050781" xlink:href="#DejaVuSans-101"/>
      <use x="629.574219" xlink:href="#DejaVuSans-32"/>
      <use x="661.361328" xlink:href="#DejaVuSans-82"/>
      <use x="728.59375" xlink:href="#DejaVuSans-97"/>
      <use x="789.873047" xlink:href="#DejaVuSans-116"/>
      <use x="829.082031" xlink:href="#DejaVuSans-101"/>
     </g>
    </g>
   </g>
   <g id="line2d_13">
    <path clip-path="url(#pec9be5d1cb)" d="M 92.290909 369.36 
L 498.109091 66.96 
" style="fill:none;stroke:#0000ff;stroke-linecap:square;stroke-width:1.5;"/>
   </g>
   <g id="line2d_14">
    <path clip-path="url(#pec9be5d1cb)" d="M 92.290909 369.36 
L 92.642187 369.257803 
L 92.746258 369.05341 
L 93.042668 368.951213 
L 93.144353 368.74682 
L 93.353689 368.644623 
L 93.39991 368.338033 
L 93.44613 368.338033 
L 93.589564 368.235836 
L 93.589564 368.13364 
L 93.786673 368.031443 
L 93.786673 367.929246 
L 93.874344 367.929246 
L 94.278105 367.82705 
L 94.387245 367.622656 
L 94.465373 367.52046 
L 94.465373 367.418263 
L 94.527399 367.418263 
L 94.819931 367.316066 
L 94.887324 367.111673 
L 94.892692 367.111673 
L 95.01227 367.111673 
L 95.01227 366.907279 
L 95.084135 366.907279 
L 95.164649 366.805083 
L 95.274684 366.600689 
L 95.382632 366.498493 
L 95.458076 366.191903 
L 95.785499 366.089706 
L 95.789673 365.885313 
L 95.837087 365.885313 
L 95.936685 365.783116 
L 96.045528 365.578723 
L 96.047317 365.578723 
L 96.249794 365.476526 
L 96.339552 365.272132 
L 96.357742 365.272132 
L 96.505052 365.169936 
L 96.590038 364.965542 
L 96.602563 364.965542 
L 96.739436 364.863346 
L 96.834859 364.454559 
L 96.847682 364.454559 
L 97.308101 364.352362 
L 97.331956 364.147969 
L 97.415452 364.147969 
L 97.687707 364.045772 
L 97.687707 363.943576 
L 97.779254 363.943576 
L 98.145144 363.841379 
L 98.235498 363.636985 
L 98.251601 363.636985 
L 98.373564 363.534789 
L 98.373564 363.432592 
L 98.470777 363.432592 
L 99.071647 363.330395 
L 99.17542 363.023805 
L 99.41547 362.921609 
L 99.496282 362.717215 
L 99.51984 362.717215 
L 99.663273 362.615019 
L 99.663273 362.512822 
L 99.763468 362.512822 
L 99.89229 362.410625 
L 99.89229 362.308429 
L 99.9403 362.308429 
L 100.061667 362.206232 
L 100.0727 362.001838 
L 100.165738 362.001838 
L 100.316925 361.899642 
L 100.347937 361.593052 
L 100.39714 361.593052 
L 100.870679 361.490855 
L 100.870679 361.388658 
L 100.975347 361.388658 
L 101.257443 361.286462 
L 101.343622 360.979872 
L 101.351972 360.979872 
L 101.629297 360.877675 
L 101.731877 360.468888 
L 101.740226 360.468888 
L 101.766468 360.366691 
L 101.82074 360.162298 
L 101.874118 360.162298 
L 101.898868 360.060101 
L 101.975207 359.549118 
L 102.005623 359.549118 
L 102.116553 359.446921 
L 102.160686 359.242528 
L 102.182157 359.242528 
L 102.590391 359.140331 
L 102.590391 359.038135 
L 102.692971 359.038135 
L 102.767521 358.935938 
L 102.769906 358.731544 
L 102.876661 358.731544 
L 103.102696 358.629348 
L 103.110449 358.424954 
L 103.201698 358.424954 
L 103.314119 358.322758 
L 103.314119 358.220561 
L 103.392545 358.220561 
L 103.56222 358.118364 
L 103.56222 358.016168 
L 103.652276 358.016168 
L 103.829406 357.913971 
L 103.93139 357.505184 
L 103.935266 357.505184 
L 103.966577 357.402987 
L 104.008623 357.198594 
L 104.074227 357.198594 
L 104.214977 357.096397 
L 104.248673 356.789807 
L 104.314575 356.789807 
L 104.375408 356.687611 
L 104.456518 356.483217 
L 104.530471 356.381021 
L 104.625298 356.074431 
L 104.634542 356.074431 
L 104.714758 355.972234 
L 104.714758 355.870037 
L 104.78215 355.870037 
L 104.948247 355.76784 
L 104.948247 355.665644 
L 105.047249 355.665644 
L 105.087208 355.563447 
L 105.171896 355.256857 
L 105.173983 355.256857 
L 105.282826 355.15466 
L 105.387195 354.950267 
L 105.388388 354.950267 
L 105.588479 354.84807 
L 105.621579 354.643677 
L 105.674957 354.643677 
L 105.87147 354.54148 
L 105.87147 354.439284 
L 105.974647 354.439284 
L 106.175036 354.337087 
L 106.186069 354.132693 
L 106.191735 354.132693 
L 106.362305 354.030497 
L 106.438345 353.826103 
L 106.453554 353.826103 
L 106.588041 353.723907 
L 106.680185 353.00853 
L 106.681676 353.00853 
L 106.754138 352.906333 
L 106.8266 352.70194 
L 106.854631 352.70194 
L 106.8928 352.599743 
L 106.959298 352.190956 
L 106.998959 352.190956 
L 107.054126 352.08876 
L 107.137919 351.78217 
L 107.182053 351.679973 
L 107.182053 351.577776 
L 107.272109 351.577776 
L 107.365445 351.47558 
L 107.455203 351.16899 
L 107.471604 351.16899 
L 107.494565 351.066793 
L 107.547942 350.760203 
L 107.595058 350.760203 
L 107.714934 350.658006 
L 107.825864 350.351416 
L 107.872383 350.249219 
L 107.967508 349.533843 
L 107.974068 349.533843 
L 108.133008 349.431646 
L 108.135692 349.227252 
L 108.243938 349.227252 
L 108.297017 349.125056 
L 108.322066 348.920662 
L 108.379022 348.920662 
L 108.570167 348.818466 
L 108.570167 348.716269 
L 108.654259 348.716269 
L 108.724634 348.614072 
L 108.829898 347.796499 
L 108.833178 347.796499 
L 108.915183 347.694302 
L 109.016272 347.285515 
L 109.046092 347.183319 
L 109.136446 346.774532 
L 109.153742 346.774532 
L 109.292702 346.672335 
L 109.350851 346.467942 
L 109.514264 346.365745 
L 109.608793 346.059155 
L 109.622212 346.059155 
L 109.755805 345.956958 
L 109.842879 345.445975 
L 109.866437 345.445975 
L 109.89238 345.343778 
L 109.97021 344.934992 
L 110.042374 344.832795 
L 110.071299 344.628401 
L 110.103803 344.628401 
L 110.197735 344.526205 
L 110.272881 344.219615 
L 110.290773 344.219615 
L 110.495039 344.117418 
L 110.6009 343.402041 
L 110.649506 343.299845 
L 110.759541 342.584468 
L 110.81769 342.482271 
L 110.912219 342.277878 
L 110.932795 342.175681 
L 111.026429 341.562501 
L 111.032095 341.562501 
L 111.058336 341.562501 
L 111.146901 340.847124 
L 111.159724 340.847124 
L 111.192526 340.744927 
L 111.253358 340.438337 
L 111.265286 340.438337 
L 111.443609 340.336141 
L 111.533665 340.029551 
L 111.545593 340.029551 
L 111.5775 339.927354 
L 111.66189 339.620764 
L 111.724214 339.518567 
L 111.8259 338.905387 
L 111.884048 338.80319 
L 111.983945 338.19001 
L 111.985734 338.19001 
L 112.029867 338.087813 
L 112.134535 337.474633 
L 112.163162 337.372437 
L 112.273794 336.554863 
L 112.314945 336.452666 
L 112.416929 335.839486 
L 112.418718 335.839486 
L 112.488497 335.73729 
L 112.572887 335.226306 
L 112.597936 335.226306 
L 112.633421 335.124109 
L 112.736598 334.306536 
L 112.816515 334.204339 
L 112.90687 333.897749 
L 112.91999 333.897749 
L 113.018992 333.795553 
L 113.118889 332.773586 
L 113.123064 332.773586 
L 113.14185 332.671389 
L 113.146919 332.364799 
L 113.23459 332.364799 
L 113.272759 332.262602 
L 113.326137 331.649422 
L 113.381005 331.649422 
L 113.480007 331.547225 
L 113.576922 331.138439 
L 113.589446 331.138439 
L 113.678309 331.036242 
L 113.783275 330.525259 
L 113.786854 330.525259 
L 113.812797 330.423062 
L 113.905238 330.014275 
L 113.923429 330.014275 
L 113.992312 329.912078 
L 114.023027 329.707685 
L 114.083561 329.707685 
L 114.148569 329.605488 
L 114.233555 328.685718 
L 114.362079 328.583521 
L 114.471816 328.072538 
L 114.515651 327.970341 
L 114.599445 327.357161 
L 114.619722 327.357161 
L 114.65491 327.254965 
L 114.709778 326.743981 
L 114.728565 326.743981 
L 114.832338 326.641784 
L 114.937602 326.232998 
L 114.943864 326.130801 
L 115.023781 325.824211 
L 115.036008 325.824211 
L 115.086701 325.722014 
L 115.175266 325.211031 
L 115.197631 325.211031 
L 115.264428 325.108834 
L 115.358658 324.291261 
L 115.369394 324.291261 
L 115.384602 324.189064 
L 115.483604 323.473687 
L 115.570976 323.37149 
L 115.678327 322.553917 
L 115.696219 322.45172 
L 115.799694 322.14513 
L 115.803571 322.14513 
L 115.882295 322.042933 
L 115.976526 321.429753 
L 116.040042 321.327557 
L 116.127116 320.714376 
L 116.150078 320.714376 
L 116.216874 320.61218 
L 116.321542 319.999 
L 116.379989 319.896803 
L 116.487937 319.590213 
L 116.545787 319.488016 
L 116.638229 318.261656 
L 116.656419 318.261656 
L 116.727986 318.159459 
L 116.830269 317.852869 
L 116.921517 317.750673 
L 117.021116 317.035296 
L 117.027378 317.035296 
L 117.042288 316.933099 
L 117.126976 316.524312 
L 117.152323 316.524312 
L 117.160971 316.422116 
L 117.268919 315.604542 
L 117.300528 315.502345 
L 117.402214 314.582575 
L 117.434121 314.480379 
L 117.488393 314.275985 
L 117.537297 314.275985 
L 117.584711 314.173788 
L 117.684309 313.356215 
L 117.695045 313.356215 
L 117.726654 313.254018 
L 117.837285 313.049625 
L 117.88619 312.947428 
L 117.965511 312.538641 
L 117.990858 312.538641 
L 118.026343 312.436445 
L 118.098209 311.721068 
L 118.116399 311.721068 
L 118.17753 311.618871 
L 118.248799 311.210084 
L 118.269077 311.210084 
L 118.316192 311.107888 
L 118.412809 310.392511 
L 118.418176 310.392511 
L 118.484674 310.290314 
L 118.565188 309.983724 
L 118.590535 309.983724 
L 118.668663 309.881528 
L 118.755439 309.370544 
L 118.768261 309.370544 
L 118.829094 309.268347 
L 118.911397 308.961757 
L 118.920939 308.961757 
L 119.011293 308.859561 
L 119.112979 307.837594 
L 119.121627 307.837594 
L 119.175601 307.735397 
L 119.283847 307.32661 
L 119.381059 307.224414 
L 119.488113 306.611234 
L 119.587413 306.509037 
L 119.665839 306.10025 
L 119.690291 306.10025 
L 119.777962 305.998053 
L 119.865036 305.79366 
L 119.875473 305.79366 
L 119.908573 305.691463 
L 119.972387 304.976087 
L 120.013539 304.976087 
L 120.040377 304.87389 
L 120.146833 303.95412 
L 120.148623 303.95412 
L 120.176057 303.851923 
L 120.281321 303.034349 
L 120.470677 302.932153 
L 120.580414 302.216776 
L 120.595324 302.114579 
L 120.706254 301.705792 
L 120.713113 301.705792 
L 120.786469 301.399202 
L 120.823744 301.399202 
L 120.865194 301.297006 
L 120.949584 300.786022 
L 120.975826 300.786022 
L 121.015188 300.683826 
L 121.097192 299.968449 
L 121.187547 299.866252 
L 121.28804 299.559662 
L 121.295494 299.559662 
L 121.325613 299.457465 
L 121.424018 298.844285 
L 121.436244 298.844285 
L 121.471133 298.844285 
L 121.579081 298.231105 
L 121.61069 298.128908 
L 121.659595 297.515728 
L 121.712973 297.515728 
L 121.809887 297.413532 
L 121.873702 297.106942 
L 121.912467 297.106942 
L 121.944971 297.004745 
L 122.046657 296.493761 
L 122.053814 296.493761 
L 122.242573 296.391565 
L 122.320701 295.982778 
L 122.344259 295.982778 
L 122.414336 295.880581 
L 122.510057 294.960811 
L 122.552998 294.858614 
L 122.648422 294.449828 
L 122.732514 294.347631 
L 122.842251 293.734451 
L 122.843145 293.734451 
L 122.913818 293.632254 
L 122.992245 293.019074 
L 123.023555 293.019074 
L 123.07574 292.916877 
L 123.171462 292.303697 
L 123.277621 292.201501 
L 123.356047 291.792714 
L 123.37871 291.792714 
L 123.45982 291.690517 
L 123.511408 291.28173 
L 123.548981 291.28173 
L 123.605341 291.179534 
L 123.700168 290.157567 
L 123.731479 290.05537 
L 123.840023 289.237797 
L 123.88684 289.1356 
L 123.960197 288.420223 
L 123.995086 288.420223 
L 124.056515 288.318026 
L 124.166551 287.500453 
L 124.240802 287.398256 
L 124.345172 286.887273 
L 124.349645 286.887273 
L 124.396164 286.785076 
L 124.505006 286.171896 
L 124.553612 286.069699 
L 124.651123 285.660912 
L 124.658877 285.660912 
L 124.682732 285.558716 
L 124.694362 285.149929 
L 124.786804 285.149929 
L 124.962145 285.047732 
L 125.069198 284.434552 
L 125.093352 284.332356 
L 125.193248 283.514782 
L 125.203089 283.514782 
L 125.262729 283.412585 
L 125.373062 282.901602 
L 125.432404 282.799405 
L 125.540053 282.492815 
L 125.541843 282.492815 
L 125.558244 282.390618 
L 125.558244 282.288422 
L 125.640546 282.288422 
L 125.725235 282.186225 
L 125.822448 281.470848 
L 125.859722 281.368652 
L 125.934272 280.857668 
L 125.958724 280.857668 
L 125.973634 280.755471 
L 126.063094 280.551078 
L 126.077109 280.551078 
L 126.087844 280.448881 
L 126.087844 280.346685 
L 126.198774 280.346685 
L 126.255134 280.244488 
L 126.359801 279.426914 
L 126.403935 279.324718 
L 126.468047 279.018128 
L 126.512181 279.018128 
L 126.540212 278.915931 
L 126.641599 278.200554 
L 126.644879 278.200554 
L 126.701835 278.098358 
L 126.80859 277.485177 
L 126.857197 277.382981 
L 126.926975 277.178587 
L 126.96753 277.178587 
L 126.988404 277.076391 
L 127.056692 276.769801 
L 127.090388 276.769801 
L 127.188794 276.667604 
L 127.232927 276.15662 
L 127.298232 276.15662 
L 127.47745 276.054424 
L 127.556472 275.23685 
L 127.584503 275.23685 
L 127.709746 275.134654 
L 127.816203 274.419277 
L 127.890455 274.31708 
L 127.986773 273.806097 
L 127.999297 273.806097 
L 128.036572 273.7039 
L 128.139451 273.295113 
L 128.195214 273.192917 
L 128.236365 272.988523 
L 128.301372 272.988523 
L 128.400076 272.886326 
L 128.442719 272.579736 
L 128.510112 272.579736 
L 128.527705 272.47754 
L 128.638039 271.55777 
L 128.692609 271.455573 
L 128.785647 271.046786 
L 128.802644 271.046786 
L 128.842007 270.944589 
L 128.91596 270.535803 
L 128.933255 270.535803 
L 128.992299 270.433606 
L 129.102334 269.616032 
L 129.114858 269.616032 
L 129.223403 269.207246 
L 129.28185 269.105049 
L 129.36296 268.594066 
L 129.391587 268.594066 
L 129.436018 268.491869 
L 129.508779 267.980885 
L 129.540984 267.980885 
L 129.577663 267.878689 
L 129.687996 267.163312 
L 129.698731 267.163312 
L 129.716325 266.754525 
L 129.804293 266.754525 
L 129.82964 266.652328 
L 129.93401 265.834755 
L 129.934904 265.834755 
L 130.007665 265.732558 
L 130.114122 265.017181 
L 130.158553 264.914985 
L 130.230419 264.608395 
L 130.26829 264.608395 
L 130.29155 264.506198 
L 130.381904 264.097411 
L 130.400691 264.097411 
L 130.478222 263.995215 
L 130.548895 263.586428 
L 130.56142 263.586428 
L 130.624936 263.484231 
L 130.735568 263.177641 
L 130.818765 263.075444 
L 130.883772 262.768854 
L 130.928502 262.768854 
L 131.038537 262.666658 
L 131.134557 262.360068 
L 131.140521 262.360068 
L 131.171236 262.257871 
L 131.280675 261.746887 
L 131.354926 261.644691 
L 131.440807 261.133707 
L 131.455717 261.133707 
L 131.496869 261.031511 
L 131.605115 260.622724 
L 131.734831 260.520527 
L 131.759284 260.11174 
L 131.836815 260.11174 
L 131.966233 260.009544 
L 132.069708 259.396364 
L 132.11086 259.294167 
L 132.180638 258.88538 
L 132.22179 258.88538 
L 132.346735 258.783184 
L 132.457665 258.2722 
L 132.489572 258.170003 
L 132.596923 257.556823 
L 132.666105 257.454627 
L 132.762424 256.637053 
L 132.772264 256.637053 
L 132.803575 256.534856 
L 132.824449 256.330463 
L 132.91361 256.330463 
L 132.951183 256.228266 
L 133.026031 255.717283 
L 133.062113 255.717283 
L 133.25624 255.615086 
L 133.365083 255.104103 
L 133.598871 255.001906 
L 133.668947 254.490923 
L 133.700855 254.490923 
L 133.761687 254.388726 
L 133.872319 253.979939 
L 133.937028 253.877742 
L 134.035433 253.264562 
L 134.070323 253.162366 
L 134.171412 252.753579 
L 134.191093 252.651382 
L 134.24119 252.344792 
L 134.296059 252.344792 
L 134.391483 252.242595 
L 134.477066 251.731612 
L 134.497641 251.731612 
L 134.510464 251.629415 
L 134.578751 251.425022 
L 134.619903 251.425022 
L 134.638391 251.322825 
L 134.643759 251.118432 
L 134.73948 251.118432 
L 134.773177 251.016235 
L 134.828045 250.709645 
L 134.879037 250.709645 
L 134.973268 250.607448 
L 135.070183 250.198662 
L 135.073463 250.198662 
L 135.115211 250.096465 
L 135.222562 249.687678 
L 135.225544 249.687678 
L 135.404463 249.585482 
L 135.486766 249.074498 
L 135.49929 249.074498 
L 135.63348 248.972301 
L 135.673438 248.563515 
L 135.719957 248.563515 
L 135.790034 248.461318 
L 135.815679 248.154728 
L 135.892018 248.154728 
L 135.974023 248.052531 
L 136.070043 247.541548 
L 136.073025 247.541548 
L 136.185147 247.439351 
L 136.2591 246.723974 
L 136.291604 246.723974 
L 136.366452 246.621778 
L 136.452035 246.008597 
L 136.467541 246.008597 
L 136.546862 245.906401 
L 136.648846 245.497614 
L 136.651828 245.497614 
L 136.675087 245.395417 
L 136.745164 244.782237 
L 136.75083 244.782237 
L 136.8385 244.680041 
L 136.938099 244.169057 
L 136.94943 244.169057 
L 137.032628 244.06686 
L 137.132822 243.658074 
L 137.14147 243.658074 
L 137.216616 243.555877 
L 137.306076 242.942697 
L 137.4179 242.8405 
L 137.47098 242.53391 
L 137.523761 242.53391 
L 137.559545 242.431713 
L 137.605169 241.92073 
L 137.666598 241.92073 
L 137.738166 241.818533 
L 137.841044 241.205353 
L 137.848201 241.205353 
L 137.993125 241.103156 
L 138.08497 240.69437 
L 138.104055 240.69437 
L 138.139243 240.592173 
L 138.139243 240.489976 
L 138.245998 240.489976 
L 138.288342 240.38778 
L 138.398079 239.978993 
L 138.399272 239.978993 
L 138.471138 239.876796 
L 138.580875 239.672403 
L 138.633358 239.570206 
L 138.738025 239.059223 
L 138.756216 238.957026 
L 138.857305 238.343846 
L 138.864163 238.343846 
L 138.943782 238.241649 
L 139.049643 237.832862 
L 139.054712 237.832862 
L 139.123894 237.730666 
L 139.219616 237.219682 
L 139.227966 237.219682 
L 139.281045 237.117486 
L 139.358577 236.913092 
L 139.377065 236.913092 
L 139.436705 236.810896 
L 139.541969 236.504306 
L 139.590575 236.402109 
L 139.643655 236.197715 
L 139.688683 236.197715 
L 139.736394 236.095519 
L 139.81333 235.788929 
L 139.84643 235.788929 
L 139.86134 235.686732 
L 139.912928 235.277945 
L 139.969884 235.277945 
L 139.989565 235.175749 
L 140.091549 234.664765 
L 140.099898 234.664765 
L 140.152978 234.562568 
L 140.259435 234.255978 
L 140.26182 234.255978 
L 140.288956 234.153782 
L 140.355753 233.847192 
L 140.398395 233.847192 
L 140.536759 233.744995 
L 140.622939 233.234011 
L 140.63427 233.234011 
L 140.64918 233.131815 
L 140.739833 232.825225 
L 140.751164 232.825225 
L 140.848675 232.723028 
L 140.910104 232.416438 
L 140.951852 232.416438 
L 141.054432 232.314241 
L 141.126596 231.905455 
L 141.144786 231.905455 
L 141.198164 231.803258 
L 141.26675 231.292274 
L 141.300446 231.292274 
L 141.424198 231.190078 
L 141.510676 230.883488 
L 141.533936 230.883488 
L 141.575683 230.883488 
L 141.686017 230.270308 
L 141.784721 230.168111 
L 141.829749 229.759324 
L 141.878951 229.759324 
L 141.959763 229.657127 
L 142.061449 229.146144 
L 142.069202 229.146144 
L 142.101407 229.043947 
L 142.169397 228.839554 
L 142.177448 228.839554 
L 142.359349 228.737357 
L 142.444336 228.430767 
L 142.464912 228.430767 
L 142.490855 228.32857 
L 142.508449 228.124177 
L 142.59105 228.124177 
L 142.832889 228.02198 
L 142.896107 227.71539 
L 142.941135 227.71539 
L 142.99153 227.613194 
L 143.036857 227.4088 
L 143.061309 227.4088 
L 143.170748 227.306604 
L 143.253945 226.79562 
L 143.281081 226.79562 
L 143.409605 226.693423 
L 143.475208 226.48903 
L 143.514571 226.48903 
L 143.575701 226.386833 
L 143.658601 226.18244 
L 143.685737 226.18244 
L 143.75134 226.080243 
L 143.854815 225.671457 
L 143.861972 225.671457 
L 144.027174 225.56926 
L 144.128263 225.058276 
L 144.229949 224.95608 
L 144.24635 224.64949 
L 144.319409 224.64949 
L 144.372786 224.547293 
L 144.458667 224.138506 
L 144.483716 224.138506 
L 144.581823 224.03631 
L 144.679931 223.525326 
L 144.723468 223.423129 
L 144.740763 223.014343 
L 144.833503 223.014343 
L 144.880618 222.912146 
L 144.983199 222.605556 
L 144.986181 222.605556 
L 145.116494 222.503359 
L 145.116494 222.401163 
L 145.220267 222.401163 
L 145.293325 222.298966 
L 145.380101 221.890179 
L 145.399484 221.890179 
L 145.430497 221.787982 
L 145.525622 221.379196 
L 145.541128 221.379196 
L 145.634166 221.276999 
L 145.672336 221.072606 
L 145.734361 221.072606 
L 145.970236 220.970409 
L 146.063871 220.050639 
L 146.072816 220.050639 
L 146.124405 219.948442 
L 146.181957 219.539655 
L 146.232949 219.539655 
L 146.394871 219.437459 
L 146.484927 218.926475 
L 146.501328 218.926475 
L 146.588402 218.824278 
L 146.679054 218.517688 
L 146.697244 218.517688 
L 146.758077 218.415492 
L 146.836801 217.904508 
L 146.868112 217.904508 
L 146.955484 217.802312 
L 146.978446 217.495722 
L 147.061941 217.495722 
L 147.190167 217.495722 
L 147.277837 217.086935 
L 147.297518 217.086935 
L 147.573054 216.984738 
L 147.67802 216.269361 
L 147.679212 216.269361 
L 148.048084 216.167165 
L 148.100269 215.962771 
L 148.153945 215.962771 
L 148.170047 215.860575 
L 148.177204 215.656181 
L 148.272628 215.656181 
L 148.34002 215.553984 
L 148.380277 215.349591 
L 148.449161 215.349591 
L 148.523114 215.247394 
L 148.537428 215.043001 
L 148.622415 215.043001 
L 148.671916 215.043001 
L 148.733643 214.736411 
L 148.782547 214.736411 
L 148.838907 214.634214 
L 148.844871 214.429821 
L 148.945364 214.429821 
L 149.14784 214.327624 
L 149.150822 214.123231 
L 149.258472 214.123231 
L 149.600506 214.021034 
L 149.634202 213.612247 
L 149.709348 213.612247 
L 149.768094 213.510051 
L 149.797317 213.305657 
L 149.877234 213.305657 
L 149.929121 213.203461 
L 149.951784 212.999067 
L 150.038858 212.999067 
L 150.109233 212.896871 
L 150.171556 212.590281 
L 150.213602 212.590281 
L 150.377612 212.488084 
L 150.463791 212.079297 
L 150.48049 212.079297 
L 150.572633 211.9771 
L 150.659707 211.36392 
L 150.683265 211.36392 
L 150.73038 211.261724 
L 150.781372 210.852937 
L 150.841012 210.852937 
L 150.930174 210.75074 
L 151.010389 210.341953 
L 151.036034 210.341953 
L 151.305606 210.239757 
L 151.39924 209.933167 
L 151.627064 209.83097 
L 151.727258 209.52438 
L 151.730837 209.52438 
L 151.926157 209.422183 
L 152.032017 209.21779 
L 152.185291 209.115593 
L 152.264911 208.809003 
L 152.267594 208.809003 
L 152.367193 208.706806 
L 152.443531 208.502413 
L 152.468878 208.502413 
L 152.664198 208.400216 
L 152.740835 207.787036 
L 152.77483 207.787036 
L 152.801966 207.684839 
L 152.8461 207.480446 
L 152.912896 207.480446 
L 152.965379 207.378249 
L 152.989831 207.173856 
L 153.074818 207.173856 
L 153.196781 207.071659 
L 153.233161 206.867266 
L 153.287135 206.867266 
L 153.408502 206.765069 
L 153.48663 206.356283 
L 153.517046 206.356283 
L 153.702824 206.254086 
L 153.751729 206.049692 
L 153.803615 206.049692 
L 153.856396 205.947496 
L 153.938401 205.640906 
L 153.953013 205.640906 
L 154.035316 205.538709 
L 154.0875 205.232119 
L 154.14058 205.232119 
L 154.233319 205.129922 
L 154.342758 204.414545 
L 154.438182 204.312349 
L 154.438182 204.210152 
L 154.542253 204.210152 
L 154.588772 204.107955 
L 154.699106 203.596972 
L 154.847907 203.494775 
L 154.910529 203.085989 
L 154.952873 203.085989 
L 154.98478 202.983792 
L 155.081993 202.677202 
L 155.083782 202.677202 
L 155.209622 202.575005 
L 155.300572 202.268415 
L 155.308624 202.268415 
L 155.32741 202.166218 
L 155.405836 201.859628 
L 155.431481 201.859628 
L 155.50126 201.757432 
L 155.575213 201.144251 
L 155.608611 201.144251 
L 155.718647 201.042055 
L 155.766359 200.735465 
L 155.829278 200.735465 
L 155.885638 200.633268 
L 155.971221 200.428875 
L 155.990007 200.428875 
L 156.216638 200.326678 
L 156.216638 200.224481 
L 156.322201 200.224481 
L 156.529747 200.122285 
L 156.529747 200.020088 
L 156.639782 200.020088 
L 156.720594 199.917891 
L 156.784707 199.509104 
L 156.826455 199.509104 
L 157.142247 199.406908 
L 157.142247 199.304711 
L 157.230812 199.304711 
L 157.304169 199.202514 
L 157.36679 198.895924 
L 157.415099 198.895924 
L 157.524537 198.793728 
L 157.611313 198.384941 
L 157.624732 198.384941 
L 157.690038 198.282744 
L 157.763693 197.873957 
L 157.794407 197.873957 
L 158.161788 197.771761 
L 158.186837 197.567367 
L 158.26079 197.567367 
L 158.38663 197.465171 
L 158.437323 197.260777 
L 158.455514 197.260777 
L 158.553024 197.158581 
L 158.553323 196.954187 
L 158.660376 196.954187 
L 158.72419 196.851991 
L 158.823491 196.647597 
L 158.830647 196.647597 
L 159.010461 196.5454 
L 159.048332 196.23881 
L 159.118409 196.23881 
L 159.163735 196.136614 
L 159.212342 195.830024 
L 159.260053 195.830024 
L 159.335199 195.727827 
L 159.335199 195.62563 
L 159.441954 195.62563 
L 159.543938 195.523434 
L 159.543938 195.421237 
L 159.638766 195.421237 
L 159.724945 195.31904 
L 159.792934 194.910253 
L 159.79532 194.910253 
L 159.926825 194.808057 
L 159.994517 194.501467 
L 160.027617 194.501467 
L 160.360108 194.39927 
L 160.453444 194.09268 
L 160.466565 194.09268 
L 160.565567 193.990483 
L 160.565567 193.888287 
L 160.675006 193.888287 
L 160.827982 193.78609 
L 160.934439 193.4795 
L 160.934737 193.4795 
L 161.123198 193.377303 
L 161.141687 193.070713 
L 161.229357 193.070713 
L 161.350127 192.968516 
L 161.433027 192.661926 
L 161.43571 192.661926 
L 161.653992 192.55973 
L 161.75687 192.150943 
L 161.849014 192.048746 
L 161.930422 191.639959 
L 161.95398 191.639959 
L 162.08638 191.537763 
L 162.101588 191.231173 
L 162.194626 191.231173 
L 162.39263 191.128976 
L 162.469267 190.822386 
L 162.50356 190.822386 
L 162.565585 190.720189 
L 162.565585 190.617993 
L 162.670253 190.617993 
L 162.963084 190.515796 
L 163.009901 190.311403 
L 163.067155 190.311403 
L 163.161386 190.209206 
L 163.161386 190.107009 
L 163.265755 190.107009 
L 163.298557 190.004812 
L 163.334341 189.800419 
L 163.385333 189.800419 
L 163.463163 189.698222 
L 163.463163 189.596026 
L 163.55799 189.596026 
L 163.58453 189.493829 
L 163.613157 189.289436 
L 163.676673 189.289436 
L 163.971293 189.187239 
L 164.049123 188.880649 
L 164.062244 188.880649 
L 164.325851 188.778452 
L 164.412627 188.369665 
L 164.421573 188.369665 
L 164.579916 188.267469 
L 164.662517 187.756485 
L 164.68369 187.756485 
L 164.725736 187.654289 
L 164.784182 187.449895 
L 164.82265 187.449895 
L 165.118463 187.347699 
L 165.118463 187.245502 
L 165.215974 187.245502 
L 165.376703 187.143305 
L 165.436641 186.836715 
L 165.476301 186.836715 
L 165.784042 186.734518 
L 165.839806 186.325732 
L 165.88215 186.325732 
L 166.3539 186.223535 
L 166.398928 185.814748 
L 166.444552 185.814748 
L 166.63868 185.712552 
L 166.71472 185.508158 
L 166.735296 185.508158 
L 166.794041 185.405961 
L 166.794041 185.303765 
L 166.896025 185.303765 
L 167.398191 185.201568 
L 167.398191 185.099371 
L 167.467672 185.099371 
L 167.602457 184.997175 
L 167.641522 184.792781 
L 167.713089 184.792781 
L 167.847577 184.690585 
L 167.919741 184.383995 
L 167.947771 184.383995 
L 168.043195 184.281798 
L 168.138022 183.975208 
L 168.15323 183.975208 
L 168.255512 183.873011 
L 168.334535 183.668618 
L 168.366442 183.668618 
L 168.469321 183.566421 
L 168.563552 182.953241 
L 168.579953 182.953241 
L 168.65659 182.851044 
L 168.750522 182.544454 
L 168.767519 182.544454 
L 168.779149 182.442258 
L 168.790481 182.237864 
L 168.886202 182.237864 
L 168.913637 182.135667 
L 168.986397 181.829077 
L 169.021883 181.829077 
L 169.284596 181.726881 
L 169.284596 181.624684 
L 169.395227 181.624684 
L 169.620666 181.522487 
L 169.628121 181.318094 
L 169.72921 181.318094 
L 170.375705 181.215897 
L 170.408208 180.909307 
L 170.438326 180.909307 
L 170.757399 180.807111 
L 170.831352 180.602717 
L 170.847753 180.602717 
L 171.330536 180.50052 
L 171.352007 180.19393 
L 171.423574 180.19393 
L 171.730123 180.091734 
L 171.813618 179.785144 
L 171.836281 179.785144 
L 171.886677 179.682947 
L 171.927232 179.376357 
L 171.984188 179.376357 
L 172.106449 179.27416 
L 172.106449 179.171964 
L 172.19412 179.171964 
L 172.633963 179.069767 
L 172.715967 178.865373 
L 172.722229 178.865373 
L 172.78664 178.763177 
L 172.823319 178.558783 
L 172.886537 178.558783 
L 172.942002 178.456587 
L 172.942002 178.35439 
L 173.051739 178.35439 
L 173.167142 178.252193 
L 173.260478 177.843407 
L 173.51335 177.74121 
L 173.567921 177.536816 
L 173.61265 177.536816 
L 173.641576 177.43462 
L 173.732228 177.230226 
L 173.74684 177.230226 
L 173.83123 177.12803 
L 173.936792 176.719243 
L 174.304471 176.617046 
L 174.398702 176.20826 
L 174.414805 176.20826 
L 174.523051 176.106063 
L 174.590444 175.901669 
L 174.630999 175.901669 
L 174.682885 175.799473 
L 174.747594 175.595079 
L 174.785764 175.595079 
L 174.932179 175.492883 
L 174.932179 175.390686 
L 175.043109 175.390686 
L 175.197874 175.288489 
L 175.298069 174.879703 
L 175.434644 174.777506 
L 175.434644 174.675309 
L 175.537522 174.675309 
L 175.790097 174.573113 
L 175.790097 174.470916 
L 175.89208 174.470916 
L 176.075473 174.368719 
L 176.075473 174.266522 
L 176.173878 174.266522 
L 176.308068 174.164326 
L 176.308068 174.062129 
L 176.415717 174.062129 
L 176.676045 173.959932 
L 176.676045 173.857736 
L 176.783098 173.857736 
L 176.980207 173.755539 
L 177.058335 173.551146 
L 177.06907 173.551146 
L 177.182088 173.448949 
L 177.212206 173.142359 
L 177.290632 173.142359 
L 177.485356 173.040162 
L 177.58734 172.835769 
L 177.5939 172.835769 
L 178.188508 172.733572 
L 178.188508 172.631375 
L 178.291983 172.631375 
L 178.81055 172.529179 
L 178.916113 172.222589 
L 178.917007 172.222589 
L 179.044934 172.120392 
L 179.132605 171.813802 
L 179.147216 171.813802 
L 179.374146 171.711605 
L 179.374146 171.609409 
L 179.482093 171.609409 
L 179.567676 171.507212 
L 179.567676 171.405015 
L 179.676221 171.405015 
L 179.834862 171.302819 
L 179.834862 171.200622 
L 179.943109 171.200622 
L 180.270232 171.098425 
L 180.28723 170.894032 
L 180.369533 170.894032 
L 180.729756 170.791835 
L 180.827267 170.587442 
L 180.839195 170.587442 
L 181.193753 170.485245 
L 181.193753 170.383048 
L 181.299316 170.383048 
L 181.650296 170.280852 
L 181.650296 170.178655 
L 181.75556 170.178655 
L 181.851878 170.076458 
L 181.940145 169.769868 
L 181.948494 169.769868 
L 182.476007 169.667672 
L 182.476007 169.565475 
L 182.581272 169.565475 
L 182.625405 169.463278 
L 182.625405 169.361081 
L 182.733353 169.361081 
L 183.0235 169.258885 
L 183.121309 169.054491 
L 183.134132 169.054491 
L 183.157988 168.952295 
L 183.257884 168.645705 
L 183.379549 168.645705 
L 183.461852 168.339115 
L 183.481831 168.339115 
L 183.72367 168.236918 
L 183.72367 168.134721 
L 183.828636 168.134721 
L 184.218084 168.032525 
L 184.230608 167.828131 
L 184.323348 167.828131 
L 184.376129 167.725934 
L 184.376129 167.623738 
L 184.473938 167.623738 
L 184.65077 167.521541 
L 184.73188 167.317148 
L 184.759016 167.317148 
L 184.898275 167.214951 
L 184.898275 167.112754 
L 185.005924 167.112754 
L 185.372709 167.010558 
L 185.417438 166.806164 
L 185.482744 166.806164 
L 185.83104 166.703968 
L 185.858474 166.397377 
L 185.941075 166.397377 
L 186.306667 166.295181 
L 186.369288 166.090787 
L 186.414018 166.090787 
L 186.601585 165.988591 
L 186.644526 165.579804 
L 186.70178 165.579804 
L 186.84253 165.477607 
L 186.84253 165.375411 
L 186.944812 165.375411 
L 187.098086 165.273214 
L 187.098086 165.171017 
L 187.202754 165.171017 
L 187.658103 165.068821 
L 187.714761 164.76223 
L 187.769033 164.76223 
L 188.278952 164.660034 
L 188.278952 164.557837 
L 188.382129 164.557837 
L 188.597727 164.45564 
L 188.597727 164.353444 
L 188.708358 164.353444 
L 188.866105 164.251247 
L 188.965405 163.944657 
L 189.186371 163.84246 
L 189.268375 163.53587 
L 189.292231 163.53587 
L 189.783364 163.433674 
L 189.80722 163.127083 
L 189.888628 163.127083 
L 190.072617 163.024887 
L 190.121521 162.718297 
L 190.182652 162.718297 
L 190.363062 162.6161 
L 190.363062 162.513903 
L 190.45938 162.513903 
L 190.80708 162.411707 
L 190.896241 162.105117 
L 190.91801 162.105117 
L 191.04385 162.00292 
L 191.103788 161.798527 
L 191.154481 161.798527 
L 191.269884 161.798527 
L 191.334892 161.287543 
L 191.374254 161.287543 
L 191.523949 161.185346 
L 191.523949 161.08315 
L 191.62325 161.08315 
L 191.675136 160.980953 
L 191.701079 160.77656 
L 191.784277 160.77656 
L 191.889839 160.674363 
L 191.889839 160.572166 
L 191.999576 160.572166 
L 192.216367 160.46997 
L 192.295091 160.16338 
L 192.318052 160.16338 
L 192.615953 160.061183 
L 192.632652 159.856789 
L 192.726883 159.856789 
L 193.05848 159.754593 
L 193.115734 159.550199 
L 193.14615 159.550199 
L 193.298231 159.448003 
L 193.298231 159.345806 
L 193.406179 159.345806 
L 193.655771 159.243609 
L 193.655771 159.141413 
L 193.76521 159.141413 
L 193.997507 159.039216 
L 193.997507 158.937019 
L 194.108139 158.937019 
L 194.742705 158.834823 
L 194.814869 158.528233 
L 194.852741 158.528233 
L 195.025398 158.426036 
L 195.025398 158.323839 
L 195.125592 158.323839 
L 195.565137 158.221642 
L 195.565137 158.119446 
L 195.673085 158.119446 
L 196.196423 158.017249 
L 196.25487 157.710659 
L 196.300793 157.710659 
L 196.500884 157.608462 
L 196.500884 157.506266 
L 196.608236 157.506266 
L 197.138433 157.404069 
L 197.138433 157.301872 
L 197.227296 157.301872 
L 197.373413 157.199676 
L 197.382956 156.995282 
L 197.478379 156.995282 
L 197.600939 156.893086 
L 197.600939 156.790889 
L 197.71008 156.790889 
L 197.845462 156.790889 
L 197.866336 156.484299 
L 197.953111 156.484299 
L 198.289778 156.382102 
L 198.38699 156.177709 
L 198.400409 156.177709 
L 198.533406 156.075512 
L 198.588573 155.871119 
L 198.643441 155.871119 
L 199.407426 155.768922 
L 199.419056 155.564529 
L 199.516268 155.564529 
L 199.667157 155.462332 
L 199.676699 155.257938 
L 199.76437 155.257938 
L 199.972214 155.155742 
L 200.066147 154.951348 
L 200.082548 154.951348 
L 200.76751 154.849152 
L 200.827746 154.644758 
L 200.874563 154.644758 
L 201.021575 154.542562 
L 201.080917 154.133775 
L 201.11849 154.133775 
L 201.480204 154.031578 
L 201.496307 153.827185 
L 201.577119 153.827185 
L 202.003543 153.724988 
L 202.003543 153.622791 
L 202.099861 153.622791 
L 202.254328 153.520595 
L 202.331561 153.316201 
L 202.364662 153.316201 
L 202.62648 153.214005 
L 202.635426 153.009611 
L 202.727867 153.009611 
L 203.646319 152.907415 
L 203.646319 152.805218 
L 203.744128 152.805218 
L 204.292217 152.703021 
L 204.336351 152.396431 
L 204.399867 152.396431 
L 204.805715 152.294235 
L 204.89428 152.089841 
L 204.899051 152.089841 
L 205.885791 151.987644 
L 205.885791 151.885448 
L 205.995826 151.885448 
L 206.035188 151.783251 
L 206.035188 151.681054 
L 206.125542 151.681054 
L 206.362312 151.578858 
L 206.362312 151.476661 
L 206.471155 151.476661 
L 206.729096 151.374464 
L 206.807821 151.067874 
L 206.83943 151.067874 
L 207.186831 150.965678 
L 207.186831 150.863481 
L 207.286131 150.863481 
L 207.684525 150.761284 
L 207.69526 150.556891 
L 207.787403 150.556891 
L 208.732991 150.454694 
L 208.732991 150.352497 
L 208.831993 150.352497 
L 209.477891 150.250301 
L 209.477891 150.148104 
L 209.584944 150.148104 
L 210.015543 150.045907 
L 210.015543 149.943711 
L 210.123491 149.943711 
L 210.300919 149.841514 
L 210.329844 149.637121 
L 210.37368 149.637121 
L 210.908052 149.534924 
L 210.908052 149.432727 
L 211.018683 149.432727 
L 211.434074 149.330531 
L 211.446896 149.126137 
L 211.541425 149.126137 
L 211.907911 149.023941 
L 211.907911 148.921744 
L 212.004826 148.921744 
L 212.33523 148.819547 
L 212.33523 148.71735 
L 212.4396 148.71735 
L 214.041224 148.615154 
L 214.041224 148.512957 
L 214.150067 148.512957 
L 214.640603 148.41076 
L 214.640603 148.308564 
L 214.750341 148.308564 
L 215.280836 148.206367 
L 215.280836 148.10417 
L 215.375663 148.10417 
L 215.849501 148.001974 
L 215.849501 147.899777 
L 215.953572 147.899777 
L 216.149787 147.79758 
L 216.149787 147.695384 
L 216.260716 147.695384 
L 216.378207 147.593187 
L 216.378207 147.49099 
L 216.487944 147.49099 
L 216.652848 147.388794 
L 216.652848 147.286597 
L 216.753042 147.286597 
L 216.961781 147.1844 
L 217.054819 146.980007 
L 217.072115 146.980007 
L 218.505556 146.87781 
L 218.615293 146.57122 
L 219.233458 146.469023 
L 219.233458 146.366827 
L 219.34409 146.366827 
L 219.564757 146.26463 
L 219.624099 146.060237 
L 219.674494 146.060237 
L 220.556864 145.95804 
L 220.556864 145.855843 
L 220.664812 145.855843 
L 220.977622 145.753647 
L 220.977622 145.65145 
L 221.071256 145.65145 
L 221.28745 145.549253 
L 221.28745 145.447056 
L 221.384067 145.447056 
L 222.458178 145.34486 
L 222.458178 145.242663 
L 222.561057 145.242663 
L 223.313412 145.140466 
L 223.313412 145.03827 
L 223.403169 145.03827 
L 223.662304 144.936073 
L 223.662304 144.833876 
L 223.772936 144.833876 
L 225.356668 144.73168 
L 225.456565 144.527286 
L 225.465809 144.527286 
L 227.152122 144.42509 
L 227.152122 144.322893 
L 227.259772 144.322893 
L 227.448234 144.322893 
L 227.448234 144.118499 
L 227.545446 144.118499 
L 228.662498 144.016303 
L 228.662498 143.914106 
L 228.763588 143.914106 
L 228.842014 143.811909 
L 228.934157 143.607516 
L 229.271718 143.505319 
L 229.271718 143.403123 
L 229.381753 143.403123 
L 230.192555 143.300926 
L 230.192555 143.198729 
L 230.303485 143.198729 
L 230.627627 143.096533 
L 230.627627 142.994336 
L 230.720367 142.994336 
L 230.804757 142.892139 
L 230.804757 142.789943 
L 230.905548 142.789943 
L 232.151422 142.687746 
L 232.188697 142.483352 
L 232.254897 142.483352 
L 232.548921 142.381156 
L 232.548921 142.278959 
L 232.652992 142.278959 
L 233.024249 142.176762 
L 233.024249 142.074566 
L 233.133092 142.074566 
L 233.864573 141.972369 
L 233.864573 141.870172 
L 233.972819 141.870172 
L 234.897831 141.767976 
L 234.897831 141.665779 
L 235.005779 141.665779 
L 235.89948 141.563582 
L 235.95912 141.359189 
L 236.007428 141.359189 
L 236.155931 141.256992 
L 236.176208 141.052599 
L 236.263282 141.052599 
L 236.759187 140.950402 
L 236.759187 140.848205 
L 236.870117 140.848205 
L 237.196048 140.746009 
L 237.274176 140.541615 
L 237.303399 140.541615 
L 237.783797 140.439419 
L 237.783797 140.337222 
L 237.882799 140.337222 
L 238.15416 140.235025 
L 238.15416 140.132829 
L 238.264493 140.132829 
L 238.545993 140.030632 
L 238.545993 139.928435 
L 238.649468 139.928435 
L 240.113921 139.826239 
L 240.203977 139.621845 
L 240.215905 139.621845 
L 240.836158 139.519649 
L 240.836158 139.417452 
L 240.947088 139.417452 
L 241.416453 139.315255 
L 241.416453 139.213058 
L 241.523506 139.213058 
L 242.649802 139.110862 
L 242.649802 139.008665 
L 242.748506 139.008665 
L 243.369653 138.906468 
L 243.369653 138.804272 
L 243.479092 138.804272 
L 244.068333 138.702075 
L 244.068333 138.599878 
L 244.177772 138.599878 
L 244.446449 138.497682 
L 244.446449 138.395485 
L 244.55708 138.395485 
L 245.390545 138.293288 
L 245.390545 138.191092 
L 245.501177 138.191092 
L 245.961894 138.088895 
L 245.961894 137.986698 
L 246.072824 137.986698 
L 246.296771 137.884502 
L 246.296771 137.782305 
L 246.399649 137.782305 
L 246.635226 137.680108 
L 246.635226 137.577911 
L 246.730948 137.577911 
L 247.321083 137.475715 
L 247.321083 137.373518 
L 247.423365 137.373518 
L 249.019921 137.271321 
L 249.019921 137.169125 
L 249.124886 137.169125 
L 249.876347 137.066928 
L 249.876347 136.964731 
L 249.985488 136.964731 
L 252.018009 136.862535 
L 252.088384 136.658141 
L 252.128939 136.658141 
L 252.662715 136.555945 
L 252.734282 136.351551 
L 252.768277 136.351551 
L 253.50274 136.249355 
L 253.50274 136.147158 
L 253.612775 136.147158 
L 254.411649 136.044961 
L 254.411649 135.942764 
L 254.520492 135.942764 
L 254.984489 135.840568 
L 254.984489 135.738371 
L 255.078422 135.738371 
L 255.444609 135.636174 
L 255.444609 135.533978 
L 255.549575 135.533978 
L 256.263761 135.431781 
L 256.346064 135.125191 
L 256.355904 135.125191 
L 257.729705 135.022994 
L 257.78517 134.716404 
L 257.839144 134.716404 
L 258.114083 134.614208 
L 258.114083 134.512011 
L 258.222926 134.512011 
L 259.009872 134.409814 
L 259.009872 134.307617 
L 259.116627 134.307617 
L 259.625652 134.205421 
L 259.625652 134.103224 
L 259.726741 134.103224 
L 260.871824 134.001027 
L 260.871824 133.898831 
L 260.977088 133.898831 
L 261.434227 133.796634 
L 261.434227 133.694437 
L 261.545156 133.694437 
L 262.250098 133.592241 
L 262.250098 133.490044 
L 262.361028 133.490044 
L 263.15036 133.387847 
L 263.15036 133.285651 
L 263.220436 133.285651 
L 263.761368 133.183454 
L 263.761368 133.081257 
L 263.871404 133.081257 
L 264.415318 132.97906 
L 264.415318 132.876864 
L 264.513425 132.876864 
L 265.020661 132.876864 
L 265.020661 132.67247 
L 265.129504 132.67247 
L 265.688626 132.570274 
L 265.688626 132.468077 
L 265.779577 132.468077 
L 265.903329 132.36588 
L 265.903329 132.263684 
L 266.00084 132.263684 
L 267.049903 132.161487 
L 267.099105 131.957094 
L 267.117296 131.957094 
L 268.670612 131.854897 
L 268.670612 131.7527 
L 268.778262 131.7527 
L 269.390464 131.650504 
L 269.390464 131.548307 
L 269.493044 131.548307 
L 270.553438 131.44611 
L 270.553438 131.343913 
L 270.656913 131.343913 
L 271.271202 131.241717 
L 271.271202 131.13952 
L 271.380939 131.13952 
L 272.042642 131.037323 
L 272.042642 130.935127 
L 272.153274 130.935127 
L 273.023119 130.83293 
L 273.023119 130.730733 
L 273.132856 130.730733 
L 273.90519 130.628537 
L 273.90519 130.52634 
L 274.01612 130.52634 
L 274.306268 130.424143 
L 274.306268 130.321947 
L 274.414514 130.321947 
L 275.464769 130.21975 
L 275.464769 130.117553 
L 275.57391 130.117553 
L 276.044169 130.015357 
L 276.044169 129.91316 
L 276.145557 129.91316 
L 277.873319 129.810963 
L 277.873319 129.708766 
L 277.983653 129.708766 
L 278.167045 129.60657 
L 278.240402 129.29998 
L 278.2738 129.29998 
L 279.041661 129.197783 
L 279.041661 129.095586 
L 279.134103 129.095586 
L 280.623605 128.99339 
L 280.72201 128.6868 
L 280.73364 128.6868 
L 281.229246 128.584603 
L 281.229246 128.482406 
L 281.339878 128.482406 
L 281.504484 128.38021 
L 281.504484 128.278013 
L 281.609151 128.278013 
L 282.559212 128.175816 
L 282.559212 128.073619 
L 282.669546 128.073619 
L 284.876215 128.073619 
L 284.876215 127.869226 
L 284.948976 127.869226 
L 287.127018 127.767029 
L 287.127018 127.664833 
L 287.237352 127.664833 
L 287.92291 127.562636 
L 287.92291 127.460439 
L 288.013563 127.460439 
L 288.645446 127.358243 
L 288.645446 127.256046 
L 288.755481 127.256046 
L 290.22232 127.153849 
L 290.22232 127.051653 
L 290.329671 127.051653 
L 291.509047 126.949456 
L 291.567494 126.745063 
L 291.618784 126.745063 
L 291.842433 126.642866 
L 291.842433 126.540669 
L 291.949784 126.540669 
L 293.247545 126.438472 
L 293.247545 126.336276 
L 293.357878 126.336276 
L 294.384874 126.234079 
L 294.384874 126.131882 
L 294.49312 126.131882 
L 295.111286 126.029686 
L 295.119934 125.825292 
L 295.214463 125.825292 
L 296.290661 125.723096 
L 296.344039 125.518702 
L 296.390558 125.518702 
L 297.085957 125.416506 
L 297.085957 125.314309 
L 297.183766 125.314309 
L 297.892286 125.212112 
L 297.892286 125.109916 
L 298.002321 125.109916 
L 300.522398 125.007719 
L 300.522398 124.905522 
L 300.632433 124.905522 
L 303.377351 124.803325 
L 303.377351 124.701129 
L 303.487685 124.701129 
L 304.483966 124.598932 
L 304.483966 124.496735 
L 304.594598 124.496735 
L 306.034003 124.394539 
L 306.034003 124.292342 
L 306.139267 124.292342 
L 306.980187 124.190145 
L 306.981678 123.985752 
L 307.083363 123.985752 
L 309.036564 123.883555 
L 309.036564 123.781359 
L 309.139741 123.781359 
L 312.337026 123.679162 
L 312.345972 123.474769 
L 312.441098 123.474769 
L 318.066316 123.372572 
L 318.066316 123.270375 
L 318.174861 123.270375 
L 319.71118 123.168178 
L 319.71118 123.065982 
L 319.815251 123.065982 
L 323.000609 122.963785 
L 323.000609 122.861588 
L 323.110942 122.861588 
L 324.690202 122.759392 
L 324.690202 122.657195 
L 324.792782 122.657195 
L 325.693044 122.554998 
L 325.793238 122.248408 
L 325.803974 122.248408 
L 327.231749 122.146212 
L 327.231749 121.941818 
L 327.337013 121.941818 
L 329.523107 121.839621 
L 329.523107 121.737425 
L 329.626582 121.737425 
L 330.444838 121.635228 
L 330.444838 121.533031 
L 330.555768 121.533031 
L 332.372991 121.430835 
L 332.372991 121.328638 
L 332.475869 121.328638 
L 333.199895 121.226441 
L 333.199895 121.124245 
L 333.30665 121.124245 
L 334.135643 121.022048 
L 334.135643 120.919851 
L 334.244783 120.919851 
L 335.10449 120.817655 
L 335.131328 120.613261 
L 335.209456 120.613261 
L 336.323228 120.511065 
L 336.414178 120.306671 
L 336.433859 120.306671 
L 336.798556 120.204474 
L 336.798556 120.102278 
L 336.90382 120.102278 
L 337.556875 120.000081 
L 337.556875 119.897884 
L 337.662736 119.897884 
L 338.373939 119.795688 
L 338.373939 119.693491 
L 338.484869 119.693491 
L 339.488308 119.591294 
L 339.488308 119.489098 
L 339.596255 119.489098 
L 340.390955 119.386901 
L 340.390955 119.284704 
L 340.482502 119.284704 
L 341.911469 119.182508 
L 341.911469 119.080311 
L 342.013155 119.080311 
L 343.262905 118.978114 
L 343.262905 118.875918 
L 343.366977 118.875918 
L 343.75553 118.773721 
L 343.75553 118.671524 
L 343.851251 118.671524 
L 343.938027 118.671524 
L 343.938027 118.467131 
L 344.031661 118.467131 
L 344.704398 118.364934 
L 344.781929 118.160541 
L 344.81324 118.160541 
L 345.202389 118.058344 
L 345.202389 117.956147 
L 345.313319 117.956147 
L 345.759722 117.853951 
L 345.767177 117.649557 
L 345.866477 117.649557 
L 346.264573 117.547361 
L 346.264573 117.445164 
L 346.359102 117.445164 
L 347.761231 117.342967 
L 347.761231 117.240771 
L 347.866794 117.240771 
L 348.477206 117.138574 
L 348.505833 116.93418 
L 348.581874 116.93418 
L 348.855024 116.831984 
L 348.855024 116.729787 
L 348.956113 116.729787 
L 349.652705 116.62759 
L 349.743954 116.423197 
L 349.760057 116.423197 
L 350.464998 116.321 
L 350.464998 116.218804 
L 350.566087 116.218804 
L 351.754707 116.116607 
L 351.754707 116.01441 
L 351.845658 116.01441 
L 352.163239 115.912214 
L 352.163239 115.810017 
L 352.272082 115.810017 
L 353.218266 115.70782 
L 353.218266 115.605624 
L 353.322635 115.605624 
L 354.603697 115.503427 
L 354.603697 115.40123 
L 354.714626 115.40123 
L 355.699278 115.299033 
L 355.699278 115.196837 
L 355.807524 115.196837 
L 356.825873 115.09464 
L 356.878952 114.890247 
L 356.91742 114.890247 
L 359.35072 114.78805 
L 359.35072 114.685853 
L 359.455686 114.685853 
L 360.302868 114.583657 
L 360.302868 114.48146 
L 360.406045 114.48146 
L 361.801316 114.379263 
L 361.908966 114.17487 
L 362.249807 114.072673 
L 362.249807 113.970477 
L 362.355071 113.970477 
L 362.488664 113.86828 
L 362.488664 113.766083 
L 362.595717 113.766083 
L 362.658637 113.663886 
L 362.658637 113.56169 
L 362.765989 113.56169 
L 363.201955 113.459493 
L 363.302448 113.2551 
L 363.634343 113.152903 
L 363.634343 113.050706 
L 363.742291 113.050706 
L 363.894074 112.94851 
L 363.894074 112.846313 
L 363.996058 112.846313 
L 364.658357 112.744116 
L 364.658357 112.64192 
L 364.768691 112.64192 
L 365.894689 112.539723 
L 365.894689 112.437526 
L 366.005022 112.437526 
L 366.412958 112.33533 
L 366.501224 112.130936 
L 366.519116 112.130936 
L 367.008162 112.028739 
L 367.008162 111.926543 
L 367.117303 111.926543 
L 368.515556 111.824346 
L 368.515556 111.722149 
L 368.617838 111.722149 
L 368.748151 111.619953 
L 368.775883 111.415559 
L 368.85759 111.415559 
L 370.027423 111.313363 
L 370.027423 111.211166 
L 370.106744 111.211166 
L 370.17026 111.108969 
L 370.234969 110.904576 
L 370.275226 110.904576 
L 370.494104 110.802379 
L 370.543605 110.597986 
L 370.577599 110.597986 
L 371.841961 110.495789 
L 371.868799 110.189199 
L 371.923668 110.189199 
L 372.46967 110.087002 
L 372.46967 109.984806 
L 372.574337 109.984806 
L 373.634135 109.882609 
L 373.634135 109.780412 
L 373.721209 109.780412 
L 374.280331 109.678216 
L 374.354583 109.473822 
L 374.390963 109.473822 
L 375.07682 109.371626 
L 375.07682 109.269429 
L 375.186259 109.269429 
L 375.724805 109.167232 
L 375.724805 109.065035 
L 375.824106 109.065035 
L 376.615525 108.962839 
L 376.615525 108.860642 
L 376.719894 108.860642 
L 377.097414 108.758445 
L 377.185979 108.554052 
L 377.191048 108.554052 
L 378.849927 108.451855 
L 378.849927 108.349659 
L 378.957577 108.349659 
L 379.47346 108.247462 
L 379.480021 108.043069 
L 379.577531 108.043069 
L 379.775834 107.940872 
L 379.775834 107.838675 
L 379.885869 107.838675 
L 380.219851 107.736479 
L 380.219851 107.634282 
L 380.329887 107.634282 
L 380.746172 107.532085 
L 380.746172 107.429888 
L 380.852927 107.429888 
L 381.655081 107.327692 
L 381.712335 107.123298 
L 381.74633 107.123298 
L 382.26609 107.021102 
L 382.26609 106.918905 
L 382.360917 106.918905 
L 383.076296 106.816708 
L 383.076296 106.714512 
L 383.180665 106.714512 
L 383.771993 106.612315 
L 383.771993 106.510118 
L 383.879046 106.510118 
L 384.047827 106.407922 
L 384.14653 105.999135 
L 384.149214 105.999135 
L 384.734578 105.896938 
L 384.801971 105.692545 
L 384.839544 105.692545 
L 385.345289 105.590348 
L 385.345289 105.488151 
L 385.4428 105.488151 
L 386.281632 105.385955 
L 386.281632 105.283758 
L 386.375863 105.283758 
L 386.579235 105.181561 
L 386.579235 105.079365 
L 386.687481 105.079365 
L 387.257636 104.977168 
L 387.257636 104.874971 
L 387.361708 104.874971 
L 387.49381 104.772775 
L 387.49381 104.670578 
L 387.59311 104.670578 
L 388.172808 104.568381 
L 388.172808 104.466185 
L 388.278967 104.466185 
L 388.973471 104.363988 
L 389.036988 104.159594 
L 389.083805 104.159594 
L 389.118694 104.057398 
L 389.218889 103.750808 
L 389.225151 103.750808 
L 390.449853 103.648611 
L 390.4585 103.444218 
L 390.55959 103.444218 
L 390.977068 103.342021 
L 390.977068 103.239824 
L 391.085612 103.239824 
L 391.391266 103.137628 
L 391.495337 102.933234 
L 391.497722 102.933234 
L 392.542909 102.831038 
L 392.542909 102.728841 
L 392.624317 102.728841 
L 392.873611 102.626644 
L 392.873611 102.524447 
L 392.971718 102.524447 
L 393.63849 102.422251 
L 393.672187 102.217857 
L 393.738685 102.217857 
L 394.298106 102.115661 
L 394.345221 101.911267 
L 394.381601 101.911267 
L 395.243992 101.809071 
L 395.243992 101.706874 
L 395.323014 101.706874 
L 395.432155 101.604677 
L 395.432155 101.502481 
L 395.539208 101.502481 
L 395.846353 101.400284 
L 395.912851 101.195891 
L 395.955195 101.195891 
L 396.402791 101.093694 
L 396.474359 100.8893 
L 396.950284 100.787104 
L 396.950284 100.684907 
L 397.060916 100.684907 
L 398.087912 100.58271 
L 398.191983 100.378317 
L 398.341679 100.27612 
L 398.341679 100.173924 
L 398.402809 100.173924 
L 400.084053 100.071727 
L 400.084053 99.96953 
L 400.194387 99.96953 
L 400.441295 99.867334 
L 400.441295 99.765137 
L 400.535228 99.765137 
L 400.94376 99.66294 
L 400.94376 99.560743 
L 401.04962 99.560743 
L 401.62574 99.458547 
L 401.62574 99.35635 
L 401.736372 99.35635 
L 401.83269 99.254153 
L 401.83269 99.151957 
L 401.917378 99.151957 
L 402.526598 99.04976 
L 402.526598 98.947563 
L 402.632757 98.947563 
L 403.987771 98.845367 
L 403.987771 98.74317 
L 404.08886 98.74317 
L 404.551068 98.640973 
L 404.551068 98.538777 
L 404.658718 98.538777 
L 405.510075 98.538777 
L 405.534229 98.232187 
L 405.62011 98.232187 
L 406.721059 98.12999 
L 406.721059 98.027793 
L 406.819763 98.027793 
L 407.28048 97.925596 
L 407.28048 97.8234 
L 407.37322 97.8234 
L 407.826482 97.721203 
L 407.826482 97.619006 
L 407.918923 97.619006 
L 408.218911 97.51681 
L 408.324771 97.312416 
L 408.572873 97.21022 
L 408.612533 97.005826 
L 408.669489 97.005826 
L 409.881666 96.90363 
L 409.902242 96.699236 
L 409.969337 96.699236 
L 410.630145 96.59704 
L 410.705291 96.188253 
L 410.719903 96.188253 
L 410.988878 96.086056 
L 410.988878 95.983859 
L 411.092651 95.983859 
L 411.772842 95.881663 
L 411.772842 95.779466 
L 411.877808 95.779466 
L 412.4253 95.677269 
L 412.4253 95.575073 
L 412.52639 95.575073 
L 412.990983 95.472876 
L 412.990983 95.370679 
L 413.093564 95.370679 
L 413.344945 95.268483 
L 413.344945 95.166286 
L 413.455577 95.166286 
L 414.205546 95.064089 
L 414.268764 94.757499 
L 414.299777 94.757499 
L 414.59887 94.655302 
L 414.59887 94.553106 
L 414.698767 94.553106 
L 414.777789 94.450909 
L 414.777789 94.348712 
L 414.886632 94.348712 
L 415.154712 94.246516 
L 415.233437 93.939926 
L 415.259678 93.939926 
L 415.683418 93.837729 
L 415.772878 93.633336 
L 416.149503 93.531139 
L 416.203775 93.326746 
L 416.25596 93.326746 
L 416.621253 93.224549 
L 416.642723 93.020155 
L 416.712502 93.020155 
L 417.064674 92.917959 
L 417.064674 92.815762 
L 417.155923 92.815762 
L 417.54388 92.713565 
L 417.641987 92.509172 
L 417.654511 92.509172 
L 417.984319 92.406975 
L 417.984319 92.304779 
L 418.092863 92.304779 
L 419.004754 92.202582 
L 419.052466 91.998189 
L 419.11479 91.998189 
L 419.834641 91.895992 
L 419.852235 91.691599 
L 419.935432 91.691599 
L 420.98867 91.589402 
L 421.019086 91.385008 
L 421.099301 91.385008 
L 421.456842 91.282812 
L 421.473839 91.078418 
L 421.53318 91.078418 
L 421.845096 90.976222 
L 421.845096 90.874025 
L 421.951553 90.874025 
L 422.119737 90.771828 
L 422.119737 90.669632 
L 422.22023 90.669632 
L 422.838098 90.567435 
L 422.840781 90.363042 
L 422.941871 90.363042 
L 423.523358 90.260845 
L 423.624149 90.056452 
L 423.629815 90.056452 
L 424.930557 89.954255 
L 424.930557 89.852058 
L 425.003019 89.852058 
L 425.826942 89.749861 
L 425.869585 89.545468 
L 425.934592 89.545468 
L 426.262014 89.443271 
L 426.331494 89.238878 
L 426.367278 89.238878 
L 426.495503 89.136681 
L 426.56886 88.932288 
L 426.605837 88.932288 
L 426.646988 88.830091 
L 426.74927 88.625698 
L 426.751358 88.625698 
L 427.130666 88.523501 
L 427.215951 88.319108 
L 427.23772 88.319108 
L 427.559774 88.216911 
L 427.559774 88.114714 
L 427.650725 88.114714 
L 427.971885 88.012518 
L 427.971885 87.910321 
L 428.072676 87.910321 
L 428.178536 87.808124 
L 428.178536 87.705928 
L 428.287081 87.705928 
L 428.843221 87.603731 
L 428.90793 87.092748 
L 428.954151 87.092748 
L 430.355684 86.990551 
L 430.360455 86.786157 
L 430.460352 86.786157 
L 430.924349 86.683961 
L 430.924349 86.581764 
L 431.029315 86.581764 
L 431.418464 86.479567 
L 431.475122 86.172977 
L 431.527307 86.172977 
L 432.874568 86.070781 
L 432.874568 85.968584 
L 432.960151 85.968584 
L 433.701771 85.866387 
L 433.701771 85.764191 
L 433.806439 85.764191 
L 434.350353 85.661994 
L 434.350353 85.559797 
L 434.458301 85.559797 
L 434.749939 85.457601 
L 434.749939 85.355404 
L 434.845661 85.355404 
L 435.721768 85.253207 
L 435.721768 85.15101 
L 435.815104 85.15101 
L 436.493208 85.048814 
L 436.589228 84.742224 
L 436.597876 84.742224 
L 437.083939 84.640027 
L 437.083939 84.53783 
L 437.189204 84.53783 
L 437.588193 84.435634 
L 437.588193 84.333437 
L 437.687493 84.333437 
L 437.824068 84.23124 
L 437.824068 84.129044 
L 437.898022 84.129044 
L 438.05219 84.026847 
L 438.05219 83.92465 
L 438.115707 83.92465 
L 438.92293 83.822454 
L 438.92293 83.720257 
L 439.027896 83.720257 
L 439.344583 83.61806 
L 439.354125 83.413667 
L 439.432552 83.413667 
L 441.394698 83.31147 
L 441.400364 83.107077 
L 441.502945 83.107077 
L 442.059681 83.00488 
L 442.059681 82.902683 
L 442.161665 82.902683 
L 443.30973 82.800487 
L 443.32136 82.596093 
L 443.418871 82.596093 
L 443.582283 82.493897 
L 443.582283 82.3917 
L 443.693213 82.3917 
L 444.402628 82.289503 
L 444.402628 82.187307 
L 444.491193 82.187307 
L 444.628662 82.08511 
L 444.708878 81.880716 
L 444.733032 81.880716 
L 445.373562 81.77852 
L 445.476143 81.574126 
L 445.476441 81.574126 
L 446.659395 81.47193 
L 446.681163 81.267536 
L 446.73305 81.267536 
L 447.386999 81.16534 
L 447.386999 81.063143 
L 447.448726 81.063143 
L 448.675516 80.960946 
L 448.69967 80.756553 
L 448.774219 80.756553 
L 449.420714 80.654356 
L 449.420714 80.55216 
L 449.528364 80.55216 
L 449.55043 80.449963 
L 449.55043 80.347766 
L 449.645556 80.347766 
L 449.837894 80.245569 
L 449.837894 80.143373 
L 449.913636 80.143373 
L 450.42117 80.041176 
L 450.42117 79.938979 
L 450.500491 79.938979 
L 451.330378 79.836783 
L 451.330378 79.734586 
L 451.433853 79.734586 
L 451.596967 79.632389 
L 451.596967 79.530193 
L 451.651239 79.530193 
L 452.105694 79.427996 
L 452.105694 79.325799 
L 452.216624 79.325799 
L 452.42417 79.223603 
L 452.42417 79.121406 
L 452.530031 79.121406 
L 452.695829 79.019209 
L 452.695829 78.917013 
L 452.805566 78.917013 
L 452.95228 78.814816 
L 452.95228 78.712619 
L 453.055457 78.712619 
L 453.483073 78.610422 
L 453.483073 78.508226 
L 453.589232 78.508226 
L 453.822423 78.406029 
L 453.900551 78.201636 
L 453.931266 78.201636 
L 454.666326 78.099439 
L 454.666326 77.997242 
L 454.770993 77.997242 
L 455.803059 77.895046 
L 455.878205 77.588456 
L 455.88894 77.588456 
L 456.35234 77.486259 
L 456.35234 77.384062 
L 456.428381 77.384062 
L 456.722703 77.281865 
L 456.722703 77.179669 
L 456.824985 77.179669 
L 457.020603 77.077472 
L 457.124675 76.873079 
L 457.12885 76.873079 
L 457.545731 76.770882 
L 457.545731 76.668685 
L 457.639067 76.668685 
L 457.907148 76.566489 
L 457.907148 76.464292 
L 458.002273 76.464292 
L 458.483864 76.362095 
L 458.483864 76.259899 
L 458.569745 76.259899 
L 459.390984 76.157702 
L 459.390984 76.055505 
L 459.493266 76.055505 
L 459.735702 75.953309 
L 459.735702 75.851112 
L 459.833213 75.851112 
L 460.187174 75.748915 
L 460.289158 75.544522 
L 461.071333 75.442325 
L 461.071333 75.340128 
L 461.178685 75.340128 
L 464.52835 75.237932 
L 464.52835 75.135735 
L 464.637192 75.135735 
L 465.974017 75.033538 
L 465.974017 74.931342 
L 466.048566 74.931342 
L 467.173073 74.829145 
L 467.255078 74.624752 
L 467.45666 74.522555 
L 467.45666 74.420358 
L 467.566695 74.420358 
L 468.268655 74.318162 
L 468.358413 74.113768 
L 468.374515 74.113768 
L 468.677485 74.011571 
L 468.677485 73.909375 
L 468.746965 73.909375 
L 468.889803 73.807178 
L 468.889803 73.704981 
L 468.991488 73.704981 
L 469.105102 73.602785 
L 469.21305 73.398391 
L 469.560153 73.296195 
L 469.560153 73.193998 
L 469.66989 73.193998 
L 470.733564 73.091801 
L 470.733564 72.989605 
L 470.840916 72.989605 
L 471.822884 72.887408 
L 471.822884 72.785211 
L 471.929341 72.785211 
L 473.360396 72.683015 
L 473.457907 72.478621 
L 473.459696 72.478621 
L 473.742985 72.376424 
L 473.742985 72.274228 
L 473.853915 72.274228 
L 476.012276 72.172031 
L 476.110682 71.967638 
L 476.112471 71.967638 
L 477.267096 71.865441 
L 477.29125 71.558851 
L 477.373255 71.558851 
L 478.320333 71.456654 
L 478.320333 71.354458 
L 478.428281 71.354458 
L 479.047938 71.252261 
L 479.047938 71.150064 
L 479.142765 71.150064 
L 479.68817 71.047868 
L 479.715306 70.843474 
L 479.756756 70.843474 
L 479.871264 70.741277 
L 479.871264 70.639081 
L 479.981896 70.639081 
L 480.410706 70.536884 
L 480.410706 70.434687 
L 480.520741 70.434687 
L 481.031853 70.332491 
L 481.129364 70.128097 
L 481.140398 70.128097 
L 482.026346 70.025901 
L 482.026346 69.923704 
L 482.122366 69.923704 
L 483.107614 69.821507 
L 483.107614 69.719311 
L 483.21258 69.719311 
L 484.270886 69.617114 
L 484.351698 69.412721 
L 486.746531 69.310524 
L 486.746531 69.208327 
L 486.818994 69.208327 
L 487.29641 69.10613 
L 487.29641 69.003934 
L 487.397201 69.003934 
L 488.376485 68.901737 
L 488.376485 68.79954 
L 488.451929 68.79954 
L 489.79919 68.697344 
L 489.79919 68.595147 
L 489.905647 68.595147 
L 490.920715 68.49295 
L 490.990792 68.288557 
L 491.016437 68.288557 
L 491.546038 68.18636 
L 491.546038 68.084164 
L 491.637585 68.084164 
L 492.646987 67.981967 
L 492.646987 67.87977 
L 492.752848 67.87977 
L 493.382047 67.777574 
L 493.382047 67.675377 
L 493.481049 67.675377 
L 494.611221 67.57318 
L 494.611221 67.470983 
L 494.70575 67.470983 
L 496.469297 67.368787 
L 496.469297 67.26659 
L 496.554582 67.26659 
L 497.821329 67.164393 
L 497.821329 67.062197 
L 497.908105 67.062197 
L 498.109091 66.96 
L 498.109091 66.96 
" style="fill:none;stroke:#ff0000;stroke-linecap:square;stroke-width:1.5;"/>
   </g>
   <g id="patch_3">
    <path d="M 72 384.48 
L 72 51.84 
" style="fill:none;stroke:#000000;stroke-linecap:square;stroke-linejoin:miter;stroke-width:0.8;"/>
   </g>
   <g id="patch_4">
    <path d="M 518.4 384.48 
L 518.4 51.84 
" style="fill:none;stroke:#000000;stroke-linecap:square;stroke-linejoin:miter;stroke-width:0.8;"/>
   </g>
   <g id="patch_5">
    <path d="M 72 384.48 
L 518.4 384.48 
" style="fill:none;stroke:#000000;stroke-linecap:square;stroke-linejoin:miter;stroke-width:0.8;"/>
   </g>
   <g id="patch_6">
    <path d="M 72 51.84 
L 518.4 51.84 
" style="fill:none;stroke:#000000;stroke-linecap:square;stroke-linejoin:miter;stroke-width:0.8;"/>
   </g>
   <g id="text_15">
    <!-- ROC Curves -->
    <g transform="translate(237.894 45.84)scale(0.192 -0.192)">
     <defs>
      <path d="M 39.40625 66.21875 
Q 28.65625 66.21875 22.328125 58.203125 
Q 16.015625 50.203125 16.015625 36.375 
Q 16.015625 22.609375 22.328125 14.59375 
Q 28.65625 6.59375 39.40625 6.59375 
Q 50.140625 6.59375 56.421875 14.59375 
Q 62.703125 22.609375 62.703125 36.375 
Q 62.703125 50.203125 56.421875 58.203125 
Q 50.140625 66.21875 39.40625 66.21875 
z
M 39.40625 74.21875 
Q 54.734375 74.21875 63.90625 63.9375 
Q 73.09375 53.65625 73.09375 36.375 
Q 73.09375 19.140625 63.90625 8.859375 
Q 54.734375 -1.421875 39.40625 -1.421875 
Q 24.03125 -1.421875 14.8125 8.828125 
Q 5.609375 19.09375 5.609375 36.375 
Q 5.609375 53.65625 14.8125 63.9375 
Q 24.03125 74.21875 39.40625 74.21875 
z
" id="DejaVuSans-79"/>
      <path d="M 64.40625 67.28125 
L 64.40625 56.890625 
Q 59.421875 61.53125 53.78125 63.8125 
Q 48.140625 66.109375 41.796875 66.109375 
Q 29.296875 66.109375 22.65625 58.46875 
Q 16.015625 50.828125 16.015625 36.375 
Q 16.015625 21.96875 22.65625 14.328125 
Q 29.296875 6.6875 41.796875 6.6875 
Q 48.140625 6.6875 53.78125 8.984375 
Q 59.421875 11.28125 64.40625 15.921875 
L 64.40625 5.609375 
Q 59.234375 2.09375 53.4375 0.328125 
Q 47.65625 -1.421875 41.21875 -1.421875 
Q 24.65625 -1.421875 15.125 8.703125 
Q 5.609375 18.84375 5.609375 36.375 
Q 5.609375 53.953125 15.125 64.078125 
Q 24.65625 74.21875 41.21875 74.21875 
Q 47.75 74.21875 53.53125 72.484375 
Q 59.328125 70.75 64.40625 67.28125 
z
" id="DejaVuSans-67"/>
     </defs>
     <use xlink:href="#DejaVuSans-82"/>
     <use x="69.482422" xlink:href="#DejaVuSans-79"/>
     <use x="148.193359" xlink:href="#DejaVuSans-67"/>
     <use x="218.017578" xlink:href="#DejaVuSans-32"/>
     <use x="249.804688" xlink:href="#DejaVuSans-67"/>
     <use x="319.628906" xlink:href="#DejaVuSans-117"/>
     <use x="383.007812" xlink:href="#DejaVuSans-114"/>
     <use x="424.121094" xlink:href="#DejaVuSans-118"/>
     <use x="483.300781" xlink:href="#DejaVuSans-101"/>
     <use x="544.824219" xlink:href="#DejaVuSans-115"/>
    </g>
   </g>
   <g id="legend_1">
    <g id="patch_7">
     <path d="M 83.2 111.61 
L 201.4175 111.61 
Q 204.6175 111.61 204.6175 108.41 
L 204.6175 63.04 
Q 204.6175 59.84 201.4175 59.84 
L 83.2 59.84 
Q 80 59.84 80 63.04 
L 80 108.41 
Q 80 111.61 83.2 111.61 
z
" style="fill:#ffffff;opacity:0.8;stroke:#cccccc;stroke-linejoin:miter;"/>
    </g>
    <g id="line2d_15">
     <path d="M 86.4 72.7975 
L 118.4 72.7975 
" style="fill:none;stroke:#0000ff;stroke-linecap:square;stroke-width:1.5;"/>
    </g>
    <g id="line2d_16"/>
    <g id="text_16">
     <!-- baseline -->
     <g transform="translate(131.2 78.3975)scale(0.16 -0.16)">
      <defs>
       <path d="M 48.6875 27.296875 
Q 48.6875 37.203125 44.609375 42.84375 
Q 40.53125 48.484375 33.40625 48.484375 
Q 26.265625 48.484375 22.1875 42.84375 
Q 18.109375 37.203125 18.109375 27.296875 
Q 18.109375 17.390625 22.1875 11.75 
Q 26.265625 6.109375 33.40625 6.109375 
Q 40.53125 6.109375 44.609375 11.75 
Q 48.6875 17.390625 48.6875 27.296875 
z
M 18.109375 46.390625 
Q 20.953125 51.265625 25.265625 53.625 
Q 29.59375 56 35.59375 56 
Q 45.5625 56 51.78125 48.09375 
Q 58.015625 40.1875 58.015625 27.296875 
Q 58.015625 14.40625 51.78125 6.484375 
Q 45.5625 -1.421875 35.59375 -1.421875 
Q 29.59375 -1.421875 25.265625 0.953125 
Q 20.953125 3.328125 18.109375 8.203125 
L 18.109375 0 
L 9.078125 0 
L 9.078125 75.984375 
L 18.109375 75.984375 
z
" id="DejaVuSans-98"/>
       <path d="M 54.890625 33.015625 
L 54.890625 0 
L 45.90625 0 
L 45.90625 32.71875 
Q 45.90625 40.484375 42.875 44.328125 
Q 39.84375 48.1875 33.796875 48.1875 
Q 26.515625 48.1875 22.3125 43.546875 
Q 18.109375 38.921875 18.109375 30.90625 
L 18.109375 0 
L 9.078125 0 
L 9.078125 54.6875 
L 18.109375 54.6875 
L 18.109375 46.1875 
Q 21.34375 51.125 25.703125 53.5625 
Q 30.078125 56 35.796875 56 
Q 45.21875 56 50.046875 50.171875 
Q 54.890625 44.34375 54.890625 33.015625 
z
" id="DejaVuSans-110"/>
      </defs>
      <use xlink:href="#DejaVuSans-98"/>
      <use x="63.476562" xlink:href="#DejaVuSans-97"/>
      <use x="124.755859" xlink:href="#DejaVuSans-115"/>
      <use x="176.855469" xlink:href="#DejaVuSans-101"/>
      <use x="238.378906" xlink:href="#DejaVuSans-108"/>
      <use x="266.162109" xlink:href="#DejaVuSans-105"/>
      <use x="293.945312" xlink:href="#DejaVuSans-110"/>
      <use x="357.324219" xlink:href="#DejaVuSans-101"/>
     </g>
    </g>
    <g id="line2d_17">
     <path d="M 86.4 96.2825 
L 118.4 96.2825 
" style="fill:none;stroke:#ff0000;stroke-linecap:square;stroke-width:1.5;"/>
    </g>
    <g id="line2d_18"/>
    <g id="text_17">
     <!-- model -->
     <g transform="translate(131.2 101.8825)scale(0.16 -0.16)">
      <defs>
       <path d="M 52 44.1875 
Q 55.375 50.25 60.0625 53.125 
Q 64.75 56 71.09375 56 
Q 79.640625 56 84.28125 50.015625 
Q 88.921875 44.046875 88.921875 33.015625 
L 88.921875 0 
L 79.890625 0 
L 79.890625 32.71875 
Q 79.890625 40.578125 77.09375 44.375 
Q 74.3125 48.1875 68.609375 48.1875 
Q 61.625 48.1875 57.5625 43.546875 
Q 53.515625 38.921875 53.515625 30.90625 
L 53.515625 0 
L 44.484375 0 
L 44.484375 32.71875 
Q 44.484375 40.625 41.703125 44.40625 
Q 38.921875 48.1875 33.109375 48.1875 
Q 26.21875 48.1875 22.15625 43.53125 
Q 18.109375 38.875 18.109375 30.90625 
L 18.109375 0 
L 9.078125 0 
L 9.078125 54.6875 
L 18.109375 54.6875 
L 18.109375 46.1875 
Q 21.1875 51.21875 25.484375 53.609375 
Q 29.78125 56 35.6875 56 
Q 41.65625 56 45.828125 52.96875 
Q 50 49.953125 52 44.1875 
z
" id="DejaVuSans-109"/>
       <path d="M 45.40625 46.390625 
L 45.40625 75.984375 
L 54.390625 75.984375 
L 54.390625 0 
L 45.40625 0 
L 45.40625 8.203125 
Q 42.578125 3.328125 38.25 0.953125 
Q 33.9375 -1.421875 27.875 -1.421875 
Q 17.96875 -1.421875 11.734375 6.484375 
Q 5.515625 14.40625 5.515625 27.296875 
Q 5.515625 40.1875 11.734375 48.09375 
Q 17.96875 56 27.875 56 
Q 33.9375 56 38.25 53.625 
Q 42.578125 51.265625 45.40625 46.390625 
z
M 14.796875 27.296875 
Q 14.796875 17.390625 18.875 11.75 
Q 22.953125 6.109375 30.078125 6.109375 
Q 37.203125 6.109375 41.296875 11.75 
Q 45.40625 17.390625 45.40625 27.296875 
Q 45.40625 37.203125 41.296875 42.84375 
Q 37.203125 48.484375 30.078125 48.484375 
Q 22.953125 48.484375 18.875 42.84375 
Q 14.796875 37.203125 14.796875 27.296875 
z
" id="DejaVuSans-100"/>
      </defs>
      <use xlink:href="#DejaVuSans-109"/>
      <use x="97.412109" xlink:href="#DejaVuSans-111"/>
      <use x="158.59375" xlink:href="#DejaVuSans-100"/>
      <use x="222.070312" xlink:href="#DejaVuSans-101"/>
      <use x="283.59375" xlink:href="#DejaVuSans-108"/>
     </g>
    </g>
   </g>
  </g>
 </g>
 <defs>
  <clipPath id="pec9be5d1cb">
   <rect height="332.64" width="446.4" x="72" y="51.84"/>
  </clipPath>
 </defs>
</svg>
