<?xml version="1.0" encoding="utf-8" standalone="no"?>
<!DOCTYPE svg PUBLIC "-//W3C//DTD SVG 1.1//EN"
  "http://www.w3.org/Graphics/SVG/1.1/DTD/svg11.dtd">
<!-- Created with matplotlib (https://matplotlib.org/) -->
<svg height="432pt" version="1.1" viewBox="0 0 576 432" width="576pt" xmlns="http://www.w3.org/2000/svg" xmlns:xlink="http://www.w3.org/1999/xlink">
 <metadata>
  <rdf:RDF xmlns:cc="http://creativecommons.org/ns#" xmlns:dc="http://purl.org/dc/elements/1.1/" xmlns:rdf="http://www.w3.org/1999/02/22-rdf-syntax-ns#">
   <cc:Work>
    <dc:type rdf:resource="http://purl.org/dc/dcmitype/StillImage"/>
    <dc:date>2020-09-08T17:04:33.307715</dc:date>
    <dc:format>image/svg+xml</dc:format>
    <dc:creator>
     <cc:Agent>
      <dc:title>Matplotlib v3.3.0, https://matplotlib.org/</dc:title>
     </cc:Agent>
    </dc:creator>
   </cc:Work>
  </rdf:RDF>
 </metadata>
 <defs>
  <style type="text/css">*{stroke-linecap:butt;stroke-linejoin:round;}</style>
 </defs>
 <g id="figure_1">
  <g id="patch_1">
   <path d="M 0 432 
L 576 432 
L 576 0 
L 0 0 
z
" style="fill:#ffffff;"/>
  </g>
  <g id="axes_1">
   <g id="patch_2">
    <path d="M 72 384.48 
L 518.4 384.48 
L 518.4 51.84 
L 72 51.84 
z
" style="fill:#ffffff;"/>
   </g>
   <g id="matplotlib.axis_1">
    <g id="xtick_1">
     <g id="line2d_1">
      <defs>
       <path d="M 0 0 
L 0 3.5 
" id="m407f347bea" style="stroke:#000000;stroke-width:0.8;"/>
      </defs>
      <g>
       <use style="stroke:#000000;stroke-width:0.8;" x="92.290909" xlink:href="#m407f347bea" y="384.48"/>
      </g>
     </g>
     <g id="text_1">
      <!-- 0.0 -->
      <g transform="translate(79.568409 403.6375)scale(0.16 -0.16)">
       <defs>
        <path d="M 31.78125 66.40625 
Q 24.171875 66.40625 20.328125 58.90625 
Q 16.5 51.421875 16.5 36.375 
Q 16.5 21.390625 20.328125 13.890625 
Q 24.171875 6.390625 31.78125 6.390625 
Q 39.453125 6.390625 43.28125 13.890625 
Q 47.125 21.390625 47.125 36.375 
Q 47.125 51.421875 43.28125 58.90625 
Q 39.453125 66.40625 31.78125 66.40625 
z
M 31.78125 74.21875 
Q 44.046875 74.21875 50.515625 64.515625 
Q 56.984375 54.828125 56.984375 36.375 
Q 56.984375 17.96875 50.515625 8.265625 
Q 44.046875 -1.421875 31.78125 -1.421875 
Q 19.53125 -1.421875 13.0625 8.265625 
Q 6.59375 17.96875 6.59375 36.375 
Q 6.59375 54.828125 13.0625 64.515625 
Q 19.53125 74.21875 31.78125 74.21875 
z
" id="DejaVuSans-48"/>
        <path d="M 10.6875 12.40625 
L 21 12.40625 
L 21 0 
L 10.6875 0 
z
" id="DejaVuSans-46"/>
       </defs>
       <use xlink:href="#DejaVuSans-48"/>
       <use x="63.623047" xlink:href="#DejaVuSans-46"/>
       <use x="95.410156" xlink:href="#DejaVuSans-48"/>
      </g>
     </g>
    </g>
    <g id="xtick_2">
     <g id="line2d_2">
      <g>
       <use style="stroke:#000000;stroke-width:0.8;" x="173.454545" xlink:href="#m407f347bea" y="384.48"/>
      </g>
     </g>
     <g id="text_2">
      <!-- 0.2 -->
      <g transform="translate(160.732045 403.6375)scale(0.16 -0.16)">
       <defs>
        <path d="M 19.1875 8.296875 
L 53.609375 8.296875 
L 53.609375 0 
L 7.328125 0 
L 7.328125 8.296875 
Q 12.9375 14.109375 22.625 23.890625 
Q 32.328125 33.6875 34.8125 36.53125 
Q 39.546875 41.84375 41.421875 45.53125 
Q 43.3125 49.21875 43.3125 52.78125 
Q 43.3125 58.59375 39.234375 62.25 
Q 35.15625 65.921875 28.609375 65.921875 
Q 23.96875 65.921875 18.8125 64.3125 
Q 13.671875 62.703125 7.8125 59.421875 
L 7.8125 69.390625 
Q 13.765625 71.78125 18.9375 73 
Q 24.125 74.21875 28.421875 74.21875 
Q 39.75 74.21875 46.484375 68.546875 
Q 53.21875 62.890625 53.21875 53.421875 
Q 53.21875 48.921875 51.53125 44.890625 
Q 49.859375 40.875 45.40625 35.40625 
Q 44.1875 33.984375 37.640625 27.21875 
Q 31.109375 20.453125 19.1875 8.296875 
z
" id="DejaVuSans-50"/>
       </defs>
       <use xlink:href="#DejaVuSans-48"/>
       <use x="63.623047" xlink:href="#DejaVuSans-46"/>
       <use x="95.410156" xlink:href="#DejaVuSans-50"/>
      </g>
     </g>
    </g>
    <g id="xtick_3">
     <g id="line2d_3">
      <g>
       <use style="stroke:#000000;stroke-width:0.8;" x="254.618182" xlink:href="#m407f347bea" y="384.48"/>
      </g>
     </g>
     <g id="text_3">
      <!-- 0.4 -->
      <g transform="translate(241.895682 403.6375)scale(0.16 -0.16)">
       <defs>
        <path d="M 37.796875 64.3125 
L 12.890625 25.390625 
L 37.796875 25.390625 
z
M 35.203125 72.90625 
L 47.609375 72.90625 
L 47.609375 25.390625 
L 58.015625 25.390625 
L 58.015625 17.1875 
L 47.609375 17.1875 
L 47.609375 0 
L 37.796875 0 
L 37.796875 17.1875 
L 4.890625 17.1875 
L 4.890625 26.703125 
z
" id="DejaVuSans-52"/>
       </defs>
       <use xlink:href="#DejaVuSans-48"/>
       <use x="63.623047" xlink:href="#DejaVuSans-46"/>
       <use x="95.410156" xlink:href="#DejaVuSans-52"/>
      </g>
     </g>
    </g>
    <g id="xtick_4">
     <g id="line2d_4">
      <g>
       <use style="stroke:#000000;stroke-width:0.8;" x="335.781818" xlink:href="#m407f347bea" y="384.48"/>
      </g>
     </g>
     <g id="text_4">
      <!-- 0.6 -->
      <g transform="translate(323.059318 403.6375)scale(0.16 -0.16)">
       <defs>
        <path d="M 33.015625 40.375 
Q 26.375 40.375 22.484375 35.828125 
Q 18.609375 31.296875 18.609375 23.390625 
Q 18.609375 15.53125 22.484375 10.953125 
Q 26.375 6.390625 33.015625 6.390625 
Q 39.65625 6.390625 43.53125 10.953125 
Q 47.40625 15.53125 47.40625 23.390625 
Q 47.40625 31.296875 43.53125 35.828125 
Q 39.65625 40.375 33.015625 40.375 
z
M 52.59375 71.296875 
L 52.59375 62.3125 
Q 48.875 64.0625 45.09375 64.984375 
Q 41.3125 65.921875 37.59375 65.921875 
Q 27.828125 65.921875 22.671875 59.328125 
Q 17.53125 52.734375 16.796875 39.40625 
Q 19.671875 43.65625 24.015625 45.921875 
Q 28.375 48.1875 33.59375 48.1875 
Q 44.578125 48.1875 50.953125 41.515625 
Q 57.328125 34.859375 57.328125 23.390625 
Q 57.328125 12.15625 50.6875 5.359375 
Q 44.046875 -1.421875 33.015625 -1.421875 
Q 20.359375 -1.421875 13.671875 8.265625 
Q 6.984375 17.96875 6.984375 36.375 
Q 6.984375 53.65625 15.1875 63.9375 
Q 23.390625 74.21875 37.203125 74.21875 
Q 40.921875 74.21875 44.703125 73.484375 
Q 48.484375 72.75 52.59375 71.296875 
z
" id="DejaVuSans-54"/>
       </defs>
       <use xlink:href="#DejaVuSans-48"/>
       <use x="63.623047" xlink:href="#DejaVuSans-46"/>
       <use x="95.410156" xlink:href="#DejaVuSans-54"/>
      </g>
     </g>
    </g>
    <g id="xtick_5">
     <g id="line2d_5">
      <g>
       <use style="stroke:#000000;stroke-width:0.8;" x="416.945455" xlink:href="#m407f347bea" y="384.48"/>
      </g>
     </g>
     <g id="text_5">
      <!-- 0.8 -->
      <g transform="translate(404.222955 403.6375)scale(0.16 -0.16)">
       <defs>
        <path d="M 31.78125 34.625 
Q 24.75 34.625 20.71875 30.859375 
Q 16.703125 27.09375 16.703125 20.515625 
Q 16.703125 13.921875 20.71875 10.15625 
Q 24.75 6.390625 31.78125 6.390625 
Q 38.8125 6.390625 42.859375 10.171875 
Q 46.921875 13.96875 46.921875 20.515625 
Q 46.921875 27.09375 42.890625 30.859375 
Q 38.875 34.625 31.78125 34.625 
z
M 21.921875 38.8125 
Q 15.578125 40.375 12.03125 44.71875 
Q 8.5 49.078125 8.5 55.328125 
Q 8.5 64.0625 14.71875 69.140625 
Q 20.953125 74.21875 31.78125 74.21875 
Q 42.671875 74.21875 48.875 69.140625 
Q 55.078125 64.0625 55.078125 55.328125 
Q 55.078125 49.078125 51.53125 44.71875 
Q 48 40.375 41.703125 38.8125 
Q 48.828125 37.15625 52.796875 32.3125 
Q 56.78125 27.484375 56.78125 20.515625 
Q 56.78125 9.90625 50.3125 4.234375 
Q 43.84375 -1.421875 31.78125 -1.421875 
Q 19.734375 -1.421875 13.25 4.234375 
Q 6.78125 9.90625 6.78125 20.515625 
Q 6.78125 27.484375 10.78125 32.3125 
Q 14.796875 37.15625 21.921875 38.8125 
z
M 18.3125 54.390625 
Q 18.3125 48.734375 21.84375 45.5625 
Q 25.390625 42.390625 31.78125 42.390625 
Q 38.140625 42.390625 41.71875 45.5625 
Q 45.3125 48.734375 45.3125 54.390625 
Q 45.3125 60.0625 41.71875 63.234375 
Q 38.140625 66.40625 31.78125 66.40625 
Q 25.390625 66.40625 21.84375 63.234375 
Q 18.3125 60.0625 18.3125 54.390625 
z
" id="DejaVuSans-56"/>
       </defs>
       <use xlink:href="#DejaVuSans-48"/>
       <use x="63.623047" xlink:href="#DejaVuSans-46"/>
       <use x="95.410156" xlink:href="#DejaVuSans-56"/>
      </g>
     </g>
    </g>
    <g id="xtick_6">
     <g id="line2d_6">
      <g>
       <use style="stroke:#000000;stroke-width:0.8;" x="498.109091" xlink:href="#m407f347bea" y="384.48"/>
      </g>
     </g>
     <g id="text_6">
      <!-- 1.0 -->
      <g transform="translate(485.386591 403.6375)scale(0.16 -0.16)">
       <defs>
        <path d="M 12.40625 8.296875 
L 28.515625 8.296875 
L 28.515625 63.921875 
L 10.984375 60.40625 
L 10.984375 69.390625 
L 28.421875 72.90625 
L 38.28125 72.90625 
L 38.28125 8.296875 
L 54.390625 8.296875 
L 54.390625 0 
L 12.40625 0 
z
" id="DejaVuSans-49"/>
       </defs>
       <use xlink:href="#DejaVuSans-49"/>
       <use x="63.623047" xlink:href="#DejaVuSans-46"/>
       <use x="95.410156" xlink:href="#DejaVuSans-48"/>
      </g>
     </g>
    </g>
    <g id="text_7">
     <!-- False Positive Rate -->
     <g transform="translate(220.85375 423.1225)scale(0.16 -0.16)">
      <defs>
       <path d="M 9.8125 72.90625 
L 51.703125 72.90625 
L 51.703125 64.59375 
L 19.671875 64.59375 
L 19.671875 43.109375 
L 48.578125 43.109375 
L 48.578125 34.8125 
L 19.671875 34.8125 
L 19.671875 0 
L 9.8125 0 
z
" id="DejaVuSans-70"/>
       <path d="M 34.28125 27.484375 
Q 23.390625 27.484375 19.1875 25 
Q 14.984375 22.515625 14.984375 16.5 
Q 14.984375 11.71875 18.140625 8.90625 
Q 21.296875 6.109375 26.703125 6.109375 
Q 34.1875 6.109375 38.703125 11.40625 
Q 43.21875 16.703125 43.21875 25.484375 
L 43.21875 27.484375 
z
M 52.203125 31.203125 
L 52.203125 0 
L 43.21875 0 
L 43.21875 8.296875 
Q 40.140625 3.328125 35.546875 0.953125 
Q 30.953125 -1.421875 24.3125 -1.421875 
Q 15.921875 -1.421875 10.953125 3.296875 
Q 6 8.015625 6 15.921875 
Q 6 25.140625 12.171875 29.828125 
Q 18.359375 34.515625 30.609375 34.515625 
L 43.21875 34.515625 
L 43.21875 35.40625 
Q 43.21875 41.609375 39.140625 45 
Q 35.0625 48.390625 27.6875 48.390625 
Q 23 48.390625 18.546875 47.265625 
Q 14.109375 46.140625 10.015625 43.890625 
L 10.015625 52.203125 
Q 14.9375 54.109375 19.578125 55.046875 
Q 24.21875 56 28.609375 56 
Q 40.484375 56 46.34375 49.84375 
Q 52.203125 43.703125 52.203125 31.203125 
z
" id="DejaVuSans-97"/>
       <path d="M 9.421875 75.984375 
L 18.40625 75.984375 
L 18.40625 0 
L 9.421875 0 
z
" id="DejaVuSans-108"/>
       <path d="M 44.28125 53.078125 
L 44.28125 44.578125 
Q 40.484375 46.53125 36.375 47.5 
Q 32.28125 48.484375 27.875 48.484375 
Q 21.1875 48.484375 17.84375 46.4375 
Q 14.5 44.390625 14.5 40.28125 
Q 14.5 37.15625 16.890625 35.375 
Q 19.28125 33.59375 26.515625 31.984375 
L 29.59375 31.296875 
Q 39.15625 29.25 43.1875 25.515625 
Q 47.21875 21.78125 47.21875 15.09375 
Q 47.21875 7.46875 41.1875 3.015625 
Q 35.15625 -1.421875 24.609375 -1.421875 
Q 20.21875 -1.421875 15.453125 -0.5625 
Q 10.6875 0.296875 5.421875 2 
L 5.421875 11.28125 
Q 10.40625 8.6875 15.234375 7.390625 
Q 20.0625 6.109375 24.8125 6.109375 
Q 31.15625 6.109375 34.5625 8.28125 
Q 37.984375 10.453125 37.984375 14.40625 
Q 37.984375 18.0625 35.515625 20.015625 
Q 33.0625 21.96875 24.703125 23.78125 
L 21.578125 24.515625 
Q 13.234375 26.265625 9.515625 29.90625 
Q 5.8125 33.546875 5.8125 39.890625 
Q 5.8125 47.609375 11.28125 51.796875 
Q 16.75 56 26.8125 56 
Q 31.78125 56 36.171875 55.265625 
Q 40.578125 54.546875 44.28125 53.078125 
z
" id="DejaVuSans-115"/>
       <path d="M 56.203125 29.59375 
L 56.203125 25.203125 
L 14.890625 25.203125 
Q 15.484375 15.921875 20.484375 11.0625 
Q 25.484375 6.203125 34.421875 6.203125 
Q 39.59375 6.203125 44.453125 7.46875 
Q 49.3125 8.734375 54.109375 11.28125 
L 54.109375 2.78125 
Q 49.265625 0.734375 44.1875 -0.34375 
Q 39.109375 -1.421875 33.890625 -1.421875 
Q 20.796875 -1.421875 13.15625 6.1875 
Q 5.515625 13.8125 5.515625 26.8125 
Q 5.515625 40.234375 12.765625 48.109375 
Q 20.015625 56 32.328125 56 
Q 43.359375 56 49.78125 48.890625 
Q 56.203125 41.796875 56.203125 29.59375 
z
M 47.21875 32.234375 
Q 47.125 39.59375 43.09375 43.984375 
Q 39.0625 48.390625 32.421875 48.390625 
Q 24.90625 48.390625 20.390625 44.140625 
Q 15.875 39.890625 15.1875 32.171875 
z
" id="DejaVuSans-101"/>
       <path id="DejaVuSans-32"/>
       <path d="M 19.671875 64.796875 
L 19.671875 37.40625 
L 32.078125 37.40625 
Q 38.96875 37.40625 42.71875 40.96875 
Q 46.484375 44.53125 46.484375 51.125 
Q 46.484375 57.671875 42.71875 61.234375 
Q 38.96875 64.796875 32.078125 64.796875 
z
M 9.8125 72.90625 
L 32.078125 72.90625 
Q 44.34375 72.90625 50.609375 67.359375 
Q 56.890625 61.8125 56.890625 51.125 
Q 56.890625 40.328125 50.609375 34.8125 
Q 44.34375 29.296875 32.078125 29.296875 
L 19.671875 29.296875 
L 19.671875 0 
L 9.8125 0 
z
" id="DejaVuSans-80"/>
       <path d="M 30.609375 48.390625 
Q 23.390625 48.390625 19.1875 42.75 
Q 14.984375 37.109375 14.984375 27.296875 
Q 14.984375 17.484375 19.15625 11.84375 
Q 23.34375 6.203125 30.609375 6.203125 
Q 37.796875 6.203125 41.984375 11.859375 
Q 46.1875 17.53125 46.1875 27.296875 
Q 46.1875 37.015625 41.984375 42.703125 
Q 37.796875 48.390625 30.609375 48.390625 
z
M 30.609375 56 
Q 42.328125 56 49.015625 48.375 
Q 55.71875 40.765625 55.71875 27.296875 
Q 55.71875 13.875 49.015625 6.21875 
Q 42.328125 -1.421875 30.609375 -1.421875 
Q 18.84375 -1.421875 12.171875 6.21875 
Q 5.515625 13.875 5.515625 27.296875 
Q 5.515625 40.765625 12.171875 48.375 
Q 18.84375 56 30.609375 56 
z
" id="DejaVuSans-111"/>
       <path d="M 9.421875 54.6875 
L 18.40625 54.6875 
L 18.40625 0 
L 9.421875 0 
z
M 9.421875 75.984375 
L 18.40625 75.984375 
L 18.40625 64.59375 
L 9.421875 64.59375 
z
" id="DejaVuSans-105"/>
       <path d="M 18.3125 70.21875 
L 18.3125 54.6875 
L 36.8125 54.6875 
L 36.8125 47.703125 
L 18.3125 47.703125 
L 18.3125 18.015625 
Q 18.3125 11.328125 20.140625 9.421875 
Q 21.96875 7.515625 27.59375 7.515625 
L 36.8125 7.515625 
L 36.8125 0 
L 27.59375 0 
Q 17.1875 0 13.234375 3.875 
Q 9.28125 7.765625 9.28125 18.015625 
L 9.28125 47.703125 
L 2.6875 47.703125 
L 2.6875 54.6875 
L 9.28125 54.6875 
L 9.28125 70.21875 
z
" id="DejaVuSans-116"/>
       <path d="M 2.984375 54.6875 
L 12.5 54.6875 
L 29.59375 8.796875 
L 46.6875 54.6875 
L 56.203125 54.6875 
L 35.6875 0 
L 23.484375 0 
z
" id="DejaVuSans-118"/>
       <path d="M 44.390625 34.1875 
Q 47.5625 33.109375 50.5625 29.59375 
Q 53.5625 26.078125 56.59375 19.921875 
L 66.609375 0 
L 56 0 
L 46.6875 18.703125 
Q 43.0625 26.03125 39.671875 28.421875 
Q 36.28125 30.8125 30.421875 30.8125 
L 19.671875 30.8125 
L 19.671875 0 
L 9.8125 0 
L 9.8125 72.90625 
L 32.078125 72.90625 
Q 44.578125 72.90625 50.734375 67.671875 
Q 56.890625 62.453125 56.890625 51.90625 
Q 56.890625 45.015625 53.6875 40.46875 
Q 50.484375 35.9375 44.390625 34.1875 
z
M 19.671875 64.796875 
L 19.671875 38.921875 
L 32.078125 38.921875 
Q 39.203125 38.921875 42.84375 42.21875 
Q 46.484375 45.515625 46.484375 51.90625 
Q 46.484375 58.296875 42.84375 61.546875 
Q 39.203125 64.796875 32.078125 64.796875 
z
" id="DejaVuSans-82"/>
      </defs>
      <use xlink:href="#DejaVuSans-70"/>
      <use x="48.394531" xlink:href="#DejaVuSans-97"/>
      <use x="109.673828" xlink:href="#DejaVuSans-108"/>
      <use x="137.457031" xlink:href="#DejaVuSans-115"/>
      <use x="189.556641" xlink:href="#DejaVuSans-101"/>
      <use x="251.080078" xlink:href="#DejaVuSans-32"/>
      <use x="282.867188" xlink:href="#DejaVuSans-80"/>
      <use x="339.544922" xlink:href="#DejaVuSans-111"/>
      <use x="400.726562" xlink:href="#DejaVuSans-115"/>
      <use x="452.826172" xlink:href="#DejaVuSans-105"/>
      <use x="480.609375" xlink:href="#DejaVuSans-116"/>
      <use x="519.818359" xlink:href="#DejaVuSans-105"/>
      <use x="547.601562" xlink:href="#DejaVuSans-118"/>
      <use x="606.78125" xlink:href="#DejaVuSans-101"/>
      <use x="668.304688" xlink:href="#DejaVuSans-32"/>
      <use x="700.091797" xlink:href="#DejaVuSans-82"/>
      <use x="767.324219" xlink:href="#DejaVuSans-97"/>
      <use x="828.603516" xlink:href="#DejaVuSans-116"/>
      <use x="867.8125" xlink:href="#DejaVuSans-101"/>
     </g>
    </g>
   </g>
   <g id="matplotlib.axis_2">
    <g id="ytick_1">
     <g id="line2d_7">
      <defs>
       <path d="M 0 0 
L -3.5 0 
" id="m812770dc9c" style="stroke:#000000;stroke-width:0.8;"/>
      </defs>
      <g>
       <use style="stroke:#000000;stroke-width:0.8;" x="72" xlink:href="#m812770dc9c" y="369.36"/>
      </g>
     </g>
     <g id="text_8">
      <!-- 0.0 -->
      <g transform="translate(39.555 375.43875)scale(0.16 -0.16)">
       <use xlink:href="#DejaVuSans-48"/>
       <use x="63.623047" xlink:href="#DejaVuSans-46"/>
       <use x="95.410156" xlink:href="#DejaVuSans-48"/>
      </g>
     </g>
    </g>
    <g id="ytick_2">
     <g id="line2d_8">
      <g>
       <use style="stroke:#000000;stroke-width:0.8;" x="72" xlink:href="#m812770dc9c" y="308.88"/>
      </g>
     </g>
     <g id="text_9">
      <!-- 0.2 -->
      <g transform="translate(39.555 314.95875)scale(0.16 -0.16)">
       <use xlink:href="#DejaVuSans-48"/>
       <use x="63.623047" xlink:href="#DejaVuSans-46"/>
       <use x="95.410156" xlink:href="#DejaVuSans-50"/>
      </g>
     </g>
    </g>
    <g id="ytick_3">
     <g id="line2d_9">
      <g>
       <use style="stroke:#000000;stroke-width:0.8;" x="72" xlink:href="#m812770dc9c" y="248.4"/>
      </g>
     </g>
     <g id="text_10">
      <!-- 0.4 -->
      <g transform="translate(39.555 254.47875)scale(0.16 -0.16)">
       <use xlink:href="#DejaVuSans-48"/>
       <use x="63.623047" xlink:href="#DejaVuSans-46"/>
       <use x="95.410156" xlink:href="#DejaVuSans-52"/>
      </g>
     </g>
    </g>
    <g id="ytick_4">
     <g id="line2d_10">
      <g>
       <use style="stroke:#000000;stroke-width:0.8;" x="72" xlink:href="#m812770dc9c" y="187.92"/>
      </g>
     </g>
     <g id="text_11">
      <!-- 0.6 -->
      <g transform="translate(39.555 193.99875)scale(0.16 -0.16)">
       <use xlink:href="#DejaVuSans-48"/>
       <use x="63.623047" xlink:href="#DejaVuSans-46"/>
       <use x="95.410156" xlink:href="#DejaVuSans-54"/>
      </g>
     </g>
    </g>
    <g id="ytick_5">
     <g id="line2d_11">
      <g>
       <use style="stroke:#000000;stroke-width:0.8;" x="72" xlink:href="#m812770dc9c" y="127.44"/>
      </g>
     </g>
     <g id="text_12">
      <!-- 0.8 -->
      <g transform="translate(39.555 133.51875)scale(0.16 -0.16)">
       <use xlink:href="#DejaVuSans-48"/>
       <use x="63.623047" xlink:href="#DejaVuSans-46"/>
       <use x="95.410156" xlink:href="#DejaVuSans-56"/>
      </g>
     </g>
    </g>
    <g id="ytick_6">
     <g id="line2d_12">
      <g>
       <use style="stroke:#000000;stroke-width:0.8;" x="72" xlink:href="#m812770dc9c" y="66.96"/>
      </g>
     </g>
     <g id="text_13">
      <!-- 1.0 -->
      <g transform="translate(39.555 73.03875)scale(0.16 -0.16)">
       <use xlink:href="#DejaVuSans-49"/>
       <use x="63.623047" xlink:href="#DejaVuSans-46"/>
       <use x="95.410156" xlink:href="#DejaVuSans-48"/>
      </g>
     </g>
    </g>
    <g id="text_14">
     <!-- True Positive Rate -->
     <g transform="translate(32.2275 289.4075)rotate(-90)scale(0.16 -0.16)">
      <defs>
       <path d="M -0.296875 72.90625 
L 61.375 72.90625 
L 61.375 64.59375 
L 35.5 64.59375 
L 35.5 0 
L 25.59375 0 
L 25.59375 64.59375 
L -0.296875 64.59375 
z
" id="DejaVuSans-84"/>
       <path d="M 41.109375 46.296875 
Q 39.59375 47.171875 37.8125 47.578125 
Q 36.03125 48 33.890625 48 
Q 26.265625 48 22.1875 43.046875 
Q 18.109375 38.09375 18.109375 28.8125 
L 18.109375 0 
L 9.078125 0 
L 9.078125 54.6875 
L 18.109375 54.6875 
L 18.109375 46.1875 
Q 20.953125 51.171875 25.484375 53.578125 
Q 30.03125 56 36.53125 56 
Q 37.453125 56 38.578125 55.875 
Q 39.703125 55.765625 41.0625 55.515625 
z
" id="DejaVuSans-114"/>
       <path d="M 8.5 21.578125 
L 8.5 54.6875 
L 17.484375 54.6875 
L 17.484375 21.921875 
Q 17.484375 14.15625 20.5 10.265625 
Q 23.53125 6.390625 29.59375 6.390625 
Q 36.859375 6.390625 41.078125 11.03125 
Q 45.3125 15.671875 45.3125 23.6875 
L 45.3125 54.6875 
L 54.296875 54.6875 
L 54.296875 0 
L 45.3125 0 
L 45.3125 8.40625 
Q 42.046875 3.421875 37.71875 1 
Q 33.40625 -1.421875 27.6875 -1.421875 
Q 18.265625 -1.421875 13.375 4.4375 
Q 8.5 10.296875 8.5 21.578125 
z
M 31.109375 56 
z
" id="DejaVuSans-117"/>
      </defs>
      <use xlink:href="#DejaVuSans-84"/>
      <use x="46.333984" xlink:href="#DejaVuSans-114"/>
      <use x="87.447266" xlink:href="#DejaVuSans-117"/>
      <use x="150.826172" xlink:href="#DejaVuSans-101"/>
      <use x="212.349609" xlink:href="#DejaVuSans-32"/>
      <use x="244.136719" xlink:href="#DejaVuSans-80"/>
      <use x="300.814453" xlink:href="#DejaVuSans-111"/>
      <use x="361.996094" xlink:href="#DejaVuSans-115"/>
      <use x="414.095703" xlink:href="#DejaVuSans-105"/>
      <use x="441.878906" xlink:href="#DejaVuSans-116"/>
      <use x="481.087891" xlink:href="#DejaVuSans-105"/>
      <use x="508.871094" xlink:href="#DejaVuSans-118"/>
      <use x="568.050781" xlink:href="#DejaVuSans-101"/>
      <use x="629.574219" xlink:href="#DejaVuSans-32"/>
      <use x="661.361328" xlink:href="#DejaVuSans-82"/>
      <use x="728.59375" xlink:href="#DejaVuSans-97"/>
      <use x="789.873047" xlink:href="#DejaVuSans-116"/>
      <use x="829.082031" xlink:href="#DejaVuSans-101"/>
     </g>
    </g>
   </g>
   <g id="line2d_13">
    <path clip-path="url(#p087ca7ff90)" d="M 92.290909 369.36 
L 498.109091 66.96 
" style="fill:none;stroke:#0000ff;stroke-linecap:square;stroke-width:1.5;"/>
   </g>
   <g id="line2d_14">
    <path clip-path="url(#p087ca7ff90)" d="M 92.290909 369.36 
L 92.401611 353.869893 
L 92.404113 353.783024 
L 92.515127 344.556625 
L 92.517629 344.474328 
L 92.517629 344.451468 
L 92.628643 337.149903 
L 92.631458 337.044746 
L 92.742472 329.894059 
L 92.744974 329.793474 
L 92.855989 324.037262 
L 92.860054 323.941249 
L 92.971069 318.619382 
L 92.975134 318.518797 
L 92.975134 318.509653 
L 93.085523 313.155782 
L 93.085836 313.155782 
L 93.088025 313.050625 
L 93.198727 308.208823 
L 93.201541 308.131098 
L 93.201541 308.103666 
L 93.312556 303.216144 
L 93.314745 303.110987 
L 93.425759 298.260041 
L 93.427323 298.1686 
L 93.537086 294.53382 
L 93.537399 294.53382 
L 93.540839 294.433234 
L 93.651854 290.025778 
L 93.658108 289.925193 
L 93.769122 286.423002 
L 93.772562 286.317845 
L 93.772562 286.313273 
L 93.883577 282.555047 
L 93.885766 282.454462 
L 93.99678 278.965987 
L 93.999908 278.865402 
L 94.110922 275.440936 
L 94.116551 275.363211 
L 94.116551 275.340351 
L 94.227566 271.778724 
L 94.231318 271.682711 
L 94.34202 268.541712 
L 94.349838 268.445699 
L 94.460852 265.167538 
L 94.465543 265.071525 
L 94.575932 262.172845 
L 94.583125 262.063116 
L 94.693827 259.082139 
L 94.69883 258.976982 
L 94.809845 256.407489 
L 94.812346 256.302332 
L 94.923361 253.545386 
L 94.930553 253.440229 
L 95.041568 250.610129 
L 95.048135 250.52326 
L 95.15915 247.789174 
L 95.16384 247.679445 
L 95.274855 245.484861 
L 95.279546 245.388847 
L 95.385557 242.924512 
L 95.386495 242.924512 
L 95.396502 242.860503 
L 95.506891 240.272723 
L 95.52065 240.162994 
L 95.631665 237.707802 
L 95.639483 237.598073 
L 95.750497 235.344052 
L 95.756126 235.234323 
L 95.866828 232.715123 
L 95.873708 232.605394 
L 95.984722 230.223356 
L 95.993479 230.113626 
L 96.104493 227.964763 
L 96.110122 227.855033 
L 96.221136 225.669593 
L 96.228642 225.57358 
L 96.339344 223.447577 
L 96.350601 223.342419 
L 96.461303 221.083826 
L 96.471623 220.974097 
L 96.582012 218.989827 
L 96.591393 218.880098 
L 96.702408 216.831819 
L 96.708662 216.740378 
L 96.819677 214.93899 
L 96.825306 214.847549 
L 96.93632 213.069022 
L 96.945076 212.959292 
L 97.056091 211.061891 
L 97.062345 210.956734 
L 97.172422 209.763429 
L 97.186181 209.658272 
L 97.29657 208.012334 
L 97.305014 207.907176 
L 97.415715 206.229234 
L 97.419781 206.137793 
L 97.419781 206.119505 
L 97.530795 204.048366 
L 97.534861 203.956925 
L 97.645562 202.374995 
L 97.651191 202.265266 
L 97.761893 200.6239 
L 97.768148 200.514171 
L 97.878849 199.124267 
L 97.883853 199.014538 
L 97.994242 197.16743 
L 98.003311 197.066844 
L 98.114325 195.420906 
L 98.120267 195.315749 
L 98.231281 193.806972 
L 98.240663 193.701815 
L 98.351052 192.087881 
L 98.364812 191.978152 
L 98.475201 190.496808 
L 98.475826 190.496808 
L 98.483019 190.400795 
L 98.594033 188.905734 
L 98.609356 188.805149 
L 98.70067 187.598128 
L 98.732567 187.488398 
L 98.842643 186.455115 
L 98.843269 186.455115 
L 98.850461 186.363674 
L 98.850461 186.35453 
L 98.960538 185.202373 
L 98.961163 185.202373 
L 98.96773 185.092644 
L 99.078119 183.81247 
L 99.087501 183.711885 
L 99.198515 182.312837 
L 99.209773 182.203108 
L 99.320788 180.964082 
L 99.333922 180.854353 
L 99.444311 179.391297 
L 99.457445 179.295284 
L 99.567521 178.165987 
L 99.568147 178.165987 
L 99.579404 178.06083 
L 99.690106 176.803516 
L 99.696361 176.702931 
L 99.807375 175.399897 
L 99.819258 175.290167 
L 99.92652 174.256884 
L 99.928397 174.256884 
L 99.970613 174.147155 
L 100.081628 173.324186 
L 100.091948 173.219028 
L 100.202024 171.92971 
L 100.209529 171.819981 
L 100.319918 170.750121 
L 100.337431 170.644964 
L 100.447194 169.561388 
L 100.458139 169.451659 
L 100.568528 168.477812 
L 100.568841 168.477812 
L 100.580724 168.368083 
L 100.691113 167.476533 
L 100.700182 167.366804 
L 100.810571 166.246651 
L 100.821516 166.136922 
L 100.932531 165.131071 
L 100.9416 165.021342 
L 101.052614 164.097787 
L 101.071065 163.99263 
L 101.180828 162.909054 
L 101.181766 162.909054 
L 101.194901 162.799325 
L 101.305602 161.683745 
L 101.324991 161.578588 
L 101.435067 160.549876 
L 101.44695 160.440147 
L 101.556714 159.580601 
L 101.573601 159.470872 
L 101.682426 158.698196 
L 101.684615 158.698196 
L 101.694622 158.588466 
L 101.805637 157.733493 
L 101.821273 157.628336 
L 101.932287 156.613341 
L 101.946672 156.503611 
L 102.056749 155.753795 
L 102.057687 155.753795 
L 102.066443 155.648638 
L 102.177145 154.674791 
L 102.193406 154.565062 
L 102.304421 153.582071 
L 102.329751 153.472342 
L 102.44014 152.617368 
L 102.453587 152.507639 
L 102.563976 151.680098 
L 102.588055 151.574941 
L 102.699069 150.719967 
L 102.707825 150.610238 
L 102.81884 149.919858 
L 102.835414 149.814701 
L 102.946429 148.955156 
L 102.968944 148.845427 
L 103.079646 147.981309 
L 103.095282 147.876152 
L 103.095282 147.87158 
L 103.203482 146.993746 
L 103.206296 146.993746 
L 103.214427 146.888589 
L 103.325442 146.079336 
L 103.342016 145.974179 
L 103.452092 145.146638 
L 103.463975 145.036908 
L 103.573739 144.28252 
L 103.604072 144.177363 
L 103.713836 143.509844 
L 103.731974 143.409258 
L 103.842363 142.728023 
L 103.842988 142.728023 
L 103.862689 142.618294 
L 103.973078 141.836473 
L 103.973704 141.836473 
L 103.986525 141.726744 
L 104.09754 141.036364 
L 104.10911 140.926635 
L 104.219812 140.231683 
L 104.238888 140.13567 
L 104.347401 139.276125 
L 104.348339 139.276125 
L 104.380861 139.166395 
L 104.491876 138.357142 
L 104.50845 138.247413 
L 104.618214 137.653047 
L 104.632599 137.543317 
L 104.742362 136.830078 
L 104.7433 136.830078 
L 104.756747 136.720348 
L 104.867449 136.034541 
L 104.898408 135.924812 
L 105.008172 135.161279 
L 105.033189 135.05155 
L 105.143891 134.438895 
L 105.168596 134.333738 
L 105.27961 133.565633 
L 105.300562 133.455904 
L 105.411577 132.811245 
L 105.444412 132.701516 
L 105.555114 132.024852 
L 105.588887 131.915123 
L 105.699902 131.430486 
L 105.724919 131.320757 
L 105.833745 130.799543 
L 105.835308 130.799543 
L 105.857511 130.689814 
L 105.968526 130.03601 
L 105.983849 129.926281 
L 106.093613 129.25419 
L 106.094551 129.25419 
L 106.13364 129.14446 
L 106.235899 128.627819 
L 106.238713 128.627819 
L 106.271236 128.51809 
L 106.380687 127.887147 
L 106.40633 127.786561 
L 106.507337 127.370505 
L 106.508588 127.370505 
L 106.541111 127.260776 
L 106.650874 126.803571 
L 106.67683 126.693841 
L 106.78503 126.108619 
L 106.824745 125.99889 
L 106.934821 125.418239 
L 106.968595 125.30851 
L 107.078671 124.691283 
L 107.118386 124.590698 
L 107.228463 124.147209 
L 107.244724 124.03748 
L 107.355113 123.584847 
L 107.355738 123.584847 
L 107.384821 123.475118 
L 107.495836 122.953904 
L 107.524293 122.844175 
L 107.634995 122.27724 
L 107.654383 122.176655 
L 107.654383 122.172083 
L 107.764772 121.737738 
L 107.765398 121.737738 
L 107.79792 121.628009 
L 107.908622 121.234813 
L 107.908935 121.234813 
L 107.934578 121.125084 
L 108.041214 120.686167 
L 108.044967 120.686167 
L 108.064981 120.576438 
L 108.17537 120.155809 
L 108.221652 120.050652 
L 108.33079 119.652883 
L 108.332041 119.652883 
L 108.365502 119.543154 
L 108.475891 119.008224 
L 108.499657 118.898495 
L 108.610672 118.468722 
L 108.646322 118.358993 
L 108.754522 117.956653 
L 108.756711 117.956653 
L 108.785793 117.846923 
L 108.896808 117.334854 
L 108.922138 117.225125 
L 109.03284 116.873077 
L 109.076933 116.763347 
L 109.187009 116.461592 
L 109.187635 116.461592 
L 109.206398 116.351863 
L 109.315849 115.935806 
L 109.316787 115.935806 
L 109.354626 115.826077 
L 109.461575 115.419165 
L 109.49441 115.323151 
L 109.604799 114.870518 
L 109.627315 114.760789 
L 109.735828 114.404169 
L 109.737078 114.404169 
L 109.773041 114.299012 
L 109.88343 113.928676 
L 109.920018 113.818947 
L 110.031032 113.480615 
L 110.062304 113.38003 
L 110.062304 113.370886 
L 110.172693 112.922825 
L 110.193333 112.817668 
L 110.302158 112.479336 
L 110.328114 112.369607 
L 110.438815 112.003843 
L 110.505424 111.894113 
L 110.614875 111.532921 
L 110.615188 111.532921 
L 110.661157 111.427764 
L 110.769983 111.029996 
L 110.814701 110.920267 
L 110.924778 110.513354 
L 110.96074 110.403625 
L 111.071129 110.065293 
L 111.120538 109.955564 
L 111.230928 109.672097 
L 111.287842 109.571512 
L 111.396668 109.265184 
L 111.398857 109.265184 
L 111.44983 109.155455 
L 111.557091 108.926853 
L 111.560219 108.926853 
L 111.609628 108.821695 
L 111.718453 108.487936 
L 111.754416 108.378207 
L 111.864805 108.081023 
L 111.865118 108.081023 
L 111.90452 107.980438 
L 111.90452 107.971294 
L 112.014909 107.614674 
L 112.015535 107.614674 
L 112.045555 107.532377 
L 112.045555 107.504945 
L 112.15657 107.171185 
L 112.196598 107.061456 
L 112.306674 106.732268 
L 112.362338 106.627111 
L 112.472101 106.348216 
L 112.473352 106.348216 
L 112.514318 106.247631 
L 112.624395 105.794998 
L 112.664422 105.689841 
L 112.775124 105.543535 
L 112.843922 105.447522 
L 112.954936 105.136623 
L 112.994964 105.026893 
L 113.104728 104.70685 
L 113.168522 104.597121 
L 113.278599 104.208496 
L 113.279537 104.208496 
L 113.344895 104.098767 
L 113.455909 103.787868 
L 113.520954 103.678139 
L 113.630093 103.353523 
L 113.631343 103.353523 
L 113.700767 103.243794 
L 113.811781 102.919178 
L 113.871823 102.809449 
L 113.982212 102.571702 
L 114.043192 102.461973 
L 114.151704 102.219654 
L 114.153894 102.219654 
L 114.207681 102.114497 
L 114.207681 102.109925 
L 114.318695 101.844746 
L 114.410634 101.735017 
L 114.513205 101.488126 
L 114.521649 101.488126 
L 114.554171 101.378397 
L 114.655804 101.168083 
L 114.661433 101.168083 
L 114.744929 101.062926 
L 114.85563 100.779458 
L 114.8844 100.669729 
L 114.995102 100.450271 
L 114.995415 100.450271 
L 115.072656 100.340542 
L 115.179918 100.043358 
L 115.183671 100.043358 
L 115.221197 99.933629 
L 115.328459 99.750747 
L 115.330648 99.750747 
L 115.372552 99.641018 
L 115.47137 99.416987 
L 115.477937 99.416987 
L 115.552677 99.307258 
L 115.660877 99.160953 
L 115.663379 99.160953 
L 115.717479 99.055795 
L 115.824428 98.845481 
L 115.826304 98.845481 
L 115.896978 98.735752 
L 116.003927 98.525437 
L 116.007055 98.525437 
L 116.086797 98.415708 
L 116.194685 98.223682 
L 116.195623 98.223682 
L 116.262857 98.118525 
L 116.368243 97.935643 
L 116.461745 97.825914 
L 116.572447 97.588167 
L 116.620918 97.478438 
L 116.730994 97.300128 
L 116.826373 97.194971 
L 116.937075 96.975512 
L 117.011189 96.865783 
L 117.111884 96.678329 
L 117.121265 96.678329 
L 117.205386 96.5686 
L 117.315775 96.353713 
L 117.374253 96.243984 
L 117.482141 96.061102 
L 117.573767 95.951373 
L 117.684156 95.809639 
L 117.73638 95.69991 
L 117.838325 95.585609 
L 117.844892 95.585609 
L 117.89868 95.503312 
L 117.996873 95.302142 
L 118.000313 95.302142 
L 118.102258 95.192413 
L 118.211397 95.082683 
L 118.296768 94.972954 
L 118.405281 94.822076 
L 118.407783 94.822076 
L 118.494406 94.712347 
L 118.591035 94.524893 
L 118.598853 94.524893 
L 118.694545 94.415164 
L 118.794927 94.296291 
L 118.805559 94.296291 
L 118.86779 94.186561 
L 118.978804 94.003679 
L 119.068554 93.89395 
L 119.174878 93.683636 
L 119.179569 93.683636 
L 119.243363 93.573907 
L 119.354065 93.409313 
L 119.46633 93.299584 
L 119.577345 93.089269 
L 119.66084 92.97954 
L 119.770604 92.878955 
L 119.771542 92.878955 
L 119.833773 92.782942 
L 119.942911 92.659497 
L 120.041104 92.549767 
L 120.148366 92.408034 
L 120.150555 92.408034 
L 120.224982 92.298305 
L 120.333494 92.170287 
L 120.335371 92.170287 
L 120.418241 92.060558 
L 120.523001 91.891392 
L 120.527379 91.891392 
L 120.610562 91.786235 
L 120.710944 91.612497 
L 120.720325 91.612497 
L 120.809762 91.50734 
L 120.919213 91.315314 
L 121.071194 91.205584 
L 121.173765 91.045563 
L 121.180332 91.045563 
L 121.25601 90.935833 
L 121.362021 90.784956 
L 121.367024 90.784956 
L 121.448643 90.679799 
L 121.552778 90.469484 
L 121.559658 90.469484 
L 121.661916 90.359755 
L 121.770429 90.213449 
L 121.772305 90.213449 
L 121.861742 90.10372 
L 121.968379 89.993991 
L 121.971193 89.993991 
L 122.084084 89.884262 
L 122.194473 89.7471 
L 122.280158 89.637371 
L 122.388983 89.577934 
L 122.455905 89.468205 
L 122.560665 89.312755 
L 122.564105 89.312755 
L 122.661673 89.207598 
L 122.753611 89.084153 
L 122.771123 89.084153 
L 122.880262 88.974424 
L 122.990651 88.850978 
L 122.990964 88.850978 
L 123.090095 88.741249 
L 123.19423 88.60866 
L 123.199546 88.60866 
L 123.295237 88.503503 
L 123.402499 88.329765 
L 123.40375 88.329765 
L 123.507572 88.224607 
L 123.609205 88.114878 
L 123.617648 88.114878 
L 123.749615 88.005149 
L 123.849684 87.890848 
L 123.859066 87.890848 
L 124.00573 87.781119 
L 124.112992 87.657673 
L 124.116432 87.657673 
L 124.259031 87.547944 
L 124.36254 87.479363 
L 124.370046 87.479363 
L 124.456981 87.369634 
L 124.558614 87.296481 
L 124.56737 87.296481 
L 124.706529 87.186752 
L 124.816293 87.081595 
L 124.817544 87.081595 
L 124.88509 86.971866 
L 124.99548 86.880425 
L 125.085229 86.784411 
L 125.185299 86.656394 
L 125.190302 86.656394 
L 125.283492 86.546665 
L 125.380434 86.441508 
L 125.393881 86.441508 
L 125.534604 86.331778 
L 125.643429 86.226621 
L 125.645306 86.226621 
L 125.807606 86.126036 
L 125.909551 86.007163 
L 125.91862 86.007163 
L 126.063408 85.897434 
L 126.170357 85.792277 
L 126.17411 85.792277 
L 126.289503 85.682547 
L 126.397703 85.559102 
L 126.496209 85.449373 
L 126.584082 85.371648 
L 126.606598 85.371648 
L 126.741066 85.261919 
L 126.85208 85.152189 
L 126.994679 85.047032 
L 127.104443 84.951019 
L 127.105381 84.951019 
L 127.312087 84.845862 
L 127.416847 84.717845 
L 127.419662 84.717845 
L 127.539745 84.612687 
L 127.65076 84.553251 
L 127.744262 84.448094 
L 127.852462 84.370369 
L 127.854651 84.370369 
L 128.01914 84.26064 
L 128.126715 84.196631 
L 128.262121 84.086902 
L 128.369071 84.000033 
L 128.373136 84.000033 
L 128.532309 83.890303 
L 128.633942 83.835439 
L 128.642698 83.835439 
L 128.775916 83.72571 
L 128.885054 83.643413 
L 128.88693 83.643413 
L 129.066742 83.533683 
L 129.176506 83.446815 
L 129.177444 83.446815 
L 129.306909 83.337085 
L 129.416985 83.222784 
L 129.417924 83.222784 
L 129.543949 83.117627 
L 129.65465 83.01247 
L 129.654963 83.01247 
L 129.848222 82.902741 
L 129.942037 82.820444 
L 129.95736 82.820444 
L 130.084011 82.710714 
L 130.178764 82.614701 
L 130.193462 82.614701 
L 130.361391 82.504972 
L 130.471467 82.440963 
L 130.578104 82.331234 
L 130.686929 82.262653 
L 130.688493 82.262653 
L 130.794817 82.152924 
L 130.905206 82.075199 
L 130.905831 82.075199 
L 131.110348 81.96547 
L 131.221363 81.901461 
L 131.373343 81.791732 
L 131.480292 81.691147 
L 131.484358 81.691147 
L 131.646658 81.58599 
L 131.748916 81.521981 
L 131.756734 81.521981 
L 131.968131 81.412252 
L 132.072578 81.329955 
L 132.078833 81.329955 
L 132.288666 81.220226 
L 132.390611 81.137929 
L 132.399368 81.137929 
L 132.54009 81.0282 
L 132.650792 80.964191 
L 132.651105 80.964191 
L 132.887519 80.854462 
L 132.995719 80.799597 
L 132.998221 80.799597 
L 133.192731 80.689868 
L 133.300618 80.630431 
L 133.30312 80.630431 
L 133.452598 80.520702 
L 133.560173 80.442977 
L 133.84756 80.333248 
L 133.941688 80.273811 
L 133.957011 80.273811 
L 134.247525 80.164082 
L 134.326955 80.11379 
L 134.358227 80.11379 
L 134.665628 80.00406 
L 134.772577 79.953768 
L 134.776642 79.953768 
L 135.050895 79.844039 
L 135.143772 79.789174 
L 135.160971 79.789174 
L 135.337969 79.679445 
L 135.448984 79.620008 
L 135.71792 79.510279 
L 135.810485 79.464558 
L 135.828935 79.464558 
L 135.994988 79.354829 
L 136.106002 79.290821 
L 136.400269 79.181091 
L 136.481888 79.126227 
L 136.506905 79.126227 
L 136.77678 79.016497 
L 136.886544 78.975349 
L 136.887795 78.975349 
L 137.217711 78.86562 
L 137.32341 78.815327 
L 137.327162 78.815327 
L 137.476015 78.705598 
L 137.561075 78.669022 
L 137.579525 78.669022 
L 137.855341 78.559292 
L 137.926953 78.513572 
L 137.96573 78.513572 
L 138.17744 78.403843 
L 138.285953 78.358122 
L 138.590226 78.248393 
L 138.687481 78.193528 
L 138.696237 78.193528 
L 138.949225 78.083799 
L 139.059302 78.024362 
L 139.402978 77.914633 
L 139.486473 77.891773 
L 139.513367 77.891773 
L 139.890191 77.782044 
L 139.980566 77.750039 
L 139.999016 77.750039 
L 140.353637 77.64031 
L 140.458398 77.585446 
L 140.464652 77.585446 
L 140.695124 77.475716 
L 140.804888 77.41628 
L 140.806139 77.41628 
L 141.172956 77.311123 
L 141.246757 77.269974 
L 141.28272 77.269974 
L 141.661733 77.160245 
L 141.738348 77.123669 
L 141.772747 77.123669 
L 141.983518 77.013939 
L 142.082963 76.959075 
L 142.093908 76.959075 
L 142.3888 76.849345 
L 142.499502 76.808197 
L 142.727785 76.698468 
L 142.830669 76.652747 
L 142.832232 76.652747 
L 143.046756 76.543018 
L 143.154956 76.492726 
L 143.157458 76.492726 
L 143.434213 76.382996 
L 143.544289 76.328132 
L 143.843247 76.218403 
L 143.915484 76.19097 
L 143.954261 76.19097 
L 144.350474 76.081241 
L 144.456485 76.053809 
L 144.461175 76.053809 
L 144.96121 75.944079 
L 145.069097 75.912075 
L 145.491578 75.802346 
L 145.594462 75.752053 
L 145.601342 75.752053 
L 145.904052 75.642324 
L 146.005685 75.61032 
L 146.015066 75.61032 
L 146.399395 75.500591 
L 146.510097 75.464014 
L 146.975107 75.354285 
L 147.083933 75.29942 
L 147.086122 75.29942 
L 147.446685 75.189691 
L 147.522362 75.166831 
L 147.556761 75.166831 
L 147.916073 75.057102 
L 148.005197 75.020525 
L 148.02396 75.020525 
L 148.394217 74.910796 
L 148.444252 74.87422 
L 148.504606 74.87422 
L 149.197275 74.76449 
L 149.301097 74.746202 
L 149.303286 74.746202 
L 149.804258 74.636473 
L 149.862111 74.613613 
L 149.91496 74.613613 
L 150.471284 74.503884 
L 150.560721 74.476451 
L 150.58136 74.476451 
L 151.052625 74.366722 
L 151.148316 74.334718 
L 151.162075 74.334718 
L 151.54359 74.224988 
L 151.647725 74.192984 
L 151.653354 74.192984 
L 152.308496 74.087827 
L 152.365098 74.074111 
L 152.419198 74.074111 
L 153.05589 73.964382 
L 153.155959 73.936949 
L 153.166904 73.936949 
L 153.640983 73.82722 
L 153.750434 73.795216 
L 154.121942 73.685486 
L 154.22764 73.662626 
L 154.230455 73.662626 
L 154.898418 73.552897 
L 154.977848 73.539181 
L 155.006618 73.539181 
L 155.602032 73.429452 
L 155.6652 73.392875 
L 155.701476 73.392875 
L 156.602101 73.283146 
L 156.647132 73.26943 
L 156.713115 73.26943 
L 157.374824 73.159701 
L 157.476145 73.123124 
L 157.485526 73.123124 
L 158.237923 73.013395 
L 158.35613 72.995107 
L 158.951544 72.885378 
L 159.003142 72.862517 
L 159.062558 72.862517 
L 159.741779 72.752788 
L 159.833718 72.729928 
L 159.846852 72.729928 
L 160.502307 72.620199 
L 160.565163 72.606483 
L 160.611758 72.606483 
L 161.273467 72.496753 
L 161.382293 72.469321 
L 161.383856 72.469321 
L 162.098102 72.359592 
L 162.194106 72.323015 
L 162.207553 72.323015 
L 163.171972 72.213286 
L 163.281423 72.181282 
L 163.282674 72.181282 
L 163.759255 72.076125 
L 163.83931 72.048692 
L 163.869957 72.048692 
L 164.298692 71.948107 
L 164.391569 71.929819 
L 164.409394 71.929819 
L 165.29407 71.82009 
L 165.329407 71.810946 
L 165.405084 71.810946 
L 166.500532 71.701216 
L 166.595598 71.673784 
L 166.610921 71.673784 
L 167.762658 71.564055 
L 167.817071 71.550339 
L 167.871484 71.550339 
L 169.129231 71.44061 
L 169.188648 71.431466 
L 169.237119 71.431466 
L 170.268459 71.321736 
L 170.294102 71.312592 
L 170.359147 71.312592 
L 171.679126 71.202863 
L 171.774817 71.189147 
L 171.789515 71.189147 
L 173.439097 71.079418 
L 173.517589 71.056557 
L 173.549799 71.056557 
L 174.606157 70.946828 
L 174.647748 70.937684 
L 174.717172 70.937684 
L 175.910187 70.827955 
L 176.006817 70.809667 
L 176.019638 70.809667 
L 177.273633 70.699937 
L 177.381208 70.686221 
L 177.38371 70.686221 
L 178.85348 70.576492 
L 178.858483 70.567348 
L 178.964494 70.567348 
L 180.092464 70.457619 
L 180.1794 70.434758 
L 180.201915 70.434758 
L 181.411505 70.325029 
L 181.48343 70.306741 
L 181.522519 70.306741 
L 182.738363 70.197012 
L 182.810601 70.178724 
L 182.845938 70.178724 
L 184.621858 70.068994 
L 184.70504 70.05985 
L 184.732872 70.05985 
L 186.337736 69.950121 
L 186.353372 69.940977 
L 186.448125 69.940977 
L 188.244997 69.831248 
L 188.270327 69.822104 
L 188.355699 69.822104 
L 190.92936 69.712374 
L 190.998783 69.70323 
L 191.039749 69.70323 
L 193.230957 69.593501 
L 193.230957 69.588929 
L 193.339782 69.588929 
L 195.248294 69.483772 
L 195.248294 69.474628 
L 195.354618 69.474628 
L 196.822512 69.364899 
L 196.915389 69.34661 
L 196.933214 69.34661 
L 199.640405 69.236881 
L 199.751419 69.227737 
L 202.69221 69.118008 
L 202.790403 69.108864 
L 202.801036 69.108864 
L 205.42348 68.999135 
L 205.508852 68.985418 
L 205.528241 68.985418 
L 208.887759 68.875689 
L 208.887759 68.871117 
L 208.998774 68.871117 
L 212.522157 68.761388 
L 212.609092 68.747672 
L 212.632858 68.747672 
L 217.713572 68.637943 
L 217.810201 68.615082 
L 217.824274 68.615082 
L 222.111936 68.505353 
L 222.121318 68.496209 
L 222.222326 68.496209 
L 226.412108 68.38648 
L 226.431184 68.377336 
L 226.522497 68.377336 
L 232.21551 68.267606 
L 232.316518 68.244746 
L 232.324961 68.244746 
L 240.240142 68.135017 
L 240.240142 68.130445 
L 240.348342 68.130445 
L 247.92266 68.020716 
L 247.92266 68.016144 
L 248.030548 68.016144 
L 255.951357 67.906414 
L 255.951357 67.901842 
L 256.061433 67.901842 
L 266.16532 67.792113 
L 266.16532 67.787541 
L 266.276022 67.787541 
L 276.803327 67.677812 
L 276.803327 67.67324 
L 276.913716 67.67324 
L 286.549153 67.563511 
L 286.549153 67.558939 
L 286.655789 67.558939 
L 303.2251 67.449209 
L 303.2251 67.444637 
L 303.335802 67.444637 
L 320.606225 67.334908 
L 320.606225 67.330336 
L 320.716926 67.330336 
L 349.351798 67.220607 
L 349.351798 67.216035 
L 349.462812 67.216035 
L 387.30032 67.106306 
L 387.30032 67.101734 
L 387.411021 67.101734 
L 443.942752 66.992004 
L 443.942752 66.987432 
L 444.053454 66.987432 
L 498.109091 66.96 
L 498.109091 66.96 
" style="fill:none;stroke:#ff0000;stroke-linecap:square;stroke-width:1.5;"/>
   </g>
   <g id="patch_3">
    <path d="M 72 384.48 
L 72 51.84 
" style="fill:none;stroke:#000000;stroke-linecap:square;stroke-linejoin:miter;stroke-width:0.8;"/>
   </g>
   <g id="patch_4">
    <path d="M 518.4 384.48 
L 518.4 51.84 
" style="fill:none;stroke:#000000;stroke-linecap:square;stroke-linejoin:miter;stroke-width:0.8;"/>
   </g>
   <g id="patch_5">
    <path d="M 72 384.48 
L 518.4 384.48 
" style="fill:none;stroke:#000000;stroke-linecap:square;stroke-linejoin:miter;stroke-width:0.8;"/>
   </g>
   <g id="patch_6">
    <path d="M 72 51.84 
L 518.4 51.84 
" style="fill:none;stroke:#000000;stroke-linecap:square;stroke-linejoin:miter;stroke-width:0.8;"/>
   </g>
   <g id="text_15">
    <!-- ROC Curves -->
    <g transform="translate(237.894 45.84)scale(0.192 -0.192)">
     <defs>
      <path d="M 39.40625 66.21875 
Q 28.65625 66.21875 22.328125 58.203125 
Q 16.015625 50.203125 16.015625 36.375 
Q 16.015625 22.609375 22.328125 14.59375 
Q 28.65625 6.59375 39.40625 6.59375 
Q 50.140625 6.59375 56.421875 14.59375 
Q 62.703125 22.609375 62.703125 36.375 
Q 62.703125 50.203125 56.421875 58.203125 
Q 50.140625 66.21875 39.40625 66.21875 
z
M 39.40625 74.21875 
Q 54.734375 74.21875 63.90625 63.9375 
Q 73.09375 53.65625 73.09375 36.375 
Q 73.09375 19.140625 63.90625 8.859375 
Q 54.734375 -1.421875 39.40625 -1.421875 
Q 24.03125 -1.421875 14.8125 8.828125 
Q 5.609375 19.09375 5.609375 36.375 
Q 5.609375 53.65625 14.8125 63.9375 
Q 24.03125 74.21875 39.40625 74.21875 
z
" id="DejaVuSans-79"/>
      <path d="M 64.40625 67.28125 
L 64.40625 56.890625 
Q 59.421875 61.53125 53.78125 63.8125 
Q 48.140625 66.109375 41.796875 66.109375 
Q 29.296875 66.109375 22.65625 58.46875 
Q 16.015625 50.828125 16.015625 36.375 
Q 16.015625 21.96875 22.65625 14.328125 
Q 29.296875 6.6875 41.796875 6.6875 
Q 48.140625 6.6875 53.78125 8.984375 
Q 59.421875 11.28125 64.40625 15.921875 
L 64.40625 5.609375 
Q 59.234375 2.09375 53.4375 0.328125 
Q 47.65625 -1.421875 41.21875 -1.421875 
Q 24.65625 -1.421875 15.125 8.703125 
Q 5.609375 18.84375 5.609375 36.375 
Q 5.609375 53.953125 15.125 64.078125 
Q 24.65625 74.21875 41.21875 74.21875 
Q 47.75 74.21875 53.53125 72.484375 
Q 59.328125 70.75 64.40625 67.28125 
z
" id="DejaVuSans-67"/>
     </defs>
     <use xlink:href="#DejaVuSans-82"/>
     <use x="69.482422" xlink:href="#DejaVuSans-79"/>
     <use x="148.193359" xlink:href="#DejaVuSans-67"/>
     <use x="218.017578" xlink:href="#DejaVuSans-32"/>
     <use x="249.804688" xlink:href="#DejaVuSans-67"/>
     <use x="319.628906" xlink:href="#DejaVuSans-117"/>
     <use x="383.007812" xlink:href="#DejaVuSans-114"/>
     <use x="424.121094" xlink:href="#DejaVuSans-118"/>
     <use x="483.300781" xlink:href="#DejaVuSans-101"/>
     <use x="544.824219" xlink:href="#DejaVuSans-115"/>
    </g>
   </g>
   <g id="legend_1">
    <g id="patch_7">
     <path d="M 388.9825 376.48 
L 507.2 376.48 
Q 510.4 376.48 510.4 373.28 
L 510.4 327.91 
Q 510.4 324.71 507.2 324.71 
L 388.9825 324.71 
Q 385.7825 324.71 385.7825 327.91 
L 385.7825 373.28 
Q 385.7825 376.48 388.9825 376.48 
z
" style="fill:#ffffff;opacity:0.8;stroke:#cccccc;stroke-linejoin:miter;"/>
    </g>
    <g id="line2d_15">
     <path d="M 392.1825 337.6675 
L 424.1825 337.6675 
" style="fill:none;stroke:#0000ff;stroke-linecap:square;stroke-width:1.5;"/>
    </g>
    <g id="line2d_16"/>
    <g id="text_16">
     <!-- baseline -->
     <g transform="translate(436.9825 343.2675)scale(0.16 -0.16)">
      <defs>
       <path d="M 48.6875 27.296875 
Q 48.6875 37.203125 44.609375 42.84375 
Q 40.53125 48.484375 33.40625 48.484375 
Q 26.265625 48.484375 22.1875 42.84375 
Q 18.109375 37.203125 18.109375 27.296875 
Q 18.109375 17.390625 22.1875 11.75 
Q 26.265625 6.109375 33.40625 6.109375 
Q 40.53125 6.109375 44.609375 11.75 
Q 48.6875 17.390625 48.6875 27.296875 
z
M 18.109375 46.390625 
Q 20.953125 51.265625 25.265625 53.625 
Q 29.59375 56 35.59375 56 
Q 45.5625 56 51.78125 48.09375 
Q 58.015625 40.1875 58.015625 27.296875 
Q 58.015625 14.40625 51.78125 6.484375 
Q 45.5625 -1.421875 35.59375 -1.421875 
Q 29.59375 -1.421875 25.265625 0.953125 
Q 20.953125 3.328125 18.109375 8.203125 
L 18.109375 0 
L 9.078125 0 
L 9.078125 75.984375 
L 18.109375 75.984375 
z
" id="DejaVuSans-98"/>
       <path d="M 54.890625 33.015625 
L 54.890625 0 
L 45.90625 0 
L 45.90625 32.71875 
Q 45.90625 40.484375 42.875 44.328125 
Q 39.84375 48.1875 33.796875 48.1875 
Q 26.515625 48.1875 22.3125 43.546875 
Q 18.109375 38.921875 18.109375 30.90625 
L 18.109375 0 
L 9.078125 0 
L 9.078125 54.6875 
L 18.109375 54.6875 
L 18.109375 46.1875 
Q 21.34375 51.125 25.703125 53.5625 
Q 30.078125 56 35.796875 56 
Q 45.21875 56 50.046875 50.171875 
Q 54.890625 44.34375 54.890625 33.015625 
z
" id="DejaVuSans-110"/>
      </defs>
      <use xlink:href="#DejaVuSans-98"/>
      <use x="63.476562" xlink:href="#DejaVuSans-97"/>
      <use x="124.755859" xlink:href="#DejaVuSans-115"/>
      <use x="176.855469" xlink:href="#DejaVuSans-101"/>
      <use x="238.378906" xlink:href="#DejaVuSans-108"/>
      <use x="266.162109" xlink:href="#DejaVuSans-105"/>
      <use x="293.945312" xlink:href="#DejaVuSans-110"/>
      <use x="357.324219" xlink:href="#DejaVuSans-101"/>
     </g>
    </g>
    <g id="line2d_17">
     <path d="M 392.1825 361.1525 
L 424.1825 361.1525 
" style="fill:none;stroke:#ff0000;stroke-linecap:square;stroke-width:1.5;"/>
    </g>
    <g id="line2d_18"/>
    <g id="text_17">
     <!-- model -->
     <g transform="translate(436.9825 366.7525)scale(0.16 -0.16)">
      <defs>
       <path d="M 52 44.1875 
Q 55.375 50.25 60.0625 53.125 
Q 64.75 56 71.09375 56 
Q 79.640625 56 84.28125 50.015625 
Q 88.921875 44.046875 88.921875 33.015625 
L 88.921875 0 
L 79.890625 0 
L 79.890625 32.71875 
Q 79.890625 40.578125 77.09375 44.375 
Q 74.3125 48.1875 68.609375 48.1875 
Q 61.625 48.1875 57.5625 43.546875 
Q 53.515625 38.921875 53.515625 30.90625 
L 53.515625 0 
L 44.484375 0 
L 44.484375 32.71875 
Q 44.484375 40.625 41.703125 44.40625 
Q 38.921875 48.1875 33.109375 48.1875 
Q 26.21875 48.1875 22.15625 43.53125 
Q 18.109375 38.875 18.109375 30.90625 
L 18.109375 0 
L 9.078125 0 
L 9.078125 54.6875 
L 18.109375 54.6875 
L 18.109375 46.1875 
Q 21.1875 51.21875 25.484375 53.609375 
Q 29.78125 56 35.6875 56 
Q 41.65625 56 45.828125 52.96875 
Q 50 49.953125 52 44.1875 
z
" id="DejaVuSans-109"/>
       <path d="M 45.40625 46.390625 
L 45.40625 75.984375 
L 54.390625 75.984375 
L 54.390625 0 
L 45.40625 0 
L 45.40625 8.203125 
Q 42.578125 3.328125 38.25 0.953125 
Q 33.9375 -1.421875 27.875 -1.421875 
Q 17.96875 -1.421875 11.734375 6.484375 
Q 5.515625 14.40625 5.515625 27.296875 
Q 5.515625 40.1875 11.734375 48.09375 
Q 17.96875 56 27.875 56 
Q 33.9375 56 38.25 53.625 
Q 42.578125 51.265625 45.40625 46.390625 
z
M 14.796875 27.296875 
Q 14.796875 17.390625 18.875 11.75 
Q 22.953125 6.109375 30.078125 6.109375 
Q 37.203125 6.109375 41.296875 11.75 
Q 45.40625 17.390625 45.40625 27.296875 
Q 45.40625 37.203125 41.296875 42.84375 
Q 37.203125 48.484375 30.078125 48.484375 
Q 22.953125 48.484375 18.875 42.84375 
Q 14.796875 37.203125 14.796875 27.296875 
z
" id="DejaVuSans-100"/>
      </defs>
      <use xlink:href="#DejaVuSans-109"/>
      <use x="97.412109" xlink:href="#DejaVuSans-111"/>
      <use x="158.59375" xlink:href="#DejaVuSans-100"/>
      <use x="222.070312" xlink:href="#DejaVuSans-101"/>
      <use x="283.59375" xlink:href="#DejaVuSans-108"/>
     </g>
    </g>
   </g>
  </g>
 </g>
 <defs>
  <clipPath id="p087ca7ff90">
   <rect height="332.64" width="446.4" x="72" y="51.84"/>
  </clipPath>
 </defs>
</svg>
