<?xml version="1.0" encoding="utf-8" standalone="no"?>
<!DOCTYPE svg PUBLIC "-//W3C//DTD SVG 1.1//EN"
  "http://www.w3.org/Graphics/SVG/1.1/DTD/svg11.dtd">
<!-- Created with matplotlib (https://matplotlib.org/) -->
<svg height="432pt" version="1.1" viewBox="0 0 576 432" width="576pt" xmlns="http://www.w3.org/2000/svg" xmlns:xlink="http://www.w3.org/1999/xlink">
 <metadata>
  <rdf:RDF xmlns:cc="http://creativecommons.org/ns#" xmlns:dc="http://purl.org/dc/elements/1.1/" xmlns:rdf="http://www.w3.org/1999/02/22-rdf-syntax-ns#">
   <cc:Work>
    <dc:type rdf:resource="http://purl.org/dc/dcmitype/StillImage"/>
    <dc:date>2020-09-26T17:02:23.265780</dc:date>
    <dc:format>image/svg+xml</dc:format>
    <dc:creator>
     <cc:Agent>
      <dc:title>Matplotlib v3.3.0, https://matplotlib.org/</dc:title>
     </cc:Agent>
    </dc:creator>
   </cc:Work>
  </rdf:RDF>
 </metadata>
 <defs>
  <style type="text/css">*{stroke-linecap:butt;stroke-linejoin:round;}</style>
 </defs>
 <g id="figure_1">
  <g id="patch_1">
   <path d="M 0 432 
L 576 432 
L 576 0 
L 0 0 
z
" style="fill:#ffffff;"/>
  </g>
  <g id="axes_1">
   <g id="patch_2">
    <path d="M 72 384.48 
L 518.4 384.48 
L 518.4 51.84 
L 72 51.84 
z
" style="fill:#ffffff;"/>
   </g>
   <g id="matplotlib.axis_1">
    <g id="xtick_1">
     <g id="line2d_1">
      <defs>
       <path d="M 0 0 
L 0 3.5 
" id="m24598e7df7" style="stroke:#000000;stroke-width:0.8;"/>
      </defs>
      <g>
       <use style="stroke:#000000;stroke-width:0.8;" x="92.290909" xlink:href="#m24598e7df7" y="384.48"/>
      </g>
     </g>
     <g id="text_1">
      <!-- 0.0 -->
      <g transform="translate(79.568409 403.6375)scale(0.16 -0.16)">
       <defs>
        <path d="M 31.78125 66.40625 
Q 24.171875 66.40625 20.328125 58.90625 
Q 16.5 51.421875 16.5 36.375 
Q 16.5 21.390625 20.328125 13.890625 
Q 24.171875 6.390625 31.78125 6.390625 
Q 39.453125 6.390625 43.28125 13.890625 
Q 47.125 21.390625 47.125 36.375 
Q 47.125 51.421875 43.28125 58.90625 
Q 39.453125 66.40625 31.78125 66.40625 
z
M 31.78125 74.21875 
Q 44.046875 74.21875 50.515625 64.515625 
Q 56.984375 54.828125 56.984375 36.375 
Q 56.984375 17.96875 50.515625 8.265625 
Q 44.046875 -1.421875 31.78125 -1.421875 
Q 19.53125 -1.421875 13.0625 8.265625 
Q 6.59375 17.96875 6.59375 36.375 
Q 6.59375 54.828125 13.0625 64.515625 
Q 19.53125 74.21875 31.78125 74.21875 
z
" id="DejaVuSans-48"/>
        <path d="M 10.6875 12.40625 
L 21 12.40625 
L 21 0 
L 10.6875 0 
z
" id="DejaVuSans-46"/>
       </defs>
       <use xlink:href="#DejaVuSans-48"/>
       <use x="63.623047" xlink:href="#DejaVuSans-46"/>
       <use x="95.410156" xlink:href="#DejaVuSans-48"/>
      </g>
     </g>
    </g>
    <g id="xtick_2">
     <g id="line2d_2">
      <g>
       <use style="stroke:#000000;stroke-width:0.8;" x="173.454545" xlink:href="#m24598e7df7" y="384.48"/>
      </g>
     </g>
     <g id="text_2">
      <!-- 0.2 -->
      <g transform="translate(160.732045 403.6375)scale(0.16 -0.16)">
       <defs>
        <path d="M 19.1875 8.296875 
L 53.609375 8.296875 
L 53.609375 0 
L 7.328125 0 
L 7.328125 8.296875 
Q 12.9375 14.109375 22.625 23.890625 
Q 32.328125 33.6875 34.8125 36.53125 
Q 39.546875 41.84375 41.421875 45.53125 
Q 43.3125 49.21875 43.3125 52.78125 
Q 43.3125 58.59375 39.234375 62.25 
Q 35.15625 65.921875 28.609375 65.921875 
Q 23.96875 65.921875 18.8125 64.3125 
Q 13.671875 62.703125 7.8125 59.421875 
L 7.8125 69.390625 
Q 13.765625 71.78125 18.9375 73 
Q 24.125 74.21875 28.421875 74.21875 
Q 39.75 74.21875 46.484375 68.546875 
Q 53.21875 62.890625 53.21875 53.421875 
Q 53.21875 48.921875 51.53125 44.890625 
Q 49.859375 40.875 45.40625 35.40625 
Q 44.1875 33.984375 37.640625 27.21875 
Q 31.109375 20.453125 19.1875 8.296875 
z
" id="DejaVuSans-50"/>
       </defs>
       <use xlink:href="#DejaVuSans-48"/>
       <use x="63.623047" xlink:href="#DejaVuSans-46"/>
       <use x="95.410156" xlink:href="#DejaVuSans-50"/>
      </g>
     </g>
    </g>
    <g id="xtick_3">
     <g id="line2d_3">
      <g>
       <use style="stroke:#000000;stroke-width:0.8;" x="254.618182" xlink:href="#m24598e7df7" y="384.48"/>
      </g>
     </g>
     <g id="text_3">
      <!-- 0.4 -->
      <g transform="translate(241.895682 403.6375)scale(0.16 -0.16)">
       <defs>
        <path d="M 37.796875 64.3125 
L 12.890625 25.390625 
L 37.796875 25.390625 
z
M 35.203125 72.90625 
L 47.609375 72.90625 
L 47.609375 25.390625 
L 58.015625 25.390625 
L 58.015625 17.1875 
L 47.609375 17.1875 
L 47.609375 0 
L 37.796875 0 
L 37.796875 17.1875 
L 4.890625 17.1875 
L 4.890625 26.703125 
z
" id="DejaVuSans-52"/>
       </defs>
       <use xlink:href="#DejaVuSans-48"/>
       <use x="63.623047" xlink:href="#DejaVuSans-46"/>
       <use x="95.410156" xlink:href="#DejaVuSans-52"/>
      </g>
     </g>
    </g>
    <g id="xtick_4">
     <g id="line2d_4">
      <g>
       <use style="stroke:#000000;stroke-width:0.8;" x="335.781818" xlink:href="#m24598e7df7" y="384.48"/>
      </g>
     </g>
     <g id="text_4">
      <!-- 0.6 -->
      <g transform="translate(323.059318 403.6375)scale(0.16 -0.16)">
       <defs>
        <path d="M 33.015625 40.375 
Q 26.375 40.375 22.484375 35.828125 
Q 18.609375 31.296875 18.609375 23.390625 
Q 18.609375 15.53125 22.484375 10.953125 
Q 26.375 6.390625 33.015625 6.390625 
Q 39.65625 6.390625 43.53125 10.953125 
Q 47.40625 15.53125 47.40625 23.390625 
Q 47.40625 31.296875 43.53125 35.828125 
Q 39.65625 40.375 33.015625 40.375 
z
M 52.59375 71.296875 
L 52.59375 62.3125 
Q 48.875 64.0625 45.09375 64.984375 
Q 41.3125 65.921875 37.59375 65.921875 
Q 27.828125 65.921875 22.671875 59.328125 
Q 17.53125 52.734375 16.796875 39.40625 
Q 19.671875 43.65625 24.015625 45.921875 
Q 28.375 48.1875 33.59375 48.1875 
Q 44.578125 48.1875 50.953125 41.515625 
Q 57.328125 34.859375 57.328125 23.390625 
Q 57.328125 12.15625 50.6875 5.359375 
Q 44.046875 -1.421875 33.015625 -1.421875 
Q 20.359375 -1.421875 13.671875 8.265625 
Q 6.984375 17.96875 6.984375 36.375 
Q 6.984375 53.65625 15.1875 63.9375 
Q 23.390625 74.21875 37.203125 74.21875 
Q 40.921875 74.21875 44.703125 73.484375 
Q 48.484375 72.75 52.59375 71.296875 
z
" id="DejaVuSans-54"/>
       </defs>
       <use xlink:href="#DejaVuSans-48"/>
       <use x="63.623047" xlink:href="#DejaVuSans-46"/>
       <use x="95.410156" xlink:href="#DejaVuSans-54"/>
      </g>
     </g>
    </g>
    <g id="xtick_5">
     <g id="line2d_5">
      <g>
       <use style="stroke:#000000;stroke-width:0.8;" x="416.945455" xlink:href="#m24598e7df7" y="384.48"/>
      </g>
     </g>
     <g id="text_5">
      <!-- 0.8 -->
      <g transform="translate(404.222955 403.6375)scale(0.16 -0.16)">
       <defs>
        <path d="M 31.78125 34.625 
Q 24.75 34.625 20.71875 30.859375 
Q 16.703125 27.09375 16.703125 20.515625 
Q 16.703125 13.921875 20.71875 10.15625 
Q 24.75 6.390625 31.78125 6.390625 
Q 38.8125 6.390625 42.859375 10.171875 
Q 46.921875 13.96875 46.921875 20.515625 
Q 46.921875 27.09375 42.890625 30.859375 
Q 38.875 34.625 31.78125 34.625 
z
M 21.921875 38.8125 
Q 15.578125 40.375 12.03125 44.71875 
Q 8.5 49.078125 8.5 55.328125 
Q 8.5 64.0625 14.71875 69.140625 
Q 20.953125 74.21875 31.78125 74.21875 
Q 42.671875 74.21875 48.875 69.140625 
Q 55.078125 64.0625 55.078125 55.328125 
Q 55.078125 49.078125 51.53125 44.71875 
Q 48 40.375 41.703125 38.8125 
Q 48.828125 37.15625 52.796875 32.3125 
Q 56.78125 27.484375 56.78125 20.515625 
Q 56.78125 9.90625 50.3125 4.234375 
Q 43.84375 -1.421875 31.78125 -1.421875 
Q 19.734375 -1.421875 13.25 4.234375 
Q 6.78125 9.90625 6.78125 20.515625 
Q 6.78125 27.484375 10.78125 32.3125 
Q 14.796875 37.15625 21.921875 38.8125 
z
M 18.3125 54.390625 
Q 18.3125 48.734375 21.84375 45.5625 
Q 25.390625 42.390625 31.78125 42.390625 
Q 38.140625 42.390625 41.71875 45.5625 
Q 45.3125 48.734375 45.3125 54.390625 
Q 45.3125 60.0625 41.71875 63.234375 
Q 38.140625 66.40625 31.78125 66.40625 
Q 25.390625 66.40625 21.84375 63.234375 
Q 18.3125 60.0625 18.3125 54.390625 
z
" id="DejaVuSans-56"/>
       </defs>
       <use xlink:href="#DejaVuSans-48"/>
       <use x="63.623047" xlink:href="#DejaVuSans-46"/>
       <use x="95.410156" xlink:href="#DejaVuSans-56"/>
      </g>
     </g>
    </g>
    <g id="xtick_6">
     <g id="line2d_6">
      <g>
       <use style="stroke:#000000;stroke-width:0.8;" x="498.109091" xlink:href="#m24598e7df7" y="384.48"/>
      </g>
     </g>
     <g id="text_6">
      <!-- 1.0 -->
      <g transform="translate(485.386591 403.6375)scale(0.16 -0.16)">
       <defs>
        <path d="M 12.40625 8.296875 
L 28.515625 8.296875 
L 28.515625 63.921875 
L 10.984375 60.40625 
L 10.984375 69.390625 
L 28.421875 72.90625 
L 38.28125 72.90625 
L 38.28125 8.296875 
L 54.390625 8.296875 
L 54.390625 0 
L 12.40625 0 
z
" id="DejaVuSans-49"/>
       </defs>
       <use xlink:href="#DejaVuSans-49"/>
       <use x="63.623047" xlink:href="#DejaVuSans-46"/>
       <use x="95.410156" xlink:href="#DejaVuSans-48"/>
      </g>
     </g>
    </g>
    <g id="text_7">
     <!-- False Positive Rate -->
     <g transform="translate(220.85375 423.1225)scale(0.16 -0.16)">
      <defs>
       <path d="M 9.8125 72.90625 
L 51.703125 72.90625 
L 51.703125 64.59375 
L 19.671875 64.59375 
L 19.671875 43.109375 
L 48.578125 43.109375 
L 48.578125 34.8125 
L 19.671875 34.8125 
L 19.671875 0 
L 9.8125 0 
z
" id="DejaVuSans-70"/>
       <path d="M 34.28125 27.484375 
Q 23.390625 27.484375 19.1875 25 
Q 14.984375 22.515625 14.984375 16.5 
Q 14.984375 11.71875 18.140625 8.90625 
Q 21.296875 6.109375 26.703125 6.109375 
Q 34.1875 6.109375 38.703125 11.40625 
Q 43.21875 16.703125 43.21875 25.484375 
L 43.21875 27.484375 
z
M 52.203125 31.203125 
L 52.203125 0 
L 43.21875 0 
L 43.21875 8.296875 
Q 40.140625 3.328125 35.546875 0.953125 
Q 30.953125 -1.421875 24.3125 -1.421875 
Q 15.921875 -1.421875 10.953125 3.296875 
Q 6 8.015625 6 15.921875 
Q 6 25.140625 12.171875 29.828125 
Q 18.359375 34.515625 30.609375 34.515625 
L 43.21875 34.515625 
L 43.21875 35.40625 
Q 43.21875 41.609375 39.140625 45 
Q 35.0625 48.390625 27.6875 48.390625 
Q 23 48.390625 18.546875 47.265625 
Q 14.109375 46.140625 10.015625 43.890625 
L 10.015625 52.203125 
Q 14.9375 54.109375 19.578125 55.046875 
Q 24.21875 56 28.609375 56 
Q 40.484375 56 46.34375 49.84375 
Q 52.203125 43.703125 52.203125 31.203125 
z
" id="DejaVuSans-97"/>
       <path d="M 9.421875 75.984375 
L 18.40625 75.984375 
L 18.40625 0 
L 9.421875 0 
z
" id="DejaVuSans-108"/>
       <path d="M 44.28125 53.078125 
L 44.28125 44.578125 
Q 40.484375 46.53125 36.375 47.5 
Q 32.28125 48.484375 27.875 48.484375 
Q 21.1875 48.484375 17.84375 46.4375 
Q 14.5 44.390625 14.5 40.28125 
Q 14.5 37.15625 16.890625 35.375 
Q 19.28125 33.59375 26.515625 31.984375 
L 29.59375 31.296875 
Q 39.15625 29.25 43.1875 25.515625 
Q 47.21875 21.78125 47.21875 15.09375 
Q 47.21875 7.46875 41.1875 3.015625 
Q 35.15625 -1.421875 24.609375 -1.421875 
Q 20.21875 -1.421875 15.453125 -0.5625 
Q 10.6875 0.296875 5.421875 2 
L 5.421875 11.28125 
Q 10.40625 8.6875 15.234375 7.390625 
Q 20.0625 6.109375 24.8125 6.109375 
Q 31.15625 6.109375 34.5625 8.28125 
Q 37.984375 10.453125 37.984375 14.40625 
Q 37.984375 18.0625 35.515625 20.015625 
Q 33.0625 21.96875 24.703125 23.78125 
L 21.578125 24.515625 
Q 13.234375 26.265625 9.515625 29.90625 
Q 5.8125 33.546875 5.8125 39.890625 
Q 5.8125 47.609375 11.28125 51.796875 
Q 16.75 56 26.8125 56 
Q 31.78125 56 36.171875 55.265625 
Q 40.578125 54.546875 44.28125 53.078125 
z
" id="DejaVuSans-115"/>
       <path d="M 56.203125 29.59375 
L 56.203125 25.203125 
L 14.890625 25.203125 
Q 15.484375 15.921875 20.484375 11.0625 
Q 25.484375 6.203125 34.421875 6.203125 
Q 39.59375 6.203125 44.453125 7.46875 
Q 49.3125 8.734375 54.109375 11.28125 
L 54.109375 2.78125 
Q 49.265625 0.734375 44.1875 -0.34375 
Q 39.109375 -1.421875 33.890625 -1.421875 
Q 20.796875 -1.421875 13.15625 6.1875 
Q 5.515625 13.8125 5.515625 26.8125 
Q 5.515625 40.234375 12.765625 48.109375 
Q 20.015625 56 32.328125 56 
Q 43.359375 56 49.78125 48.890625 
Q 56.203125 41.796875 56.203125 29.59375 
z
M 47.21875 32.234375 
Q 47.125 39.59375 43.09375 43.984375 
Q 39.0625 48.390625 32.421875 48.390625 
Q 24.90625 48.390625 20.390625 44.140625 
Q 15.875 39.890625 15.1875 32.171875 
z
" id="DejaVuSans-101"/>
       <path id="DejaVuSans-32"/>
       <path d="M 19.671875 64.796875 
L 19.671875 37.40625 
L 32.078125 37.40625 
Q 38.96875 37.40625 42.71875 40.96875 
Q 46.484375 44.53125 46.484375 51.125 
Q 46.484375 57.671875 42.71875 61.234375 
Q 38.96875 64.796875 32.078125 64.796875 
z
M 9.8125 72.90625 
L 32.078125 72.90625 
Q 44.34375 72.90625 50.609375 67.359375 
Q 56.890625 61.8125 56.890625 51.125 
Q 56.890625 40.328125 50.609375 34.8125 
Q 44.34375 29.296875 32.078125 29.296875 
L 19.671875 29.296875 
L 19.671875 0 
L 9.8125 0 
z
" id="DejaVuSans-80"/>
       <path d="M 30.609375 48.390625 
Q 23.390625 48.390625 19.1875 42.75 
Q 14.984375 37.109375 14.984375 27.296875 
Q 14.984375 17.484375 19.15625 11.84375 
Q 23.34375 6.203125 30.609375 6.203125 
Q 37.796875 6.203125 41.984375 11.859375 
Q 46.1875 17.53125 46.1875 27.296875 
Q 46.1875 37.015625 41.984375 42.703125 
Q 37.796875 48.390625 30.609375 48.390625 
z
M 30.609375 56 
Q 42.328125 56 49.015625 48.375 
Q 55.71875 40.765625 55.71875 27.296875 
Q 55.71875 13.875 49.015625 6.21875 
Q 42.328125 -1.421875 30.609375 -1.421875 
Q 18.84375 -1.421875 12.171875 6.21875 
Q 5.515625 13.875 5.515625 27.296875 
Q 5.515625 40.765625 12.171875 48.375 
Q 18.84375 56 30.609375 56 
z
" id="DejaVuSans-111"/>
       <path d="M 9.421875 54.6875 
L 18.40625 54.6875 
L 18.40625 0 
L 9.421875 0 
z
M 9.421875 75.984375 
L 18.40625 75.984375 
L 18.40625 64.59375 
L 9.421875 64.59375 
z
" id="DejaVuSans-105"/>
       <path d="M 18.3125 70.21875 
L 18.3125 54.6875 
L 36.8125 54.6875 
L 36.8125 47.703125 
L 18.3125 47.703125 
L 18.3125 18.015625 
Q 18.3125 11.328125 20.140625 9.421875 
Q 21.96875 7.515625 27.59375 7.515625 
L 36.8125 7.515625 
L 36.8125 0 
L 27.59375 0 
Q 17.1875 0 13.234375 3.875 
Q 9.28125 7.765625 9.28125 18.015625 
L 9.28125 47.703125 
L 2.6875 47.703125 
L 2.6875 54.6875 
L 9.28125 54.6875 
L 9.28125 70.21875 
z
" id="DejaVuSans-116"/>
       <path d="M 2.984375 54.6875 
L 12.5 54.6875 
L 29.59375 8.796875 
L 46.6875 54.6875 
L 56.203125 54.6875 
L 35.6875 0 
L 23.484375 0 
z
" id="DejaVuSans-118"/>
       <path d="M 44.390625 34.1875 
Q 47.5625 33.109375 50.5625 29.59375 
Q 53.5625 26.078125 56.59375 19.921875 
L 66.609375 0 
L 56 0 
L 46.6875 18.703125 
Q 43.0625 26.03125 39.671875 28.421875 
Q 36.28125 30.8125 30.421875 30.8125 
L 19.671875 30.8125 
L 19.671875 0 
L 9.8125 0 
L 9.8125 72.90625 
L 32.078125 72.90625 
Q 44.578125 72.90625 50.734375 67.671875 
Q 56.890625 62.453125 56.890625 51.90625 
Q 56.890625 45.015625 53.6875 40.46875 
Q 50.484375 35.9375 44.390625 34.1875 
z
M 19.671875 64.796875 
L 19.671875 38.921875 
L 32.078125 38.921875 
Q 39.203125 38.921875 42.84375 42.21875 
Q 46.484375 45.515625 46.484375 51.90625 
Q 46.484375 58.296875 42.84375 61.546875 
Q 39.203125 64.796875 32.078125 64.796875 
z
" id="DejaVuSans-82"/>
      </defs>
      <use xlink:href="#DejaVuSans-70"/>
      <use x="48.394531" xlink:href="#DejaVuSans-97"/>
      <use x="109.673828" xlink:href="#DejaVuSans-108"/>
      <use x="137.457031" xlink:href="#DejaVuSans-115"/>
      <use x="189.556641" xlink:href="#DejaVuSans-101"/>
      <use x="251.080078" xlink:href="#DejaVuSans-32"/>
      <use x="282.867188" xlink:href="#DejaVuSans-80"/>
      <use x="339.544922" xlink:href="#DejaVuSans-111"/>
      <use x="400.726562" xlink:href="#DejaVuSans-115"/>
      <use x="452.826172" xlink:href="#DejaVuSans-105"/>
      <use x="480.609375" xlink:href="#DejaVuSans-116"/>
      <use x="519.818359" xlink:href="#DejaVuSans-105"/>
      <use x="547.601562" xlink:href="#DejaVuSans-118"/>
      <use x="606.78125" xlink:href="#DejaVuSans-101"/>
      <use x="668.304688" xlink:href="#DejaVuSans-32"/>
      <use x="700.091797" xlink:href="#DejaVuSans-82"/>
      <use x="767.324219" xlink:href="#DejaVuSans-97"/>
      <use x="828.603516" xlink:href="#DejaVuSans-116"/>
      <use x="867.8125" xlink:href="#DejaVuSans-101"/>
     </g>
    </g>
   </g>
   <g id="matplotlib.axis_2">
    <g id="ytick_1">
     <g id="line2d_7">
      <defs>
       <path d="M 0 0 
L -3.5 0 
" id="m8898534fea" style="stroke:#000000;stroke-width:0.8;"/>
      </defs>
      <g>
       <use style="stroke:#000000;stroke-width:0.8;" x="72" xlink:href="#m8898534fea" y="369.36"/>
      </g>
     </g>
     <g id="text_8">
      <!-- 0.0 -->
      <g transform="translate(39.555 375.43875)scale(0.16 -0.16)">
       <use xlink:href="#DejaVuSans-48"/>
       <use x="63.623047" xlink:href="#DejaVuSans-46"/>
       <use x="95.410156" xlink:href="#DejaVuSans-48"/>
      </g>
     </g>
    </g>
    <g id="ytick_2">
     <g id="line2d_8">
      <g>
       <use style="stroke:#000000;stroke-width:0.8;" x="72" xlink:href="#m8898534fea" y="308.88"/>
      </g>
     </g>
     <g id="text_9">
      <!-- 0.2 -->
      <g transform="translate(39.555 314.95875)scale(0.16 -0.16)">
       <use xlink:href="#DejaVuSans-48"/>
       <use x="63.623047" xlink:href="#DejaVuSans-46"/>
       <use x="95.410156" xlink:href="#DejaVuSans-50"/>
      </g>
     </g>
    </g>
    <g id="ytick_3">
     <g id="line2d_9">
      <g>
       <use style="stroke:#000000;stroke-width:0.8;" x="72" xlink:href="#m8898534fea" y="248.4"/>
      </g>
     </g>
     <g id="text_10">
      <!-- 0.4 -->
      <g transform="translate(39.555 254.47875)scale(0.16 -0.16)">
       <use xlink:href="#DejaVuSans-48"/>
       <use x="63.623047" xlink:href="#DejaVuSans-46"/>
       <use x="95.410156" xlink:href="#DejaVuSans-52"/>
      </g>
     </g>
    </g>
    <g id="ytick_4">
     <g id="line2d_10">
      <g>
       <use style="stroke:#000000;stroke-width:0.8;" x="72" xlink:href="#m8898534fea" y="187.92"/>
      </g>
     </g>
     <g id="text_11">
      <!-- 0.6 -->
      <g transform="translate(39.555 193.99875)scale(0.16 -0.16)">
       <use xlink:href="#DejaVuSans-48"/>
       <use x="63.623047" xlink:href="#DejaVuSans-46"/>
       <use x="95.410156" xlink:href="#DejaVuSans-54"/>
      </g>
     </g>
    </g>
    <g id="ytick_5">
     <g id="line2d_11">
      <g>
       <use style="stroke:#000000;stroke-width:0.8;" x="72" xlink:href="#m8898534fea" y="127.44"/>
      </g>
     </g>
     <g id="text_12">
      <!-- 0.8 -->
      <g transform="translate(39.555 133.51875)scale(0.16 -0.16)">
       <use xlink:href="#DejaVuSans-48"/>
       <use x="63.623047" xlink:href="#DejaVuSans-46"/>
       <use x="95.410156" xlink:href="#DejaVuSans-56"/>
      </g>
     </g>
    </g>
    <g id="ytick_6">
     <g id="line2d_12">
      <g>
       <use style="stroke:#000000;stroke-width:0.8;" x="72" xlink:href="#m8898534fea" y="66.96"/>
      </g>
     </g>
     <g id="text_13">
      <!-- 1.0 -->
      <g transform="translate(39.555 73.03875)scale(0.16 -0.16)">
       <use xlink:href="#DejaVuSans-49"/>
       <use x="63.623047" xlink:href="#DejaVuSans-46"/>
       <use x="95.410156" xlink:href="#DejaVuSans-48"/>
      </g>
     </g>
    </g>
    <g id="text_14">
     <!-- True Positive Rate -->
     <g transform="translate(32.2275 289.4075)rotate(-90)scale(0.16 -0.16)">
      <defs>
       <path d="M -0.296875 72.90625 
L 61.375 72.90625 
L 61.375 64.59375 
L 35.5 64.59375 
L 35.5 0 
L 25.59375 0 
L 25.59375 64.59375 
L -0.296875 64.59375 
z
" id="DejaVuSans-84"/>
       <path d="M 41.109375 46.296875 
Q 39.59375 47.171875 37.8125 47.578125 
Q 36.03125 48 33.890625 48 
Q 26.265625 48 22.1875 43.046875 
Q 18.109375 38.09375 18.109375 28.8125 
L 18.109375 0 
L 9.078125 0 
L 9.078125 54.6875 
L 18.109375 54.6875 
L 18.109375 46.1875 
Q 20.953125 51.171875 25.484375 53.578125 
Q 30.03125 56 36.53125 56 
Q 37.453125 56 38.578125 55.875 
Q 39.703125 55.765625 41.0625 55.515625 
z
" id="DejaVuSans-114"/>
       <path d="M 8.5 21.578125 
L 8.5 54.6875 
L 17.484375 54.6875 
L 17.484375 21.921875 
Q 17.484375 14.15625 20.5 10.265625 
Q 23.53125 6.390625 29.59375 6.390625 
Q 36.859375 6.390625 41.078125 11.03125 
Q 45.3125 15.671875 45.3125 23.6875 
L 45.3125 54.6875 
L 54.296875 54.6875 
L 54.296875 0 
L 45.3125 0 
L 45.3125 8.40625 
Q 42.046875 3.421875 37.71875 1 
Q 33.40625 -1.421875 27.6875 -1.421875 
Q 18.265625 -1.421875 13.375 4.4375 
Q 8.5 10.296875 8.5 21.578125 
z
M 31.109375 56 
z
" id="DejaVuSans-117"/>
      </defs>
      <use xlink:href="#DejaVuSans-84"/>
      <use x="46.333984" xlink:href="#DejaVuSans-114"/>
      <use x="87.447266" xlink:href="#DejaVuSans-117"/>
      <use x="150.826172" xlink:href="#DejaVuSans-101"/>
      <use x="212.349609" xlink:href="#DejaVuSans-32"/>
      <use x="244.136719" xlink:href="#DejaVuSans-80"/>
      <use x="300.814453" xlink:href="#DejaVuSans-111"/>
      <use x="361.996094" xlink:href="#DejaVuSans-115"/>
      <use x="414.095703" xlink:href="#DejaVuSans-105"/>
      <use x="441.878906" xlink:href="#DejaVuSans-116"/>
      <use x="481.087891" xlink:href="#DejaVuSans-105"/>
      <use x="508.871094" xlink:href="#DejaVuSans-118"/>
      <use x="568.050781" xlink:href="#DejaVuSans-101"/>
      <use x="629.574219" xlink:href="#DejaVuSans-32"/>
      <use x="661.361328" xlink:href="#DejaVuSans-82"/>
      <use x="728.59375" xlink:href="#DejaVuSans-97"/>
      <use x="789.873047" xlink:href="#DejaVuSans-116"/>
      <use x="829.082031" xlink:href="#DejaVuSans-101"/>
     </g>
    </g>
   </g>
   <g id="line2d_13">
    <path clip-path="url(#pee38ba3168)" d="M 92.290909 369.36 
L 498.109091 66.96 
" style="fill:none;stroke:#0000ff;stroke-linecap:square;stroke-width:1.5;"/>
   </g>
   <g id="line2d_14">
    <path clip-path="url(#pee38ba3168)" d="M 92.290909 369.36 
L 92.401477 365.963311 
L 92.411075 365.85815 
L 92.522028 363.092425 
L 92.523947 362.99778 
L 92.6349 360.211022 
L 92.639891 360.126894 
L 92.750459 357.392717 
L 92.757369 357.287556 
L 92.868322 354.658539 
L 92.876384 354.553379 
L 92.986952 351.009464 
L 92.989256 350.956884 
L 92.989256 350.91482 
L 93.100208 347.370906 
L 93.105583 347.265745 
L 93.216151 343.921636 
L 93.219991 343.816475 
L 93.330943 339.694177 
L 93.332862 339.620565 
L 93.443431 335.140721 
L 93.449574 335.03556 
L 93.560142 331.092035 
L 93.566285 330.986874 
L 93.677237 326.359805 
L 93.679924 326.317741 
L 93.790493 321.837897 
L 93.792412 321.743252 
L 93.902213 317.799727 
L 93.9049 317.705083 
L 94.015469 313.056981 
L 94.018156 312.972853 
L 94.128724 308.082882 
L 94.131412 307.977722 
L 94.242364 302.919494 
L 94.245435 302.835365 
L 94.356388 297.230302 
L 94.358691 297.146173 
L 94.358691 297.135657 
L 94.46926 293.013359 
L 94.471563 292.918715 
L 94.471563 292.908199 
L 94.582515 288.03926 
L 94.586355 287.944615 
L 94.696923 283.25445 
L 94.69961 283.191353 
L 94.810179 278.143642 
L 94.81325 278.080545 
L 94.924202 273.09593 
L 94.927658 273.022317 
L 94.927658 272.990769 
L 95.03861 268.784343 
L 95.041681 268.679182 
L 95.15225 264.746173 
L 95.155705 264.641013 
L 95.266273 261.034002 
L 95.269729 260.939357 
L 95.380681 256.512093 
L 95.390279 256.427965 
L 95.501231 252.684245 
L 95.502767 252.579085 
L 95.613719 248.730204 
L 95.617942 248.646076 
L 95.728127 245.028549 
L 95.730814 244.975969 
L 95.730814 244.933905 
L 95.841766 241.726504 
L 95.848677 241.642376 
L 95.958093 238.519104 
L 95.96462 238.413944 
L 96.075188 234.817449 
L 96.082483 234.712288 
L 96.193435 231.504888 
L 96.196123 231.47334 
L 96.196123 231.420759 
L 96.306691 228.160779 
L 96.310146 228.055618 
L 96.420715 225.195248 
L 96.428393 225.11112 
L 96.539345 221.819591 
L 96.543568 221.756495 
L 96.654521 219.064382 
L 96.659128 218.959221 
L 96.769696 216.140915 
L 96.773535 216.046271 
L 96.88372 212.649581 
L 96.887943 212.544421 
L 96.998895 210.125725 
L 97.003502 210.020565 
L 97.113687 207.265355 
L 97.125204 207.170711 
L 97.236156 204.657371 
L 97.243835 204.562726 
L 97.243835 204.55221 
L 97.3521 202.270224 
L 97.361698 202.207128 
L 97.361698 202.186095 
L 97.472266 199.567595 
L 97.479944 199.515015 
L 97.479944 199.462434 
L 97.590513 196.875482 
L 97.601262 196.770321 
L 97.711831 194.530399 
L 97.715286 194.425239 
L 97.825854 191.817254 
L 97.831229 191.712093 
L 97.94103 189.377527 
L 97.948708 189.272366 
L 98.058509 186.822123 
L 98.067723 186.716962 
L 98.177907 184.47704 
L 98.185202 184.403427 
L 98.185202 184.392911 
L 98.296154 182.31073 
L 98.298073 182.216086 
L 98.408258 179.839455 
L 98.420159 179.734294 
L 98.52996 177.641597 
L 98.535335 177.567984 
L 98.6436 175.706641 
L 98.644751 175.706641 
L 98.655885 175.60148 
L 98.766837 173.761168 
L 98.777203 173.656008 
L 98.888155 171.447634 
L 98.892379 171.352989 
L 99.003331 169.523194 
L 99.009857 169.418033 
L 99.118506 167.809075 
L 99.125417 167.703914 
L 99.236369 165.853087 
L 99.242512 165.747926 
L 99.351928 164.170516 
L 99.35308 164.170516 
L 99.358839 164.086388 
L 99.469791 162.63517 
L 99.483228 162.53001 
L 99.594181 160.878987 
L 99.600707 160.784343 
L 99.710124 159.312093 
L 99.72049 159.206933 
L 99.830674 157.524362 
L 99.888262 156.756689 
L 100.024169 154.716573 
L 100.034918 154.611412 
L 100.144719 153.402064 
L 100.154701 153.296904 
L 100.263733 151.614333 
L 100.265653 151.614333 
L 100.276019 151.509172 
L 100.386587 150.026407 
L 100.400792 149.921246 
L 100.509825 148.596222 
L 100.52403 148.491061 
L 100.634982 147.197585 
L 100.642277 147.102941 
L 100.752461 145.704304 
L 100.760139 145.609659 
L 100.853815 144.547537 
L 100.896814 144.442376 
L 101.007766 143.275093 
L 101.021971 143.169932 
L 101.13254 141.929036 
L 101.141754 141.823875 
L 101.252706 140.63556 
L 101.272286 140.530399 
L 101.383238 139.541889 
L 101.397827 139.436728 
L 101.508779 138.553379 
L 101.524136 138.448218 
L 101.633937 137.459708 
L 101.65582 137.365063 
L 101.766772 136.345005 
L 101.777522 136.25036 
L 101.883483 135.20927 
L 101.887706 135.20927 
L 101.897304 135.104109 
L 102.007489 134.010438 
L 102.027453 133.905278 
L 102.137253 132.906251 
L 102.138021 132.906251 
L 102.154913 132.801091 
L 102.263946 131.823096 
L 102.271624 131.81258 
L 102.271624 131.717936 
L 102.382577 130.939747 
L 102.400237 130.834586 
L 102.505814 130.014333 
L 102.509654 130.014333 
L 102.52501 129.909172 
L 102.635579 128.994275 
L 102.652471 128.889114 
L 102.763423 128.268666 
L 102.783387 128.163505 
L 102.893572 127.248608 
L 102.914303 127.143447 
L 103.024871 126.375774 
L 103.040228 126.270613 
L 103.15118 125.39778 
L 103.165769 125.303135 
L 103.275954 124.451334 
L 103.289391 124.367205 
L 103.393817 123.567984 
L 103.400343 123.567984 
L 103.419923 123.462824 
L 103.528956 122.800312 
L 103.561589 122.695151 
L 103.668318 122.032639 
L 103.66947 122.032639 
L 103.694808 121.94851 
L 103.802305 121.401675 
L 103.828028 121.296514 
L 103.935525 120.697098 
L 103.938596 120.697098 
L 103.960096 120.591938 
L 104.068744 119.824265 
L 104.091012 119.719104 
L 104.20158 119.067108 
L 104.226535 118.961947 
L 104.337103 118.194275 
L 104.349772 118.089114 
L 104.459189 117.489698 
L 104.490286 117.384537 
L 104.601239 116.774606 
L 104.616979 116.669445 
L 104.723708 116.080545 
L 104.727932 116.080545 
L 104.856928 115.523194 
L 104.878427 115.428549 
L 104.982853 114.860682 
L 104.986308 114.860682 
L 105.017022 114.755521 
L 105.122215 114.187653 
L 105.12759 114.187653 
L 105.158304 114.082493 
L 105.268872 113.251723 
L 105.28039 113.146563 
L 105.384815 112.694372 
L 105.412457 112.589211 
L 105.519954 112.147537 
L 105.521874 112.147537 
L 105.551436 112.042376 
L 105.656629 111.632249 
L 105.662388 111.632249 
L 105.680048 111.527089 
L 105.789849 111.011801 
L 105.807893 110.906641 
L 105.911167 110.443934 
L 105.91539 110.443934 
L 105.924988 110.349289 
L 106.035172 109.960195 
L 106.03594 109.960195 
L 106.072412 109.855034 
L 106.181829 109.392327 
L 106.183365 109.392327 
L 106.196802 109.287167 
L 106.30737 108.845492 
L 106.331941 108.740331 
L 106.442509 108.298656 
L 106.442893 108.298656 
L 106.533114 108.193496 
L 106.698582 107.573048 
L 106.726609 107.467887 
L 106.837561 107.110341 
L 106.865971 107.00518 
L 106.973468 106.647634 
L 106.975771 106.647634 
L 107.021458 106.542473 
L 107.131642 106.132347 
L 107.163891 106.027186 
L 107.27062 105.711704 
L 107.274843 105.711704 
L 107.290584 105.606543 
L 107.397313 105.059708 
L 107.400385 105.059708 
L 107.466418 104.954547 
L 107.576219 104.586485 
L 107.608852 104.481324 
L 107.718653 104.165842 
L 107.71942 104.165842 
L 107.740152 104.060682 
L 107.850336 103.650555 
L 107.883353 103.545394 
L 107.992386 102.988043 
L 107.993538 102.988043 
L 108.051893 102.882882 
L 108.160926 102.556884 
L 108.161694 102.556884 
L 108.183961 102.451723 
L 108.291842 102.136241 
L 108.294146 102.136241 
L 108.315645 102.031081 
L 108.415464 101.673535 
L 108.423526 101.673535 
L 108.446945 101.57889 
L 108.555594 101.263408 
L 108.59053 101.158247 
L 108.701099 100.832249 
L 108.737187 100.727089 
L 108.848139 100.380058 
L 108.898816 100.29593 
L 108.983662 99.938384 
L 109.007849 99.938384 
L 109.045857 99.833223 
L 109.153354 99.475677 
L 109.200192 99.370516 
L 109.311144 99.076066 
L 109.35875 98.970906 
L 109.465863 98.602843 
L 109.467399 98.602843 
L 109.513469 98.497683 
L 109.619814 98.161168 
L 109.624037 98.161168 
L 109.730383 98.056008 
L 109.840567 97.708978 
L 109.841335 97.708978 
L 109.879727 97.603817 
L 109.990679 97.277819 
L 110.039053 97.172658 
L 110.13772 96.773048 
L 110.149621 96.773048 
L 110.204137 96.667887 
L 110.308947 96.394469 
L 110.388418 96.289309 
L 110.489005 95.984343 
L 110.498219 95.984343 
L 110.551967 95.879182 
L 110.662152 95.521636 
L 110.662535 95.521636 
L 110.709373 95.416475 
L 110.811496 95.16409 
L 110.817638 95.16409 
L 110.938956 95.058929 
L 111.048373 94.711899 
L 111.073712 94.617254 
L 111.181593 94.438481 
L 111.18428 94.438481 
L 111.261448 94.33332 
L 111.368561 94.080935 
L 111.370864 94.080935 
L 111.399274 93.996806 
L 111.5037 93.723389 
L 111.586626 93.628744 
L 111.69681 93.407907 
L 111.735202 93.302746 
L 111.837324 93.060876 
L 111.845387 93.060876 
L 111.904894 92.955716 
L 112.002025 92.713846 
L 112.006632 92.713846 
L 112.079577 92.608685 
L 112.189377 92.240623 
L 112.190529 92.240623 
L 112.23084 92.135463 
L 112.341793 91.798948 
L 112.392086 91.693788 
L 112.499583 91.47295 
L 112.503038 91.47295 
L 112.580974 91.36779 
L 112.699604 91.146952 
L 112.739916 91.041792 
L 112.840886 90.873535 
L 112.848564 90.873535 
L 112.894251 90.768374 
L 113.001748 90.579085 
L 113.003283 90.579085 
L 113.045514 90.473924 
L 113.149556 90.242571 
L 113.155315 90.242571 
L 113.217893 90.13741 
L 113.328462 89.885024 
L 113.368773 89.779864 
L 113.466288 89.580058 
L 113.479342 89.580058 
L 113.550366 89.474898 
L 113.660935 89.25406 
L 113.733495 89.1489 
L 113.842528 88.896514 
L 113.920847 88.791353 
L 114.031416 88.496904 
L 114.120869 88.391743 
L 114.223759 88.223486 
L 114.229517 88.223486 
L 114.310908 88.118325 
L 114.413798 87.876456 
L 114.420708 87.876456 
L 114.486358 87.771295 
L 114.595775 87.539942 
L 114.680237 87.445297 
L 114.789654 87.319104 
L 114.790421 87.319104 
L 114.840715 87.213944 
L 114.940917 86.98259 
L 114.94898 86.98259 
L 115.014246 86.898462 
L 115.014246 86.877429 
L 115.110225 86.646076 
L 115.114832 86.646076 
L 115.155144 86.540915 
L 115.26456 86.414722 
L 115.266096 86.414722 
L 115.325219 86.309562 
L 115.425422 86.099241 
L 115.426957 86.099241 
L 115.511419 85.99408 
L 115.618533 85.815307 
L 115.621604 85.815307 
L 115.697236 85.710146 
L 115.794367 85.583953 
L 115.804349 85.583953 
L 115.9368 85.478793 
L 116.041226 85.3526 
L 116.046985 85.3526 
L 116.182892 85.247439 
L 116.269273 85.079182 
L 116.293076 85.079182 
L 116.329932 84.974021 
L 116.419001 84.910925 
L 116.437813 84.910925 
L 116.559132 84.805764 
L 116.660102 84.595443 
L 116.669316 84.595443 
L 116.754162 84.490282 
L 116.863962 84.300993 
L 117.011771 84.195833 
L 117.116964 84.038092 
L 117.122723 84.038092 
L 117.239818 83.932931 
L 117.349619 83.712093 
L 117.442911 83.606933 
L 117.546952 83.459708 
L 117.54964 83.459708 
L 117.708198 83.354547 
L 117.813775 83.228354 
L 117.818766 83.228354 
L 117.964655 83.123194 
L 118.075607 83.007517 
L 118.133579 82.912872 
L 118.222648 82.734099 
L 118.235317 82.734099 
L 118.291753 82.639455 
L 118.398099 82.439649 
L 118.479489 82.334489 
L 118.58929 82.229328 
L 118.6726 82.124167 
L 118.780097 81.95591 
L 118.783552 81.95591 
L 118.894888 81.85075 
L 118.985109 81.745589 
L 119.003537 81.745589 
L 119.119097 81.640428 
L 119.227361 81.545784 
L 119.230049 81.545784 
L 119.26153 81.440623 
L 119.357126 81.26185 
L 119.372482 81.26185 
L 119.572504 81.156689 
L 119.677697 80.998948 
L 119.767918 80.893788 
L 119.878486 80.799143 
L 119.985215 80.693982 
L 120.0954 80.578306 
L 120.301948 80.473145 
L 120.361071 80.410049 
L 120.409445 80.410049 
L 120.547655 80.304888 
L 120.647858 80.199727 
L 120.658608 80.199727 
L 120.842504 80.094567 
L 120.951537 80.052502 
L 121.051356 79.947342 
L 121.16154 79.863213 
L 121.162308 79.863213 
L 121.449479 79.758053 
L 121.554672 79.589796 
L 121.639518 79.484635 
L 121.747783 79.358442 
L 121.750086 79.358442 
L 121.916323 79.253281 
L 122.024588 79.137605 
L 122.026891 79.137605 
L 122.123639 79.032444 
L 122.221538 78.958832 
L 122.234591 78.958832 
L 122.378176 78.853671 
L 122.430389 78.811607 
L 122.488744 78.811607 
L 122.624651 78.706446 
L 122.728693 78.64335 
L 122.731765 78.64335 
L 122.927947 78.538189 
L 123.037747 78.45406 
L 123.038515 78.45406 
L 123.296892 78.3489 
L 123.406308 78.212191 
L 123.56026 78.10703 
L 123.67006 77.949289 
L 123.671212 77.949289 
L 123.815565 77.844129 
L 123.924982 77.770516 
L 124.124235 77.665355 
L 124.204474 77.591743 
L 124.235187 77.591743 
L 124.375701 77.486582 
L 124.452485 77.444518 
L 124.48627 77.444518 
L 124.712781 77.339357 
L 124.772672 77.297293 
L 124.816055 77.297293 
L 125.037576 77.192132 
L 125.103994 77.11852 
L 125.14776 77.11852 
L 125.426485 77.013359 
L 125.497126 76.950263 
L 125.537053 76.950263 
L 125.815394 76.845102 
L 125.922891 76.803038 
L 125.925578 76.803038 
L 126.247685 76.697877 
L 126.346352 76.645297 
L 126.351727 76.645297 
L 126.518347 76.540136 
L 126.622005 76.466524 
L 126.623541 76.466524 
L 126.892667 76.361363 
L 126.945264 76.319299 
L 127.0017 76.319299 
L 127.195579 76.214138 
L 127.304228 76.161558 
L 127.516534 76.056397 
L 127.625183 75.919688 
L 127.625951 75.919688 
L 127.965718 75.814528 
L 128.065153 75.688335 
L 128.075903 75.688335 
L 128.318923 75.583174 
L 128.403385 75.478014 
L 128.428723 75.478014 
L 128.677502 75.372853 
L 128.763884 75.288724 
L 128.786151 75.288724 
L 128.979646 75.183564 
L 129.082536 75.130983 
L 129.090598 75.130983 
L 129.374697 75.025823 
L 129.446874 74.973242 
L 129.484498 74.973242 
L 129.682215 74.868082 
L 129.789329 74.804985 
L 129.792016 74.804985 
L 130.337563 74.699825 
L 130.463105 74.60518 
L 130.641242 74.500019 
L 130.750275 74.468471 
L 130.751427 74.468471 
L 131.501987 74.363311 
L 131.594127 74.300214 
L 131.612939 74.300214 
L 131.905484 74.195054 
L 132.010678 74.131957 
L 132.014133 74.131957 
L 132.276733 74.026796 
L 132.335856 73.995248 
L 132.386917 73.995248 
L 132.649133 73.890088 
L 132.737435 73.837507 
L 132.752023 73.837507 
L 133.228082 73.732347 
L 133.314079 73.690282 
L 133.337114 73.690282 
L 133.892644 73.585122 
L 133.982481 73.532541 
L 133.997069 73.532541 
L 134.262357 73.437897 
L 134.377148 73.364284 
L 134.886991 73.259124 
L 134.886991 73.248608 
L 134.992569 73.248608 
L 135.469779 73.143447 
L 135.541571 73.111899 
L 135.574588 73.111899 
L 135.846786 73.006738 
L 135.902838 72.985706 
L 135.957738 72.985706 
L 136.335514 72.880545 
L 136.34396 72.859513 
L 136.443011 72.859513 
L 137.026566 72.754352 
L 137.079547 72.722804 
L 137.129072 72.722804 
L 137.651201 72.617644 
L 137.753323 72.586095 
L 137.758698 72.586095 
L 138.086948 72.480935 
L 138.146071 72.43887 
L 138.19598 72.43887 
L 138.576059 72.33371 
L 138.620977 72.312678 
L 138.683172 72.312678 
L 139.287075 72.207517 
L 139.376528 72.175969 
L 139.382287 72.175969 
L 139.850283 72.070808 
L 139.850283 72.060292 
L 139.961235 72.060292 
L 140.474917 71.955131 
L 140.547862 71.881519 
L 140.581646 71.881519 
L 141.120283 71.776358 
L 141.227013 71.74481 
L 141.231236 71.74481 
L 142.201012 71.639649 
L 142.270885 71.608101 
L 142.309661 71.608101 
L 142.927385 71.502941 
L 143.032579 71.460876 
L 143.03565 71.460876 
L 143.574287 71.355716 
L 143.651071 71.334684 
L 143.680248 71.334684 
L 144.194315 71.229523 
L 144.266875 71.208491 
L 144.305267 71.208491 
L 144.911857 71.10333 
L 144.927214 71.082298 
L 145.019354 71.082298 
L 146.140395 70.977137 
L 146.156135 70.945589 
L 146.251347 70.945589 
L 146.642175 70.840428 
L 146.713584 70.819396 
L 146.75044 70.819396 
L 147.354343 70.714236 
L 147.464144 70.682687 
L 148.159803 70.577527 
L 148.159803 70.567011 
L 148.266148 70.567011 
L 149.112688 70.46185 
L 149.121902 70.419786 
L 149.220952 70.419786 
L 149.770339 70.314625 
L 149.837141 70.293593 
L 149.879756 70.293593 
L 150.758928 70.188432 
L 150.758928 70.177916 
L 150.869496 70.177916 
L 152.391347 70.072756 
L 152.391347 70.06224 
L 152.50038 70.06224 
L 153.284724 69.957079 
L 153.346535 69.936047 
L 153.391453 69.936047 
L 154.32399 69.830886 
L 154.32399 69.82037 
L 154.434942 69.82037 
L 155.252688 69.715209 
L 155.295686 69.694177 
L 155.362872 69.694177 
L 156.759566 69.589017 
L 156.759566 69.5785 
L 156.86975 69.5785 
L 158.044539 69.47334 
L 158.107118 69.431276 
L 158.154723 69.431276 
L 159.982557 69.326115 
L 159.982557 69.315599 
L 160.092357 69.315599 
L 162.069151 69.210438 
L 162.069151 69.199922 
L 162.179719 69.199922 
L 163.379463 69.094761 
L 163.379463 69.084245 
L 163.487344 69.084245 
L 164.702828 68.979085 
L 164.772701 68.947537 
L 164.811477 68.947537 
L 167.014782 68.842376 
L 167.014782 68.83186 
L 167.123815 68.83186 
L 168.305514 68.726699 
L 168.305514 68.716183 
L 168.41186 68.716183 
L 170.252362 68.611022 
L 170.252362 68.600506 
L 170.362931 68.600506 
L 170.983726 68.495346 
L 170.983726 68.48483 
L 171.094295 68.48483 
L 175.476718 68.379669 
L 175.558877 68.337605 
L 175.586903 68.337605 
L 177.393237 68.232444 
L 177.393237 68.221928 
L 177.503421 68.221928 
L 178.727352 68.116767 
L 178.789546 68.085219 
L 178.836384 68.085219 
L 181.210917 67.980058 
L 181.210917 67.969542 
L 181.311503 67.969542 
L 186.613794 67.864382 
L 186.613794 67.853866 
L 186.722059 67.853866 
L 191.864257 67.748705 
L 191.864257 67.738189 
L 191.969834 67.738189 
L 200.117725 67.633028 
L 200.137305 67.611996 
L 200.228293 67.611996 
L 208.919812 67.506835 
L 208.919812 67.496319 
L 209.028077 67.496319 
L 218.470155 67.391159 
L 218.470155 67.380643 
L 218.58034 67.380643 
L 234.716796 67.275482 
L 234.716796 67.264966 
L 234.827364 67.264966 
L 275.718851 67.159805 
L 275.718851 67.149289 
L 275.828651 67.149289 
L 314.098746 67.044129 
L 314.098746 67.033612 
L 314.208546 67.033612 
L 498.109091 66.96 
L 498.109091 66.96 
" style="fill:none;stroke:#ff0000;stroke-linecap:square;stroke-width:1.5;"/>
   </g>
   <g id="patch_3">
    <path d="M 72 384.48 
L 72 51.84 
" style="fill:none;stroke:#000000;stroke-linecap:square;stroke-linejoin:miter;stroke-width:0.8;"/>
   </g>
   <g id="patch_4">
    <path d="M 518.4 384.48 
L 518.4 51.84 
" style="fill:none;stroke:#000000;stroke-linecap:square;stroke-linejoin:miter;stroke-width:0.8;"/>
   </g>
   <g id="patch_5">
    <path d="M 72 384.48 
L 518.4 384.48 
" style="fill:none;stroke:#000000;stroke-linecap:square;stroke-linejoin:miter;stroke-width:0.8;"/>
   </g>
   <g id="patch_6">
    <path d="M 72 51.84 
L 518.4 51.84 
" style="fill:none;stroke:#000000;stroke-linecap:square;stroke-linejoin:miter;stroke-width:0.8;"/>
   </g>
   <g id="text_15">
    <!-- ROC Curves -->
    <g transform="translate(237.894 45.84)scale(0.192 -0.192)">
     <defs>
      <path d="M 39.40625 66.21875 
Q 28.65625 66.21875 22.328125 58.203125 
Q 16.015625 50.203125 16.015625 36.375 
Q 16.015625 22.609375 22.328125 14.59375 
Q 28.65625 6.59375 39.40625 6.59375 
Q 50.140625 6.59375 56.421875 14.59375 
Q 62.703125 22.609375 62.703125 36.375 
Q 62.703125 50.203125 56.421875 58.203125 
Q 50.140625 66.21875 39.40625 66.21875 
z
M 39.40625 74.21875 
Q 54.734375 74.21875 63.90625 63.9375 
Q 73.09375 53.65625 73.09375 36.375 
Q 73.09375 19.140625 63.90625 8.859375 
Q 54.734375 -1.421875 39.40625 -1.421875 
Q 24.03125 -1.421875 14.8125 8.828125 
Q 5.609375 19.09375 5.609375 36.375 
Q 5.609375 53.65625 14.8125 63.9375 
Q 24.03125 74.21875 39.40625 74.21875 
z
" id="DejaVuSans-79"/>
      <path d="M 64.40625 67.28125 
L 64.40625 56.890625 
Q 59.421875 61.53125 53.78125 63.8125 
Q 48.140625 66.109375 41.796875 66.109375 
Q 29.296875 66.109375 22.65625 58.46875 
Q 16.015625 50.828125 16.015625 36.375 
Q 16.015625 21.96875 22.65625 14.328125 
Q 29.296875 6.6875 41.796875 6.6875 
Q 48.140625 6.6875 53.78125 8.984375 
Q 59.421875 11.28125 64.40625 15.921875 
L 64.40625 5.609375 
Q 59.234375 2.09375 53.4375 0.328125 
Q 47.65625 -1.421875 41.21875 -1.421875 
Q 24.65625 -1.421875 15.125 8.703125 
Q 5.609375 18.84375 5.609375 36.375 
Q 5.609375 53.953125 15.125 64.078125 
Q 24.65625 74.21875 41.21875 74.21875 
Q 47.75 74.21875 53.53125 72.484375 
Q 59.328125 70.75 64.40625 67.28125 
z
" id="DejaVuSans-67"/>
     </defs>
     <use xlink:href="#DejaVuSans-82"/>
     <use x="69.482422" xlink:href="#DejaVuSans-79"/>
     <use x="148.193359" xlink:href="#DejaVuSans-67"/>
     <use x="218.017578" xlink:href="#DejaVuSans-32"/>
     <use x="249.804688" xlink:href="#DejaVuSans-67"/>
     <use x="319.628906" xlink:href="#DejaVuSans-117"/>
     <use x="383.007812" xlink:href="#DejaVuSans-114"/>
     <use x="424.121094" xlink:href="#DejaVuSans-118"/>
     <use x="483.300781" xlink:href="#DejaVuSans-101"/>
     <use x="544.824219" xlink:href="#DejaVuSans-115"/>
    </g>
   </g>
   <g id="legend_1">
    <g id="patch_7">
     <path d="M 388.9825 376.48 
L 507.2 376.48 
Q 510.4 376.48 510.4 373.28 
L 510.4 327.91 
Q 510.4 324.71 507.2 324.71 
L 388.9825 324.71 
Q 385.7825 324.71 385.7825 327.91 
L 385.7825 373.28 
Q 385.7825 376.48 388.9825 376.48 
z
" style="fill:#ffffff;opacity:0.8;stroke:#cccccc;stroke-linejoin:miter;"/>
    </g>
    <g id="line2d_15">
     <path d="M 392.1825 337.6675 
L 424.1825 337.6675 
" style="fill:none;stroke:#0000ff;stroke-linecap:square;stroke-width:1.5;"/>
    </g>
    <g id="line2d_16"/>
    <g id="text_16">
     <!-- baseline -->
     <g transform="translate(436.9825 343.2675)scale(0.16 -0.16)">
      <defs>
       <path d="M 48.6875 27.296875 
Q 48.6875 37.203125 44.609375 42.84375 
Q 40.53125 48.484375 33.40625 48.484375 
Q 26.265625 48.484375 22.1875 42.84375 
Q 18.109375 37.203125 18.109375 27.296875 
Q 18.109375 17.390625 22.1875 11.75 
Q 26.265625 6.109375 33.40625 6.109375 
Q 40.53125 6.109375 44.609375 11.75 
Q 48.6875 17.390625 48.6875 27.296875 
z
M 18.109375 46.390625 
Q 20.953125 51.265625 25.265625 53.625 
Q 29.59375 56 35.59375 56 
Q 45.5625 56 51.78125 48.09375 
Q 58.015625 40.1875 58.015625 27.296875 
Q 58.015625 14.40625 51.78125 6.484375 
Q 45.5625 -1.421875 35.59375 -1.421875 
Q 29.59375 -1.421875 25.265625 0.953125 
Q 20.953125 3.328125 18.109375 8.203125 
L 18.109375 0 
L 9.078125 0 
L 9.078125 75.984375 
L 18.109375 75.984375 
z
" id="DejaVuSans-98"/>
       <path d="M 54.890625 33.015625 
L 54.890625 0 
L 45.90625 0 
L 45.90625 32.71875 
Q 45.90625 40.484375 42.875 44.328125 
Q 39.84375 48.1875 33.796875 48.1875 
Q 26.515625 48.1875 22.3125 43.546875 
Q 18.109375 38.921875 18.109375 30.90625 
L 18.109375 0 
L 9.078125 0 
L 9.078125 54.6875 
L 18.109375 54.6875 
L 18.109375 46.1875 
Q 21.34375 51.125 25.703125 53.5625 
Q 30.078125 56 35.796875 56 
Q 45.21875 56 50.046875 50.171875 
Q 54.890625 44.34375 54.890625 33.015625 
z
" id="DejaVuSans-110"/>
      </defs>
      <use xlink:href="#DejaVuSans-98"/>
      <use x="63.476562" xlink:href="#DejaVuSans-97"/>
      <use x="124.755859" xlink:href="#DejaVuSans-115"/>
      <use x="176.855469" xlink:href="#DejaVuSans-101"/>
      <use x="238.378906" xlink:href="#DejaVuSans-108"/>
      <use x="266.162109" xlink:href="#DejaVuSans-105"/>
      <use x="293.945312" xlink:href="#DejaVuSans-110"/>
      <use x="357.324219" xlink:href="#DejaVuSans-101"/>
     </g>
    </g>
    <g id="line2d_17">
     <path d="M 392.1825 361.1525 
L 424.1825 361.1525 
" style="fill:none;stroke:#ff0000;stroke-linecap:square;stroke-width:1.5;"/>
    </g>
    <g id="line2d_18"/>
    <g id="text_17">
     <!-- model -->
     <g transform="translate(436.9825 366.7525)scale(0.16 -0.16)">
      <defs>
       <path d="M 52 44.1875 
Q 55.375 50.25 60.0625 53.125 
Q 64.75 56 71.09375 56 
Q 79.640625 56 84.28125 50.015625 
Q 88.921875 44.046875 88.921875 33.015625 
L 88.921875 0 
L 79.890625 0 
L 79.890625 32.71875 
Q 79.890625 40.578125 77.09375 44.375 
Q 74.3125 48.1875 68.609375 48.1875 
Q 61.625 48.1875 57.5625 43.546875 
Q 53.515625 38.921875 53.515625 30.90625 
L 53.515625 0 
L 44.484375 0 
L 44.484375 32.71875 
Q 44.484375 40.625 41.703125 44.40625 
Q 38.921875 48.1875 33.109375 48.1875 
Q 26.21875 48.1875 22.15625 43.53125 
Q 18.109375 38.875 18.109375 30.90625 
L 18.109375 0 
L 9.078125 0 
L 9.078125 54.6875 
L 18.109375 54.6875 
L 18.109375 46.1875 
Q 21.1875 51.21875 25.484375 53.609375 
Q 29.78125 56 35.6875 56 
Q 41.65625 56 45.828125 52.96875 
Q 50 49.953125 52 44.1875 
z
" id="DejaVuSans-109"/>
       <path d="M 45.40625 46.390625 
L 45.40625 75.984375 
L 54.390625 75.984375 
L 54.390625 0 
L 45.40625 0 
L 45.40625 8.203125 
Q 42.578125 3.328125 38.25 0.953125 
Q 33.9375 -1.421875 27.875 -1.421875 
Q 17.96875 -1.421875 11.734375 6.484375 
Q 5.515625 14.40625 5.515625 27.296875 
Q 5.515625 40.1875 11.734375 48.09375 
Q 17.96875 56 27.875 56 
Q 33.9375 56 38.25 53.625 
Q 42.578125 51.265625 45.40625 46.390625 
z
M 14.796875 27.296875 
Q 14.796875 17.390625 18.875 11.75 
Q 22.953125 6.109375 30.078125 6.109375 
Q 37.203125 6.109375 41.296875 11.75 
Q 45.40625 17.390625 45.40625 27.296875 
Q 45.40625 37.203125 41.296875 42.84375 
Q 37.203125 48.484375 30.078125 48.484375 
Q 22.953125 48.484375 18.875 42.84375 
Q 14.796875 37.203125 14.796875 27.296875 
z
" id="DejaVuSans-100"/>
      </defs>
      <use xlink:href="#DejaVuSans-109"/>
      <use x="97.412109" xlink:href="#DejaVuSans-111"/>
      <use x="158.59375" xlink:href="#DejaVuSans-100"/>
      <use x="222.070312" xlink:href="#DejaVuSans-101"/>
      <use x="283.59375" xlink:href="#DejaVuSans-108"/>
     </g>
    </g>
   </g>
  </g>
 </g>
 <defs>
  <clipPath id="pee38ba3168">
   <rect height="332.64" width="446.4" x="72" y="51.84"/>
  </clipPath>
 </defs>
</svg>
