<?xml version="1.0" encoding="utf-8" standalone="no"?>
<!DOCTYPE svg PUBLIC "-//W3C//DTD SVG 1.1//EN"
  "http://www.w3.org/Graphics/SVG/1.1/DTD/svg11.dtd">
<!-- Created with matplotlib (https://matplotlib.org/) -->
<svg height="432pt" version="1.1" viewBox="0 0 576 432" width="576pt" xmlns="http://www.w3.org/2000/svg" xmlns:xlink="http://www.w3.org/1999/xlink">
 <metadata>
  <rdf:RDF xmlns:cc="http://creativecommons.org/ns#" xmlns:dc="http://purl.org/dc/elements/1.1/" xmlns:rdf="http://www.w3.org/1999/02/22-rdf-syntax-ns#">
   <cc:Work>
    <dc:type rdf:resource="http://purl.org/dc/dcmitype/StillImage"/>
    <dc:date>2020-09-26T10:53:06.423767</dc:date>
    <dc:format>image/svg+xml</dc:format>
    <dc:creator>
     <cc:Agent>
      <dc:title>Matplotlib v3.3.0, https://matplotlib.org/</dc:title>
     </cc:Agent>
    </dc:creator>
   </cc:Work>
  </rdf:RDF>
 </metadata>
 <defs>
  <style type="text/css">*{stroke-linecap:butt;stroke-linejoin:round;}</style>
 </defs>
 <g id="figure_1">
  <g id="patch_1">
   <path d="M 0 432 
L 576 432 
L 576 0 
L 0 0 
z
" style="fill:#ffffff;"/>
  </g>
  <g id="axes_1">
   <g id="patch_2">
    <path d="M 72 384.48 
L 518.4 384.48 
L 518.4 51.84 
L 72 51.84 
z
" style="fill:#ffffff;"/>
   </g>
   <g id="matplotlib.axis_1">
    <g id="xtick_1">
     <g id="line2d_1">
      <defs>
       <path d="M 0 0 
L 0 3.5 
" id="m011449f3cc" style="stroke:#000000;stroke-width:0.8;"/>
      </defs>
      <g>
       <use style="stroke:#000000;stroke-width:0.8;" x="92.290909" xlink:href="#m011449f3cc" y="384.48"/>
      </g>
     </g>
     <g id="text_1">
      <!-- 0.0 -->
      <g transform="translate(79.568409 403.6375)scale(0.16 -0.16)">
       <defs>
        <path d="M 31.78125 66.40625 
Q 24.171875 66.40625 20.328125 58.90625 
Q 16.5 51.421875 16.5 36.375 
Q 16.5 21.390625 20.328125 13.890625 
Q 24.171875 6.390625 31.78125 6.390625 
Q 39.453125 6.390625 43.28125 13.890625 
Q 47.125 21.390625 47.125 36.375 
Q 47.125 51.421875 43.28125 58.90625 
Q 39.453125 66.40625 31.78125 66.40625 
z
M 31.78125 74.21875 
Q 44.046875 74.21875 50.515625 64.515625 
Q 56.984375 54.828125 56.984375 36.375 
Q 56.984375 17.96875 50.515625 8.265625 
Q 44.046875 -1.421875 31.78125 -1.421875 
Q 19.53125 -1.421875 13.0625 8.265625 
Q 6.59375 17.96875 6.59375 36.375 
Q 6.59375 54.828125 13.0625 64.515625 
Q 19.53125 74.21875 31.78125 74.21875 
z
" id="DejaVuSans-48"/>
        <path d="M 10.6875 12.40625 
L 21 12.40625 
L 21 0 
L 10.6875 0 
z
" id="DejaVuSans-46"/>
       </defs>
       <use xlink:href="#DejaVuSans-48"/>
       <use x="63.623047" xlink:href="#DejaVuSans-46"/>
       <use x="95.410156" xlink:href="#DejaVuSans-48"/>
      </g>
     </g>
    </g>
    <g id="xtick_2">
     <g id="line2d_2">
      <g>
       <use style="stroke:#000000;stroke-width:0.8;" x="173.454545" xlink:href="#m011449f3cc" y="384.48"/>
      </g>
     </g>
     <g id="text_2">
      <!-- 0.2 -->
      <g transform="translate(160.732045 403.6375)scale(0.16 -0.16)">
       <defs>
        <path d="M 19.1875 8.296875 
L 53.609375 8.296875 
L 53.609375 0 
L 7.328125 0 
L 7.328125 8.296875 
Q 12.9375 14.109375 22.625 23.890625 
Q 32.328125 33.6875 34.8125 36.53125 
Q 39.546875 41.84375 41.421875 45.53125 
Q 43.3125 49.21875 43.3125 52.78125 
Q 43.3125 58.59375 39.234375 62.25 
Q 35.15625 65.921875 28.609375 65.921875 
Q 23.96875 65.921875 18.8125 64.3125 
Q 13.671875 62.703125 7.8125 59.421875 
L 7.8125 69.390625 
Q 13.765625 71.78125 18.9375 73 
Q 24.125 74.21875 28.421875 74.21875 
Q 39.75 74.21875 46.484375 68.546875 
Q 53.21875 62.890625 53.21875 53.421875 
Q 53.21875 48.921875 51.53125 44.890625 
Q 49.859375 40.875 45.40625 35.40625 
Q 44.1875 33.984375 37.640625 27.21875 
Q 31.109375 20.453125 19.1875 8.296875 
z
" id="DejaVuSans-50"/>
       </defs>
       <use xlink:href="#DejaVuSans-48"/>
       <use x="63.623047" xlink:href="#DejaVuSans-46"/>
       <use x="95.410156" xlink:href="#DejaVuSans-50"/>
      </g>
     </g>
    </g>
    <g id="xtick_3">
     <g id="line2d_3">
      <g>
       <use style="stroke:#000000;stroke-width:0.8;" x="254.618182" xlink:href="#m011449f3cc" y="384.48"/>
      </g>
     </g>
     <g id="text_3">
      <!-- 0.4 -->
      <g transform="translate(241.895682 403.6375)scale(0.16 -0.16)">
       <defs>
        <path d="M 37.796875 64.3125 
L 12.890625 25.390625 
L 37.796875 25.390625 
z
M 35.203125 72.90625 
L 47.609375 72.90625 
L 47.609375 25.390625 
L 58.015625 25.390625 
L 58.015625 17.1875 
L 47.609375 17.1875 
L 47.609375 0 
L 37.796875 0 
L 37.796875 17.1875 
L 4.890625 17.1875 
L 4.890625 26.703125 
z
" id="DejaVuSans-52"/>
       </defs>
       <use xlink:href="#DejaVuSans-48"/>
       <use x="63.623047" xlink:href="#DejaVuSans-46"/>
       <use x="95.410156" xlink:href="#DejaVuSans-52"/>
      </g>
     </g>
    </g>
    <g id="xtick_4">
     <g id="line2d_4">
      <g>
       <use style="stroke:#000000;stroke-width:0.8;" x="335.781818" xlink:href="#m011449f3cc" y="384.48"/>
      </g>
     </g>
     <g id="text_4">
      <!-- 0.6 -->
      <g transform="translate(323.059318 403.6375)scale(0.16 -0.16)">
       <defs>
        <path d="M 33.015625 40.375 
Q 26.375 40.375 22.484375 35.828125 
Q 18.609375 31.296875 18.609375 23.390625 
Q 18.609375 15.53125 22.484375 10.953125 
Q 26.375 6.390625 33.015625 6.390625 
Q 39.65625 6.390625 43.53125 10.953125 
Q 47.40625 15.53125 47.40625 23.390625 
Q 47.40625 31.296875 43.53125 35.828125 
Q 39.65625 40.375 33.015625 40.375 
z
M 52.59375 71.296875 
L 52.59375 62.3125 
Q 48.875 64.0625 45.09375 64.984375 
Q 41.3125 65.921875 37.59375 65.921875 
Q 27.828125 65.921875 22.671875 59.328125 
Q 17.53125 52.734375 16.796875 39.40625 
Q 19.671875 43.65625 24.015625 45.921875 
Q 28.375 48.1875 33.59375 48.1875 
Q 44.578125 48.1875 50.953125 41.515625 
Q 57.328125 34.859375 57.328125 23.390625 
Q 57.328125 12.15625 50.6875 5.359375 
Q 44.046875 -1.421875 33.015625 -1.421875 
Q 20.359375 -1.421875 13.671875 8.265625 
Q 6.984375 17.96875 6.984375 36.375 
Q 6.984375 53.65625 15.1875 63.9375 
Q 23.390625 74.21875 37.203125 74.21875 
Q 40.921875 74.21875 44.703125 73.484375 
Q 48.484375 72.75 52.59375 71.296875 
z
" id="DejaVuSans-54"/>
       </defs>
       <use xlink:href="#DejaVuSans-48"/>
       <use x="63.623047" xlink:href="#DejaVuSans-46"/>
       <use x="95.410156" xlink:href="#DejaVuSans-54"/>
      </g>
     </g>
    </g>
    <g id="xtick_5">
     <g id="line2d_5">
      <g>
       <use style="stroke:#000000;stroke-width:0.8;" x="416.945455" xlink:href="#m011449f3cc" y="384.48"/>
      </g>
     </g>
     <g id="text_5">
      <!-- 0.8 -->
      <g transform="translate(404.222955 403.6375)scale(0.16 -0.16)">
       <defs>
        <path d="M 31.78125 34.625 
Q 24.75 34.625 20.71875 30.859375 
Q 16.703125 27.09375 16.703125 20.515625 
Q 16.703125 13.921875 20.71875 10.15625 
Q 24.75 6.390625 31.78125 6.390625 
Q 38.8125 6.390625 42.859375 10.171875 
Q 46.921875 13.96875 46.921875 20.515625 
Q 46.921875 27.09375 42.890625 30.859375 
Q 38.875 34.625 31.78125 34.625 
z
M 21.921875 38.8125 
Q 15.578125 40.375 12.03125 44.71875 
Q 8.5 49.078125 8.5 55.328125 
Q 8.5 64.0625 14.71875 69.140625 
Q 20.953125 74.21875 31.78125 74.21875 
Q 42.671875 74.21875 48.875 69.140625 
Q 55.078125 64.0625 55.078125 55.328125 
Q 55.078125 49.078125 51.53125 44.71875 
Q 48 40.375 41.703125 38.8125 
Q 48.828125 37.15625 52.796875 32.3125 
Q 56.78125 27.484375 56.78125 20.515625 
Q 56.78125 9.90625 50.3125 4.234375 
Q 43.84375 -1.421875 31.78125 -1.421875 
Q 19.734375 -1.421875 13.25 4.234375 
Q 6.78125 9.90625 6.78125 20.515625 
Q 6.78125 27.484375 10.78125 32.3125 
Q 14.796875 37.15625 21.921875 38.8125 
z
M 18.3125 54.390625 
Q 18.3125 48.734375 21.84375 45.5625 
Q 25.390625 42.390625 31.78125 42.390625 
Q 38.140625 42.390625 41.71875 45.5625 
Q 45.3125 48.734375 45.3125 54.390625 
Q 45.3125 60.0625 41.71875 63.234375 
Q 38.140625 66.40625 31.78125 66.40625 
Q 25.390625 66.40625 21.84375 63.234375 
Q 18.3125 60.0625 18.3125 54.390625 
z
" id="DejaVuSans-56"/>
       </defs>
       <use xlink:href="#DejaVuSans-48"/>
       <use x="63.623047" xlink:href="#DejaVuSans-46"/>
       <use x="95.410156" xlink:href="#DejaVuSans-56"/>
      </g>
     </g>
    </g>
    <g id="xtick_6">
     <g id="line2d_6">
      <g>
       <use style="stroke:#000000;stroke-width:0.8;" x="498.109091" xlink:href="#m011449f3cc" y="384.48"/>
      </g>
     </g>
     <g id="text_6">
      <!-- 1.0 -->
      <g transform="translate(485.386591 403.6375)scale(0.16 -0.16)">
       <defs>
        <path d="M 12.40625 8.296875 
L 28.515625 8.296875 
L 28.515625 63.921875 
L 10.984375 60.40625 
L 10.984375 69.390625 
L 28.421875 72.90625 
L 38.28125 72.90625 
L 38.28125 8.296875 
L 54.390625 8.296875 
L 54.390625 0 
L 12.40625 0 
z
" id="DejaVuSans-49"/>
       </defs>
       <use xlink:href="#DejaVuSans-49"/>
       <use x="63.623047" xlink:href="#DejaVuSans-46"/>
       <use x="95.410156" xlink:href="#DejaVuSans-48"/>
      </g>
     </g>
    </g>
    <g id="text_7">
     <!-- False Positive Rate -->
     <g transform="translate(220.85375 423.1225)scale(0.16 -0.16)">
      <defs>
       <path d="M 9.8125 72.90625 
L 51.703125 72.90625 
L 51.703125 64.59375 
L 19.671875 64.59375 
L 19.671875 43.109375 
L 48.578125 43.109375 
L 48.578125 34.8125 
L 19.671875 34.8125 
L 19.671875 0 
L 9.8125 0 
z
" id="DejaVuSans-70"/>
       <path d="M 34.28125 27.484375 
Q 23.390625 27.484375 19.1875 25 
Q 14.984375 22.515625 14.984375 16.5 
Q 14.984375 11.71875 18.140625 8.90625 
Q 21.296875 6.109375 26.703125 6.109375 
Q 34.1875 6.109375 38.703125 11.40625 
Q 43.21875 16.703125 43.21875 25.484375 
L 43.21875 27.484375 
z
M 52.203125 31.203125 
L 52.203125 0 
L 43.21875 0 
L 43.21875 8.296875 
Q 40.140625 3.328125 35.546875 0.953125 
Q 30.953125 -1.421875 24.3125 -1.421875 
Q 15.921875 -1.421875 10.953125 3.296875 
Q 6 8.015625 6 15.921875 
Q 6 25.140625 12.171875 29.828125 
Q 18.359375 34.515625 30.609375 34.515625 
L 43.21875 34.515625 
L 43.21875 35.40625 
Q 43.21875 41.609375 39.140625 45 
Q 35.0625 48.390625 27.6875 48.390625 
Q 23 48.390625 18.546875 47.265625 
Q 14.109375 46.140625 10.015625 43.890625 
L 10.015625 52.203125 
Q 14.9375 54.109375 19.578125 55.046875 
Q 24.21875 56 28.609375 56 
Q 40.484375 56 46.34375 49.84375 
Q 52.203125 43.703125 52.203125 31.203125 
z
" id="DejaVuSans-97"/>
       <path d="M 9.421875 75.984375 
L 18.40625 75.984375 
L 18.40625 0 
L 9.421875 0 
z
" id="DejaVuSans-108"/>
       <path d="M 44.28125 53.078125 
L 44.28125 44.578125 
Q 40.484375 46.53125 36.375 47.5 
Q 32.28125 48.484375 27.875 48.484375 
Q 21.1875 48.484375 17.84375 46.4375 
Q 14.5 44.390625 14.5 40.28125 
Q 14.5 37.15625 16.890625 35.375 
Q 19.28125 33.59375 26.515625 31.984375 
L 29.59375 31.296875 
Q 39.15625 29.25 43.1875 25.515625 
Q 47.21875 21.78125 47.21875 15.09375 
Q 47.21875 7.46875 41.1875 3.015625 
Q 35.15625 -1.421875 24.609375 -1.421875 
Q 20.21875 -1.421875 15.453125 -0.5625 
Q 10.6875 0.296875 5.421875 2 
L 5.421875 11.28125 
Q 10.40625 8.6875 15.234375 7.390625 
Q 20.0625 6.109375 24.8125 6.109375 
Q 31.15625 6.109375 34.5625 8.28125 
Q 37.984375 10.453125 37.984375 14.40625 
Q 37.984375 18.0625 35.515625 20.015625 
Q 33.0625 21.96875 24.703125 23.78125 
L 21.578125 24.515625 
Q 13.234375 26.265625 9.515625 29.90625 
Q 5.8125 33.546875 5.8125 39.890625 
Q 5.8125 47.609375 11.28125 51.796875 
Q 16.75 56 26.8125 56 
Q 31.78125 56 36.171875 55.265625 
Q 40.578125 54.546875 44.28125 53.078125 
z
" id="DejaVuSans-115"/>
       <path d="M 56.203125 29.59375 
L 56.203125 25.203125 
L 14.890625 25.203125 
Q 15.484375 15.921875 20.484375 11.0625 
Q 25.484375 6.203125 34.421875 6.203125 
Q 39.59375 6.203125 44.453125 7.46875 
Q 49.3125 8.734375 54.109375 11.28125 
L 54.109375 2.78125 
Q 49.265625 0.734375 44.1875 -0.34375 
Q 39.109375 -1.421875 33.890625 -1.421875 
Q 20.796875 -1.421875 13.15625 6.1875 
Q 5.515625 13.8125 5.515625 26.8125 
Q 5.515625 40.234375 12.765625 48.109375 
Q 20.015625 56 32.328125 56 
Q 43.359375 56 49.78125 48.890625 
Q 56.203125 41.796875 56.203125 29.59375 
z
M 47.21875 32.234375 
Q 47.125 39.59375 43.09375 43.984375 
Q 39.0625 48.390625 32.421875 48.390625 
Q 24.90625 48.390625 20.390625 44.140625 
Q 15.875 39.890625 15.1875 32.171875 
z
" id="DejaVuSans-101"/>
       <path id="DejaVuSans-32"/>
       <path d="M 19.671875 64.796875 
L 19.671875 37.40625 
L 32.078125 37.40625 
Q 38.96875 37.40625 42.71875 40.96875 
Q 46.484375 44.53125 46.484375 51.125 
Q 46.484375 57.671875 42.71875 61.234375 
Q 38.96875 64.796875 32.078125 64.796875 
z
M 9.8125 72.90625 
L 32.078125 72.90625 
Q 44.34375 72.90625 50.609375 67.359375 
Q 56.890625 61.8125 56.890625 51.125 
Q 56.890625 40.328125 50.609375 34.8125 
Q 44.34375 29.296875 32.078125 29.296875 
L 19.671875 29.296875 
L 19.671875 0 
L 9.8125 0 
z
" id="DejaVuSans-80"/>
       <path d="M 30.609375 48.390625 
Q 23.390625 48.390625 19.1875 42.75 
Q 14.984375 37.109375 14.984375 27.296875 
Q 14.984375 17.484375 19.15625 11.84375 
Q 23.34375 6.203125 30.609375 6.203125 
Q 37.796875 6.203125 41.984375 11.859375 
Q 46.1875 17.53125 46.1875 27.296875 
Q 46.1875 37.015625 41.984375 42.703125 
Q 37.796875 48.390625 30.609375 48.390625 
z
M 30.609375 56 
Q 42.328125 56 49.015625 48.375 
Q 55.71875 40.765625 55.71875 27.296875 
Q 55.71875 13.875 49.015625 6.21875 
Q 42.328125 -1.421875 30.609375 -1.421875 
Q 18.84375 -1.421875 12.171875 6.21875 
Q 5.515625 13.875 5.515625 27.296875 
Q 5.515625 40.765625 12.171875 48.375 
Q 18.84375 56 30.609375 56 
z
" id="DejaVuSans-111"/>
       <path d="M 9.421875 54.6875 
L 18.40625 54.6875 
L 18.40625 0 
L 9.421875 0 
z
M 9.421875 75.984375 
L 18.40625 75.984375 
L 18.40625 64.59375 
L 9.421875 64.59375 
z
" id="DejaVuSans-105"/>
       <path d="M 18.3125 70.21875 
L 18.3125 54.6875 
L 36.8125 54.6875 
L 36.8125 47.703125 
L 18.3125 47.703125 
L 18.3125 18.015625 
Q 18.3125 11.328125 20.140625 9.421875 
Q 21.96875 7.515625 27.59375 7.515625 
L 36.8125 7.515625 
L 36.8125 0 
L 27.59375 0 
Q 17.1875 0 13.234375 3.875 
Q 9.28125 7.765625 9.28125 18.015625 
L 9.28125 47.703125 
L 2.6875 47.703125 
L 2.6875 54.6875 
L 9.28125 54.6875 
L 9.28125 70.21875 
z
" id="DejaVuSans-116"/>
       <path d="M 2.984375 54.6875 
L 12.5 54.6875 
L 29.59375 8.796875 
L 46.6875 54.6875 
L 56.203125 54.6875 
L 35.6875 0 
L 23.484375 0 
z
" id="DejaVuSans-118"/>
       <path d="M 44.390625 34.1875 
Q 47.5625 33.109375 50.5625 29.59375 
Q 53.5625 26.078125 56.59375 19.921875 
L 66.609375 0 
L 56 0 
L 46.6875 18.703125 
Q 43.0625 26.03125 39.671875 28.421875 
Q 36.28125 30.8125 30.421875 30.8125 
L 19.671875 30.8125 
L 19.671875 0 
L 9.8125 0 
L 9.8125 72.90625 
L 32.078125 72.90625 
Q 44.578125 72.90625 50.734375 67.671875 
Q 56.890625 62.453125 56.890625 51.90625 
Q 56.890625 45.015625 53.6875 40.46875 
Q 50.484375 35.9375 44.390625 34.1875 
z
M 19.671875 64.796875 
L 19.671875 38.921875 
L 32.078125 38.921875 
Q 39.203125 38.921875 42.84375 42.21875 
Q 46.484375 45.515625 46.484375 51.90625 
Q 46.484375 58.296875 42.84375 61.546875 
Q 39.203125 64.796875 32.078125 64.796875 
z
" id="DejaVuSans-82"/>
      </defs>
      <use xlink:href="#DejaVuSans-70"/>
      <use x="48.394531" xlink:href="#DejaVuSans-97"/>
      <use x="109.673828" xlink:href="#DejaVuSans-108"/>
      <use x="137.457031" xlink:href="#DejaVuSans-115"/>
      <use x="189.556641" xlink:href="#DejaVuSans-101"/>
      <use x="251.080078" xlink:href="#DejaVuSans-32"/>
      <use x="282.867188" xlink:href="#DejaVuSans-80"/>
      <use x="339.544922" xlink:href="#DejaVuSans-111"/>
      <use x="400.726562" xlink:href="#DejaVuSans-115"/>
      <use x="452.826172" xlink:href="#DejaVuSans-105"/>
      <use x="480.609375" xlink:href="#DejaVuSans-116"/>
      <use x="519.818359" xlink:href="#DejaVuSans-105"/>
      <use x="547.601562" xlink:href="#DejaVuSans-118"/>
      <use x="606.78125" xlink:href="#DejaVuSans-101"/>
      <use x="668.304688" xlink:href="#DejaVuSans-32"/>
      <use x="700.091797" xlink:href="#DejaVuSans-82"/>
      <use x="767.324219" xlink:href="#DejaVuSans-97"/>
      <use x="828.603516" xlink:href="#DejaVuSans-116"/>
      <use x="867.8125" xlink:href="#DejaVuSans-101"/>
     </g>
    </g>
   </g>
   <g id="matplotlib.axis_2">
    <g id="ytick_1">
     <g id="line2d_7">
      <defs>
       <path d="M 0 0 
L -3.5 0 
" id="m604fb458c7" style="stroke:#000000;stroke-width:0.8;"/>
      </defs>
      <g>
       <use style="stroke:#000000;stroke-width:0.8;" x="72" xlink:href="#m604fb458c7" y="369.36"/>
      </g>
     </g>
     <g id="text_8">
      <!-- 0.0 -->
      <g transform="translate(39.555 375.43875)scale(0.16 -0.16)">
       <use xlink:href="#DejaVuSans-48"/>
       <use x="63.623047" xlink:href="#DejaVuSans-46"/>
       <use x="95.410156" xlink:href="#DejaVuSans-48"/>
      </g>
     </g>
    </g>
    <g id="ytick_2">
     <g id="line2d_8">
      <g>
       <use style="stroke:#000000;stroke-width:0.8;" x="72" xlink:href="#m604fb458c7" y="308.88"/>
      </g>
     </g>
     <g id="text_9">
      <!-- 0.2 -->
      <g transform="translate(39.555 314.95875)scale(0.16 -0.16)">
       <use xlink:href="#DejaVuSans-48"/>
       <use x="63.623047" xlink:href="#DejaVuSans-46"/>
       <use x="95.410156" xlink:href="#DejaVuSans-50"/>
      </g>
     </g>
    </g>
    <g id="ytick_3">
     <g id="line2d_9">
      <g>
       <use style="stroke:#000000;stroke-width:0.8;" x="72" xlink:href="#m604fb458c7" y="248.4"/>
      </g>
     </g>
     <g id="text_10">
      <!-- 0.4 -->
      <g transform="translate(39.555 254.47875)scale(0.16 -0.16)">
       <use xlink:href="#DejaVuSans-48"/>
       <use x="63.623047" xlink:href="#DejaVuSans-46"/>
       <use x="95.410156" xlink:href="#DejaVuSans-52"/>
      </g>
     </g>
    </g>
    <g id="ytick_4">
     <g id="line2d_10">
      <g>
       <use style="stroke:#000000;stroke-width:0.8;" x="72" xlink:href="#m604fb458c7" y="187.92"/>
      </g>
     </g>
     <g id="text_11">
      <!-- 0.6 -->
      <g transform="translate(39.555 193.99875)scale(0.16 -0.16)">
       <use xlink:href="#DejaVuSans-48"/>
       <use x="63.623047" xlink:href="#DejaVuSans-46"/>
       <use x="95.410156" xlink:href="#DejaVuSans-54"/>
      </g>
     </g>
    </g>
    <g id="ytick_5">
     <g id="line2d_11">
      <g>
       <use style="stroke:#000000;stroke-width:0.8;" x="72" xlink:href="#m604fb458c7" y="127.44"/>
      </g>
     </g>
     <g id="text_12">
      <!-- 0.8 -->
      <g transform="translate(39.555 133.51875)scale(0.16 -0.16)">
       <use xlink:href="#DejaVuSans-48"/>
       <use x="63.623047" xlink:href="#DejaVuSans-46"/>
       <use x="95.410156" xlink:href="#DejaVuSans-56"/>
      </g>
     </g>
    </g>
    <g id="ytick_6">
     <g id="line2d_12">
      <g>
       <use style="stroke:#000000;stroke-width:0.8;" x="72" xlink:href="#m604fb458c7" y="66.96"/>
      </g>
     </g>
     <g id="text_13">
      <!-- 1.0 -->
      <g transform="translate(39.555 73.03875)scale(0.16 -0.16)">
       <use xlink:href="#DejaVuSans-49"/>
       <use x="63.623047" xlink:href="#DejaVuSans-46"/>
       <use x="95.410156" xlink:href="#DejaVuSans-48"/>
      </g>
     </g>
    </g>
    <g id="text_14">
     <!-- True Positive Rate -->
     <g transform="translate(32.2275 289.4075)rotate(-90)scale(0.16 -0.16)">
      <defs>
       <path d="M -0.296875 72.90625 
L 61.375 72.90625 
L 61.375 64.59375 
L 35.5 64.59375 
L 35.5 0 
L 25.59375 0 
L 25.59375 64.59375 
L -0.296875 64.59375 
z
" id="DejaVuSans-84"/>
       <path d="M 41.109375 46.296875 
Q 39.59375 47.171875 37.8125 47.578125 
Q 36.03125 48 33.890625 48 
Q 26.265625 48 22.1875 43.046875 
Q 18.109375 38.09375 18.109375 28.8125 
L 18.109375 0 
L 9.078125 0 
L 9.078125 54.6875 
L 18.109375 54.6875 
L 18.109375 46.1875 
Q 20.953125 51.171875 25.484375 53.578125 
Q 30.03125 56 36.53125 56 
Q 37.453125 56 38.578125 55.875 
Q 39.703125 55.765625 41.0625 55.515625 
z
" id="DejaVuSans-114"/>
       <path d="M 8.5 21.578125 
L 8.5 54.6875 
L 17.484375 54.6875 
L 17.484375 21.921875 
Q 17.484375 14.15625 20.5 10.265625 
Q 23.53125 6.390625 29.59375 6.390625 
Q 36.859375 6.390625 41.078125 11.03125 
Q 45.3125 15.671875 45.3125 23.6875 
L 45.3125 54.6875 
L 54.296875 54.6875 
L 54.296875 0 
L 45.3125 0 
L 45.3125 8.40625 
Q 42.046875 3.421875 37.71875 1 
Q 33.40625 -1.421875 27.6875 -1.421875 
Q 18.265625 -1.421875 13.375 4.4375 
Q 8.5 10.296875 8.5 21.578125 
z
M 31.109375 56 
z
" id="DejaVuSans-117"/>
      </defs>
      <use xlink:href="#DejaVuSans-84"/>
      <use x="46.333984" xlink:href="#DejaVuSans-114"/>
      <use x="87.447266" xlink:href="#DejaVuSans-117"/>
      <use x="150.826172" xlink:href="#DejaVuSans-101"/>
      <use x="212.349609" xlink:href="#DejaVuSans-32"/>
      <use x="244.136719" xlink:href="#DejaVuSans-80"/>
      <use x="300.814453" xlink:href="#DejaVuSans-111"/>
      <use x="361.996094" xlink:href="#DejaVuSans-115"/>
      <use x="414.095703" xlink:href="#DejaVuSans-105"/>
      <use x="441.878906" xlink:href="#DejaVuSans-116"/>
      <use x="481.087891" xlink:href="#DejaVuSans-105"/>
      <use x="508.871094" xlink:href="#DejaVuSans-118"/>
      <use x="568.050781" xlink:href="#DejaVuSans-101"/>
      <use x="629.574219" xlink:href="#DejaVuSans-32"/>
      <use x="661.361328" xlink:href="#DejaVuSans-82"/>
      <use x="728.59375" xlink:href="#DejaVuSans-97"/>
      <use x="789.873047" xlink:href="#DejaVuSans-116"/>
      <use x="829.082031" xlink:href="#DejaVuSans-101"/>
     </g>
    </g>
   </g>
   <g id="line2d_13">
    <path clip-path="url(#pe6b666fe2e)" d="M 92.290909 369.36 
L 498.109091 66.96 
" style="fill:none;stroke:#0000ff;stroke-linecap:square;stroke-width:1.5;"/>
   </g>
   <g id="line2d_14">
    <path clip-path="url(#pe6b666fe2e)" d="M 92.290909 369.36 
L 92.401698 341.847238 
L 92.402876 341.738492 
L 92.513665 321.385801 
L 92.514058 321.385801 
L 92.514058 321.294225 
L 92.624846 303.820445 
L 92.626025 303.774657 
L 92.736813 289.013805 
L 92.737992 288.905059 
L 92.848781 275.935656 
L 92.850352 275.889868 
L 92.960748 264.889342 
L 92.962712 264.80349 
L 93.073501 255.49139 
L 93.076644 255.394091 
L 93.187039 245.835882 
L 93.188611 245.750029 
L 93.299399 237.891693 
L 93.301757 237.805841 
L 93.301757 237.78867 
L 93.412545 231.0922 
L 93.413331 230.994901 
L 93.52412 224.945184 
L 93.528441 224.836438 
L 93.63923 218.826785 
L 93.641194 218.73521 
L 93.751983 213.309352 
L 93.755518 213.212053 
L 93.866307 207.900664 
L 93.869057 207.797642 
L 93.979846 203.081495 
L 93.982989 202.995643 
L 94.093777 199.052166 
L 94.098099 198.94342 
L 94.208887 194.702322 
L 94.212423 194.593576 
L 94.323212 190.53563 
L 94.327533 190.426884 
L 94.438322 186.540642 
L 94.441072 186.437619 
L 94.55186 183.2153 
L 94.556575 183.123725 
L 94.666971 179.838448 
L 94.672471 179.729702 
L 94.783259 176.146804 
L 94.788367 176.043782 
L 94.899155 173.050402 
L 94.904655 172.941656 
L 95.015444 169.684997 
L 95.017801 169.581974 
L 95.128197 167.223901 
L 95.130161 167.138049 
L 95.240557 164.699847 
L 95.24645 164.596824 
L 95.357238 161.975471 
L 95.363524 161.878172 
L 95.474313 159.628845 
L 95.479027 159.542992 
L 95.589816 156.807169 
L 95.595316 156.698423 
L 95.705712 154.895528 
L 95.715926 154.792505 
L 95.826715 152.657647 
L 95.831429 152.560348 
L 95.942218 150.625812 
L 95.946539 150.52279 
L 96.056935 148.531019 
L 96.0644 148.422273 
L 96.174795 146.464843 
L 96.18226 146.367544 
L 96.293048 144.37005 
L 96.299727 144.261304 
L 96.410516 142.39545 
L 96.422695 142.292427 
L 96.533483 140.512425 
L 96.541733 140.403679 
L 96.652129 138.70953 
L 96.660772 138.623677 
L 96.660772 138.606507 
L 96.771561 136.912357 
L 96.777847 136.809335 
L 96.887064 135.195314 
L 96.896885 135.092291 
L 97.004531 133.529781 
L 97.013567 133.438206 
L 97.013567 133.426759 
L 97.124356 131.789844 
L 97.133392 131.681098 
L 97.243787 130.210164 
L 97.249287 130.101418 
L 97.360076 128.504567 
L 97.373041 128.395821 
L 97.483043 126.924887 
L 97.495615 126.821864 
L 97.606404 125.494017 
L 97.620547 125.390995 
L 97.731336 124.320704 
L 97.747443 124.211958 
L 97.855482 123.279031 
L 97.858232 123.279031 
L 97.875518 123.170285 
L 97.986306 122.008419 
L 97.9977 121.905396 
L 98.108095 120.806488 
L 98.121453 120.697742 
L 98.231849 119.747645 
L 98.243242 119.638898 
L 98.35403 118.50565 
L 98.361495 118.414074 
L 98.361495 118.402627 
L 98.47189 117.252208 
L 98.484462 117.143462 
L 98.594858 116.147576 
L 98.608608 116.044554 
L 98.717825 115.020051 
L 98.740219 114.911305 
L 98.851007 114.075677 
L 98.868686 113.966931 
L 98.977904 113.114133 
L 98.979082 113.114133 
L 98.994797 113.005387 
L 99.105585 112.112524 
L 99.1158 112.026672 
L 99.225803 111.070851 
L 99.241125 110.962105 
L 99.351913 110.074965 
L 99.366449 109.966219 
L 99.477238 109.147762 
L 99.490988 109.039016 
L 99.601777 108.180494 
L 99.619456 108.071748 
L 99.729459 107.333419 
L 99.729852 107.333419 
L 99.746352 107.224673 
L 99.856748 106.474897 
L 99.872855 106.371875 
L 99.983644 105.765186 
L 99.99268 105.65644 
L 100.10229 105.032581 
L 100.132541 104.946728 
L 100.132541 104.935282 
L 100.242151 104.133995 
L 100.243329 104.133995 
L 100.258651 104.042419 
L 100.369047 103.275473 
L 100.383583 103.166727 
L 100.494371 102.439845 
L 100.516372 102.331099 
L 100.626768 101.821709 
L 100.627161 101.821709 
L 100.650733 101.712963 
L 100.755628 101.134892 
L 100.756807 101.134892 
L 100.785879 101.026146 
L 100.895489 100.453798 
L 100.92024 100.345052 
L 101.027099 99.892897 
L 101.048314 99.789874 
L 101.15596 99.097333 
L 101.179532 98.994311 
L 101.289535 98.444857 
L 101.289928 98.444857 
L 101.316643 98.341834 
L 101.427431 97.832444 
L 101.454539 97.723698 
L 101.564935 97.105563 
L 101.565328 97.105563 
L 101.578685 96.996817 
L 101.687117 96.464533 
L 101.71776 96.355787 
L 101.826977 95.892185 
L 101.846228 95.789162 
L 101.955838 95.354178 
L 101.956624 95.354178 
L 101.988839 95.245432 
L 102.095306 94.78183 
L 102.131449 94.673084 
L 102.241845 94.192312 
L 102.270917 94.083566 
L 102.380135 93.642858 
L 102.381706 93.642858 
L 102.413921 93.534112 
L 102.52471 93.047616 
L 102.546317 92.93887 
L 102.657106 92.538227 
L 102.68775 92.42948 
L 102.79461 91.983049 
L 102.829968 91.880026 
L 102.938792 91.462213 
L 102.966685 91.353466 
L 103.073938 90.975717 
L 103.104189 90.866971 
L 103.213406 90.517839 
L 103.255836 90.409092 
L 103.365446 90.019896 
L 103.366231 90.019896 
L 103.400018 89.91115 
L 103.510021 89.613529 
L 103.550879 89.504783 
L 103.657346 89.127033 
L 103.660882 89.127033 
L 103.696633 89.018287 
L 103.807029 88.669155 
L 103.835315 88.560409 
L 103.939425 88.125424 
L 103.946104 88.125424 
L 103.970461 88.016678 
L 104.079678 87.650376 
L 104.137823 87.54163 
L 104.246254 87.18105 
L 104.282005 87.083751 
L 104.282005 87.078028 
L 104.392794 86.774683 
L 104.440724 86.671661 
L 104.546012 86.362593 
L 104.601799 86.253847 
L 104.705123 85.990567 
L 104.712195 85.990567 
L 104.769553 85.887544 
L 104.879556 85.60137 
L 104.879949 85.60137 
L 104.914522 85.492624 
L 105.020596 85.280855 
L 105.085812 85.172109 
L 105.1966 84.863042 
L 105.245709 84.754295 
L 105.348247 84.496739 
L 105.354533 84.496739 
L 105.394605 84.387993 
L 105.504608 84.15333 
L 105.56786 84.044584 
L 105.675113 83.798474 
L 105.743079 83.689728 
L 105.853867 83.466513 
L 105.908476 83.357767 
L 106.017693 83.151721 
L 106.094302 83.042975 
L 106.18859 82.876994 
L 106.204305 82.876994 
L 106.312343 82.768248 
L 106.423132 82.527862 
L 106.46674 82.42484 
L 106.577529 82.218794 
L 106.660817 82.110048 
L 106.769641 81.869662 
L 106.849393 81.76664 
L 106.956646 81.566318 
L 107.032076 81.457572 
L 107.141293 81.262973 
L 107.201402 81.154227 
L 107.302369 80.965353 
L 107.312191 80.965353 
L 107.430444 80.856606 
L 107.540839 80.633391 
L 107.592305 80.524645 
L 107.700736 80.370111 
L 107.702701 80.370111 
L 107.769488 80.261365 
L 107.880277 80.07249 
L 107.941564 79.963744 
L 108.051567 79.763422 
L 108.164713 79.654676 
L 108.272358 79.471525 
L 108.361932 79.362778 
L 108.468006 79.219691 
L 108.548151 79.110945 
L 108.658154 78.950688 
L 108.745764 78.841942 
L 108.854588 78.681684 
L 108.917447 78.578662 
L 109.017235 78.424128 
L 109.106023 78.315382 
L 109.213669 78.183742 
L 109.216419 78.183742 
L 109.316207 78.074996 
L 109.424245 77.994867 
L 109.542106 77.886121 
L 109.639144 77.794545 
L 109.645037 77.794545 
L 109.804934 77.685799 
L 109.895293 77.582777 
L 109.896079 77.582777 
L 109.970331 77.47403 
L 110.078369 77.30805 
L 110.210373 77.199303 
L 110.319983 77.056217 
L 110.415842 76.94747 
L 110.521524 76.838724 
L 110.654706 76.729978 
L 110.762351 76.604062 
L 110.937177 76.495316 
L 111.033037 76.40374 
L 111.047573 76.40374 
L 111.192541 76.294994 
L 111.288401 76.243483 
L 111.302544 76.243483 
L 111.457727 76.134736 
L 111.565372 76.066055 
L 111.566158 76.066055 
L 111.69934 75.957309 
L 111.794414 75.900074 
L 111.798735 75.900074 
L 112.003419 75.791328 
L 112.102029 75.722646 
L 112.113815 75.722646 
L 112.339321 75.6139 
L 112.447752 75.528048 
L 112.650865 75.430749 
L 112.650865 75.419302 
L 112.75851 75.316279 
L 112.875978 75.207533 
L 112.981659 75.121681 
L 113.169842 75.012935 
L 113.280238 74.915635 
L 113.480208 74.806889 
L 113.57921 74.726761 
L 113.583924 74.726761 
L 113.787823 74.618015 
L 113.88879 74.555056 
L 113.898218 74.555056 
L 114.037293 74.44631 
L 114.145725 74.349011 
L 114.41916 74.240265 
L 114.516984 74.177307 
L 114.529949 74.177307 
L 114.797884 74.068561 
L 114.886672 73.999879 
L 114.903173 73.999879 
L 115.150679 73.891133 
L 115.253218 73.833898 
L 115.261468 73.833898 
L 115.437865 73.725152 
L 115.536868 73.679364 
L 115.548261 73.679364 
L 115.83309 73.570618 
L 115.933664 73.513383 
L 115.943878 73.513383 
L 116.335174 73.404637 
L 116.435748 73.381743 
L 116.445963 73.381743 
L 116.798365 73.272997 
L 116.877331 73.232933 
L 116.903653 73.232933 
L 117.208518 73.124187 
L 117.31695 73.072675 
L 117.317735 73.072675 
L 117.565242 72.963929 
L 117.636351 72.923865 
L 117.67603 72.923865 
L 117.967538 72.815119 
L 118.072826 72.75216 
L 118.077934 72.75216 
L 118.516374 72.643414 
L 118.609483 72.597627 
L 118.623626 72.597627 
L 119.049887 72.48888 
L 119.155176 72.448816 
L 119.456112 72.34007 
L 119.549222 72.311453 
L 119.566508 72.311453 
L 119.871373 72.202707 
L 119.973126 72.168366 
L 119.982162 72.168366 
L 120.407637 72.05962 
L 120.518425 72.008108 
L 120.777718 71.899362 
L 120.884185 71.853574 
L 121.338339 71.744828 
L 121.423199 71.710487 
L 121.449128 71.710487 
L 121.994821 71.601741 
L 122.102859 71.555953 
L 122.573514 71.447207 
L 122.668195 71.430037 
L 122.68391 71.430037 
L 123.252389 71.321291 
L 123.34982 71.292673 
L 123.359249 71.292673 
L 123.783153 71.183927 
L 123.834225 71.161033 
L 123.89237 71.161033 
L 124.373239 71.052287 
L 124.471849 71.02367 
L 124.484028 71.02367 
L 124.981005 70.914924 
L 125.076472 70.89203 
L 125.091794 70.89203 
L 125.696417 70.783284 
L 125.796598 70.743219 
L 125.806027 70.743219 
L 126.648727 70.634473 
L 126.730443 70.600132 
L 126.739086 70.600132 
L 127.640324 70.491386 
L 127.741684 70.462769 
L 128.551383 70.354023 
L 128.570241 70.336852 
L 128.650386 70.336852 
L 129.380333 70.228106 
L 129.380333 70.222383 
L 129.489158 70.222383 
L 130.424575 70.113637 
L 130.51572 70.090743 
L 130.529863 70.090743 
L 131.695108 69.981997 
L 131.741466 69.959103 
L 131.800396 69.959103 
L 132.685919 69.850357 
L 132.748778 69.833186 
L 132.795529 69.833186 
L 133.728982 69.72444 
L 133.836234 69.70727 
L 133.837413 69.70727 
L 134.596825 69.598524 
L 134.648684 69.57563 
L 134.701328 69.57563 
L 136.233904 69.466884 
L 136.233904 69.46116 
L 136.295191 69.46116 
L 137.932662 69.352414 
L 137.99002 69.335244 
L 138.043058 69.335244 
L 139.748102 69.226498 
L 139.760673 69.215051 
L 139.849069 69.215051 
L 141.692009 69.106305 
L 141.789047 69.083411 
L 141.795726 69.083411 
L 143.646131 68.974665 
L 143.701525 68.963218 
L 143.754955 68.963218 
L 145.408141 68.854471 
L 145.408141 68.848748 
L 145.517751 68.848748 
L 148.205749 68.740002 
L 148.205749 68.734278 
L 148.315752 68.734278 
L 151.164826 68.625532 
L 151.164826 68.619809 
L 151.266971 68.619809 
L 154.115259 68.511063 
L 154.19069 68.499616 
L 154.226048 68.499616 
L 158.527159 68.39087 
L 158.622626 68.379423 
L 158.637555 68.379423 
L 162.204004 68.270677 
L 162.204004 68.264953 
L 162.314793 68.264953 
L 167.834579 68.156207 
L 167.853436 68.14476 
L 167.94301 68.14476 
L 175.104981 68.036014 
L 175.104981 68.030291 
L 175.211055 68.030291 
L 180.812557 67.921544 
L 180.870702 67.910097 
L 180.922167 67.910097 
L 186.649387 67.801351 
L 186.649387 67.795628 
L 186.75939 67.795628 
L 195.77098 67.686882 
L 195.77098 67.681158 
L 195.881376 67.681158 
L 207.374316 67.572412 
L 207.374316 67.566689 
L 207.483926 67.566689 
L 228.425718 67.457943 
L 228.425718 67.452219 
L 228.535721 67.452219 
L 249.910846 67.343473 
L 249.910846 67.33775 
L 250.021241 67.33775 
L 271.562942 67.229004 
L 271.562942 67.22328 
L 271.673338 67.22328 
L 318.332224 67.114534 
L 318.332224 67.10881 
L 318.439869 67.10881 
L 390.286657 67.000064 
L 390.286657 66.994341 
L 390.397053 66.994341 
L 498.109091 66.96 
L 498.109091 66.96 
" style="fill:none;stroke:#ff0000;stroke-linecap:square;stroke-width:1.5;"/>
   </g>
   <g id="patch_3">
    <path d="M 72 384.48 
L 72 51.84 
" style="fill:none;stroke:#000000;stroke-linecap:square;stroke-linejoin:miter;stroke-width:0.8;"/>
   </g>
   <g id="patch_4">
    <path d="M 518.4 384.48 
L 518.4 51.84 
" style="fill:none;stroke:#000000;stroke-linecap:square;stroke-linejoin:miter;stroke-width:0.8;"/>
   </g>
   <g id="patch_5">
    <path d="M 72 384.48 
L 518.4 384.48 
" style="fill:none;stroke:#000000;stroke-linecap:square;stroke-linejoin:miter;stroke-width:0.8;"/>
   </g>
   <g id="patch_6">
    <path d="M 72 51.84 
L 518.4 51.84 
" style="fill:none;stroke:#000000;stroke-linecap:square;stroke-linejoin:miter;stroke-width:0.8;"/>
   </g>
   <g id="text_15">
    <!-- ROC Curves -->
    <g transform="translate(237.894 45.84)scale(0.192 -0.192)">
     <defs>
      <path d="M 39.40625 66.21875 
Q 28.65625 66.21875 22.328125 58.203125 
Q 16.015625 50.203125 16.015625 36.375 
Q 16.015625 22.609375 22.328125 14.59375 
Q 28.65625 6.59375 39.40625 6.59375 
Q 50.140625 6.59375 56.421875 14.59375 
Q 62.703125 22.609375 62.703125 36.375 
Q 62.703125 50.203125 56.421875 58.203125 
Q 50.140625 66.21875 39.40625 66.21875 
z
M 39.40625 74.21875 
Q 54.734375 74.21875 63.90625 63.9375 
Q 73.09375 53.65625 73.09375 36.375 
Q 73.09375 19.140625 63.90625 8.859375 
Q 54.734375 -1.421875 39.40625 -1.421875 
Q 24.03125 -1.421875 14.8125 8.828125 
Q 5.609375 19.09375 5.609375 36.375 
Q 5.609375 53.65625 14.8125 63.9375 
Q 24.03125 74.21875 39.40625 74.21875 
z
" id="DejaVuSans-79"/>
      <path d="M 64.40625 67.28125 
L 64.40625 56.890625 
Q 59.421875 61.53125 53.78125 63.8125 
Q 48.140625 66.109375 41.796875 66.109375 
Q 29.296875 66.109375 22.65625 58.46875 
Q 16.015625 50.828125 16.015625 36.375 
Q 16.015625 21.96875 22.65625 14.328125 
Q 29.296875 6.6875 41.796875 6.6875 
Q 48.140625 6.6875 53.78125 8.984375 
Q 59.421875 11.28125 64.40625 15.921875 
L 64.40625 5.609375 
Q 59.234375 2.09375 53.4375 0.328125 
Q 47.65625 -1.421875 41.21875 -1.421875 
Q 24.65625 -1.421875 15.125 8.703125 
Q 5.609375 18.84375 5.609375 36.375 
Q 5.609375 53.953125 15.125 64.078125 
Q 24.65625 74.21875 41.21875 74.21875 
Q 47.75 74.21875 53.53125 72.484375 
Q 59.328125 70.75 64.40625 67.28125 
z
" id="DejaVuSans-67"/>
     </defs>
     <use xlink:href="#DejaVuSans-82"/>
     <use x="69.482422" xlink:href="#DejaVuSans-79"/>
     <use x="148.193359" xlink:href="#DejaVuSans-67"/>
     <use x="218.017578" xlink:href="#DejaVuSans-32"/>
     <use x="249.804688" xlink:href="#DejaVuSans-67"/>
     <use x="319.628906" xlink:href="#DejaVuSans-117"/>
     <use x="383.007812" xlink:href="#DejaVuSans-114"/>
     <use x="424.121094" xlink:href="#DejaVuSans-118"/>
     <use x="483.300781" xlink:href="#DejaVuSans-101"/>
     <use x="544.824219" xlink:href="#DejaVuSans-115"/>
    </g>
   </g>
   <g id="legend_1">
    <g id="patch_7">
     <path d="M 388.9825 376.48 
L 507.2 376.48 
Q 510.4 376.48 510.4 373.28 
L 510.4 327.91 
Q 510.4 324.71 507.2 324.71 
L 388.9825 324.71 
Q 385.7825 324.71 385.7825 327.91 
L 385.7825 373.28 
Q 385.7825 376.48 388.9825 376.48 
z
" style="fill:#ffffff;opacity:0.8;stroke:#cccccc;stroke-linejoin:miter;"/>
    </g>
    <g id="line2d_15">
     <path d="M 392.1825 337.6675 
L 424.1825 337.6675 
" style="fill:none;stroke:#0000ff;stroke-linecap:square;stroke-width:1.5;"/>
    </g>
    <g id="line2d_16"/>
    <g id="text_16">
     <!-- baseline -->
     <g transform="translate(436.9825 343.2675)scale(0.16 -0.16)">
      <defs>
       <path d="M 48.6875 27.296875 
Q 48.6875 37.203125 44.609375 42.84375 
Q 40.53125 48.484375 33.40625 48.484375 
Q 26.265625 48.484375 22.1875 42.84375 
Q 18.109375 37.203125 18.109375 27.296875 
Q 18.109375 17.390625 22.1875 11.75 
Q 26.265625 6.109375 33.40625 6.109375 
Q 40.53125 6.109375 44.609375 11.75 
Q 48.6875 17.390625 48.6875 27.296875 
z
M 18.109375 46.390625 
Q 20.953125 51.265625 25.265625 53.625 
Q 29.59375 56 35.59375 56 
Q 45.5625 56 51.78125 48.09375 
Q 58.015625 40.1875 58.015625 27.296875 
Q 58.015625 14.40625 51.78125 6.484375 
Q 45.5625 -1.421875 35.59375 -1.421875 
Q 29.59375 -1.421875 25.265625 0.953125 
Q 20.953125 3.328125 18.109375 8.203125 
L 18.109375 0 
L 9.078125 0 
L 9.078125 75.984375 
L 18.109375 75.984375 
z
" id="DejaVuSans-98"/>
       <path d="M 54.890625 33.015625 
L 54.890625 0 
L 45.90625 0 
L 45.90625 32.71875 
Q 45.90625 40.484375 42.875 44.328125 
Q 39.84375 48.1875 33.796875 48.1875 
Q 26.515625 48.1875 22.3125 43.546875 
Q 18.109375 38.921875 18.109375 30.90625 
L 18.109375 0 
L 9.078125 0 
L 9.078125 54.6875 
L 18.109375 54.6875 
L 18.109375 46.1875 
Q 21.34375 51.125 25.703125 53.5625 
Q 30.078125 56 35.796875 56 
Q 45.21875 56 50.046875 50.171875 
Q 54.890625 44.34375 54.890625 33.015625 
z
" id="DejaVuSans-110"/>
      </defs>
      <use xlink:href="#DejaVuSans-98"/>
      <use x="63.476562" xlink:href="#DejaVuSans-97"/>
      <use x="124.755859" xlink:href="#DejaVuSans-115"/>
      <use x="176.855469" xlink:href="#DejaVuSans-101"/>
      <use x="238.378906" xlink:href="#DejaVuSans-108"/>
      <use x="266.162109" xlink:href="#DejaVuSans-105"/>
      <use x="293.945312" xlink:href="#DejaVuSans-110"/>
      <use x="357.324219" xlink:href="#DejaVuSans-101"/>
     </g>
    </g>
    <g id="line2d_17">
     <path d="M 392.1825 361.1525 
L 424.1825 361.1525 
" style="fill:none;stroke:#ff0000;stroke-linecap:square;stroke-width:1.5;"/>
    </g>
    <g id="line2d_18"/>
    <g id="text_17">
     <!-- model -->
     <g transform="translate(436.9825 366.7525)scale(0.16 -0.16)">
      <defs>
       <path d="M 52 44.1875 
Q 55.375 50.25 60.0625 53.125 
Q 64.75 56 71.09375 56 
Q 79.640625 56 84.28125 50.015625 
Q 88.921875 44.046875 88.921875 33.015625 
L 88.921875 0 
L 79.890625 0 
L 79.890625 32.71875 
Q 79.890625 40.578125 77.09375 44.375 
Q 74.3125 48.1875 68.609375 48.1875 
Q 61.625 48.1875 57.5625 43.546875 
Q 53.515625 38.921875 53.515625 30.90625 
L 53.515625 0 
L 44.484375 0 
L 44.484375 32.71875 
Q 44.484375 40.625 41.703125 44.40625 
Q 38.921875 48.1875 33.109375 48.1875 
Q 26.21875 48.1875 22.15625 43.53125 
Q 18.109375 38.875 18.109375 30.90625 
L 18.109375 0 
L 9.078125 0 
L 9.078125 54.6875 
L 18.109375 54.6875 
L 18.109375 46.1875 
Q 21.1875 51.21875 25.484375 53.609375 
Q 29.78125 56 35.6875 56 
Q 41.65625 56 45.828125 52.96875 
Q 50 49.953125 52 44.1875 
z
" id="DejaVuSans-109"/>
       <path d="M 45.40625 46.390625 
L 45.40625 75.984375 
L 54.390625 75.984375 
L 54.390625 0 
L 45.40625 0 
L 45.40625 8.203125 
Q 42.578125 3.328125 38.25 0.953125 
Q 33.9375 -1.421875 27.875 -1.421875 
Q 17.96875 -1.421875 11.734375 6.484375 
Q 5.515625 14.40625 5.515625 27.296875 
Q 5.515625 40.1875 11.734375 48.09375 
Q 17.96875 56 27.875 56 
Q 33.9375 56 38.25 53.625 
Q 42.578125 51.265625 45.40625 46.390625 
z
M 14.796875 27.296875 
Q 14.796875 17.390625 18.875 11.75 
Q 22.953125 6.109375 30.078125 6.109375 
Q 37.203125 6.109375 41.296875 11.75 
Q 45.40625 17.390625 45.40625 27.296875 
Q 45.40625 37.203125 41.296875 42.84375 
Q 37.203125 48.484375 30.078125 48.484375 
Q 22.953125 48.484375 18.875 42.84375 
Q 14.796875 37.203125 14.796875 27.296875 
z
" id="DejaVuSans-100"/>
      </defs>
      <use xlink:href="#DejaVuSans-109"/>
      <use x="97.412109" xlink:href="#DejaVuSans-111"/>
      <use x="158.59375" xlink:href="#DejaVuSans-100"/>
      <use x="222.070312" xlink:href="#DejaVuSans-101"/>
      <use x="283.59375" xlink:href="#DejaVuSans-108"/>
     </g>
    </g>
   </g>
  </g>
 </g>
 <defs>
  <clipPath id="pe6b666fe2e">
   <rect height="332.64" width="446.4" x="72" y="51.84"/>
  </clipPath>
 </defs>
</svg>
