<?xml version="1.0" encoding="utf-8" standalone="no"?>
<!DOCTYPE svg PUBLIC "-//W3C//DTD SVG 1.1//EN"
  "http://www.w3.org/Graphics/SVG/1.1/DTD/svg11.dtd">
<!-- Created with matplotlib (https://matplotlib.org/) -->
<svg height="432pt" version="1.1" viewBox="0 0 576 432" width="576pt" xmlns="http://www.w3.org/2000/svg" xmlns:xlink="http://www.w3.org/1999/xlink">
 <metadata>
  <rdf:RDF xmlns:cc="http://creativecommons.org/ns#" xmlns:dc="http://purl.org/dc/elements/1.1/" xmlns:rdf="http://www.w3.org/1999/02/22-rdf-syntax-ns#">
   <cc:Work>
    <dc:type rdf:resource="http://purl.org/dc/dcmitype/StillImage"/>
    <dc:date>2020-08-26T23:18:51.078234</dc:date>
    <dc:format>image/svg+xml</dc:format>
    <dc:creator>
     <cc:Agent>
      <dc:title>Matplotlib v3.3.0, https://matplotlib.org/</dc:title>
     </cc:Agent>
    </dc:creator>
   </cc:Work>
  </rdf:RDF>
 </metadata>
 <defs>
  <style type="text/css">*{stroke-linecap:butt;stroke-linejoin:round;}</style>
 </defs>
 <g id="figure_1">
  <g id="patch_1">
   <path d="M 0 432 
L 576 432 
L 576 0 
L 0 0 
z
" style="fill:#f0f0f0;"/>
  </g>
  <g id="axes_1">
   <g id="patch_2">
    <path d="M 46.08 401.76 
L 547.2 401.76 
L 547.2 51.84 
L 46.08 51.84 
z
" style="fill:#f0f0f0;"/>
   </g>
   <g id="matplotlib.axis_1">
    <g id="xtick_1">
     <g id="line2d_1">
      <path clip-path="url(#pf69376fb39)" d="M 68.858182 401.76 
L 68.858182 51.84 
" style="fill:none;stroke:#cbcbcb;"/>
     </g>
     <g id="line2d_2"/>
     <g id="text_1">
      <!-- 0.0 -->
      <g transform="translate(56.135682 417.4175)scale(0.16 -0.16)">
       <defs>
        <path d="M 31.78125 66.40625 
Q 24.171875 66.40625 20.328125 58.90625 
Q 16.5 51.421875 16.5 36.375 
Q 16.5 21.390625 20.328125 13.890625 
Q 24.171875 6.390625 31.78125 6.390625 
Q 39.453125 6.390625 43.28125 13.890625 
Q 47.125 21.390625 47.125 36.375 
Q 47.125 51.421875 43.28125 58.90625 
Q 39.453125 66.40625 31.78125 66.40625 
z
M 31.78125 74.21875 
Q 44.046875 74.21875 50.515625 64.515625 
Q 56.984375 54.828125 56.984375 36.375 
Q 56.984375 17.96875 50.515625 8.265625 
Q 44.046875 -1.421875 31.78125 -1.421875 
Q 19.53125 -1.421875 13.0625 8.265625 
Q 6.59375 17.96875 6.59375 36.375 
Q 6.59375 54.828125 13.0625 64.515625 
Q 19.53125 74.21875 31.78125 74.21875 
z
" id="DejaVuSans-48"/>
        <path d="M 10.6875 12.40625 
L 21 12.40625 
L 21 0 
L 10.6875 0 
z
" id="DejaVuSans-46"/>
       </defs>
       <use xlink:href="#DejaVuSans-48"/>
       <use x="63.623047" xlink:href="#DejaVuSans-46"/>
       <use x="95.410156" xlink:href="#DejaVuSans-48"/>
      </g>
     </g>
    </g>
    <g id="xtick_2">
     <g id="line2d_3">
      <path clip-path="url(#pf69376fb39)" d="M 159.970909 401.76 
L 159.970909 51.84 
" style="fill:none;stroke:#cbcbcb;"/>
     </g>
     <g id="line2d_4"/>
     <g id="text_2">
      <!-- 0.2 -->
      <g transform="translate(147.248409 417.4175)scale(0.16 -0.16)">
       <defs>
        <path d="M 19.1875 8.296875 
L 53.609375 8.296875 
L 53.609375 0 
L 7.328125 0 
L 7.328125 8.296875 
Q 12.9375 14.109375 22.625 23.890625 
Q 32.328125 33.6875 34.8125 36.53125 
Q 39.546875 41.84375 41.421875 45.53125 
Q 43.3125 49.21875 43.3125 52.78125 
Q 43.3125 58.59375 39.234375 62.25 
Q 35.15625 65.921875 28.609375 65.921875 
Q 23.96875 65.921875 18.8125 64.3125 
Q 13.671875 62.703125 7.8125 59.421875 
L 7.8125 69.390625 
Q 13.765625 71.78125 18.9375 73 
Q 24.125 74.21875 28.421875 74.21875 
Q 39.75 74.21875 46.484375 68.546875 
Q 53.21875 62.890625 53.21875 53.421875 
Q 53.21875 48.921875 51.53125 44.890625 
Q 49.859375 40.875 45.40625 35.40625 
Q 44.1875 33.984375 37.640625 27.21875 
Q 31.109375 20.453125 19.1875 8.296875 
z
" id="DejaVuSans-50"/>
       </defs>
       <use xlink:href="#DejaVuSans-48"/>
       <use x="63.623047" xlink:href="#DejaVuSans-46"/>
       <use x="95.410156" xlink:href="#DejaVuSans-50"/>
      </g>
     </g>
    </g>
    <g id="xtick_3">
     <g id="line2d_5">
      <path clip-path="url(#pf69376fb39)" d="M 251.083636 401.76 
L 251.083636 51.84 
" style="fill:none;stroke:#cbcbcb;"/>
     </g>
     <g id="line2d_6"/>
     <g id="text_3">
      <!-- 0.4 -->
      <g transform="translate(238.361136 417.4175)scale(0.16 -0.16)">
       <defs>
        <path d="M 37.796875 64.3125 
L 12.890625 25.390625 
L 37.796875 25.390625 
z
M 35.203125 72.90625 
L 47.609375 72.90625 
L 47.609375 25.390625 
L 58.015625 25.390625 
L 58.015625 17.1875 
L 47.609375 17.1875 
L 47.609375 0 
L 37.796875 0 
L 37.796875 17.1875 
L 4.890625 17.1875 
L 4.890625 26.703125 
z
" id="DejaVuSans-52"/>
       </defs>
       <use xlink:href="#DejaVuSans-48"/>
       <use x="63.623047" xlink:href="#DejaVuSans-46"/>
       <use x="95.410156" xlink:href="#DejaVuSans-52"/>
      </g>
     </g>
    </g>
    <g id="xtick_4">
     <g id="line2d_7">
      <path clip-path="url(#pf69376fb39)" d="M 342.196364 401.76 
L 342.196364 51.84 
" style="fill:none;stroke:#cbcbcb;"/>
     </g>
     <g id="line2d_8"/>
     <g id="text_4">
      <!-- 0.6 -->
      <g transform="translate(329.473864 417.4175)scale(0.16 -0.16)">
       <defs>
        <path d="M 33.015625 40.375 
Q 26.375 40.375 22.484375 35.828125 
Q 18.609375 31.296875 18.609375 23.390625 
Q 18.609375 15.53125 22.484375 10.953125 
Q 26.375 6.390625 33.015625 6.390625 
Q 39.65625 6.390625 43.53125 10.953125 
Q 47.40625 15.53125 47.40625 23.390625 
Q 47.40625 31.296875 43.53125 35.828125 
Q 39.65625 40.375 33.015625 40.375 
z
M 52.59375 71.296875 
L 52.59375 62.3125 
Q 48.875 64.0625 45.09375 64.984375 
Q 41.3125 65.921875 37.59375 65.921875 
Q 27.828125 65.921875 22.671875 59.328125 
Q 17.53125 52.734375 16.796875 39.40625 
Q 19.671875 43.65625 24.015625 45.921875 
Q 28.375 48.1875 33.59375 48.1875 
Q 44.578125 48.1875 50.953125 41.515625 
Q 57.328125 34.859375 57.328125 23.390625 
Q 57.328125 12.15625 50.6875 5.359375 
Q 44.046875 -1.421875 33.015625 -1.421875 
Q 20.359375 -1.421875 13.671875 8.265625 
Q 6.984375 17.96875 6.984375 36.375 
Q 6.984375 53.65625 15.1875 63.9375 
Q 23.390625 74.21875 37.203125 74.21875 
Q 40.921875 74.21875 44.703125 73.484375 
Q 48.484375 72.75 52.59375 71.296875 
z
" id="DejaVuSans-54"/>
       </defs>
       <use xlink:href="#DejaVuSans-48"/>
       <use x="63.623047" xlink:href="#DejaVuSans-46"/>
       <use x="95.410156" xlink:href="#DejaVuSans-54"/>
      </g>
     </g>
    </g>
    <g id="xtick_5">
     <g id="line2d_9">
      <path clip-path="url(#pf69376fb39)" d="M 433.309091 401.76 
L 433.309091 51.84 
" style="fill:none;stroke:#cbcbcb;"/>
     </g>
     <g id="line2d_10"/>
     <g id="text_5">
      <!-- 0.8 -->
      <g transform="translate(420.586591 417.4175)scale(0.16 -0.16)">
       <defs>
        <path d="M 31.78125 34.625 
Q 24.75 34.625 20.71875 30.859375 
Q 16.703125 27.09375 16.703125 20.515625 
Q 16.703125 13.921875 20.71875 10.15625 
Q 24.75 6.390625 31.78125 6.390625 
Q 38.8125 6.390625 42.859375 10.171875 
Q 46.921875 13.96875 46.921875 20.515625 
Q 46.921875 27.09375 42.890625 30.859375 
Q 38.875 34.625 31.78125 34.625 
z
M 21.921875 38.8125 
Q 15.578125 40.375 12.03125 44.71875 
Q 8.5 49.078125 8.5 55.328125 
Q 8.5 64.0625 14.71875 69.140625 
Q 20.953125 74.21875 31.78125 74.21875 
Q 42.671875 74.21875 48.875 69.140625 
Q 55.078125 64.0625 55.078125 55.328125 
Q 55.078125 49.078125 51.53125 44.71875 
Q 48 40.375 41.703125 38.8125 
Q 48.828125 37.15625 52.796875 32.3125 
Q 56.78125 27.484375 56.78125 20.515625 
Q 56.78125 9.90625 50.3125 4.234375 
Q 43.84375 -1.421875 31.78125 -1.421875 
Q 19.734375 -1.421875 13.25 4.234375 
Q 6.78125 9.90625 6.78125 20.515625 
Q 6.78125 27.484375 10.78125 32.3125 
Q 14.796875 37.15625 21.921875 38.8125 
z
M 18.3125 54.390625 
Q 18.3125 48.734375 21.84375 45.5625 
Q 25.390625 42.390625 31.78125 42.390625 
Q 38.140625 42.390625 41.71875 45.5625 
Q 45.3125 48.734375 45.3125 54.390625 
Q 45.3125 60.0625 41.71875 63.234375 
Q 38.140625 66.40625 31.78125 66.40625 
Q 25.390625 66.40625 21.84375 63.234375 
Q 18.3125 60.0625 18.3125 54.390625 
z
" id="DejaVuSans-56"/>
       </defs>
       <use xlink:href="#DejaVuSans-48"/>
       <use x="63.623047" xlink:href="#DejaVuSans-46"/>
       <use x="95.410156" xlink:href="#DejaVuSans-56"/>
      </g>
     </g>
    </g>
    <g id="xtick_6">
     <g id="line2d_11">
      <path clip-path="url(#pf69376fb39)" d="M 524.421818 401.76 
L 524.421818 51.84 
" style="fill:none;stroke:#cbcbcb;"/>
     </g>
     <g id="line2d_12"/>
     <g id="text_6">
      <!-- 1.0 -->
      <g transform="translate(511.699318 417.4175)scale(0.16 -0.16)">
       <defs>
        <path d="M 12.40625 8.296875 
L 28.515625 8.296875 
L 28.515625 63.921875 
L 10.984375 60.40625 
L 10.984375 69.390625 
L 28.421875 72.90625 
L 38.28125 72.90625 
L 38.28125 8.296875 
L 54.390625 8.296875 
L 54.390625 0 
L 12.40625 0 
z
" id="DejaVuSans-49"/>
       </defs>
       <use xlink:href="#DejaVuSans-49"/>
       <use x="63.623047" xlink:href="#DejaVuSans-46"/>
       <use x="95.410156" xlink:href="#DejaVuSans-48"/>
      </g>
     </g>
    </g>
    <g id="text_7">
     <!-- False Positive Rate -->
     <g transform="translate(207.4245 439.334)scale(0.192 -0.192)">
      <defs>
       <path d="M 9.8125 72.90625 
L 51.703125 72.90625 
L 51.703125 64.59375 
L 19.671875 64.59375 
L 19.671875 43.109375 
L 48.578125 43.109375 
L 48.578125 34.8125 
L 19.671875 34.8125 
L 19.671875 0 
L 9.8125 0 
z
" id="DejaVuSans-70"/>
       <path d="M 34.28125 27.484375 
Q 23.390625 27.484375 19.1875 25 
Q 14.984375 22.515625 14.984375 16.5 
Q 14.984375 11.71875 18.140625 8.90625 
Q 21.296875 6.109375 26.703125 6.109375 
Q 34.1875 6.109375 38.703125 11.40625 
Q 43.21875 16.703125 43.21875 25.484375 
L 43.21875 27.484375 
z
M 52.203125 31.203125 
L 52.203125 0 
L 43.21875 0 
L 43.21875 8.296875 
Q 40.140625 3.328125 35.546875 0.953125 
Q 30.953125 -1.421875 24.3125 -1.421875 
Q 15.921875 -1.421875 10.953125 3.296875 
Q 6 8.015625 6 15.921875 
Q 6 25.140625 12.171875 29.828125 
Q 18.359375 34.515625 30.609375 34.515625 
L 43.21875 34.515625 
L 43.21875 35.40625 
Q 43.21875 41.609375 39.140625 45 
Q 35.0625 48.390625 27.6875 48.390625 
Q 23 48.390625 18.546875 47.265625 
Q 14.109375 46.140625 10.015625 43.890625 
L 10.015625 52.203125 
Q 14.9375 54.109375 19.578125 55.046875 
Q 24.21875 56 28.609375 56 
Q 40.484375 56 46.34375 49.84375 
Q 52.203125 43.703125 52.203125 31.203125 
z
" id="DejaVuSans-97"/>
       <path d="M 9.421875 75.984375 
L 18.40625 75.984375 
L 18.40625 0 
L 9.421875 0 
z
" id="DejaVuSans-108"/>
       <path d="M 44.28125 53.078125 
L 44.28125 44.578125 
Q 40.484375 46.53125 36.375 47.5 
Q 32.28125 48.484375 27.875 48.484375 
Q 21.1875 48.484375 17.84375 46.4375 
Q 14.5 44.390625 14.5 40.28125 
Q 14.5 37.15625 16.890625 35.375 
Q 19.28125 33.59375 26.515625 31.984375 
L 29.59375 31.296875 
Q 39.15625 29.25 43.1875 25.515625 
Q 47.21875 21.78125 47.21875 15.09375 
Q 47.21875 7.46875 41.1875 3.015625 
Q 35.15625 -1.421875 24.609375 -1.421875 
Q 20.21875 -1.421875 15.453125 -0.5625 
Q 10.6875 0.296875 5.421875 2 
L 5.421875 11.28125 
Q 10.40625 8.6875 15.234375 7.390625 
Q 20.0625 6.109375 24.8125 6.109375 
Q 31.15625 6.109375 34.5625 8.28125 
Q 37.984375 10.453125 37.984375 14.40625 
Q 37.984375 18.0625 35.515625 20.015625 
Q 33.0625 21.96875 24.703125 23.78125 
L 21.578125 24.515625 
Q 13.234375 26.265625 9.515625 29.90625 
Q 5.8125 33.546875 5.8125 39.890625 
Q 5.8125 47.609375 11.28125 51.796875 
Q 16.75 56 26.8125 56 
Q 31.78125 56 36.171875 55.265625 
Q 40.578125 54.546875 44.28125 53.078125 
z
" id="DejaVuSans-115"/>
       <path d="M 56.203125 29.59375 
L 56.203125 25.203125 
L 14.890625 25.203125 
Q 15.484375 15.921875 20.484375 11.0625 
Q 25.484375 6.203125 34.421875 6.203125 
Q 39.59375 6.203125 44.453125 7.46875 
Q 49.3125 8.734375 54.109375 11.28125 
L 54.109375 2.78125 
Q 49.265625 0.734375 44.1875 -0.34375 
Q 39.109375 -1.421875 33.890625 -1.421875 
Q 20.796875 -1.421875 13.15625 6.1875 
Q 5.515625 13.8125 5.515625 26.8125 
Q 5.515625 40.234375 12.765625 48.109375 
Q 20.015625 56 32.328125 56 
Q 43.359375 56 49.78125 48.890625 
Q 56.203125 41.796875 56.203125 29.59375 
z
M 47.21875 32.234375 
Q 47.125 39.59375 43.09375 43.984375 
Q 39.0625 48.390625 32.421875 48.390625 
Q 24.90625 48.390625 20.390625 44.140625 
Q 15.875 39.890625 15.1875 32.171875 
z
" id="DejaVuSans-101"/>
       <path id="DejaVuSans-32"/>
       <path d="M 19.671875 64.796875 
L 19.671875 37.40625 
L 32.078125 37.40625 
Q 38.96875 37.40625 42.71875 40.96875 
Q 46.484375 44.53125 46.484375 51.125 
Q 46.484375 57.671875 42.71875 61.234375 
Q 38.96875 64.796875 32.078125 64.796875 
z
M 9.8125 72.90625 
L 32.078125 72.90625 
Q 44.34375 72.90625 50.609375 67.359375 
Q 56.890625 61.8125 56.890625 51.125 
Q 56.890625 40.328125 50.609375 34.8125 
Q 44.34375 29.296875 32.078125 29.296875 
L 19.671875 29.296875 
L 19.671875 0 
L 9.8125 0 
z
" id="DejaVuSans-80"/>
       <path d="M 30.609375 48.390625 
Q 23.390625 48.390625 19.1875 42.75 
Q 14.984375 37.109375 14.984375 27.296875 
Q 14.984375 17.484375 19.15625 11.84375 
Q 23.34375 6.203125 30.609375 6.203125 
Q 37.796875 6.203125 41.984375 11.859375 
Q 46.1875 17.53125 46.1875 27.296875 
Q 46.1875 37.015625 41.984375 42.703125 
Q 37.796875 48.390625 30.609375 48.390625 
z
M 30.609375 56 
Q 42.328125 56 49.015625 48.375 
Q 55.71875 40.765625 55.71875 27.296875 
Q 55.71875 13.875 49.015625 6.21875 
Q 42.328125 -1.421875 30.609375 -1.421875 
Q 18.84375 -1.421875 12.171875 6.21875 
Q 5.515625 13.875 5.515625 27.296875 
Q 5.515625 40.765625 12.171875 48.375 
Q 18.84375 56 30.609375 56 
z
" id="DejaVuSans-111"/>
       <path d="M 9.421875 54.6875 
L 18.40625 54.6875 
L 18.40625 0 
L 9.421875 0 
z
M 9.421875 75.984375 
L 18.40625 75.984375 
L 18.40625 64.59375 
L 9.421875 64.59375 
z
" id="DejaVuSans-105"/>
       <path d="M 18.3125 70.21875 
L 18.3125 54.6875 
L 36.8125 54.6875 
L 36.8125 47.703125 
L 18.3125 47.703125 
L 18.3125 18.015625 
Q 18.3125 11.328125 20.140625 9.421875 
Q 21.96875 7.515625 27.59375 7.515625 
L 36.8125 7.515625 
L 36.8125 0 
L 27.59375 0 
Q 17.1875 0 13.234375 3.875 
Q 9.28125 7.765625 9.28125 18.015625 
L 9.28125 47.703125 
L 2.6875 47.703125 
L 2.6875 54.6875 
L 9.28125 54.6875 
L 9.28125 70.21875 
z
" id="DejaVuSans-116"/>
       <path d="M 2.984375 54.6875 
L 12.5 54.6875 
L 29.59375 8.796875 
L 46.6875 54.6875 
L 56.203125 54.6875 
L 35.6875 0 
L 23.484375 0 
z
" id="DejaVuSans-118"/>
       <path d="M 44.390625 34.1875 
Q 47.5625 33.109375 50.5625 29.59375 
Q 53.5625 26.078125 56.59375 19.921875 
L 66.609375 0 
L 56 0 
L 46.6875 18.703125 
Q 43.0625 26.03125 39.671875 28.421875 
Q 36.28125 30.8125 30.421875 30.8125 
L 19.671875 30.8125 
L 19.671875 0 
L 9.8125 0 
L 9.8125 72.90625 
L 32.078125 72.90625 
Q 44.578125 72.90625 50.734375 67.671875 
Q 56.890625 62.453125 56.890625 51.90625 
Q 56.890625 45.015625 53.6875 40.46875 
Q 50.484375 35.9375 44.390625 34.1875 
z
M 19.671875 64.796875 
L 19.671875 38.921875 
L 32.078125 38.921875 
Q 39.203125 38.921875 42.84375 42.21875 
Q 46.484375 45.515625 46.484375 51.90625 
Q 46.484375 58.296875 42.84375 61.546875 
Q 39.203125 64.796875 32.078125 64.796875 
z
" id="DejaVuSans-82"/>
      </defs>
      <use xlink:href="#DejaVuSans-70"/>
      <use x="48.394531" xlink:href="#DejaVuSans-97"/>
      <use x="109.673828" xlink:href="#DejaVuSans-108"/>
      <use x="137.457031" xlink:href="#DejaVuSans-115"/>
      <use x="189.556641" xlink:href="#DejaVuSans-101"/>
      <use x="251.080078" xlink:href="#DejaVuSans-32"/>
      <use x="282.867188" xlink:href="#DejaVuSans-80"/>
      <use x="339.544922" xlink:href="#DejaVuSans-111"/>
      <use x="400.726562" xlink:href="#DejaVuSans-115"/>
      <use x="452.826172" xlink:href="#DejaVuSans-105"/>
      <use x="480.609375" xlink:href="#DejaVuSans-116"/>
      <use x="519.818359" xlink:href="#DejaVuSans-105"/>
      <use x="547.601562" xlink:href="#DejaVuSans-118"/>
      <use x="606.78125" xlink:href="#DejaVuSans-101"/>
      <use x="668.304688" xlink:href="#DejaVuSans-32"/>
      <use x="700.091797" xlink:href="#DejaVuSans-82"/>
      <use x="767.324219" xlink:href="#DejaVuSans-97"/>
      <use x="828.603516" xlink:href="#DejaVuSans-116"/>
      <use x="867.8125" xlink:href="#DejaVuSans-101"/>
     </g>
    </g>
   </g>
   <g id="matplotlib.axis_2">
    <g id="ytick_1">
     <g id="line2d_13">
      <path clip-path="url(#pf69376fb39)" d="M 46.08 385.854545 
L 547.2 385.854545 
" style="fill:none;stroke:#cbcbcb;"/>
     </g>
     <g id="line2d_14"/>
     <g id="text_8">
      <!-- 0.0 -->
      <g transform="translate(17.135 391.933295)scale(0.16 -0.16)">
       <use xlink:href="#DejaVuSans-48"/>
       <use x="63.623047" xlink:href="#DejaVuSans-46"/>
       <use x="95.410156" xlink:href="#DejaVuSans-48"/>
      </g>
     </g>
    </g>
    <g id="ytick_2">
     <g id="line2d_15">
      <path clip-path="url(#pf69376fb39)" d="M 46.08 322.232727 
L 547.2 322.232727 
" style="fill:none;stroke:#cbcbcb;"/>
     </g>
     <g id="line2d_16"/>
     <g id="text_9">
      <!-- 0.2 -->
      <g transform="translate(17.135 328.311477)scale(0.16 -0.16)">
       <use xlink:href="#DejaVuSans-48"/>
       <use x="63.623047" xlink:href="#DejaVuSans-46"/>
       <use x="95.410156" xlink:href="#DejaVuSans-50"/>
      </g>
     </g>
    </g>
    <g id="ytick_3">
     <g id="line2d_17">
      <path clip-path="url(#pf69376fb39)" d="M 46.08 258.610909 
L 547.2 258.610909 
" style="fill:none;stroke:#cbcbcb;"/>
     </g>
     <g id="line2d_18"/>
     <g id="text_10">
      <!-- 0.4 -->
      <g transform="translate(17.135 264.689659)scale(0.16 -0.16)">
       <use xlink:href="#DejaVuSans-48"/>
       <use x="63.623047" xlink:href="#DejaVuSans-46"/>
       <use x="95.410156" xlink:href="#DejaVuSans-52"/>
      </g>
     </g>
    </g>
    <g id="ytick_4">
     <g id="line2d_19">
      <path clip-path="url(#pf69376fb39)" d="M 46.08 194.989091 
L 547.2 194.989091 
" style="fill:none;stroke:#cbcbcb;"/>
     </g>
     <g id="line2d_20"/>
     <g id="text_11">
      <!-- 0.6 -->
      <g transform="translate(17.135 201.067841)scale(0.16 -0.16)">
       <use xlink:href="#DejaVuSans-48"/>
       <use x="63.623047" xlink:href="#DejaVuSans-46"/>
       <use x="95.410156" xlink:href="#DejaVuSans-54"/>
      </g>
     </g>
    </g>
    <g id="ytick_5">
     <g id="line2d_21">
      <path clip-path="url(#pf69376fb39)" d="M 46.08 131.367273 
L 547.2 131.367273 
" style="fill:none;stroke:#cbcbcb;"/>
     </g>
     <g id="line2d_22"/>
     <g id="text_12">
      <!-- 0.8 -->
      <g transform="translate(17.135 137.446023)scale(0.16 -0.16)">
       <use xlink:href="#DejaVuSans-48"/>
       <use x="63.623047" xlink:href="#DejaVuSans-46"/>
       <use x="95.410156" xlink:href="#DejaVuSans-56"/>
      </g>
     </g>
    </g>
    <g id="ytick_6">
     <g id="line2d_23">
      <path clip-path="url(#pf69376fb39)" d="M 46.08 67.745455 
L 547.2 67.745455 
" style="fill:none;stroke:#cbcbcb;"/>
     </g>
     <g id="line2d_24"/>
     <g id="text_13">
      <!-- 1.0 -->
      <g transform="translate(17.135 73.824205)scale(0.16 -0.16)">
       <use xlink:href="#DejaVuSans-49"/>
       <use x="63.623047" xlink:href="#DejaVuSans-46"/>
       <use x="95.410156" xlink:href="#DejaVuSans-48"/>
      </g>
     </g>
    </g>
    <g id="text_14">
     <!-- True Positive Rate -->
     <g transform="translate(9.142 312.297)rotate(-90)scale(0.192 -0.192)">
      <defs>
       <path d="M -0.296875 72.90625 
L 61.375 72.90625 
L 61.375 64.59375 
L 35.5 64.59375 
L 35.5 0 
L 25.59375 0 
L 25.59375 64.59375 
L -0.296875 64.59375 
z
" id="DejaVuSans-84"/>
       <path d="M 41.109375 46.296875 
Q 39.59375 47.171875 37.8125 47.578125 
Q 36.03125 48 33.890625 48 
Q 26.265625 48 22.1875 43.046875 
Q 18.109375 38.09375 18.109375 28.8125 
L 18.109375 0 
L 9.078125 0 
L 9.078125 54.6875 
L 18.109375 54.6875 
L 18.109375 46.1875 
Q 20.953125 51.171875 25.484375 53.578125 
Q 30.03125 56 36.53125 56 
Q 37.453125 56 38.578125 55.875 
Q 39.703125 55.765625 41.0625 55.515625 
z
" id="DejaVuSans-114"/>
       <path d="M 8.5 21.578125 
L 8.5 54.6875 
L 17.484375 54.6875 
L 17.484375 21.921875 
Q 17.484375 14.15625 20.5 10.265625 
Q 23.53125 6.390625 29.59375 6.390625 
Q 36.859375 6.390625 41.078125 11.03125 
Q 45.3125 15.671875 45.3125 23.6875 
L 45.3125 54.6875 
L 54.296875 54.6875 
L 54.296875 0 
L 45.3125 0 
L 45.3125 8.40625 
Q 42.046875 3.421875 37.71875 1 
Q 33.40625 -1.421875 27.6875 -1.421875 
Q 18.265625 -1.421875 13.375 4.4375 
Q 8.5 10.296875 8.5 21.578125 
z
M 31.109375 56 
z
" id="DejaVuSans-117"/>
      </defs>
      <use xlink:href="#DejaVuSans-84"/>
      <use x="46.333984" xlink:href="#DejaVuSans-114"/>
      <use x="87.447266" xlink:href="#DejaVuSans-117"/>
      <use x="150.826172" xlink:href="#DejaVuSans-101"/>
      <use x="212.349609" xlink:href="#DejaVuSans-32"/>
      <use x="244.136719" xlink:href="#DejaVuSans-80"/>
      <use x="300.814453" xlink:href="#DejaVuSans-111"/>
      <use x="361.996094" xlink:href="#DejaVuSans-115"/>
      <use x="414.095703" xlink:href="#DejaVuSans-105"/>
      <use x="441.878906" xlink:href="#DejaVuSans-116"/>
      <use x="481.087891" xlink:href="#DejaVuSans-105"/>
      <use x="508.871094" xlink:href="#DejaVuSans-118"/>
      <use x="568.050781" xlink:href="#DejaVuSans-101"/>
      <use x="629.574219" xlink:href="#DejaVuSans-32"/>
      <use x="661.361328" xlink:href="#DejaVuSans-82"/>
      <use x="728.59375" xlink:href="#DejaVuSans-97"/>
      <use x="789.873047" xlink:href="#DejaVuSans-116"/>
      <use x="829.082031" xlink:href="#DejaVuSans-101"/>
     </g>
    </g>
   </g>
   <g id="line2d_25">
    <path clip-path="url(#pf69376fb39)" d="M 68.858182 385.854545 
L 524.421818 67.745455 
" style="fill:none;stroke:#0000ff;stroke-width:4;"/>
   </g>
   <g id="line2d_26">
    <path clip-path="url(#pf69376fb39)" d="M 68.858182 385.854545 
L 68.867555 385.747546 
L 68.973672 376.545601 
L 68.98338 376.438602 
L 69.091172 368.841648 
L 69.095858 368.734648 
L 69.204654 362.742684 
L 69.206662 362.742684 
L 69.213023 362.635685 
L 69.322153 356.322723 
L 69.325166 356.215723 
L 69.432287 351.079754 
L 69.439987 351.079754 
L 69.550456 346.157784 
L 69.559494 346.050784 
L 69.665277 340.16582 
L 69.670633 340.16582 
L 69.780768 336.099844 
L 69.792819 335.992845 
L 69.902619 331.177874 
L 69.903623 331.177874 
L 69.916009 331.070874 
L 70.024804 328.716888 
L 70.031165 328.609889 
L 70.139291 324.650913 
L 70.141299 324.650913 
L 70.143977 324.543913 
L 70.2434 320.15694 
L 70.253777 320.15694 
L 70.264824 320.04994 
L 70.369937 316.73296 
L 70.375628 316.73296 
L 70.380315 316.73296 
L 70.48978 313.201981 
L 70.490784 313.201981 
L 70.502166 313.094982 
L 70.611296 308.38701 
L 70.612635 308.38701 
L 70.620334 308.280011 
L 70.731138 304.856032 
L 70.737164 304.749032 
L 70.846294 301.325053 
L 70.856672 301.218053 
L 70.960781 296.938079 
L 70.976514 296.83108 
L 71.059868 295.11909 
L 71.086983 295.11909 
L 71.096691 295.012091 
L 71.204148 291.695111 
L 71.216534 291.588111 
L 71.311604 289.769122 
L 71.326334 289.769122 
L 71.327673 289.769122 
L 71.436468 286.987139 
L 71.444837 286.880139 
L 71.551959 284.419154 
L 71.554302 284.419154 
L 71.578404 284.312155 
L 71.688539 281.958169 
L 71.690547 281.958169 
L 71.792983 280.13918 
L 71.808381 280.032181 
L 71.910817 277.143198 
L 71.918181 277.143198 
L 71.929228 277.036199 
L 72.027981 273.933217 
L 72.029655 273.933217 
L 72.043045 273.826218 
L 72.152175 271.686231 
L 72.161214 271.579231 
L 72.257958 269.760242 
L 72.269674 269.760242 
L 72.274361 269.653243 
L 72.369097 267.727254 
L 72.382487 267.727254 
L 72.408598 267.620255 
L 72.513711 264.303275 
L 72.530784 264.196276 
L 72.638575 261.73529 
L 72.640249 261.73529 
L 72.648952 261.628291 
L 72.753061 256.599321 
L 72.755739 256.599321 
L 72.804279 256.492322 
L 72.909392 254.994331 
L 72.922782 254.887331 
L 73.020196 253.817338 
L 73.030239 253.817338 
L 73.04162 253.710339 
L 73.149412 251.677351 
L 73.168827 251.570351 
L 73.277288 250.500358 
L 73.28164 250.393358 
L 73.38374 248.895367 
L 73.391775 248.895367 
L 73.406839 248.788368 
L 73.512621 247.290377 
L 73.516973 247.290377 
L 73.523668 247.183378 
L 73.633468 245.471388 
L 73.662926 245.364389 
L 73.772391 243.4384 
L 73.773396 243.4384 
L 73.795155 243.331401 
L 73.895916 241.72641 
L 73.899933 241.72641 
L 73.930731 241.619411 
L 74.023123 240.228419 
L 74.038187 240.228419 
L 74.056934 240.12142 
L 74.161712 238.623429 
L 74.167403 238.623429 
L 74.207239 238.51643 
L 74.306996 237.125438 
L 74.318043 237.125438 
L 74.318712 237.125438 
L 74.429182 235.627447 
L 74.439559 235.520448 
L 74.542664 234.236455 
L 74.550028 234.236455 
L 74.591873 234.129456 
L 74.698325 233.166462 
L 74.708033 233.059462 
L 74.806451 231.77547 
L 74.811138 231.77547 
L 74.832562 231.668471 
L 74.935332 230.384478 
L 74.950396 230.277479 
L 75.059861 227.816494 
L 75.066556 227.709495 
L 75.175017 225.676507 
L 75.182047 225.676507 
L 75.272431 215.404568 
L 75.291512 215.404568 
L 75.307915 215.297569 
L 75.404659 213.371581 
L 75.410685 213.371581 
L 75.437465 213.264581 
L 75.535214 212.729584 
L 75.547934 212.729584 
L 75.56099 212.622585 
L 75.659073 212.301587 
L 75.666103 212.301587 
L 75.696566 212.194588 
L 75.795653 210.910595 
L 75.82009 210.910595 
L 75.925538 209.733602 
L 76.014583 209.626603 
L 76.102624 208.877608 
L 76.118692 208.877608 
L 76.157524 208.770608 
L 76.25929 207.807614 
L 76.266319 207.807614 
L 76.323228 207.700615 
L 76.433028 206.095624 
L 76.444075 206.095624 
L 76.551866 204.811632 
L 76.600405 204.704633 
L 76.695476 203.848638 
L 76.71054 203.848638 
L 76.728282 203.741638 
L 76.827369 202.992643 
L 76.836408 202.992643 
L 76.906037 202.885644 
L 76.978344 201.81565 
L 77.016841 201.81565 
L 77.035587 201.708651 
L 77.133001 200.531658 
L 77.146057 200.531658 
L 77.174511 200.424658 
L 77.274603 199.140666 
L 77.280294 199.140666 
L 77.321803 199.033667 
L 77.413861 198.39167 
L 77.417878 198.39167 
L 77.469096 198.284671 
L 77.578226 196.251683 
L 77.5799 196.251683 
L 77.614045 196.251683 
L 77.705768 194.325695 
L 77.721836 194.325695 
L 77.727862 194.325695 
L 77.829627 193.4697 
L 77.838331 193.4697 
L 77.850717 193.362701 
L 77.959847 192.506706 
L 77.995331 192.399706 
L 78.098771 191.436712 
L 78.162709 191.329713 
L 78.269831 190.473718 
L 78.287238 190.366719 
L 78.397038 189.831722 
L 78.397707 189.831722 
L 78.4352 189.724723 
L 78.522906 188.654729 
L 78.536296 188.654729 
L 78.624002 188.54773 
L 78.697983 187.584735 
L 78.734471 187.584735 
L 78.775311 187.477736 
L 78.832889 186.514742 
L 78.879085 186.514742 
L 78.954405 186.407742 
L 79.052489 185.658747 
L 79.107723 185.551748 
L 79.191078 184.802752 
L 79.218193 184.802752 
L 79.289161 184.695753 
L 79.379545 184.267755 
L 79.397287 184.267755 
L 79.42072 184.160756 
L 79.439466 183.839758 
L 79.512777 183.839758 
L 79.547927 183.732758 
L 79.654379 182.983763 
L 79.658396 182.983763 
L 79.671786 182.876764 
L 79.773552 181.164774 
L 79.779912 181.164774 
L 79.802006 181.057775 
L 79.911136 179.773782 
L 79.97474 179.666783 
L 80.07751 178.917787 
L 80.107638 178.810788 
L 80.177602 178.061792 
L 80.218107 178.061792 
L 80.232502 177.954793 
L 80.320542 176.991799 
L 80.322551 176.991799 
L 80.363391 176.8848 
L 80.473191 176.135804 
L 80.503319 176.028805 
L 80.607762 175.279809 
L 80.614123 175.279809 
L 80.633539 175.17281 
L 80.730952 174.744812 
L 80.738652 174.744812 
L 80.749029 174.637813 
L 80.835061 173.781818 
L 80.852803 173.781818 
L 80.93214 173.674819 
L 81.010138 173.353821 
L 81.04261 173.353821 
L 81.062026 173.246821 
L 81.138015 172.711825 
L 81.167474 172.711825 
L 81.234425 172.604825 
L 81.32983 171.641831 
L 81.357949 171.534832 
L 81.452016 171.213834 
L 81.510263 171.106834 
L 81.589935 170.785836 
L 81.620398 170.785836 
L 81.661238 170.678837 
L 81.76836 169.929841 
L 81.770703 169.929841 
L 81.803174 169.822842 
L 81.882846 169.180846 
L 81.893558 169.180846 
L 81.977582 169.073846 
L 82.06897 168.752848 
L 82.087047 168.752848 
L 82.147637 168.645849 
L 82.254424 168.003853 
L 82.292921 167.896853 
L 82.380627 167.254857 
L 82.396026 167.254857 
L 82.408412 167.147858 
L 82.4998 166.398862 
L 82.516538 166.398862 
L 82.571103 166.291863 
L 82.645419 165.863866 
L 82.674877 165.863866 
L 82.717056 165.756866 
L 82.823509 165.007871 
L 82.82786 165.007871 
L 82.844598 164.900871 
L 82.953728 164.365875 
L 82.955402 164.365875 
L 82.975822 164.258875 
L 83.080266 163.830878 
L 83.083948 163.830878 
L 83.200778 163.723879 
L 83.285136 163.081882 
L 83.30087 163.081882 
L 83.34807 162.974883 
L 83.435776 162.439886 
L 83.45854 162.439886 
L 83.474943 162.332887 
L 83.549928 161.904889 
L 83.585077 161.904889 
L 83.622235 161.79789 
L 83.712954 161.048895 
L 83.73237 161.048895 
L 83.764506 160.941895 
L 83.764506 160.834896 
L 83.874975 160.834896 
L 83.94427 160.727897 
L 83.95766 160.513898 
L 84.054739 160.513898 
L 84.109304 160.406898 
L 84.215422 159.443904 
L 84.228477 159.336905 
L 84.310157 158.694909 
L 84.333256 158.694909 
L 84.428661 158.587909 
L 84.469501 158.052913 
L 84.539465 158.052913 
L 84.649265 157.945913 
L 84.755717 157.624915 
L 84.775468 157.517916 
L 84.88125 156.982919 
L 84.885267 156.982919 
L 84.98402 156.87592 
L 85.016491 156.661921 
L 85.093485 156.661921 
L 85.166797 156.554922 
L 85.275927 156.126924 
L 85.277601 156.126924 
L 85.337187 156.019925 
L 85.360285 155.805926 
L 85.439957 155.805926 
L 85.489501 155.698927 
L 85.516281 155.484928 
L 85.599301 155.484928 
L 85.665582 155.377929 
L 85.741237 155.056931 
L 85.775382 155.056931 
L 85.806849 154.949931 
L 85.915979 154.414934 
L 85.982261 154.307935 
L 86.073314 153.879938 
L 86.076997 153.879938 
L 86.165707 153.772938 
L 86.218933 153.55894 
L 86.270485 153.55894 
L 86.286888 153.45194 
L 86.364217 153.130942 
L 86.378946 153.130942 
L 86.481716 153.023943 
L 86.589842 152.274947 
L 86.650767 152.167948 
L 86.757554 151.418952 
L 86.905516 151.311953 
L 86.914555 151.097954 
L 87.00996 151.097954 
L 87.036071 150.990955 
L 87.141184 150.562958 
L 87.146875 150.562958 
L 87.197758 150.455958 
L 87.29082 150.13496 
L 87.308562 150.13496 
L 87.41334 150.027961 
L 87.495355 149.599963 
L 87.520462 149.599963 
L 87.589756 149.492964 
L 87.686501 148.957967 
L 87.710603 148.850968 
L 87.787932 148.52997 
L 87.812703 148.52997 
L 87.857561 148.42297 
L 87.864256 148.315971 
L 87.96803 148.315971 
L 88.008201 148.208972 
L 88.114988 147.673975 
L 88.210058 147.566976 
L 88.24119 147.245977 
L 88.319858 147.245977 
L 88.391161 147.138978 
L 88.43334 146.81798 
L 88.496944 146.81798 
L 88.525398 146.710981 
L 88.593353 146.389983 
L 88.626494 146.389983 
L 88.647584 146.282983 
L 88.684407 145.961985 
L 88.758388 145.961985 
L 88.796215 145.854986 
L 88.89229 145.10599 
L 88.905345 145.10599 
L 88.964262 144.998991 
L 89.003429 144.784992 
L 89.063685 144.784992 
L 89.118584 144.677993 
L 89.225037 144.142996 
L 89.229054 144.142996 
L 89.422208 144.035997 
L 89.495854 143.607999 
L 89.529329 143.607999 
L 89.606993 143.501 
L 89.680974 143.180002 
L 89.704741 143.180002 
L 89.831948 143.073002 
L 89.873793 142.752004 
L 89.942752 142.752004 
L 90.015729 142.645005 
L 90.104104 142.431006 
L 90.126533 142.431006 
L 90.178755 142.324007 
L 90.227629 142.003009 
L 90.272486 142.003009 
L 90.385299 141.89601 
L 90.428148 141.361013 
L 90.479365 141.361013 
L 90.583809 141.254013 
L 90.675197 141.040015 
L 90.693274 141.040015 
L 90.759555 140.933015 
L 90.823159 140.719017 
L 90.845922 140.719017 
L 91.010622 140.612017 
L 92.055394 139.114026 
L 92.649919 139.007027 
L 92.748672 138.793028 
L 92.759384 138.793028 
L 92.953543 138.686029 
L 93.02518 138.365031 
L 93.062003 138.365031 
L 93.13498 138.258031 
L 93.173812 138.044033 
L 93.242436 138.044033 
L 93.392072 137.937033 
L 93.447307 137.402037 
L 93.498524 137.402037 
L 93.571501 137.295037 
L 93.67494 136.974039 
L 93.748921 136.86704 
L 93.825246 136.439042 
L 93.852361 136.439042 
L 93.928016 136.332043 
L 93.988272 136.011045 
L 94.033798 136.011045 
L 94.215236 135.904046 
L 94.216575 135.797046 
L 94.32537 135.797046 
L 94.423788 135.690047 
L 94.440861 135.583047 
L 94.534592 135.583047 
L 94.675524 135.476048 
L 94.764904 134.834052 
L 94.784989 134.834052 
L 94.829177 134.727053 
L 94.829177 134.620053 
L 94.939981 134.620053 
L 94.971113 134.513054 
L 94.986847 134.299055 
L 95.079909 134.299055 
L 95.100999 134.192056 
L 95.144852 133.764058 
L 95.208455 133.764058 
L 95.323946 133.657059 
L 95.335662 133.44306 
L 95.43475 133.44306 
L 95.765488 133.336061 
L 95.828422 133.015063 
L 95.862567 133.015063 
L 96.095222 132.908063 
L 96.193306 132.694065 
L 96.349302 132.587065 
L 96.408219 132.052069 
L 96.459436 132.052069 
L 96.607398 131.945069 
L 96.692426 131.624071 
L 96.705816 131.624071 
L 96.774106 131.517072 
L 96.824654 130.875076 
L 96.884241 130.875076 
L 97.063 130.768076 
L 97.171126 130.554078 
L 97.173804 130.554078 
L 97.326787 130.447078 
L 97.40579 130.23308 
L 97.436587 130.23308 
L 97.559442 130.12608 
L 97.626394 129.912081 
L 97.661208 129.912081 
L 97.793102 129.912081 
L 97.858714 129.591083 
L 97.899554 129.591083 
L 97.927339 129.484084 
L 97.948763 129.377085 
L 98.035799 129.377085 
L 98.213889 129.270085 
L 98.319672 128.949087 
L 98.510483 128.842088 
L 98.514165 128.628089 
L 98.619613 128.628089 
L 98.725396 128.52109 
L 98.750502 128.41409 
L 98.814775 128.41409 
L 98.861306 128.307091 
L 98.95939 127.879094 
L 98.971106 127.879094 
L 99.351723 127.772094 
L 99.420683 127.451096 
L 99.450476 127.451096 
L 99.497676 127.344097 
L 99.526131 127.023099 
L 99.58103 127.023099 
L 99.748073 126.916099 
L 99.848835 126.595101 
L 99.858208 126.595101 
L 100.011861 126.488102 
L 100.023577 126.274103 
L 100.114631 126.274103 
L 100.214722 126.167104 
L 100.312471 125.846106 
L 100.324187 125.846106 
L 100.501273 125.739107 
L 100.5468 125.525108 
L 100.605047 125.525108 
L 100.798201 125.418108 
L 100.80021 125.311109 
L 100.909005 125.311109 
L 100.985999 125.20411 
L 100.985999 125.09711 
L 101.090443 125.09711 
L 101.114545 124.990111 
L 101.117223 124.883112 
L 101.217984 124.883112 
L 101.261168 124.776112 
L 101.333475 124.562114 
L 101.370633 124.562114 
L 101.530981 124.455114 
L 101.640781 124.241115 
L 101.724804 124.134116 
L 101.801798 123.813118 
L 101.834604 123.813118 
L 101.972188 123.706119 
L 102.078306 123.385121 
L 102.082992 123.385121 
L 102.158982 123.278121 
L 102.208526 122.957123 
L 102.262087 122.957123 
L 102.43549 122.850124 
L 102.513153 122.636125 
L 102.5319 122.636125 
L 102.636678 122.529126 
L 102.639356 122.422126 
L 102.745808 122.422126 
L 102.821128 122.315127 
L 102.903143 122.101128 
L 102.926576 122.101128 
L 103.021981 121.994129 
L 103.131112 121.673131 
L 103.409293 121.566132 
L 103.493317 121.245133 
L 103.511729 121.245133 
L 103.744718 121.138134 
L 103.745053 121.031135 
L 103.854183 121.031135 
L 104.090521 120.924135 
L 104.113619 120.710137 
L 104.191617 120.710137 
L 104.537419 120.603137 
L 104.63952 120.17514 
L 104.645545 120.17514 
L 104.687724 120.068141 
L 104.697432 119.961141 
L 104.795516 119.961141 
L 104.864141 119.854142 
L 104.953186 119.533144 
L 104.972601 119.533144 
L 105.227015 119.426144 
L 105.238062 119.319145 
L 105.33648 119.319145 
L 105.511558 119.212146 
L 105.565118 118.998147 
L 105.618345 118.998147 
L 106.136881 118.891148 
L 106.191781 118.677149 
L 106.247015 118.677149 
L 106.35715 118.677149 
L 106.362841 118.46315 
L 106.467284 118.46315 
L 106.696592 118.356151 
L 106.72605 118.249151 
L 106.806392 118.249151 
L 106.932929 118.142152 
L 106.936277 118.035153 
L 107.042729 118.035153 
L 107.508708 117.928153 
L 107.509043 117.821154 
L 107.618843 117.821154 
L 107.828065 117.714155 
L 107.906063 117.393157 
L 107.932509 117.393157 
L 108.06708 117.286157 
L 108.132358 117.072159 
L 108.172194 117.072159 
L 108.231445 116.965159 
L 108.23245 116.85816 
L 108.34091 116.85816 
L 108.595659 116.75116 
L 108.697425 116.430162 
L 108.759689 116.323163 
L 108.759689 116.216164 
L 108.858777 116.216164 
L 109.010086 116.109164 
L 109.060635 115.895166 
L 109.112187 115.895166 
L 109.21797 115.788166 
L 109.264835 115.574168 
L 109.318731 115.574168 
L 109.746883 115.467168 
L 109.746883 115.360169 
L 109.857687 115.360169 
L 110.126496 115.253169 
L 110.127835 115.14617 
L 110.220897 115.14617 
L 110.285839 115.039171 
L 110.317641 114.718173 
L 110.39497 114.718173 
L 110.513138 114.611173 
L 110.513138 114.504174 
L 110.618921 114.504174 
L 110.882374 114.397175 
L 110.886056 114.290175 
L 110.992843 114.290175 
L 111.3122 114.183176 
L 111.381829 113.969177 
L 111.42133 113.969177 
L 111.566948 113.862178 
L 111.61214 113.648179 
L 111.656663 113.648179 
L 111.683778 113.54118 
L 111.693821 113.43418 
L 111.7909 113.43418 
L 111.808642 113.43418 
L 111.903378 112.899184 
L 111.918776 112.899184 
L 112.00347 112.792184 
L 112.021881 112.578185 
L 112.107244 112.578185 
L 112.168169 112.471186 
L 112.174864 112.257187 
L 112.265248 112.257187 
L 112.660594 112.150188 
L 112.660594 111.936189 
L 112.771398 111.936189 
L 112.866804 111.82919 
L 112.961874 111.508192 
L 112.976604 111.508192 
L 113.122557 111.401193 
L 113.123561 111.294193 
L 113.228674 111.294193 
L 113.690637 111.187194 
L 113.695993 111.080194 
L 113.798093 111.080194 
L 114.064224 110.973195 
L 114.153269 110.759196 
L 114.173689 110.759196 
L 114.554641 110.652197 
L 114.558992 110.545198 
L 114.660089 110.545198 
L 114.875671 110.438198 
L 114.983797 110.2242 
L 114.98614 110.2242 
L 115.166239 110.1172 
L 115.180968 110.010201 
L 115.27403 110.010201 
L 115.592048 109.903202 
L 115.645943 109.689203 
L 115.694818 109.689203 
L 116.403495 109.582203 
L 116.435966 109.368205 
L 116.513964 109.368205 
L 116.604348 109.261205 
L 116.672973 108.940207 
L 116.707787 108.940207 
L 116.88889 108.833208 
L 116.991995 108.619209 
L 116.995342 108.619209 
L 117.098112 108.51221 
L 117.20423 108.084212 
L 117.475382 107.977213 
L 117.523921 107.656215 
L 117.58083 107.656215 
L 117.806455 107.549216 
L 117.914916 107.335217 
L 117.935336 107.228218 
L 117.935336 107.121218 
L 118.045805 107.121218 
L 118.369513 107.014219 
L 118.437804 106.693221 
L 118.474961 106.693221 
L 118.582083 106.586221 
L 118.590787 106.479222 
L 118.68954 106.479222 
L 119.487262 106.372223 
L 119.487262 106.265223 
L 119.598066 106.265223 
L 119.970314 106.158224 
L 120.026218 105.944225 
L 120.080783 105.944225 
L 120.389428 105.837226 
L 120.395453 105.730227 
L 120.500232 105.730227 
L 120.92671 105.623227 
L 121.018768 105.19523 
L 121.03015 105.19523 
L 121.536969 105.08823 
L 121.587183 104.874232 
L 121.638065 104.874232 
L 121.735144 104.767232 
L 121.839253 104.339235 
L 121.911226 104.232236 
L 122.020021 104.018237 
L 122.02203 104.018237 
L 122.419385 103.911238 
L 122.498387 103.590239 
L 122.511108 103.590239 
L 122.67949 103.48324 
L 122.67949 103.376241 
L 122.789624 103.376241 
L 123.665009 103.269241 
L 123.676391 103.162242 
L 123.772466 103.162242 
L 123.828705 103.055243 
L 123.921767 102.841244 
L 123.933483 102.841244 
L 123.971311 102.734245 
L 124.066046 102.413246 
L 124.080441 102.413246 
L 124.139358 102.306247 
L 124.213339 102.092248 
L 124.24581 102.092248 
L 124.46474 101.985249 
L 124.473444 101.87825 
L 124.571527 101.87825 
L 124.864103 101.77125 
L 124.864103 101.664251 
L 124.974238 101.664251 
L 125.539975 101.557252 
L 125.558386 101.450252 
L 125.645757 101.450252 
L 125.675551 101.343253 
L 125.782338 101.129254 
L 125.784011 101.129254 
L 126.169984 101.022255 
L 126.184714 100.915255 
L 126.244635 100.915255 
L 126.690194 100.808256 
L 126.692872 100.701257 
L 126.793634 100.701257 
L 127.339955 100.594257 
L 127.431008 100.273259 
L 127.440716 100.273259 
L 127.623827 100.16626 
L 127.634874 100.059261 
L 127.728606 100.059261 
L 127.8528 99.952261 
L 127.87322 99.738263 
L 127.958917 99.738263 
L 128.24212 99.631263 
L 128.24212 99.524264 
L 128.348907 99.524264 
L 128.914979 99.417264 
L 128.915648 99.310265 
L 129.003689 99.310265 
L 129.607253 99.203266 
L 129.607253 99.096266 
L 129.716718 99.096266 
L 130.758477 98.989267 
L 130.772202 98.775268 
L 130.852208 98.775268 
L 132.165119 98.668269 
L 132.169806 98.56127 
L 132.275254 98.56127 
L 132.399783 98.45427 
L 132.400452 98.347271 
L 132.505566 98.347271 
L 132.919323 98.240272 
L 132.934722 98.133272 
L 133.016068 98.133272 
L 133.445893 98.026273 
L 133.545651 97.812274 
L 133.553015 97.812274 
L 134.6008 97.705275 
L 134.653691 97.491276 
L 134.710265 97.491276 
L 134.940576 97.384277 
L 134.998154 97.170278 
L 135.044685 97.170278 
L 135.304121 97.063279 
L 135.334918 96.742281 
L 135.407895 96.742281 
L 135.837721 96.635281 
L 135.925762 96.421282 
L 135.94819 96.421282 
L 136.349562 96.314283 
L 136.456014 95.993285 
L 136.753612 95.886286 
L 136.817885 95.672287 
L 136.850356 95.672287 
L 136.937058 95.565288 
L 136.937727 95.458288 
L 137.046523 95.458288 
L 137.738797 95.351289 
L 137.738797 95.24429 
L 137.840228 95.24429 
L 138.024009 95.13729 
L 138.030704 95.030291 
L 138.134478 95.030291 
L 138.445801 94.923291 
L 138.546227 94.709293 
L 139.059407 94.602293 
L 139.059407 94.495294 
L 139.16519 94.495294 
L 139.716197 94.388295 
L 139.807586 94.174296 
L 139.821645 94.174296 
L 140.329469 94.067297 
L 140.330139 93.960297 
L 140.435922 93.960297 
L 141.315659 93.853298 
L 141.330388 93.746299 
L 141.424789 93.746299 
L 141.598862 93.639299 
L 141.616269 93.5323 
L 141.706653 93.5323 
L 142.117398 93.4253 
L 142.137818 93.318301 
L 142.228202 93.318301 
L 142.376164 93.211302 
L 142.395245 93.104302 
L 142.485964 93.104302 
L 143.120995 92.997303 
L 143.197989 92.783304 
L 143.229456 92.783304 
L 143.672337 92.676305 
L 143.675015 92.569306 
L 143.782471 92.569306 
L 144.110867 92.462306 
L 144.155054 92.141308 
L 144.206272 92.141308 
L 146.422353 92.034309 
L 146.422353 91.927309 
L 146.526796 91.927309 
L 146.837784 91.82031 
L 146.840797 91.713311 
L 146.947919 91.713311 
L 148.566796 91.606311 
L 148.566796 91.499312 
L 148.6776 91.499312 
L 149.659103 91.392313 
L 149.761873 91.178314 
L 149.886067 91.071315 
L 149.888745 90.964315 
L 149.989172 90.964315 
L 150.492644 90.857316 
L 150.494653 90.750316 
L 150.60144 90.750316 
L 150.92883 90.643317 
L 150.979378 90.429318 
L 151.03863 90.429318 
L 151.194291 90.322319 
L 151.194291 90.21532 
L 151.305095 90.21532 
L 151.55181 90.10832 
L 151.552814 90.001321 
L 151.659936 90.001321 
L 152.061308 89.894322 
L 152.061308 89.787322 
L 152.170438 89.787322 
L 153.076286 89.680323 
L 153.07863 89.573324 
L 153.183073 89.573324 
L 154.127084 89.466324 
L 154.127753 89.252325 
L 154.22818 89.252325 
L 154.690142 89.145326 
L 154.69349 89.038327 
L 154.799942 89.038327 
L 155.974599 88.931327 
L 155.974599 88.824328 
L 156.084064 88.824328 
L 156.597579 88.717329 
L 156.608291 88.610329 
L 156.703696 88.610329 
L 157.671474 88.50333 
L 157.671474 88.396331 
L 157.781609 88.396331 
L 158.28642 88.289331 
L 158.286755 88.182332 
L 158.383834 88.182332 
L 158.904044 88.075333 
L 158.904044 87.968333 
L 159.014178 87.968333 
L 159.824286 87.861334 
L 159.82596 87.754334 
L 159.929065 87.754334 
L 160.33211 87.647335 
L 160.33211 87.540336 
L 160.440571 87.540336 
L 161.142553 87.433336 
L 161.143892 87.112338 
L 161.252688 87.112338 
L 161.505763 87.005339 
L 161.511788 86.89834 
L 161.61188 86.89834 
L 162.872234 86.79134 
L 162.874912 86.684341 
L 162.972661 86.684341 
L 165.934577 86.577342 
L 165.949306 86.363343 
L 166.035673 86.363343 
L 166.064127 86.256343 
L 166.11568 86.042345 
L 166.165223 86.042345 
L 166.732299 85.935345 
L 166.732299 85.828346 
L 166.843103 85.828346 
L 168.279873 85.721347 
L 168.279873 85.614347 
L 168.385321 85.614347 
L 169.07157 85.507348 
L 169.07157 85.400349 
L 169.181705 85.400349 
L 169.63965 85.293349 
L 169.654045 85.18635 
L 169.748446 85.18635 
L 170.536795 85.079351 
L 170.536795 84.972351 
L 170.623161 84.972351 
L 171.051983 84.865352 
L 171.078094 84.758352 
L 171.160779 84.758352 
L 172.165045 84.651353 
L 172.165045 84.544354 
L 172.275849 84.544354 
L 174.253584 84.437354 
L 174.258605 84.330355 
L 174.357358 84.330355 
L 175.194916 84.223356 
L 175.194916 84.116356 
L 175.304047 84.116356 
L 175.568838 84.009357 
L 175.605996 83.795358 
L 175.647171 83.795358 
L 176.615953 83.688359 
L 176.617962 83.58136 
L 176.724079 83.58136 
L 177.665077 83.47436 
L 177.670433 83.367361 
L 177.773203 83.367361 
L 180.635696 83.260361 
L 180.640383 83.153362 
L 180.745161 83.153362 
L 182.364708 83.046363 
L 182.417934 82.832364 
L 182.473169 82.832364 
L 184.357507 82.725365 
L 184.363198 82.618365 
L 184.463959 82.618365 
L 186.259922 82.511366 
L 186.259922 82.404367 
L 186.362023 82.404367 
L 187.827917 82.297367 
L 187.828586 82.190368 
L 187.938721 82.190368 
L 189.667398 82.083368 
L 189.667398 81.976369 
L 189.775189 81.976369 
L 190.94449 81.86937 
L 190.947837 81.76237 
L 191.039225 81.76237 
L 191.700033 81.655371 
L 191.700033 81.548372 
L 191.79979 81.548372 
L 193.037046 81.441372 
L 193.039389 81.334373 
L 193.143833 81.334373 
L 194.152451 81.227374 
L 194.152451 81.120374 
L 194.261916 81.120374 
L 197.736342 81.013375 
L 197.736677 80.906376 
L 197.844803 80.906376 
L 198.926063 80.799376 
L 198.926063 80.692377 
L 199.033185 80.692377 
L 199.556073 80.585377 
L 199.565781 80.478378 
L 199.666877 80.478378 
L 200.439158 80.371379 
L 200.439158 80.264379 
L 200.548623 80.264379 
L 201.777845 80.15738 
L 201.779518 79.943381 
L 201.888649 79.943381 
L 202.248511 79.836382 
L 202.265248 79.729383 
L 202.352954 79.729383 
L 203.036525 79.622383 
L 203.045898 79.515384 
L 203.146994 79.515384 
L 204.593807 79.408385 
L 204.605858 79.301385 
L 204.684191 79.301385 
L 209.62719 79.194386 
L 209.631207 79.087386 
L 209.732973 79.087386 
L 209.975001 78.980387 
L 209.97567 78.766388 
L 210.07911 78.766388 
L 210.968555 78.659389 
L 210.968555 78.55239 
L 211.079024 78.55239 
L 213.358374 78.44539 
L 213.406244 78.338391 
L 213.469178 78.338391 
L 215.285561 78.231392 
L 215.285561 78.124392 
L 215.392348 78.124392 
L 216.890713 78.017393 
L 216.891383 77.910394 
L 217.001517 77.910394 
L 217.665337 77.803394 
L 217.698143 77.589395 
L 217.771789 77.589395 
L 218.04495 77.482396 
L 218.048297 77.375397 
L 218.151737 77.375397 
L 218.555786 77.268397 
L 218.562147 77.161398 
L 218.666256 77.161398 
L 221.674368 77.054399 
L 221.675707 76.947399 
L 221.785172 76.947399 
L 222.618044 76.8404 
L 222.621391 76.733401 
L 222.726504 76.733401 
L 226.551755 76.626401 
L 226.551755 76.519402 
L 226.66055 76.519402 
L 227.862322 76.412403 
L 227.862657 76.305403 
L 227.968774 76.305403 
L 231.828504 76.198404 
L 231.828504 76.091404 
L 231.93663 76.091404 
L 232.11539 75.984405 
L 232.116059 75.877406 
L 232.220838 75.877406 
L 232.650998 75.770406 
L 232.684474 75.556408 
L 232.746069 75.556408 
L 232.878967 75.449408 
L 232.879636 75.342409 
L 232.989771 75.342409 
L 235.247027 75.23541 
L 235.24937 75.12841 
L 235.357496 75.12841 
L 237.622116 75.021411 
L 237.639859 74.914412 
L 237.728903 74.914412 
L 241.713832 74.807412 
L 241.714167 74.700413 
L 241.822962 74.700413 
L 244.730648 74.593413 
L 244.740691 74.486414 
L 244.833753 74.486414 
L 245.3235 74.379415 
L 245.323835 74.272415 
L 245.434304 74.272415 
L 253.643846 74.165416 
L 253.647528 74.058417 
L 253.749294 74.058417 
L 256.657314 73.951417 
L 256.664009 73.844418 
L 256.732299 73.844418 
L 258.754222 73.737419 
L 258.769621 73.630419 
L 258.864691 73.630419 
L 260.615797 73.52342 
L 260.616467 73.416421 
L 260.725932 73.416421 
L 264.438704 73.309421 
L 264.442052 73.202422 
L 264.545156 73.202422 
L 265.270571 73.095422 
L 265.276932 72.988423 
L 265.379367 72.988423 
L 267.501716 72.881424 
L 267.509416 72.774424 
L 267.608838 72.774424 
L 267.833124 72.667425 
L 267.839484 72.560426 
L 267.935894 72.560426 
L 272.202017 72.453426 
L 272.203356 72.346427 
L 272.30077 72.346427 
L 274.370563 72.239428 
L 274.377258 72.132428 
L 274.478689 72.132428 
L 279.13681 72.025429 
L 279.146184 71.91843 
L 279.24025 71.91843 
L 280.616764 71.81143 
L 280.623794 71.704431 
L 280.723216 71.704431 
L 282.397663 71.597431 
L 282.406701 71.490432 
L 282.508132 71.490432 
L 286.646714 71.383433 
L 286.653744 71.276433 
L 286.749149 71.276433 
L 296.128661 71.169434 
L 296.131674 71.062435 
L 296.239465 71.062435 
L 300.17418 70.955435 
L 300.17485 70.848436 
L 300.28398 70.848436 
L 301.827537 70.741437 
L 301.833228 70.634437 
L 301.926625 70.634437 
L 304.607012 70.527438 
L 304.61605 70.420438 
L 304.710451 70.420438 
L 312.295005 70.313439 
L 312.298687 70.20644 
L 312.395431 70.20644 
L 322.453158 70.09944 
L 322.457175 69.992441 
L 322.558941 69.992441 
L 331.122654 69.885442 
L 331.132697 69.778442 
L 331.230445 69.778442 
L 334.323251 69.671443 
L 334.323251 69.564444 
L 334.431712 69.564444 
L 340.577821 69.457444 
L 340.58619 69.350445 
L 340.680926 69.350445 
L 349.93524 69.243446 
L 349.93524 69.136446 
L 350.038344 69.136446 
L 353.65136 69.029447 
L 353.666089 68.922447 
L 353.761829 68.922447 
L 360.204866 68.815448 
L 360.204866 68.708449 
L 360.313327 68.708449 
L 374.082487 68.601449 
L 374.087174 68.49445 
L 374.192287 68.49445 
L 388.268753 68.387451 
L 388.268753 68.280451 
L 388.377548 68.280451 
L 410.06267 68.173452 
L 410.078403 68.066453 
L 410.165105 68.066453 
L 442.694294 67.959453 
L 442.694294 67.852454 
L 442.804763 67.852454 
L 524.421818 67.745455 
L 524.421818 67.745455 
" style="fill:none;stroke:#ff0000;stroke-width:4;"/>
   </g>
   <g id="patch_3">
    <path d="M 46.08 401.76 
L 46.08 51.84 
" style="fill:none;stroke:#f0f0f0;stroke-linecap:square;stroke-linejoin:miter;stroke-width:3;"/>
   </g>
   <g id="patch_4">
    <path d="M 547.2 401.76 
L 547.2 51.84 
" style="fill:none;stroke:#f0f0f0;stroke-linecap:square;stroke-linejoin:miter;stroke-width:3;"/>
   </g>
   <g id="patch_5">
    <path d="M 46.08 401.76 
L 547.2 401.76 
" style="fill:none;stroke:#f0f0f0;stroke-linecap:square;stroke-linejoin:miter;stroke-width:3;"/>
   </g>
   <g id="patch_6">
    <path d="M 46.08 51.84 
L 547.2 51.84 
" style="fill:none;stroke:#f0f0f0;stroke-linecap:square;stroke-linejoin:miter;stroke-width:3;"/>
   </g>
   <g id="text_15">
    <!-- ROC Curves -->
    <g transform="translate(227.8728 45.84)scale(0.2304 -0.2304)">
     <defs>
      <path d="M 39.40625 66.21875 
Q 28.65625 66.21875 22.328125 58.203125 
Q 16.015625 50.203125 16.015625 36.375 
Q 16.015625 22.609375 22.328125 14.59375 
Q 28.65625 6.59375 39.40625 6.59375 
Q 50.140625 6.59375 56.421875 14.59375 
Q 62.703125 22.609375 62.703125 36.375 
Q 62.703125 50.203125 56.421875 58.203125 
Q 50.140625 66.21875 39.40625 66.21875 
z
M 39.40625 74.21875 
Q 54.734375 74.21875 63.90625 63.9375 
Q 73.09375 53.65625 73.09375 36.375 
Q 73.09375 19.140625 63.90625 8.859375 
Q 54.734375 -1.421875 39.40625 -1.421875 
Q 24.03125 -1.421875 14.8125 8.828125 
Q 5.609375 19.09375 5.609375 36.375 
Q 5.609375 53.65625 14.8125 63.9375 
Q 24.03125 74.21875 39.40625 74.21875 
z
" id="DejaVuSans-79"/>
      <path d="M 64.40625 67.28125 
L 64.40625 56.890625 
Q 59.421875 61.53125 53.78125 63.8125 
Q 48.140625 66.109375 41.796875 66.109375 
Q 29.296875 66.109375 22.65625 58.46875 
Q 16.015625 50.828125 16.015625 36.375 
Q 16.015625 21.96875 22.65625 14.328125 
Q 29.296875 6.6875 41.796875 6.6875 
Q 48.140625 6.6875 53.78125 8.984375 
Q 59.421875 11.28125 64.40625 15.921875 
L 64.40625 5.609375 
Q 59.234375 2.09375 53.4375 0.328125 
Q 47.65625 -1.421875 41.21875 -1.421875 
Q 24.65625 -1.421875 15.125 8.703125 
Q 5.609375 18.84375 5.609375 36.375 
Q 5.609375 53.953125 15.125 64.078125 
Q 24.65625 74.21875 41.21875 74.21875 
Q 47.75 74.21875 53.53125 72.484375 
Q 59.328125 70.75 64.40625 67.28125 
z
" id="DejaVuSans-67"/>
     </defs>
     <use xlink:href="#DejaVuSans-82"/>
     <use x="69.482422" xlink:href="#DejaVuSans-79"/>
     <use x="148.193359" xlink:href="#DejaVuSans-67"/>
     <use x="218.017578" xlink:href="#DejaVuSans-32"/>
     <use x="249.804688" xlink:href="#DejaVuSans-67"/>
     <use x="319.628906" xlink:href="#DejaVuSans-117"/>
     <use x="383.007812" xlink:href="#DejaVuSans-114"/>
     <use x="424.121094" xlink:href="#DejaVuSans-118"/>
     <use x="483.300781" xlink:href="#DejaVuSans-101"/>
     <use x="544.824219" xlink:href="#DejaVuSans-115"/>
    </g>
   </g>
   <g id="legend_1">
    <g id="patch_7">
     <path d="M 417.7825 393.76 
L 536 393.76 
Q 539.2 393.76 539.2 390.56 
L 539.2 345.19 
Q 539.2 341.99 536 341.99 
L 417.7825 341.99 
Q 414.5825 341.99 414.5825 345.19 
L 414.5825 390.56 
Q 414.5825 393.76 417.7825 393.76 
z
" style="fill:#f0f0f0;opacity:0.8;stroke:#cccccc;stroke-linejoin:miter;stroke-width:0.5;"/>
    </g>
    <g id="line2d_27">
     <path d="M 420.9825 354.9475 
L 452.9825 354.9475 
" style="fill:none;stroke:#0000ff;stroke-width:4;"/>
    </g>
    <g id="line2d_28"/>
    <g id="text_16">
     <!-- baseline -->
     <g transform="translate(465.7825 360.5475)scale(0.16 -0.16)">
      <defs>
       <path d="M 48.6875 27.296875 
Q 48.6875 37.203125 44.609375 42.84375 
Q 40.53125 48.484375 33.40625 48.484375 
Q 26.265625 48.484375 22.1875 42.84375 
Q 18.109375 37.203125 18.109375 27.296875 
Q 18.109375 17.390625 22.1875 11.75 
Q 26.265625 6.109375 33.40625 6.109375 
Q 40.53125 6.109375 44.609375 11.75 
Q 48.6875 17.390625 48.6875 27.296875 
z
M 18.109375 46.390625 
Q 20.953125 51.265625 25.265625 53.625 
Q 29.59375 56 35.59375 56 
Q 45.5625 56 51.78125 48.09375 
Q 58.015625 40.1875 58.015625 27.296875 
Q 58.015625 14.40625 51.78125 6.484375 
Q 45.5625 -1.421875 35.59375 -1.421875 
Q 29.59375 -1.421875 25.265625 0.953125 
Q 20.953125 3.328125 18.109375 8.203125 
L 18.109375 0 
L 9.078125 0 
L 9.078125 75.984375 
L 18.109375 75.984375 
z
" id="DejaVuSans-98"/>
       <path d="M 54.890625 33.015625 
L 54.890625 0 
L 45.90625 0 
L 45.90625 32.71875 
Q 45.90625 40.484375 42.875 44.328125 
Q 39.84375 48.1875 33.796875 48.1875 
Q 26.515625 48.1875 22.3125 43.546875 
Q 18.109375 38.921875 18.109375 30.90625 
L 18.109375 0 
L 9.078125 0 
L 9.078125 54.6875 
L 18.109375 54.6875 
L 18.109375 46.1875 
Q 21.34375 51.125 25.703125 53.5625 
Q 30.078125 56 35.796875 56 
Q 45.21875 56 50.046875 50.171875 
Q 54.890625 44.34375 54.890625 33.015625 
z
" id="DejaVuSans-110"/>
      </defs>
      <use xlink:href="#DejaVuSans-98"/>
      <use x="63.476562" xlink:href="#DejaVuSans-97"/>
      <use x="124.755859" xlink:href="#DejaVuSans-115"/>
      <use x="176.855469" xlink:href="#DejaVuSans-101"/>
      <use x="238.378906" xlink:href="#DejaVuSans-108"/>
      <use x="266.162109" xlink:href="#DejaVuSans-105"/>
      <use x="293.945312" xlink:href="#DejaVuSans-110"/>
      <use x="357.324219" xlink:href="#DejaVuSans-101"/>
     </g>
    </g>
    <g id="line2d_29">
     <path d="M 420.9825 378.4325 
L 452.9825 378.4325 
" style="fill:none;stroke:#ff0000;stroke-width:4;"/>
    </g>
    <g id="line2d_30"/>
    <g id="text_17">
     <!-- model -->
     <g transform="translate(465.7825 384.0325)scale(0.16 -0.16)">
      <defs>
       <path d="M 52 44.1875 
Q 55.375 50.25 60.0625 53.125 
Q 64.75 56 71.09375 56 
Q 79.640625 56 84.28125 50.015625 
Q 88.921875 44.046875 88.921875 33.015625 
L 88.921875 0 
L 79.890625 0 
L 79.890625 32.71875 
Q 79.890625 40.578125 77.09375 44.375 
Q 74.3125 48.1875 68.609375 48.1875 
Q 61.625 48.1875 57.5625 43.546875 
Q 53.515625 38.921875 53.515625 30.90625 
L 53.515625 0 
L 44.484375 0 
L 44.484375 32.71875 
Q 44.484375 40.625 41.703125 44.40625 
Q 38.921875 48.1875 33.109375 48.1875 
Q 26.21875 48.1875 22.15625 43.53125 
Q 18.109375 38.875 18.109375 30.90625 
L 18.109375 0 
L 9.078125 0 
L 9.078125 54.6875 
L 18.109375 54.6875 
L 18.109375 46.1875 
Q 21.1875 51.21875 25.484375 53.609375 
Q 29.78125 56 35.6875 56 
Q 41.65625 56 45.828125 52.96875 
Q 50 49.953125 52 44.1875 
z
" id="DejaVuSans-109"/>
       <path d="M 45.40625 46.390625 
L 45.40625 75.984375 
L 54.390625 75.984375 
L 54.390625 0 
L 45.40625 0 
L 45.40625 8.203125 
Q 42.578125 3.328125 38.25 0.953125 
Q 33.9375 -1.421875 27.875 -1.421875 
Q 17.96875 -1.421875 11.734375 6.484375 
Q 5.515625 14.40625 5.515625 27.296875 
Q 5.515625 40.1875 11.734375 48.09375 
Q 17.96875 56 27.875 56 
Q 33.9375 56 38.25 53.625 
Q 42.578125 51.265625 45.40625 46.390625 
z
M 14.796875 27.296875 
Q 14.796875 17.390625 18.875 11.75 
Q 22.953125 6.109375 30.078125 6.109375 
Q 37.203125 6.109375 41.296875 11.75 
Q 45.40625 17.390625 45.40625 27.296875 
Q 45.40625 37.203125 41.296875 42.84375 
Q 37.203125 48.484375 30.078125 48.484375 
Q 22.953125 48.484375 18.875 42.84375 
Q 14.796875 37.203125 14.796875 27.296875 
z
" id="DejaVuSans-100"/>
      </defs>
      <use xlink:href="#DejaVuSans-109"/>
      <use x="97.412109" xlink:href="#DejaVuSans-111"/>
      <use x="158.59375" xlink:href="#DejaVuSans-100"/>
      <use x="222.070312" xlink:href="#DejaVuSans-101"/>
      <use x="283.59375" xlink:href="#DejaVuSans-108"/>
     </g>
    </g>
   </g>
  </g>
 </g>
 <defs>
  <clipPath id="pf69376fb39">
   <rect height="349.92" width="501.12" x="46.08" y="51.84"/>
  </clipPath>
 </defs>
</svg>
