<?xml version="1.0" encoding="utf-8" standalone="no"?>
<!DOCTYPE svg PUBLIC "-//W3C//DTD SVG 1.1//EN"
  "http://www.w3.org/Graphics/SVG/1.1/DTD/svg11.dtd">
<!-- Created with matplotlib (https://matplotlib.org/) -->
<svg height="432pt" version="1.1" viewBox="0 0 576 432" width="576pt" xmlns="http://www.w3.org/2000/svg" xmlns:xlink="http://www.w3.org/1999/xlink">
 <metadata>
  <rdf:RDF xmlns:cc="http://creativecommons.org/ns#" xmlns:dc="http://purl.org/dc/elements/1.1/" xmlns:rdf="http://www.w3.org/1999/02/22-rdf-syntax-ns#">
   <cc:Work>
    <dc:type rdf:resource="http://purl.org/dc/dcmitype/StillImage"/>
    <dc:date>2020-08-27T08:16:14.459946</dc:date>
    <dc:format>image/svg+xml</dc:format>
    <dc:creator>
     <cc:Agent>
      <dc:title>Matplotlib v3.3.0, https://matplotlib.org/</dc:title>
     </cc:Agent>
    </dc:creator>
   </cc:Work>
  </rdf:RDF>
 </metadata>
 <defs>
  <style type="text/css">*{stroke-linecap:butt;stroke-linejoin:round;}</style>
 </defs>
 <g id="figure_1">
  <g id="patch_1">
   <path d="M 0 432 
L 576 432 
L 576 0 
L 0 0 
z
" style="fill:#ffffff;"/>
  </g>
  <g id="axes_1">
   <g id="patch_2">
    <path d="M 72 384.48 
L 518.4 384.48 
L 518.4 51.84 
L 72 51.84 
z
" style="fill:#ffffff;"/>
   </g>
   <g id="matplotlib.axis_1">
    <g id="xtick_1">
     <g id="line2d_1">
      <defs>
       <path d="M 0 0 
L 0 3.5 
" id="m156673b1a7" style="stroke:#000000;stroke-width:0.8;"/>
      </defs>
      <g>
       <use style="stroke:#000000;stroke-width:0.8;" x="92.290909" xlink:href="#m156673b1a7" y="384.48"/>
      </g>
     </g>
     <g id="text_1">
      <!-- 0.0 -->
      <g transform="translate(79.568409 403.6375)scale(0.16 -0.16)">
       <defs>
        <path d="M 31.78125 66.40625 
Q 24.171875 66.40625 20.328125 58.90625 
Q 16.5 51.421875 16.5 36.375 
Q 16.5 21.390625 20.328125 13.890625 
Q 24.171875 6.390625 31.78125 6.390625 
Q 39.453125 6.390625 43.28125 13.890625 
Q 47.125 21.390625 47.125 36.375 
Q 47.125 51.421875 43.28125 58.90625 
Q 39.453125 66.40625 31.78125 66.40625 
z
M 31.78125 74.21875 
Q 44.046875 74.21875 50.515625 64.515625 
Q 56.984375 54.828125 56.984375 36.375 
Q 56.984375 17.96875 50.515625 8.265625 
Q 44.046875 -1.421875 31.78125 -1.421875 
Q 19.53125 -1.421875 13.0625 8.265625 
Q 6.59375 17.96875 6.59375 36.375 
Q 6.59375 54.828125 13.0625 64.515625 
Q 19.53125 74.21875 31.78125 74.21875 
z
" id="DejaVuSans-48"/>
        <path d="M 10.6875 12.40625 
L 21 12.40625 
L 21 0 
L 10.6875 0 
z
" id="DejaVuSans-46"/>
       </defs>
       <use xlink:href="#DejaVuSans-48"/>
       <use x="63.623047" xlink:href="#DejaVuSans-46"/>
       <use x="95.410156" xlink:href="#DejaVuSans-48"/>
      </g>
     </g>
    </g>
    <g id="xtick_2">
     <g id="line2d_2">
      <g>
       <use style="stroke:#000000;stroke-width:0.8;" x="173.454545" xlink:href="#m156673b1a7" y="384.48"/>
      </g>
     </g>
     <g id="text_2">
      <!-- 0.2 -->
      <g transform="translate(160.732045 403.6375)scale(0.16 -0.16)">
       <defs>
        <path d="M 19.1875 8.296875 
L 53.609375 8.296875 
L 53.609375 0 
L 7.328125 0 
L 7.328125 8.296875 
Q 12.9375 14.109375 22.625 23.890625 
Q 32.328125 33.6875 34.8125 36.53125 
Q 39.546875 41.84375 41.421875 45.53125 
Q 43.3125 49.21875 43.3125 52.78125 
Q 43.3125 58.59375 39.234375 62.25 
Q 35.15625 65.921875 28.609375 65.921875 
Q 23.96875 65.921875 18.8125 64.3125 
Q 13.671875 62.703125 7.8125 59.421875 
L 7.8125 69.390625 
Q 13.765625 71.78125 18.9375 73 
Q 24.125 74.21875 28.421875 74.21875 
Q 39.75 74.21875 46.484375 68.546875 
Q 53.21875 62.890625 53.21875 53.421875 
Q 53.21875 48.921875 51.53125 44.890625 
Q 49.859375 40.875 45.40625 35.40625 
Q 44.1875 33.984375 37.640625 27.21875 
Q 31.109375 20.453125 19.1875 8.296875 
z
" id="DejaVuSans-50"/>
       </defs>
       <use xlink:href="#DejaVuSans-48"/>
       <use x="63.623047" xlink:href="#DejaVuSans-46"/>
       <use x="95.410156" xlink:href="#DejaVuSans-50"/>
      </g>
     </g>
    </g>
    <g id="xtick_3">
     <g id="line2d_3">
      <g>
       <use style="stroke:#000000;stroke-width:0.8;" x="254.618182" xlink:href="#m156673b1a7" y="384.48"/>
      </g>
     </g>
     <g id="text_3">
      <!-- 0.4 -->
      <g transform="translate(241.895682 403.6375)scale(0.16 -0.16)">
       <defs>
        <path d="M 37.796875 64.3125 
L 12.890625 25.390625 
L 37.796875 25.390625 
z
M 35.203125 72.90625 
L 47.609375 72.90625 
L 47.609375 25.390625 
L 58.015625 25.390625 
L 58.015625 17.1875 
L 47.609375 17.1875 
L 47.609375 0 
L 37.796875 0 
L 37.796875 17.1875 
L 4.890625 17.1875 
L 4.890625 26.703125 
z
" id="DejaVuSans-52"/>
       </defs>
       <use xlink:href="#DejaVuSans-48"/>
       <use x="63.623047" xlink:href="#DejaVuSans-46"/>
       <use x="95.410156" xlink:href="#DejaVuSans-52"/>
      </g>
     </g>
    </g>
    <g id="xtick_4">
     <g id="line2d_4">
      <g>
       <use style="stroke:#000000;stroke-width:0.8;" x="335.781818" xlink:href="#m156673b1a7" y="384.48"/>
      </g>
     </g>
     <g id="text_4">
      <!-- 0.6 -->
      <g transform="translate(323.059318 403.6375)scale(0.16 -0.16)">
       <defs>
        <path d="M 33.015625 40.375 
Q 26.375 40.375 22.484375 35.828125 
Q 18.609375 31.296875 18.609375 23.390625 
Q 18.609375 15.53125 22.484375 10.953125 
Q 26.375 6.390625 33.015625 6.390625 
Q 39.65625 6.390625 43.53125 10.953125 
Q 47.40625 15.53125 47.40625 23.390625 
Q 47.40625 31.296875 43.53125 35.828125 
Q 39.65625 40.375 33.015625 40.375 
z
M 52.59375 71.296875 
L 52.59375 62.3125 
Q 48.875 64.0625 45.09375 64.984375 
Q 41.3125 65.921875 37.59375 65.921875 
Q 27.828125 65.921875 22.671875 59.328125 
Q 17.53125 52.734375 16.796875 39.40625 
Q 19.671875 43.65625 24.015625 45.921875 
Q 28.375 48.1875 33.59375 48.1875 
Q 44.578125 48.1875 50.953125 41.515625 
Q 57.328125 34.859375 57.328125 23.390625 
Q 57.328125 12.15625 50.6875 5.359375 
Q 44.046875 -1.421875 33.015625 -1.421875 
Q 20.359375 -1.421875 13.671875 8.265625 
Q 6.984375 17.96875 6.984375 36.375 
Q 6.984375 53.65625 15.1875 63.9375 
Q 23.390625 74.21875 37.203125 74.21875 
Q 40.921875 74.21875 44.703125 73.484375 
Q 48.484375 72.75 52.59375 71.296875 
z
" id="DejaVuSans-54"/>
       </defs>
       <use xlink:href="#DejaVuSans-48"/>
       <use x="63.623047" xlink:href="#DejaVuSans-46"/>
       <use x="95.410156" xlink:href="#DejaVuSans-54"/>
      </g>
     </g>
    </g>
    <g id="xtick_5">
     <g id="line2d_5">
      <g>
       <use style="stroke:#000000;stroke-width:0.8;" x="416.945455" xlink:href="#m156673b1a7" y="384.48"/>
      </g>
     </g>
     <g id="text_5">
      <!-- 0.8 -->
      <g transform="translate(404.222955 403.6375)scale(0.16 -0.16)">
       <defs>
        <path d="M 31.78125 34.625 
Q 24.75 34.625 20.71875 30.859375 
Q 16.703125 27.09375 16.703125 20.515625 
Q 16.703125 13.921875 20.71875 10.15625 
Q 24.75 6.390625 31.78125 6.390625 
Q 38.8125 6.390625 42.859375 10.171875 
Q 46.921875 13.96875 46.921875 20.515625 
Q 46.921875 27.09375 42.890625 30.859375 
Q 38.875 34.625 31.78125 34.625 
z
M 21.921875 38.8125 
Q 15.578125 40.375 12.03125 44.71875 
Q 8.5 49.078125 8.5 55.328125 
Q 8.5 64.0625 14.71875 69.140625 
Q 20.953125 74.21875 31.78125 74.21875 
Q 42.671875 74.21875 48.875 69.140625 
Q 55.078125 64.0625 55.078125 55.328125 
Q 55.078125 49.078125 51.53125 44.71875 
Q 48 40.375 41.703125 38.8125 
Q 48.828125 37.15625 52.796875 32.3125 
Q 56.78125 27.484375 56.78125 20.515625 
Q 56.78125 9.90625 50.3125 4.234375 
Q 43.84375 -1.421875 31.78125 -1.421875 
Q 19.734375 -1.421875 13.25 4.234375 
Q 6.78125 9.90625 6.78125 20.515625 
Q 6.78125 27.484375 10.78125 32.3125 
Q 14.796875 37.15625 21.921875 38.8125 
z
M 18.3125 54.390625 
Q 18.3125 48.734375 21.84375 45.5625 
Q 25.390625 42.390625 31.78125 42.390625 
Q 38.140625 42.390625 41.71875 45.5625 
Q 45.3125 48.734375 45.3125 54.390625 
Q 45.3125 60.0625 41.71875 63.234375 
Q 38.140625 66.40625 31.78125 66.40625 
Q 25.390625 66.40625 21.84375 63.234375 
Q 18.3125 60.0625 18.3125 54.390625 
z
" id="DejaVuSans-56"/>
       </defs>
       <use xlink:href="#DejaVuSans-48"/>
       <use x="63.623047" xlink:href="#DejaVuSans-46"/>
       <use x="95.410156" xlink:href="#DejaVuSans-56"/>
      </g>
     </g>
    </g>
    <g id="xtick_6">
     <g id="line2d_6">
      <g>
       <use style="stroke:#000000;stroke-width:0.8;" x="498.109091" xlink:href="#m156673b1a7" y="384.48"/>
      </g>
     </g>
     <g id="text_6">
      <!-- 1.0 -->
      <g transform="translate(485.386591 403.6375)scale(0.16 -0.16)">
       <defs>
        <path d="M 12.40625 8.296875 
L 28.515625 8.296875 
L 28.515625 63.921875 
L 10.984375 60.40625 
L 10.984375 69.390625 
L 28.421875 72.90625 
L 38.28125 72.90625 
L 38.28125 8.296875 
L 54.390625 8.296875 
L 54.390625 0 
L 12.40625 0 
z
" id="DejaVuSans-49"/>
       </defs>
       <use xlink:href="#DejaVuSans-49"/>
       <use x="63.623047" xlink:href="#DejaVuSans-46"/>
       <use x="95.410156" xlink:href="#DejaVuSans-48"/>
      </g>
     </g>
    </g>
    <g id="text_7">
     <!-- False Positive Rate -->
     <g transform="translate(220.85375 423.1225)scale(0.16 -0.16)">
      <defs>
       <path d="M 9.8125 72.90625 
L 51.703125 72.90625 
L 51.703125 64.59375 
L 19.671875 64.59375 
L 19.671875 43.109375 
L 48.578125 43.109375 
L 48.578125 34.8125 
L 19.671875 34.8125 
L 19.671875 0 
L 9.8125 0 
z
" id="DejaVuSans-70"/>
       <path d="M 34.28125 27.484375 
Q 23.390625 27.484375 19.1875 25 
Q 14.984375 22.515625 14.984375 16.5 
Q 14.984375 11.71875 18.140625 8.90625 
Q 21.296875 6.109375 26.703125 6.109375 
Q 34.1875 6.109375 38.703125 11.40625 
Q 43.21875 16.703125 43.21875 25.484375 
L 43.21875 27.484375 
z
M 52.203125 31.203125 
L 52.203125 0 
L 43.21875 0 
L 43.21875 8.296875 
Q 40.140625 3.328125 35.546875 0.953125 
Q 30.953125 -1.421875 24.3125 -1.421875 
Q 15.921875 -1.421875 10.953125 3.296875 
Q 6 8.015625 6 15.921875 
Q 6 25.140625 12.171875 29.828125 
Q 18.359375 34.515625 30.609375 34.515625 
L 43.21875 34.515625 
L 43.21875 35.40625 
Q 43.21875 41.609375 39.140625 45 
Q 35.0625 48.390625 27.6875 48.390625 
Q 23 48.390625 18.546875 47.265625 
Q 14.109375 46.140625 10.015625 43.890625 
L 10.015625 52.203125 
Q 14.9375 54.109375 19.578125 55.046875 
Q 24.21875 56 28.609375 56 
Q 40.484375 56 46.34375 49.84375 
Q 52.203125 43.703125 52.203125 31.203125 
z
" id="DejaVuSans-97"/>
       <path d="M 9.421875 75.984375 
L 18.40625 75.984375 
L 18.40625 0 
L 9.421875 0 
z
" id="DejaVuSans-108"/>
       <path d="M 44.28125 53.078125 
L 44.28125 44.578125 
Q 40.484375 46.53125 36.375 47.5 
Q 32.28125 48.484375 27.875 48.484375 
Q 21.1875 48.484375 17.84375 46.4375 
Q 14.5 44.390625 14.5 40.28125 
Q 14.5 37.15625 16.890625 35.375 
Q 19.28125 33.59375 26.515625 31.984375 
L 29.59375 31.296875 
Q 39.15625 29.25 43.1875 25.515625 
Q 47.21875 21.78125 47.21875 15.09375 
Q 47.21875 7.46875 41.1875 3.015625 
Q 35.15625 -1.421875 24.609375 -1.421875 
Q 20.21875 -1.421875 15.453125 -0.5625 
Q 10.6875 0.296875 5.421875 2 
L 5.421875 11.28125 
Q 10.40625 8.6875 15.234375 7.390625 
Q 20.0625 6.109375 24.8125 6.109375 
Q 31.15625 6.109375 34.5625 8.28125 
Q 37.984375 10.453125 37.984375 14.40625 
Q 37.984375 18.0625 35.515625 20.015625 
Q 33.0625 21.96875 24.703125 23.78125 
L 21.578125 24.515625 
Q 13.234375 26.265625 9.515625 29.90625 
Q 5.8125 33.546875 5.8125 39.890625 
Q 5.8125 47.609375 11.28125 51.796875 
Q 16.75 56 26.8125 56 
Q 31.78125 56 36.171875 55.265625 
Q 40.578125 54.546875 44.28125 53.078125 
z
" id="DejaVuSans-115"/>
       <path d="M 56.203125 29.59375 
L 56.203125 25.203125 
L 14.890625 25.203125 
Q 15.484375 15.921875 20.484375 11.0625 
Q 25.484375 6.203125 34.421875 6.203125 
Q 39.59375 6.203125 44.453125 7.46875 
Q 49.3125 8.734375 54.109375 11.28125 
L 54.109375 2.78125 
Q 49.265625 0.734375 44.1875 -0.34375 
Q 39.109375 -1.421875 33.890625 -1.421875 
Q 20.796875 -1.421875 13.15625 6.1875 
Q 5.515625 13.8125 5.515625 26.8125 
Q 5.515625 40.234375 12.765625 48.109375 
Q 20.015625 56 32.328125 56 
Q 43.359375 56 49.78125 48.890625 
Q 56.203125 41.796875 56.203125 29.59375 
z
M 47.21875 32.234375 
Q 47.125 39.59375 43.09375 43.984375 
Q 39.0625 48.390625 32.421875 48.390625 
Q 24.90625 48.390625 20.390625 44.140625 
Q 15.875 39.890625 15.1875 32.171875 
z
" id="DejaVuSans-101"/>
       <path id="DejaVuSans-32"/>
       <path d="M 19.671875 64.796875 
L 19.671875 37.40625 
L 32.078125 37.40625 
Q 38.96875 37.40625 42.71875 40.96875 
Q 46.484375 44.53125 46.484375 51.125 
Q 46.484375 57.671875 42.71875 61.234375 
Q 38.96875 64.796875 32.078125 64.796875 
z
M 9.8125 72.90625 
L 32.078125 72.90625 
Q 44.34375 72.90625 50.609375 67.359375 
Q 56.890625 61.8125 56.890625 51.125 
Q 56.890625 40.328125 50.609375 34.8125 
Q 44.34375 29.296875 32.078125 29.296875 
L 19.671875 29.296875 
L 19.671875 0 
L 9.8125 0 
z
" id="DejaVuSans-80"/>
       <path d="M 30.609375 48.390625 
Q 23.390625 48.390625 19.1875 42.75 
Q 14.984375 37.109375 14.984375 27.296875 
Q 14.984375 17.484375 19.15625 11.84375 
Q 23.34375 6.203125 30.609375 6.203125 
Q 37.796875 6.203125 41.984375 11.859375 
Q 46.1875 17.53125 46.1875 27.296875 
Q 46.1875 37.015625 41.984375 42.703125 
Q 37.796875 48.390625 30.609375 48.390625 
z
M 30.609375 56 
Q 42.328125 56 49.015625 48.375 
Q 55.71875 40.765625 55.71875 27.296875 
Q 55.71875 13.875 49.015625 6.21875 
Q 42.328125 -1.421875 30.609375 -1.421875 
Q 18.84375 -1.421875 12.171875 6.21875 
Q 5.515625 13.875 5.515625 27.296875 
Q 5.515625 40.765625 12.171875 48.375 
Q 18.84375 56 30.609375 56 
z
" id="DejaVuSans-111"/>
       <path d="M 9.421875 54.6875 
L 18.40625 54.6875 
L 18.40625 0 
L 9.421875 0 
z
M 9.421875 75.984375 
L 18.40625 75.984375 
L 18.40625 64.59375 
L 9.421875 64.59375 
z
" id="DejaVuSans-105"/>
       <path d="M 18.3125 70.21875 
L 18.3125 54.6875 
L 36.8125 54.6875 
L 36.8125 47.703125 
L 18.3125 47.703125 
L 18.3125 18.015625 
Q 18.3125 11.328125 20.140625 9.421875 
Q 21.96875 7.515625 27.59375 7.515625 
L 36.8125 7.515625 
L 36.8125 0 
L 27.59375 0 
Q 17.1875 0 13.234375 3.875 
Q 9.28125 7.765625 9.28125 18.015625 
L 9.28125 47.703125 
L 2.6875 47.703125 
L 2.6875 54.6875 
L 9.28125 54.6875 
L 9.28125 70.21875 
z
" id="DejaVuSans-116"/>
       <path d="M 2.984375 54.6875 
L 12.5 54.6875 
L 29.59375 8.796875 
L 46.6875 54.6875 
L 56.203125 54.6875 
L 35.6875 0 
L 23.484375 0 
z
" id="DejaVuSans-118"/>
       <path d="M 44.390625 34.1875 
Q 47.5625 33.109375 50.5625 29.59375 
Q 53.5625 26.078125 56.59375 19.921875 
L 66.609375 0 
L 56 0 
L 46.6875 18.703125 
Q 43.0625 26.03125 39.671875 28.421875 
Q 36.28125 30.8125 30.421875 30.8125 
L 19.671875 30.8125 
L 19.671875 0 
L 9.8125 0 
L 9.8125 72.90625 
L 32.078125 72.90625 
Q 44.578125 72.90625 50.734375 67.671875 
Q 56.890625 62.453125 56.890625 51.90625 
Q 56.890625 45.015625 53.6875 40.46875 
Q 50.484375 35.9375 44.390625 34.1875 
z
M 19.671875 64.796875 
L 19.671875 38.921875 
L 32.078125 38.921875 
Q 39.203125 38.921875 42.84375 42.21875 
Q 46.484375 45.515625 46.484375 51.90625 
Q 46.484375 58.296875 42.84375 61.546875 
Q 39.203125 64.796875 32.078125 64.796875 
z
" id="DejaVuSans-82"/>
      </defs>
      <use xlink:href="#DejaVuSans-70"/>
      <use x="48.394531" xlink:href="#DejaVuSans-97"/>
      <use x="109.673828" xlink:href="#DejaVuSans-108"/>
      <use x="137.457031" xlink:href="#DejaVuSans-115"/>
      <use x="189.556641" xlink:href="#DejaVuSans-101"/>
      <use x="251.080078" xlink:href="#DejaVuSans-32"/>
      <use x="282.867188" xlink:href="#DejaVuSans-80"/>
      <use x="339.544922" xlink:href="#DejaVuSans-111"/>
      <use x="400.726562" xlink:href="#DejaVuSans-115"/>
      <use x="452.826172" xlink:href="#DejaVuSans-105"/>
      <use x="480.609375" xlink:href="#DejaVuSans-116"/>
      <use x="519.818359" xlink:href="#DejaVuSans-105"/>
      <use x="547.601562" xlink:href="#DejaVuSans-118"/>
      <use x="606.78125" xlink:href="#DejaVuSans-101"/>
      <use x="668.304688" xlink:href="#DejaVuSans-32"/>
      <use x="700.091797" xlink:href="#DejaVuSans-82"/>
      <use x="767.324219" xlink:href="#DejaVuSans-97"/>
      <use x="828.603516" xlink:href="#DejaVuSans-116"/>
      <use x="867.8125" xlink:href="#DejaVuSans-101"/>
     </g>
    </g>
   </g>
   <g id="matplotlib.axis_2">
    <g id="ytick_1">
     <g id="line2d_7">
      <defs>
       <path d="M 0 0 
L -3.5 0 
" id="m6baed646cc" style="stroke:#000000;stroke-width:0.8;"/>
      </defs>
      <g>
       <use style="stroke:#000000;stroke-width:0.8;" x="72" xlink:href="#m6baed646cc" y="369.36"/>
      </g>
     </g>
     <g id="text_8">
      <!-- 0.0 -->
      <g transform="translate(39.555 375.43875)scale(0.16 -0.16)">
       <use xlink:href="#DejaVuSans-48"/>
       <use x="63.623047" xlink:href="#DejaVuSans-46"/>
       <use x="95.410156" xlink:href="#DejaVuSans-48"/>
      </g>
     </g>
    </g>
    <g id="ytick_2">
     <g id="line2d_8">
      <g>
       <use style="stroke:#000000;stroke-width:0.8;" x="72" xlink:href="#m6baed646cc" y="308.88"/>
      </g>
     </g>
     <g id="text_9">
      <!-- 0.2 -->
      <g transform="translate(39.555 314.95875)scale(0.16 -0.16)">
       <use xlink:href="#DejaVuSans-48"/>
       <use x="63.623047" xlink:href="#DejaVuSans-46"/>
       <use x="95.410156" xlink:href="#DejaVuSans-50"/>
      </g>
     </g>
    </g>
    <g id="ytick_3">
     <g id="line2d_9">
      <g>
       <use style="stroke:#000000;stroke-width:0.8;" x="72" xlink:href="#m6baed646cc" y="248.4"/>
      </g>
     </g>
     <g id="text_10">
      <!-- 0.4 -->
      <g transform="translate(39.555 254.47875)scale(0.16 -0.16)">
       <use xlink:href="#DejaVuSans-48"/>
       <use x="63.623047" xlink:href="#DejaVuSans-46"/>
       <use x="95.410156" xlink:href="#DejaVuSans-52"/>
      </g>
     </g>
    </g>
    <g id="ytick_4">
     <g id="line2d_10">
      <g>
       <use style="stroke:#000000;stroke-width:0.8;" x="72" xlink:href="#m6baed646cc" y="187.92"/>
      </g>
     </g>
     <g id="text_11">
      <!-- 0.6 -->
      <g transform="translate(39.555 193.99875)scale(0.16 -0.16)">
       <use xlink:href="#DejaVuSans-48"/>
       <use x="63.623047" xlink:href="#DejaVuSans-46"/>
       <use x="95.410156" xlink:href="#DejaVuSans-54"/>
      </g>
     </g>
    </g>
    <g id="ytick_5">
     <g id="line2d_11">
      <g>
       <use style="stroke:#000000;stroke-width:0.8;" x="72" xlink:href="#m6baed646cc" y="127.44"/>
      </g>
     </g>
     <g id="text_12">
      <!-- 0.8 -->
      <g transform="translate(39.555 133.51875)scale(0.16 -0.16)">
       <use xlink:href="#DejaVuSans-48"/>
       <use x="63.623047" xlink:href="#DejaVuSans-46"/>
       <use x="95.410156" xlink:href="#DejaVuSans-56"/>
      </g>
     </g>
    </g>
    <g id="ytick_6">
     <g id="line2d_12">
      <g>
       <use style="stroke:#000000;stroke-width:0.8;" x="72" xlink:href="#m6baed646cc" y="66.96"/>
      </g>
     </g>
     <g id="text_13">
      <!-- 1.0 -->
      <g transform="translate(39.555 73.03875)scale(0.16 -0.16)">
       <use xlink:href="#DejaVuSans-49"/>
       <use x="63.623047" xlink:href="#DejaVuSans-46"/>
       <use x="95.410156" xlink:href="#DejaVuSans-48"/>
      </g>
     </g>
    </g>
    <g id="text_14">
     <!-- True Positive Rate -->
     <g transform="translate(32.2275 289.4075)rotate(-90)scale(0.16 -0.16)">
      <defs>
       <path d="M -0.296875 72.90625 
L 61.375 72.90625 
L 61.375 64.59375 
L 35.5 64.59375 
L 35.5 0 
L 25.59375 0 
L 25.59375 64.59375 
L -0.296875 64.59375 
z
" id="DejaVuSans-84"/>
       <path d="M 41.109375 46.296875 
Q 39.59375 47.171875 37.8125 47.578125 
Q 36.03125 48 33.890625 48 
Q 26.265625 48 22.1875 43.046875 
Q 18.109375 38.09375 18.109375 28.8125 
L 18.109375 0 
L 9.078125 0 
L 9.078125 54.6875 
L 18.109375 54.6875 
L 18.109375 46.1875 
Q 20.953125 51.171875 25.484375 53.578125 
Q 30.03125 56 36.53125 56 
Q 37.453125 56 38.578125 55.875 
Q 39.703125 55.765625 41.0625 55.515625 
z
" id="DejaVuSans-114"/>
       <path d="M 8.5 21.578125 
L 8.5 54.6875 
L 17.484375 54.6875 
L 17.484375 21.921875 
Q 17.484375 14.15625 20.5 10.265625 
Q 23.53125 6.390625 29.59375 6.390625 
Q 36.859375 6.390625 41.078125 11.03125 
Q 45.3125 15.671875 45.3125 23.6875 
L 45.3125 54.6875 
L 54.296875 54.6875 
L 54.296875 0 
L 45.3125 0 
L 45.3125 8.40625 
Q 42.046875 3.421875 37.71875 1 
Q 33.40625 -1.421875 27.6875 -1.421875 
Q 18.265625 -1.421875 13.375 4.4375 
Q 8.5 10.296875 8.5 21.578125 
z
M 31.109375 56 
z
" id="DejaVuSans-117"/>
      </defs>
      <use xlink:href="#DejaVuSans-84"/>
      <use x="46.333984" xlink:href="#DejaVuSans-114"/>
      <use x="87.447266" xlink:href="#DejaVuSans-117"/>
      <use x="150.826172" xlink:href="#DejaVuSans-101"/>
      <use x="212.349609" xlink:href="#DejaVuSans-32"/>
      <use x="244.136719" xlink:href="#DejaVuSans-80"/>
      <use x="300.814453" xlink:href="#DejaVuSans-111"/>
      <use x="361.996094" xlink:href="#DejaVuSans-115"/>
      <use x="414.095703" xlink:href="#DejaVuSans-105"/>
      <use x="441.878906" xlink:href="#DejaVuSans-116"/>
      <use x="481.087891" xlink:href="#DejaVuSans-105"/>
      <use x="508.871094" xlink:href="#DejaVuSans-118"/>
      <use x="568.050781" xlink:href="#DejaVuSans-101"/>
      <use x="629.574219" xlink:href="#DejaVuSans-32"/>
      <use x="661.361328" xlink:href="#DejaVuSans-82"/>
      <use x="728.59375" xlink:href="#DejaVuSans-97"/>
      <use x="789.873047" xlink:href="#DejaVuSans-116"/>
      <use x="829.082031" xlink:href="#DejaVuSans-101"/>
     </g>
    </g>
   </g>
   <g id="line2d_13">
    <path clip-path="url(#pfc6a6189d0)" d="M 92.290909 369.36 
L 498.109091 66.96 
" style="fill:none;stroke:#0000ff;stroke-linecap:square;stroke-width:1.5;"/>
   </g>
   <g id="line2d_14">
    <path clip-path="url(#pfc6a6189d0)" d="M 92.290909 369.36 
L 92.401657 355.819228 
L 92.402909 355.733067 
L 92.51397 346.640888 
L 92.516473 346.536588 
L 92.627221 338.809369 
L 92.629098 338.71414 
L 92.740159 331.862128 
L 92.743913 331.757829 
L 92.854974 325.381966 
L 92.856539 325.336618 
L 92.9676 318.629719 
L 92.969477 318.520885 
L 93.080538 313.305919 
L 93.083353 313.206154 
L 93.194415 308.149905 
L 93.198482 308.041071 
L 93.30923 303.093655 
L 93.312358 302.989356 
L 93.423107 298.168914 
L 93.428425 298.064614 
L 93.539173 293.493583 
L 93.54105 293.45277 
L 93.54105 293.402888 
L 93.652111 289.389632 
L 93.656178 289.289867 
L 93.76724 285.748225 
L 93.770368 285.643926 
L 93.881429 281.916359 
L 93.882368 281.81206 
L 93.993116 277.599274 
L 93.996557 277.49951 
L 94.107305 274.420412 
L 94.109183 274.311578 
L 94.220244 270.633894 
L 94.226188 270.538664 
L 94.336623 267.346198 
L 94.340065 267.260037 
L 94.340065 267.246433 
L 94.451126 264.117454 
L 94.454567 264.00862 
L 94.565628 260.838827 
L 94.569695 260.766271 
L 94.680756 258.154254 
L 94.684823 258.059024 
L 94.795884 254.920975 
L 94.799326 254.816675 
L 94.910387 251.928038 
L 94.913515 251.846412 
L 95.024263 249.184512 
L 95.029269 249.080213 
L 95.139392 246.236923 
L 95.142833 246.141693 
L 95.253581 243.946873 
L 95.2589 243.851643 
L 95.2589 243.838039 
L 95.369961 241.643218 
L 95.379972 241.552523 
L 95.489781 239.257938 
L 95.490407 239.257938 
L 95.498541 239.167243 
L 95.607725 236.967888 
L 95.608351 236.967888 
L 95.614608 236.872658 
L 95.725356 234.523656 
L 95.725669 234.523656 
L 95.734116 234.419357 
L 95.845177 232.274419 
L 95.848931 232.170119 
L 95.959992 229.975299 
L 95.969065 229.880069 
L 96.079813 227.662575 
L 96.085757 227.553741 
L 96.196193 225.417872 
L 96.201824 225.309038 
L 96.312572 223.245725 
L 96.319142 223.136891 
L 96.430203 221.32299 
L 96.441466 221.214156 
L 96.551588 219.255143 
L 96.558784 219.155378 
L 96.669845 217.500193 
L 96.67485 217.391359 
L 96.784973 215.459555 
L 96.785911 215.459555 
L 96.791856 215.364325 
L 96.902917 213.468798 
L 96.909486 213.359964 
L 97.006157 211.831752 
L 97.007408 211.831752 
L 97.038693 211.722918 
L 97.149754 210.008782 
L 97.157262 209.931691 
L 97.157262 209.904482 
L 97.26801 207.977212 
L 97.27458 207.872913 
L 97.385641 206.680273 
L 97.392524 206.571439 
L 97.503585 204.884511 
L 97.512345 204.780211 
L 97.621529 203.07061 
L 97.622155 203.07061 
L 97.63373 202.970845 
L 97.744791 201.234035 
L 97.754802 201.125201 
L 97.865863 199.392925 
L 97.870243 199.29316 
L 97.980053 197.796692 
L 97.980991 197.796692 
L 97.989438 197.687858 
L 98.096432 196.114299 
L 98.109259 196.005464 
L 98.22032 194.431905 
L 98.230018 194.35028 
L 98.230018 194.34121 
L 98.34108 192.676956 
L 98.348901 192.577191 
L 98.348901 192.572657 
L 98.459962 190.876659 
L 98.473727 190.776894 
L 98.584475 189.434607 
L 98.592297 189.325773 
L 98.703358 187.983487 
L 98.711805 187.879187 
L 98.822553 186.441671 
L 98.830687 186.341906 
L 98.941748 184.768347 
L 98.954575 184.673117 
L 99.065636 183.258274 
L 99.076273 183.14944 
L 99.187021 181.915987 
L 99.193591 181.807153 
L 99.304026 180.48754 
L 99.318104 180.383241 
L 99.428227 179.172462 
L 99.449188 179.063628 
L 99.55931 178.029704 
L 99.560249 178.029704 
L 99.575578 177.92087 
L 99.68664 176.605791 
L 99.695712 176.501492 
L 99.805209 175.390478 
L 99.806773 175.390478 
L 99.820539 175.281644 
L 99.930348 174.102608 
L 99.930974 174.102608 
L 99.942549 173.993774 
L 100.05361 172.755786 
L 100.060493 172.651487 
L 100.171554 171.504194 
L 100.192828 171.399895 
L 100.303576 170.161907 
L 100.311397 170.062143 
L 100.420581 168.932989 
L 100.434972 168.824155 
L 100.546033 168.003365 
L 100.556045 167.894531 
L 100.66648 166.842468 
L 100.678368 166.751773 
L 100.789429 165.70878 
L 100.798189 165.604481 
L 100.906747 164.670322 
L 100.90925 164.670322 
L 100.925831 164.566022 
L 101.036892 163.550238 
L 101.054412 163.441404 
L 101.164221 162.402945 
L 101.189249 162.298646 
L 101.30031 161.20577 
L 101.317204 161.096936 
L 101.426388 160.049408 
L 101.440779 159.940574 
L 101.551215 159.142458 
L 101.564667 159.033624 
L 101.6726 158.162951 
L 101.691996 158.058652 
L 101.803057 156.974846 
L 101.817761 156.866012 
L 101.928822 155.872901 
L 101.9429 155.764067 
L 102.053649 154.906999 
L 102.069604 154.802699 
L 102.179726 153.87761 
L 102.201939 153.768776 
L 102.312687 152.775665 
L 102.313 152.775665 
L 102.336776 152.666831 
L 102.444709 152.068243 
L 102.445022 152.068243 
L 102.466921 151.959409 
L 102.575792 151.428843 
L 102.586742 151.329079 
L 102.697803 150.313294 
L 102.716574 150.20446 
L 102.825758 149.347391 
L 102.845467 149.238557 
L 102.955277 148.499393 
L 102.956216 148.499393 
L 102.983746 148.390559 
L 103.092305 147.63779 
L 103.093243 147.63779 
L 103.104193 147.538025 
L 103.213377 146.694561 
L 103.226516 146.585727 
L 103.337577 145.819354 
L 103.35103 145.719589 
L 103.462091 144.876125 
L 103.482426 144.771826 
L 103.593174 143.978244 
L 103.609443 143.873945 
L 103.720191 143.189197 
L 103.736772 143.080363 
L 103.846581 142.39108 
L 103.867542 142.286781 
L 103.977039 141.47506 
L 103.978603 141.47506 
L 103.99362 141.366226 
L 104.104681 140.450206 
L 104.121575 140.350442 
L 104.232323 139.724646 
L 104.251094 139.624881 
L 104.362155 138.949203 
L 104.388122 138.840369 
L 104.498557 138.142017 
L 104.519205 138.046787 
L 104.519205 138.037718 
L 104.630266 137.3439 
L 104.662177 137.235066 
L 104.771986 136.550319 
L 104.772612 136.550319 
L 104.800455 136.441485 
L 104.911204 135.697785 
L 104.929349 135.588951 
L 105.039784 134.976759 
L 105.069192 134.867925 
L 105.17994 134.228525 
L 105.180253 134.228525 
L 105.19746 134.119691 
L 105.308521 133.602729 
L 105.324163 133.493895 
L 105.434912 133.035885 
L 105.457437 132.927051 
L 105.566308 132.310325 
L 105.566621 132.310325 
L 105.585079 132.201491 
L 105.694888 131.602903 
L 105.695514 131.602903 
L 105.729302 131.494069 
L 105.840363 130.886412 
L 105.873838 130.777578 
L 105.984586 130.251547 
L 106.010865 130.147248 
L 106.121926 129.603077 
L 106.146954 129.494243 
L 106.258015 128.895656 
L 106.274596 128.800426 
L 106.274596 128.786822 
L 106.385657 128.337881 
L 106.404428 128.229047 
L 106.515489 127.603251 
L 106.527064 127.494417 
L 106.638126 127.095359 
L 106.662215 126.986525 
L 106.772963 126.442354 
L 106.799242 126.33352 
L 106.910303 125.784815 
L 106.933454 125.675981 
L 107.043264 125.295062 
L 107.044515 125.295062 
L 107.065476 125.186228 
L 107.175599 124.623918 
L 107.214079 124.519619 
L 107.32514 124.025331 
L 107.364872 123.916497 
L 107.475307 123.313375 
L 107.49095 123.209076 
L 107.601072 122.732926 
L 107.601698 122.732926 
L 107.629229 122.624092 
L 107.7381 122.152478 
L 107.761563 122.048179 
L 107.761563 122.043644 
L 107.871999 121.585634 
L 107.897965 121.4768 
L 108.007462 121.073207 
L 108.009026 121.073207 
L 108.034367 120.964373 
L 108.145115 120.55171 
L 108.145428 120.55171 
L 108.177964 120.442876 
L 108.287461 120.034748 
L 108.307483 119.925914 
L 108.41479 119.467904 
L 108.454209 119.35907 
L 108.564332 118.941873 
L 108.594991 118.833039 
L 108.702611 118.343286 
L 108.730767 118.234452 
L 108.841515 117.749233 
L 108.862789 117.640399 
L 108.973224 117.082624 
L 108.996688 116.97379 
L 109.106185 116.51578 
L 109.139347 116.425085 
L 109.250095 116.021492 
L 109.277 115.912658 
L 109.385558 115.477322 
L 109.387748 115.477322 
L 109.439055 115.368488 
L 109.549178 114.919547 
L 109.586719 114.810713 
L 109.696842 114.470607 
L 109.73282 114.361773 
L 109.843881 114.021666 
L 109.882048 113.912832 
L 109.991545 113.513774 
L 110.039411 113.40494 
L 110.145779 113.078437 
L 110.150159 113.078437 
L 110.200528 112.969603 
L 110.311589 112.761005 
L 110.336304 112.652171 
L 110.446113 112.257647 
L 110.447365 112.257647 
L 110.47208 112.148813 
L 110.582828 111.758824 
L 110.61818 111.64999 
L 110.728615 111.182911 
L 110.729241 111.182911 
L 110.772727 111.074077 
L 110.882849 110.797457 
L 110.920391 110.688623 
L 111.030514 110.398398 
L 111.030827 110.398398 
L 111.071497 110.289564 
L 111.179117 109.908645 
L 111.181932 109.908645 
L 111.206021 109.799811 
L 111.313641 109.473309 
L 111.317083 109.473309 
L 111.411563 109.36901 
L 111.517931 109.001695 
L 111.522624 109.001695 
L 111.567674 108.89286 
L 111.678422 108.575428 
L 111.711897 108.466594 
L 111.821081 108.117418 
L 111.82202 108.117418 
L 111.868008 108.008584 
L 111.977192 107.704755 
L 112.043203 107.595921 
L 112.153326 107.292093 
L 112.209951 107.183259 
L 112.315068 106.883965 
L 112.320387 106.883965 
L 112.360431 106.775131 
L 112.470867 106.457698 
L 112.509034 106.348864 
L 112.619157 106.103987 
L 112.679849 105.999688 
L 112.789972 105.759346 
L 112.79091 105.759346 
L 112.836586 105.650512 
L 112.947647 105.355753 
L 112.9952 105.246919 
L 113.105948 104.902278 
L 113.136607 104.793444 
L 113.247669 104.553102 
L 113.295534 104.444268 
L 113.406595 104.185787 
L 113.467601 104.076953 
L 113.576785 103.76859 
L 113.577411 103.76859 
L 113.611511 103.659756 
L 113.721634 103.414879 
L 113.761365 103.306045 
L 113.871801 103.079307 
L 113.90246 102.979543 
L 114.013208 102.66211 
L 114.059822 102.553276 
L 114.165252 102.371886 
L 114.169632 102.371886 
L 114.2078 102.263052 
L 114.317922 101.995501 
L 114.364849 101.895737 
L 114.364849 101.891202 
L 114.474659 101.637256 
L 114.541921 101.528422 
L 114.652357 101.306219 
L 114.709921 101.201919 
L 114.820043 100.988786 
L 114.883239 100.879952 
L 114.9943 100.607867 
L 115.073138 100.499033 
L 115.18107 100.231482 
L 115.184199 100.231482 
L 115.237696 100.122648 
L 115.347193 99.882306 
L 115.399125 99.773472 
L 115.510186 99.505922 
L 115.563371 99.397088 
L 115.673806 99.174885 
L 115.742633 99.066051 
L 115.850252 98.857452 
L 115.853381 98.857452 
L 115.909381 98.748618 
L 116.020129 98.52188 
L 116.020442 98.52188 
L 116.094587 98.413046 
L 116.202207 98.122822 
L 116.205648 98.122822 
L 116.240687 98.013988 
L 116.351435 97.79632 
L 116.351748 97.79632 
L 116.437781 97.687486 
L 116.546027 97.501561 
L 116.548842 97.501561 
L 116.601714 97.392727 
L 116.709646 97.25215 
L 116.712775 97.25215 
L 116.774406 97.143316 
L 116.881087 96.921113 
L 116.884528 96.921113 
L 116.963053 96.812279 
L 117.066919 96.658097 
L 117.073802 96.658097 
L 117.126673 96.549263 
L 117.235857 96.317991 
L 117.237734 96.317991 
L 117.299991 96.209156 
L 117.411052 96.082183 
L 117.48113 95.973349 
L 117.590627 95.737542 
L 117.686671 95.628708 
L 117.797419 95.447318 
L 117.859676 95.343019 
L 117.970737 95.14349 
L 118.033933 95.034655 
L 118.144994 94.907682 
L 118.20944 94.798848 
L 118.320501 94.612923 
L 118.374937 94.504089 
L 118.476925 94.349908 
L 118.484121 94.349908 
L 118.547629 94.245608 
L 118.547629 94.241074 
L 118.633662 94.055149 
L 118.648053 94.055149 
L 118.743472 93.946315 
L 118.851092 93.819342 
L 118.85422 93.819342 
L 118.934622 93.715042 
L 119.041616 93.583535 
L 119.045683 93.583535 
L 119.109504 93.4747 
L 119.217124 93.311449 
L 119.220566 93.311449 
L 119.312856 93.202615 
L 119.423291 93.012156 
L 119.510889 92.903322 
L 119.61757 92.785418 
L 119.621324 92.785418 
L 119.678262 92.676584 
L 119.784944 92.48159 
L 119.789011 92.48159 
L 119.850642 92.372755 
L 119.961077 92.236713 
L 119.961703 92.236713 
L 120.059311 92.132414 
L 120.158797 92.019045 
L 120.169747 92.019045 
L 120.269545 91.910211 
L 120.378417 91.760564 
L 120.379668 91.760564 
L 120.452874 91.65173 
L 120.559869 91.570104 
L 120.650594 91.46127 
L 120.761343 91.298019 
L 120.848627 91.189185 
L 120.951554 91.044073 
L 121.056671 90.935239 
L 121.15866 90.830939 
L 121.167732 90.830939 
L 121.234682 90.72664 
L 121.345117 90.590598 
L 121.426145 90.481764 
L 121.536893 90.327582 
L 121.636692 90.227817 
L 121.736178 90.069101 
L 121.746189 90.069101 
L 121.824714 89.960267 
L 121.931395 89.837829 
L 121.935462 89.837829 
L 122.020869 89.733529 
L 122.130366 89.547604 
L 122.131305 89.547604 
L 122.257695 89.43877 
L 122.353427 89.293658 
L 122.368757 89.293658 
L 122.457293 89.184824 
L 122.554588 89.021573 
L 122.567415 89.021573 
L 122.673158 88.912739 
L 122.769828 88.840183 
L 122.78328 88.840183 
L 122.90404 88.731349 
L 123.004464 88.577167 
L 123.014788 88.577167 
L 123.130855 88.468333 
L 123.240352 88.391242 
L 123.393334 88.282408 
L 123.504083 88.155435 
L 123.635166 88.051136 
L 123.744976 87.946837 
L 123.745914 87.946837 
L 123.846026 87.838003 
L 123.954271 87.751842 
L 123.956148 87.751842 
L 124.112572 87.643008 
L 124.220192 87.579522 
L 124.359097 87.470688 
L 124.464839 87.348249 
L 124.465778 87.348249 
L 124.573085 87.239415 
L 124.683833 87.162324 
L 124.853709 87.05349 
L 124.964145 86.917448 
L 125.09429 86.808614 
L 125.205038 86.686175 
L 125.333619 86.577341 
L 125.444367 86.491181 
L 125.595472 86.382347 
L 125.702467 86.250839 
L 125.705595 86.250839 
L 125.817282 86.142005 
L 125.926153 86.037706 
L 125.928343 86.037706 
L 126.027203 85.928872 
L 126.12794 85.820037 
L 126.137013 85.820037 
L 126.218666 85.711203 
L 126.325034 85.629578 
L 126.325973 85.629578 
L 126.427649 85.520744 
L 126.533078 85.389236 
L 126.535268 85.389236 
L 126.631313 85.280402 
L 126.741122 85.171568 
L 126.876273 85.062734 
L 126.984205 84.958434 
L 126.986395 84.958434 
L 127.142194 84.8496 
L 127.259199 84.740766 
L 127.360249 84.636467 
L 127.467556 84.527633 
L 127.624293 84.418799 
L 127.73379 84.319034 
L 127.735354 84.319034 
L 127.888024 84.223804 
L 127.995956 84.119505 
L 127.999085 84.119505 
L 128.151755 84.010671 
L 128.262503 83.929046 
L 128.413296 83.820211 
L 128.524357 83.729516 
L 128.673585 83.620682 
L 128.775261 83.557196 
L 128.784647 83.557196 
L 128.917607 83.448362 
L 129.028668 83.334993 
L 129.197919 83.226159 
L 129.304287 83.108255 
L 129.308354 83.108255 
L 129.514208 83.008491 
L 129.606812 82.899657 
L 129.624018 82.899657 
L 129.781381 82.790823 
L 129.892129 82.74094 
L 130.010073 82.636641 
L 130.120195 82.545946 
L 130.311346 82.437112 
L 130.422407 82.323743 
L 130.627009 82.214909 
L 130.737445 82.124214 
L 130.956126 82.01538 
L 131.061555 81.924685 
L 131.065935 81.924685 
L 131.24989 81.815851 
L 131.358448 81.775038 
L 131.548973 81.670739 
L 131.636258 81.620856 
L 131.659721 81.620856 
L 131.809575 81.512022 
L 131.901866 81.434931 
L 131.920324 81.434931 
L 132.100211 81.326097 
L 132.203138 81.226333 
L 132.211272 81.226333 
L 132.441842 81.117499 
L 132.544456 81.035873 
L 132.55259 81.035873 
L 132.741237 80.927039 
L 132.851673 80.859018 
L 133.027806 80.750184 
L 133.108521 80.704836 
L 133.137929 80.704836 
L 133.326576 80.596002 
L 133.428252 80.527981 
L 133.437011 80.527981 
L 133.620653 80.423681 
L 133.731089 80.360195 
L 133.919736 80.251361 
L 134.012026 80.215083 
L 134.030484 80.215083 
L 134.217568 80.106249 
L 134.322059 80.038227 
L 134.610192 79.929393 
L 134.715309 79.874976 
L 134.721253 79.874976 
L 134.972783 79.766142 
L 135.076962 79.711725 
L 135.081341 79.711725 
L 135.332871 79.602891 
L 135.436424 79.5258 
L 135.443307 79.5258 
L 135.667619 79.416966 
L 135.771797 79.380688 
L 135.777116 79.380688 
L 136.068064 79.271854 
L 136.156288 79.221972 
L 136.1785 79.221972 
L 136.46413 79.113138 
L 136.573314 79.090464 
L 136.745068 78.98163 
L 136.853001 78.922678 
L 136.856129 78.922678 
L 137.096396 78.813844 
L 137.198072 78.754892 
L 137.200575 78.754892 
L 137.4252 78.646058 
L 137.499971 78.605246 
L 137.535635 78.605246 
L 137.784349 78.496411 
L 137.891031 78.432925 
L 137.894472 78.432925 
L 138.140371 78.324091 
L 138.245488 78.269674 
L 138.250493 78.269674 
L 138.670961 78.16084 
L 138.771698 78.115492 
L 138.780458 78.115492 
L 138.997262 78.006658 
L 139.101753 77.97038 
L 139.102066 77.97038 
L 139.341082 77.861546 
L 139.439003 77.807129 
L 139.442758 77.807129 
L 139.630466 77.698295 
L 139.728701 77.662017 
L 139.741215 77.662017 
L 140.053124 77.553183 
L 140.129772 77.507835 
L 140.163873 77.507835 
L 140.469525 77.399001 
L 140.56557 77.33098 
L 140.580273 77.33098 
L 140.882172 77.222146 
L 140.98854 77.172264 
L 140.991669 77.172264 
L 141.383668 77.06343 
L 141.457813 77.027152 
L 141.494103 77.027152 
L 141.768471 76.918317 
L 141.845119 76.886574 
L 141.878593 76.886574 
L 142.134816 76.77774 
L 142.244313 76.700649 
L 142.591574 76.591815 
L 142.699194 76.541933 
L 142.701697 76.541933 
L 142.92507 76.433099 
L 143.029249 76.369612 
L 143.035506 76.369612 
L 143.287036 76.260778 
L 143.387773 76.247174 
L 143.394343 76.247174 
L 143.674029 76.13834 
L 143.776017 76.097527 
L 143.783213 76.097527 
L 144.143927 75.988693 
L 144.202742 75.975089 
L 144.254049 75.975089 
L 144.540305 75.866255 
L 144.650741 75.802768 
L 144.88788 75.693934 
L 144.993935 75.639517 
L 144.998628 75.639517 
L 145.42285 75.530683 
L 145.531096 75.480801 
L 145.533598 75.480801 
L 146.030401 75.371967 
L 146.117373 75.335689 
L 146.13458 75.335689 
L 146.561305 75.226855 
L 146.670176 75.199646 
L 147.180431 75.090812 
L 147.252073 75.059069 
L 147.291179 75.059069 
L 147.70539 74.950235 
L 147.808004 74.927561 
L 147.81082 74.927561 
L 148.230037 74.818727 
L 148.340472 74.777914 
L 148.875442 74.673615 
L 148.985252 74.614663 
L 148.986503 74.614663 
L 149.455776 74.505829 
L 149.566524 74.469551 
L 150.16688 74.360717 
L 150.269181 74.333508 
L 150.275438 74.333508 
L 150.756911 74.224674 
L 150.867034 74.183861 
L 150.867972 74.183861 
L 151.32692 74.075027 
L 151.428909 74.052354 
L 151.437982 74.052354 
L 151.821533 73.94352 
L 151.912572 73.911776 
L 151.932282 73.911776 
L 152.578 73.802942 
L 152.672793 73.775734 
L 152.68781 73.775734 
L 153.185551 73.6669 
L 153.29411 73.626087 
L 153.811248 73.517253 
L 153.872253 73.503648 
L 153.921996 73.503648 
L 154.541748 73.394814 
L 154.589301 73.367606 
L 154.650932 73.367606 
L 155.391757 73.258772 
L 155.483108 73.240633 
L 155.502505 73.240633 
L 156.333117 73.131799 
L 156.417273 73.095521 
L 156.444178 73.095521 
L 156.964444 72.986687 
L 157.011059 72.968548 
L 157.038902 72.968548 
L 157.55385 72.864248 
L 157.657403 72.818901 
L 157.663347 72.818901 
L 158.24806 72.710067 
L 158.338786 72.700997 
L 158.354741 72.700997 
L 158.913175 72.592163 
L 158.997957 72.578559 
L 159.018605 72.578559 
L 159.541375 72.47426 
L 159.589553 72.460655 
L 159.6321 72.460655 
L 160.167697 72.351821 
L 160.250288 72.324613 
L 160.278758 72.324613 
L 161.075582 72.215779 
L 161.186017 72.19764 
L 161.18633 72.19764 
L 161.939981 72.088806 
L 162.0013 72.066132 
L 162.049791 72.066132 
L 162.584761 71.957298 
L 162.584761 71.952763 
L 162.694571 71.952763 
L 163.647819 71.843929 
L 163.742925 71.834859 
L 163.747931 71.834859 
L 164.81443 71.726025 
L 164.875436 71.707886 
L 164.925178 71.707886 
L 165.669444 71.599052 
L 165.716684 71.580913 
L 165.780192 71.580913 
L 166.488481 71.472079 
L 166.578581 71.431266 
L 166.599542 71.431266 
L 167.637572 71.322432 
L 167.700454 71.313363 
L 167.74832 71.313363 
L 169.418929 71.204529 
L 169.510907 71.17732 
L 169.52999 71.17732 
L 170.668758 71.068486 
L 170.74697 71.045812 
L 170.779819 71.045812 
L 171.795637 70.936978 
L 171.875726 70.9007 
L 171.906698 70.9007 
L 173.02075 70.791866 
L 173.105219 70.778262 
L 173.131498 70.778262 
L 174.430757 70.669428 
L 174.538689 70.655824 
L 174.541818 70.655824 
L 175.813233 70.54699 
L 175.90521 70.533385 
L 175.923981 70.533385 
L 177.529831 70.424551 
L 177.638702 70.415482 
L 178.866944 70.306648 
L 178.942653 70.293043 
L 178.977379 70.293043 
L 180.831004 70.184209 
L 180.831004 70.179675 
L 180.94144 70.179675 
L 182.989657 70.070841 
L 183.040338 70.061771 
L 183.099466 70.061771 
L 185.239974 69.952937 
L 185.243728 69.943867 
L 185.350409 69.943867 
L 186.938426 69.835033 
L 187.04323 69.81236 
L 187.049174 69.81236 
L 188.510488 69.703526 
L 188.562734 69.685387 
L 188.621549 69.685387 
L 190.87562 69.576552 
L 190.87562 69.572018 
L 190.956648 69.572018 
L 192.93072 69.463184 
L 193.02739 69.449579 
L 193.041155 69.449579 
L 195.848029 69.340745 
L 195.89652 69.331676 
L 195.95909 69.331676 
L 198.349876 69.227376 
L 198.451864 69.209237 
L 198.45906 69.209237 
L 201.264682 69.100403 
L 201.270626 69.082264 
L 201.374179 69.082264 
L 203.581635 68.97343 
L 203.581635 68.968896 
L 203.692383 68.968896 
L 207.843879 68.860061 
L 207.931476 68.846457 
L 207.949621 68.846457 
L 211.80391 68.737623 
L 211.897765 68.724019 
L 211.910279 68.724019 
L 215.332525 68.615185 
L 215.332525 68.61065 
L 215.439832 68.61065 
L 218.859262 68.501816 
L 218.859262 68.497281 
L 218.97001 68.497281 
L 223.781302 68.388447 
L 223.781302 68.383912 
L 223.891738 68.383912 
L 227.22138 68.275078 
L 227.232017 68.266009 
L 227.331816 68.266009 
L 232.643665 68.157175 
L 232.750033 68.148105 
L 232.753474 68.148105 
L 239.37866 68.039271 
L 239.37866 68.034736 
L 239.488782 68.034736 
L 245.969119 67.925902 
L 245.969119 67.921368 
L 246.079555 67.921368 
L 254.954118 67.812534 
L 254.954118 67.807999 
L 255.063302 67.807999 
L 265.23337 67.699165 
L 265.265593 67.690095 
L 265.342554 67.690095 
L 275.23012 67.581261 
L 275.23012 67.576726 
L 275.340868 67.576726 
L 288.550569 67.467892 
L 288.550569 67.463358 
L 288.661004 67.463358 
L 309.133788 67.354524 
L 309.133788 67.349989 
L 309.244223 67.349989 
L 331.096041 67.241155 
L 331.096041 67.23662 
L 331.207102 67.23662 
L 372.012826 67.127786 
L 372.012826 67.123251 
L 372.11982 67.123251 
L 421.530745 67.014417 
L 421.530745 67.009882 
L 421.641493 67.009882 
L 498.109091 66.96 
L 498.109091 66.96 
" style="fill:none;stroke:#ff0000;stroke-linecap:square;stroke-width:1.5;"/>
   </g>
   <g id="patch_3">
    <path d="M 72 384.48 
L 72 51.84 
" style="fill:none;stroke:#000000;stroke-linecap:square;stroke-linejoin:miter;stroke-width:0.8;"/>
   </g>
   <g id="patch_4">
    <path d="M 518.4 384.48 
L 518.4 51.84 
" style="fill:none;stroke:#000000;stroke-linecap:square;stroke-linejoin:miter;stroke-width:0.8;"/>
   </g>
   <g id="patch_5">
    <path d="M 72 384.48 
L 518.4 384.48 
" style="fill:none;stroke:#000000;stroke-linecap:square;stroke-linejoin:miter;stroke-width:0.8;"/>
   </g>
   <g id="patch_6">
    <path d="M 72 51.84 
L 518.4 51.84 
" style="fill:none;stroke:#000000;stroke-linecap:square;stroke-linejoin:miter;stroke-width:0.8;"/>
   </g>
   <g id="text_15">
    <!-- ROC Curves -->
    <g transform="translate(237.894 45.84)scale(0.192 -0.192)">
     <defs>
      <path d="M 39.40625 66.21875 
Q 28.65625 66.21875 22.328125 58.203125 
Q 16.015625 50.203125 16.015625 36.375 
Q 16.015625 22.609375 22.328125 14.59375 
Q 28.65625 6.59375 39.40625 6.59375 
Q 50.140625 6.59375 56.421875 14.59375 
Q 62.703125 22.609375 62.703125 36.375 
Q 62.703125 50.203125 56.421875 58.203125 
Q 50.140625 66.21875 39.40625 66.21875 
z
M 39.40625 74.21875 
Q 54.734375 74.21875 63.90625 63.9375 
Q 73.09375 53.65625 73.09375 36.375 
Q 73.09375 19.140625 63.90625 8.859375 
Q 54.734375 -1.421875 39.40625 -1.421875 
Q 24.03125 -1.421875 14.8125 8.828125 
Q 5.609375 19.09375 5.609375 36.375 
Q 5.609375 53.65625 14.8125 63.9375 
Q 24.03125 74.21875 39.40625 74.21875 
z
" id="DejaVuSans-79"/>
      <path d="M 64.40625 67.28125 
L 64.40625 56.890625 
Q 59.421875 61.53125 53.78125 63.8125 
Q 48.140625 66.109375 41.796875 66.109375 
Q 29.296875 66.109375 22.65625 58.46875 
Q 16.015625 50.828125 16.015625 36.375 
Q 16.015625 21.96875 22.65625 14.328125 
Q 29.296875 6.6875 41.796875 6.6875 
Q 48.140625 6.6875 53.78125 8.984375 
Q 59.421875 11.28125 64.40625 15.921875 
L 64.40625 5.609375 
Q 59.234375 2.09375 53.4375 0.328125 
Q 47.65625 -1.421875 41.21875 -1.421875 
Q 24.65625 -1.421875 15.125 8.703125 
Q 5.609375 18.84375 5.609375 36.375 
Q 5.609375 53.953125 15.125 64.078125 
Q 24.65625 74.21875 41.21875 74.21875 
Q 47.75 74.21875 53.53125 72.484375 
Q 59.328125 70.75 64.40625 67.28125 
z
" id="DejaVuSans-67"/>
     </defs>
     <use xlink:href="#DejaVuSans-82"/>
     <use x="69.482422" xlink:href="#DejaVuSans-79"/>
     <use x="148.193359" xlink:href="#DejaVuSans-67"/>
     <use x="218.017578" xlink:href="#DejaVuSans-32"/>
     <use x="249.804688" xlink:href="#DejaVuSans-67"/>
     <use x="319.628906" xlink:href="#DejaVuSans-117"/>
     <use x="383.007812" xlink:href="#DejaVuSans-114"/>
     <use x="424.121094" xlink:href="#DejaVuSans-118"/>
     <use x="483.300781" xlink:href="#DejaVuSans-101"/>
     <use x="544.824219" xlink:href="#DejaVuSans-115"/>
    </g>
   </g>
   <g id="legend_1">
    <g id="patch_7">
     <path d="M 388.9825 376.48 
L 507.2 376.48 
Q 510.4 376.48 510.4 373.28 
L 510.4 327.91 
Q 510.4 324.71 507.2 324.71 
L 388.9825 324.71 
Q 385.7825 324.71 385.7825 327.91 
L 385.7825 373.28 
Q 385.7825 376.48 388.9825 376.48 
z
" style="fill:#ffffff;opacity:0.8;stroke:#cccccc;stroke-linejoin:miter;"/>
    </g>
    <g id="line2d_15">
     <path d="M 392.1825 337.6675 
L 424.1825 337.6675 
" style="fill:none;stroke:#0000ff;stroke-linecap:square;stroke-width:1.5;"/>
    </g>
    <g id="line2d_16"/>
    <g id="text_16">
     <!-- baseline -->
     <g transform="translate(436.9825 343.2675)scale(0.16 -0.16)">
      <defs>
       <path d="M 48.6875 27.296875 
Q 48.6875 37.203125 44.609375 42.84375 
Q 40.53125 48.484375 33.40625 48.484375 
Q 26.265625 48.484375 22.1875 42.84375 
Q 18.109375 37.203125 18.109375 27.296875 
Q 18.109375 17.390625 22.1875 11.75 
Q 26.265625 6.109375 33.40625 6.109375 
Q 40.53125 6.109375 44.609375 11.75 
Q 48.6875 17.390625 48.6875 27.296875 
z
M 18.109375 46.390625 
Q 20.953125 51.265625 25.265625 53.625 
Q 29.59375 56 35.59375 56 
Q 45.5625 56 51.78125 48.09375 
Q 58.015625 40.1875 58.015625 27.296875 
Q 58.015625 14.40625 51.78125 6.484375 
Q 45.5625 -1.421875 35.59375 -1.421875 
Q 29.59375 -1.421875 25.265625 0.953125 
Q 20.953125 3.328125 18.109375 8.203125 
L 18.109375 0 
L 9.078125 0 
L 9.078125 75.984375 
L 18.109375 75.984375 
z
" id="DejaVuSans-98"/>
       <path d="M 54.890625 33.015625 
L 54.890625 0 
L 45.90625 0 
L 45.90625 32.71875 
Q 45.90625 40.484375 42.875 44.328125 
Q 39.84375 48.1875 33.796875 48.1875 
Q 26.515625 48.1875 22.3125 43.546875 
Q 18.109375 38.921875 18.109375 30.90625 
L 18.109375 0 
L 9.078125 0 
L 9.078125 54.6875 
L 18.109375 54.6875 
L 18.109375 46.1875 
Q 21.34375 51.125 25.703125 53.5625 
Q 30.078125 56 35.796875 56 
Q 45.21875 56 50.046875 50.171875 
Q 54.890625 44.34375 54.890625 33.015625 
z
" id="DejaVuSans-110"/>
      </defs>
      <use xlink:href="#DejaVuSans-98"/>
      <use x="63.476562" xlink:href="#DejaVuSans-97"/>
      <use x="124.755859" xlink:href="#DejaVuSans-115"/>
      <use x="176.855469" xlink:href="#DejaVuSans-101"/>
      <use x="238.378906" xlink:href="#DejaVuSans-108"/>
      <use x="266.162109" xlink:href="#DejaVuSans-105"/>
      <use x="293.945312" xlink:href="#DejaVuSans-110"/>
      <use x="357.324219" xlink:href="#DejaVuSans-101"/>
     </g>
    </g>
    <g id="line2d_17">
     <path d="M 392.1825 361.1525 
L 424.1825 361.1525 
" style="fill:none;stroke:#ff0000;stroke-linecap:square;stroke-width:1.5;"/>
    </g>
    <g id="line2d_18"/>
    <g id="text_17">
     <!-- model -->
     <g transform="translate(436.9825 366.7525)scale(0.16 -0.16)">
      <defs>
       <path d="M 52 44.1875 
Q 55.375 50.25 60.0625 53.125 
Q 64.75 56 71.09375 56 
Q 79.640625 56 84.28125 50.015625 
Q 88.921875 44.046875 88.921875 33.015625 
L 88.921875 0 
L 79.890625 0 
L 79.890625 32.71875 
Q 79.890625 40.578125 77.09375 44.375 
Q 74.3125 48.1875 68.609375 48.1875 
Q 61.625 48.1875 57.5625 43.546875 
Q 53.515625 38.921875 53.515625 30.90625 
L 53.515625 0 
L 44.484375 0 
L 44.484375 32.71875 
Q 44.484375 40.625 41.703125 44.40625 
Q 38.921875 48.1875 33.109375 48.1875 
Q 26.21875 48.1875 22.15625 43.53125 
Q 18.109375 38.875 18.109375 30.90625 
L 18.109375 0 
L 9.078125 0 
L 9.078125 54.6875 
L 18.109375 54.6875 
L 18.109375 46.1875 
Q 21.1875 51.21875 25.484375 53.609375 
Q 29.78125 56 35.6875 56 
Q 41.65625 56 45.828125 52.96875 
Q 50 49.953125 52 44.1875 
z
" id="DejaVuSans-109"/>
       <path d="M 45.40625 46.390625 
L 45.40625 75.984375 
L 54.390625 75.984375 
L 54.390625 0 
L 45.40625 0 
L 45.40625 8.203125 
Q 42.578125 3.328125 38.25 0.953125 
Q 33.9375 -1.421875 27.875 -1.421875 
Q 17.96875 -1.421875 11.734375 6.484375 
Q 5.515625 14.40625 5.515625 27.296875 
Q 5.515625 40.1875 11.734375 48.09375 
Q 17.96875 56 27.875 56 
Q 33.9375 56 38.25 53.625 
Q 42.578125 51.265625 45.40625 46.390625 
z
M 14.796875 27.296875 
Q 14.796875 17.390625 18.875 11.75 
Q 22.953125 6.109375 30.078125 6.109375 
Q 37.203125 6.109375 41.296875 11.75 
Q 45.40625 17.390625 45.40625 27.296875 
Q 45.40625 37.203125 41.296875 42.84375 
Q 37.203125 48.484375 30.078125 48.484375 
Q 22.953125 48.484375 18.875 42.84375 
Q 14.796875 37.203125 14.796875 27.296875 
z
" id="DejaVuSans-100"/>
      </defs>
      <use xlink:href="#DejaVuSans-109"/>
      <use x="97.412109" xlink:href="#DejaVuSans-111"/>
      <use x="158.59375" xlink:href="#DejaVuSans-100"/>
      <use x="222.070312" xlink:href="#DejaVuSans-101"/>
      <use x="283.59375" xlink:href="#DejaVuSans-108"/>
     </g>
    </g>
   </g>
  </g>
 </g>
 <defs>
  <clipPath id="pfc6a6189d0">
   <rect height="332.64" width="446.4" x="72" y="51.84"/>
  </clipPath>
 </defs>
</svg>
