<?xml version="1.0" encoding="utf-8" standalone="no"?>
<!DOCTYPE svg PUBLIC "-//W3C//DTD SVG 1.1//EN"
  "http://www.w3.org/Graphics/SVG/1.1/DTD/svg11.dtd">
<!-- Created with matplotlib (https://matplotlib.org/) -->
<svg height="432pt" version="1.1" viewBox="0 0 576 432" width="576pt" xmlns="http://www.w3.org/2000/svg" xmlns:xlink="http://www.w3.org/1999/xlink">
 <metadata>
  <rdf:RDF xmlns:cc="http://creativecommons.org/ns#" xmlns:dc="http://purl.org/dc/elements/1.1/" xmlns:rdf="http://www.w3.org/1999/02/22-rdf-syntax-ns#">
   <cc:Work>
    <dc:type rdf:resource="http://purl.org/dc/dcmitype/StillImage"/>
    <dc:date>2020-08-27T03:51:43.322752</dc:date>
    <dc:format>image/svg+xml</dc:format>
    <dc:creator>
     <cc:Agent>
      <dc:title>Matplotlib v3.3.0, https://matplotlib.org/</dc:title>
     </cc:Agent>
    </dc:creator>
   </cc:Work>
  </rdf:RDF>
 </metadata>
 <defs>
  <style type="text/css">*{stroke-linecap:butt;stroke-linejoin:round;}</style>
 </defs>
 <g id="figure_1">
  <g id="patch_1">
   <path d="M 0 432 
L 576 432 
L 576 0 
L 0 0 
z
" style="fill:#f0f0f0;"/>
  </g>
  <g id="axes_1">
   <g id="patch_2">
    <path d="M 46.08 401.76 
L 547.2 401.76 
L 547.2 51.84 
L 46.08 51.84 
z
" style="fill:#f0f0f0;"/>
   </g>
   <g id="matplotlib.axis_1">
    <g id="xtick_1">
     <g id="line2d_1">
      <path clip-path="url(#p85f9ce43ad)" d="M 68.858182 401.76 
L 68.858182 51.84 
" style="fill:none;stroke:#cbcbcb;"/>
     </g>
     <g id="line2d_2"/>
     <g id="text_1">
      <!-- 0.0 -->
      <g transform="translate(56.135682 417.4175)scale(0.16 -0.16)">
       <defs>
        <path d="M 31.78125 66.40625 
Q 24.171875 66.40625 20.328125 58.90625 
Q 16.5 51.421875 16.5 36.375 
Q 16.5 21.390625 20.328125 13.890625 
Q 24.171875 6.390625 31.78125 6.390625 
Q 39.453125 6.390625 43.28125 13.890625 
Q 47.125 21.390625 47.125 36.375 
Q 47.125 51.421875 43.28125 58.90625 
Q 39.453125 66.40625 31.78125 66.40625 
z
M 31.78125 74.21875 
Q 44.046875 74.21875 50.515625 64.515625 
Q 56.984375 54.828125 56.984375 36.375 
Q 56.984375 17.96875 50.515625 8.265625 
Q 44.046875 -1.421875 31.78125 -1.421875 
Q 19.53125 -1.421875 13.0625 8.265625 
Q 6.59375 17.96875 6.59375 36.375 
Q 6.59375 54.828125 13.0625 64.515625 
Q 19.53125 74.21875 31.78125 74.21875 
z
" id="DejaVuSans-48"/>
        <path d="M 10.6875 12.40625 
L 21 12.40625 
L 21 0 
L 10.6875 0 
z
" id="DejaVuSans-46"/>
       </defs>
       <use xlink:href="#DejaVuSans-48"/>
       <use x="63.623047" xlink:href="#DejaVuSans-46"/>
       <use x="95.410156" xlink:href="#DejaVuSans-48"/>
      </g>
     </g>
    </g>
    <g id="xtick_2">
     <g id="line2d_3">
      <path clip-path="url(#p85f9ce43ad)" d="M 159.970909 401.76 
L 159.970909 51.84 
" style="fill:none;stroke:#cbcbcb;"/>
     </g>
     <g id="line2d_4"/>
     <g id="text_2">
      <!-- 0.2 -->
      <g transform="translate(147.248409 417.4175)scale(0.16 -0.16)">
       <defs>
        <path d="M 19.1875 8.296875 
L 53.609375 8.296875 
L 53.609375 0 
L 7.328125 0 
L 7.328125 8.296875 
Q 12.9375 14.109375 22.625 23.890625 
Q 32.328125 33.6875 34.8125 36.53125 
Q 39.546875 41.84375 41.421875 45.53125 
Q 43.3125 49.21875 43.3125 52.78125 
Q 43.3125 58.59375 39.234375 62.25 
Q 35.15625 65.921875 28.609375 65.921875 
Q 23.96875 65.921875 18.8125 64.3125 
Q 13.671875 62.703125 7.8125 59.421875 
L 7.8125 69.390625 
Q 13.765625 71.78125 18.9375 73 
Q 24.125 74.21875 28.421875 74.21875 
Q 39.75 74.21875 46.484375 68.546875 
Q 53.21875 62.890625 53.21875 53.421875 
Q 53.21875 48.921875 51.53125 44.890625 
Q 49.859375 40.875 45.40625 35.40625 
Q 44.1875 33.984375 37.640625 27.21875 
Q 31.109375 20.453125 19.1875 8.296875 
z
" id="DejaVuSans-50"/>
       </defs>
       <use xlink:href="#DejaVuSans-48"/>
       <use x="63.623047" xlink:href="#DejaVuSans-46"/>
       <use x="95.410156" xlink:href="#DejaVuSans-50"/>
      </g>
     </g>
    </g>
    <g id="xtick_3">
     <g id="line2d_5">
      <path clip-path="url(#p85f9ce43ad)" d="M 251.083636 401.76 
L 251.083636 51.84 
" style="fill:none;stroke:#cbcbcb;"/>
     </g>
     <g id="line2d_6"/>
     <g id="text_3">
      <!-- 0.4 -->
      <g transform="translate(238.361136 417.4175)scale(0.16 -0.16)">
       <defs>
        <path d="M 37.796875 64.3125 
L 12.890625 25.390625 
L 37.796875 25.390625 
z
M 35.203125 72.90625 
L 47.609375 72.90625 
L 47.609375 25.390625 
L 58.015625 25.390625 
L 58.015625 17.1875 
L 47.609375 17.1875 
L 47.609375 0 
L 37.796875 0 
L 37.796875 17.1875 
L 4.890625 17.1875 
L 4.890625 26.703125 
z
" id="DejaVuSans-52"/>
       </defs>
       <use xlink:href="#DejaVuSans-48"/>
       <use x="63.623047" xlink:href="#DejaVuSans-46"/>
       <use x="95.410156" xlink:href="#DejaVuSans-52"/>
      </g>
     </g>
    </g>
    <g id="xtick_4">
     <g id="line2d_7">
      <path clip-path="url(#p85f9ce43ad)" d="M 342.196364 401.76 
L 342.196364 51.84 
" style="fill:none;stroke:#cbcbcb;"/>
     </g>
     <g id="line2d_8"/>
     <g id="text_4">
      <!-- 0.6 -->
      <g transform="translate(329.473864 417.4175)scale(0.16 -0.16)">
       <defs>
        <path d="M 33.015625 40.375 
Q 26.375 40.375 22.484375 35.828125 
Q 18.609375 31.296875 18.609375 23.390625 
Q 18.609375 15.53125 22.484375 10.953125 
Q 26.375 6.390625 33.015625 6.390625 
Q 39.65625 6.390625 43.53125 10.953125 
Q 47.40625 15.53125 47.40625 23.390625 
Q 47.40625 31.296875 43.53125 35.828125 
Q 39.65625 40.375 33.015625 40.375 
z
M 52.59375 71.296875 
L 52.59375 62.3125 
Q 48.875 64.0625 45.09375 64.984375 
Q 41.3125 65.921875 37.59375 65.921875 
Q 27.828125 65.921875 22.671875 59.328125 
Q 17.53125 52.734375 16.796875 39.40625 
Q 19.671875 43.65625 24.015625 45.921875 
Q 28.375 48.1875 33.59375 48.1875 
Q 44.578125 48.1875 50.953125 41.515625 
Q 57.328125 34.859375 57.328125 23.390625 
Q 57.328125 12.15625 50.6875 5.359375 
Q 44.046875 -1.421875 33.015625 -1.421875 
Q 20.359375 -1.421875 13.671875 8.265625 
Q 6.984375 17.96875 6.984375 36.375 
Q 6.984375 53.65625 15.1875 63.9375 
Q 23.390625 74.21875 37.203125 74.21875 
Q 40.921875 74.21875 44.703125 73.484375 
Q 48.484375 72.75 52.59375 71.296875 
z
" id="DejaVuSans-54"/>
       </defs>
       <use xlink:href="#DejaVuSans-48"/>
       <use x="63.623047" xlink:href="#DejaVuSans-46"/>
       <use x="95.410156" xlink:href="#DejaVuSans-54"/>
      </g>
     </g>
    </g>
    <g id="xtick_5">
     <g id="line2d_9">
      <path clip-path="url(#p85f9ce43ad)" d="M 433.309091 401.76 
L 433.309091 51.84 
" style="fill:none;stroke:#cbcbcb;"/>
     </g>
     <g id="line2d_10"/>
     <g id="text_5">
      <!-- 0.8 -->
      <g transform="translate(420.586591 417.4175)scale(0.16 -0.16)">
       <defs>
        <path d="M 31.78125 34.625 
Q 24.75 34.625 20.71875 30.859375 
Q 16.703125 27.09375 16.703125 20.515625 
Q 16.703125 13.921875 20.71875 10.15625 
Q 24.75 6.390625 31.78125 6.390625 
Q 38.8125 6.390625 42.859375 10.171875 
Q 46.921875 13.96875 46.921875 20.515625 
Q 46.921875 27.09375 42.890625 30.859375 
Q 38.875 34.625 31.78125 34.625 
z
M 21.921875 38.8125 
Q 15.578125 40.375 12.03125 44.71875 
Q 8.5 49.078125 8.5 55.328125 
Q 8.5 64.0625 14.71875 69.140625 
Q 20.953125 74.21875 31.78125 74.21875 
Q 42.671875 74.21875 48.875 69.140625 
Q 55.078125 64.0625 55.078125 55.328125 
Q 55.078125 49.078125 51.53125 44.71875 
Q 48 40.375 41.703125 38.8125 
Q 48.828125 37.15625 52.796875 32.3125 
Q 56.78125 27.484375 56.78125 20.515625 
Q 56.78125 9.90625 50.3125 4.234375 
Q 43.84375 -1.421875 31.78125 -1.421875 
Q 19.734375 -1.421875 13.25 4.234375 
Q 6.78125 9.90625 6.78125 20.515625 
Q 6.78125 27.484375 10.78125 32.3125 
Q 14.796875 37.15625 21.921875 38.8125 
z
M 18.3125 54.390625 
Q 18.3125 48.734375 21.84375 45.5625 
Q 25.390625 42.390625 31.78125 42.390625 
Q 38.140625 42.390625 41.71875 45.5625 
Q 45.3125 48.734375 45.3125 54.390625 
Q 45.3125 60.0625 41.71875 63.234375 
Q 38.140625 66.40625 31.78125 66.40625 
Q 25.390625 66.40625 21.84375 63.234375 
Q 18.3125 60.0625 18.3125 54.390625 
z
" id="DejaVuSans-56"/>
       </defs>
       <use xlink:href="#DejaVuSans-48"/>
       <use x="63.623047" xlink:href="#DejaVuSans-46"/>
       <use x="95.410156" xlink:href="#DejaVuSans-56"/>
      </g>
     </g>
    </g>
    <g id="xtick_6">
     <g id="line2d_11">
      <path clip-path="url(#p85f9ce43ad)" d="M 524.421818 401.76 
L 524.421818 51.84 
" style="fill:none;stroke:#cbcbcb;"/>
     </g>
     <g id="line2d_12"/>
     <g id="text_6">
      <!-- 1.0 -->
      <g transform="translate(511.699318 417.4175)scale(0.16 -0.16)">
       <defs>
        <path d="M 12.40625 8.296875 
L 28.515625 8.296875 
L 28.515625 63.921875 
L 10.984375 60.40625 
L 10.984375 69.390625 
L 28.421875 72.90625 
L 38.28125 72.90625 
L 38.28125 8.296875 
L 54.390625 8.296875 
L 54.390625 0 
L 12.40625 0 
z
" id="DejaVuSans-49"/>
       </defs>
       <use xlink:href="#DejaVuSans-49"/>
       <use x="63.623047" xlink:href="#DejaVuSans-46"/>
       <use x="95.410156" xlink:href="#DejaVuSans-48"/>
      </g>
     </g>
    </g>
    <g id="text_7">
     <!-- False Positive Rate -->
     <g transform="translate(207.4245 439.334)scale(0.192 -0.192)">
      <defs>
       <path d="M 9.8125 72.90625 
L 51.703125 72.90625 
L 51.703125 64.59375 
L 19.671875 64.59375 
L 19.671875 43.109375 
L 48.578125 43.109375 
L 48.578125 34.8125 
L 19.671875 34.8125 
L 19.671875 0 
L 9.8125 0 
z
" id="DejaVuSans-70"/>
       <path d="M 34.28125 27.484375 
Q 23.390625 27.484375 19.1875 25 
Q 14.984375 22.515625 14.984375 16.5 
Q 14.984375 11.71875 18.140625 8.90625 
Q 21.296875 6.109375 26.703125 6.109375 
Q 34.1875 6.109375 38.703125 11.40625 
Q 43.21875 16.703125 43.21875 25.484375 
L 43.21875 27.484375 
z
M 52.203125 31.203125 
L 52.203125 0 
L 43.21875 0 
L 43.21875 8.296875 
Q 40.140625 3.328125 35.546875 0.953125 
Q 30.953125 -1.421875 24.3125 -1.421875 
Q 15.921875 -1.421875 10.953125 3.296875 
Q 6 8.015625 6 15.921875 
Q 6 25.140625 12.171875 29.828125 
Q 18.359375 34.515625 30.609375 34.515625 
L 43.21875 34.515625 
L 43.21875 35.40625 
Q 43.21875 41.609375 39.140625 45 
Q 35.0625 48.390625 27.6875 48.390625 
Q 23 48.390625 18.546875 47.265625 
Q 14.109375 46.140625 10.015625 43.890625 
L 10.015625 52.203125 
Q 14.9375 54.109375 19.578125 55.046875 
Q 24.21875 56 28.609375 56 
Q 40.484375 56 46.34375 49.84375 
Q 52.203125 43.703125 52.203125 31.203125 
z
" id="DejaVuSans-97"/>
       <path d="M 9.421875 75.984375 
L 18.40625 75.984375 
L 18.40625 0 
L 9.421875 0 
z
" id="DejaVuSans-108"/>
       <path d="M 44.28125 53.078125 
L 44.28125 44.578125 
Q 40.484375 46.53125 36.375 47.5 
Q 32.28125 48.484375 27.875 48.484375 
Q 21.1875 48.484375 17.84375 46.4375 
Q 14.5 44.390625 14.5 40.28125 
Q 14.5 37.15625 16.890625 35.375 
Q 19.28125 33.59375 26.515625 31.984375 
L 29.59375 31.296875 
Q 39.15625 29.25 43.1875 25.515625 
Q 47.21875 21.78125 47.21875 15.09375 
Q 47.21875 7.46875 41.1875 3.015625 
Q 35.15625 -1.421875 24.609375 -1.421875 
Q 20.21875 -1.421875 15.453125 -0.5625 
Q 10.6875 0.296875 5.421875 2 
L 5.421875 11.28125 
Q 10.40625 8.6875 15.234375 7.390625 
Q 20.0625 6.109375 24.8125 6.109375 
Q 31.15625 6.109375 34.5625 8.28125 
Q 37.984375 10.453125 37.984375 14.40625 
Q 37.984375 18.0625 35.515625 20.015625 
Q 33.0625 21.96875 24.703125 23.78125 
L 21.578125 24.515625 
Q 13.234375 26.265625 9.515625 29.90625 
Q 5.8125 33.546875 5.8125 39.890625 
Q 5.8125 47.609375 11.28125 51.796875 
Q 16.75 56 26.8125 56 
Q 31.78125 56 36.171875 55.265625 
Q 40.578125 54.546875 44.28125 53.078125 
z
" id="DejaVuSans-115"/>
       <path d="M 56.203125 29.59375 
L 56.203125 25.203125 
L 14.890625 25.203125 
Q 15.484375 15.921875 20.484375 11.0625 
Q 25.484375 6.203125 34.421875 6.203125 
Q 39.59375 6.203125 44.453125 7.46875 
Q 49.3125 8.734375 54.109375 11.28125 
L 54.109375 2.78125 
Q 49.265625 0.734375 44.1875 -0.34375 
Q 39.109375 -1.421875 33.890625 -1.421875 
Q 20.796875 -1.421875 13.15625 6.1875 
Q 5.515625 13.8125 5.515625 26.8125 
Q 5.515625 40.234375 12.765625 48.109375 
Q 20.015625 56 32.328125 56 
Q 43.359375 56 49.78125 48.890625 
Q 56.203125 41.796875 56.203125 29.59375 
z
M 47.21875 32.234375 
Q 47.125 39.59375 43.09375 43.984375 
Q 39.0625 48.390625 32.421875 48.390625 
Q 24.90625 48.390625 20.390625 44.140625 
Q 15.875 39.890625 15.1875 32.171875 
z
" id="DejaVuSans-101"/>
       <path id="DejaVuSans-32"/>
       <path d="M 19.671875 64.796875 
L 19.671875 37.40625 
L 32.078125 37.40625 
Q 38.96875 37.40625 42.71875 40.96875 
Q 46.484375 44.53125 46.484375 51.125 
Q 46.484375 57.671875 42.71875 61.234375 
Q 38.96875 64.796875 32.078125 64.796875 
z
M 9.8125 72.90625 
L 32.078125 72.90625 
Q 44.34375 72.90625 50.609375 67.359375 
Q 56.890625 61.8125 56.890625 51.125 
Q 56.890625 40.328125 50.609375 34.8125 
Q 44.34375 29.296875 32.078125 29.296875 
L 19.671875 29.296875 
L 19.671875 0 
L 9.8125 0 
z
" id="DejaVuSans-80"/>
       <path d="M 30.609375 48.390625 
Q 23.390625 48.390625 19.1875 42.75 
Q 14.984375 37.109375 14.984375 27.296875 
Q 14.984375 17.484375 19.15625 11.84375 
Q 23.34375 6.203125 30.609375 6.203125 
Q 37.796875 6.203125 41.984375 11.859375 
Q 46.1875 17.53125 46.1875 27.296875 
Q 46.1875 37.015625 41.984375 42.703125 
Q 37.796875 48.390625 30.609375 48.390625 
z
M 30.609375 56 
Q 42.328125 56 49.015625 48.375 
Q 55.71875 40.765625 55.71875 27.296875 
Q 55.71875 13.875 49.015625 6.21875 
Q 42.328125 -1.421875 30.609375 -1.421875 
Q 18.84375 -1.421875 12.171875 6.21875 
Q 5.515625 13.875 5.515625 27.296875 
Q 5.515625 40.765625 12.171875 48.375 
Q 18.84375 56 30.609375 56 
z
" id="DejaVuSans-111"/>
       <path d="M 9.421875 54.6875 
L 18.40625 54.6875 
L 18.40625 0 
L 9.421875 0 
z
M 9.421875 75.984375 
L 18.40625 75.984375 
L 18.40625 64.59375 
L 9.421875 64.59375 
z
" id="DejaVuSans-105"/>
       <path d="M 18.3125 70.21875 
L 18.3125 54.6875 
L 36.8125 54.6875 
L 36.8125 47.703125 
L 18.3125 47.703125 
L 18.3125 18.015625 
Q 18.3125 11.328125 20.140625 9.421875 
Q 21.96875 7.515625 27.59375 7.515625 
L 36.8125 7.515625 
L 36.8125 0 
L 27.59375 0 
Q 17.1875 0 13.234375 3.875 
Q 9.28125 7.765625 9.28125 18.015625 
L 9.28125 47.703125 
L 2.6875 47.703125 
L 2.6875 54.6875 
L 9.28125 54.6875 
L 9.28125 70.21875 
z
" id="DejaVuSans-116"/>
       <path d="M 2.984375 54.6875 
L 12.5 54.6875 
L 29.59375 8.796875 
L 46.6875 54.6875 
L 56.203125 54.6875 
L 35.6875 0 
L 23.484375 0 
z
" id="DejaVuSans-118"/>
       <path d="M 44.390625 34.1875 
Q 47.5625 33.109375 50.5625 29.59375 
Q 53.5625 26.078125 56.59375 19.921875 
L 66.609375 0 
L 56 0 
L 46.6875 18.703125 
Q 43.0625 26.03125 39.671875 28.421875 
Q 36.28125 30.8125 30.421875 30.8125 
L 19.671875 30.8125 
L 19.671875 0 
L 9.8125 0 
L 9.8125 72.90625 
L 32.078125 72.90625 
Q 44.578125 72.90625 50.734375 67.671875 
Q 56.890625 62.453125 56.890625 51.90625 
Q 56.890625 45.015625 53.6875 40.46875 
Q 50.484375 35.9375 44.390625 34.1875 
z
M 19.671875 64.796875 
L 19.671875 38.921875 
L 32.078125 38.921875 
Q 39.203125 38.921875 42.84375 42.21875 
Q 46.484375 45.515625 46.484375 51.90625 
Q 46.484375 58.296875 42.84375 61.546875 
Q 39.203125 64.796875 32.078125 64.796875 
z
" id="DejaVuSans-82"/>
      </defs>
      <use xlink:href="#DejaVuSans-70"/>
      <use x="48.394531" xlink:href="#DejaVuSans-97"/>
      <use x="109.673828" xlink:href="#DejaVuSans-108"/>
      <use x="137.457031" xlink:href="#DejaVuSans-115"/>
      <use x="189.556641" xlink:href="#DejaVuSans-101"/>
      <use x="251.080078" xlink:href="#DejaVuSans-32"/>
      <use x="282.867188" xlink:href="#DejaVuSans-80"/>
      <use x="339.544922" xlink:href="#DejaVuSans-111"/>
      <use x="400.726562" xlink:href="#DejaVuSans-115"/>
      <use x="452.826172" xlink:href="#DejaVuSans-105"/>
      <use x="480.609375" xlink:href="#DejaVuSans-116"/>
      <use x="519.818359" xlink:href="#DejaVuSans-105"/>
      <use x="547.601562" xlink:href="#DejaVuSans-118"/>
      <use x="606.78125" xlink:href="#DejaVuSans-101"/>
      <use x="668.304688" xlink:href="#DejaVuSans-32"/>
      <use x="700.091797" xlink:href="#DejaVuSans-82"/>
      <use x="767.324219" xlink:href="#DejaVuSans-97"/>
      <use x="828.603516" xlink:href="#DejaVuSans-116"/>
      <use x="867.8125" xlink:href="#DejaVuSans-101"/>
     </g>
    </g>
   </g>
   <g id="matplotlib.axis_2">
    <g id="ytick_1">
     <g id="line2d_13">
      <path clip-path="url(#p85f9ce43ad)" d="M 46.08 385.854545 
L 547.2 385.854545 
" style="fill:none;stroke:#cbcbcb;"/>
     </g>
     <g id="line2d_14"/>
     <g id="text_8">
      <!-- 0.0 -->
      <g transform="translate(17.135 391.933295)scale(0.16 -0.16)">
       <use xlink:href="#DejaVuSans-48"/>
       <use x="63.623047" xlink:href="#DejaVuSans-46"/>
       <use x="95.410156" xlink:href="#DejaVuSans-48"/>
      </g>
     </g>
    </g>
    <g id="ytick_2">
     <g id="line2d_15">
      <path clip-path="url(#p85f9ce43ad)" d="M 46.08 322.232727 
L 547.2 322.232727 
" style="fill:none;stroke:#cbcbcb;"/>
     </g>
     <g id="line2d_16"/>
     <g id="text_9">
      <!-- 0.2 -->
      <g transform="translate(17.135 328.311477)scale(0.16 -0.16)">
       <use xlink:href="#DejaVuSans-48"/>
       <use x="63.623047" xlink:href="#DejaVuSans-46"/>
       <use x="95.410156" xlink:href="#DejaVuSans-50"/>
      </g>
     </g>
    </g>
    <g id="ytick_3">
     <g id="line2d_17">
      <path clip-path="url(#p85f9ce43ad)" d="M 46.08 258.610909 
L 547.2 258.610909 
" style="fill:none;stroke:#cbcbcb;"/>
     </g>
     <g id="line2d_18"/>
     <g id="text_10">
      <!-- 0.4 -->
      <g transform="translate(17.135 264.689659)scale(0.16 -0.16)">
       <use xlink:href="#DejaVuSans-48"/>
       <use x="63.623047" xlink:href="#DejaVuSans-46"/>
       <use x="95.410156" xlink:href="#DejaVuSans-52"/>
      </g>
     </g>
    </g>
    <g id="ytick_4">
     <g id="line2d_19">
      <path clip-path="url(#p85f9ce43ad)" d="M 46.08 194.989091 
L 547.2 194.989091 
" style="fill:none;stroke:#cbcbcb;"/>
     </g>
     <g id="line2d_20"/>
     <g id="text_11">
      <!-- 0.6 -->
      <g transform="translate(17.135 201.067841)scale(0.16 -0.16)">
       <use xlink:href="#DejaVuSans-48"/>
       <use x="63.623047" xlink:href="#DejaVuSans-46"/>
       <use x="95.410156" xlink:href="#DejaVuSans-54"/>
      </g>
     </g>
    </g>
    <g id="ytick_5">
     <g id="line2d_21">
      <path clip-path="url(#p85f9ce43ad)" d="M 46.08 131.367273 
L 547.2 131.367273 
" style="fill:none;stroke:#cbcbcb;"/>
     </g>
     <g id="line2d_22"/>
     <g id="text_12">
      <!-- 0.8 -->
      <g transform="translate(17.135 137.446023)scale(0.16 -0.16)">
       <use xlink:href="#DejaVuSans-48"/>
       <use x="63.623047" xlink:href="#DejaVuSans-46"/>
       <use x="95.410156" xlink:href="#DejaVuSans-56"/>
      </g>
     </g>
    </g>
    <g id="ytick_6">
     <g id="line2d_23">
      <path clip-path="url(#p85f9ce43ad)" d="M 46.08 67.745455 
L 547.2 67.745455 
" style="fill:none;stroke:#cbcbcb;"/>
     </g>
     <g id="line2d_24"/>
     <g id="text_13">
      <!-- 1.0 -->
      <g transform="translate(17.135 73.824205)scale(0.16 -0.16)">
       <use xlink:href="#DejaVuSans-49"/>
       <use x="63.623047" xlink:href="#DejaVuSans-46"/>
       <use x="95.410156" xlink:href="#DejaVuSans-48"/>
      </g>
     </g>
    </g>
    <g id="text_14">
     <!-- True Positive Rate -->
     <g transform="translate(9.142 312.297)rotate(-90)scale(0.192 -0.192)">
      <defs>
       <path d="M -0.296875 72.90625 
L 61.375 72.90625 
L 61.375 64.59375 
L 35.5 64.59375 
L 35.5 0 
L 25.59375 0 
L 25.59375 64.59375 
L -0.296875 64.59375 
z
" id="DejaVuSans-84"/>
       <path d="M 41.109375 46.296875 
Q 39.59375 47.171875 37.8125 47.578125 
Q 36.03125 48 33.890625 48 
Q 26.265625 48 22.1875 43.046875 
Q 18.109375 38.09375 18.109375 28.8125 
L 18.109375 0 
L 9.078125 0 
L 9.078125 54.6875 
L 18.109375 54.6875 
L 18.109375 46.1875 
Q 20.953125 51.171875 25.484375 53.578125 
Q 30.03125 56 36.53125 56 
Q 37.453125 56 38.578125 55.875 
Q 39.703125 55.765625 41.0625 55.515625 
z
" id="DejaVuSans-114"/>
       <path d="M 8.5 21.578125 
L 8.5 54.6875 
L 17.484375 54.6875 
L 17.484375 21.921875 
Q 17.484375 14.15625 20.5 10.265625 
Q 23.53125 6.390625 29.59375 6.390625 
Q 36.859375 6.390625 41.078125 11.03125 
Q 45.3125 15.671875 45.3125 23.6875 
L 45.3125 54.6875 
L 54.296875 54.6875 
L 54.296875 0 
L 45.3125 0 
L 45.3125 8.40625 
Q 42.046875 3.421875 37.71875 1 
Q 33.40625 -1.421875 27.6875 -1.421875 
Q 18.265625 -1.421875 13.375 4.4375 
Q 8.5 10.296875 8.5 21.578125 
z
M 31.109375 56 
z
" id="DejaVuSans-117"/>
      </defs>
      <use xlink:href="#DejaVuSans-84"/>
      <use x="46.333984" xlink:href="#DejaVuSans-114"/>
      <use x="87.447266" xlink:href="#DejaVuSans-117"/>
      <use x="150.826172" xlink:href="#DejaVuSans-101"/>
      <use x="212.349609" xlink:href="#DejaVuSans-32"/>
      <use x="244.136719" xlink:href="#DejaVuSans-80"/>
      <use x="300.814453" xlink:href="#DejaVuSans-111"/>
      <use x="361.996094" xlink:href="#DejaVuSans-115"/>
      <use x="414.095703" xlink:href="#DejaVuSans-105"/>
      <use x="441.878906" xlink:href="#DejaVuSans-116"/>
      <use x="481.087891" xlink:href="#DejaVuSans-105"/>
      <use x="508.871094" xlink:href="#DejaVuSans-118"/>
      <use x="568.050781" xlink:href="#DejaVuSans-101"/>
      <use x="629.574219" xlink:href="#DejaVuSans-32"/>
      <use x="661.361328" xlink:href="#DejaVuSans-82"/>
      <use x="728.59375" xlink:href="#DejaVuSans-97"/>
      <use x="789.873047" xlink:href="#DejaVuSans-116"/>
      <use x="829.082031" xlink:href="#DejaVuSans-101"/>
     </g>
    </g>
   </g>
   <g id="line2d_25">
    <path clip-path="url(#p85f9ce43ad)" d="M 68.858182 385.854545 
L 524.421818 67.745455 
" style="fill:none;stroke:#0000ff;stroke-width:4;"/>
   </g>
   <g id="line2d_26">
    <path clip-path="url(#p85f9ce43ad)" d="M 68.858182 385.854545 
L 68.930154 385.747546 
L 69.014513 385.533547 
L 69.033259 385.533547 
L 69.212018 385.426548 
L 69.277965 384.998551 
L 69.294368 384.998551 
L 69.399481 384.891551 
L 69.435635 384.570553 
L 69.494887 384.570553 
L 70.098451 384.463554 
L 70.098451 384.356554 
L 70.191847 384.356554 
L 71.088322 384.249555 
L 71.183058 384.035556 
L 71.292189 383.928557 
L 71.334702 383.821558 
L 71.343741 383.821558 
L 71.811394 383.714558 
L 71.832484 383.607559 
L 71.86529 383.607559 
L 72.35102 383.50056 
L 72.431696 383.39356 
L 72.442073 383.39356 
L 72.657656 383.286561 
L 72.698161 382.965563 
L 72.76846 382.965563 
L 72.918096 382.858563 
L 72.98672 382.644565 
L 73.022539 382.644565 
L 73.444331 382.537565 
L 73.528355 382.323567 
L 73.544088 382.323567 
L 74.038522 382.216567 
L 74.042204 381.895569 
L 74.140622 381.895569 
L 74.767285 381.78857 
L 74.797747 381.68157 
L 74.867376 381.68157 
L 74.955082 381.574571 
L 75.030737 381.253573 
L 75.056179 381.253573 
L 75.179369 381.146574 
L 75.2731 380.932575 
L 75.829129 380.825576 
L 75.910809 380.718576 
L 75.922526 380.718576 
L 76.001863 380.611577 
L 76.038351 380.504578 
L 76.03902 380.504578 
L 76.392857 380.397578 
L 76.393192 380.290579 
L 76.501987 380.290579 
L 76.660327 380.183579 
L 76.663674 379.969581 
L 76.763431 379.969581 
L 76.965289 379.862581 
L 76.968636 379.755582 
L 77.066385 379.755582 
L 77.436624 379.648583 
L 77.505249 379.434584 
L 77.989306 379.327585 
L 78.027133 379.113586 
L 78.09944 379.113586 
L 78.317366 379.006587 
L 78.397707 378.792588 
L 78.402394 378.792588 
L 78.485078 378.685588 
L 78.521232 378.47159 
L 78.592535 378.47159 
L 78.698318 378.36459 
L 78.726437 378.257591 
L 78.808452 378.257591 
L 78.861678 378.150592 
L 78.867369 378.043592 
L 78.952062 378.043592 
L 79.188734 377.936593 
L 79.262046 377.722594 
L 79.299538 377.722594 
L 79.525833 377.615595 
L 79.600483 377.401596 
L 79.703253 377.294597 
L 79.807362 377.080598 
L 80.146804 376.973599 
L 80.165885 376.7596 
L 80.250244 376.7596 
L 80.411931 376.652601 
L 80.430007 376.545601 
L 80.482564 376.545601 
L 80.670696 376.438602 
L 80.757398 376.010605 
L 80.758737 376.010605 
L 80.847447 375.903605 
L 80.907034 375.475608 
L 80.957582 375.475608 
L 81.006456 375.368608 
L 81.108557 375.04761 
L 81.258527 374.940611 
L 81.324474 374.726612 
L 81.345229 374.726612 
L 81.412849 374.619613 
L 81.412849 374.512614 
L 81.463397 374.512614 
L 81.752626 374.405614 
L 81.775055 374.298615 
L 81.819577 374.298615 
L 82.180778 374.191615 
L 82.251077 373.870617 
L 82.389666 373.763618 
L 82.429501 373.44262 
L 82.492101 373.44262 
L 82.624664 373.335621 
L 82.624664 373.228621 
L 82.727434 373.228621 
L 82.904854 373.121622 
L 82.970132 372.800624 
L 83.007624 372.800624 
L 83.037083 372.693624 
L 83.038756 372.586625 
L 83.124454 372.586625 
L 83.213499 372.479626 
L 83.213499 372.372626 
L 83.319951 372.372626 
L 83.637634 372.265627 
L 83.74509 371.623631 
L 83.838152 371.516632 
L 83.92385 371.088634 
L 83.935901 371.088634 
L 84.096584 370.981635 
L 84.143115 370.446638 
L 84.19768 370.446638 
L 84.310492 370.339639 
L 84.40958 370.12564 
L 84.548838 370.01864 
L 84.652947 369.697642 
L 84.658638 369.697642 
L 84.754713 369.590643 
L 84.756052 369.483644 
L 84.854135 369.483644 
L 84.925103 369.376644 
L 84.992389 368.948647 
L 85.024191 368.948647 
L 85.050636 368.841648 
L 85.07976 368.520649 
L 85.160771 368.520649 
L 85.199268 368.41365 
L 85.214667 368.092652 
L 85.293669 368.092652 
L 85.333505 367.985653 
L 85.352251 367.771654 
L 85.40916 367.771654 
L 85.819235 367.664655 
L 85.88083 367.450656 
L 85.929369 367.450656 
L 86.141604 367.343657 
L 86.206882 366.915659 
L 86.245379 366.915659 
L 86.341453 366.80866 
L 86.405726 366.594661 
L 86.451923 366.594661 
L 86.480712 366.487662 
L 86.562392 366.166664 
L 86.586829 366.166664 
L 86.682904 366.059664 
L 86.760902 365.738666 
L 86.786343 365.738666 
L 86.877062 365.631667 
L 86.877062 365.524667 
L 86.959077 365.524667 
L 87.081263 365.417668 
L 87.147544 365.09667 
L 87.169304 365.09667 
L 87.298854 364.989671 
L 87.301532 364.668673 
L 87.333668 364.668673 
L 87.579379 364.561673 
L 87.667085 364.347675 
L 87.688844 364.347675 
L 87.725332 364.240675 
L 87.800987 363.598679 
L 87.920495 363.49168 
L 87.923508 363.277681 
L 88.020587 363.277681 
L 88.184282 363.170682 
L 88.215749 363.063682 
L 88.286048 363.063682 
L 88.389487 362.956683 
L 88.443048 362.528685 
L 88.469159 362.528685 
L 88.602392 362.421686 
L 88.684407 361.993689 
L 88.705161 361.993689 
L 88.718886 361.886689 
L 88.788516 361.351693 
L 88.822661 361.351693 
L 88.987026 361.244693 
L 89.0908 360.923695 
L 89.097495 360.923695 
L 89.133314 360.816696 
L 89.236418 360.281699 
L 89.311404 360.1747 
L 89.332828 359.960701 
L 89.374338 359.960701 
L 89.431915 359.853701 
L 89.504892 358.890707 
L 89.54138 358.890707 
L 89.581551 358.783708 
L 89.648837 358.35571 
L 89.689008 358.35571 
L 89.737882 358.248711 
L 89.820901 357.820714 
L 89.847682 357.820714 
L 89.893543 357.713714 
L 89.907938 357.606715 
L 89.982588 357.606715 
L 90.092723 357.499716 
L 90.200514 356.857719 
L 90.220934 356.75072 
L 90.327721 356.215723 
L 90.430156 356.108724 
L 90.503133 355.573727 
L 90.524222 355.573727 
L 90.580461 355.466728 
L 90.67185 354.824732 
L 90.67754 354.824732 
L 90.733779 354.717732 
L 90.819142 354.289735 
L 90.891449 354.182736 
L 90.935972 353.647739 
L 90.992211 353.647739 
L 91.025017 353.540739 
L 91.135821 352.898743 
L 91.13716 352.898743 
L 91.241938 351.614751 
L 91.269723 351.507752 
L 91.378518 350.544757 
L 91.380527 350.544757 
L 91.466559 350.437758 
L 91.5469 350.009761 
L 91.577363 350.009761 
L 91.593766 349.902761 
L 91.640632 349.474764 
L 91.696871 349.474764 
L 91.720973 349.367764 
L 91.775538 348.832768 
L 91.813366 348.832768 
L 91.928187 348.725768 
L 92.00518 348.51177 
L 92.037317 348.51177 
L 92.102594 348.40477 
L 92.206034 347.334777 
L 92.210051 347.334777 
L 92.255577 347.227777 
L 92.364708 346.478782 
L 92.385797 346.371782 
L 92.488567 345.729786 
L 92.571587 345.622787 
L 92.626821 345.408788 
L 92.670674 345.408788 
L 92.709841 345.301789 
L 92.81964 344.445794 
L 92.828344 344.338795 
L 92.91538 343.910797 
L 92.935801 343.910797 
L 92.994048 343.803798 
L 93.085771 343.054802 
L 93.095144 343.054802 
L 93.111212 342.947803 
L 93.220677 342.091808 
L 93.269552 341.984809 
L 93.365961 341.128814 
L 93.377678 341.128814 
L 93.413162 341.021815 
L 93.519949 340.16582 
L 93.521957 340.16582 
L 93.582548 340.05882 
L 93.681636 339.202825 
L 93.693352 339.202825 
L 93.716785 339.095826 
L 93.823237 338.025832 
L 93.824576 338.025832 
L 93.838636 337.918833 
L 93.948436 337.062838 
L 93.949105 337.062838 
L 93.992958 336.955839 
L 94.061583 336.634841 
L 94.094724 336.634841 
L 94.111462 336.527841 
L 94.168035 336.099844 
L 94.222266 336.099844 
L 94.278839 335.992845 
L 94.374245 335.457848 
L 94.490405 335.350849 
L 94.586145 334.173856 
L 94.590831 334.173856 
L 94.628324 334.066856 
L 94.690254 333.638859 
L 94.719712 333.638859 
L 94.756535 333.531859 
L 94.783985 333.103862 
L 94.863992 333.103862 
L 94.88709 332.996863 
L 94.966762 332.354867 
L 94.997894 332.354867 
L 95.046768 332.247867 
L 95.145521 331.605871 
L 95.150208 331.605871 
L 95.224523 331.498872 
L 95.333988 330.856876 
L 95.354074 330.749876 
L 95.415669 330.428878 
L 95.464878 330.428878 
L 95.494336 330.321879 
L 95.589742 329.786882 
L 95.603801 329.786882 
L 95.61987 329.679883 
L 95.705232 329.037886 
L 95.72197 329.037886 
L 95.800637 328.930887 
L 95.910437 327.860893 
L 95.922154 327.753894 
L 96.00919 326.897899 
L 96.028271 326.897899 
L 96.080828 326.7909 
L 96.171212 326.362902 
L 96.185941 326.362902 
L 96.212052 326.255903 
L 96.315826 325.613907 
L 96.322521 325.613907 
L 96.339594 325.506908 
L 96.397172 324.757912 
L 96.438347 324.757912 
L 96.49492 324.650913 
L 96.588652 324.008917 
L 96.60472 324.008917 
L 96.609072 323.901917 
L 96.667319 323.045922 
L 96.719541 323.045922 
L 96.773437 322.938923 
L 96.882902 322.189928 
L 96.925416 322.082928 
L 97.024503 321.654931 
L 97.042245 321.547931 
L 97.146689 320.905935 
L 97.19255 320.798936 
L 97.275905 319.942941 
L 97.296994 319.942941 
L 97.324109 319.835942 
L 97.415498 319.086946 
L 97.430562 319.086946 
L 97.548396 318.979947 
L 97.641123 318.44495 
L 97.655852 318.44495 
L 97.710082 318.337951 
L 97.807831 317.909953 
L 97.815196 317.909953 
L 97.858044 317.802954 
L 97.957467 317.053958 
L 97.997637 316.946959 
L 98.104424 316.090964 
L 98.181083 315.983965 
L 98.273141 315.341969 
L 98.290548 315.341969 
L 98.326032 315.234969 
L 98.392983 314.592973 
L 98.436502 314.592973 
L 98.483367 314.485974 
L 98.581451 313.629979 
L 98.58279 313.629979 
L 98.612248 313.52298 
L 98.712005 313.201981 
L 98.768579 313.094982 
L 98.848251 312.345987 
L 98.879383 312.345987 
L 98.916876 312.238987 
L 99.021319 311.70399 
L 99.05513 311.596991 
L 99.163256 310.740996 
L 99.199075 310.633997 
L 99.299836 309.778002 
L 99.30854 309.778002 
L 99.363105 309.671003 
L 99.472235 309.136006 
L 99.481273 309.029007 
L 99.589065 308.601009 
L 99.592077 308.601009 
L 99.632918 308.49401 
L 99.706564 308.280011 
L 99.7387 308.280011 
L 99.822389 308.173012 
L 99.929846 307.745014 
L 99.990771 307.638015 
L 100.080151 306.568021 
L 100.096889 306.568021 
L 100.129695 306.461022 
L 100.212044 305.712026 
L 100.232465 305.712026 
L 100.250207 305.605027 
L 100.314145 305.391028 
L 100.360006 305.391028 
L 100.413232 305.284029 
L 100.489557 304.535033 
L 100.522697 304.535033 
L 100.536757 304.428034 
L 100.627141 303.679039 
L 100.660617 303.572039 
L 100.764391 302.823044 
L 100.771421 302.823044 
L 100.806235 302.716044 
L 100.810922 302.609045 
L 100.904319 302.609045 
L 101.006084 302.502046 
L 101.110193 301.967049 
L 101.140321 301.86005 
L 101.236731 300.897055 
L 101.23807 300.897055 
L 101.352221 300.790056 
L 101.416494 300.362059 
L 101.462691 300.362059 
L 101.528303 300.255059 
L 101.583537 299.827062 
L 101.624378 299.827062 
L 101.75125 299.720062 
L 101.859711 299.185066 
L 101.861384 299.185066 
L 101.917958 299.078066 
L 102.011355 298.543069 
L 102.026419 298.543069 
L 102.073285 298.43607 
L 102.180406 297.580075 
L 102.184089 297.580075 
L 102.224259 297.473076 
L 102.307613 296.72408 
L 102.332051 296.72408 
L 102.444194 296.617081 
L 102.539599 295.975085 
L 102.552654 295.975085 
L 102.570396 295.868085 
L 102.648729 295.333089 
L 102.675844 295.333089 
L 102.720702 295.226089 
L 102.81845 294.477094 
L 102.862973 294.370094 
L 102.966412 293.4071 
L 102.990514 293.300101 
L 103.09295 292.658105 
L 103.104331 292.551105 
L 103.210449 292.123108 
L 103.287443 292.016109 
L 103.360419 291.588111 
L 103.374479 291.588111 
L 103.403268 291.481112 
L 103.463524 291.053114 
L 103.495995 291.053114 
L 103.615168 290.946115 
L 103.721286 290.411118 
L 103.74974 290.304119 
L 103.854853 289.662123 
L 103.887994 289.555123 
L 103.983399 289.127126 
L 103.996789 289.127126 
L 104.04399 289.020127 
L 104.153455 288.48513 
L 104.235135 288.37813 
L 104.334557 288.164132 
L 104.342592 288.164132 
L 104.473146 288.057132 
L 104.579933 287.522136 
L 104.580603 287.522136 
L 104.651236 287.415136 
L 104.720196 286.987139 
L 104.749319 286.987139 
L 104.774761 286.880139 
L 104.884895 286.345143 
L 104.893934 286.238143 
L 104.998712 285.703147 
L 105.084075 285.596147 
L 105.166759 285.16815 
L 105.182158 285.16815 
L 105.232372 285.06115 
L 105.334807 284.633153 
L 105.388702 284.526154 
L 105.488794 283.349161 
L 105.521935 283.242161 
L 105.617006 282.707164 
L 105.6314 282.707164 
L 105.668558 282.600165 
L 105.746221 281.958169 
L 105.766641 281.958169 
L 105.98055 281.85117 
L 106.08332 281.102174 
L 106.113783 280.995175 
L 106.202828 280.032181 
L 106.209523 280.032181 
L 106.280826 279.925181 
L 106.36987 279.497184 
L 106.3846 279.497184 
L 106.427448 279.390184 
L 106.521515 278.962187 
L 106.601186 278.855188 
L 106.674833 278.641189 
L 106.708978 278.641189 
L 106.724376 278.53419 
L 106.790323 277.785194 
L 106.799362 277.785194 
L 106.859283 277.678195 
L 106.956697 277.143198 
L 106.962053 277.143198 
L 107.113697 277.036199 
L 107.168597 276.501202 
L 107.212785 276.501202 
L 107.252955 276.394202 
L 107.361751 275.324209 
L 107.41096 275.217209 
L 107.505361 274.682213 
L 107.519421 274.682213 
L 107.680773 274.575213 
L 107.768479 274.147216 
L 107.784547 274.147216 
L 107.859197 274.040216 
L 107.945229 273.719218 
L 107.968328 273.719218 
L 107.982053 273.612219 
L 108.083818 273.184222 
L 108.092522 273.184222 
L 108.172863 273.077222 
L 108.204665 272.756224 
L 108.28032 272.756224 
L 108.310782 272.649225 
L 108.418908 272.007229 
L 108.497576 271.900229 
L 108.601685 271.472232 
L 108.624783 271.365233 
L 108.639512 271.044234 
L 108.714497 271.044234 
L 108.797517 270.937235 
L 108.908321 270.18824 
L 108.968577 270.08124 
L 109.040214 269.760242 
L 109.065991 269.760242 
L 109.112856 269.760242 
L 109.166083 269.332245 
L 109.212948 269.332245 
L 109.248767 269.225245 
L 109.352876 268.797248 
L 109.4369 268.690249 
L 109.516571 268.155252 
L 109.546365 268.155252 
L 109.694661 268.048252 
L 109.789062 267.192258 
L 109.804126 267.192258 
L 109.848984 267.085258 
L 109.923634 266.550261 
L 109.954766 266.550261 
L 109.965478 266.550261 
L 110.05988 265.908265 
L 110.076283 265.908265 
L 110.190769 265.801266 
L 110.243995 265.15927 
L 110.301238 265.15927 
L 110.392961 265.05227 
L 110.474307 264.410274 
L 110.502426 264.410274 
L 110.570716 264.303275 
L 110.656079 263.768278 
L 110.656748 263.768278 
L 110.747132 263.661279 
L 110.854254 262.912283 
L 110.925557 262.805284 
L 110.998868 262.270287 
L 111.034687 262.270287 
L 111.089252 262.163288 
L 111.175619 261.628291 
L 111.190014 261.628291 
L 111.302492 261.521292 
L 111.303496 261.414292 
L 111.405931 261.414292 
L 111.415974 261.307293 
L 111.444093 261.093294 
L 111.518744 261.093294 
L 111.552889 260.986295 
L 111.614484 260.558297 
L 111.647959 260.558297 
L 111.727966 260.451298 
L 111.832744 260.023301 
L 111.834418 260.023301 
L 111.972002 259.916301 
L 112.082137 259.381304 
L 112.096532 259.274305 
L 112.115278 259.060306 
L 112.204992 259.060306 
L 112.260227 258.953307 
L 112.34559 258.632309 
L 112.358645 258.632309 
L 112.44769 258.52531 
L 112.52301 258.097312 
L 112.557824 258.097312 
L 112.656243 257.990313 
L 112.705452 257.562315 
L 112.765708 257.562315 
L 112.800522 257.455316 
L 112.801861 257.241317 
L 112.902288 257.241317 
L 112.975265 257.134318 
L 113.07703 256.492322 
L 113.085064 256.492322 
L 113.18683 256.385322 
L 113.296295 255.850326 
L 113.391031 255.743326 
L 113.421159 255.422328 
L 113.495809 255.422328 
L 113.530289 255.315329 
L 113.593893 254.994331 
L 113.620673 254.994331 
L 113.806127 254.887331 
L 113.836925 254.459334 
L 113.884125 254.459334 
L 114.020371 254.352335 
L 114.093348 253.924337 
L 114.127493 253.924337 
L 114.220555 253.817338 
L 114.277798 253.603339 
L 114.322655 253.603339 
L 114.379898 253.49634 
L 114.421408 253.282341 
L 114.482668 253.282341 
L 114.550624 253.175342 
L 114.646029 252.747344 
L 114.65808 252.747344 
L 114.758172 252.640345 
L 114.825123 252.105348 
L 114.867972 252.105348 
L 114.940614 251.998349 
L 115.041375 251.677351 
L 115.144814 251.570351 
L 115.245911 250.714356 
L 115.252606 250.714356 
L 115.317213 250.607357 
L 115.371444 250.17936 
L 115.416971 250.17936 
L 115.476222 250.07236 
L 115.525431 249.644363 
L 115.571962 249.644363 
L 115.617824 249.537364 
L 115.648956 249.323365 
L 115.704525 249.323365 
L 115.738336 249.216365 
L 115.738336 249.109366 
L 115.841775 249.109366 
L 115.94488 249.002367 
L 116.013505 248.574369 
L 116.045307 248.574369 
L 116.094516 248.46737 
L 116.095185 248.360371 
L 116.198624 248.360371 
L 116.237121 248.253371 
L 116.338552 247.825374 
L 116.374036 247.718374 
L 116.463751 247.076378 
L 116.478145 247.076378 
L 116.500574 246.969379 
L 116.536727 246.75538 
L 116.587945 246.75538 
L 116.704775 246.648381 
L 116.802189 246.327383 
L 116.840016 246.220383 
L 116.914666 245.792386 
L 116.949481 245.792386 
L 116.987308 245.685387 
L 117.044551 245.15039 
L 117.095769 245.15039 
L 117.204565 245.043391 
L 117.255113 244.829392 
L 117.307 244.829392 
L 117.386002 244.722392 
L 117.453957 244.294395 
L 117.495467 244.294395 
L 117.670544 244.187396 
L 117.777331 243.5454 
L 117.801768 243.4384 
L 117.911233 243.010403 
L 118.026389 242.903403 
L 118.034423 242.796404 
L 118.121125 242.796404 
L 118.221886 242.689405 
L 118.231594 242.475406 
L 118.328004 242.475406 
L 118.40098 242.368407 
L 118.489356 241.940409 
L 118.491364 241.940409 
L 118.636648 241.83341 
L 118.744105 241.512412 
L 118.834154 241.405412 
L 118.935585 241.084414 
L 118.943619 241.084414 
L 118.992828 240.977415 
L 119.057436 240.763416 
L 119.098276 240.763416 
L 119.188995 240.656417 
L 119.290426 239.907421 
L 119.292434 239.907421 
L 119.330931 239.800422 
L 119.437048 239.372425 
L 119.483579 239.265425 
L 119.534462 238.837428 
L 119.586684 238.837428 
L 119.640245 238.730428 
L 119.730964 238.51643 
L 119.747702 238.51643 
L 119.803271 238.40943 
L 119.843107 238.195432 
L 119.910058 238.195432 
L 120.008811 238.088432 
L 120.083126 237.660435 
L 120.114928 237.660435 
L 120.182214 237.553435 
L 120.185227 237.446436 
L 120.29101 237.446436 
L 120.416208 237.339437 
L 120.416208 237.232437 
L 120.527012 237.232437 
L 120.641498 237.125438 
L 120.712132 236.697441 
L 120.750964 236.697441 
L 121.075676 236.590441 
L 121.177107 236.055444 
L 121.184807 236.055444 
L 121.293267 235.948445 
L 121.383986 235.413448 
L 121.397376 235.413448 
L 121.482739 235.306449 
L 121.589191 234.985451 
L 121.592204 234.985451 
L 121.703677 234.878452 
L 121.73414 234.664453 
L 121.811469 234.664453 
L 121.833563 234.557453 
L 121.854317 234.236455 
L 121.911561 234.236455 
L 121.982529 234.129456 
L 121.999266 233.808458 
L 122.081282 233.808458 
L 122.430097 233.701459 
L 122.495709 233.48746 
L 122.540231 233.48746 
L 122.577724 233.380461 
L 122.597809 233.059462 
L 122.686519 233.059462 
L 122.719995 233.059462 
L 122.830129 232.417466 
L 122.859923 232.310467 
L 122.859923 232.203468 
L 122.940934 232.203468 
L 123.024288 232.096468 
L 123.033661 231.77547 
L 123.113333 231.77547 
L 123.262299 231.668471 
L 123.341971 231.240473 
L 123.373103 231.240473 
L 123.538472 231.133474 
L 123.621157 230.598477 
L 123.649276 230.598477 
L 123.795564 230.491478 
L 123.801255 230.384478 
L 123.872558 230.384478 
L 123.970641 230.277479 
L 124.04027 229.849482 
L 124.062364 229.849482 
L 124.093162 229.742482 
L 124.200283 229.421484 
L 124.203631 229.421484 
L 124.288659 229.314485 
L 124.297362 229.100486 
L 124.398459 229.100486 
L 124.469762 228.993487 
L 124.472105 228.779488 
L 124.573201 228.779488 
L 124.606007 228.672489 
L 124.710116 228.244491 
L 124.849374 228.137492 
L 124.943106 227.923493 
L 125.058262 227.816494 
L 125.162036 227.602495 
L 125.431849 227.495496 
L 125.481392 227.281497 
L 125.541983 227.281497 
L 125.640736 227.174498 
L 125.739489 226.960499 
L 125.745514 226.960499 
L 125.776647 226.8535 
L 125.880756 226.425502 
L 125.913896 226.318503 
L 125.979508 226.104504 
L 126.018675 226.104504 
L 126.029722 225.997505 
L 126.039095 225.890505 
L 126.120775 225.890505 
L 126.327989 225.783506 
L 126.412013 225.14151 
L 126.540893 225.034511 
L 126.633286 224.285515 
L 126.647346 224.285515 
L 126.789617 224.178516 
L 126.88134 223.857518 
L 126.900086 223.857518 
L 127.099935 223.750518 
L 127.191323 223.42952 
L 127.209735 223.42952 
L 127.266308 223.322521 
L 127.374769 222.894523 
L 127.470509 222.787524 
L 127.478209 222.680525 
L 127.575622 222.680525 
L 127.634539 222.573525 
L 127.742665 222.145528 
L 127.745343 222.145528 
L 127.806938 222.038529 
L 127.846439 221.82453 
L 127.908704 221.82453 
L 128.074073 221.717531 
L 128.074073 221.610531 
L 128.184542 221.610531 
L 128.596961 221.503532 
L 128.700066 221.182534 
L 128.70743 221.182534 
L 128.750949 221.075534 
L 128.83765 220.861536 
L 129.068632 220.754536 
L 129.175419 220.326539 
L 129.179101 220.326539 
L 129.216259 220.219539 
L 129.285553 220.005541 
L 129.319698 220.005541 
L 129.598884 219.898541 
L 129.607253 219.684543 
L 129.69998 219.684543 
L 129.786012 219.577543 
L 129.883426 218.935547 
L 129.950377 218.828548 
L 130.011638 218.293551 
L 130.0498 218.293551 
L 130.179015 218.186552 
L 130.246301 217.972553 
L 130.288146 217.972553 
L 130.30957 217.972553 
L 130.414683 217.437556 
L 130.507745 217.330557 
L 130.556285 217.009559 
L 130.584739 217.009559 
L 130.691526 216.902559 
L 130.727345 216.581561 
L 130.800991 216.581561 
L 130.847187 216.474562 
L 130.943931 216.153564 
L 130.957656 216.153564 
L 130.990462 216.046565 
L 130.997158 215.939565 
L 131.094906 215.939565 
L 131.149806 215.832566 
L 131.258267 215.618567 
L 131.30848 215.511568 
L 131.30848 215.404568 
L 131.414263 215.404568 
L 131.434348 215.297569 
L 131.491591 215.08357 
L 131.535444 215.08357 
L 131.60273 214.976571 
L 131.622815 214.869572 
L 131.687758 214.869572 
L 131.748014 214.762572 
L 131.834716 214.334575 
L 131.844089 214.334575 
L 131.967614 214.227575 
L 131.967614 214.120576 
L 132.074735 214.120576 
L 132.206964 214.013577 
L 132.276258 213.47858 
L 132.314085 213.47858 
L 132.570173 213.371581 
L 132.670935 212.943583 
L 132.679304 212.943583 
L 132.716127 212.836584 
L 132.819566 212.301587 
L 132.823918 212.301587 
L 133.126202 212.194588 
L 133.182441 211.980589 
L 133.225959 211.980589 
L 133.43016 211.87359 
L 133.524896 211.445592 
L 133.531256 211.445592 
L 133.678883 211.338593 
L 133.680557 211.124594 
L 133.783996 211.124594 
L 133.926268 211.017595 
L 134.009287 210.803596 
L 134.024686 210.803596 
L 134.205119 210.696597 
L 134.274078 210.482598 
L 134.308223 210.482598 
L 134.347725 210.375599 
L 134.450495 210.0546 
L 134.63528 209.947601 
L 134.727337 209.626603 
L 134.741732 209.626603 
L 134.947606 209.519604 
L 135.052385 209.198606 
L 135.066445 209.198606 
L 135.110297 208.770608 
L 135.173901 208.770608 
L 135.382119 208.663609 
L 135.437019 208.342611 
L 135.489241 208.342611 
L 135.780813 208.235611 
L 135.884922 207.914613 
L 135.890278 207.914613 
L 135.923084 207.807614 
L 135.92777 207.700615 
L 136.026858 207.700615 
L 136.051295 207.593615 
L 136.157747 207.272617 
L 136.159086 207.272617 
L 136.226037 207.165618 
L 136.333159 206.84462 
L 136.334498 206.84462 
L 136.532004 206.73762 
L 136.628079 205.988625 
L 136.739217 205.881626 
L 136.847678 205.346629 
L 136.985263 205.239629 
L 137.091715 204.811632 
L 137.096067 204.811632 
L 137.187455 204.704633 
L 137.295581 204.383635 
L 137.338095 204.276635 
L 137.426135 203.848638 
L 137.44689 203.848638 
L 137.892785 203.741638 
L 137.905171 203.52764 
L 138.001245 203.52764 
L 138.097655 203.42064 
L 138.141173 203.206642 
L 138.201094 203.206642 
L 138.387218 203.099642 
L 138.428393 202.778644 
L 138.497018 202.778644 
L 138.568656 202.671645 
L 138.663392 202.243647 
L 139.024593 202.136648 
L 139.085853 201.922649 
L 139.132384 201.922649 
L 139.184606 201.81565 
L 139.184606 201.708651 
L 139.295075 201.708651 
L 139.688078 201.601651 
L 139.737956 201.387653 
L 139.798212 201.387653 
L 140.041914 201.280653 
L 140.117234 200.959655 
L 140.148367 200.959655 
L 140.282604 200.852656 
L 140.286286 200.638657 
L 140.390395 200.638657 
L 140.511576 200.531658 
L 140.511576 200.424658 
L 140.606312 200.424658 
L 140.887172 200.317659 
L 140.980234 199.889661 
L 140.997641 199.889661 
L 141.018731 199.782662 
L 141.116145 199.568663 
L 141.125852 199.568663 
L 141.364198 199.461664 
L 141.466299 199.140666 
L 141.715022 199.033667 
L 141.821809 198.712669 
L 141.905498 198.605669 
L 142.014628 198.177672 
L 142.161586 198.070672 
L 142.161586 197.963673 
L 142.263351 197.963673 
L 142.495002 197.856674 
L 142.583712 197.428676 
L 142.602459 197.428676 
L 142.97069 197.321677 
L 142.97069 197.214678 
L 143.081494 197.214678 
L 143.160496 197.107678 
L 143.242176 196.679681 
L 143.266613 196.679681 
L 143.386121 196.572681 
L 143.386121 196.465682 
L 143.484204 196.465682 
L 143.523371 196.358683 
L 143.615094 196.144684 
L 143.625806 196.144684 
L 143.696439 196.144684 
L 143.778454 195.716687 
L 143.793518 195.716687 
L 144.020817 195.609687 
L 144.020817 195.502688 
L 144.129948 195.502688 
L 144.184178 195.395688 
L 144.238074 195.18169 
L 144.284939 195.18169 
L 144.340174 195.07469 
L 144.357247 194.860692 
L 144.43424 194.860692 
L 144.927335 194.753692 
L 145.008681 194.539694 
L 145.033787 194.539694 
L 145.363521 194.432694 
L 145.363521 194.325695 
L 145.457922 194.325695 
L 145.52956 194.218696 
L 145.537259 194.004697 
L 145.637351 194.004697 
L 145.85193 193.897697 
L 145.955704 193.4697 
L 145.992527 193.362701 
L 146.001565 193.148702 
L 146.086258 193.148702 
L 146.208444 193.041703 
L 146.291798 192.827704 
L 146.297489 192.827704 
L 146.491982 192.720705 
L 146.491982 192.613705 
L 146.587387 192.613705 
L 146.669737 192.506706 
L 146.669737 192.399706 
L 146.770833 192.399706 
L 147.200994 192.292707 
L 147.285018 192.078708 
L 147.30845 192.078708 
L 147.448043 191.971709 
L 147.459425 191.86471 
L 147.558847 191.86471 
L 147.96658 191.75771 
L 148.046251 191.222714 
L 148.077384 191.222714 
L 148.173793 191.115714 
L 148.179484 191.008715 
L 148.281584 191.008715 
L 148.525956 190.901715 
L 148.632408 190.687717 
L 148.842969 190.580717 
L 148.842969 190.473718 
L 148.952769 190.473718 
L 148.962142 190.366719 
L 149.042149 189.938721 
L 149.072277 189.938721 
L 149.321 189.831722 
L 149.350793 189.617723 
L 149.424774 189.617723 
L 149.481348 189.510724 
L 149.504781 189.296725 
L 149.588804 189.296725 
L 149.72505 189.189726 
L 149.729402 189.082726 
L 149.826146 189.082726 
L 149.984151 188.975727 
L 150.018965 188.761728 
L 150.090603 188.761728 
L 150.499004 188.654729 
L 150.589723 188.333731 
L 150.608469 188.333731 
L 150.851837 188.226731 
L 150.851837 188.119732 
L 150.955945 188.119732 
L 151.010511 188.012733 
L 151.079805 187.584735 
L 151.119306 187.584735 
L 151.376064 187.477736 
L 151.380081 187.263737 
L 151.478164 187.263737 
L 151.546789 187.156738 
L 151.569887 186.942739 
L 151.643868 186.942739 
L 152.252119 186.83574 
L 152.252788 186.72874 
L 152.352545 186.72874 
L 152.473057 186.621741 
L 152.477074 186.514742 
L 152.580848 186.514742 
L 152.780028 186.407742 
L 152.789736 186.300743 
L 152.885141 186.300743 
L 153.52988 186.193744 
L 153.547957 185.979745 
L 153.629972 185.979745 
L 153.667799 185.872746 
L 153.759857 185.658747 
L 153.774586 185.658747 
L 154.140474 185.551748 
L 154.175623 185.337749 
L 154.247261 185.337749 
L 154.441754 185.230749 
L 154.457487 185.016751 
L 154.544858 185.016751 
L 154.893339 184.909751 
L 154.893339 184.802752 
L 154.995104 184.802752 
L 155.086158 184.695753 
L 155.086158 184.588753 
L 155.191271 184.588753 
L 155.527366 184.481754 
L 155.593647 184.160756 
L 155.635826 184.160756 
L 155.770063 184.053757 
L 155.810903 183.732758 
L 155.869486 183.732758 
L 156.25345 183.625759 
L 156.345508 183.304761 
L 156.36258 183.304761 
L 156.573142 183.197762 
L 156.573142 183.090762 
L 156.653483 183.090762 
L 157.562679 182.983763 
L 157.600841 182.769764 
L 157.664779 182.769764 
L 157.748803 182.662765 
L 157.837848 182.341767 
L 157.854251 182.341767 
L 158.087575 182.234767 
L 158.165573 182.020769 
L 158.198379 182.020769 
L 158.603433 181.913769 
L 158.603433 181.699771 
L 158.714237 181.699771 
L 158.752065 181.592771 
L 158.843118 181.271773 
L 158.862869 181.271773 
L 159.020873 181.271773 
L 159.10021 180.843776 
L 159.122639 180.843776 
L 159.34023 180.736776 
L 159.341569 180.629777 
L 159.447686 180.629777 
L 159.663269 180.522778 
L 159.708126 180.308779 
L 159.76403 180.308779 
L 160.122219 180.20178 
L 160.188165 179.987781 
L 160.22934 179.987781 
L 160.41513 179.880782 
L 160.419481 179.773782 
L 160.524595 179.773782 
L 160.863367 179.666783 
L 160.943039 179.452784 
L 160.957433 179.452784 
L 161.211847 179.345785 
L 161.30357 179.131786 
L 161.322651 179.131786 
L 161.557315 179.024787 
L 161.586439 178.810788 
L 161.664772 178.810788 
L 161.846878 178.703789 
L 161.908808 178.48979 
L 161.954335 178.48979 
L 162.191342 178.382791 
L 162.262979 177.954793 
L 162.298798 177.954793 
L 162.666695 177.847794 
L 162.666695 177.740794 
L 162.774821 177.740794 
L 163.253521 177.633795 
L 163.254525 177.419796 
L 163.358969 177.419796 
L 163.786451 177.312797 
L 163.848046 177.098798 
L 163.896586 177.098798 
L 164.107817 176.991799 
L 164.107817 176.8848 
L 164.216612 176.8848 
L 164.249753 176.7778 
L 164.341141 176.563801 
L 164.349175 176.563801 
L 164.550363 176.456802 
L 164.550363 176.349803 
L 164.658489 176.349803 
L 164.787705 176.242803 
L 164.787705 176.135804 
L 164.895496 176.135804 
L 165.024042 176.028805 
L 165.123465 175.814806 
L 165.130829 175.814806 
L 165.598817 175.707807 
L 165.682506 175.493808 
L 165.707278 175.493808 
L 165.926878 175.386809 
L 165.926878 175.279809 
L 166.037682 175.279809 
L 166.281049 175.17281 
L 166.281049 175.06581 
L 166.359716 175.06581 
L 166.403235 174.958811 
L 166.511026 174.744812 
L 166.678738 174.637813 
L 166.688446 174.530814 
L 166.78586 174.530814 
L 167.233763 174.423814 
L 167.238784 174.316815 
L 167.326825 174.316815 
L 167.68903 174.209816 
L 167.796487 173.995817 
L 168.221626 173.888818 
L 168.221626 173.781818 
L 168.33243 173.781818 
L 168.485748 173.674819 
L 168.581488 173.46082 
L 168.595883 173.46082 
L 168.905531 173.353821 
L 168.92863 173.246821 
L 169.010979 173.246821 
L 169.977418 173.139822 
L 169.993152 173.032823 
L 170.086883 173.032823 
L 171.150067 172.925823 
L 171.167474 172.711825 
L 171.237772 172.711825 
L 171.299033 172.604825 
L 171.299033 172.497826 
L 171.390756 172.497826 
L 171.58324 172.390827 
L 171.600647 172.176828 
L 171.682997 172.176828 
L 172.143621 172.069828 
L 172.14496 171.962829 
L 172.235678 171.962829 
L 172.627342 171.85583 
L 172.639728 171.74883 
L 172.73346 171.74883 
L 172.978835 171.641831 
L 173.002603 171.534832 
L 173.0883 171.534832 
L 173.436446 171.427832 
L 173.443811 171.213834 
L 173.520804 171.213834 
L 173.741743 171.106834 
L 173.801999 170.892836 
L 173.844848 170.892836 
L 174.381461 170.785836 
L 174.388825 170.678837 
L 174.477535 170.678837 
L 175.385392 170.571837 
L 175.486488 170.250839 
L 175.494522 170.250839 
L 175.895225 170.14384 
L 175.898907 170.036841 
L 176.000338 170.036841 
L 176.247053 169.929841 
L 176.256091 169.822842 
L 176.332415 169.822842 
L 176.847269 169.715843 
L 176.892126 169.394845 
L 176.954391 169.394845 
L 177.322622 169.287845 
L 177.322957 169.180846 
L 177.432422 169.180846 
L 178.076156 169.073846 
L 178.081178 168.966847 
L 178.186291 168.966847 
L 178.782155 168.859848 
L 178.875217 168.645849 
L 178.887938 168.645849 
L 179.689677 168.53885 
L 179.749933 168.324851 
L 179.799142 168.324851 
L 180.122516 168.217852 
L 180.126533 168.110852 
L 180.221939 168.110852 
L 180.543638 168.003853 
L 180.544308 167.896853 
L 180.649756 167.896853 
L 180.773615 167.789854 
L 180.793031 167.575855 
L 180.884085 167.575855 
L 181.443126 167.468856 
L 181.443796 167.361857 
L 181.553596 167.361857 
L 181.909775 167.254857 
L 181.919483 167.147858 
L 182.00585 167.147858 
L 182.808259 167.040859 
L 182.836713 166.933859 
L 182.890274 166.933859 
L 184.315328 166.82686 
L 184.328049 166.719861 
L 184.41542 166.719861 
L 185.13347 166.612861 
L 185.157907 166.505862 
L 185.242935 166.505862 
L 185.430063 166.398862 
L 185.432741 166.291863 
L 185.529486 166.291863 
L 185.79026 166.184864 
L 185.791265 166.077864 
L 185.895373 166.077864 
L 185.949269 165.970865 
L 185.954625 165.756866 
L 186.049026 165.756866 
L 186.53643 165.649867 
L 186.53643 165.542868 
L 186.624471 165.542868 
L 186.858465 165.435868 
L 186.873194 165.11487 
L 186.95387 165.11487 
L 187.170792 165.007871 
L 187.273896 164.793872 
L 187.691671 164.686873 
L 187.698701 164.579873 
L 187.80214 164.579873 
L 188.414073 164.472874 
L 188.414073 164.258875 
L 188.514835 164.258875 
L 189.283768 164.151876 
L 189.283768 164.044877 
L 189.383525 164.044877 
L 189.480939 163.937877 
L 189.480939 163.830878 
L 189.587726 163.830878 
L 189.924155 163.723879 
L 189.96533 163.50988 
L 190.026255 163.50988 
L 190.090528 163.40288 
L 190.100236 163.295881 
L 190.183256 163.295881 
L 190.634506 163.188882 
L 190.711835 162.974883 
L 190.734598 162.974883 
L 191.612661 162.867884 
L 191.612661 162.760884 
L 191.719114 162.760884 
L 192.587134 162.653885 
L 192.680866 162.332887 
L 192.923229 162.225888 
L 193.001227 162.011889 
L 193.012609 162.011889 
L 193.16057 161.904889 
L 193.189025 161.79789 
L 193.238234 161.79789 
L 193.990429 161.690891 
L 194.007167 161.583891 
L 194.088512 161.583891 
L 194.288361 161.476892 
L 194.35866 161.262893 
L 194.398161 161.262893 
L 194.760032 161.155894 
L 194.760032 161.048895 
L 194.856441 161.048895 
L 196.19245 160.941895 
L 196.19245 160.834896 
L 196.270114 160.834896 
L 196.720694 160.727897 
L 196.720694 160.620897 
L 196.820786 160.620897 
L 197.047081 160.513898 
L 197.047081 160.406898 
L 197.15052 160.406898 
L 197.364429 160.299899 
L 197.364429 160.1929 
L 197.466195 160.1929 
L 197.698515 160.0859 
L 197.698515 159.978901 
L 197.792581 159.978901 
L 198.072772 159.871902 
L 198.072772 159.764902 
L 198.181902 159.764902 
L 198.610724 159.657903 
L 198.679014 159.443904 
L 198.720189 159.443904 
L 199.924973 159.336905 
L 199.924973 159.229906 
L 200.029417 159.229906 
L 200.539584 159.122906 
L 200.539584 159.015907 
L 200.647376 159.015907 
L 201.923128 158.908907 
L 201.923128 158.801908 
L 202.009161 158.801908 
L 202.334208 158.694909 
L 202.334208 158.587909 
L 202.439991 158.587909 
L 203.311694 158.48091 
L 203.342491 158.266911 
L 203.418816 158.266911 
L 203.667874 158.159912 
L 203.684277 158.052913 
L 203.765622 158.052913 
L 203.859689 157.945913 
L 203.870736 157.838914 
L 203.964132 157.838914 
L 204.555645 157.731915 
L 204.56301 157.517916 
L 204.666114 157.517916 
L 205.032337 157.410916 
L 205.032337 157.303917 
L 205.141802 157.303917 
L 205.63724 157.196918 
L 205.63724 157.089918 
L 205.745366 157.089918 
L 205.77382 156.982919 
L 205.77382 156.87592 
L 205.874581 156.87592 
L 206.029238 156.76892 
L 206.029238 156.661921 
L 206.137364 156.661921 
L 206.237456 156.554922 
L 206.289343 156.340923 
L 206.347926 156.340923 
L 207.20423 156.233923 
L 207.20423 156.126924 
L 207.303318 156.126924 
L 207.740843 156.019925 
L 207.740843 155.912925 
L 207.851647 155.912925 
L 208.209166 155.805926 
L 208.209166 155.698927 
L 208.3193 155.698927 
L 208.582753 155.591927 
L 208.608864 155.484928 
L 208.693557 155.484928 
L 208.921191 155.377929 
L 208.938263 155.270929 
L 209.03166 155.270929 
L 209.314863 155.16393 
L 209.355368 154.949931 
L 209.425667 154.949931 
L 210.17485 154.842932 
L 210.270255 154.628933 
L 210.283645 154.628933 
L 210.589946 154.521934 
L 210.590951 154.414934 
L 210.690373 154.414934 
L 211.443907 154.307935 
L 211.450268 154.200936 
L 211.551699 154.200936 
L 211.938006 154.093936 
L 211.983198 153.772938 
L 212.044793 153.772938 
L 213.947209 153.665939 
L 213.967963 153.55894 
L 214.048305 153.55894 
L 214.331843 153.45194 
L 214.334855 153.344941 
L 214.439969 153.344941 
L 215.604248 153.237941 
L 215.604917 153.130942 
L 215.714717 153.130942 
L 216.169315 153.023943 
L 216.174002 152.916943 
L 216.280119 152.916943 
L 216.816063 152.809944 
L 216.821753 152.702945 
L 216.926532 152.702945 
L 217.333929 152.595945 
L 217.43536 152.274947 
L 218.227391 152.167948 
L 218.233082 152.060949 
L 218.334848 152.060949 
L 219.613614 151.953949 
L 219.632025 151.84695 
L 219.722409 151.84695 
L 219.998582 151.73995 
L 220.00126 151.632951 
L 220.106708 151.632951 
L 220.410332 151.525952 
L 220.459541 151.311953 
L 220.491008 151.311953 
L 220.925185 151.204954 
L 220.996154 150.990955 
L 221.032307 150.990955 
L 221.245881 150.883956 
L 221.263958 150.776956 
L 221.341621 150.776956 
L 222.1919 150.669957 
L 222.251152 150.348959 
L 222.289648 150.348959 
L 222.682986 150.241959 
L 222.68466 150.13496 
L 222.781404 150.13496 
L 223.952379 150.027961 
L 224.004601 149.813962 
L 224.059835 149.813962 
L 224.872287 149.706963 
L 224.872287 149.599963 
L 224.954636 149.599963 
L 225.48355 149.492964 
L 225.507987 149.385965 
L 225.575942 149.385965 
L 227.670507 149.278965 
L 227.679211 149.064967 
L 227.779972 149.064967 
L 228.171636 148.957967 
L 228.270389 148.743968 
L 228.277419 148.743968 
L 230.03522 148.636969 
L 230.041915 148.52997 
L 230.143011 148.52997 
L 230.501869 148.42297 
L 230.575515 148.101972 
L 230.612338 148.101972 
L 231.021409 147.994973 
L 231.035134 147.887974 
L 231.12987 147.887974 
L 232.396584 147.780974 
L 232.400936 147.673975 
L 232.504376 147.673975 
L 232.686482 147.566976 
L 232.6905 147.459976 
L 232.793604 147.459976 
L 234.335488 147.352977 
L 234.342852 147.245977 
L 234.438592 147.245977 
L 234.50387 147.138978 
L 234.524625 147.031979 
L 234.607644 147.031979 
L 235.100739 146.924979 
L 235.102412 146.81798 
L 235.200161 146.81798 
L 235.305274 146.710981 
L 235.312304 146.603981 
L 235.414739 146.603981 
L 235.991858 146.496982 
L 236.071195 146.175984 
L 236.099314 146.175984 
L 237.633498 146.068984 
L 237.659274 145.961985 
L 237.737272 145.961985 
L 238.306357 145.854986 
L 238.327111 145.747986 
L 238.401427 145.747986 
L 239.593491 145.640987 
L 239.598847 145.533988 
L 239.69124 145.533988 
L 240.111358 145.426988 
L 240.17697 145.21299 
L 240.191364 145.21299 
L 240.625207 145.10599 
L 240.625207 144.998991 
L 240.726638 144.998991 
L 242.593569 144.891992 
L 242.593569 144.784992 
L 242.698013 144.784992 
L 244.293457 144.677993 
L 244.293457 144.570993 
L 244.404261 144.570993 
L 245.663946 144.463994 
L 245.751987 144.249995 
L 245.956522 144.142996 
L 245.959535 144.035997 
L 246.059962 144.035997 
L 246.322745 143.928997 
L 246.339482 143.714999 
L 246.430871 143.714999 
L 247.120132 143.607999 
L 247.215537 143.394001 
L 247.222567 143.394001 
L 247.938609 143.287001 
L 247.939279 143.180002 
L 248.046735 143.180002 
L 249.389774 143.073002 
L 249.390443 142.966003 
L 249.493213 142.966003 
L 250.922284 142.859004 
L 250.929984 142.752004 
L 251.028736 142.752004 
L 251.869642 142.645005 
L 251.874663 142.538006 
L 251.980111 142.538006 
L 253.164141 142.431006 
L 253.188244 142.324007 
L 253.26892 142.324007 
L 253.919684 142.217008 
L 253.920689 142.110008 
L 254.029819 142.110008 
L 254.88378 142.003009 
L 254.970147 141.682011 
L 254.991236 141.682011 
L 256.559231 141.575011 
L 256.568269 141.468012 
L 256.667022 141.468012 
L 257.10756 141.361013 
L 257.128985 141.254013 
L 257.214012 141.254013 
L 257.330842 141.147014 
L 257.331846 141.040015 
L 257.439972 141.040015 
L 258.283891 140.933015 
L 258.288577 140.826016 
L 258.393021 140.826016 
L 259.28414 140.719017 
L 259.286483 140.612017 
L 259.387245 140.612017 
L 260.640904 140.505018 
L 260.640904 140.398019 
L 260.746352 140.398019 
L 261.319453 140.291019 
L 261.319453 140.18402 
L 261.429922 140.18402 
L 262.304638 140.07702 
L 262.337109 139.756022 
L 262.415442 139.756022 
L 263.342715 139.649023 
L 263.342715 139.542024 
L 263.447828 139.542024 
L 264.373427 139.435024 
L 264.373427 139.328025 
L 264.481218 139.328025 
L 264.667677 139.221026 
L 264.667677 139.114026 
L 264.775133 139.114026 
L 265.772035 139.007027 
L 265.878822 138.793028 
L 265.879826 138.793028 
L 266.216255 138.686029 
L 266.222281 138.579029 
L 266.327059 138.579029 
L 266.919576 138.47203 
L 266.944348 138.365031 
L 267.00996 138.365031 
L 267.734371 138.258031 
L 267.742405 138.151032 
L 267.840489 138.151032 
L 268.429323 138.044033 
L 268.429323 137.937033 
L 268.513682 137.937033 
L 269.251148 137.830034 
L 269.251148 137.723035 
L 269.343206 137.723035 
L 269.581886 137.616035 
L 269.581886 137.509036 
L 269.692356 137.509036 
L 270.392329 137.402037 
L 270.392329 137.295037 
L 270.491417 137.295037 
L 271.152224 137.188038 
L 271.152224 137.081038 
L 271.261354 137.081038 
L 271.416346 136.974039 
L 271.416346 136.86704 
L 271.514095 136.86704 
L 273.009112 136.76004 
L 273.061669 136.546042 
L 273.112217 136.546042 
L 274.140586 136.439042 
L 274.140586 136.332043 
L 274.248712 136.332043 
L 276.922403 136.225044 
L 276.922403 136.118044 
L 277.032873 136.118044 
L 280.071448 136.011045 
L 280.071448 135.904046 
L 280.178904 135.904046 
L 281.26619 135.797046 
L 281.26619 135.690047 
L 281.358917 135.690047 
L 282.645717 135.583047 
L 282.645717 135.476048 
L 282.753843 135.476048 
L 283.588053 135.369049 
L 283.588053 135.262049 
L 283.695175 135.262049 
L 285.555076 135.15505 
L 285.66588 134.941051 
L 289.150015 134.834052 
L 289.152693 134.727053 
L 289.259815 134.727053 
L 289.949411 134.620053 
L 289.951419 134.513054 
L 290.05988 134.513054 
L 290.671813 134.406054 
L 290.67516 134.299055 
L 290.779939 134.299055 
L 291.860864 134.192056 
L 291.903713 133.978057 
L 291.968655 133.978057 
L 293.027822 133.871058 
L 293.083056 133.657059 
L 293.138626 133.657059 
L 294.155278 133.55006 
L 294.180719 133.44306 
L 294.24064 133.44306 
L 296.872153 133.336061 
L 296.884874 133.229062 
L 296.97827 133.229062 
L 299.83976 133.122062 
L 299.842773 133.015063 
L 299.948555 133.015063 
L 300.155769 133.015063 
L 300.155769 132.801064 
L 300.239792 132.801064 
L 301.041197 132.694065 
L 301.045214 132.587065 
L 301.142628 132.587065 
L 303.021945 132.480066 
L 303.024958 132.373067 
L 303.111994 132.373067 
L 305.370254 132.266067 
L 305.370924 132.159068 
L 305.481058 132.159068 
L 305.955407 132.052069 
L 305.977166 131.945069 
L 306.064872 131.945069 
L 307.005869 131.83807 
L 307.010221 131.731071 
L 307.108304 131.731071 
L 308.644497 131.624071 
L 308.653535 131.517072 
L 308.747602 131.517072 
L 310.230903 131.410072 
L 310.230903 131.303073 
L 310.319613 131.303073 
L 312.26086 131.196074 
L 312.26086 131.089074 
L 312.361286 131.089074 
L 313.445559 130.982075 
L 313.445559 130.875076 
L 313.554355 130.875076 
L 314.154906 130.768076 
L 314.194407 130.554078 
L 314.265375 130.554078 
L 316.335168 130.447078 
L 316.371656 130.340079 
L 316.437268 130.340079 
L 316.836966 130.23308 
L 316.846005 130.12608 
L 316.946766 130.12608 
L 318.675778 130.019081 
L 318.676782 129.912081 
L 318.76884 129.912081 
L 319.080832 129.805082 
L 319.082841 129.698083 
L 319.180924 129.698083 
L 320.088111 129.698083 
L 320.088111 129.377085 
L 320.193224 129.377085 
L 321.507809 129.270085 
L 321.507809 129.163086 
L 321.608905 129.163086 
L 322.868924 129.056087 
L 322.900726 128.949087 
L 322.979394 128.949087 
L 323.760043 128.842088 
L 323.760043 128.735089 
L 323.856453 128.735089 
L 324.313394 128.628089 
L 324.321093 128.52109 
L 324.423863 128.52109 
L 324.970854 128.41409 
L 324.970854 128.307091 
L 325.068602 128.307091 
L 325.347454 128.200092 
L 325.347454 128.093092 
L 325.457588 128.093092 
L 328.172455 127.986093 
L 328.172455 127.879094 
L 328.282924 127.879094 
L 329.622615 127.772094 
L 329.622615 127.665095 
L 329.72572 127.665095 
L 330.209441 127.558096 
L 330.209441 127.451096 
L 330.311542 127.451096 
L 330.959628 127.344097 
L 330.959628 127.237098 
L 331.061729 127.237098 
L 332.25714 127.130098 
L 332.25714 127.023099 
L 332.354219 127.023099 
L 334.185666 126.916099 
L 334.190688 126.702101 
L 334.293123 126.702101 
L 335.278643 126.595101 
L 335.278643 126.488102 
L 335.382082 126.488102 
L 335.873168 126.381103 
L 335.968239 126.167104 
L 335.983972 126.167104 
L 337.546611 126.060105 
L 337.546611 125.953105 
L 337.652728 125.953105 
L 337.905803 125.846106 
L 337.908481 125.739107 
L 338.014264 125.739107 
L 338.975682 125.632107 
L 338.975682 125.525108 
L 339.081799 125.525108 
L 341.416718 125.418108 
L 341.418727 125.311109 
L 341.501077 125.311109 
L 342.415963 125.20411 
L 342.424332 124.990111 
L 342.526098 124.990111 
L 345.010652 124.883112 
L 345.029399 124.776112 
L 345.107732 124.776112 
L 346.765775 124.669113 
L 346.7795 124.562114 
L 346.86252 124.562114 
L 347.984285 124.455114 
L 347.994328 124.348115 
L 348.08672 124.348115 
L 348.905532 124.241115 
L 348.908545 124.134116 
L 349.016336 124.134116 
L 349.344061 124.027117 
L 349.349083 123.920117 
L 349.444823 123.920117 
L 350.00989 123.813118 
L 350.105295 123.599119 
L 350.1063 123.599119 
L 350.298449 123.49212 
L 350.298449 123.385121 
L 350.401219 123.385121 
L 350.918416 123.278121 
L 350.972647 123.064123 
L 351.021856 123.064123 
L 352.142617 122.957123 
L 352.143621 122.850124 
L 352.253086 122.850124 
L 352.798068 122.743124 
L 352.805767 122.636125 
L 352.903181 122.636125 
L 353.721658 122.529126 
L 353.724336 122.422126 
L 353.791622 122.422126 
L 354.633197 122.315127 
L 354.633197 122.208128 
L 354.739649 122.208128 
L 355.560804 122.101128 
L 355.5675 121.994129 
L 355.657549 121.994129 
L 356.151983 121.88713 
L 356.16872 121.673131 
L 356.262787 121.673131 
L 356.861999 121.566132 
L 356.875054 121.459132 
L 356.971464 121.459132 
L 357.856557 121.352133 
L 357.953971 121.138134 
L 357.959662 121.138134 
L 359.051969 121.031135 
L 359.128628 120.710137 
L 359.160095 120.710137 
L 359.911286 120.603137 
L 359.961165 120.389139 
L 360.009035 120.389139 
L 360.526566 120.282139 
L 360.527236 120.17514 
L 360.633688 120.17514 
L 361.823744 120.068141 
L 361.827426 119.961141 
L 361.923836 119.961141 
L 362.620462 119.854142 
L 362.621131 119.747142 
L 362.726914 119.747142 
L 362.797547 119.640143 
L 362.798886 119.533144 
L 362.905673 119.533144 
L 363.579536 119.426144 
L 363.605647 119.319145 
L 363.684314 119.319145 
L 363.833615 119.212146 
L 363.869434 119.105146 
L 363.941407 119.105146 
L 364.770261 118.998147 
L 364.798046 118.784148 
L 364.865331 118.784148 
L 365.536181 118.677149 
L 365.563966 118.46315 
L 365.645646 118.46315 
L 366.152466 118.356151 
L 366.182929 118.249151 
L 366.260257 118.249151 
L 366.685062 118.142152 
L 366.728245 118.035153 
L 366.771094 118.035153 
L 368.847917 117.928153 
L 368.852269 117.821154 
L 368.958721 117.821154 
L 369.664385 117.714155 
L 369.667398 117.607155 
L 369.771842 117.607155 
L 370.385114 117.500156 
L 370.390805 117.393157 
L 370.474828 117.393157 
L 370.584963 117.286157 
L 370.595675 117.179158 
L 370.685055 117.179158 
L 371.432898 117.072159 
L 371.43658 116.965159 
L 371.531651 116.965159 
L 371.932688 116.85816 
L 371.942396 116.75116 
L 372.040145 116.75116 
L 373.214132 116.644161 
L 373.219488 116.537162 
L 373.324266 116.537162 
L 374.23614 116.430162 
L 374.254886 116.216164 
L 374.33255 116.216164 
L 374.576921 116.109164 
L 374.580938 116.002165 
L 374.658267 116.002165 
L 375.374643 115.895166 
L 375.416822 115.681167 
L 375.484443 115.681167 
L 375.723458 115.574168 
L 375.737518 115.467168 
L 375.82355 115.467168 
L 376.260741 115.360169 
L 376.272792 115.253169 
L 376.347108 115.253169 
L 376.404016 115.14617 
L 376.419415 115.039171 
L 376.510134 115.039171 
L 377.420334 114.932171 
L 377.442428 114.825172 
L 377.531138 114.825172 
L 378.363674 114.718173 
L 378.3697 114.611173 
L 378.466444 114.611173 
L 379.874091 114.504174 
L 379.897524 114.397175 
L 379.976526 114.397175 
L 380.979788 114.290175 
L 381.047743 114.076176 
L 381.088918 114.076176 
L 381.722276 113.969177 
L 381.75073 113.862178 
L 381.832745 113.862178 
L 383.505518 113.755178 
L 383.582512 113.54118 
L 383.609292 113.54118 
L 384.053847 113.43418 
L 384.055521 113.327181 
L 384.162308 113.327181 
L 384.907139 113.220182 
L 384.910821 113.113182 
L 384.998527 113.113182 
L 386.637155 113.006183 
L 386.637155 112.792184 
L 386.741933 112.792184 
L 386.837339 112.685185 
L 386.846042 112.578185 
L 386.938769 112.578185 
L 387.448937 112.471186 
L 387.471365 112.364187 
L 387.558737 112.364187 
L 388.872986 112.257187 
L 388.952993 112.043189 
L 388.974752 112.043189 
L 389.332606 111.936189 
L 389.37445 111.82919 
L 389.44341 111.82919 
L 390.198618 111.722191 
L 390.205313 111.508192 
L 390.304735 111.508192 
L 390.563166 111.401193 
L 390.563501 111.294193 
L 390.661585 111.294193 
L 391.531279 111.187194 
L 391.531614 111.080194 
L 391.637731 111.080194 
L 391.841263 110.973195 
L 391.920934 110.759196 
L 391.941355 110.759196 
L 392.224892 110.652197 
L 392.238952 110.438198 
L 392.326993 110.438198 
L 392.668778 110.331199 
L 392.669782 110.2242 
L 392.762175 110.2242 
L 393.403566 110.1172 
L 393.410261 110.010201 
L 393.51437 110.010201 
L 394.147393 109.903202 
L 394.152079 109.796202 
L 394.252841 109.796202 
L 394.838328 109.689203 
L 394.854731 109.475204 
L 394.947458 109.475204 
L 395.516877 109.368205 
L 395.517212 109.261205 
L 395.625338 109.261205 
L 395.766605 109.154206 
L 395.789703 108.940207 
L 395.863684 108.940207 
L 396.251331 108.833208 
L 396.297192 108.619209 
L 396.325312 108.619209 
L 396.384898 108.51221 
L 396.384898 108.405211 
L 396.445489 108.405211 
L 396.672788 108.298211 
L 396.672788 108.191212 
L 396.783257 108.191212 
L 397.345981 108.084212 
L 397.441386 107.763214 
L 397.862843 107.656215 
L 397.862843 107.549216 
L 397.959253 107.549216 
L 399.014737 107.442216 
L 399.014737 107.335217 
L 399.110477 107.335217 
L 399.794047 107.228218 
L 399.794047 107.121218 
L 399.902173 107.121218 
L 400.056496 107.014219 
L 400.056496 106.90722 
L 400.1596 106.90722 
L 400.724333 106.80022 
L 400.724333 106.693221 
L 400.818064 106.693221 
L 402.340197 106.586221 
L 402.375012 106.372223 
L 402.448323 106.372223 
L 403.518536 106.265223 
L 403.555024 106.158224 
L 403.62231 106.158224 
L 404.047784 106.051225 
L 404.0672 105.837226 
L 404.141516 105.837226 
L 405.11465 105.730227 
L 405.205703 105.516228 
L 405.212733 105.516228 
L 405.653271 105.409229 
L 405.66164 105.302229 
L 405.763741 105.302229 
L 406.800144 105.19523 
L 406.810521 105.08823 
L 406.90124 105.08823 
L 408.056146 104.981231 
L 408.056815 104.874232 
L 408.154564 104.874232 
L 408.383202 104.767232 
L 408.384876 104.660233 
L 408.483294 104.660233 
L 408.763819 104.553234 
L 408.779218 104.446234 
L 408.862906 104.446234 
L 408.934879 104.339235 
L 408.994465 104.232236 
L 409.027606 104.232236 
L 409.178246 104.125236 
L 409.221095 104.018237 
L 409.270973 104.018237 
L 410.690002 103.911238 
L 410.771682 103.697239 
L 410.784068 103.697239 
L 411.093047 103.590239 
L 411.096395 103.48324 
L 411.195148 103.48324 
L 414.123588 103.376241 
L 414.136978 103.269241 
L 414.21732 103.269241 
L 414.324106 103.162242 
L 414.342183 103.055243 
L 414.431898 103.055243 
L 415.076302 102.948243 
L 415.127854 102.734245 
L 415.134884 102.734245 
L 416.083246 102.627245 
L 416.083246 102.520246 
L 416.188694 102.520246 
L 416.571654 102.413246 
L 416.576341 102.306247 
L 416.671412 102.306247 
L 417.773092 102.199248 
L 417.773092 102.092248 
L 417.862806 102.092248 
L 418.174129 101.985249 
L 418.264178 101.77125 
L 418.283259 101.77125 
L 419.5483 101.664251 
L 419.553656 101.557252 
L 419.650735 101.557252 
L 420.029343 101.450252 
L 420.038382 101.343253 
L 420.138473 101.343253 
L 420.958959 101.236254 
L 420.961972 101.129254 
L 421.06675 101.129254 
L 421.420922 101.022255 
L 421.430295 100.915255 
L 421.506954 100.915255 
L 422.05227 100.808256 
L 422.080724 100.701257 
L 422.162405 100.701257 
L 423.489041 100.594257 
L 423.500087 100.487258 
L 423.596162 100.487258 
L 423.9895 100.380259 
L 423.989835 100.273259 
L 424.090261 100.273259 
L 424.534816 100.16626 
L 424.544859 99.952261 
L 424.633904 99.952261 
L 425.236129 99.845262 
L 425.257553 99.738263 
L 425.262575 99.738263 
L 427.120802 99.631263 
L 427.120802 99.524264 
L 427.227924 99.524264 
L 427.861616 99.417264 
L 427.971081 99.203266 
L 429.350943 99.096266 
L 429.388435 98.775268 
L 429.461412 98.775268 
L 430.242731 98.668269 
L 430.246748 98.56127 
L 430.349183 98.56127 
L 431.260388 98.45427 
L 431.273108 98.347271 
L 431.369853 98.347271 
L 431.490365 98.240272 
L 431.596147 98.026273 
L 431.957683 97.919273 
L 431.957683 97.812274 
L 432.039029 97.812274 
L 432.891986 97.705275 
L 432.953246 97.491276 
L 433.000781 97.491276 
L 433.965881 97.384277 
L 433.96789 97.277277 
L 434.064969 97.277277 
L 434.1664 97.170278 
L 434.207574 96.956279 
L 434.260466 96.956279 
L 435.096015 96.84928 
L 435.147233 96.635281 
L 435.188408 96.635281 
L 435.936586 96.528282 
L 435.947968 96.421282 
L 436.044043 96.421282 
L 436.195687 96.314283 
L 436.248244 96.207284 
L 436.275359 96.207284 
L 437.432608 96.100284 
L 437.442651 95.993285 
L 437.523996 95.993285 
L 437.814899 95.886286 
L 437.898253 95.672287 
L 439.924528 95.565288 
L 439.998509 95.458288 
L 440.025959 95.458288 
L 440.924107 95.351289 
L 440.924107 95.24429 
L 441.034911 95.24429 
L 441.27627 95.13729 
L 441.299368 95.030291 
L 441.383057 95.030291 
L 441.407829 94.923291 
L 441.507586 94.709293 
L 441.797149 94.602293 
L 441.825938 94.281295 
L 441.896237 94.281295 
L 442.304973 94.174296 
L 442.304973 94.067297 
L 442.395023 94.067297 
L 442.682912 93.960297 
L 442.691616 93.746299 
L 442.779991 93.746299 
L 443.122781 93.639299 
L 443.139853 93.5323 
L 443.223877 93.5323 
L 443.994484 93.4253 
L 444.001179 93.318301 
L 444.099263 93.318301 
L 445.076079 93.211302 
L 445.104198 93.104302 
L 445.179518 93.104302 
L 446.167716 92.997303 
L 446.255087 92.783304 
L 446.268478 92.783304 
L 446.554694 92.676305 
L 446.589173 92.462306 
L 446.653446 92.462306 
L 447.36681 92.355307 
L 447.373171 92.248307 
L 447.472593 92.248307 
L 447.555947 92.141308 
L 447.55896 92.034309 
L 447.659386 92.034309 
L 447.926856 91.927309 
L 447.938238 91.82031 
L 448.026278 91.82031 
L 448.185957 91.713311 
L 448.192317 91.606311 
L 448.295087 91.606311 
L 448.53109 91.499312 
L 448.533098 91.392313 
L 448.641559 91.392313 
L 449.791779 91.285313 
L 449.83831 91.178314 
L 449.869777 91.178314 
L 450.254745 91.071315 
L 450.261106 90.964315 
L 450.36421 90.964315 
L 450.681893 90.857316 
L 450.732107 90.643317 
L 450.792362 90.643317 
L 451.778552 90.536318 
L 451.793616 90.322319 
L 451.859563 90.322319 
L 452.227459 90.21532 
L 452.229133 90.10832 
L 452.331568 90.10832 
L 453.023173 90.001321 
L 453.130964 89.680323 
L 454.472998 89.573324 
L 454.473668 89.466324 
L 454.583133 89.466324 
L 455.211804 89.359325 
L 455.229546 89.145326 
L 455.304531 89.145326 
L 455.578696 89.038327 
L 455.578696 88.931327 
L 455.67477 88.931327 
L 456.251219 88.824328 
L 456.251219 88.717329 
L 456.3252 88.717329 
L 456.930103 88.610329 
L 456.930103 88.50333 
L 457.040907 88.50333 
L 457.795446 88.396331 
L 457.877126 88.075333 
L 457.89922 88.075333 
L 457.95479 87.968333 
L 458.018058 87.754334 
L 458.065259 87.754334 
L 458.290549 87.647335 
L 458.38495 87.433336 
L 458.657106 87.326337 
L 458.660454 87.219338 
L 458.75452 87.219338 
L 458.853273 87.112338 
L 458.886749 86.89834 
L 458.936292 86.89834 
L 459.11706 86.79134 
L 459.121077 86.684341 
L 459.218491 86.684341 
L 459.376831 86.577342 
L 459.441773 86.256343 
L 459.476588 86.256343 
L 459.851179 86.149344 
L 459.852183 86.042345 
L 459.948258 86.042345 
L 461.059646 85.935345 
L 461.123584 85.721347 
L 461.146348 85.721347 
L 461.843309 85.614347 
L 461.920972 85.400349 
L 461.951435 85.400349 
L 462.857618 85.293349 
L 462.965409 85.079351 
L 463.424358 84.972351 
L 463.438753 84.865352 
L 463.520098 84.865352 
L 464.329537 84.758352 
L 464.357322 84.651353 
L 464.416574 84.651353 
L 464.501936 84.544354 
L 464.55148 84.437354 
L 464.611066 84.437354 
L 465.247102 84.330355 
L 465.26384 84.223356 
L 465.343846 84.223356 
L 465.83761 84.116356 
L 465.850666 84.009357 
L 465.94038 84.009357 
L 466.427784 83.902358 
L 466.438831 83.795358 
L 466.512812 83.795358 
L 467.636251 83.688359 
L 467.690482 83.47436 
L 467.74672 83.47436 
L 468.545112 83.367361 
L 468.645204 83.046363 
L 469.12357 82.939363 
L 469.225335 82.618365 
L 470.063563 82.511366 
L 470.063563 82.404367 
L 470.173697 82.404367 
L 470.314295 82.404367 
L 470.315968 82.190368 
L 470.413047 82.190368 
L 471.369109 82.083368 
L 471.369109 81.976369 
L 471.472214 81.976369 
L 473.244074 81.86937 
L 473.254117 81.76237 
L 473.337471 81.76237 
L 474.183063 81.655371 
L 474.183063 81.548372 
L 474.277129 81.548372 
L 474.594812 81.441372 
L 474.599499 81.334373 
L 474.694235 81.334373 
L 476.689042 81.227374 
L 476.689042 81.120374 
L 476.796164 81.120374 
L 478.2249 81.013375 
L 478.236282 80.906376 
L 478.321644 80.906376 
L 478.647027 80.799376 
L 478.653052 80.478378 
L 478.757831 80.478378 
L 479.3547 80.371379 
L 479.3547 80.264379 
L 479.460817 80.264379 
L 479.811976 80.15738 
L 479.837417 80.050381 
L 479.917089 80.050381 
L 480.14171 79.943381 
L 480.14171 79.836382 
L 480.203639 79.836382 
L 480.55848 79.729383 
L 480.610032 79.622383 
L 480.654555 79.622383 
L 481.190498 79.515384 
L 481.190498 79.408385 
L 481.223304 79.408385 
L 482.661414 79.301385 
L 482.6738 79.194386 
L 482.762175 79.194386 
L 483.443737 79.087386 
L 483.473196 78.766388 
L 483.552867 78.766388 
L 484.885194 78.659389 
L 484.885194 78.55239 
L 484.968548 78.55239 
L 486.051817 78.44539 
L 486.055499 78.338391 
L 486.159273 78.338391 
L 486.838157 78.231392 
L 486.838157 78.124392 
L 486.920507 78.124392 
L 487.109644 78.017393 
L 487.199693 77.696395 
L 487.202036 77.696395 
L 487.842423 77.589395 
L 487.8605 77.482396 
L 487.922765 77.482396 
L 488.237435 77.375397 
L 488.338196 77.054399 
L 489.004694 76.947399 
L 489.004694 76.8404 
L 489.114829 76.8404 
L 489.961425 76.733401 
L 489.973142 76.519402 
L 490.05817 76.519402 
L 491.169892 76.412403 
L 491.170562 76.305403 
L 491.280362 76.305403 
L 492.528665 76.198404 
L 492.632104 75.984405 
L 493.326052 75.877406 
L 493.333082 75.770406 
L 493.413758 75.770406 
L 493.595865 75.663407 
L 493.639718 75.556408 
L 493.69897 75.556408 
L 494.002593 75.449408 
L 494.010627 75.342409 
L 494.085947 75.342409 
L 494.346387 75.23541 
L 494.361116 75.12841 
L 494.443466 75.12841 
L 495.190974 75.021411 
L 495.219763 74.807412 
L 495.300774 74.807412 
L 497.013383 74.700413 
L 497.047193 74.593413 
L 497.122848 74.593413 
L 497.433166 74.486414 
L 497.433166 74.379415 
L 497.526563 74.379415 
L 498.087948 74.272415 
L 498.110377 74.165416 
L 498.193396 74.165416 
L 498.497689 74.058417 
L 498.497689 73.951417 
L 498.598115 73.951417 
L 498.719631 73.844418 
L 498.735365 73.737419 
L 498.815371 73.737419 
L 500.659874 73.630419 
L 500.659874 73.52342 
L 500.766661 73.52342 
L 501.758876 73.416421 
L 501.809424 73.202422 
L 501.852273 73.202422 
L 502.088945 73.095422 
L 502.104678 72.988423 
L 502.17029 72.988423 
L 502.516427 72.881424 
L 502.524796 72.774424 
L 502.625223 72.774424 
L 503.236486 72.667425 
L 503.257911 72.560426 
L 503.321179 72.560426 
L 503.534419 72.453426 
L 503.578941 72.239428 
L 503.623129 72.239428 
L 504.081074 72.132428 
L 504.088774 72.025429 
L 504.190874 72.025429 
L 504.581534 71.91843 
L 504.581534 71.81143 
L 504.625721 71.81143 
L 504.952443 71.704431 
L 505.053539 71.490432 
L 506.815357 71.383433 
L 506.895698 71.276433 
L 506.904067 71.276433 
L 508.260161 71.169434 
L 508.266856 71.062435 
L 508.349541 71.062435 
L 508.799787 70.955435 
L 508.850335 70.848436 
L 508.894523 70.848436 
L 510.684125 70.741437 
L 510.690485 70.634437 
L 510.691155 70.634437 
L 511.799865 70.527438 
L 511.813925 70.420438 
L 511.876524 70.420438 
L 512.995946 70.313439 
L 513.102398 70.09944 
L 513.163993 69.992441 
L 513.178053 69.778442 
L 513.266763 69.778442 
L 513.698598 69.671443 
L 513.698598 69.564444 
L 513.792664 69.564444 
L 514.61884 69.457444 
L 514.637587 69.243446 
L 514.711233 69.243446 
L 515.716503 69.136446 
L 515.716503 69.029447 
L 515.81626 69.029447 
L 517.80203 68.922447 
L 517.829145 68.708449 
L 517.891409 68.708449 
L 519.296713 68.601449 
L 519.303742 68.387451 
L 519.405843 68.387451 
L 521.089997 68.280451 
L 521.089997 68.173452 
L 521.139206 68.173452 
L 522.477559 68.066453 
L 522.511704 67.852454 
L 522.572629 67.852454 
L 524.421818 67.745455 
L 524.421818 67.745455 
" style="fill:none;stroke:#ff0000;stroke-width:4;"/>
   </g>
   <g id="patch_3">
    <path d="M 46.08 401.76 
L 46.08 51.84 
" style="fill:none;stroke:#f0f0f0;stroke-linecap:square;stroke-linejoin:miter;stroke-width:3;"/>
   </g>
   <g id="patch_4">
    <path d="M 547.2 401.76 
L 547.2 51.84 
" style="fill:none;stroke:#f0f0f0;stroke-linecap:square;stroke-linejoin:miter;stroke-width:3;"/>
   </g>
   <g id="patch_5">
    <path d="M 46.08 401.76 
L 547.2 401.76 
" style="fill:none;stroke:#f0f0f0;stroke-linecap:square;stroke-linejoin:miter;stroke-width:3;"/>
   </g>
   <g id="patch_6">
    <path d="M 46.08 51.84 
L 547.2 51.84 
" style="fill:none;stroke:#f0f0f0;stroke-linecap:square;stroke-linejoin:miter;stroke-width:3;"/>
   </g>
   <g id="text_15">
    <!-- ROC Curves -->
    <g transform="translate(227.8728 45.84)scale(0.2304 -0.2304)">
     <defs>
      <path d="M 39.40625 66.21875 
Q 28.65625 66.21875 22.328125 58.203125 
Q 16.015625 50.203125 16.015625 36.375 
Q 16.015625 22.609375 22.328125 14.59375 
Q 28.65625 6.59375 39.40625 6.59375 
Q 50.140625 6.59375 56.421875 14.59375 
Q 62.703125 22.609375 62.703125 36.375 
Q 62.703125 50.203125 56.421875 58.203125 
Q 50.140625 66.21875 39.40625 66.21875 
z
M 39.40625 74.21875 
Q 54.734375 74.21875 63.90625 63.9375 
Q 73.09375 53.65625 73.09375 36.375 
Q 73.09375 19.140625 63.90625 8.859375 
Q 54.734375 -1.421875 39.40625 -1.421875 
Q 24.03125 -1.421875 14.8125 8.828125 
Q 5.609375 19.09375 5.609375 36.375 
Q 5.609375 53.65625 14.8125 63.9375 
Q 24.03125 74.21875 39.40625 74.21875 
z
" id="DejaVuSans-79"/>
      <path d="M 64.40625 67.28125 
L 64.40625 56.890625 
Q 59.421875 61.53125 53.78125 63.8125 
Q 48.140625 66.109375 41.796875 66.109375 
Q 29.296875 66.109375 22.65625 58.46875 
Q 16.015625 50.828125 16.015625 36.375 
Q 16.015625 21.96875 22.65625 14.328125 
Q 29.296875 6.6875 41.796875 6.6875 
Q 48.140625 6.6875 53.78125 8.984375 
Q 59.421875 11.28125 64.40625 15.921875 
L 64.40625 5.609375 
Q 59.234375 2.09375 53.4375 0.328125 
Q 47.65625 -1.421875 41.21875 -1.421875 
Q 24.65625 -1.421875 15.125 8.703125 
Q 5.609375 18.84375 5.609375 36.375 
Q 5.609375 53.953125 15.125 64.078125 
Q 24.65625 74.21875 41.21875 74.21875 
Q 47.75 74.21875 53.53125 72.484375 
Q 59.328125 70.75 64.40625 67.28125 
z
" id="DejaVuSans-67"/>
     </defs>
     <use xlink:href="#DejaVuSans-82"/>
     <use x="69.482422" xlink:href="#DejaVuSans-79"/>
     <use x="148.193359" xlink:href="#DejaVuSans-67"/>
     <use x="218.017578" xlink:href="#DejaVuSans-32"/>
     <use x="249.804688" xlink:href="#DejaVuSans-67"/>
     <use x="319.628906" xlink:href="#DejaVuSans-117"/>
     <use x="383.007812" xlink:href="#DejaVuSans-114"/>
     <use x="424.121094" xlink:href="#DejaVuSans-118"/>
     <use x="483.300781" xlink:href="#DejaVuSans-101"/>
     <use x="544.824219" xlink:href="#DejaVuSans-115"/>
    </g>
   </g>
   <g id="legend_1">
    <g id="patch_7">
     <path d="M 57.28 111.61 
L 175.4975 111.61 
Q 178.6975 111.61 178.6975 108.41 
L 178.6975 63.04 
Q 178.6975 59.84 175.4975 59.84 
L 57.28 59.84 
Q 54.08 59.84 54.08 63.04 
L 54.08 108.41 
Q 54.08 111.61 57.28 111.61 
z
" style="fill:#f0f0f0;opacity:0.8;stroke:#cccccc;stroke-linejoin:miter;stroke-width:0.5;"/>
    </g>
    <g id="line2d_27">
     <path d="M 60.48 72.7975 
L 92.48 72.7975 
" style="fill:none;stroke:#0000ff;stroke-width:4;"/>
    </g>
    <g id="line2d_28"/>
    <g id="text_16">
     <!-- baseline -->
     <g transform="translate(105.28 78.3975)scale(0.16 -0.16)">
      <defs>
       <path d="M 48.6875 27.296875 
Q 48.6875 37.203125 44.609375 42.84375 
Q 40.53125 48.484375 33.40625 48.484375 
Q 26.265625 48.484375 22.1875 42.84375 
Q 18.109375 37.203125 18.109375 27.296875 
Q 18.109375 17.390625 22.1875 11.75 
Q 26.265625 6.109375 33.40625 6.109375 
Q 40.53125 6.109375 44.609375 11.75 
Q 48.6875 17.390625 48.6875 27.296875 
z
M 18.109375 46.390625 
Q 20.953125 51.265625 25.265625 53.625 
Q 29.59375 56 35.59375 56 
Q 45.5625 56 51.78125 48.09375 
Q 58.015625 40.1875 58.015625 27.296875 
Q 58.015625 14.40625 51.78125 6.484375 
Q 45.5625 -1.421875 35.59375 -1.421875 
Q 29.59375 -1.421875 25.265625 0.953125 
Q 20.953125 3.328125 18.109375 8.203125 
L 18.109375 0 
L 9.078125 0 
L 9.078125 75.984375 
L 18.109375 75.984375 
z
" id="DejaVuSans-98"/>
       <path d="M 54.890625 33.015625 
L 54.890625 0 
L 45.90625 0 
L 45.90625 32.71875 
Q 45.90625 40.484375 42.875 44.328125 
Q 39.84375 48.1875 33.796875 48.1875 
Q 26.515625 48.1875 22.3125 43.546875 
Q 18.109375 38.921875 18.109375 30.90625 
L 18.109375 0 
L 9.078125 0 
L 9.078125 54.6875 
L 18.109375 54.6875 
L 18.109375 46.1875 
Q 21.34375 51.125 25.703125 53.5625 
Q 30.078125 56 35.796875 56 
Q 45.21875 56 50.046875 50.171875 
Q 54.890625 44.34375 54.890625 33.015625 
z
" id="DejaVuSans-110"/>
      </defs>
      <use xlink:href="#DejaVuSans-98"/>
      <use x="63.476562" xlink:href="#DejaVuSans-97"/>
      <use x="124.755859" xlink:href="#DejaVuSans-115"/>
      <use x="176.855469" xlink:href="#DejaVuSans-101"/>
      <use x="238.378906" xlink:href="#DejaVuSans-108"/>
      <use x="266.162109" xlink:href="#DejaVuSans-105"/>
      <use x="293.945312" xlink:href="#DejaVuSans-110"/>
      <use x="357.324219" xlink:href="#DejaVuSans-101"/>
     </g>
    </g>
    <g id="line2d_29">
     <path d="M 60.48 96.2825 
L 92.48 96.2825 
" style="fill:none;stroke:#ff0000;stroke-width:4;"/>
    </g>
    <g id="line2d_30"/>
    <g id="text_17">
     <!-- model -->
     <g transform="translate(105.28 101.8825)scale(0.16 -0.16)">
      <defs>
       <path d="M 52 44.1875 
Q 55.375 50.25 60.0625 53.125 
Q 64.75 56 71.09375 56 
Q 79.640625 56 84.28125 50.015625 
Q 88.921875 44.046875 88.921875 33.015625 
L 88.921875 0 
L 79.890625 0 
L 79.890625 32.71875 
Q 79.890625 40.578125 77.09375 44.375 
Q 74.3125 48.1875 68.609375 48.1875 
Q 61.625 48.1875 57.5625 43.546875 
Q 53.515625 38.921875 53.515625 30.90625 
L 53.515625 0 
L 44.484375 0 
L 44.484375 32.71875 
Q 44.484375 40.625 41.703125 44.40625 
Q 38.921875 48.1875 33.109375 48.1875 
Q 26.21875 48.1875 22.15625 43.53125 
Q 18.109375 38.875 18.109375 30.90625 
L 18.109375 0 
L 9.078125 0 
L 9.078125 54.6875 
L 18.109375 54.6875 
L 18.109375 46.1875 
Q 21.1875 51.21875 25.484375 53.609375 
Q 29.78125 56 35.6875 56 
Q 41.65625 56 45.828125 52.96875 
Q 50 49.953125 52 44.1875 
z
" id="DejaVuSans-109"/>
       <path d="M 45.40625 46.390625 
L 45.40625 75.984375 
L 54.390625 75.984375 
L 54.390625 0 
L 45.40625 0 
L 45.40625 8.203125 
Q 42.578125 3.328125 38.25 0.953125 
Q 33.9375 -1.421875 27.875 -1.421875 
Q 17.96875 -1.421875 11.734375 6.484375 
Q 5.515625 14.40625 5.515625 27.296875 
Q 5.515625 40.1875 11.734375 48.09375 
Q 17.96875 56 27.875 56 
Q 33.9375 56 38.25 53.625 
Q 42.578125 51.265625 45.40625 46.390625 
z
M 14.796875 27.296875 
Q 14.796875 17.390625 18.875 11.75 
Q 22.953125 6.109375 30.078125 6.109375 
Q 37.203125 6.109375 41.296875 11.75 
Q 45.40625 17.390625 45.40625 27.296875 
Q 45.40625 37.203125 41.296875 42.84375 
Q 37.203125 48.484375 30.078125 48.484375 
Q 22.953125 48.484375 18.875 42.84375 
Q 14.796875 37.203125 14.796875 27.296875 
z
" id="DejaVuSans-100"/>
      </defs>
      <use xlink:href="#DejaVuSans-109"/>
      <use x="97.412109" xlink:href="#DejaVuSans-111"/>
      <use x="158.59375" xlink:href="#DejaVuSans-100"/>
      <use x="222.070312" xlink:href="#DejaVuSans-101"/>
      <use x="283.59375" xlink:href="#DejaVuSans-108"/>
     </g>
    </g>
   </g>
  </g>
 </g>
 <defs>
  <clipPath id="p85f9ce43ad">
   <rect height="349.92" width="501.12" x="46.08" y="51.84"/>
  </clipPath>
 </defs>
</svg>
