<?xml version="1.0" encoding="utf-8" standalone="no"?>
<!DOCTYPE svg PUBLIC "-//W3C//DTD SVG 1.1//EN"
  "http://www.w3.org/Graphics/SVG/1.1/DTD/svg11.dtd">
<!-- Created with matplotlib (https://matplotlib.org/) -->
<svg height="432pt" version="1.1" viewBox="0 0 576 432" width="576pt" xmlns="http://www.w3.org/2000/svg" xmlns:xlink="http://www.w3.org/1999/xlink">
 <metadata>
  <rdf:RDF xmlns:cc="http://creativecommons.org/ns#" xmlns:dc="http://purl.org/dc/elements/1.1/" xmlns:rdf="http://www.w3.org/1999/02/22-rdf-syntax-ns#">
   <cc:Work>
    <dc:type rdf:resource="http://purl.org/dc/dcmitype/StillImage"/>
    <dc:date>2020-08-26T21:11:18.529182</dc:date>
    <dc:format>image/svg+xml</dc:format>
    <dc:creator>
     <cc:Agent>
      <dc:title>Matplotlib v3.3.0, https://matplotlib.org/</dc:title>
     </cc:Agent>
    </dc:creator>
   </cc:Work>
  </rdf:RDF>
 </metadata>
 <defs>
  <style type="text/css">*{stroke-linecap:butt;stroke-linejoin:round;}</style>
 </defs>
 <g id="figure_1">
  <g id="patch_1">
   <path d="M 0 432 
L 576 432 
L 576 0 
L 0 0 
z
" style="fill:#f0f0f0;"/>
  </g>
  <g id="axes_1">
   <g id="patch_2">
    <path d="M 46.08 401.76 
L 547.2 401.76 
L 547.2 51.84 
L 46.08 51.84 
z
" style="fill:#f0f0f0;"/>
   </g>
   <g id="matplotlib.axis_1">
    <g id="xtick_1">
     <g id="line2d_1">
      <path clip-path="url(#p609f41654a)" d="M 68.858182 401.76 
L 68.858182 51.84 
" style="fill:none;stroke:#cbcbcb;"/>
     </g>
     <g id="line2d_2"/>
     <g id="text_1">
      <!-- 0.0 -->
      <g transform="translate(56.135682 417.4175)scale(0.16 -0.16)">
       <defs>
        <path d="M 31.78125 66.40625 
Q 24.171875 66.40625 20.328125 58.90625 
Q 16.5 51.421875 16.5 36.375 
Q 16.5 21.390625 20.328125 13.890625 
Q 24.171875 6.390625 31.78125 6.390625 
Q 39.453125 6.390625 43.28125 13.890625 
Q 47.125 21.390625 47.125 36.375 
Q 47.125 51.421875 43.28125 58.90625 
Q 39.453125 66.40625 31.78125 66.40625 
z
M 31.78125 74.21875 
Q 44.046875 74.21875 50.515625 64.515625 
Q 56.984375 54.828125 56.984375 36.375 
Q 56.984375 17.96875 50.515625 8.265625 
Q 44.046875 -1.421875 31.78125 -1.421875 
Q 19.53125 -1.421875 13.0625 8.265625 
Q 6.59375 17.96875 6.59375 36.375 
Q 6.59375 54.828125 13.0625 64.515625 
Q 19.53125 74.21875 31.78125 74.21875 
z
" id="DejaVuSans-48"/>
        <path d="M 10.6875 12.40625 
L 21 12.40625 
L 21 0 
L 10.6875 0 
z
" id="DejaVuSans-46"/>
       </defs>
       <use xlink:href="#DejaVuSans-48"/>
       <use x="63.623047" xlink:href="#DejaVuSans-46"/>
       <use x="95.410156" xlink:href="#DejaVuSans-48"/>
      </g>
     </g>
    </g>
    <g id="xtick_2">
     <g id="line2d_3">
      <path clip-path="url(#p609f41654a)" d="M 159.970909 401.76 
L 159.970909 51.84 
" style="fill:none;stroke:#cbcbcb;"/>
     </g>
     <g id="line2d_4"/>
     <g id="text_2">
      <!-- 0.2 -->
      <g transform="translate(147.248409 417.4175)scale(0.16 -0.16)">
       <defs>
        <path d="M 19.1875 8.296875 
L 53.609375 8.296875 
L 53.609375 0 
L 7.328125 0 
L 7.328125 8.296875 
Q 12.9375 14.109375 22.625 23.890625 
Q 32.328125 33.6875 34.8125 36.53125 
Q 39.546875 41.84375 41.421875 45.53125 
Q 43.3125 49.21875 43.3125 52.78125 
Q 43.3125 58.59375 39.234375 62.25 
Q 35.15625 65.921875 28.609375 65.921875 
Q 23.96875 65.921875 18.8125 64.3125 
Q 13.671875 62.703125 7.8125 59.421875 
L 7.8125 69.390625 
Q 13.765625 71.78125 18.9375 73 
Q 24.125 74.21875 28.421875 74.21875 
Q 39.75 74.21875 46.484375 68.546875 
Q 53.21875 62.890625 53.21875 53.421875 
Q 53.21875 48.921875 51.53125 44.890625 
Q 49.859375 40.875 45.40625 35.40625 
Q 44.1875 33.984375 37.640625 27.21875 
Q 31.109375 20.453125 19.1875 8.296875 
z
" id="DejaVuSans-50"/>
       </defs>
       <use xlink:href="#DejaVuSans-48"/>
       <use x="63.623047" xlink:href="#DejaVuSans-46"/>
       <use x="95.410156" xlink:href="#DejaVuSans-50"/>
      </g>
     </g>
    </g>
    <g id="xtick_3">
     <g id="line2d_5">
      <path clip-path="url(#p609f41654a)" d="M 251.083636 401.76 
L 251.083636 51.84 
" style="fill:none;stroke:#cbcbcb;"/>
     </g>
     <g id="line2d_6"/>
     <g id="text_3">
      <!-- 0.4 -->
      <g transform="translate(238.361136 417.4175)scale(0.16 -0.16)">
       <defs>
        <path d="M 37.796875 64.3125 
L 12.890625 25.390625 
L 37.796875 25.390625 
z
M 35.203125 72.90625 
L 47.609375 72.90625 
L 47.609375 25.390625 
L 58.015625 25.390625 
L 58.015625 17.1875 
L 47.609375 17.1875 
L 47.609375 0 
L 37.796875 0 
L 37.796875 17.1875 
L 4.890625 17.1875 
L 4.890625 26.703125 
z
" id="DejaVuSans-52"/>
       </defs>
       <use xlink:href="#DejaVuSans-48"/>
       <use x="63.623047" xlink:href="#DejaVuSans-46"/>
       <use x="95.410156" xlink:href="#DejaVuSans-52"/>
      </g>
     </g>
    </g>
    <g id="xtick_4">
     <g id="line2d_7">
      <path clip-path="url(#p609f41654a)" d="M 342.196364 401.76 
L 342.196364 51.84 
" style="fill:none;stroke:#cbcbcb;"/>
     </g>
     <g id="line2d_8"/>
     <g id="text_4">
      <!-- 0.6 -->
      <g transform="translate(329.473864 417.4175)scale(0.16 -0.16)">
       <defs>
        <path d="M 33.015625 40.375 
Q 26.375 40.375 22.484375 35.828125 
Q 18.609375 31.296875 18.609375 23.390625 
Q 18.609375 15.53125 22.484375 10.953125 
Q 26.375 6.390625 33.015625 6.390625 
Q 39.65625 6.390625 43.53125 10.953125 
Q 47.40625 15.53125 47.40625 23.390625 
Q 47.40625 31.296875 43.53125 35.828125 
Q 39.65625 40.375 33.015625 40.375 
z
M 52.59375 71.296875 
L 52.59375 62.3125 
Q 48.875 64.0625 45.09375 64.984375 
Q 41.3125 65.921875 37.59375 65.921875 
Q 27.828125 65.921875 22.671875 59.328125 
Q 17.53125 52.734375 16.796875 39.40625 
Q 19.671875 43.65625 24.015625 45.921875 
Q 28.375 48.1875 33.59375 48.1875 
Q 44.578125 48.1875 50.953125 41.515625 
Q 57.328125 34.859375 57.328125 23.390625 
Q 57.328125 12.15625 50.6875 5.359375 
Q 44.046875 -1.421875 33.015625 -1.421875 
Q 20.359375 -1.421875 13.671875 8.265625 
Q 6.984375 17.96875 6.984375 36.375 
Q 6.984375 53.65625 15.1875 63.9375 
Q 23.390625 74.21875 37.203125 74.21875 
Q 40.921875 74.21875 44.703125 73.484375 
Q 48.484375 72.75 52.59375 71.296875 
z
" id="DejaVuSans-54"/>
       </defs>
       <use xlink:href="#DejaVuSans-48"/>
       <use x="63.623047" xlink:href="#DejaVuSans-46"/>
       <use x="95.410156" xlink:href="#DejaVuSans-54"/>
      </g>
     </g>
    </g>
    <g id="xtick_5">
     <g id="line2d_9">
      <path clip-path="url(#p609f41654a)" d="M 433.309091 401.76 
L 433.309091 51.84 
" style="fill:none;stroke:#cbcbcb;"/>
     </g>
     <g id="line2d_10"/>
     <g id="text_5">
      <!-- 0.8 -->
      <g transform="translate(420.586591 417.4175)scale(0.16 -0.16)">
       <defs>
        <path d="M 31.78125 34.625 
Q 24.75 34.625 20.71875 30.859375 
Q 16.703125 27.09375 16.703125 20.515625 
Q 16.703125 13.921875 20.71875 10.15625 
Q 24.75 6.390625 31.78125 6.390625 
Q 38.8125 6.390625 42.859375 10.171875 
Q 46.921875 13.96875 46.921875 20.515625 
Q 46.921875 27.09375 42.890625 30.859375 
Q 38.875 34.625 31.78125 34.625 
z
M 21.921875 38.8125 
Q 15.578125 40.375 12.03125 44.71875 
Q 8.5 49.078125 8.5 55.328125 
Q 8.5 64.0625 14.71875 69.140625 
Q 20.953125 74.21875 31.78125 74.21875 
Q 42.671875 74.21875 48.875 69.140625 
Q 55.078125 64.0625 55.078125 55.328125 
Q 55.078125 49.078125 51.53125 44.71875 
Q 48 40.375 41.703125 38.8125 
Q 48.828125 37.15625 52.796875 32.3125 
Q 56.78125 27.484375 56.78125 20.515625 
Q 56.78125 9.90625 50.3125 4.234375 
Q 43.84375 -1.421875 31.78125 -1.421875 
Q 19.734375 -1.421875 13.25 4.234375 
Q 6.78125 9.90625 6.78125 20.515625 
Q 6.78125 27.484375 10.78125 32.3125 
Q 14.796875 37.15625 21.921875 38.8125 
z
M 18.3125 54.390625 
Q 18.3125 48.734375 21.84375 45.5625 
Q 25.390625 42.390625 31.78125 42.390625 
Q 38.140625 42.390625 41.71875 45.5625 
Q 45.3125 48.734375 45.3125 54.390625 
Q 45.3125 60.0625 41.71875 63.234375 
Q 38.140625 66.40625 31.78125 66.40625 
Q 25.390625 66.40625 21.84375 63.234375 
Q 18.3125 60.0625 18.3125 54.390625 
z
" id="DejaVuSans-56"/>
       </defs>
       <use xlink:href="#DejaVuSans-48"/>
       <use x="63.623047" xlink:href="#DejaVuSans-46"/>
       <use x="95.410156" xlink:href="#DejaVuSans-56"/>
      </g>
     </g>
    </g>
    <g id="xtick_6">
     <g id="line2d_11">
      <path clip-path="url(#p609f41654a)" d="M 524.421818 401.76 
L 524.421818 51.84 
" style="fill:none;stroke:#cbcbcb;"/>
     </g>
     <g id="line2d_12"/>
     <g id="text_6">
      <!-- 1.0 -->
      <g transform="translate(511.699318 417.4175)scale(0.16 -0.16)">
       <defs>
        <path d="M 12.40625 8.296875 
L 28.515625 8.296875 
L 28.515625 63.921875 
L 10.984375 60.40625 
L 10.984375 69.390625 
L 28.421875 72.90625 
L 38.28125 72.90625 
L 38.28125 8.296875 
L 54.390625 8.296875 
L 54.390625 0 
L 12.40625 0 
z
" id="DejaVuSans-49"/>
       </defs>
       <use xlink:href="#DejaVuSans-49"/>
       <use x="63.623047" xlink:href="#DejaVuSans-46"/>
       <use x="95.410156" xlink:href="#DejaVuSans-48"/>
      </g>
     </g>
    </g>
    <g id="text_7">
     <!-- False Positive Rate -->
     <g transform="translate(207.4245 439.334)scale(0.192 -0.192)">
      <defs>
       <path d="M 9.8125 72.90625 
L 51.703125 72.90625 
L 51.703125 64.59375 
L 19.671875 64.59375 
L 19.671875 43.109375 
L 48.578125 43.109375 
L 48.578125 34.8125 
L 19.671875 34.8125 
L 19.671875 0 
L 9.8125 0 
z
" id="DejaVuSans-70"/>
       <path d="M 34.28125 27.484375 
Q 23.390625 27.484375 19.1875 25 
Q 14.984375 22.515625 14.984375 16.5 
Q 14.984375 11.71875 18.140625 8.90625 
Q 21.296875 6.109375 26.703125 6.109375 
Q 34.1875 6.109375 38.703125 11.40625 
Q 43.21875 16.703125 43.21875 25.484375 
L 43.21875 27.484375 
z
M 52.203125 31.203125 
L 52.203125 0 
L 43.21875 0 
L 43.21875 8.296875 
Q 40.140625 3.328125 35.546875 0.953125 
Q 30.953125 -1.421875 24.3125 -1.421875 
Q 15.921875 -1.421875 10.953125 3.296875 
Q 6 8.015625 6 15.921875 
Q 6 25.140625 12.171875 29.828125 
Q 18.359375 34.515625 30.609375 34.515625 
L 43.21875 34.515625 
L 43.21875 35.40625 
Q 43.21875 41.609375 39.140625 45 
Q 35.0625 48.390625 27.6875 48.390625 
Q 23 48.390625 18.546875 47.265625 
Q 14.109375 46.140625 10.015625 43.890625 
L 10.015625 52.203125 
Q 14.9375 54.109375 19.578125 55.046875 
Q 24.21875 56 28.609375 56 
Q 40.484375 56 46.34375 49.84375 
Q 52.203125 43.703125 52.203125 31.203125 
z
" id="DejaVuSans-97"/>
       <path d="M 9.421875 75.984375 
L 18.40625 75.984375 
L 18.40625 0 
L 9.421875 0 
z
" id="DejaVuSans-108"/>
       <path d="M 44.28125 53.078125 
L 44.28125 44.578125 
Q 40.484375 46.53125 36.375 47.5 
Q 32.28125 48.484375 27.875 48.484375 
Q 21.1875 48.484375 17.84375 46.4375 
Q 14.5 44.390625 14.5 40.28125 
Q 14.5 37.15625 16.890625 35.375 
Q 19.28125 33.59375 26.515625 31.984375 
L 29.59375 31.296875 
Q 39.15625 29.25 43.1875 25.515625 
Q 47.21875 21.78125 47.21875 15.09375 
Q 47.21875 7.46875 41.1875 3.015625 
Q 35.15625 -1.421875 24.609375 -1.421875 
Q 20.21875 -1.421875 15.453125 -0.5625 
Q 10.6875 0.296875 5.421875 2 
L 5.421875 11.28125 
Q 10.40625 8.6875 15.234375 7.390625 
Q 20.0625 6.109375 24.8125 6.109375 
Q 31.15625 6.109375 34.5625 8.28125 
Q 37.984375 10.453125 37.984375 14.40625 
Q 37.984375 18.0625 35.515625 20.015625 
Q 33.0625 21.96875 24.703125 23.78125 
L 21.578125 24.515625 
Q 13.234375 26.265625 9.515625 29.90625 
Q 5.8125 33.546875 5.8125 39.890625 
Q 5.8125 47.609375 11.28125 51.796875 
Q 16.75 56 26.8125 56 
Q 31.78125 56 36.171875 55.265625 
Q 40.578125 54.546875 44.28125 53.078125 
z
" id="DejaVuSans-115"/>
       <path d="M 56.203125 29.59375 
L 56.203125 25.203125 
L 14.890625 25.203125 
Q 15.484375 15.921875 20.484375 11.0625 
Q 25.484375 6.203125 34.421875 6.203125 
Q 39.59375 6.203125 44.453125 7.46875 
Q 49.3125 8.734375 54.109375 11.28125 
L 54.109375 2.78125 
Q 49.265625 0.734375 44.1875 -0.34375 
Q 39.109375 -1.421875 33.890625 -1.421875 
Q 20.796875 -1.421875 13.15625 6.1875 
Q 5.515625 13.8125 5.515625 26.8125 
Q 5.515625 40.234375 12.765625 48.109375 
Q 20.015625 56 32.328125 56 
Q 43.359375 56 49.78125 48.890625 
Q 56.203125 41.796875 56.203125 29.59375 
z
M 47.21875 32.234375 
Q 47.125 39.59375 43.09375 43.984375 
Q 39.0625 48.390625 32.421875 48.390625 
Q 24.90625 48.390625 20.390625 44.140625 
Q 15.875 39.890625 15.1875 32.171875 
z
" id="DejaVuSans-101"/>
       <path id="DejaVuSans-32"/>
       <path d="M 19.671875 64.796875 
L 19.671875 37.40625 
L 32.078125 37.40625 
Q 38.96875 37.40625 42.71875 40.96875 
Q 46.484375 44.53125 46.484375 51.125 
Q 46.484375 57.671875 42.71875 61.234375 
Q 38.96875 64.796875 32.078125 64.796875 
z
M 9.8125 72.90625 
L 32.078125 72.90625 
Q 44.34375 72.90625 50.609375 67.359375 
Q 56.890625 61.8125 56.890625 51.125 
Q 56.890625 40.328125 50.609375 34.8125 
Q 44.34375 29.296875 32.078125 29.296875 
L 19.671875 29.296875 
L 19.671875 0 
L 9.8125 0 
z
" id="DejaVuSans-80"/>
       <path d="M 30.609375 48.390625 
Q 23.390625 48.390625 19.1875 42.75 
Q 14.984375 37.109375 14.984375 27.296875 
Q 14.984375 17.484375 19.15625 11.84375 
Q 23.34375 6.203125 30.609375 6.203125 
Q 37.796875 6.203125 41.984375 11.859375 
Q 46.1875 17.53125 46.1875 27.296875 
Q 46.1875 37.015625 41.984375 42.703125 
Q 37.796875 48.390625 30.609375 48.390625 
z
M 30.609375 56 
Q 42.328125 56 49.015625 48.375 
Q 55.71875 40.765625 55.71875 27.296875 
Q 55.71875 13.875 49.015625 6.21875 
Q 42.328125 -1.421875 30.609375 -1.421875 
Q 18.84375 -1.421875 12.171875 6.21875 
Q 5.515625 13.875 5.515625 27.296875 
Q 5.515625 40.765625 12.171875 48.375 
Q 18.84375 56 30.609375 56 
z
" id="DejaVuSans-111"/>
       <path d="M 9.421875 54.6875 
L 18.40625 54.6875 
L 18.40625 0 
L 9.421875 0 
z
M 9.421875 75.984375 
L 18.40625 75.984375 
L 18.40625 64.59375 
L 9.421875 64.59375 
z
" id="DejaVuSans-105"/>
       <path d="M 18.3125 70.21875 
L 18.3125 54.6875 
L 36.8125 54.6875 
L 36.8125 47.703125 
L 18.3125 47.703125 
L 18.3125 18.015625 
Q 18.3125 11.328125 20.140625 9.421875 
Q 21.96875 7.515625 27.59375 7.515625 
L 36.8125 7.515625 
L 36.8125 0 
L 27.59375 0 
Q 17.1875 0 13.234375 3.875 
Q 9.28125 7.765625 9.28125 18.015625 
L 9.28125 47.703125 
L 2.6875 47.703125 
L 2.6875 54.6875 
L 9.28125 54.6875 
L 9.28125 70.21875 
z
" id="DejaVuSans-116"/>
       <path d="M 2.984375 54.6875 
L 12.5 54.6875 
L 29.59375 8.796875 
L 46.6875 54.6875 
L 56.203125 54.6875 
L 35.6875 0 
L 23.484375 0 
z
" id="DejaVuSans-118"/>
       <path d="M 44.390625 34.1875 
Q 47.5625 33.109375 50.5625 29.59375 
Q 53.5625 26.078125 56.59375 19.921875 
L 66.609375 0 
L 56 0 
L 46.6875 18.703125 
Q 43.0625 26.03125 39.671875 28.421875 
Q 36.28125 30.8125 30.421875 30.8125 
L 19.671875 30.8125 
L 19.671875 0 
L 9.8125 0 
L 9.8125 72.90625 
L 32.078125 72.90625 
Q 44.578125 72.90625 50.734375 67.671875 
Q 56.890625 62.453125 56.890625 51.90625 
Q 56.890625 45.015625 53.6875 40.46875 
Q 50.484375 35.9375 44.390625 34.1875 
z
M 19.671875 64.796875 
L 19.671875 38.921875 
L 32.078125 38.921875 
Q 39.203125 38.921875 42.84375 42.21875 
Q 46.484375 45.515625 46.484375 51.90625 
Q 46.484375 58.296875 42.84375 61.546875 
Q 39.203125 64.796875 32.078125 64.796875 
z
" id="DejaVuSans-82"/>
      </defs>
      <use xlink:href="#DejaVuSans-70"/>
      <use x="48.394531" xlink:href="#DejaVuSans-97"/>
      <use x="109.673828" xlink:href="#DejaVuSans-108"/>
      <use x="137.457031" xlink:href="#DejaVuSans-115"/>
      <use x="189.556641" xlink:href="#DejaVuSans-101"/>
      <use x="251.080078" xlink:href="#DejaVuSans-32"/>
      <use x="282.867188" xlink:href="#DejaVuSans-80"/>
      <use x="339.544922" xlink:href="#DejaVuSans-111"/>
      <use x="400.726562" xlink:href="#DejaVuSans-115"/>
      <use x="452.826172" xlink:href="#DejaVuSans-105"/>
      <use x="480.609375" xlink:href="#DejaVuSans-116"/>
      <use x="519.818359" xlink:href="#DejaVuSans-105"/>
      <use x="547.601562" xlink:href="#DejaVuSans-118"/>
      <use x="606.78125" xlink:href="#DejaVuSans-101"/>
      <use x="668.304688" xlink:href="#DejaVuSans-32"/>
      <use x="700.091797" xlink:href="#DejaVuSans-82"/>
      <use x="767.324219" xlink:href="#DejaVuSans-97"/>
      <use x="828.603516" xlink:href="#DejaVuSans-116"/>
      <use x="867.8125" xlink:href="#DejaVuSans-101"/>
     </g>
    </g>
   </g>
   <g id="matplotlib.axis_2">
    <g id="ytick_1">
     <g id="line2d_13">
      <path clip-path="url(#p609f41654a)" d="M 46.08 385.854545 
L 547.2 385.854545 
" style="fill:none;stroke:#cbcbcb;"/>
     </g>
     <g id="line2d_14"/>
     <g id="text_8">
      <!-- 0.0 -->
      <g transform="translate(17.135 391.933295)scale(0.16 -0.16)">
       <use xlink:href="#DejaVuSans-48"/>
       <use x="63.623047" xlink:href="#DejaVuSans-46"/>
       <use x="95.410156" xlink:href="#DejaVuSans-48"/>
      </g>
     </g>
    </g>
    <g id="ytick_2">
     <g id="line2d_15">
      <path clip-path="url(#p609f41654a)" d="M 46.08 322.232727 
L 547.2 322.232727 
" style="fill:none;stroke:#cbcbcb;"/>
     </g>
     <g id="line2d_16"/>
     <g id="text_9">
      <!-- 0.2 -->
      <g transform="translate(17.135 328.311477)scale(0.16 -0.16)">
       <use xlink:href="#DejaVuSans-48"/>
       <use x="63.623047" xlink:href="#DejaVuSans-46"/>
       <use x="95.410156" xlink:href="#DejaVuSans-50"/>
      </g>
     </g>
    </g>
    <g id="ytick_3">
     <g id="line2d_17">
      <path clip-path="url(#p609f41654a)" d="M 46.08 258.610909 
L 547.2 258.610909 
" style="fill:none;stroke:#cbcbcb;"/>
     </g>
     <g id="line2d_18"/>
     <g id="text_10">
      <!-- 0.4 -->
      <g transform="translate(17.135 264.689659)scale(0.16 -0.16)">
       <use xlink:href="#DejaVuSans-48"/>
       <use x="63.623047" xlink:href="#DejaVuSans-46"/>
       <use x="95.410156" xlink:href="#DejaVuSans-52"/>
      </g>
     </g>
    </g>
    <g id="ytick_4">
     <g id="line2d_19">
      <path clip-path="url(#p609f41654a)" d="M 46.08 194.989091 
L 547.2 194.989091 
" style="fill:none;stroke:#cbcbcb;"/>
     </g>
     <g id="line2d_20"/>
     <g id="text_11">
      <!-- 0.6 -->
      <g transform="translate(17.135 201.067841)scale(0.16 -0.16)">
       <use xlink:href="#DejaVuSans-48"/>
       <use x="63.623047" xlink:href="#DejaVuSans-46"/>
       <use x="95.410156" xlink:href="#DejaVuSans-54"/>
      </g>
     </g>
    </g>
    <g id="ytick_5">
     <g id="line2d_21">
      <path clip-path="url(#p609f41654a)" d="M 46.08 131.367273 
L 547.2 131.367273 
" style="fill:none;stroke:#cbcbcb;"/>
     </g>
     <g id="line2d_22"/>
     <g id="text_12">
      <!-- 0.8 -->
      <g transform="translate(17.135 137.446023)scale(0.16 -0.16)">
       <use xlink:href="#DejaVuSans-48"/>
       <use x="63.623047" xlink:href="#DejaVuSans-46"/>
       <use x="95.410156" xlink:href="#DejaVuSans-56"/>
      </g>
     </g>
    </g>
    <g id="ytick_6">
     <g id="line2d_23">
      <path clip-path="url(#p609f41654a)" d="M 46.08 67.745455 
L 547.2 67.745455 
" style="fill:none;stroke:#cbcbcb;"/>
     </g>
     <g id="line2d_24"/>
     <g id="text_13">
      <!-- 1.0 -->
      <g transform="translate(17.135 73.824205)scale(0.16 -0.16)">
       <use xlink:href="#DejaVuSans-49"/>
       <use x="63.623047" xlink:href="#DejaVuSans-46"/>
       <use x="95.410156" xlink:href="#DejaVuSans-48"/>
      </g>
     </g>
    </g>
    <g id="text_14">
     <!-- True Positive Rate -->
     <g transform="translate(9.142 312.297)rotate(-90)scale(0.192 -0.192)">
      <defs>
       <path d="M -0.296875 72.90625 
L 61.375 72.90625 
L 61.375 64.59375 
L 35.5 64.59375 
L 35.5 0 
L 25.59375 0 
L 25.59375 64.59375 
L -0.296875 64.59375 
z
" id="DejaVuSans-84"/>
       <path d="M 41.109375 46.296875 
Q 39.59375 47.171875 37.8125 47.578125 
Q 36.03125 48 33.890625 48 
Q 26.265625 48 22.1875 43.046875 
Q 18.109375 38.09375 18.109375 28.8125 
L 18.109375 0 
L 9.078125 0 
L 9.078125 54.6875 
L 18.109375 54.6875 
L 18.109375 46.1875 
Q 20.953125 51.171875 25.484375 53.578125 
Q 30.03125 56 36.53125 56 
Q 37.453125 56 38.578125 55.875 
Q 39.703125 55.765625 41.0625 55.515625 
z
" id="DejaVuSans-114"/>
       <path d="M 8.5 21.578125 
L 8.5 54.6875 
L 17.484375 54.6875 
L 17.484375 21.921875 
Q 17.484375 14.15625 20.5 10.265625 
Q 23.53125 6.390625 29.59375 6.390625 
Q 36.859375 6.390625 41.078125 11.03125 
Q 45.3125 15.671875 45.3125 23.6875 
L 45.3125 54.6875 
L 54.296875 54.6875 
L 54.296875 0 
L 45.3125 0 
L 45.3125 8.40625 
Q 42.046875 3.421875 37.71875 1 
Q 33.40625 -1.421875 27.6875 -1.421875 
Q 18.265625 -1.421875 13.375 4.4375 
Q 8.5 10.296875 8.5 21.578125 
z
M 31.109375 56 
z
" id="DejaVuSans-117"/>
      </defs>
      <use xlink:href="#DejaVuSans-84"/>
      <use x="46.333984" xlink:href="#DejaVuSans-114"/>
      <use x="87.447266" xlink:href="#DejaVuSans-117"/>
      <use x="150.826172" xlink:href="#DejaVuSans-101"/>
      <use x="212.349609" xlink:href="#DejaVuSans-32"/>
      <use x="244.136719" xlink:href="#DejaVuSans-80"/>
      <use x="300.814453" xlink:href="#DejaVuSans-111"/>
      <use x="361.996094" xlink:href="#DejaVuSans-115"/>
      <use x="414.095703" xlink:href="#DejaVuSans-105"/>
      <use x="441.878906" xlink:href="#DejaVuSans-116"/>
      <use x="481.087891" xlink:href="#DejaVuSans-105"/>
      <use x="508.871094" xlink:href="#DejaVuSans-118"/>
      <use x="568.050781" xlink:href="#DejaVuSans-101"/>
      <use x="629.574219" xlink:href="#DejaVuSans-32"/>
      <use x="661.361328" xlink:href="#DejaVuSans-82"/>
      <use x="728.59375" xlink:href="#DejaVuSans-97"/>
      <use x="789.873047" xlink:href="#DejaVuSans-116"/>
      <use x="829.082031" xlink:href="#DejaVuSans-101"/>
     </g>
    </g>
   </g>
   <g id="line2d_25">
    <path clip-path="url(#p609f41654a)" d="M 68.858182 385.854545 
L 524.421818 67.745455 
" style="fill:none;stroke:#0000ff;stroke-width:4;"/>
   </g>
   <g id="line2d_26">
    <path clip-path="url(#p609f41654a)" d="M 68.858182 385.854545 
L 68.867555 385.747546 
L 68.97769 376.438602 
L 68.983046 376.331603 
L 69.092176 366.80866 
L 69.097867 366.70166 
L 69.207666 360.709696 
L 69.210345 360.709696 
L 69.31914 355.680727 
L 69.323492 355.573727 
L 69.430614 348.297771 
L 69.432957 348.297771 
L 69.438982 348.190771 
L 69.543761 344.231795 
L 69.549787 344.231795 
L 69.57188 344.124796 
L 69.68235 336.527841 
L 69.683689 336.420842 
L 69.79081 332.568865 
L 69.796167 332.568865 
L 69.905966 327.967893 
L 69.908979 327.860893 
L 70.019114 324.115916 
L 70.026143 324.008917 
L 70.134269 320.691937 
L 70.157033 320.584937 
L 70.265494 317.374956 
L 70.274197 317.267957 
L 70.380984 312.773984 
L 70.390692 312.666985 
L 70.492458 309.029007 
L 70.495136 309.029007 
L 70.507522 308.922007 
L 70.617991 306.033024 
L 70.626025 305.926025 
L 70.736829 302.930043 
L 70.754906 302.823044 
L 70.850311 299.934061 
L 70.862697 299.934061 
L 70.875083 299.827062 
L 70.984883 296.082084 
L 70.985887 296.082084 
L 70.99593 295.975085 
L 71.106734 282.386166 
L 71.108408 282.279167 
L 71.190758 279.711182 
L 71.219212 279.711182 
L 71.227915 279.604183 
L 71.333698 277.357197 
L 71.337715 277.357197 
L 71.342067 277.250197 
L 71.452871 275.11021 
L 71.472622 275.003211 
L 71.579074 272.542225 
L 71.60485 272.435226 
L 71.712641 269.974241 
L 71.730049 269.867242 
L 71.836836 267.620255 
L 71.846543 267.513256 
L 71.956678 265.266269 
L 71.967725 265.15927 
L 72.070495 263.126282 
L 72.073842 263.126282 
L 72.092589 263.019283 
L 72.203393 259.809302 
L 72.229169 259.702303 
L 72.332943 257.776314 
L 72.338299 257.776314 
L 72.360393 257.669315 
L 72.470528 255.957325 
L 72.493291 255.850326 
L 72.599743 254.138336 
L 72.61146 254.031337 
L 72.71992 251.677351 
L 72.732306 251.570351 
L 72.829385 249.965361 
L 72.831059 249.965361 
L 72.848801 249.858362 
L 72.958936 247.718374 
L 72.984042 247.611375 
L 73.090495 245.685387 
L 73.116271 245.578387 
L 73.21971 243.652399 
L 73.222054 243.652399 
L 73.246825 243.5454 
L 73.346917 242.261407 
L 73.402821 242.154408 
L 73.493875 240.977415 
L 73.510947 240.977415 
L 73.537058 240.870416 
L 73.626773 238.944427 
L 73.647193 238.944427 
L 73.654558 238.837428 
L 73.764357 237.660435 
L 73.798837 237.553435 
L 73.898594 236.483442 
L 73.930731 236.483442 
L 74.037518 234.771452 
L 74.039192 234.771452 
L 74.049904 234.664453 
L 74.153678 233.48746 
L 74.160038 233.48746 
L 74.16506 233.380461 
L 74.26649 232.203468 
L 74.268834 232.203468 
L 74.299631 232.096468 
L 74.382985 230.705477 
L 74.408762 230.705477 
L 74.43755 230.598477 
L 74.545676 229.100486 
L 74.586517 228.993487 
L 74.693304 227.495496 
L 74.694977 227.495496 
L 74.723097 227.388496 
L 74.82118 225.676507 
L 74.831892 225.676507 
L 74.868046 225.569507 
L 74.97885 224.499514 
L 75.003957 224.392514 
L 75.08162 223.750518 
L 75.098023 223.750518 
L 75.141206 223.643519 
L 75.245985 222.573525 
L 75.357458 222.466526 
L 75.467258 220.647537 
L 75.505086 220.540538 
L 75.565342 219.791542 
L 75.611538 219.791542 
L 75.644009 219.684543 
L 75.753809 218.079552 
L 75.783602 217.972553 
L 75.888715 216.260563 
L 75.91014 216.153564 
L 76.014918 215.297569 
L 76.016257 215.297569 
L 76.047724 215.19057 
L 76.150159 214.441574 
L 76.157859 214.441574 
L 76.161206 214.441574 
L 76.25862 213.264581 
L 76.271675 213.264581 
L 76.285066 213.157582 
L 76.391183 211.552592 
L 76.39587 211.552592 
L 76.414616 211.445592 
L 76.506674 210.375599 
L 76.524416 210.375599 
L 76.534793 210.268599 
L 76.643254 209.198606 
L 76.671708 209.091606 
L 76.75071 208.44961 
L 76.773474 208.44961 
L 76.824022 208.342611 
L 76.920766 207.058618 
L 76.924783 207.058618 
L 76.983365 206.951619 
L 77.091491 206.095624 
L 77.123628 205.988625 
L 77.183884 205.346629 
L 77.220372 205.346629 
L 77.322138 205.239629 
L 77.428925 204.383635 
L 77.451354 204.276635 
L 77.562158 203.206642 
L 77.613375 203.099642 
L 77.690369 202.457646 
L 77.72351 202.457646 
L 77.747612 202.350647 
L 77.842348 201.708651 
L 77.855738 201.708651 
L 77.869798 201.601651 
L 77.951143 200.959655 
L 77.967212 200.959655 
L 77.988971 200.852656 
L 78.096762 200.21066 
L 78.099775 200.21066 
L 78.140615 200.10366 
L 78.221626 199.247665 
L 78.242381 199.247665 
L 78.256106 199.140666 
L 78.356867 198.284671 
L 78.364566 198.284671 
L 78.375613 198.177672 
L 78.46968 196.893679 
L 78.481731 196.893679 
L 78.584835 196.78668 
L 78.676558 196.037685 
L 78.69497 196.037685 
L 78.725433 195.930685 
L 78.805105 195.395688 
L 78.828203 195.395688 
L 78.841593 195.288689 
L 78.929634 194.646693 
L 78.936663 194.646693 
L 78.979847 194.539694 
L 79.079604 193.683699 
L 79.082952 193.683699 
L 79.09199 193.576699 
L 79.202459 192.827704 
L 79.241291 192.720705 
L 79.308577 192.292707 
L 79.342722 192.292707 
L 79.366489 192.185708 
L 79.396952 191.75771 
L 79.46859 191.75771 
L 79.499387 191.650711 
L 79.576381 191.008715 
L 79.605839 191.008715 
L 79.642663 190.901715 
L 79.747776 190.045721 
L 79.753467 190.045721 
L 79.814727 189.938721 
L 79.85858 189.403724 
L 79.916158 189.403724 
L 79.941599 189.296725 
L 80.041356 188.54773 
L 80.084875 188.44073 
L 80.190657 187.905733 
L 80.248905 187.798734 
L 80.33728 187.370737 
L 80.339958 187.370737 
L 80.386824 187.263737 
L 80.49495 186.514742 
L 80.497293 186.514742 
L 80.570605 186.407742 
L 80.680739 185.658747 
L 80.681074 185.658747 
L 80.723588 185.551748 
L 80.821336 184.909751 
L 80.834057 184.909751 
L 80.8441 184.802752 
L 80.935153 183.946757 
L 80.954904 183.946757 
L 81.002774 183.839758 
L 81.088137 183.304761 
L 81.098179 183.304761 
L 81.154418 183.197762 
L 81.230742 182.555766 
L 81.263214 182.555766 
L 81.314766 182.448766 
L 81.381717 181.80677 
L 81.422892 181.80677 
L 81.461724 181.699771 
L 81.571523 180.843776 
L 81.623076 180.736776 
L 81.729528 180.09478 
L 81.732875 180.09478 
L 81.8015 179.987781 
L 81.899249 179.452784 
L 81.905609 179.452784 
L 81.920673 179.345785 
L 82.016079 179.024787 
L 82.030138 179.024787 
L 82.135921 178.917787 
L 82.199859 178.48979 
L 82.244382 178.48979 
L 82.26112 178.48979 
L 82.361211 177.740794 
L 82.371254 177.740794 
L 82.45193 177.633795 
L 82.56106 176.8848 
L 82.562065 176.8848 
L 82.628346 176.7778 
L 82.720739 176.456802 
L 82.726764 176.456802 
L 82.801415 176.349803 
L 82.910545 175.921805 
L 82.974818 175.814806 
L 83.056833 175.493808 
L 83.08127 175.493808 
L 83.103364 175.386809 
L 83.206469 174.530814 
L 83.210821 174.530814 
L 83.241283 174.423814 
L 83.317942 173.674819 
L 83.341375 173.674819 
L 83.429751 173.567819 
L 83.530847 173.246821 
L 83.538211 173.246821 
L 83.569678 173.139822 
L 83.677135 172.283827 
L 83.678474 172.283827 
L 83.732704 172.176828 
L 83.732704 172.069828 
L 83.839826 172.069828 
L 83.98511 171.962829 
L 84.08085 171.534832 
L 84.093905 171.534832 
L 84.133072 171.427832 
L 84.19065 170.892836 
L 84.240863 170.892836 
L 84.292081 170.785836 
L 84.36807 170.14384 
L 84.402215 170.14384 
L 84.428996 170.036841 
L 84.478205 169.822842 
L 84.535783 169.822842 
L 84.612776 169.715843 
L 84.700817 168.966847 
L 84.719229 168.966847 
L 84.845097 168.859848 
L 84.944854 167.896853 
L 84.953223 167.896853 
L 85.118592 167.789854 
L 85.226383 167.254857 
L 85.227722 167.254857 
L 85.265884 167.147858 
L 85.341539 166.719861 
L 85.36698 166.719861 
L 85.473433 166.612861 
L 85.564151 165.970865 
L 85.581224 165.970865 
L 85.596623 165.863866 
L 85.700062 165.435868 
L 85.705418 165.435868 
L 85.866435 165.328869 
L 85.95615 164.686873 
L 85.976905 164.686873 
L 86.093734 164.579873 
L 86.093734 164.472874 
L 86.200187 164.472874 
L 86.289901 164.365875 
L 86.39401 163.830878 
L 86.40037 163.830878 
L 86.515526 163.723879 
L 86.61997 163.295881 
L 86.621644 163.295881 
L 86.640055 163.188882 
L 86.735795 162.867884 
L 86.739478 162.867884 
L 86.780653 162.760884 
L 86.853629 162.546886 
L 86.888109 162.546886 
L 86.928949 162.439886 
L 87.03038 161.79789 
L 87.039753 161.79789 
L 87.079589 161.690891 
L 87.187715 161.262893 
L 87.286133 161.155894 
L 87.35275 160.620897 
L 87.39359 160.620897 
L 87.470918 160.513898 
L 87.564984 159.978901 
L 87.581387 159.978901 
L 87.71462 159.871902 
L 87.82442 159.122906 
L 87.861243 159.015907 
L 87.960665 158.587909 
L 87.966021 158.587909 
L 88.033642 158.48091 
L 88.108627 158.159912 
L 88.123022 158.159912 
L 88.164866 158.052913 
L 88.256924 157.410916 
L 88.265293 157.410916 
L 88.352329 157.303917 
L 88.352329 157.196918 
L 88.458447 157.196918 
L 88.534436 157.089918 
L 88.636537 156.554922 
L 88.637541 156.554922 
L 88.740311 156.447922 
L 88.839733 156.126924 
L 88.849776 156.126924 
L 88.95991 156.019925 
L 89.053977 155.805926 
L 89.061006 155.805926 
L 89.146034 155.698927 
L 89.146034 155.591927 
L 89.253826 155.591927 
L 89.296005 155.484928 
L 89.369316 154.949931 
L 89.402122 154.949931 
L 89.422877 154.842932 
L 89.422877 154.735932 
L 89.531003 154.735932 
L 89.63779 154.628933 
L 89.686664 154.307935 
L 89.744912 154.307935 
L 89.831279 154.200936 
L 89.883835 153.879938 
L 89.940409 153.879938 
L 90.063599 153.772938 
L 90.162352 153.344941 
L 90.316674 153.237941 
L 90.375591 153.023943 
L 90.427143 153.023943 
L 90.466644 152.916943 
L 90.483048 152.702945 
L 90.57544 152.702945 
L 90.760895 152.595945 
L 90.816799 152.274947 
L 90.868686 152.274947 
L 91.079582 152.167948 
L 91.131134 151.73995 
L 91.189381 151.73995 
L 91.228883 151.632951 
L 91.228883 151.525952 
L 91.32797 151.525952 
L 91.365463 151.418952 
L 91.421032 151.097954 
L 91.474928 151.097954 
L 91.660048 150.990955 
L 91.736037 150.669957 
L 91.769513 150.669957 
L 91.856549 150.562958 
L 91.962332 150.348959 
L 91.965345 150.348959 
L 92.056733 150.241959 
L 92.057402 150.13496 
L 92.159168 150.13496 
L 92.220428 150.027961 
L 92.299765 149.706963 
L 92.316503 149.706963 
L 92.67603 149.599963 
L 92.75838 149.278965 
L 92.786165 149.278965 
L 92.848095 149.171966 
L 92.934461 148.850968 
L 92.947852 148.850968 
L 93.010786 148.743968 
L 93.062003 148.42297 
L 93.117238 148.42297 
L 93.152387 148.315971 
L 93.233733 147.887974 
L 93.25817 147.887974 
L 93.394415 147.780974 
L 93.471744 147.566976 
L 93.493503 147.566976 
L 93.623388 147.459976 
L 93.623388 147.352977 
L 93.733188 147.352977 
L 94.014382 147.245977 
L 94.065265 146.81798 
L 94.121169 146.81798 
L 94.418098 146.710981 
L 94.454586 146.496982 
L 94.527563 146.496982 
L 94.56472 146.496982 
L 94.636693 146.068984 
L 94.675524 146.068984 
L 94.766578 145.961985 
L 94.874034 145.747986 
L 94.875373 145.747986 
L 95.033378 145.640987 
L 95.040408 145.533988 
L 95.141169 145.533988 
L 95.156568 145.426988 
L 95.245613 144.998991 
L 95.258334 144.998991 
L 95.34537 144.891992 
L 95.429394 144.570993 
L 95.455839 144.570993 
L 95.602127 144.463994 
L 95.683138 144.035997 
L 95.706906 144.035997 
L 96.141084 143.928997 
L 96.215065 143.714999 
L 96.246197 143.714999 
L 96.368717 143.607999 
L 96.407549 143.287001 
L 96.479187 143.287001 
L 96.676692 143.180002 
L 96.676692 143.073002 
L 96.768081 143.073002 
L 96.812268 142.966003 
L 96.901313 142.324007 
L 96.917047 142.324007 
L 97.029525 142.217008 
L 97.109531 142.003009 
L 97.139659 142.003009 
L 97.340847 141.89601 
L 97.396751 141.575011 
L 97.451316 141.575011 
L 97.517263 141.468012 
L 97.554756 141.254013 
L 97.618025 141.254013 
L 97.961484 141.147014 
L 98.033121 140.933015 
L 98.066597 140.933015 
L 98.079987 140.826016 
L 98.147942 140.612017 
L 98.182757 140.612017 
L 98.256403 140.505018 
L 98.256403 140.398019 
L 98.34913 140.398019 
L 98.534585 140.291019 
L 98.591159 139.649023 
L 98.638694 139.649023 
L 98.715688 139.542024 
L 98.770588 139.328025 
L 98.826492 139.328025 
L 98.906833 139.221026 
L 98.988179 138.900028 
L 99.015629 138.900028 
L 99.143505 138.793028 
L 99.239915 138.47203 
L 99.25364 138.47203 
L 99.294145 138.365031 
L 99.373147 137.830034 
L 99.39725 137.830034 
L 99.489307 137.723035 
L 99.500689 137.509036 
L 99.593416 137.509036 
L 99.657689 137.402037 
L 99.733344 137.081038 
L 99.765815 137.081038 
L 99.942566 136.974039 
L 100.03998 136.332043 
L 100.05337 136.332043 
L 100.273305 136.225044 
L 100.378083 135.904046 
L 100.52571 135.797046 
L 100.628815 135.262049 
L 100.63618 135.262049 
L 100.832011 135.15505 
L 100.832011 135.048051 
L 100.927752 135.048051 
L 100.966583 134.941051 
L 100.977965 134.727053 
L 101.077387 134.727053 
L 101.154716 134.620053 
L 101.156055 134.513054 
L 101.263511 134.513054 
L 101.335149 134.406054 
L 101.445283 133.978057 
L 101.795772 133.871058 
L 101.896534 133.44306 
L 101.906576 133.44306 
L 102.008007 133.336061 
L 102.014368 133.229062 
L 102.116468 133.229062 
L 102.192792 133.122062 
L 102.254387 132.908063 
L 102.303596 132.908063 
L 102.413396 132.801064 
L 102.461266 132.480066 
L 102.502776 132.480066 
L 102.738778 132.373067 
L 102.763885 131.945069 
L 102.839875 131.945069 
L 102.897787 131.83807 
L 102.973777 131.303073 
L 102.996205 131.303073 
L 103.100984 131.196074 
L 103.152871 130.875076 
L 103.205762 130.875076 
L 103.581358 130.768076 
L 103.663373 130.447078 
L 103.692162 130.447078 
L 103.965992 130.340079 
L 104.071774 130.12608 
L 104.076461 130.12608 
L 104.128013 130.12608 
L 105.564449 128.735089 
L 105.591564 128.628089 
L 105.605624 128.52109 
L 105.696677 128.52109 
L 106.094702 128.41409 
L 106.197806 127.986093 
L 106.205506 127.986093 
L 106.320661 127.986093 
L 106.390625 127.665095 
L 106.422092 127.665095 
L 106.50779 127.558096 
L 106.617255 127.130098 
L 106.649726 127.023099 
L 106.708643 126.702101 
L 106.756848 126.702101 
L 106.790323 126.702101 
L 106.827816 126.381103 
L 106.893093 126.381103 
L 107.095285 126.274103 
L 107.113697 126.060105 
L 107.203077 126.060105 
L 107.510382 125.953105 
L 107.593067 125.632107 
L 107.619847 125.632107 
L 107.957281 125.525108 
L 108.06775 125.20411 
L 108.295718 125.09711 
L 108.360661 124.776112 
L 108.39648 124.776112 
L 108.67667 124.669113 
L 108.71818 124.455114 
L 108.787474 124.455114 
L 108.810907 124.455114 
L 108.810907 124.241115 
L 108.904973 124.241115 
L 108.925393 124.134116 
L 109.034858 123.920117 
L 109.273874 123.813118 
L 109.338147 123.49212 
L 109.369614 123.49212 
L 109.446942 123.385121 
L 109.448281 123.278121 
L 109.555403 123.278121 
L 109.873421 123.171122 
L 109.94238 122.743124 
L 109.98389 122.743124 
L 110.097707 122.636125 
L 110.097707 122.529126 
L 110.193112 122.529126 
L 110.293204 122.422126 
L 110.35982 122.208128 
L 110.40133 122.208128 
L 110.718678 122.101128 
L 110.733407 121.88713 
L 110.828478 121.88713 
L 111.378146 121.78013 
L 111.378481 121.673131 
L 111.487946 121.673131 
L 111.57833 121.566132 
L 111.660345 121.245133 
L 111.680765 121.245133 
L 112.010834 121.138134 
L 112.013177 121.031135 
L 112.116282 121.031135 
L 112.196623 120.924135 
L 112.202984 120.710137 
L 112.305754 120.710137 
L 112.490204 120.603137 
L 112.514976 120.389139 
L 112.580253 120.389139 
L 112.67365 120.282139 
L 112.6934 120.068141 
L 112.777424 120.068141 
L 112.876846 119.961141 
L 112.924047 119.533144 
L 112.971247 119.533144 
L 113.015435 119.426144 
L 113.018113 119.319145 
L 113.118875 119.319145 
L 113.389357 119.212146 
L 113.464342 118.677149 
L 113.498487 118.677149 
L 113.603266 118.57015 
L 113.612304 118.46315 
L 113.709383 118.46315 
L 113.891155 118.356151 
L 113.908563 118.249151 
L 114.00129 118.249151 
L 114.13084 118.142152 
L 114.23428 117.607155 
L 114.240975 117.607155 
L 114.253361 117.500156 
L 114.264073 117.393157 
L 114.364165 117.393157 
L 114.625609 117.286157 
L 114.700929 117.072159 
L 114.729383 117.072159 
L 114.93827 116.965159 
L 115.022294 116.75116 
L 115.048405 116.75116 
L 115.080541 116.644161 
L 115.152179 116.430162 
L 115.191345 116.430162 
L 115.216117 116.323163 
L 115.296124 115.895166 
L 115.323239 115.895166 
L 115.93149 115.788166 
L 115.953584 115.574168 
L 116.030912 115.574168 
L 116.358972 115.467168 
L 116.358972 115.360169 
L 116.461742 115.360169 
L 116.638158 115.253169 
L 116.740928 115.039171 
L 116.913997 114.932171 
L 116.922031 114.718173 
L 117.023127 114.718173 
L 117.205569 114.611173 
L 117.205569 114.504174 
L 117.312356 114.504174 
L 117.543002 114.397175 
L 117.61464 113.969177 
L 117.648785 113.969177 
L 117.918933 113.862178 
L 117.974837 113.54118 
L 118.027728 113.54118 
L 118.269756 113.43418 
L 118.279464 113.327181 
L 118.364492 113.327181 
L 118.662424 113.220182 
L 118.741427 112.685185 
L 118.773228 112.685185 
L 119.080869 112.578185 
L 119.108653 112.257187 
L 119.18799 112.257187 
L 119.233852 112.150188 
L 119.233852 112.043189 
L 119.340304 112.043189 
L 119.747032 111.936189 
L 119.848128 111.722191 
L 119.849467 111.722191 
L 120.007806 111.615191 
L 120.015506 111.508192 
L 120.11292 111.508192 
L 120.972906 111.401193 
L 120.978262 111.294193 
L 121.082706 111.294193 
L 121.461984 111.187194 
L 121.475374 110.973195 
L 121.567767 110.973195 
L 122.663421 110.866196 
L 122.663421 110.759196 
L 122.759831 110.759196 
L 123.362056 110.652197 
L 123.364064 110.545198 
L 123.471856 110.545198 
L 123.932814 110.438198 
L 123.932814 110.331199 
L 124.041609 110.331199 
L 124.216686 110.2242 
L 124.220703 110.1172 
L 124.327156 110.1172 
L 124.466414 110.010201 
L 124.466414 109.903202 
L 124.56751 109.903202 
L 124.768698 109.796202 
L 124.787779 109.689203 
L 124.870799 109.689203 
L 125.378623 109.582203 
L 125.40875 109.368205 
L 125.47838 109.368205 
L 125.932977 109.261205 
L 126.036752 109.047207 
L 126.03876 109.047207 
L 126.129814 108.940207 
L 126.130148 108.833208 
L 126.240618 108.833208 
L 126.460552 108.726209 
L 126.460552 108.619209 
L 126.570352 108.619209 
L 127.132406 108.51221 
L 127.238524 108.191212 
L 127.610772 108.084212 
L 127.700151 107.870214 
L 127.713542 107.870214 
L 127.784845 107.763214 
L 127.848783 107.549216 
L 127.885941 107.549216 
L 128.423223 107.442216 
L 128.450004 107.228218 
L 128.531684 107.228218 
L 128.933725 107.121218 
L 128.940085 107.014219 
L 129.006367 107.014219 
L 129.22128 106.90722 
L 129.223623 106.693221 
L 129.327063 106.693221 
L 129.510174 106.586221 
L 129.510509 106.479222 
L 129.619639 106.479222 
L 129.809445 106.372223 
L 129.920249 106.158224 
L 130.0498 106.051225 
L 130.126459 105.837226 
L 130.160269 105.837226 
L 130.983767 105.730227 
L 130.986111 105.623227 
L 131.087207 105.623227 
L 131.474854 105.516228 
L 131.519711 105.19523 
L 131.58231 105.19523 
L 132.008454 105.08823 
L 132.02653 104.767232 
L 132.105533 104.767232 
L 132.455687 104.660233 
L 132.455687 104.553234 
L 132.542723 104.553234 
L 133.100426 104.446234 
L 133.108795 104.339235 
L 133.199513 104.339235 
L 133.738135 104.232236 
L 133.73847 104.018237 
L 133.836218 104.018237 
L 134.873291 103.911238 
L 134.880655 103.697239 
L 134.971709 103.697239 
L 135.443044 103.590239 
L 135.542132 103.376241 
L 135.546484 103.376241 
L 135.85312 103.269241 
L 135.855128 103.162242 
L 135.96292 103.162242 
L 136.363622 103.055243 
L 136.399775 102.841244 
L 136.4684 102.841244 
L 136.743569 102.734245 
L 136.83797 102.520246 
L 136.854038 102.520246 
L 136.98861 102.413246 
L 137.08435 102.092248 
L 137.090711 102.092248 
L 137.574097 101.985249 
L 137.581127 101.87825 
L 137.683897 101.87825 
L 138.081252 101.77125 
L 138.170297 101.557252 
L 138.191386 101.557252 
L 138.547231 101.450252 
L 138.656362 101.236254 
L 138.900064 101.129254 
L 138.967684 100.701257 
L 139.007855 100.701257 
L 139.44605 100.594257 
L 139.521035 100.380259 
L 139.549489 100.380259 
L 139.786831 100.273259 
L 139.79453 100.16626 
L 139.8973 100.16626 
L 140.823903 100.059261 
L 140.823903 99.952261 
L 140.930021 99.952261 
L 141.236991 99.845262 
L 141.243686 99.738263 
L 141.344448 99.738263 
L 141.672508 99.631263 
L 141.759879 99.417264 
L 142.046765 99.310265 
L 142.052121 99.203266 
L 142.157569 99.203266 
L 142.41533 99.096266 
L 142.42303 98.989267 
L 142.524795 98.989267 
L 142.75745 98.882268 
L 142.761467 98.775268 
L 142.860555 98.775268 
L 142.894365 98.668269 
L 142.899721 98.56127 
L 143.000818 98.56127 
L 144.012114 98.45427 
L 144.093459 98.133272 
L 144.116892 98.133272 
L 144.820213 98.026273 
L 144.828917 97.919273 
L 144.924992 97.919273 
L 145.747151 97.812274 
L 145.80339 97.598275 
L 145.857955 97.598275 
L 146.200075 97.491276 
L 146.236229 97.277277 
L 146.310879 97.277277 
L 146.724302 97.170278 
L 146.725306 97.063279 
L 146.832763 97.063279 
L 147.107932 96.956279 
L 147.108267 96.84928 
L 147.214049 96.84928 
L 148.631069 96.742281 
L 148.666888 96.528282 
L 148.733169 96.528282 
L 148.86272 96.421282 
L 148.879123 96.314283 
L 148.968168 96.314283 
L 149.029093 96.207284 
L 149.029093 96.100284 
L 149.137554 96.100284 
L 149.836189 95.993285 
L 149.84757 95.886286 
L 149.944315 95.886286 
L 150.819365 95.779286 
L 150.819365 95.672287 
L 150.918118 95.672287 
L 152.097461 95.565288 
L 152.1065 95.458288 
L 152.206927 95.458288 
L 152.835932 95.351289 
L 152.835932 95.24429 
L 152.946401 95.24429 
L 153.88606 95.13729 
L 153.96138 94.923291 
L 153.994855 94.923291 
L 154.445436 94.816292 
L 154.476903 94.495294 
L 154.553227 94.495294 
L 154.820027 94.388295 
L 154.835426 94.281295 
L 154.92581 94.281295 
L 155.772072 94.174296 
L 155.772072 94.067297 
L 155.876181 94.067297 
L 156.258471 93.960297 
L 156.277552 93.746299 
L 156.358229 93.746299 
L 156.69198 93.639299 
L 156.765291 93.4253 
L 156.801779 93.4253 
L 158.049078 93.318301 
L 158.049078 93.211302 
L 158.153187 93.211302 
L 158.479908 93.104302 
L 158.560584 92.890304 
L 158.581674 92.890304 
L 158.986728 92.783304 
L 158.989741 92.676305 
L 159.095524 92.676305 
L 160.308677 92.569306 
L 160.347174 92.355307 
L 160.413791 92.355307 
L 160.853994 92.248307 
L 160.863702 92.141308 
L 160.96145 92.141308 
L 161.253022 92.034309 
L 161.253022 91.927309 
L 161.358805 91.927309 
L 162.687115 91.82031 
L 162.690127 91.713311 
L 162.797249 91.713311 
L 163.114597 91.606311 
L 163.114597 91.499312 
L 163.220045 91.499312 
L 163.656566 91.499312 
L 163.661922 91.285313 
L 163.748959 91.285313 
L 164.571788 91.178314 
L 164.572457 90.964315 
L 164.675897 90.964315 
L 165.535883 90.857316 
L 165.537892 90.750316 
L 165.646018 90.750316 
L 167.16949 90.643317 
L 167.170494 90.536318 
L 167.263556 90.536318 
L 168.343142 90.429318 
L 168.356532 90.322319 
L 168.450264 90.322319 
L 169.747441 90.21532 
L 169.749785 90.10832 
L 169.856572 90.10832 
L 170.275016 90.001321 
L 170.290415 89.894322 
L 170.384481 89.894322 
L 171.315101 89.787322 
L 171.320122 89.680323 
L 171.425905 89.680323 
L 172.197181 89.573324 
L 172.198855 89.466324 
L 172.307986 89.466324 
L 174.078507 89.359325 
L 174.095245 89.252325 
L 174.172908 89.252325 
L 174.441717 89.145326 
L 174.44406 89.038327 
L 174.550847 89.038327 
L 175.341539 88.931327 
L 175.341539 88.824328 
L 175.447322 88.824328 
L 175.968871 88.717329 
L 175.976235 88.50333 
L 176.079005 88.50333 
L 177.182694 88.396331 
L 177.182694 88.289331 
L 177.285129 88.289331 
L 178.086534 88.182332 
L 178.086534 88.075333 
L 178.191647 88.075333 
L 178.974975 87.968333 
L 178.974975 87.861334 
L 179.079753 87.861334 
L 180.338768 87.754334 
L 180.422792 87.540336 
L 180.439195 87.540336 
L 181.412329 87.433336 
L 181.413333 87.326337 
L 181.521124 87.326337 
L 182.858472 87.219338 
L 182.860481 87.112338 
L 182.953208 87.112338 
L 184.135899 87.005339 
L 184.137573 86.89834 
L 184.246368 86.89834 
L 184.719378 86.79134 
L 184.721386 86.684341 
L 184.824826 86.684341 
L 185.41433 86.577342 
L 185.426381 86.470342 
L 185.521786 86.470342 
L 186.48923 86.363343 
L 186.57794 86.042345 
L 187.979895 85.935345 
L 187.979895 85.828346 
L 188.086348 85.828346 
L 188.408382 85.721347 
L 188.408382 85.614347 
L 188.5145 85.614347 
L 189.760794 85.507348 
L 189.760794 85.400349 
L 189.867581 85.400349 
L 190.88959 85.293349 
L 190.905323 85.18635 
L 191.000394 85.18635 
L 191.654171 85.079351 
L 191.654171 84.972351 
L 191.760958 84.972351 
L 192.435155 84.865352 
L 192.441851 84.758352 
L 192.543281 84.758352 
L 193.850836 84.651353 
L 193.850836 84.544354 
L 193.956619 84.544354 
L 194.661614 84.437354 
L 194.662953 84.330355 
L 194.771748 84.330355 
L 195.829241 84.223356 
L 195.829241 84.116356 
L 195.93335 84.116356 
L 197.410625 84.009357 
L 197.413303 83.902358 
L 197.511387 83.902358 
L 199.772994 83.795358 
L 199.772994 83.688359 
L 199.882459 83.688359 
L 200.978114 83.58136 
L 200.998534 83.367361 
L 201.078875 83.367361 
L 203.144986 83.260361 
L 203.163063 83.153362 
L 203.250099 83.153362 
L 203.785708 83.046363 
L 203.805793 82.832364 
L 203.896177 82.832364 
L 204.91216 82.725365 
L 204.959025 82.511366 
L 205.022629 82.511366 
L 209.177613 82.404367 
L 209.178283 82.297367 
L 209.288083 82.297367 
L 210.552454 82.190368 
L 210.553793 82.083368 
L 210.657902 82.083368 
L 212.159949 81.976369 
L 212.161958 81.86937 
L 212.258033 81.86937 
L 214.147058 81.76237 
L 214.158439 81.655371 
L 214.257862 81.655371 
L 214.501898 81.548372 
L 214.502568 81.441372 
L 214.60266 81.441372 
L 215.392682 81.334373 
L 215.408081 81.227374 
L 215.48474 81.227374 
L 216.201786 81.120374 
L 216.203795 81.013375 
L 216.311586 81.013375 
L 218.534027 80.906376 
L 218.547752 80.799376 
L 218.644497 80.799376 
L 219.37192 80.692377 
L 219.37259 80.585377 
L 219.482724 80.585377 
L 221.071808 80.478378 
L 221.072143 80.371379 
L 221.168553 80.371379 
L 222.139343 80.264379 
L 222.142021 80.15738 
L 222.248474 80.15738 
L 224.835464 80.050381 
L 224.841489 79.943381 
L 224.93589 79.943381 
L 225.096238 79.836382 
L 225.111302 79.729383 
L 225.203694 79.729383 
L 226.24311 79.622383 
L 226.244784 79.515384 
L 226.338181 79.515384 
L 228.658036 79.408385 
L 228.658705 79.301385 
L 228.76817 79.301385 
L 229.350979 79.194386 
L 229.353657 79.087386 
L 229.461783 79.087386 
L 231.480359 78.980387 
L 231.484376 78.873388 
L 231.583463 78.873388 
L 232.345367 78.766388 
L 232.34771 78.659389 
L 232.455836 78.659389 
L 232.763811 78.55239 
L 232.766824 78.44539 
L 232.873276 78.44539 
L 234.49684 78.338391 
L 234.501861 78.231392 
L 234.595593 78.231392 
L 235.638691 78.231392 
L 235.638691 78.017393 
L 235.736104 78.017393 
L 236.898375 77.910394 
L 236.903731 77.803394 
L 237.004827 77.803394 
L 238.496832 77.696395 
L 238.501519 77.589395 
L 238.590229 77.589395 
L 240.534489 77.482396 
L 240.538506 77.375397 
L 240.643284 77.375397 
L 243.936943 77.268397 
L 243.937612 77.161398 
L 244.037369 77.161398 
L 244.841452 77.054399 
L 244.85819 76.8404 
L 244.951921 76.8404 
L 246.284248 76.733401 
L 246.289939 76.626401 
L 246.39137 76.626401 
L 248.576653 76.519402 
L 248.579331 76.412403 
L 248.686453 76.412403 
L 251.712977 76.305403 
L 251.724693 76.198404 
L 251.819764 76.198404 
L 255.095011 76.091404 
L 255.104384 75.984405 
L 255.204141 75.984405 
L 257.158778 75.877406 
L 257.161121 75.770406 
L 257.252509 75.770406 
L 260.255265 75.663407 
L 260.267986 75.556408 
L 260.354018 75.556408 
L 261.78945 75.449408 
L 261.798823 75.342409 
L 261.900254 75.342409 
L 262.648097 75.23541 
L 262.650441 75.12841 
L 262.75388 75.12841 
L 262.947369 75.12841 
L 262.966784 74.914412 
L 263.052817 74.914412 
L 264.833046 74.807412 
L 264.837398 74.700413 
L 264.933807 74.700413 
L 266.183784 74.593413 
L 266.191483 74.486414 
L 266.282537 74.486414 
L 268.211063 74.379415 
L 268.223114 74.272415 
L 268.320528 74.272415 
L 271.540206 74.165416 
L 271.544223 74.058417 
L 271.64398 74.058417 
L 273.613681 73.951417 
L 273.616024 73.844418 
L 273.718459 73.844418 
L 283.715595 73.737419 
L 283.716265 73.630419 
L 283.82506 73.630419 
L 285.111525 73.52342 
L 285.129937 73.416421 
L 285.212287 73.416421 
L 287.721279 73.309421 
L 287.737012 73.202422 
L 287.829739 73.202422 
L 289.328774 73.095422 
L 289.329778 72.988423 
L 289.435226 72.988423 
L 290.841199 72.881424 
L 290.841869 72.774424 
L 290.952003 72.774424 
L 291.970999 72.667425 
L 292.080129 72.453426 
L 303.24757 72.346427 
L 303.24757 72.239428 
L 303.351344 72.239428 
L 305.808784 72.132428 
L 305.810123 72.025429 
L 305.918583 72.025429 
L 306.475951 71.91843 
L 306.475951 71.81143 
L 306.581064 71.81143 
L 308.51662 71.704431 
L 308.518964 71.597431 
L 308.626755 71.597431 
L 312.891539 71.490432 
L 312.891539 71.383433 
L 312.998661 71.383433 
L 314.223866 71.276433 
L 314.23123 71.169434 
L 314.324292 71.169434 
L 317.589831 71.062435 
L 317.589831 70.955435 
L 317.691262 70.955435 
L 324.405117 70.848436 
L 324.413486 70.741437 
L 324.514582 70.741437 
L 326.87126 70.634437 
L 326.87126 70.527438 
L 326.965996 70.527438 
L 330.590728 70.420438 
L 330.593741 70.313439 
L 330.697515 70.313439 
L 333.297225 70.20644 
L 333.297225 70.09944 
L 333.404347 70.09944 
L 337.407018 69.992441 
L 337.432124 69.885442 
L 337.5128 69.885442 
L 345.481988 69.778442 
L 345.481988 69.671443 
L 345.592457 69.671443 
L 353.582065 69.564444 
L 353.582065 69.457444 
L 353.689522 69.457444 
L 369.514415 69.350445 
L 369.514415 69.243446 
L 369.620198 69.243446 
L 380.710645 69.136446 
L 380.710645 69.029447 
L 380.80672 69.029447 
L 386.823948 68.922447 
L 386.823948 68.815448 
L 386.934752 68.815448 
L 396.560979 68.708449 
L 396.560979 68.601449 
L 396.671114 68.601449 
L 428.01962 68.49445 
L 428.01962 68.387451 
L 428.112348 68.387451 
L 433.923702 68.280451 
L 433.923702 68.173452 
L 434.031493 68.173452 
L 437.523327 68.066453 
L 437.523327 67.959453 
L 437.623419 67.959453 
L 469.67692 67.852454 
L 469.67692 67.745455 
L 469.783372 67.745455 
L 524.421818 67.745455 
L 524.421818 67.745455 
" style="fill:none;stroke:#ff0000;stroke-width:4;"/>
   </g>
   <g id="patch_3">
    <path d="M 46.08 401.76 
L 46.08 51.84 
" style="fill:none;stroke:#f0f0f0;stroke-linecap:square;stroke-linejoin:miter;stroke-width:3;"/>
   </g>
   <g id="patch_4">
    <path d="M 547.2 401.76 
L 547.2 51.84 
" style="fill:none;stroke:#f0f0f0;stroke-linecap:square;stroke-linejoin:miter;stroke-width:3;"/>
   </g>
   <g id="patch_5">
    <path d="M 46.08 401.76 
L 547.2 401.76 
" style="fill:none;stroke:#f0f0f0;stroke-linecap:square;stroke-linejoin:miter;stroke-width:3;"/>
   </g>
   <g id="patch_6">
    <path d="M 46.08 51.84 
L 547.2 51.84 
" style="fill:none;stroke:#f0f0f0;stroke-linecap:square;stroke-linejoin:miter;stroke-width:3;"/>
   </g>
   <g id="text_15">
    <!-- ROC Curves -->
    <g transform="translate(227.8728 45.84)scale(0.2304 -0.2304)">
     <defs>
      <path d="M 39.40625 66.21875 
Q 28.65625 66.21875 22.328125 58.203125 
Q 16.015625 50.203125 16.015625 36.375 
Q 16.015625 22.609375 22.328125 14.59375 
Q 28.65625 6.59375 39.40625 6.59375 
Q 50.140625 6.59375 56.421875 14.59375 
Q 62.703125 22.609375 62.703125 36.375 
Q 62.703125 50.203125 56.421875 58.203125 
Q 50.140625 66.21875 39.40625 66.21875 
z
M 39.40625 74.21875 
Q 54.734375 74.21875 63.90625 63.9375 
Q 73.09375 53.65625 73.09375 36.375 
Q 73.09375 19.140625 63.90625 8.859375 
Q 54.734375 -1.421875 39.40625 -1.421875 
Q 24.03125 -1.421875 14.8125 8.828125 
Q 5.609375 19.09375 5.609375 36.375 
Q 5.609375 53.65625 14.8125 63.9375 
Q 24.03125 74.21875 39.40625 74.21875 
z
" id="DejaVuSans-79"/>
      <path d="M 64.40625 67.28125 
L 64.40625 56.890625 
Q 59.421875 61.53125 53.78125 63.8125 
Q 48.140625 66.109375 41.796875 66.109375 
Q 29.296875 66.109375 22.65625 58.46875 
Q 16.015625 50.828125 16.015625 36.375 
Q 16.015625 21.96875 22.65625 14.328125 
Q 29.296875 6.6875 41.796875 6.6875 
Q 48.140625 6.6875 53.78125 8.984375 
Q 59.421875 11.28125 64.40625 15.921875 
L 64.40625 5.609375 
Q 59.234375 2.09375 53.4375 0.328125 
Q 47.65625 -1.421875 41.21875 -1.421875 
Q 24.65625 -1.421875 15.125 8.703125 
Q 5.609375 18.84375 5.609375 36.375 
Q 5.609375 53.953125 15.125 64.078125 
Q 24.65625 74.21875 41.21875 74.21875 
Q 47.75 74.21875 53.53125 72.484375 
Q 59.328125 70.75 64.40625 67.28125 
z
" id="DejaVuSans-67"/>
     </defs>
     <use xlink:href="#DejaVuSans-82"/>
     <use x="69.482422" xlink:href="#DejaVuSans-79"/>
     <use x="148.193359" xlink:href="#DejaVuSans-67"/>
     <use x="218.017578" xlink:href="#DejaVuSans-32"/>
     <use x="249.804688" xlink:href="#DejaVuSans-67"/>
     <use x="319.628906" xlink:href="#DejaVuSans-117"/>
     <use x="383.007812" xlink:href="#DejaVuSans-114"/>
     <use x="424.121094" xlink:href="#DejaVuSans-118"/>
     <use x="483.300781" xlink:href="#DejaVuSans-101"/>
     <use x="544.824219" xlink:href="#DejaVuSans-115"/>
    </g>
   </g>
   <g id="legend_1">
    <g id="patch_7">
     <path d="M 417.7825 393.76 
L 536 393.76 
Q 539.2 393.76 539.2 390.56 
L 539.2 345.19 
Q 539.2 341.99 536 341.99 
L 417.7825 341.99 
Q 414.5825 341.99 414.5825 345.19 
L 414.5825 390.56 
Q 414.5825 393.76 417.7825 393.76 
z
" style="fill:#f0f0f0;opacity:0.8;stroke:#cccccc;stroke-linejoin:miter;stroke-width:0.5;"/>
    </g>
    <g id="line2d_27">
     <path d="M 420.9825 354.9475 
L 452.9825 354.9475 
" style="fill:none;stroke:#0000ff;stroke-width:4;"/>
    </g>
    <g id="line2d_28"/>
    <g id="text_16">
     <!-- baseline -->
     <g transform="translate(465.7825 360.5475)scale(0.16 -0.16)">
      <defs>
       <path d="M 48.6875 27.296875 
Q 48.6875 37.203125 44.609375 42.84375 
Q 40.53125 48.484375 33.40625 48.484375 
Q 26.265625 48.484375 22.1875 42.84375 
Q 18.109375 37.203125 18.109375 27.296875 
Q 18.109375 17.390625 22.1875 11.75 
Q 26.265625 6.109375 33.40625 6.109375 
Q 40.53125 6.109375 44.609375 11.75 
Q 48.6875 17.390625 48.6875 27.296875 
z
M 18.109375 46.390625 
Q 20.953125 51.265625 25.265625 53.625 
Q 29.59375 56 35.59375 56 
Q 45.5625 56 51.78125 48.09375 
Q 58.015625 40.1875 58.015625 27.296875 
Q 58.015625 14.40625 51.78125 6.484375 
Q 45.5625 -1.421875 35.59375 -1.421875 
Q 29.59375 -1.421875 25.265625 0.953125 
Q 20.953125 3.328125 18.109375 8.203125 
L 18.109375 0 
L 9.078125 0 
L 9.078125 75.984375 
L 18.109375 75.984375 
z
" id="DejaVuSans-98"/>
       <path d="M 54.890625 33.015625 
L 54.890625 0 
L 45.90625 0 
L 45.90625 32.71875 
Q 45.90625 40.484375 42.875 44.328125 
Q 39.84375 48.1875 33.796875 48.1875 
Q 26.515625 48.1875 22.3125 43.546875 
Q 18.109375 38.921875 18.109375 30.90625 
L 18.109375 0 
L 9.078125 0 
L 9.078125 54.6875 
L 18.109375 54.6875 
L 18.109375 46.1875 
Q 21.34375 51.125 25.703125 53.5625 
Q 30.078125 56 35.796875 56 
Q 45.21875 56 50.046875 50.171875 
Q 54.890625 44.34375 54.890625 33.015625 
z
" id="DejaVuSans-110"/>
      </defs>
      <use xlink:href="#DejaVuSans-98"/>
      <use x="63.476562" xlink:href="#DejaVuSans-97"/>
      <use x="124.755859" xlink:href="#DejaVuSans-115"/>
      <use x="176.855469" xlink:href="#DejaVuSans-101"/>
      <use x="238.378906" xlink:href="#DejaVuSans-108"/>
      <use x="266.162109" xlink:href="#DejaVuSans-105"/>
      <use x="293.945312" xlink:href="#DejaVuSans-110"/>
      <use x="357.324219" xlink:href="#DejaVuSans-101"/>
     </g>
    </g>
    <g id="line2d_29">
     <path d="M 420.9825 378.4325 
L 452.9825 378.4325 
" style="fill:none;stroke:#ff0000;stroke-width:4;"/>
    </g>
    <g id="line2d_30"/>
    <g id="text_17">
     <!-- model -->
     <g transform="translate(465.7825 384.0325)scale(0.16 -0.16)">
      <defs>
       <path d="M 52 44.1875 
Q 55.375 50.25 60.0625 53.125 
Q 64.75 56 71.09375 56 
Q 79.640625 56 84.28125 50.015625 
Q 88.921875 44.046875 88.921875 33.015625 
L 88.921875 0 
L 79.890625 0 
L 79.890625 32.71875 
Q 79.890625 40.578125 77.09375 44.375 
Q 74.3125 48.1875 68.609375 48.1875 
Q 61.625 48.1875 57.5625 43.546875 
Q 53.515625 38.921875 53.515625 30.90625 
L 53.515625 0 
L 44.484375 0 
L 44.484375 32.71875 
Q 44.484375 40.625 41.703125 44.40625 
Q 38.921875 48.1875 33.109375 48.1875 
Q 26.21875 48.1875 22.15625 43.53125 
Q 18.109375 38.875 18.109375 30.90625 
L 18.109375 0 
L 9.078125 0 
L 9.078125 54.6875 
L 18.109375 54.6875 
L 18.109375 46.1875 
Q 21.1875 51.21875 25.484375 53.609375 
Q 29.78125 56 35.6875 56 
Q 41.65625 56 45.828125 52.96875 
Q 50 49.953125 52 44.1875 
z
" id="DejaVuSans-109"/>
       <path d="M 45.40625 46.390625 
L 45.40625 75.984375 
L 54.390625 75.984375 
L 54.390625 0 
L 45.40625 0 
L 45.40625 8.203125 
Q 42.578125 3.328125 38.25 0.953125 
Q 33.9375 -1.421875 27.875 -1.421875 
Q 17.96875 -1.421875 11.734375 6.484375 
Q 5.515625 14.40625 5.515625 27.296875 
Q 5.515625 40.1875 11.734375 48.09375 
Q 17.96875 56 27.875 56 
Q 33.9375 56 38.25 53.625 
Q 42.578125 51.265625 45.40625 46.390625 
z
M 14.796875 27.296875 
Q 14.796875 17.390625 18.875 11.75 
Q 22.953125 6.109375 30.078125 6.109375 
Q 37.203125 6.109375 41.296875 11.75 
Q 45.40625 17.390625 45.40625 27.296875 
Q 45.40625 37.203125 41.296875 42.84375 
Q 37.203125 48.484375 30.078125 48.484375 
Q 22.953125 48.484375 18.875 42.84375 
Q 14.796875 37.203125 14.796875 27.296875 
z
" id="DejaVuSans-100"/>
      </defs>
      <use xlink:href="#DejaVuSans-109"/>
      <use x="97.412109" xlink:href="#DejaVuSans-111"/>
      <use x="158.59375" xlink:href="#DejaVuSans-100"/>
      <use x="222.070312" xlink:href="#DejaVuSans-101"/>
      <use x="283.59375" xlink:href="#DejaVuSans-108"/>
     </g>
    </g>
   </g>
  </g>
 </g>
 <defs>
  <clipPath id="p609f41654a">
   <rect height="349.92" width="501.12" x="46.08" y="51.84"/>
  </clipPath>
 </defs>
</svg>
