<?xml version="1.0" encoding="utf-8" standalone="no"?>
<!DOCTYPE svg PUBLIC "-//W3C//DTD SVG 1.1//EN"
  "http://www.w3.org/Graphics/SVG/1.1/DTD/svg11.dtd">
<!-- Created with matplotlib (https://matplotlib.org/) -->
<svg height="432pt" version="1.1" viewBox="0 0 576 432" width="576pt" xmlns="http://www.w3.org/2000/svg" xmlns:xlink="http://www.w3.org/1999/xlink">
 <metadata>
  <rdf:RDF xmlns:cc="http://creativecommons.org/ns#" xmlns:dc="http://purl.org/dc/elements/1.1/" xmlns:rdf="http://www.w3.org/1999/02/22-rdf-syntax-ns#">
   <cc:Work>
    <dc:type rdf:resource="http://purl.org/dc/dcmitype/StillImage"/>
    <dc:date>2020-08-26T22:36:26.726853</dc:date>
    <dc:format>image/svg+xml</dc:format>
    <dc:creator>
     <cc:Agent>
      <dc:title>Matplotlib v3.3.0, https://matplotlib.org/</dc:title>
     </cc:Agent>
    </dc:creator>
   </cc:Work>
  </rdf:RDF>
 </metadata>
 <defs>
  <style type="text/css">*{stroke-linecap:butt;stroke-linejoin:round;}</style>
 </defs>
 <g id="figure_1">
  <g id="patch_1">
   <path d="M 0 432 
L 576 432 
L 576 0 
L 0 0 
z
" style="fill:#f0f0f0;"/>
  </g>
  <g id="axes_1">
   <g id="patch_2">
    <path d="M 46.08 401.76 
L 547.2 401.76 
L 547.2 51.84 
L 46.08 51.84 
z
" style="fill:#f0f0f0;"/>
   </g>
   <g id="matplotlib.axis_1">
    <g id="xtick_1">
     <g id="line2d_1">
      <path clip-path="url(#p1162d4dedf)" d="M 68.858182 401.76 
L 68.858182 51.84 
" style="fill:none;stroke:#cbcbcb;"/>
     </g>
     <g id="line2d_2"/>
     <g id="text_1">
      <!-- 0.0 -->
      <g transform="translate(56.135682 417.4175)scale(0.16 -0.16)">
       <defs>
        <path d="M 31.78125 66.40625 
Q 24.171875 66.40625 20.328125 58.90625 
Q 16.5 51.421875 16.5 36.375 
Q 16.5 21.390625 20.328125 13.890625 
Q 24.171875 6.390625 31.78125 6.390625 
Q 39.453125 6.390625 43.28125 13.890625 
Q 47.125 21.390625 47.125 36.375 
Q 47.125 51.421875 43.28125 58.90625 
Q 39.453125 66.40625 31.78125 66.40625 
z
M 31.78125 74.21875 
Q 44.046875 74.21875 50.515625 64.515625 
Q 56.984375 54.828125 56.984375 36.375 
Q 56.984375 17.96875 50.515625 8.265625 
Q 44.046875 -1.421875 31.78125 -1.421875 
Q 19.53125 -1.421875 13.0625 8.265625 
Q 6.59375 17.96875 6.59375 36.375 
Q 6.59375 54.828125 13.0625 64.515625 
Q 19.53125 74.21875 31.78125 74.21875 
z
" id="DejaVuSans-48"/>
        <path d="M 10.6875 12.40625 
L 21 12.40625 
L 21 0 
L 10.6875 0 
z
" id="DejaVuSans-46"/>
       </defs>
       <use xlink:href="#DejaVuSans-48"/>
       <use x="63.623047" xlink:href="#DejaVuSans-46"/>
       <use x="95.410156" xlink:href="#DejaVuSans-48"/>
      </g>
     </g>
    </g>
    <g id="xtick_2">
     <g id="line2d_3">
      <path clip-path="url(#p1162d4dedf)" d="M 159.970909 401.76 
L 159.970909 51.84 
" style="fill:none;stroke:#cbcbcb;"/>
     </g>
     <g id="line2d_4"/>
     <g id="text_2">
      <!-- 0.2 -->
      <g transform="translate(147.248409 417.4175)scale(0.16 -0.16)">
       <defs>
        <path d="M 19.1875 8.296875 
L 53.609375 8.296875 
L 53.609375 0 
L 7.328125 0 
L 7.328125 8.296875 
Q 12.9375 14.109375 22.625 23.890625 
Q 32.328125 33.6875 34.8125 36.53125 
Q 39.546875 41.84375 41.421875 45.53125 
Q 43.3125 49.21875 43.3125 52.78125 
Q 43.3125 58.59375 39.234375 62.25 
Q 35.15625 65.921875 28.609375 65.921875 
Q 23.96875 65.921875 18.8125 64.3125 
Q 13.671875 62.703125 7.8125 59.421875 
L 7.8125 69.390625 
Q 13.765625 71.78125 18.9375 73 
Q 24.125 74.21875 28.421875 74.21875 
Q 39.75 74.21875 46.484375 68.546875 
Q 53.21875 62.890625 53.21875 53.421875 
Q 53.21875 48.921875 51.53125 44.890625 
Q 49.859375 40.875 45.40625 35.40625 
Q 44.1875 33.984375 37.640625 27.21875 
Q 31.109375 20.453125 19.1875 8.296875 
z
" id="DejaVuSans-50"/>
       </defs>
       <use xlink:href="#DejaVuSans-48"/>
       <use x="63.623047" xlink:href="#DejaVuSans-46"/>
       <use x="95.410156" xlink:href="#DejaVuSans-50"/>
      </g>
     </g>
    </g>
    <g id="xtick_3">
     <g id="line2d_5">
      <path clip-path="url(#p1162d4dedf)" d="M 251.083636 401.76 
L 251.083636 51.84 
" style="fill:none;stroke:#cbcbcb;"/>
     </g>
     <g id="line2d_6"/>
     <g id="text_3">
      <!-- 0.4 -->
      <g transform="translate(238.361136 417.4175)scale(0.16 -0.16)">
       <defs>
        <path d="M 37.796875 64.3125 
L 12.890625 25.390625 
L 37.796875 25.390625 
z
M 35.203125 72.90625 
L 47.609375 72.90625 
L 47.609375 25.390625 
L 58.015625 25.390625 
L 58.015625 17.1875 
L 47.609375 17.1875 
L 47.609375 0 
L 37.796875 0 
L 37.796875 17.1875 
L 4.890625 17.1875 
L 4.890625 26.703125 
z
" id="DejaVuSans-52"/>
       </defs>
       <use xlink:href="#DejaVuSans-48"/>
       <use x="63.623047" xlink:href="#DejaVuSans-46"/>
       <use x="95.410156" xlink:href="#DejaVuSans-52"/>
      </g>
     </g>
    </g>
    <g id="xtick_4">
     <g id="line2d_7">
      <path clip-path="url(#p1162d4dedf)" d="M 342.196364 401.76 
L 342.196364 51.84 
" style="fill:none;stroke:#cbcbcb;"/>
     </g>
     <g id="line2d_8"/>
     <g id="text_4">
      <!-- 0.6 -->
      <g transform="translate(329.473864 417.4175)scale(0.16 -0.16)">
       <defs>
        <path d="M 33.015625 40.375 
Q 26.375 40.375 22.484375 35.828125 
Q 18.609375 31.296875 18.609375 23.390625 
Q 18.609375 15.53125 22.484375 10.953125 
Q 26.375 6.390625 33.015625 6.390625 
Q 39.65625 6.390625 43.53125 10.953125 
Q 47.40625 15.53125 47.40625 23.390625 
Q 47.40625 31.296875 43.53125 35.828125 
Q 39.65625 40.375 33.015625 40.375 
z
M 52.59375 71.296875 
L 52.59375 62.3125 
Q 48.875 64.0625 45.09375 64.984375 
Q 41.3125 65.921875 37.59375 65.921875 
Q 27.828125 65.921875 22.671875 59.328125 
Q 17.53125 52.734375 16.796875 39.40625 
Q 19.671875 43.65625 24.015625 45.921875 
Q 28.375 48.1875 33.59375 48.1875 
Q 44.578125 48.1875 50.953125 41.515625 
Q 57.328125 34.859375 57.328125 23.390625 
Q 57.328125 12.15625 50.6875 5.359375 
Q 44.046875 -1.421875 33.015625 -1.421875 
Q 20.359375 -1.421875 13.671875 8.265625 
Q 6.984375 17.96875 6.984375 36.375 
Q 6.984375 53.65625 15.1875 63.9375 
Q 23.390625 74.21875 37.203125 74.21875 
Q 40.921875 74.21875 44.703125 73.484375 
Q 48.484375 72.75 52.59375 71.296875 
z
" id="DejaVuSans-54"/>
       </defs>
       <use xlink:href="#DejaVuSans-48"/>
       <use x="63.623047" xlink:href="#DejaVuSans-46"/>
       <use x="95.410156" xlink:href="#DejaVuSans-54"/>
      </g>
     </g>
    </g>
    <g id="xtick_5">
     <g id="line2d_9">
      <path clip-path="url(#p1162d4dedf)" d="M 433.309091 401.76 
L 433.309091 51.84 
" style="fill:none;stroke:#cbcbcb;"/>
     </g>
     <g id="line2d_10"/>
     <g id="text_5">
      <!-- 0.8 -->
      <g transform="translate(420.586591 417.4175)scale(0.16 -0.16)">
       <defs>
        <path d="M 31.78125 34.625 
Q 24.75 34.625 20.71875 30.859375 
Q 16.703125 27.09375 16.703125 20.515625 
Q 16.703125 13.921875 20.71875 10.15625 
Q 24.75 6.390625 31.78125 6.390625 
Q 38.8125 6.390625 42.859375 10.171875 
Q 46.921875 13.96875 46.921875 20.515625 
Q 46.921875 27.09375 42.890625 30.859375 
Q 38.875 34.625 31.78125 34.625 
z
M 21.921875 38.8125 
Q 15.578125 40.375 12.03125 44.71875 
Q 8.5 49.078125 8.5 55.328125 
Q 8.5 64.0625 14.71875 69.140625 
Q 20.953125 74.21875 31.78125 74.21875 
Q 42.671875 74.21875 48.875 69.140625 
Q 55.078125 64.0625 55.078125 55.328125 
Q 55.078125 49.078125 51.53125 44.71875 
Q 48 40.375 41.703125 38.8125 
Q 48.828125 37.15625 52.796875 32.3125 
Q 56.78125 27.484375 56.78125 20.515625 
Q 56.78125 9.90625 50.3125 4.234375 
Q 43.84375 -1.421875 31.78125 -1.421875 
Q 19.734375 -1.421875 13.25 4.234375 
Q 6.78125 9.90625 6.78125 20.515625 
Q 6.78125 27.484375 10.78125 32.3125 
Q 14.796875 37.15625 21.921875 38.8125 
z
M 18.3125 54.390625 
Q 18.3125 48.734375 21.84375 45.5625 
Q 25.390625 42.390625 31.78125 42.390625 
Q 38.140625 42.390625 41.71875 45.5625 
Q 45.3125 48.734375 45.3125 54.390625 
Q 45.3125 60.0625 41.71875 63.234375 
Q 38.140625 66.40625 31.78125 66.40625 
Q 25.390625 66.40625 21.84375 63.234375 
Q 18.3125 60.0625 18.3125 54.390625 
z
" id="DejaVuSans-56"/>
       </defs>
       <use xlink:href="#DejaVuSans-48"/>
       <use x="63.623047" xlink:href="#DejaVuSans-46"/>
       <use x="95.410156" xlink:href="#DejaVuSans-56"/>
      </g>
     </g>
    </g>
    <g id="xtick_6">
     <g id="line2d_11">
      <path clip-path="url(#p1162d4dedf)" d="M 524.421818 401.76 
L 524.421818 51.84 
" style="fill:none;stroke:#cbcbcb;"/>
     </g>
     <g id="line2d_12"/>
     <g id="text_6">
      <!-- 1.0 -->
      <g transform="translate(511.699318 417.4175)scale(0.16 -0.16)">
       <defs>
        <path d="M 12.40625 8.296875 
L 28.515625 8.296875 
L 28.515625 63.921875 
L 10.984375 60.40625 
L 10.984375 69.390625 
L 28.421875 72.90625 
L 38.28125 72.90625 
L 38.28125 8.296875 
L 54.390625 8.296875 
L 54.390625 0 
L 12.40625 0 
z
" id="DejaVuSans-49"/>
       </defs>
       <use xlink:href="#DejaVuSans-49"/>
       <use x="63.623047" xlink:href="#DejaVuSans-46"/>
       <use x="95.410156" xlink:href="#DejaVuSans-48"/>
      </g>
     </g>
    </g>
    <g id="text_7">
     <!-- False Positive Rate -->
     <g transform="translate(207.4245 439.334)scale(0.192 -0.192)">
      <defs>
       <path d="M 9.8125 72.90625 
L 51.703125 72.90625 
L 51.703125 64.59375 
L 19.671875 64.59375 
L 19.671875 43.109375 
L 48.578125 43.109375 
L 48.578125 34.8125 
L 19.671875 34.8125 
L 19.671875 0 
L 9.8125 0 
z
" id="DejaVuSans-70"/>
       <path d="M 34.28125 27.484375 
Q 23.390625 27.484375 19.1875 25 
Q 14.984375 22.515625 14.984375 16.5 
Q 14.984375 11.71875 18.140625 8.90625 
Q 21.296875 6.109375 26.703125 6.109375 
Q 34.1875 6.109375 38.703125 11.40625 
Q 43.21875 16.703125 43.21875 25.484375 
L 43.21875 27.484375 
z
M 52.203125 31.203125 
L 52.203125 0 
L 43.21875 0 
L 43.21875 8.296875 
Q 40.140625 3.328125 35.546875 0.953125 
Q 30.953125 -1.421875 24.3125 -1.421875 
Q 15.921875 -1.421875 10.953125 3.296875 
Q 6 8.015625 6 15.921875 
Q 6 25.140625 12.171875 29.828125 
Q 18.359375 34.515625 30.609375 34.515625 
L 43.21875 34.515625 
L 43.21875 35.40625 
Q 43.21875 41.609375 39.140625 45 
Q 35.0625 48.390625 27.6875 48.390625 
Q 23 48.390625 18.546875 47.265625 
Q 14.109375 46.140625 10.015625 43.890625 
L 10.015625 52.203125 
Q 14.9375 54.109375 19.578125 55.046875 
Q 24.21875 56 28.609375 56 
Q 40.484375 56 46.34375 49.84375 
Q 52.203125 43.703125 52.203125 31.203125 
z
" id="DejaVuSans-97"/>
       <path d="M 9.421875 75.984375 
L 18.40625 75.984375 
L 18.40625 0 
L 9.421875 0 
z
" id="DejaVuSans-108"/>
       <path d="M 44.28125 53.078125 
L 44.28125 44.578125 
Q 40.484375 46.53125 36.375 47.5 
Q 32.28125 48.484375 27.875 48.484375 
Q 21.1875 48.484375 17.84375 46.4375 
Q 14.5 44.390625 14.5 40.28125 
Q 14.5 37.15625 16.890625 35.375 
Q 19.28125 33.59375 26.515625 31.984375 
L 29.59375 31.296875 
Q 39.15625 29.25 43.1875 25.515625 
Q 47.21875 21.78125 47.21875 15.09375 
Q 47.21875 7.46875 41.1875 3.015625 
Q 35.15625 -1.421875 24.609375 -1.421875 
Q 20.21875 -1.421875 15.453125 -0.5625 
Q 10.6875 0.296875 5.421875 2 
L 5.421875 11.28125 
Q 10.40625 8.6875 15.234375 7.390625 
Q 20.0625 6.109375 24.8125 6.109375 
Q 31.15625 6.109375 34.5625 8.28125 
Q 37.984375 10.453125 37.984375 14.40625 
Q 37.984375 18.0625 35.515625 20.015625 
Q 33.0625 21.96875 24.703125 23.78125 
L 21.578125 24.515625 
Q 13.234375 26.265625 9.515625 29.90625 
Q 5.8125 33.546875 5.8125 39.890625 
Q 5.8125 47.609375 11.28125 51.796875 
Q 16.75 56 26.8125 56 
Q 31.78125 56 36.171875 55.265625 
Q 40.578125 54.546875 44.28125 53.078125 
z
" id="DejaVuSans-115"/>
       <path d="M 56.203125 29.59375 
L 56.203125 25.203125 
L 14.890625 25.203125 
Q 15.484375 15.921875 20.484375 11.0625 
Q 25.484375 6.203125 34.421875 6.203125 
Q 39.59375 6.203125 44.453125 7.46875 
Q 49.3125 8.734375 54.109375 11.28125 
L 54.109375 2.78125 
Q 49.265625 0.734375 44.1875 -0.34375 
Q 39.109375 -1.421875 33.890625 -1.421875 
Q 20.796875 -1.421875 13.15625 6.1875 
Q 5.515625 13.8125 5.515625 26.8125 
Q 5.515625 40.234375 12.765625 48.109375 
Q 20.015625 56 32.328125 56 
Q 43.359375 56 49.78125 48.890625 
Q 56.203125 41.796875 56.203125 29.59375 
z
M 47.21875 32.234375 
Q 47.125 39.59375 43.09375 43.984375 
Q 39.0625 48.390625 32.421875 48.390625 
Q 24.90625 48.390625 20.390625 44.140625 
Q 15.875 39.890625 15.1875 32.171875 
z
" id="DejaVuSans-101"/>
       <path id="DejaVuSans-32"/>
       <path d="M 19.671875 64.796875 
L 19.671875 37.40625 
L 32.078125 37.40625 
Q 38.96875 37.40625 42.71875 40.96875 
Q 46.484375 44.53125 46.484375 51.125 
Q 46.484375 57.671875 42.71875 61.234375 
Q 38.96875 64.796875 32.078125 64.796875 
z
M 9.8125 72.90625 
L 32.078125 72.90625 
Q 44.34375 72.90625 50.609375 67.359375 
Q 56.890625 61.8125 56.890625 51.125 
Q 56.890625 40.328125 50.609375 34.8125 
Q 44.34375 29.296875 32.078125 29.296875 
L 19.671875 29.296875 
L 19.671875 0 
L 9.8125 0 
z
" id="DejaVuSans-80"/>
       <path d="M 30.609375 48.390625 
Q 23.390625 48.390625 19.1875 42.75 
Q 14.984375 37.109375 14.984375 27.296875 
Q 14.984375 17.484375 19.15625 11.84375 
Q 23.34375 6.203125 30.609375 6.203125 
Q 37.796875 6.203125 41.984375 11.859375 
Q 46.1875 17.53125 46.1875 27.296875 
Q 46.1875 37.015625 41.984375 42.703125 
Q 37.796875 48.390625 30.609375 48.390625 
z
M 30.609375 56 
Q 42.328125 56 49.015625 48.375 
Q 55.71875 40.765625 55.71875 27.296875 
Q 55.71875 13.875 49.015625 6.21875 
Q 42.328125 -1.421875 30.609375 -1.421875 
Q 18.84375 -1.421875 12.171875 6.21875 
Q 5.515625 13.875 5.515625 27.296875 
Q 5.515625 40.765625 12.171875 48.375 
Q 18.84375 56 30.609375 56 
z
" id="DejaVuSans-111"/>
       <path d="M 9.421875 54.6875 
L 18.40625 54.6875 
L 18.40625 0 
L 9.421875 0 
z
M 9.421875 75.984375 
L 18.40625 75.984375 
L 18.40625 64.59375 
L 9.421875 64.59375 
z
" id="DejaVuSans-105"/>
       <path d="M 18.3125 70.21875 
L 18.3125 54.6875 
L 36.8125 54.6875 
L 36.8125 47.703125 
L 18.3125 47.703125 
L 18.3125 18.015625 
Q 18.3125 11.328125 20.140625 9.421875 
Q 21.96875 7.515625 27.59375 7.515625 
L 36.8125 7.515625 
L 36.8125 0 
L 27.59375 0 
Q 17.1875 0 13.234375 3.875 
Q 9.28125 7.765625 9.28125 18.015625 
L 9.28125 47.703125 
L 2.6875 47.703125 
L 2.6875 54.6875 
L 9.28125 54.6875 
L 9.28125 70.21875 
z
" id="DejaVuSans-116"/>
       <path d="M 2.984375 54.6875 
L 12.5 54.6875 
L 29.59375 8.796875 
L 46.6875 54.6875 
L 56.203125 54.6875 
L 35.6875 0 
L 23.484375 0 
z
" id="DejaVuSans-118"/>
       <path d="M 44.390625 34.1875 
Q 47.5625 33.109375 50.5625 29.59375 
Q 53.5625 26.078125 56.59375 19.921875 
L 66.609375 0 
L 56 0 
L 46.6875 18.703125 
Q 43.0625 26.03125 39.671875 28.421875 
Q 36.28125 30.8125 30.421875 30.8125 
L 19.671875 30.8125 
L 19.671875 0 
L 9.8125 0 
L 9.8125 72.90625 
L 32.078125 72.90625 
Q 44.578125 72.90625 50.734375 67.671875 
Q 56.890625 62.453125 56.890625 51.90625 
Q 56.890625 45.015625 53.6875 40.46875 
Q 50.484375 35.9375 44.390625 34.1875 
z
M 19.671875 64.796875 
L 19.671875 38.921875 
L 32.078125 38.921875 
Q 39.203125 38.921875 42.84375 42.21875 
Q 46.484375 45.515625 46.484375 51.90625 
Q 46.484375 58.296875 42.84375 61.546875 
Q 39.203125 64.796875 32.078125 64.796875 
z
" id="DejaVuSans-82"/>
      </defs>
      <use xlink:href="#DejaVuSans-70"/>
      <use x="48.394531" xlink:href="#DejaVuSans-97"/>
      <use x="109.673828" xlink:href="#DejaVuSans-108"/>
      <use x="137.457031" xlink:href="#DejaVuSans-115"/>
      <use x="189.556641" xlink:href="#DejaVuSans-101"/>
      <use x="251.080078" xlink:href="#DejaVuSans-32"/>
      <use x="282.867188" xlink:href="#DejaVuSans-80"/>
      <use x="339.544922" xlink:href="#DejaVuSans-111"/>
      <use x="400.726562" xlink:href="#DejaVuSans-115"/>
      <use x="452.826172" xlink:href="#DejaVuSans-105"/>
      <use x="480.609375" xlink:href="#DejaVuSans-116"/>
      <use x="519.818359" xlink:href="#DejaVuSans-105"/>
      <use x="547.601562" xlink:href="#DejaVuSans-118"/>
      <use x="606.78125" xlink:href="#DejaVuSans-101"/>
      <use x="668.304688" xlink:href="#DejaVuSans-32"/>
      <use x="700.091797" xlink:href="#DejaVuSans-82"/>
      <use x="767.324219" xlink:href="#DejaVuSans-97"/>
      <use x="828.603516" xlink:href="#DejaVuSans-116"/>
      <use x="867.8125" xlink:href="#DejaVuSans-101"/>
     </g>
    </g>
   </g>
   <g id="matplotlib.axis_2">
    <g id="ytick_1">
     <g id="line2d_13">
      <path clip-path="url(#p1162d4dedf)" d="M 46.08 385.854545 
L 547.2 385.854545 
" style="fill:none;stroke:#cbcbcb;"/>
     </g>
     <g id="line2d_14"/>
     <g id="text_8">
      <!-- 0.0 -->
      <g transform="translate(17.135 391.933295)scale(0.16 -0.16)">
       <use xlink:href="#DejaVuSans-48"/>
       <use x="63.623047" xlink:href="#DejaVuSans-46"/>
       <use x="95.410156" xlink:href="#DejaVuSans-48"/>
      </g>
     </g>
    </g>
    <g id="ytick_2">
     <g id="line2d_15">
      <path clip-path="url(#p1162d4dedf)" d="M 46.08 322.232727 
L 547.2 322.232727 
" style="fill:none;stroke:#cbcbcb;"/>
     </g>
     <g id="line2d_16"/>
     <g id="text_9">
      <!-- 0.2 -->
      <g transform="translate(17.135 328.311477)scale(0.16 -0.16)">
       <use xlink:href="#DejaVuSans-48"/>
       <use x="63.623047" xlink:href="#DejaVuSans-46"/>
       <use x="95.410156" xlink:href="#DejaVuSans-50"/>
      </g>
     </g>
    </g>
    <g id="ytick_3">
     <g id="line2d_17">
      <path clip-path="url(#p1162d4dedf)" d="M 46.08 258.610909 
L 547.2 258.610909 
" style="fill:none;stroke:#cbcbcb;"/>
     </g>
     <g id="line2d_18"/>
     <g id="text_10">
      <!-- 0.4 -->
      <g transform="translate(17.135 264.689659)scale(0.16 -0.16)">
       <use xlink:href="#DejaVuSans-48"/>
       <use x="63.623047" xlink:href="#DejaVuSans-46"/>
       <use x="95.410156" xlink:href="#DejaVuSans-52"/>
      </g>
     </g>
    </g>
    <g id="ytick_4">
     <g id="line2d_19">
      <path clip-path="url(#p1162d4dedf)" d="M 46.08 194.989091 
L 547.2 194.989091 
" style="fill:none;stroke:#cbcbcb;"/>
     </g>
     <g id="line2d_20"/>
     <g id="text_11">
      <!-- 0.6 -->
      <g transform="translate(17.135 201.067841)scale(0.16 -0.16)">
       <use xlink:href="#DejaVuSans-48"/>
       <use x="63.623047" xlink:href="#DejaVuSans-46"/>
       <use x="95.410156" xlink:href="#DejaVuSans-54"/>
      </g>
     </g>
    </g>
    <g id="ytick_5">
     <g id="line2d_21">
      <path clip-path="url(#p1162d4dedf)" d="M 46.08 131.367273 
L 547.2 131.367273 
" style="fill:none;stroke:#cbcbcb;"/>
     </g>
     <g id="line2d_22"/>
     <g id="text_12">
      <!-- 0.8 -->
      <g transform="translate(17.135 137.446023)scale(0.16 -0.16)">
       <use xlink:href="#DejaVuSans-48"/>
       <use x="63.623047" xlink:href="#DejaVuSans-46"/>
       <use x="95.410156" xlink:href="#DejaVuSans-56"/>
      </g>
     </g>
    </g>
    <g id="ytick_6">
     <g id="line2d_23">
      <path clip-path="url(#p1162d4dedf)" d="M 46.08 67.745455 
L 547.2 67.745455 
" style="fill:none;stroke:#cbcbcb;"/>
     </g>
     <g id="line2d_24"/>
     <g id="text_13">
      <!-- 1.0 -->
      <g transform="translate(17.135 73.824205)scale(0.16 -0.16)">
       <use xlink:href="#DejaVuSans-49"/>
       <use x="63.623047" xlink:href="#DejaVuSans-46"/>
       <use x="95.410156" xlink:href="#DejaVuSans-48"/>
      </g>
     </g>
    </g>
    <g id="text_14">
     <!-- True Positive Rate -->
     <g transform="translate(9.142 312.297)rotate(-90)scale(0.192 -0.192)">
      <defs>
       <path d="M -0.296875 72.90625 
L 61.375 72.90625 
L 61.375 64.59375 
L 35.5 64.59375 
L 35.5 0 
L 25.59375 0 
L 25.59375 64.59375 
L -0.296875 64.59375 
z
" id="DejaVuSans-84"/>
       <path d="M 41.109375 46.296875 
Q 39.59375 47.171875 37.8125 47.578125 
Q 36.03125 48 33.890625 48 
Q 26.265625 48 22.1875 43.046875 
Q 18.109375 38.09375 18.109375 28.8125 
L 18.109375 0 
L 9.078125 0 
L 9.078125 54.6875 
L 18.109375 54.6875 
L 18.109375 46.1875 
Q 20.953125 51.171875 25.484375 53.578125 
Q 30.03125 56 36.53125 56 
Q 37.453125 56 38.578125 55.875 
Q 39.703125 55.765625 41.0625 55.515625 
z
" id="DejaVuSans-114"/>
       <path d="M 8.5 21.578125 
L 8.5 54.6875 
L 17.484375 54.6875 
L 17.484375 21.921875 
Q 17.484375 14.15625 20.5 10.265625 
Q 23.53125 6.390625 29.59375 6.390625 
Q 36.859375 6.390625 41.078125 11.03125 
Q 45.3125 15.671875 45.3125 23.6875 
L 45.3125 54.6875 
L 54.296875 54.6875 
L 54.296875 0 
L 45.3125 0 
L 45.3125 8.40625 
Q 42.046875 3.421875 37.71875 1 
Q 33.40625 -1.421875 27.6875 -1.421875 
Q 18.265625 -1.421875 13.375 4.4375 
Q 8.5 10.296875 8.5 21.578125 
z
M 31.109375 56 
z
" id="DejaVuSans-117"/>
      </defs>
      <use xlink:href="#DejaVuSans-84"/>
      <use x="46.333984" xlink:href="#DejaVuSans-114"/>
      <use x="87.447266" xlink:href="#DejaVuSans-117"/>
      <use x="150.826172" xlink:href="#DejaVuSans-101"/>
      <use x="212.349609" xlink:href="#DejaVuSans-32"/>
      <use x="244.136719" xlink:href="#DejaVuSans-80"/>
      <use x="300.814453" xlink:href="#DejaVuSans-111"/>
      <use x="361.996094" xlink:href="#DejaVuSans-115"/>
      <use x="414.095703" xlink:href="#DejaVuSans-105"/>
      <use x="441.878906" xlink:href="#DejaVuSans-116"/>
      <use x="481.087891" xlink:href="#DejaVuSans-105"/>
      <use x="508.871094" xlink:href="#DejaVuSans-118"/>
      <use x="568.050781" xlink:href="#DejaVuSans-101"/>
      <use x="629.574219" xlink:href="#DejaVuSans-32"/>
      <use x="661.361328" xlink:href="#DejaVuSans-82"/>
      <use x="728.59375" xlink:href="#DejaVuSans-97"/>
      <use x="789.873047" xlink:href="#DejaVuSans-116"/>
      <use x="829.082031" xlink:href="#DejaVuSans-101"/>
     </g>
    </g>
   </g>
   <g id="line2d_25">
    <path clip-path="url(#p1162d4dedf)" d="M 68.858182 385.854545 
L 524.421818 67.745455 
" style="fill:none;stroke:#0000ff;stroke-width:4;"/>
   </g>
   <g id="line2d_26">
    <path clip-path="url(#p1162d4dedf)" d="M 68.858182 385.854545 
L 68.863873 385.747546 
L 68.974342 377.294597 
L 68.97635 377.187597 
L 69.08682 369.804642 
L 69.091506 369.804642 
L 69.200971 361.77969 
L 69.207666 361.672691 
L 69.315792 357.713714 
L 69.318471 357.713714 
L 69.322822 357.606715 
L 69.432957 353.326741 
L 69.433292 353.326741 
L 69.438313 353.219741 
L 69.548782 347.548775 
L 69.550456 347.548775 
L 69.658247 342.626805 
L 69.671638 342.519806 
L 69.779094 335.564847 
L 69.780098 335.564847 
L 69.788802 335.457848 
L 69.865126 333.103862 
L 69.897263 333.103862 
L 69.90831 333.103862 
L 70.018109 328.609889 
L 70.018779 328.609889 
L 70.024135 328.50289 
L 70.134604 326.148904 
L 70.139291 326.041904 
L 70.250095 322.617925 
L 70.251099 322.510926 
L 70.360899 318.551949 
L 70.373285 318.44495 
L 70.48275 314.592973 
L 70.486097 314.485974 
L 70.590541 311.275993 
L 70.595897 311.275993 
L 70.617322 311.168994 
L 70.723774 308.38701 
L 70.727791 308.38701 
L 70.728795 308.38701 
L 70.834913 306.033024 
L 70.837925 306.033024 
L 70.851985 305.926025 
L 70.95509 302.823044 
L 70.959776 302.823044 
L 70.967476 302.823044 
L 71.063885 300.362059 
L 71.073258 300.362059 
L 71.088657 300.255059 
L 71.194775 297.687075 
L 71.2008 297.580075 
L 71.311604 294.691093 
L 71.331355 294.584093 
L 71.440485 291.588111 
L 71.441489 291.588111 
L 71.443498 291.481112 
L 71.545264 289.662123 
L 71.551624 289.662123 
L 71.560997 289.555123 
L 71.663432 286.880139 
L 71.668119 286.880139 
L 71.679835 286.77314 
L 71.788296 284.633153 
L 71.798673 284.526154 
L 71.908808 280.674177 
L 71.921529 280.567177 
L 72.025972 278.53419 
L 72.02865 278.53419 
L 72.045723 278.42719 
L 72.150167 274.789212 
L 72.154184 274.789212 
L 72.17293 274.682213 
L 72.283065 272.756224 
L 72.294111 272.649225 
L 72.401903 270.295239 
L 72.417301 270.18824 
L 72.520741 267.834254 
L 72.524423 267.834254 
L 72.532792 267.834254 
L 72.632549 265.587267 
L 72.641922 265.587267 
L 72.656986 265.480268 
L 72.766451 263.554279 
L 72.772812 263.554279 
L 72.867882 262.056288 
L 72.879933 262.056288 
L 72.886963 261.949289 
L 72.996763 260.237299 
L 73.013836 260.1303 
L 73.118279 256.81332 
L 73.12464 256.81332 
L 73.141043 256.706321 
L 73.241469 254.887331 
L 73.249503 254.887331 
L 73.252851 254.780332 
L 73.362986 251.677351 
L 73.380728 251.570351 
L 73.485171 249.537364 
L 73.48718 249.537364 
L 73.513626 249.430364 
L 73.608027 247.825374 
L 73.622086 247.825374 
L 73.629116 247.718374 
L 73.726865 246.86238 
L 73.732221 246.86238 
L 73.759336 246.75538 
L 73.866123 244.936391 
L 73.868132 244.936391 
L 73.881522 244.829392 
L 73.992326 243.224401 
L 74.020445 243.117402 
L 74.125224 241.619411 
L 74.129575 241.619411 
L 74.156691 241.512412 
L 74.264817 240.656417 
L 74.318378 240.549417 
L 74.429182 239.051426 
L 74.461653 238.944427 
L 74.568105 237.874434 
L 74.578483 237.767434 
L 74.67824 235.841446 
L 74.679913 235.841446 
L 74.704351 235.841446 
L 74.809129 233.808458 
L 74.815155 233.808458 
L 74.825532 233.701459 
L 74.934997 223.322521 
L 74.960773 223.215522 
L 75.064547 221.931529 
L 75.070908 221.931529 
L 75.092332 221.82453 
L 75.201797 221.075534 
L 75.235607 220.968535 
L 75.341725 219.577543 
L 75.342729 219.577543 
L 75.379887 219.470544 
L 75.478305 218.721548 
L 75.496382 218.614549 
L 75.597143 217.972553 
L 75.602165 217.972553 
L 75.613212 217.865554 
L 75.711964 216.688561 
L 75.722007 216.688561 
L 75.733389 216.581561 
L 75.832476 215.832566 
L 75.842184 215.832566 
L 75.873651 215.725566 
L 75.976086 214.655573 
L 75.982112 214.655573 
L 76.046385 214.548574 
L 76.152837 213.371581 
L 76.185978 213.264581 
L 76.286739 212.622585 
L 76.296447 212.622585 
L 76.325236 212.515586 
L 76.435371 211.124594 
L 76.474872 211.017595 
L 76.579316 210.0546 
L 76.60141 209.947601 
L 76.711879 208.663609 
L 76.814984 208.556609 
L 76.925118 207.379617 
L 76.944534 207.272617 
L 77.052995 206.416622 
L 77.054668 206.416622 
L 77.080779 206.309623 
L 77.176185 205.560627 
L 77.23778 205.453628 
L 77.346575 204.062636 
L 77.356953 203.955637 
L 77.466083 202.992643 
L 77.487172 202.885644 
L 77.596637 201.922649 
L 77.597642 201.922649 
L 77.602998 201.922649 
L 77.711124 200.959655 
L 77.745938 200.852656 
L 77.820589 199.996661 
L 77.856073 199.996661 
L 77.885531 199.889661 
L 77.995666 199.033667 
L 78.019768 198.926667 
L 78.130572 198.284671 
L 78.152666 198.177672 
L 78.24305 197.535676 
L 78.252089 197.535676 
L 78.272843 197.535676 
L 78.375613 196.465682 
L 78.379296 196.465682 
L 78.412102 196.358683 
L 78.502486 195.18169 
L 78.515541 195.18169 
L 78.535292 195.07469 
L 78.638396 194.539694 
L 78.644422 194.539694 
L 78.697648 194.432694 
L 78.79774 193.683699 
L 78.806109 193.683699 
L 78.822847 193.576699 
L 78.916243 192.934703 
L 78.933316 192.934703 
L 78.971143 192.827704 
L 79.066214 191.543712 
L 79.081278 191.543712 
L 79.109397 191.436712 
L 79.206476 191.008715 
L 79.294517 190.901715 
L 79.395278 189.938721 
L 79.397287 189.938721 
L 79.464907 189.831722 
L 79.573368 188.975727 
L 79.575712 188.975727 
L 79.603161 188.868728 
L 79.698901 188.226731 
L 79.704258 188.226731 
L 79.815731 188.119732 
L 79.916493 187.370737 
L 79.926535 187.370737 
L 80.014241 187.263737 
L 80.117681 186.621741 
L 80.120693 186.621741 
L 80.132745 186.514742 
L 80.233841 185.230749 
L 80.243214 185.230749 
L 80.322216 185.12375 
L 80.393184 183.946757 
L 80.432351 183.946757 
L 80.499971 183.839758 
L 80.605084 182.769764 
L 80.650946 182.662765 
L 80.753046 181.592771 
L 80.761415 181.592771 
L 80.798573 181.485772 
L 80.889627 180.415778 
L 80.906699 180.415778 
L 80.942518 180.308779 
L 81.04964 179.559784 
L 81.059013 179.452784 
L 81.085458 179.024787 
L 81.16513 179.024787 
L 81.266226 178.917787 
L 81.366988 177.847794 
L 81.413854 177.740794 
L 81.510933 176.8848 
L 81.524323 176.8848 
L 81.557464 176.7778 
L 81.643496 176.456802 
L 81.662242 176.456802 
L 81.760995 176.349803 
L 81.866108 175.814806 
L 81.942098 175.707807 
L 82.040516 174.316815 
L 82.113492 174.209816 
L 82.133912 173.995817 
L 82.218271 173.995817 
L 82.252751 173.888818 
L 82.347486 172.925823 
L 82.36322 172.925823 
L 82.386653 172.818824 
L 82.497457 171.85583 
L 82.572442 171.74883 
L 82.648766 171.427832 
L 82.676886 171.427832 
L 82.761914 171.320833 
L 82.856649 170.678837 
L 82.871044 170.678837 
L 82.943686 170.571837 
L 83.024697 169.501844 
L 83.05449 169.501844 
L 83.064867 169.394845 
L 83.172659 168.859848 
L 83.197096 168.752848 
L 83.290492 167.896853 
L 83.303548 167.896853 
L 83.369829 167.789854 
L 83.478625 167.361857 
L 83.53386 167.254857 
L 83.63596 166.612861 
L 83.644664 166.612861 
L 83.735048 166.505862 
L 83.795973 166.077864 
L 83.842504 166.077864 
L 83.873636 165.970865 
L 83.98444 165.328869 
L 84.112317 165.22187 
L 84.212409 164.365875 
L 84.217765 164.365875 
L 84.359032 164.258875 
L 84.428326 163.830878 
L 84.462136 163.830878 
L 84.510006 163.723879 
L 84.616793 162.974883 
L 84.656629 162.867884 
L 84.730945 162.439886 
L 84.764086 162.439886 
L 84.834384 162.332887 
L 84.92209 161.904889 
L 84.939498 161.904889 
L 85.007788 161.79789 
L 85.097167 161.262893 
L 85.115244 161.262893 
L 85.125956 161.262893 
L 85.195586 160.727897 
L 85.218684 160.727897 
L 85.315093 160.620897 
L 85.415185 160.299899 
L 85.417194 160.299899 
L 85.590932 160.1929 
L 85.624407 159.978901 
L 85.701401 159.978901 
L 85.70977 159.871902 
L 85.787098 159.550904 
L 85.81187 159.550904 
L 85.86744 159.443904 
L 85.977909 159.015907 
L 86.017075 158.908907 
L 86.084361 158.48091 
L 86.117502 158.48091 
L 86.245713 158.373911 
L 86.281532 158.052913 
L 86.354844 158.052913 
L 86.59185 157.945913 
L 86.697298 157.517916 
L 86.70232 157.517916 
L 86.730774 157.410916 
L 86.829527 156.661921 
L 86.841578 156.661921 
L 86.924932 156.554922 
L 87.033728 156.126924 
L 87.173655 156.019925 
L 87.218513 155.484928 
L 87.277095 155.484928 
L 87.336347 155.377929 
L 87.364466 155.16393 
L 87.436438 155.16393 
L 87.529835 155.056931 
L 87.6393 154.628933 
L 87.702569 154.521934 
L 87.811364 153.879938 
L 87.833124 153.772938 
L 87.923842 153.45194 
L 87.936228 153.45194 
L 88.037994 153.344941 
L 88.088877 153.130942 
L 88.142772 153.130942 
L 88.268975 153.023943 
L 88.366054 152.488946 
L 88.370406 152.488946 
L 88.538453 152.381947 
L 88.635198 151.73995 
L 88.646244 151.73995 
L 88.714869 151.632951 
L 88.818978 151.097954 
L 88.825673 151.097954 
L 88.859149 150.990955 
L 88.952211 150.776956 
L 88.969953 150.776956 
L 88.994725 150.669957 
L 89.089461 150.241959 
L 89.102181 150.241959 
L 89.28864 150.13496 
L 89.340862 149.920961 
L 89.390071 149.920961 
L 89.50757 149.813962 
L 89.6167 149.171966 
L 89.649507 149.064967 
L 89.692355 148.743968 
L 89.760311 148.743968 
L 89.762989 148.636969 
L 89.763323 148.52997 
L 89.870445 148.52997 
L 90.14394 148.42297 
L 90.25441 147.780974 
L 90.392329 147.673975 
L 90.43819 147.459976 
L 90.49376 147.459976 
L 90.563054 147.352977 
L 90.622306 147.031979 
L 90.666159 147.031979 
L 90.753195 146.924979 
L 90.803074 146.603981 
L 90.860652 146.603981 
L 91.007944 146.496982 
L 91.04778 146.282983 
L 91.117744 146.282983 
L 91.238256 146.175984 
L 91.305207 145.854986 
L 91.34906 145.854986 
L 91.384209 145.747986 
L 91.485305 145.319989 
L 91.495013 145.319989 
L 91.632932 145.21299 
L 91.712269 144.998991 
L 91.735033 144.998991 
L 91.811022 144.891992 
L 91.916135 144.570993 
L 91.920153 144.570993 
L 91.948272 144.463994 
L 91.979404 144.249995 
L 92.047694 144.249995 
L 92.107616 144.142996 
L 92.215407 143.928997 
L 92.217415 143.928997 
L 92.323198 143.821998 
L 92.385463 143.394001 
L 92.431324 143.394001 
L 92.730595 143.287001 
L 92.781813 142.859004 
L 92.837382 142.859004 
L 92.938479 142.752004 
L 92.949191 142.538006 
L 93.048613 142.538006 
L 93.156404 142.431006 
L 93.159417 142.324007 
L 93.261183 142.324007 
L 93.402115 142.217008 
L 93.511245 142.003009 
L 93.615354 141.89601 
L 93.671593 141.682011 
L 93.724819 141.682011 
L 93.897218 141.575011 
L 93.994297 141.040015 
L 94.008022 141.040015 
L 94.165692 140.933015 
L 94.266453 140.719017 
L 94.276161 140.719017 
L 94.341104 140.612017 
L 94.417093 140.18402 
L 94.451238 140.18402 
L 94.467641 140.07702 
L 94.533588 139.863022 
L 94.578445 139.863022 
L 94.7639 139.756022 
L 94.825495 139.221026 
L 94.8737 139.221026 
L 94.978143 139.114026 
L 95.011954 138.793028 
L 95.087608 138.793028 
L 95.408974 138.686029 
L 95.479942 138.365031 
L 95.5171 138.365031 
L 95.619535 138.258031 
L 95.72197 137.937033 
L 95.828087 137.830034 
L 95.897047 137.616035 
L 95.930857 137.616035 
L 96.117986 137.509036 
L 96.172216 137.081038 
L 96.226112 137.081038 
L 96.355997 136.974039 
L 96.421274 136.76004 
L 96.466466 136.76004 
L 96.680709 136.653041 
L 96.737618 136.332043 
L 96.791513 136.332043 
L 96.878885 136.225044 
L 96.98768 135.797046 
L 97.050949 135.690047 
L 97.061326 135.583047 
L 97.14535 135.583047 
L 97.340512 135.476048 
L 97.344195 135.369049 
L 97.450647 135.369049 
L 97.776699 135.262049 
L 97.867083 135.048051 
L 97.887503 135.048051 
L 97.98023 134.941051 
L 98.062915 134.620053 
L 98.08936 134.620053 
L 98.228619 134.513054 
L 98.299252 134.299055 
L 98.339088 134.299055 
L 98.5068 134.192056 
L 98.611913 133.978057 
L 98.727069 133.871058 
L 98.748828 133.657059 
L 98.822475 133.657059 
L 98.888421 133.55006 
L 98.888756 133.44306 
L 98.998891 133.44306 
L 99.056134 133.336061 
L 99.059481 133.229062 
L 99.162251 133.229062 
L 99.24594 133.122062 
L 99.246945 133.015063 
L 99.354736 133.015063 
L 99.536173 132.908063 
L 99.554585 132.694065 
L 99.642625 132.694065 
L 99.774854 132.587065 
L 99.774854 132.480066 
L 99.885323 132.480066 
L 100.137729 132.373067 
L 100.19698 132.159068 
L 100.24552 132.159068 
L 100.38277 132.052069 
L 100.444699 131.83807 
L 100.477505 131.83807 
L 100.623124 131.731071 
L 100.721542 131.410072 
L 100.733928 131.410072 
L 100.876199 131.303073 
L 100.975287 131.089074 
L 101.110863 130.982075 
L 101.115549 130.768076 
L 101.220997 130.768076 
L 101.274558 130.661077 
L 101.276567 130.447078 
L 101.374985 130.447078 
L 101.479094 130.340079 
L 101.479094 130.23308 
L 101.583872 130.23308 
L 101.718109 130.12608 
L 101.741207 129.912081 
L 101.827574 129.912081 
L 101.981562 129.805082 
L 102.075628 129.484084 
L 102.081988 129.484084 
L 102.262087 129.377085 
L 102.372221 128.949087 
L 102.518844 128.842088 
L 102.578765 128.52109 
L 102.629313 128.52109 
L 102.785644 128.41409 
L 102.824476 128.200092 
L 102.895779 128.200092 
L 102.986163 128.093092 
L 102.992188 127.986093 
L 103.089937 127.986093 
L 103.44779 127.879094 
L 103.55826 127.451096 
L 103.624541 127.344097 
L 103.712582 126.916099 
L 103.735345 126.916099 
L 103.817026 126.8091 
L 103.897032 126.595101 
L 103.92716 126.595101 
L 104.167849 126.488102 
L 104.167849 126.381103 
L 104.278319 126.381103 
L 104.552818 126.274103 
L 104.554157 126.167104 
L 105.972516 124.562114 
L 106.166674 124.455114 
L 106.266766 124.134116 
L 106.275135 124.134116 
L 106.748479 124.027117 
L 106.751492 123.920117 
L 106.858613 123.920117 
L 106.95904 123.920117 
L 107.00691 123.599119 
L 107.066831 123.599119 
L 107.087586 123.49212 
L 107.090934 123.278121 
L 107.197721 123.278121 
L 107.341331 123.171122 
L 107.344344 123.064123 
L 107.443096 123.064123 
L 107.585033 122.957123 
L 107.683786 122.743124 
L 107.688137 122.743124 
L 107.78053 122.636125 
L 107.80731 122.422126 
L 107.8833 122.422126 
L 107.994773 122.315127 
L 107.994773 122.208128 
L 108.104908 122.208128 
L 108.349949 122.101128 
L 108.44435 121.88713 
L 108.460418 121.88713 
L 108.746299 121.78013 
L 108.792161 121.566132 
L 108.855095 121.566132 
L 109.2173 121.459132 
L 109.31304 121.138134 
L 109.321744 121.138134 
L 109.385682 121.031135 
L 109.475731 120.282139 
L 109.479414 120.282139 
L 109.980542 120.17514 
L 109.980542 120.068141 
L 110.08666 120.068141 
L 110.135534 119.961141 
L 110.148924 119.747142 
L 110.245669 119.747142 
L 110.443174 119.640143 
L 110.516486 119.212146 
L 110.549292 119.212146 
L 111.114359 119.105146 
L 111.116368 118.998147 
L 111.224828 118.998147 
L 111.908734 118.891148 
L 111.99577 118.57015 
L 112.017194 118.57015 
L 112.06406 118.57015 
L 112.142728 118.142152 
L 112.154444 118.142152 
L 112.240811 118.035153 
L 112.284664 117.821154 
L 112.345255 117.821154 
L 112.650217 117.714155 
L 112.749305 117.500156 
L 112.758343 117.500156 
L 112.781106 117.393157 
L 112.78345 117.286157 
L 112.88622 117.286157 
L 113.253446 117.179158 
L 113.297634 116.85816 
L 113.36425 116.85816 
L 114.064559 116.75116 
L 114.064559 116.644161 
L 114.166659 116.644161 
L 114.40467 116.537162 
L 114.506436 116.323163 
L 114.512461 116.323163 
L 114.625274 116.216164 
L 114.646029 116.002165 
L 114.719675 116.002165 
L 114.787296 115.895166 
L 114.88337 115.574168 
L 114.89743 115.574168 
L 115.013925 115.467168 
L 115.038697 115.14617 
L 115.122051 115.14617 
L 115.162891 115.039171 
L 115.200384 114.718173 
L 115.272356 114.718173 
L 115.57464 114.611173 
L 115.625858 114.397175 
L 115.68444 114.397175 
L 115.782858 114.290175 
L 115.810308 114.183176 
L 115.886632 114.183176 
L 116.162471 114.076176 
L 116.172514 113.969177 
L 116.27294 113.969177 
L 116.288674 113.862178 
L 116.3968 113.648179 
L 116.399478 113.648179 
L 116.641506 113.54118 
L 116.648201 113.43418 
L 116.745615 113.43418 
L 116.851732 113.327181 
L 116.906967 113.006183 
L 116.947472 113.006183 
L 116.979274 112.899184 
L 117.012415 112.685185 
L 117.080705 112.685185 
L 117.300639 112.578185 
L 117.408096 112.257187 
L 117.411443 112.257187 
L 117.477055 112.150188 
L 117.477055 112.043189 
L 117.583508 112.043189 
L 117.756241 111.936189 
L 117.760259 111.82919 
L 117.850308 111.82919 
L 118.201801 111.722191 
L 118.258375 111.508192 
L 118.308253 111.508192 
L 118.554298 111.401193 
L 118.554633 111.294193 
L 118.664433 111.294193 
L 118.685857 111.187194 
L 118.776241 110.973195 
L 118.785614 110.973195 
L 119.084216 110.866196 
L 119.172257 110.652197 
L 119.194686 110.652197 
L 119.251929 110.545198 
L 119.29846 110.331199 
L 119.361394 110.331199 
L 119.628194 110.2242 
L 119.729959 109.796202 
L 119.737659 109.796202 
L 119.830051 109.689203 
L 119.831725 109.582203 
L 119.939516 109.582203 
L 120.121958 109.475204 
L 120.202969 109.261205 
L 120.228745 109.261205 
L 120.376707 109.154206 
L 120.376707 109.047207 
L 120.478473 109.047207 
L 120.582916 108.940207 
L 120.587268 108.833208 
L 120.689703 108.833208 
L 121.104465 108.726209 
L 121.104465 108.619209 
L 121.209244 108.619209 
L 121.569106 108.51221 
L 121.677232 108.298211 
L 121.772637 108.191212 
L 121.798413 107.977213 
L 121.881767 107.977213 
L 122.137186 107.870214 
L 122.137186 107.763214 
L 122.247655 107.763214 
L 123.235184 107.656215 
L 123.235184 107.549216 
L 123.344983 107.549216 
L 123.768784 107.442216 
L 123.866197 107.228218 
L 123.871888 107.228218 
L 123.973989 107.121218 
L 123.988383 107.014219 
L 124.082115 107.014219 
L 124.26623 106.90722 
L 124.340881 106.693221 
L 124.363644 106.693221 
L 124.995662 106.586221 
L 125.051232 106.265223 
L 125.106466 106.265223 
L 125.258445 106.158224 
L 125.270162 106.051225 
L 125.36858 106.051225 
L 125.769282 105.944225 
L 125.769282 105.837226 
L 125.865357 105.837226 
L 126.093325 105.730227 
L 126.094999 105.623227 
L 126.1971 105.623227 
L 126.404313 105.516228 
L 126.404313 105.409229 
L 126.511435 105.409229 
L 127.046374 105.302229 
L 127.048717 105.19523 
L 127.15517 105.19523 
L 127.392511 105.08823 
L 127.392511 104.981231 
L 127.502646 104.981231 
L 127.826354 104.874232 
L 127.833384 104.767232 
L 127.936823 104.767232 
L 128.03089 104.660233 
L 128.055996 104.446234 
L 128.138346 104.446234 
L 128.57085 104.339235 
L 128.579219 104.232236 
L 128.672616 104.232236 
L 129.008041 104.125236 
L 129.066288 103.804238 
L 129.117171 103.804238 
L 129.412091 103.697239 
L 129.415773 103.590239 
L 129.52256 103.590239 
L 129.866688 103.48324 
L 129.866688 103.376241 
L 129.973475 103.376241 
L 130.301201 103.269241 
L 130.311578 103.162242 
L 130.406984 103.162242 
L 130.453515 103.055243 
L 130.516784 102.841244 
L 130.55595 102.841244 
L 131.283039 102.734245 
L 131.388152 102.413246 
L 131.502973 102.306247 
L 131.5485 102.092248 
L 131.611769 102.092248 
L 132.173153 101.985249 
L 132.173488 101.87825 
L 132.283288 101.87825 
L 132.441962 101.77125 
L 132.513265 101.557252 
L 132.541384 101.557252 
L 132.658214 101.450252 
L 132.659888 101.343253 
L 132.758641 101.343253 
L 133.446898 101.236254 
L 133.458279 101.129254 
L 133.545985 101.129254 
L 133.7455 101.022255 
L 133.746839 100.808256 
L 133.854295 100.808256 
L 134.369484 100.701257 
L 134.389904 100.594257 
L 134.467902 100.594257 
L 135.066445 100.487258 
L 135.066445 100.380259 
L 135.170553 100.380259 
L 135.268972 100.273259 
L 135.277675 100.16626 
L 135.377098 100.16626 
L 136.31843 100.059261 
L 136.384377 99.845262 
L 136.425217 99.845262 
L 136.860734 99.738263 
L 136.875798 99.524264 
L 136.964173 99.524264 
L 137.661134 99.417264 
L 137.666825 99.310265 
L 137.762565 99.310265 
L 138.134478 99.203266 
L 138.134478 99.096266 
L 138.235239 99.096266 
L 138.574012 98.989267 
L 138.575016 98.882268 
L 138.677451 98.882268 
L 139.215068 98.775268 
L 139.215068 98.668269 
L 139.323864 98.668269 
L 139.754025 98.56127 
L 139.860812 98.347271 
L 139.864829 98.347271 
L 140.340181 98.240272 
L 140.341855 98.133272 
L 140.450651 98.133272 
L 141.209541 98.026273 
L 141.214228 97.919273 
L 141.319006 97.919273 
L 141.727073 97.812274 
L 141.767913 97.598275 
L 141.832521 97.598275 
L 142.693512 97.491276 
L 142.693512 97.384277 
L 142.798291 97.384277 
L 142.855534 97.277277 
L 142.859216 97.170278 
L 142.953617 97.170278 
L 143.479853 97.063279 
L 143.479853 96.956279 
L 143.587644 96.956279 
L 144.233052 96.84928 
L 144.313394 96.635281 
L 144.330801 96.635281 
L 144.885156 96.528282 
L 144.896203 96.421282 
L 144.991273 96.421282 
L 145.534581 96.314283 
L 145.616931 96.100284 
L 145.641368 96.100284 
L 145.761211 95.993285 
L 145.869672 95.779286 
L 146.036045 95.672287 
L 146.059143 95.565288 
L 146.140154 95.565288 
L 146.724972 95.458288 
L 146.73401 95.24429 
L 146.83042 95.24429 
L 147.004492 95.13729 
L 147.009849 94.923291 
L 147.10994 94.923291 
L 148.108851 94.816292 
L 148.109855 94.709293 
L 148.217981 94.709293 
L 148.281584 94.602293 
L 148.281584 94.495294 
L 148.391049 94.495294 
L 149.411384 94.388295 
L 149.411719 94.281295 
L 149.516162 94.281295 
L 150.213793 94.174296 
L 150.302503 93.960297 
L 150.316563 93.960297 
L 150.968331 93.853298 
L 150.992434 93.746299 
L 151.073445 93.746299 
L 151.595663 93.639299 
L 151.700776 93.4253 
L 151.701446 93.4253 
L 152.532309 93.318301 
L 152.595578 93.104302 
L 152.639765 93.104302 
L 153.397317 92.997303 
L 153.40602 92.890304 
L 153.504773 92.890304 
L 154.088587 92.783304 
L 154.100303 92.676305 
L 154.198721 92.676305 
L 154.837435 92.569306 
L 154.838104 92.462306 
L 154.944556 92.462306 
L 155.176207 92.355307 
L 155.181898 92.248307 
L 155.283329 92.248307 
L 156.100802 92.141308 
L 156.107497 92.034309 
L 156.197211 92.034309 
L 156.636076 91.927309 
L 156.63641 91.82031 
L 156.736167 91.82031 
L 159.154106 91.713311 
L 159.164149 91.606311 
L 159.261897 91.606311 
L 159.646531 91.499312 
L 159.648205 91.392313 
L 159.756331 91.392313 
L 160.602258 91.285313 
L 160.608618 91.178314 
L 160.712727 91.178314 
L 161.976429 91.071315 
L 161.986806 90.964315 
L 162.07719 90.964315 
L 162.352694 90.857316 
L 162.355707 90.750316 
L 162.46082 90.750316 
L 163.340892 90.643317 
L 163.347252 90.536318 
L 163.447679 90.536318 
L 163.559152 90.429318 
L 163.667948 90.21532 
L 164.211591 90.10832 
L 164.21226 90.001321 
L 164.31503 90.001321 
L 164.87608 89.894322 
L 164.87608 89.787322 
L 164.985545 89.787322 
L 167.166812 89.680323 
L 167.16949 89.573324 
L 167.276611 89.573324 
L 168.404737 89.466324 
L 168.456959 89.252325 
L 168.508846 89.252325 
L 169.169653 89.145326 
L 169.176349 89.038327 
L 169.280123 89.038327 
L 170.678396 88.931327 
L 170.709528 88.717329 
L 170.774136 88.717329 
L 171.678311 88.610329 
L 171.678311 88.50333 
L 171.78878 88.50333 
L 172.437536 88.396331 
L 172.437536 88.289331 
L 172.541645 88.289331 
L 173.331333 88.182332 
L 173.331333 88.075333 
L 173.442137 88.075333 
L 173.976407 87.968333 
L 173.976407 87.861334 
L 174.086876 87.861334 
L 174.287394 87.754334 
L 174.287394 87.647335 
L 174.397529 87.647335 
L 174.730276 87.540336 
L 174.730276 87.433336 
L 174.839406 87.433336 
L 176.776636 87.326337 
L 176.779983 87.219338 
L 176.88744 87.219338 
L 177.57871 87.112338 
L 177.629593 86.89834 
L 177.684158 86.89834 
L 178.691771 86.79134 
L 178.693445 86.684341 
L 178.788851 86.684341 
L 179.448319 86.577342 
L 179.558119 86.363343 
L 180.208548 86.256343 
L 180.208548 86.149344 
L 180.307971 86.149344 
L 180.677541 86.042345 
L 180.713025 85.935345 
L 180.78734 85.935345 
L 181.550248 85.828346 
L 181.655026 85.614347 
L 181.660048 85.614347 
L 182.695446 85.507348 
L 182.695446 85.400349 
L 182.799221 85.400349 
L 183.164773 85.293349 
L 183.167452 85.18635 
L 183.273234 85.18635 
L 184.265449 85.079351 
L 184.265449 84.972351 
L 184.375249 84.972351 
L 184.512834 84.865352 
L 184.514173 84.758352 
L 184.616608 84.758352 
L 185.273733 84.651353 
L 185.273733 84.544354 
L 185.374494 84.544354 
L 186.305784 84.437354 
L 186.314152 84.330355 
L 186.415249 84.330355 
L 187.491822 84.223356 
L 187.491822 84.116356 
L 187.596266 84.116356 
L 188.047851 84.009357 
L 188.04919 83.902358 
L 188.150956 83.902358 
L 188.750168 83.795358 
L 188.750168 83.688359 
L 188.860972 83.688359 
L 189.340342 83.58136 
L 189.34235 83.47436 
L 189.443446 83.47436 
L 190.668651 83.367361 
L 190.668651 83.260361 
L 190.766065 83.260361 
L 191.427207 83.153362 
L 191.434906 83.046363 
L 191.535668 83.046363 
L 192.88808 82.939363 
L 192.88808 82.832364 
L 192.993193 82.832364 
L 194.834348 82.725365 
L 194.840038 82.618365 
L 194.944817 82.618365 
L 195.742539 82.511366 
L 195.742539 82.404367 
L 195.852339 82.404367 
L 196.517163 82.297367 
L 196.522519 82.083368 
L 196.624954 82.083368 
L 201.20307 81.976369 
L 201.213782 81.86937 
L 201.313204 81.86937 
L 203.313368 81.86937 
L 203.399735 81.548372 
L 203.421159 81.548372 
L 204.20683 81.441372 
L 204.297214 81.227374 
L 204.317634 81.227374 
L 205.148162 81.120374 
L 205.148832 81.013375 
L 205.256288 81.013375 
L 206.364663 80.906376 
L 206.366672 80.799376 
L 206.469442 80.799376 
L 207.998605 80.692377 
L 208.006304 80.585377 
L 208.095014 80.585377 
L 208.686527 80.478378 
L 208.68954 80.371379 
L 208.790971 80.371379 
L 211.836576 80.264379 
L 211.838584 80.15738 
L 211.931646 80.15738 
L 213.278032 80.050381 
L 213.29477 79.836382 
L 213.385489 79.836382 
L 213.4588 79.836382 
L 213.460139 79.622383 
L 213.550189 79.622383 
L 214.261209 79.515384 
L 214.261209 79.408385 
L 214.372013 79.408385 
L 219.178766 79.301385 
L 219.194165 79.194386 
L 219.284214 79.194386 
L 221.638549 79.087386 
L 221.638549 78.980387 
L 221.748684 78.980387 
L 223.324712 78.873388 
L 223.340446 78.766388 
L 223.430495 78.766388 
L 224.656704 78.659389 
L 224.656704 78.55239 
L 224.760144 78.55239 
L 227.674524 78.44539 
L 227.691932 78.338391 
L 227.782316 78.338391 
L 229.549489 78.231392 
L 229.549489 78.124392 
L 229.659959 78.124392 
L 231.525885 78.017393 
L 231.530907 77.910394 
L 231.636689 77.910394 
L 232.85453 77.803394 
L 232.85453 77.696395 
L 232.959978 77.696395 
L 237.110275 77.589395 
L 237.114627 77.482396 
L 237.219406 77.482396 
L 237.395487 77.375397 
L 237.395487 77.268397 
L 237.489219 77.268397 
L 241.537751 77.161398 
L 241.547459 77.054399 
L 241.645877 77.054399 
L 244.297474 76.947399 
L 244.297474 76.8404 
L 244.407944 76.8404 
L 245.089171 76.733401 
L 245.090175 76.626401 
L 245.19964 76.626401 
L 247.799686 76.519402 
L 247.806716 76.412403 
L 247.910155 76.412403 
L 248.294454 76.305403 
L 248.32023 76.198404 
L 248.399902 76.198404 
L 248.918438 76.198404 
L 248.918438 75.984405 
L 249.027569 75.984405 
L 251.73507 75.877406 
L 251.739757 75.770406 
L 251.829471 75.770406 
L 252.380479 75.663407 
L 252.412281 75.556408 
L 252.469859 75.556408 
L 253.973915 75.449408 
L 253.977597 75.342409 
L 254.078358 75.342409 
L 254.56911 75.23541 
L 254.581161 75.12841 
L 254.676566 75.12841 
L 256.586681 75.021411 
L 256.593376 74.914412 
L 256.692129 74.914412 
L 257.059021 74.807412 
L 257.061699 74.700413 
L 257.16313 74.700413 
L 260.44072 74.593413 
L 260.441055 74.486414 
L 260.533112 74.486414 
L 265.363299 74.379415 
L 265.379367 74.272415 
L 265.471425 74.272415 
L 266.570092 74.165416 
L 266.578795 74.058417 
L 266.677883 74.058417 
L 271.248299 73.951417 
L 271.248634 73.844418 
L 271.337679 73.844418 
L 274.83922 73.737419 
L 274.888764 73.52342 
L 274.937973 73.52342 
L 276.179581 73.416421 
L 276.181255 73.309421 
L 276.286703 73.309421 
L 277.722469 73.202422 
L 277.722469 73.095422 
L 277.829925 73.095422 
L 280.994368 72.988423 
L 280.996377 72.881424 
L 281.098812 72.881424 
L 281.583203 72.774424 
L 281.583203 72.667425 
L 281.693338 72.667425 
L 286.726051 72.560426 
L 286.805723 72.346427 
L 286.828486 72.346427 
L 290.157963 72.239428 
L 290.167671 72.132428 
L 290.266759 72.132428 
L 292.511629 72.025429 
L 292.512968 71.91843 
L 292.621429 71.91843 
L 295.577988 71.81143 
L 295.58301 71.704431 
L 295.688792 71.704431 
L 298.202471 71.597431 
L 298.20314 71.490432 
L 298.30658 71.490432 
L 302.624255 71.383433 
L 302.627603 71.276433 
L 302.729034 71.276433 
L 309.466656 71.169434 
L 309.477368 71.062435 
L 309.577126 71.062435 
L 312.423551 70.955435 
L 312.435937 70.848436 
L 312.527995 70.848436 
L 322.995462 70.741437 
L 323.000149 70.634437 
L 323.099571 70.634437 
L 330.686133 70.527438 
L 330.688142 70.420438 
L 330.79292 70.420438 
L 331.500593 70.313439 
L 331.503941 70.20644 
L 331.611397 70.20644 
L 337.050503 70.09944 
L 337.052512 69.992441 
L 337.158964 69.992441 
L 342.568277 69.885442 
L 342.570285 69.778442 
L 342.665356 69.778442 
L 347.079776 69.671443 
L 347.079776 69.564444 
L 347.186563 69.564444 
L 349.89373 69.457444 
L 349.897077 69.350445 
L 349.900425 69.350445 
L 356.974811 69.243446 
L 356.974811 69.136446 
L 357.084276 69.136446 
L 360.093393 69.029447 
L 360.095067 68.922447 
L 360.203193 68.922447 
L 371.489807 68.815448 
L 371.489807 68.708449 
L 371.600276 68.708449 
L 385.991412 68.601449 
L 386.035265 68.49445 
L 386.095855 68.49445 
L 396.417035 68.387451 
L 396.417035 68.280451 
L 396.527839 68.280451 
L 430.212938 68.173452 
L 430.215281 68.066453 
L 430.314034 68.066453 
L 448.976649 67.959453 
L 448.976649 67.852454 
L 449.081762 67.852454 
L 524.421818 67.745455 
L 524.421818 67.745455 
" style="fill:none;stroke:#ff0000;stroke-width:4;"/>
   </g>
   <g id="patch_3">
    <path d="M 46.08 401.76 
L 46.08 51.84 
" style="fill:none;stroke:#f0f0f0;stroke-linecap:square;stroke-linejoin:miter;stroke-width:3;"/>
   </g>
   <g id="patch_4">
    <path d="M 547.2 401.76 
L 547.2 51.84 
" style="fill:none;stroke:#f0f0f0;stroke-linecap:square;stroke-linejoin:miter;stroke-width:3;"/>
   </g>
   <g id="patch_5">
    <path d="M 46.08 401.76 
L 547.2 401.76 
" style="fill:none;stroke:#f0f0f0;stroke-linecap:square;stroke-linejoin:miter;stroke-width:3;"/>
   </g>
   <g id="patch_6">
    <path d="M 46.08 51.84 
L 547.2 51.84 
" style="fill:none;stroke:#f0f0f0;stroke-linecap:square;stroke-linejoin:miter;stroke-width:3;"/>
   </g>
   <g id="text_15">
    <!-- ROC Curves -->
    <g transform="translate(227.8728 45.84)scale(0.2304 -0.2304)">
     <defs>
      <path d="M 39.40625 66.21875 
Q 28.65625 66.21875 22.328125 58.203125 
Q 16.015625 50.203125 16.015625 36.375 
Q 16.015625 22.609375 22.328125 14.59375 
Q 28.65625 6.59375 39.40625 6.59375 
Q 50.140625 6.59375 56.421875 14.59375 
Q 62.703125 22.609375 62.703125 36.375 
Q 62.703125 50.203125 56.421875 58.203125 
Q 50.140625 66.21875 39.40625 66.21875 
z
M 39.40625 74.21875 
Q 54.734375 74.21875 63.90625 63.9375 
Q 73.09375 53.65625 73.09375 36.375 
Q 73.09375 19.140625 63.90625 8.859375 
Q 54.734375 -1.421875 39.40625 -1.421875 
Q 24.03125 -1.421875 14.8125 8.828125 
Q 5.609375 19.09375 5.609375 36.375 
Q 5.609375 53.65625 14.8125 63.9375 
Q 24.03125 74.21875 39.40625 74.21875 
z
" id="DejaVuSans-79"/>
      <path d="M 64.40625 67.28125 
L 64.40625 56.890625 
Q 59.421875 61.53125 53.78125 63.8125 
Q 48.140625 66.109375 41.796875 66.109375 
Q 29.296875 66.109375 22.65625 58.46875 
Q 16.015625 50.828125 16.015625 36.375 
Q 16.015625 21.96875 22.65625 14.328125 
Q 29.296875 6.6875 41.796875 6.6875 
Q 48.140625 6.6875 53.78125 8.984375 
Q 59.421875 11.28125 64.40625 15.921875 
L 64.40625 5.609375 
Q 59.234375 2.09375 53.4375 0.328125 
Q 47.65625 -1.421875 41.21875 -1.421875 
Q 24.65625 -1.421875 15.125 8.703125 
Q 5.609375 18.84375 5.609375 36.375 
Q 5.609375 53.953125 15.125 64.078125 
Q 24.65625 74.21875 41.21875 74.21875 
Q 47.75 74.21875 53.53125 72.484375 
Q 59.328125 70.75 64.40625 67.28125 
z
" id="DejaVuSans-67"/>
     </defs>
     <use xlink:href="#DejaVuSans-82"/>
     <use x="69.482422" xlink:href="#DejaVuSans-79"/>
     <use x="148.193359" xlink:href="#DejaVuSans-67"/>
     <use x="218.017578" xlink:href="#DejaVuSans-32"/>
     <use x="249.804688" xlink:href="#DejaVuSans-67"/>
     <use x="319.628906" xlink:href="#DejaVuSans-117"/>
     <use x="383.007812" xlink:href="#DejaVuSans-114"/>
     <use x="424.121094" xlink:href="#DejaVuSans-118"/>
     <use x="483.300781" xlink:href="#DejaVuSans-101"/>
     <use x="544.824219" xlink:href="#DejaVuSans-115"/>
    </g>
   </g>
   <g id="legend_1">
    <g id="patch_7">
     <path d="M 417.7825 393.76 
L 536 393.76 
Q 539.2 393.76 539.2 390.56 
L 539.2 345.19 
Q 539.2 341.99 536 341.99 
L 417.7825 341.99 
Q 414.5825 341.99 414.5825 345.19 
L 414.5825 390.56 
Q 414.5825 393.76 417.7825 393.76 
z
" style="fill:#f0f0f0;opacity:0.8;stroke:#cccccc;stroke-linejoin:miter;stroke-width:0.5;"/>
    </g>
    <g id="line2d_27">
     <path d="M 420.9825 354.9475 
L 452.9825 354.9475 
" style="fill:none;stroke:#0000ff;stroke-width:4;"/>
    </g>
    <g id="line2d_28"/>
    <g id="text_16">
     <!-- baseline -->
     <g transform="translate(465.7825 360.5475)scale(0.16 -0.16)">
      <defs>
       <path d="M 48.6875 27.296875 
Q 48.6875 37.203125 44.609375 42.84375 
Q 40.53125 48.484375 33.40625 48.484375 
Q 26.265625 48.484375 22.1875 42.84375 
Q 18.109375 37.203125 18.109375 27.296875 
Q 18.109375 17.390625 22.1875 11.75 
Q 26.265625 6.109375 33.40625 6.109375 
Q 40.53125 6.109375 44.609375 11.75 
Q 48.6875 17.390625 48.6875 27.296875 
z
M 18.109375 46.390625 
Q 20.953125 51.265625 25.265625 53.625 
Q 29.59375 56 35.59375 56 
Q 45.5625 56 51.78125 48.09375 
Q 58.015625 40.1875 58.015625 27.296875 
Q 58.015625 14.40625 51.78125 6.484375 
Q 45.5625 -1.421875 35.59375 -1.421875 
Q 29.59375 -1.421875 25.265625 0.953125 
Q 20.953125 3.328125 18.109375 8.203125 
L 18.109375 0 
L 9.078125 0 
L 9.078125 75.984375 
L 18.109375 75.984375 
z
" id="DejaVuSans-98"/>
       <path d="M 54.890625 33.015625 
L 54.890625 0 
L 45.90625 0 
L 45.90625 32.71875 
Q 45.90625 40.484375 42.875 44.328125 
Q 39.84375 48.1875 33.796875 48.1875 
Q 26.515625 48.1875 22.3125 43.546875 
Q 18.109375 38.921875 18.109375 30.90625 
L 18.109375 0 
L 9.078125 0 
L 9.078125 54.6875 
L 18.109375 54.6875 
L 18.109375 46.1875 
Q 21.34375 51.125 25.703125 53.5625 
Q 30.078125 56 35.796875 56 
Q 45.21875 56 50.046875 50.171875 
Q 54.890625 44.34375 54.890625 33.015625 
z
" id="DejaVuSans-110"/>
      </defs>
      <use xlink:href="#DejaVuSans-98"/>
      <use x="63.476562" xlink:href="#DejaVuSans-97"/>
      <use x="124.755859" xlink:href="#DejaVuSans-115"/>
      <use x="176.855469" xlink:href="#DejaVuSans-101"/>
      <use x="238.378906" xlink:href="#DejaVuSans-108"/>
      <use x="266.162109" xlink:href="#DejaVuSans-105"/>
      <use x="293.945312" xlink:href="#DejaVuSans-110"/>
      <use x="357.324219" xlink:href="#DejaVuSans-101"/>
     </g>
    </g>
    <g id="line2d_29">
     <path d="M 420.9825 378.4325 
L 452.9825 378.4325 
" style="fill:none;stroke:#ff0000;stroke-width:4;"/>
    </g>
    <g id="line2d_30"/>
    <g id="text_17">
     <!-- model -->
     <g transform="translate(465.7825 384.0325)scale(0.16 -0.16)">
      <defs>
       <path d="M 52 44.1875 
Q 55.375 50.25 60.0625 53.125 
Q 64.75 56 71.09375 56 
Q 79.640625 56 84.28125 50.015625 
Q 88.921875 44.046875 88.921875 33.015625 
L 88.921875 0 
L 79.890625 0 
L 79.890625 32.71875 
Q 79.890625 40.578125 77.09375 44.375 
Q 74.3125 48.1875 68.609375 48.1875 
Q 61.625 48.1875 57.5625 43.546875 
Q 53.515625 38.921875 53.515625 30.90625 
L 53.515625 0 
L 44.484375 0 
L 44.484375 32.71875 
Q 44.484375 40.625 41.703125 44.40625 
Q 38.921875 48.1875 33.109375 48.1875 
Q 26.21875 48.1875 22.15625 43.53125 
Q 18.109375 38.875 18.109375 30.90625 
L 18.109375 0 
L 9.078125 0 
L 9.078125 54.6875 
L 18.109375 54.6875 
L 18.109375 46.1875 
Q 21.1875 51.21875 25.484375 53.609375 
Q 29.78125 56 35.6875 56 
Q 41.65625 56 45.828125 52.96875 
Q 50 49.953125 52 44.1875 
z
" id="DejaVuSans-109"/>
       <path d="M 45.40625 46.390625 
L 45.40625 75.984375 
L 54.390625 75.984375 
L 54.390625 0 
L 45.40625 0 
L 45.40625 8.203125 
Q 42.578125 3.328125 38.25 0.953125 
Q 33.9375 -1.421875 27.875 -1.421875 
Q 17.96875 -1.421875 11.734375 6.484375 
Q 5.515625 14.40625 5.515625 27.296875 
Q 5.515625 40.1875 11.734375 48.09375 
Q 17.96875 56 27.875 56 
Q 33.9375 56 38.25 53.625 
Q 42.578125 51.265625 45.40625 46.390625 
z
M 14.796875 27.296875 
Q 14.796875 17.390625 18.875 11.75 
Q 22.953125 6.109375 30.078125 6.109375 
Q 37.203125 6.109375 41.296875 11.75 
Q 45.40625 17.390625 45.40625 27.296875 
Q 45.40625 37.203125 41.296875 42.84375 
Q 37.203125 48.484375 30.078125 48.484375 
Q 22.953125 48.484375 18.875 42.84375 
Q 14.796875 37.203125 14.796875 27.296875 
z
" id="DejaVuSans-100"/>
      </defs>
      <use xlink:href="#DejaVuSans-109"/>
      <use x="97.412109" xlink:href="#DejaVuSans-111"/>
      <use x="158.59375" xlink:href="#DejaVuSans-100"/>
      <use x="222.070312" xlink:href="#DejaVuSans-101"/>
      <use x="283.59375" xlink:href="#DejaVuSans-108"/>
     </g>
    </g>
   </g>
  </g>
 </g>
 <defs>
  <clipPath id="p1162d4dedf">
   <rect height="349.92" width="501.12" x="46.08" y="51.84"/>
  </clipPath>
 </defs>
</svg>
