<?xml version="1.0" encoding="utf-8" standalone="no"?>
<!DOCTYPE svg PUBLIC "-//W3C//DTD SVG 1.1//EN"
  "http://www.w3.org/Graphics/SVG/1.1/DTD/svg11.dtd">
<!-- Created with matplotlib (https://matplotlib.org/) -->
<svg height="432pt" version="1.1" viewBox="0 0 576 432" width="576pt" xmlns="http://www.w3.org/2000/svg" xmlns:xlink="http://www.w3.org/1999/xlink">
 <metadata>
  <rdf:RDF xmlns:cc="http://creativecommons.org/ns#" xmlns:dc="http://purl.org/dc/elements/1.1/" xmlns:rdf="http://www.w3.org/1999/02/22-rdf-syntax-ns#">
   <cc:Work>
    <dc:type rdf:resource="http://purl.org/dc/dcmitype/StillImage"/>
    <dc:date>2020-09-01T19:48:10.535810</dc:date>
    <dc:format>image/svg+xml</dc:format>
    <dc:creator>
     <cc:Agent>
      <dc:title>Matplotlib v3.3.0, https://matplotlib.org/</dc:title>
     </cc:Agent>
    </dc:creator>
   </cc:Work>
  </rdf:RDF>
 </metadata>
 <defs>
  <style type="text/css">*{stroke-linecap:butt;stroke-linejoin:round;}</style>
 </defs>
 <g id="figure_1">
  <g id="patch_1">
   <path d="M 0 432 
L 576 432 
L 576 0 
L 0 0 
z
" style="fill:#ffffff;"/>
  </g>
  <g id="axes_1">
   <g id="patch_2">
    <path d="M 72 384.48 
L 518.4 384.48 
L 518.4 51.84 
L 72 51.84 
z
" style="fill:#ffffff;"/>
   </g>
   <g id="matplotlib.axis_1">
    <g id="xtick_1">
     <g id="line2d_1">
      <defs>
       <path d="M 0 0 
L 0 3.5 
" id="m1593bc30a0" style="stroke:#000000;stroke-width:0.8;"/>
      </defs>
      <g>
       <use style="stroke:#000000;stroke-width:0.8;" x="92.290909" xlink:href="#m1593bc30a0" y="384.48"/>
      </g>
     </g>
     <g id="text_1">
      <!-- 0.0 -->
      <g transform="translate(79.568409 403.6375)scale(0.16 -0.16)">
       <defs>
        <path d="M 31.78125 66.40625 
Q 24.171875 66.40625 20.328125 58.90625 
Q 16.5 51.421875 16.5 36.375 
Q 16.5 21.390625 20.328125 13.890625 
Q 24.171875 6.390625 31.78125 6.390625 
Q 39.453125 6.390625 43.28125 13.890625 
Q 47.125 21.390625 47.125 36.375 
Q 47.125 51.421875 43.28125 58.90625 
Q 39.453125 66.40625 31.78125 66.40625 
z
M 31.78125 74.21875 
Q 44.046875 74.21875 50.515625 64.515625 
Q 56.984375 54.828125 56.984375 36.375 
Q 56.984375 17.96875 50.515625 8.265625 
Q 44.046875 -1.421875 31.78125 -1.421875 
Q 19.53125 -1.421875 13.0625 8.265625 
Q 6.59375 17.96875 6.59375 36.375 
Q 6.59375 54.828125 13.0625 64.515625 
Q 19.53125 74.21875 31.78125 74.21875 
z
" id="DejaVuSans-48"/>
        <path d="M 10.6875 12.40625 
L 21 12.40625 
L 21 0 
L 10.6875 0 
z
" id="DejaVuSans-46"/>
       </defs>
       <use xlink:href="#DejaVuSans-48"/>
       <use x="63.623047" xlink:href="#DejaVuSans-46"/>
       <use x="95.410156" xlink:href="#DejaVuSans-48"/>
      </g>
     </g>
    </g>
    <g id="xtick_2">
     <g id="line2d_2">
      <g>
       <use style="stroke:#000000;stroke-width:0.8;" x="173.454545" xlink:href="#m1593bc30a0" y="384.48"/>
      </g>
     </g>
     <g id="text_2">
      <!-- 0.2 -->
      <g transform="translate(160.732045 403.6375)scale(0.16 -0.16)">
       <defs>
        <path d="M 19.1875 8.296875 
L 53.609375 8.296875 
L 53.609375 0 
L 7.328125 0 
L 7.328125 8.296875 
Q 12.9375 14.109375 22.625 23.890625 
Q 32.328125 33.6875 34.8125 36.53125 
Q 39.546875 41.84375 41.421875 45.53125 
Q 43.3125 49.21875 43.3125 52.78125 
Q 43.3125 58.59375 39.234375 62.25 
Q 35.15625 65.921875 28.609375 65.921875 
Q 23.96875 65.921875 18.8125 64.3125 
Q 13.671875 62.703125 7.8125 59.421875 
L 7.8125 69.390625 
Q 13.765625 71.78125 18.9375 73 
Q 24.125 74.21875 28.421875 74.21875 
Q 39.75 74.21875 46.484375 68.546875 
Q 53.21875 62.890625 53.21875 53.421875 
Q 53.21875 48.921875 51.53125 44.890625 
Q 49.859375 40.875 45.40625 35.40625 
Q 44.1875 33.984375 37.640625 27.21875 
Q 31.109375 20.453125 19.1875 8.296875 
z
" id="DejaVuSans-50"/>
       </defs>
       <use xlink:href="#DejaVuSans-48"/>
       <use x="63.623047" xlink:href="#DejaVuSans-46"/>
       <use x="95.410156" xlink:href="#DejaVuSans-50"/>
      </g>
     </g>
    </g>
    <g id="xtick_3">
     <g id="line2d_3">
      <g>
       <use style="stroke:#000000;stroke-width:0.8;" x="254.618182" xlink:href="#m1593bc30a0" y="384.48"/>
      </g>
     </g>
     <g id="text_3">
      <!-- 0.4 -->
      <g transform="translate(241.895682 403.6375)scale(0.16 -0.16)">
       <defs>
        <path d="M 37.796875 64.3125 
L 12.890625 25.390625 
L 37.796875 25.390625 
z
M 35.203125 72.90625 
L 47.609375 72.90625 
L 47.609375 25.390625 
L 58.015625 25.390625 
L 58.015625 17.1875 
L 47.609375 17.1875 
L 47.609375 0 
L 37.796875 0 
L 37.796875 17.1875 
L 4.890625 17.1875 
L 4.890625 26.703125 
z
" id="DejaVuSans-52"/>
       </defs>
       <use xlink:href="#DejaVuSans-48"/>
       <use x="63.623047" xlink:href="#DejaVuSans-46"/>
       <use x="95.410156" xlink:href="#DejaVuSans-52"/>
      </g>
     </g>
    </g>
    <g id="xtick_4">
     <g id="line2d_4">
      <g>
       <use style="stroke:#000000;stroke-width:0.8;" x="335.781818" xlink:href="#m1593bc30a0" y="384.48"/>
      </g>
     </g>
     <g id="text_4">
      <!-- 0.6 -->
      <g transform="translate(323.059318 403.6375)scale(0.16 -0.16)">
       <defs>
        <path d="M 33.015625 40.375 
Q 26.375 40.375 22.484375 35.828125 
Q 18.609375 31.296875 18.609375 23.390625 
Q 18.609375 15.53125 22.484375 10.953125 
Q 26.375 6.390625 33.015625 6.390625 
Q 39.65625 6.390625 43.53125 10.953125 
Q 47.40625 15.53125 47.40625 23.390625 
Q 47.40625 31.296875 43.53125 35.828125 
Q 39.65625 40.375 33.015625 40.375 
z
M 52.59375 71.296875 
L 52.59375 62.3125 
Q 48.875 64.0625 45.09375 64.984375 
Q 41.3125 65.921875 37.59375 65.921875 
Q 27.828125 65.921875 22.671875 59.328125 
Q 17.53125 52.734375 16.796875 39.40625 
Q 19.671875 43.65625 24.015625 45.921875 
Q 28.375 48.1875 33.59375 48.1875 
Q 44.578125 48.1875 50.953125 41.515625 
Q 57.328125 34.859375 57.328125 23.390625 
Q 57.328125 12.15625 50.6875 5.359375 
Q 44.046875 -1.421875 33.015625 -1.421875 
Q 20.359375 -1.421875 13.671875 8.265625 
Q 6.984375 17.96875 6.984375 36.375 
Q 6.984375 53.65625 15.1875 63.9375 
Q 23.390625 74.21875 37.203125 74.21875 
Q 40.921875 74.21875 44.703125 73.484375 
Q 48.484375 72.75 52.59375 71.296875 
z
" id="DejaVuSans-54"/>
       </defs>
       <use xlink:href="#DejaVuSans-48"/>
       <use x="63.623047" xlink:href="#DejaVuSans-46"/>
       <use x="95.410156" xlink:href="#DejaVuSans-54"/>
      </g>
     </g>
    </g>
    <g id="xtick_5">
     <g id="line2d_5">
      <g>
       <use style="stroke:#000000;stroke-width:0.8;" x="416.945455" xlink:href="#m1593bc30a0" y="384.48"/>
      </g>
     </g>
     <g id="text_5">
      <!-- 0.8 -->
      <g transform="translate(404.222955 403.6375)scale(0.16 -0.16)">
       <defs>
        <path d="M 31.78125 34.625 
Q 24.75 34.625 20.71875 30.859375 
Q 16.703125 27.09375 16.703125 20.515625 
Q 16.703125 13.921875 20.71875 10.15625 
Q 24.75 6.390625 31.78125 6.390625 
Q 38.8125 6.390625 42.859375 10.171875 
Q 46.921875 13.96875 46.921875 20.515625 
Q 46.921875 27.09375 42.890625 30.859375 
Q 38.875 34.625 31.78125 34.625 
z
M 21.921875 38.8125 
Q 15.578125 40.375 12.03125 44.71875 
Q 8.5 49.078125 8.5 55.328125 
Q 8.5 64.0625 14.71875 69.140625 
Q 20.953125 74.21875 31.78125 74.21875 
Q 42.671875 74.21875 48.875 69.140625 
Q 55.078125 64.0625 55.078125 55.328125 
Q 55.078125 49.078125 51.53125 44.71875 
Q 48 40.375 41.703125 38.8125 
Q 48.828125 37.15625 52.796875 32.3125 
Q 56.78125 27.484375 56.78125 20.515625 
Q 56.78125 9.90625 50.3125 4.234375 
Q 43.84375 -1.421875 31.78125 -1.421875 
Q 19.734375 -1.421875 13.25 4.234375 
Q 6.78125 9.90625 6.78125 20.515625 
Q 6.78125 27.484375 10.78125 32.3125 
Q 14.796875 37.15625 21.921875 38.8125 
z
M 18.3125 54.390625 
Q 18.3125 48.734375 21.84375 45.5625 
Q 25.390625 42.390625 31.78125 42.390625 
Q 38.140625 42.390625 41.71875 45.5625 
Q 45.3125 48.734375 45.3125 54.390625 
Q 45.3125 60.0625 41.71875 63.234375 
Q 38.140625 66.40625 31.78125 66.40625 
Q 25.390625 66.40625 21.84375 63.234375 
Q 18.3125 60.0625 18.3125 54.390625 
z
" id="DejaVuSans-56"/>
       </defs>
       <use xlink:href="#DejaVuSans-48"/>
       <use x="63.623047" xlink:href="#DejaVuSans-46"/>
       <use x="95.410156" xlink:href="#DejaVuSans-56"/>
      </g>
     </g>
    </g>
    <g id="xtick_6">
     <g id="line2d_6">
      <g>
       <use style="stroke:#000000;stroke-width:0.8;" x="498.109091" xlink:href="#m1593bc30a0" y="384.48"/>
      </g>
     </g>
     <g id="text_6">
      <!-- 1.0 -->
      <g transform="translate(485.386591 403.6375)scale(0.16 -0.16)">
       <defs>
        <path d="M 12.40625 8.296875 
L 28.515625 8.296875 
L 28.515625 63.921875 
L 10.984375 60.40625 
L 10.984375 69.390625 
L 28.421875 72.90625 
L 38.28125 72.90625 
L 38.28125 8.296875 
L 54.390625 8.296875 
L 54.390625 0 
L 12.40625 0 
z
" id="DejaVuSans-49"/>
       </defs>
       <use xlink:href="#DejaVuSans-49"/>
       <use x="63.623047" xlink:href="#DejaVuSans-46"/>
       <use x="95.410156" xlink:href="#DejaVuSans-48"/>
      </g>
     </g>
    </g>
    <g id="text_7">
     <!-- False Positive Rate -->
     <g transform="translate(220.85375 423.1225)scale(0.16 -0.16)">
      <defs>
       <path d="M 9.8125 72.90625 
L 51.703125 72.90625 
L 51.703125 64.59375 
L 19.671875 64.59375 
L 19.671875 43.109375 
L 48.578125 43.109375 
L 48.578125 34.8125 
L 19.671875 34.8125 
L 19.671875 0 
L 9.8125 0 
z
" id="DejaVuSans-70"/>
       <path d="M 34.28125 27.484375 
Q 23.390625 27.484375 19.1875 25 
Q 14.984375 22.515625 14.984375 16.5 
Q 14.984375 11.71875 18.140625 8.90625 
Q 21.296875 6.109375 26.703125 6.109375 
Q 34.1875 6.109375 38.703125 11.40625 
Q 43.21875 16.703125 43.21875 25.484375 
L 43.21875 27.484375 
z
M 52.203125 31.203125 
L 52.203125 0 
L 43.21875 0 
L 43.21875 8.296875 
Q 40.140625 3.328125 35.546875 0.953125 
Q 30.953125 -1.421875 24.3125 -1.421875 
Q 15.921875 -1.421875 10.953125 3.296875 
Q 6 8.015625 6 15.921875 
Q 6 25.140625 12.171875 29.828125 
Q 18.359375 34.515625 30.609375 34.515625 
L 43.21875 34.515625 
L 43.21875 35.40625 
Q 43.21875 41.609375 39.140625 45 
Q 35.0625 48.390625 27.6875 48.390625 
Q 23 48.390625 18.546875 47.265625 
Q 14.109375 46.140625 10.015625 43.890625 
L 10.015625 52.203125 
Q 14.9375 54.109375 19.578125 55.046875 
Q 24.21875 56 28.609375 56 
Q 40.484375 56 46.34375 49.84375 
Q 52.203125 43.703125 52.203125 31.203125 
z
" id="DejaVuSans-97"/>
       <path d="M 9.421875 75.984375 
L 18.40625 75.984375 
L 18.40625 0 
L 9.421875 0 
z
" id="DejaVuSans-108"/>
       <path d="M 44.28125 53.078125 
L 44.28125 44.578125 
Q 40.484375 46.53125 36.375 47.5 
Q 32.28125 48.484375 27.875 48.484375 
Q 21.1875 48.484375 17.84375 46.4375 
Q 14.5 44.390625 14.5 40.28125 
Q 14.5 37.15625 16.890625 35.375 
Q 19.28125 33.59375 26.515625 31.984375 
L 29.59375 31.296875 
Q 39.15625 29.25 43.1875 25.515625 
Q 47.21875 21.78125 47.21875 15.09375 
Q 47.21875 7.46875 41.1875 3.015625 
Q 35.15625 -1.421875 24.609375 -1.421875 
Q 20.21875 -1.421875 15.453125 -0.5625 
Q 10.6875 0.296875 5.421875 2 
L 5.421875 11.28125 
Q 10.40625 8.6875 15.234375 7.390625 
Q 20.0625 6.109375 24.8125 6.109375 
Q 31.15625 6.109375 34.5625 8.28125 
Q 37.984375 10.453125 37.984375 14.40625 
Q 37.984375 18.0625 35.515625 20.015625 
Q 33.0625 21.96875 24.703125 23.78125 
L 21.578125 24.515625 
Q 13.234375 26.265625 9.515625 29.90625 
Q 5.8125 33.546875 5.8125 39.890625 
Q 5.8125 47.609375 11.28125 51.796875 
Q 16.75 56 26.8125 56 
Q 31.78125 56 36.171875 55.265625 
Q 40.578125 54.546875 44.28125 53.078125 
z
" id="DejaVuSans-115"/>
       <path d="M 56.203125 29.59375 
L 56.203125 25.203125 
L 14.890625 25.203125 
Q 15.484375 15.921875 20.484375 11.0625 
Q 25.484375 6.203125 34.421875 6.203125 
Q 39.59375 6.203125 44.453125 7.46875 
Q 49.3125 8.734375 54.109375 11.28125 
L 54.109375 2.78125 
Q 49.265625 0.734375 44.1875 -0.34375 
Q 39.109375 -1.421875 33.890625 -1.421875 
Q 20.796875 -1.421875 13.15625 6.1875 
Q 5.515625 13.8125 5.515625 26.8125 
Q 5.515625 40.234375 12.765625 48.109375 
Q 20.015625 56 32.328125 56 
Q 43.359375 56 49.78125 48.890625 
Q 56.203125 41.796875 56.203125 29.59375 
z
M 47.21875 32.234375 
Q 47.125 39.59375 43.09375 43.984375 
Q 39.0625 48.390625 32.421875 48.390625 
Q 24.90625 48.390625 20.390625 44.140625 
Q 15.875 39.890625 15.1875 32.171875 
z
" id="DejaVuSans-101"/>
       <path id="DejaVuSans-32"/>
       <path d="M 19.671875 64.796875 
L 19.671875 37.40625 
L 32.078125 37.40625 
Q 38.96875 37.40625 42.71875 40.96875 
Q 46.484375 44.53125 46.484375 51.125 
Q 46.484375 57.671875 42.71875 61.234375 
Q 38.96875 64.796875 32.078125 64.796875 
z
M 9.8125 72.90625 
L 32.078125 72.90625 
Q 44.34375 72.90625 50.609375 67.359375 
Q 56.890625 61.8125 56.890625 51.125 
Q 56.890625 40.328125 50.609375 34.8125 
Q 44.34375 29.296875 32.078125 29.296875 
L 19.671875 29.296875 
L 19.671875 0 
L 9.8125 0 
z
" id="DejaVuSans-80"/>
       <path d="M 30.609375 48.390625 
Q 23.390625 48.390625 19.1875 42.75 
Q 14.984375 37.109375 14.984375 27.296875 
Q 14.984375 17.484375 19.15625 11.84375 
Q 23.34375 6.203125 30.609375 6.203125 
Q 37.796875 6.203125 41.984375 11.859375 
Q 46.1875 17.53125 46.1875 27.296875 
Q 46.1875 37.015625 41.984375 42.703125 
Q 37.796875 48.390625 30.609375 48.390625 
z
M 30.609375 56 
Q 42.328125 56 49.015625 48.375 
Q 55.71875 40.765625 55.71875 27.296875 
Q 55.71875 13.875 49.015625 6.21875 
Q 42.328125 -1.421875 30.609375 -1.421875 
Q 18.84375 -1.421875 12.171875 6.21875 
Q 5.515625 13.875 5.515625 27.296875 
Q 5.515625 40.765625 12.171875 48.375 
Q 18.84375 56 30.609375 56 
z
" id="DejaVuSans-111"/>
       <path d="M 9.421875 54.6875 
L 18.40625 54.6875 
L 18.40625 0 
L 9.421875 0 
z
M 9.421875 75.984375 
L 18.40625 75.984375 
L 18.40625 64.59375 
L 9.421875 64.59375 
z
" id="DejaVuSans-105"/>
       <path d="M 18.3125 70.21875 
L 18.3125 54.6875 
L 36.8125 54.6875 
L 36.8125 47.703125 
L 18.3125 47.703125 
L 18.3125 18.015625 
Q 18.3125 11.328125 20.140625 9.421875 
Q 21.96875 7.515625 27.59375 7.515625 
L 36.8125 7.515625 
L 36.8125 0 
L 27.59375 0 
Q 17.1875 0 13.234375 3.875 
Q 9.28125 7.765625 9.28125 18.015625 
L 9.28125 47.703125 
L 2.6875 47.703125 
L 2.6875 54.6875 
L 9.28125 54.6875 
L 9.28125 70.21875 
z
" id="DejaVuSans-116"/>
       <path d="M 2.984375 54.6875 
L 12.5 54.6875 
L 29.59375 8.796875 
L 46.6875 54.6875 
L 56.203125 54.6875 
L 35.6875 0 
L 23.484375 0 
z
" id="DejaVuSans-118"/>
       <path d="M 44.390625 34.1875 
Q 47.5625 33.109375 50.5625 29.59375 
Q 53.5625 26.078125 56.59375 19.921875 
L 66.609375 0 
L 56 0 
L 46.6875 18.703125 
Q 43.0625 26.03125 39.671875 28.421875 
Q 36.28125 30.8125 30.421875 30.8125 
L 19.671875 30.8125 
L 19.671875 0 
L 9.8125 0 
L 9.8125 72.90625 
L 32.078125 72.90625 
Q 44.578125 72.90625 50.734375 67.671875 
Q 56.890625 62.453125 56.890625 51.90625 
Q 56.890625 45.015625 53.6875 40.46875 
Q 50.484375 35.9375 44.390625 34.1875 
z
M 19.671875 64.796875 
L 19.671875 38.921875 
L 32.078125 38.921875 
Q 39.203125 38.921875 42.84375 42.21875 
Q 46.484375 45.515625 46.484375 51.90625 
Q 46.484375 58.296875 42.84375 61.546875 
Q 39.203125 64.796875 32.078125 64.796875 
z
" id="DejaVuSans-82"/>
      </defs>
      <use xlink:href="#DejaVuSans-70"/>
      <use x="48.394531" xlink:href="#DejaVuSans-97"/>
      <use x="109.673828" xlink:href="#DejaVuSans-108"/>
      <use x="137.457031" xlink:href="#DejaVuSans-115"/>
      <use x="189.556641" xlink:href="#DejaVuSans-101"/>
      <use x="251.080078" xlink:href="#DejaVuSans-32"/>
      <use x="282.867188" xlink:href="#DejaVuSans-80"/>
      <use x="339.544922" xlink:href="#DejaVuSans-111"/>
      <use x="400.726562" xlink:href="#DejaVuSans-115"/>
      <use x="452.826172" xlink:href="#DejaVuSans-105"/>
      <use x="480.609375" xlink:href="#DejaVuSans-116"/>
      <use x="519.818359" xlink:href="#DejaVuSans-105"/>
      <use x="547.601562" xlink:href="#DejaVuSans-118"/>
      <use x="606.78125" xlink:href="#DejaVuSans-101"/>
      <use x="668.304688" xlink:href="#DejaVuSans-32"/>
      <use x="700.091797" xlink:href="#DejaVuSans-82"/>
      <use x="767.324219" xlink:href="#DejaVuSans-97"/>
      <use x="828.603516" xlink:href="#DejaVuSans-116"/>
      <use x="867.8125" xlink:href="#DejaVuSans-101"/>
     </g>
    </g>
   </g>
   <g id="matplotlib.axis_2">
    <g id="ytick_1">
     <g id="line2d_7">
      <defs>
       <path d="M 0 0 
L -3.5 0 
" id="m014b811d85" style="stroke:#000000;stroke-width:0.8;"/>
      </defs>
      <g>
       <use style="stroke:#000000;stroke-width:0.8;" x="72" xlink:href="#m014b811d85" y="369.36"/>
      </g>
     </g>
     <g id="text_8">
      <!-- 0.0 -->
      <g transform="translate(39.555 375.43875)scale(0.16 -0.16)">
       <use xlink:href="#DejaVuSans-48"/>
       <use x="63.623047" xlink:href="#DejaVuSans-46"/>
       <use x="95.410156" xlink:href="#DejaVuSans-48"/>
      </g>
     </g>
    </g>
    <g id="ytick_2">
     <g id="line2d_8">
      <g>
       <use style="stroke:#000000;stroke-width:0.8;" x="72" xlink:href="#m014b811d85" y="308.88"/>
      </g>
     </g>
     <g id="text_9">
      <!-- 0.2 -->
      <g transform="translate(39.555 314.95875)scale(0.16 -0.16)">
       <use xlink:href="#DejaVuSans-48"/>
       <use x="63.623047" xlink:href="#DejaVuSans-46"/>
       <use x="95.410156" xlink:href="#DejaVuSans-50"/>
      </g>
     </g>
    </g>
    <g id="ytick_3">
     <g id="line2d_9">
      <g>
       <use style="stroke:#000000;stroke-width:0.8;" x="72" xlink:href="#m014b811d85" y="248.4"/>
      </g>
     </g>
     <g id="text_10">
      <!-- 0.4 -->
      <g transform="translate(39.555 254.47875)scale(0.16 -0.16)">
       <use xlink:href="#DejaVuSans-48"/>
       <use x="63.623047" xlink:href="#DejaVuSans-46"/>
       <use x="95.410156" xlink:href="#DejaVuSans-52"/>
      </g>
     </g>
    </g>
    <g id="ytick_4">
     <g id="line2d_10">
      <g>
       <use style="stroke:#000000;stroke-width:0.8;" x="72" xlink:href="#m014b811d85" y="187.92"/>
      </g>
     </g>
     <g id="text_11">
      <!-- 0.6 -->
      <g transform="translate(39.555 193.99875)scale(0.16 -0.16)">
       <use xlink:href="#DejaVuSans-48"/>
       <use x="63.623047" xlink:href="#DejaVuSans-46"/>
       <use x="95.410156" xlink:href="#DejaVuSans-54"/>
      </g>
     </g>
    </g>
    <g id="ytick_5">
     <g id="line2d_11">
      <g>
       <use style="stroke:#000000;stroke-width:0.8;" x="72" xlink:href="#m014b811d85" y="127.44"/>
      </g>
     </g>
     <g id="text_12">
      <!-- 0.8 -->
      <g transform="translate(39.555 133.51875)scale(0.16 -0.16)">
       <use xlink:href="#DejaVuSans-48"/>
       <use x="63.623047" xlink:href="#DejaVuSans-46"/>
       <use x="95.410156" xlink:href="#DejaVuSans-56"/>
      </g>
     </g>
    </g>
    <g id="ytick_6">
     <g id="line2d_12">
      <g>
       <use style="stroke:#000000;stroke-width:0.8;" x="72" xlink:href="#m014b811d85" y="66.96"/>
      </g>
     </g>
     <g id="text_13">
      <!-- 1.0 -->
      <g transform="translate(39.555 73.03875)scale(0.16 -0.16)">
       <use xlink:href="#DejaVuSans-49"/>
       <use x="63.623047" xlink:href="#DejaVuSans-46"/>
       <use x="95.410156" xlink:href="#DejaVuSans-48"/>
      </g>
     </g>
    </g>
    <g id="text_14">
     <!-- True Positive Rate -->
     <g transform="translate(32.2275 289.4075)rotate(-90)scale(0.16 -0.16)">
      <defs>
       <path d="M -0.296875 72.90625 
L 61.375 72.90625 
L 61.375 64.59375 
L 35.5 64.59375 
L 35.5 0 
L 25.59375 0 
L 25.59375 64.59375 
L -0.296875 64.59375 
z
" id="DejaVuSans-84"/>
       <path d="M 41.109375 46.296875 
Q 39.59375 47.171875 37.8125 47.578125 
Q 36.03125 48 33.890625 48 
Q 26.265625 48 22.1875 43.046875 
Q 18.109375 38.09375 18.109375 28.8125 
L 18.109375 0 
L 9.078125 0 
L 9.078125 54.6875 
L 18.109375 54.6875 
L 18.109375 46.1875 
Q 20.953125 51.171875 25.484375 53.578125 
Q 30.03125 56 36.53125 56 
Q 37.453125 56 38.578125 55.875 
Q 39.703125 55.765625 41.0625 55.515625 
z
" id="DejaVuSans-114"/>
       <path d="M 8.5 21.578125 
L 8.5 54.6875 
L 17.484375 54.6875 
L 17.484375 21.921875 
Q 17.484375 14.15625 20.5 10.265625 
Q 23.53125 6.390625 29.59375 6.390625 
Q 36.859375 6.390625 41.078125 11.03125 
Q 45.3125 15.671875 45.3125 23.6875 
L 45.3125 54.6875 
L 54.296875 54.6875 
L 54.296875 0 
L 45.3125 0 
L 45.3125 8.40625 
Q 42.046875 3.421875 37.71875 1 
Q 33.40625 -1.421875 27.6875 -1.421875 
Q 18.265625 -1.421875 13.375 4.4375 
Q 8.5 10.296875 8.5 21.578125 
z
M 31.109375 56 
z
" id="DejaVuSans-117"/>
      </defs>
      <use xlink:href="#DejaVuSans-84"/>
      <use x="46.333984" xlink:href="#DejaVuSans-114"/>
      <use x="87.447266" xlink:href="#DejaVuSans-117"/>
      <use x="150.826172" xlink:href="#DejaVuSans-101"/>
      <use x="212.349609" xlink:href="#DejaVuSans-32"/>
      <use x="244.136719" xlink:href="#DejaVuSans-80"/>
      <use x="300.814453" xlink:href="#DejaVuSans-111"/>
      <use x="361.996094" xlink:href="#DejaVuSans-115"/>
      <use x="414.095703" xlink:href="#DejaVuSans-105"/>
      <use x="441.878906" xlink:href="#DejaVuSans-116"/>
      <use x="481.087891" xlink:href="#DejaVuSans-105"/>
      <use x="508.871094" xlink:href="#DejaVuSans-118"/>
      <use x="568.050781" xlink:href="#DejaVuSans-101"/>
      <use x="629.574219" xlink:href="#DejaVuSans-32"/>
      <use x="661.361328" xlink:href="#DejaVuSans-82"/>
      <use x="728.59375" xlink:href="#DejaVuSans-97"/>
      <use x="789.873047" xlink:href="#DejaVuSans-116"/>
      <use x="829.082031" xlink:href="#DejaVuSans-101"/>
     </g>
    </g>
   </g>
   <g id="line2d_13">
    <path clip-path="url(#p31ce66b323)" d="M 92.290909 369.36 
L 498.109091 66.96 
" style="fill:none;stroke:#0000ff;stroke-linecap:square;stroke-width:1.5;"/>
   </g>
   <g id="line2d_14">
    <path clip-path="url(#p31ce66b323)" d="M 92.290909 369.36 
L 92.401924 354.071063 
L 92.404113 353.961334 
L 92.515127 345.37045 
L 92.517316 345.269865 
L 92.628331 338.745549 
L 92.630207 338.640392 
L 92.741222 332.216661 
L 92.742785 332.106932 
L 92.8538 326.135833 
L 92.856927 326.030676 
L 92.967941 320.105299 
L 92.972632 319.995569 
L 93.083334 314.714851 
L 93.085836 314.627982 
L 93.19685 309.324403 
L 93.198727 309.242106 
L 93.309741 304.820933 
L 93.312243 304.72492 
L 93.423257 300.390616 
L 93.428574 300.290031 
L 93.428574 300.280887 
L 93.539275 296.20719 
L 93.544592 296.106605 
L 93.655293 291.795161 
L 93.656544 291.708292 
L 93.767246 287.71232 
L 93.771311 287.616307 
L 93.882013 283.995243 
L 93.885766 283.903802 
L 93.885766 283.890086 
L 93.99678 280.250733 
L 93.998969 280.145576 
L 93.998969 280.141004 
L 94.108733 276.881132 
L 94.113424 276.780547 
L 94.113424 276.775975 
L 94.224126 273.891011 
L 94.228191 273.790426 
L 94.338893 270.649427 
L 94.344209 270.54427 
L 94.455224 267.631874 
L 94.458663 267.526717 
L 94.569365 264.541168 
L 94.57562 264.43601 
L 94.686321 261.793365 
L 94.690074 261.688208 
L 94.801089 259.013558 
L 94.805467 258.903829 
L 94.915543 256.224607 
L 94.916481 256.224607 
L 94.920546 256.124022 
L 95.031248 253.837997 
L 95.038753 253.728268 
L 95.149768 251.062762 
L 95.154771 250.971321 
L 95.265473 248.465838 
L 95.273291 248.356108 
L 95.384306 245.864341 
L 95.393375 245.754612 
L 95.504389 243.139399 
L 95.511269 243.034241 
L 95.621658 240.478465 
L 95.622283 240.478465 
L 95.627287 240.391596 
L 95.738301 238.288453 
L 95.744868 238.19244 
L 95.853694 235.764681 
L 95.855258 235.764681 
L 95.858385 235.654952 
L 95.969399 233.4878 
L 95.975966 233.382643 
L 96.086981 231.078329 
L 96.091359 230.982316 
L 96.091359 230.977744 
L 96.202373 229.066627 
L 96.209253 228.956898 
L 96.320268 226.830894 
L 96.328086 226.721165 
L 96.4391 224.732323 
L 96.450358 224.622594 
L 96.561373 222.729765 
L 96.57138 222.624607 
L 96.682394 220.978669 
L 96.690212 220.887228 
L 96.800601 219.181853 
L 96.809044 219.072124 
L 96.919746 217.161007 
L 96.925062 217.087854 
L 97.036077 215.45106 
L 97.043582 215.345903 
L 97.154284 213.654244 
L 97.16648 213.544515 
L 97.277182 211.665402 
L 97.280934 211.555673 
L 97.391949 210.316647 
L 97.40352 210.206918 
L 97.514534 208.368954 
L 97.521727 208.259224 
L 97.632116 206.361823 
L 97.640559 206.256666 
L 97.750635 204.473566 
L 97.760955 204.363837 
L 97.871657 202.909925 
L 97.87666 202.800196 
L 97.987675 201.113109 
L 97.997995 201.00338 
L 98.108384 199.389446 
L 98.108696 199.389446 
L 98.119641 199.288861 
L 98.229405 198.109272 
L 98.230031 198.109272 
L 98.237223 198.004115 
L 98.347299 196.687364 
L 98.347612 196.687364 
L 98.359183 196.582207 
L 98.469885 194.936269 
L 98.477702 194.82654 
L 98.588092 193.564654 
L 98.600288 193.454924 
L 98.710677 192.023873 
L 98.721934 191.923288 
L 98.832949 190.47852 
L 98.839829 190.373362 
L 98.950218 188.818865 
L 98.96085 188.709136 
L 99.071552 187.31466 
L 99.090315 187.209503 
L 99.20133 185.668722 
L 99.210711 185.563565 
L 99.321726 184.443413 
L 99.331733 184.333683 
L 99.436493 183.606727 
L 99.442747 183.606727 
L 99.450878 183.496998 
L 99.561892 182.088807 
L 99.568147 181.979077 
L 99.679161 180.749196 
L 99.691044 180.639467 
L 99.802059 179.446161 
L 99.817069 179.341004 
L 99.928084 178.271144 
L 99.939029 178.165987 
L 100.049731 176.922389 
L 100.050044 176.922389 
L 100.060363 176.81266 
L 100.170752 175.67422 
L 100.180447 175.573635 
L 100.291148 174.599788 
L 100.302719 174.490059 
L 100.413733 173.347046 
L 100.445005 173.237317 
L 100.55602 172.103448 
L 100.566339 172.002863 
L 100.677041 170.809558 
L 100.693928 170.699829 
L 100.804004 169.474519 
L 100.804942 169.474519 
L 100.817451 169.36479 
L 100.926589 168.422947 
L 100.939098 168.313218 
L 101.0498 167.421668 
L 101.058243 167.339371 
L 101.058243 167.325655 
L 101.169258 166.429533 
L 101.183643 166.319804 
L 101.294032 165.483119 
L 101.309355 165.37339 
L 101.42037 164.477268 
L 101.429751 164.367538 
L 101.539827 163.357115 
L 101.549834 163.247386 
L 101.659911 162.177526 
L 101.671481 162.072369 
L 101.671481 162.067797 
L 101.782183 160.943073 
L 101.782496 160.943073 
L 101.796255 160.851632 
L 101.906957 159.864069 
L 101.920717 159.758911 
L 102.031419 158.913082 
L 102.047054 158.803353 
L 102.158069 157.774641 
L 102.164011 157.664912 
L 102.275025 156.787079 
L 102.280967 156.686493 
L 102.391669 155.648638 
L 102.410744 155.543481 
L 102.521759 154.674791 
L 102.533329 154.569634 
L 102.533329 154.565062 
L 102.644344 153.710088 
L 102.662481 153.614075 
L 102.773496 152.786534 
L 102.786943 152.681377 
L 102.897332 151.821832 
L 102.914531 151.712102 
L 103.024608 150.7474 
L 103.044934 150.63767 
L 103.154698 149.837562 
L 103.16877 149.727832 
L 103.278847 148.9643 
L 103.300737 148.863715 
L 103.300737 148.854571 
L 103.411751 148.063606 
L 103.439896 147.953877 
L 103.549972 147.190344 
L 103.564357 147.089759 
L 103.673183 146.294222 
L 103.695073 146.184493 
L 103.805775 145.608415 
L 103.817971 145.498686 
L 103.92836 144.758013 
L 103.955879 144.652856 
L 104.065955 143.916756 
L 104.066581 143.916756 
L 104.078464 143.807027 
L 104.189166 143.102931 
L 104.202613 142.993202 
L 104.311126 142.311966 
L 104.313627 142.311966 
L 104.329576 142.202237 
L 104.44059 141.20553 
L 104.463419 141.100373 
L 104.574121 140.474002 
L 104.593196 140.364273 
L 104.704211 139.719614 
L 104.715781 139.619028 
L 104.824607 138.99723 
L 104.82492 138.99723 
L 104.855879 138.8875 
L 104.96658 138.187977 
L 104.987532 138.078247 
L 105.097609 137.291855 
L 105.111368 137.182125 
L 105.22207 136.578615 
L 105.258033 136.468886 
L 105.366545 135.856231 
L 105.368109 135.856231 
L 105.389061 135.746502 
L 105.499137 135.184139 
L 105.517275 135.078982 
L 105.627977 134.411463 
L 105.655183 134.310878 
L 105.764322 133.615926 
L 105.777768 133.506197 
L 105.887532 132.957551 
L 105.903793 132.847821 
L 106.014495 132.061429 
L 106.036073 131.956272 
L 106.146774 131.366477 
L 106.170228 131.256748 
L 106.281243 130.584656 
L 106.309075 130.474927 
L 106.418213 129.853128 
L 106.439478 129.747971 
L 106.550492 129.139888 
L 106.574884 129.030159 
L 106.685586 128.527234 
L 106.701847 128.417504 
L 106.811298 128.042596 
L 106.837879 127.932867 
L 106.948581 127.429941 
L 106.974849 127.320212 
L 107.085864 126.776138 
L 107.10275 126.670981 
L 107.213765 126.227492 
L 107.246913 126.122335 
L 107.356364 125.559973 
L 107.378254 125.450244 
L 107.488956 124.874165 
L 107.526482 124.764436 
L 107.637496 124.343807 
L 107.67471 124.23865 
L 107.782284 123.70372 
L 107.783848 123.70372 
L 107.815432 123.593991 
L 107.925509 123.14593 
L 107.926134 123.14593 
L 107.978045 123.036201 
L 108.08906 122.428118 
L 108.114703 122.322961 
L 108.225404 121.948053 
L 108.261992 121.838324 
L 108.373007 121.33997 
L 108.390832 121.230241 
L 108.498094 120.855333 
L 108.501221 120.855333 
L 108.529991 120.745603 
L 108.640693 120.338691 
L 108.68072 120.228962 
L 108.789546 119.817477 
L 108.828948 119.71232 
L 108.939025 119.277975 
L 108.985619 119.168246 
L 109.096634 118.752189 
L 109.120088 118.64246 
L 109.230164 118.157823 
L 109.266439 118.048094 
L 109.377454 117.668613 
L 109.411853 117.563456 
L 109.522867 117.174832 
L 109.542881 117.065103 
L 109.652332 116.781636 
L 109.652645 116.781636 
L 109.704243 116.671906 
L 109.814632 116.25585 
L 109.83621 116.146121 
L 109.945661 115.688915 
L 109.979434 115.579186 
L 110.089511 115.217994 
L 110.136418 115.108265 
L 110.246494 114.82937 
L 110.275264 114.724213 
L 110.385028 114.331016 
L 110.425056 114.221287 
L 110.53607 113.823519 
L 110.572971 113.71379 
L 110.683986 113.306877 
L 110.721824 113.197148 
L 110.831275 112.872532 
L 110.874117 112.762803 
L 110.985132 112.433615 
L 111.028287 112.323886 
L 111.135549 111.962694 
L 111.137738 111.962694 
L 111.178704 111.857537 
L 111.28878 111.555782 
L 111.289406 111.555782 
L 111.33131 111.446053 
L 111.439197 111.089433 
L 111.43951 111.089433 
L 111.47172 110.979703 
L 111.581796 110.595651 
L 111.582734 110.595651 
L 111.610879 110.485922 
L 111.720017 110.115586 
L 111.755979 110.005857 
L 111.864492 109.658381 
L 111.866369 109.658381 
L 111.904833 109.548652 
L 112.015535 109.306333 
L 112.05869 109.196604 
L 112.169704 108.890276 
L 112.217862 108.785119 
L 112.328252 108.455931 
L 112.383603 108.346202 
L 112.488988 108.071879 
L 112.49149 108.071879 
L 112.541837 107.96215 
L 112.650976 107.596386 
L 112.70789 107.486657 
L 112.816403 107.244338 
L 112.818592 107.244338 
L 112.885826 107.134609 
L 112.996215 106.837426 
L 113.048439 106.727696 
L 113.152261 106.508238 
L 113.158828 106.508238 
L 113.215117 106.398509 
L 113.325819 106.073893 
L 113.404624 105.964164 
L 113.515638 105.708129 
L 113.556291 105.5984 
L 113.666993 105.324077 
L 113.667306 105.324077 
L 113.715464 105.21892 
L 113.825228 105.017749 
L 113.888084 104.90802 
L 113.991906 104.656557 
L 113.998786 104.656557 
L 114.058202 104.546828 
L 114.168278 104.277077 
L 114.168904 104.277077 
L 114.212372 104.167348 
L 114.321197 103.925029 
L 114.379675 103.8153 
L 114.49069 103.577553 
L 114.537597 103.467824 
L 114.646736 103.211789 
L 114.698021 103.106632 
L 114.808097 102.809449 
L 114.879084 102.69972 
L 114.990099 102.457401 
L 115.061398 102.347672 
L 115.1721 102.087065 
L 115.217757 101.977336 
L 115.41727 101.556707 
L 115.454484 101.446978 
L 115.565498 101.222947 
L 115.626791 101.113218 
L 115.729049 100.884616 
L 115.733427 100.884616 
L 115.811919 100.774886 
L 115.916679 100.573716 
L 115.922934 100.573716 
L 115.987041 100.463987 
L 116.096179 100.244529 
L 116.098055 100.244529 
L 116.149653 100.134799 
L 116.25973 99.897053 
L 116.260043 99.897053 
L 116.304761 99.787323 
L 116.413274 99.618158 
L 116.461745 99.508428 
L 116.566818 99.320974 
L 116.57276 99.320974 
L 116.646248 99.211245 
L 116.736311 99.064939 
L 116.736936 99.064939 
L 116.83638 98.95521 
L 116.947395 98.735752 
L 117.031203 98.626023 
L 117.141279 98.438569 
L 117.23916 98.328839 
L 117.348923 98.104809 
L 117.432106 97.99508 
L 117.542182 97.748189 
L 117.620362 97.643032 
L 117.729187 97.345848 
L 117.731376 97.345848 
L 117.784538 97.240691 
L 117.892425 97.053237 
L 117.893676 97.053237 
L 117.959972 96.943508 
L 118.070361 96.774342 
L 118.149479 96.664613 
L 118.230472 96.536595 
L 118.236101 96.536595 
L 118.333044 96.426866 
L 118.44312 96.266844 
L 118.504413 96.157115 
L 118.613864 95.951373 
L 118.615114 95.951373 
L 118.697672 95.841644 
L 118.807748 95.67705 
L 118.878109 95.567321 
L 118.989124 95.357006 
L 119.056045 95.247277 
L 119.165809 95.064395 
L 119.166747 95.064395 
L 119.23961 94.954666 
L 119.349061 94.794644 
L 119.350312 94.794644 
L 119.426928 94.689487 
L 119.535753 94.479173 
L 119.626754 94.369443 
L 119.733078 94.195706 
L 119.734954 94.195706 
L 119.809068 94.099692 
L 119.809068 94.09512 
L 119.918832 93.953387 
L 119.920082 93.953387 
L 120.018588 93.843658 
L 120.128977 93.665348 
L 120.129603 93.665348 
L 120.197775 93.555618 
L 120.308164 93.409313 
L 120.376024 93.299584 
L 120.485788 93.185282 
L 120.487038 93.185282 
L 120.569283 93.075553 
L 120.675607 92.897243 
L 120.677483 92.897243 
L 120.740026 92.787514 
L 120.850103 92.590916 
L 120.933598 92.481187 
L 121.038359 92.394318 
L 121.043049 92.394318 
L 121.179081 92.284588 
L 121.264453 92.197719 
L 121.287594 92.197719 
L 121.342945 92.097134 
L 121.453021 91.918824 
L 121.550589 91.809095 
L 121.660978 91.690222 
L 121.765738 91.580493 
L 121.872687 91.489052 
L 121.983077 91.383894 
L 122.091589 91.251305 
L 122.191033 91.141576 
L 122.296106 91.004414 
L 122.301735 91.004414 
L 122.408997 90.894685 
L 122.512507 90.789528 
L 122.516572 90.789528 
L 122.616016 90.679799 
L 122.725467 90.519777 
L 122.819907 90.410048 
L 122.927795 90.240882 
L 122.930922 90.240882 
L 123.046627 90.135725 
L 123.157016 89.984847 
L 123.304931 89.875118 
L 123.408128 89.728812 
L 123.41407 89.728812 
L 123.506008 89.619083 
L 123.604202 89.509354 
L 123.616398 89.509354 
L 123.717718 89.399624 
L 123.826543 89.299039 
L 123.913479 89.18931 
L 124.024181 89.052149 
L 124.11737 88.942419 
L 124.223381 88.754965 
L 124.22557 88.754965 
L 124.307502 88.645236 
L 124.416328 88.544651 
L 124.613965 88.434922 
L 124.72279 88.284044 
L 124.724667 88.284044 
L 124.809413 88.174315 
L 124.918551 88.082874 
L 124.920427 88.082874 
L 125.060525 87.973145 
L 125.167474 87.881704 
L 125.169663 87.881704 
L 125.296313 87.771974 
L 125.406077 87.611953 
L 125.535542 87.502223 
L 125.635924 87.397066 
L 125.645931 87.397066 
L 125.8001 87.287337 
L 125.901733 87.200468 
L 125.907362 87.200468 
L 126.105625 87.090739 
L 126.211949 86.990154 
L 126.352984 86.880425 
L 126.449301 86.8027 
L 126.459308 86.8027 
L 126.598467 86.69297 
L 126.708231 86.564953 
L 126.86584 86.455224 
L 126.976542 86.359211 
L 126.976855 86.359211 
L 127.150412 86.249482 
L 127.253609 86.162613 
L 127.257362 86.162613 
L 127.332414 86.052883 
L 127.436861 85.952298 
L 127.44249 85.952298 
L 127.53568 85.842569 
L 127.637626 85.723696 
L 127.646382 85.723696 
L 127.738633 85.613967 
L 127.849335 85.458517 
L 127.927827 85.348788 
L 128.03634 85.275635 
L 128.243358 85.165906 
L 128.353435 85.092753 
L 128.354373 85.092753 
L 128.505728 84.983024 
L 128.616743 84.88701 
L 128.777479 84.777281 
L 128.88693 84.658408 
L 128.887868 84.658408 
L 129.070808 84.548679 
L 129.154616 84.425233 
L 129.180259 84.425233 
L 129.304095 84.315504 
L 129.411982 84.246923 
L 129.642142 84.137194 
L 129.753156 84.041181 
L 129.897319 83.931452 
L 129.997388 83.821723 
L 130.007395 83.821723 
L 130.13686 83.716566 
L 130.237242 83.634269 
L 130.247874 83.634269 
L 130.394851 83.524539 
L 130.502426 83.43767 
L 130.504302 83.43767 
L 130.696623 83.327941 
L 130.792315 83.25936 
L 130.807013 83.25936 
L 130.985574 83.149631 
L 131.091272 83.08105 
L 131.096276 83.08105 
L 131.287971 82.971321 
L 131.39836 82.893596 
L 131.522196 82.783867 
L 131.622266 82.674138 
L 131.632273 82.674138 
L 131.826783 82.564409 
L 131.931856 82.491256 
L 131.935608 82.491256 
L 132.177026 82.381527 
L 132.281786 82.285514 
L 132.287728 82.285514 
L 132.471918 82.175784 
L 132.580431 82.093488 
L 132.58262 82.093488 
L 132.72303 81.983758 
L 132.822474 81.915178 
L 132.832481 81.915178 
L 133.027929 81.805448 
L 133.138631 81.700291 
L 133.138943 81.700291 
L 133.310625 81.590562 
L 133.417261 81.489977 
L 133.624906 81.380248 
L 133.733418 81.297951 
L 133.734044 81.297951 
L 133.917296 81.188222 
L 134.027372 81.096781 
L 134.02831 81.096781 
L 134.235955 80.987051 
L 134.338213 80.923043 
L 134.346656 80.923043 
L 134.500513 80.813313 
L 134.602772 80.721872 
L 134.611528 80.721872 
L 134.781333 80.612143 
L 134.888908 80.529846 
L 134.88922 80.529846 
L 135.0756 80.420117 
L 135.177858 80.378969 
L 135.183487 80.378969 
L 135.429283 80.269239 
L 135.50152 80.223519 
L 135.505273 80.223519 
L 135.769206 80.11379 
L 135.873341 80.045209 
L 135.877719 80.045209 
L 136.105064 79.93548 
L 136.21045 79.876043 
L 136.212326 79.876043 
L 136.434042 79.766314 
L 136.52473 79.688589 
L 136.540053 79.688589 
L 136.689219 79.57886 
L 136.777718 79.533139 
L 136.798983 79.533139 
L 136.983173 79.42341 
L 137.043841 79.377689 
L 137.09325 79.377689 
L 137.289636 79.26796 
L 137.39596 79.19938 
L 137.398774 79.19938 
L 137.563576 79.08965 
L 137.653951 79.02107 
L 137.671151 79.02107 
L 137.916946 78.91134 
L 138.017329 78.874764 
L 138.021707 78.874764 
L 138.181505 78.765035 
L 138.269691 78.73303 
L 138.29252 78.73303 
L 138.615869 78.623301 
L 138.715313 78.577581 
L 138.724382 78.577581 
L 138.935466 78.467851 
L 139.000511 78.426703 
L 139.008329 78.426703 
L 139.226293 78.316974 
L 139.312915 78.257537 
L 139.337307 78.257537 
L 139.636577 78.147808 
L 139.743214 78.111231 
L 139.746966 78.111231 
L 139.884875 78.006074 
L 139.992762 77.978642 
L 139.995264 77.978642 
L 140.245125 77.868913 
L 140.352699 77.827764 
L 140.353637 77.827764 
L 140.560656 77.718035 
L 140.664791 77.681459 
L 140.668543 77.681459 
L 141.012845 77.576302 
L 141.120107 77.516865 
L 141.414686 77.407136 
L 141.500058 77.379703 
L 141.525388 77.379703 
L 141.906277 77.269974 
L 142.010099 77.228826 
L 142.016666 77.228826 
L 142.372226 77.119096 
L 142.469481 77.041372 
L 142.477924 77.041372 
L 142.729974 76.931642 
L 142.840989 76.890494 
L 143.145888 76.780765 
L 143.245957 76.753332 
L 143.256902 76.753332 
L 143.495505 76.643603 
L 143.543664 76.616171 
L 143.605582 76.616171 
L 143.818855 76.506442 
L 143.91267 76.451577 
L 143.929244 76.451577 
L 144.293246 76.341848 
L 144.397068 76.318988 
L 144.40301 76.318988 
L 144.719167 76.209258 
L 144.78859 76.172682 
L 144.826429 76.172682 
L 145.252037 76.062953 
L 145.358986 76.026376 
L 145.361175 76.026376 
L 145.770834 75.916647 
L 145.879347 75.857211 
L 145.880285 75.857211 
L 146.215205 75.747481 
L 146.324656 75.706333 
L 146.325907 75.706333 
L 146.811244 75.596604 
L 146.915691 75.564599 
L 146.920382 75.564599 
L 147.261243 75.45487 
L 147.35287 75.404577 
L 147.369444 75.404577 
L 147.734384 75.294848 
L 147.814127 75.2537 
L 147.839457 75.2537 
L 148.236921 75.143971 
L 148.326983 75.116538 
L 148.346684 75.116538 
L 148.804815 75.006809 
L 148.914891 74.970233 
L 149.195085 74.860503 
L 149.242306 74.823927 
L 149.305162 74.823927 
L 149.786433 74.714198 
L 149.89307 74.686766 
L 149.894321 74.686766 
L 150.334001 74.577036 
L 150.399359 74.545032 
L 150.445015 74.545032 
L 150.935981 74.435303 
L 151.026669 74.403298 
L 151.046683 74.403298 
L 151.633965 74.293569 
L 151.718399 74.247849 
L 151.742791 74.247849 
L 152.253458 74.138119 
L 152.354153 74.092399 
L 152.355404 74.092399 
L 152.834486 73.98267 
L 152.939246 73.936949 
L 152.945501 73.936949 
L 153.325452 73.82722 
L 153.394875 73.813504 
L 153.435841 73.813504 
L 153.933999 73.703775 
L 154.041261 73.67177 
L 154.044701 73.67177 
L 154.512838 73.562041 
L 154.593832 73.543753 
L 154.622915 73.543753 
L 155.087612 73.434024 
L 155.087612 73.429452 
L 155.196438 73.429452 
L 155.735875 73.319722 
L 155.845638 73.29229 
L 156.424165 73.182561 
L 156.52142 73.141412 
L 156.535179 73.141412 
L 157.121211 73.031683 
L 157.212837 72.999679 
L 157.232225 72.999679 
L 157.722253 72.88995 
L 157.816693 72.867089 
L 157.832955 72.867089 
L 158.441189 72.75736 
L 158.537506 72.729928 
L 158.549702 72.729928 
L 159.035664 72.620199 
L 159.136047 72.60191 
L 159.136672 72.60191 
L 159.728958 72.492181 
L 159.795254 72.483037 
L 159.839347 72.483037 
L 160.668985 72.373308 
L 160.770306 72.336732 
L 160.779374 72.336732 
L 161.692195 72.227002 
L 161.766935 72.217858 
L 161.802897 72.217858 
L 162.883022 72.108129 
L 162.954009 72.089841 
L 162.993724 72.089841 
L 163.600082 71.980112 
L 163.699213 71.966395 
L 163.709846 71.966395 
L 164.415335 71.856666 
L 164.454737 71.847522 
L 164.525724 71.847522 
L 165.374751 71.737793 
L 165.465752 71.714933 
L 165.484515 71.714933 
L 166.274438 71.605203 
L 166.382012 71.586915 
L 166.38514 71.586915 
L 167.508732 71.477186 
L 167.600983 71.454326 
L 167.619434 71.454326 
L 168.656091 71.344597 
L 168.753033 71.33088 
L 168.766792 71.33088 
L 169.66429 71.221151 
L 169.763421 71.202863 
L 169.773116 71.202863 
L 170.983643 71.093134 
L 170.983643 71.088562 
L 171.094345 71.088562 
L 172.044692 70.978832 
L 172.154456 70.955972 
L 172.155394 70.955972 
L 173.355602 70.846243 
L 173.393753 70.837099 
L 173.464115 70.837099 
L 174.739062 70.72737 
L 174.846949 70.704509 
L 174.849764 70.704509 
L 176.131278 70.59478 
L 176.236664 70.576492 
L 176.240729 70.576492 
L 177.46314 70.466763 
L 177.485343 70.453047 
L 177.57134 70.453047 
L 178.769359 70.343317 
L 178.880061 70.329601 
L 180.334195 70.219872 
L 180.334195 70.2153 
L 180.444271 70.2153 
L 181.630407 70.105571 
L 181.73204 70.096427 
L 181.741108 70.096427 
L 183.488571 69.986698 
L 183.537042 69.977553 
L 183.599586 69.977553 
L 186.403719 69.867824 
L 186.449688 69.85868 
L 186.514108 69.85868 
L 189.170952 69.748951 
L 189.231932 69.739807 
L 189.237873 69.739807 
L 191.591069 69.630078 
L 191.675502 69.616361 
L 191.698331 69.616361 
L 194.164417 69.506632 
L 194.164417 69.50206 
L 194.262923 69.50206 
L 196.081372 69.392331 
L 196.180816 69.378615 
L 196.188009 69.378615 
L 198.033039 69.268886 
L 198.082761 69.259741 
L 198.143428 69.259741 
L 200.997909 69.150012 
L 201.076714 69.131724 
L 201.108924 69.131724 
L 203.695719 69.021995 
L 203.711668 69.012851 
L 203.806733 69.012851 
L 207.237552 68.903122 
L 207.237552 68.898549 
L 207.347003 68.898549 
L 211.087098 68.78882 
L 211.134006 68.779676 
L 211.196549 68.779676 
L 214.708361 68.669947 
L 214.708361 68.665375 
L 214.819376 68.665375 
L 217.688554 68.555646 
L 217.722953 68.546502 
L 217.798631 68.546502 
L 221.930248 68.436772 
L 221.930248 68.4322 
L 222.040324 68.4322 
L 226.973748 68.322471 
L 227.065374 68.313327 
L 227.084762 68.313327 
L 232.991049 68.203598 
L 232.991049 68.199026 
L 233.097372 68.199026 
L 243.215957 68.089297 
L 243.215957 68.084724 
L 243.326346 68.084724 
L 248.625023 67.974995 
L 248.625023 67.970423 
L 248.735412 67.970423 
L 257.11873 67.860694 
L 257.11873 67.856122 
L 257.225992 67.856122 
L 266.405174 67.746393 
L 266.421435 67.737249 
L 266.515876 67.737249 
L 279.290053 67.627519 
L 279.290053 67.622947 
L 279.400442 67.622947 
L 293.727259 67.513218 
L 293.820762 67.504074 
L 293.838274 67.504074 
L 309.234583 67.394345 
L 309.234583 67.389773 
L 309.339343 67.389773 
L 331.681097 67.280044 
L 331.681097 67.275471 
L 331.791487 67.275471 
L 357.812982 67.165742 
L 357.812982 67.16117 
L 357.923996 67.16117 
L 403.477171 67.051441 
L 403.477171 67.046869 
L 403.588185 67.046869 
L 498.109091 66.96 
L 498.109091 66.96 
" style="fill:none;stroke:#ff0000;stroke-linecap:square;stroke-width:1.5;"/>
   </g>
   <g id="patch_3">
    <path d="M 72 384.48 
L 72 51.84 
" style="fill:none;stroke:#000000;stroke-linecap:square;stroke-linejoin:miter;stroke-width:0.8;"/>
   </g>
   <g id="patch_4">
    <path d="M 518.4 384.48 
L 518.4 51.84 
" style="fill:none;stroke:#000000;stroke-linecap:square;stroke-linejoin:miter;stroke-width:0.8;"/>
   </g>
   <g id="patch_5">
    <path d="M 72 384.48 
L 518.4 384.48 
" style="fill:none;stroke:#000000;stroke-linecap:square;stroke-linejoin:miter;stroke-width:0.8;"/>
   </g>
   <g id="patch_6">
    <path d="M 72 51.84 
L 518.4 51.84 
" style="fill:none;stroke:#000000;stroke-linecap:square;stroke-linejoin:miter;stroke-width:0.8;"/>
   </g>
   <g id="text_15">
    <!-- ROC Curves -->
    <g transform="translate(237.894 45.84)scale(0.192 -0.192)">
     <defs>
      <path d="M 39.40625 66.21875 
Q 28.65625 66.21875 22.328125 58.203125 
Q 16.015625 50.203125 16.015625 36.375 
Q 16.015625 22.609375 22.328125 14.59375 
Q 28.65625 6.59375 39.40625 6.59375 
Q 50.140625 6.59375 56.421875 14.59375 
Q 62.703125 22.609375 62.703125 36.375 
Q 62.703125 50.203125 56.421875 58.203125 
Q 50.140625 66.21875 39.40625 66.21875 
z
M 39.40625 74.21875 
Q 54.734375 74.21875 63.90625 63.9375 
Q 73.09375 53.65625 73.09375 36.375 
Q 73.09375 19.140625 63.90625 8.859375 
Q 54.734375 -1.421875 39.40625 -1.421875 
Q 24.03125 -1.421875 14.8125 8.828125 
Q 5.609375 19.09375 5.609375 36.375 
Q 5.609375 53.65625 14.8125 63.9375 
Q 24.03125 74.21875 39.40625 74.21875 
z
" id="DejaVuSans-79"/>
      <path d="M 64.40625 67.28125 
L 64.40625 56.890625 
Q 59.421875 61.53125 53.78125 63.8125 
Q 48.140625 66.109375 41.796875 66.109375 
Q 29.296875 66.109375 22.65625 58.46875 
Q 16.015625 50.828125 16.015625 36.375 
Q 16.015625 21.96875 22.65625 14.328125 
Q 29.296875 6.6875 41.796875 6.6875 
Q 48.140625 6.6875 53.78125 8.984375 
Q 59.421875 11.28125 64.40625 15.921875 
L 64.40625 5.609375 
Q 59.234375 2.09375 53.4375 0.328125 
Q 47.65625 -1.421875 41.21875 -1.421875 
Q 24.65625 -1.421875 15.125 8.703125 
Q 5.609375 18.84375 5.609375 36.375 
Q 5.609375 53.953125 15.125 64.078125 
Q 24.65625 74.21875 41.21875 74.21875 
Q 47.75 74.21875 53.53125 72.484375 
Q 59.328125 70.75 64.40625 67.28125 
z
" id="DejaVuSans-67"/>
     </defs>
     <use xlink:href="#DejaVuSans-82"/>
     <use x="69.482422" xlink:href="#DejaVuSans-79"/>
     <use x="148.193359" xlink:href="#DejaVuSans-67"/>
     <use x="218.017578" xlink:href="#DejaVuSans-32"/>
     <use x="249.804688" xlink:href="#DejaVuSans-67"/>
     <use x="319.628906" xlink:href="#DejaVuSans-117"/>
     <use x="383.007812" xlink:href="#DejaVuSans-114"/>
     <use x="424.121094" xlink:href="#DejaVuSans-118"/>
     <use x="483.300781" xlink:href="#DejaVuSans-101"/>
     <use x="544.824219" xlink:href="#DejaVuSans-115"/>
    </g>
   </g>
   <g id="legend_1">
    <g id="patch_7">
     <path d="M 388.9825 376.48 
L 507.2 376.48 
Q 510.4 376.48 510.4 373.28 
L 510.4 327.91 
Q 510.4 324.71 507.2 324.71 
L 388.9825 324.71 
Q 385.7825 324.71 385.7825 327.91 
L 385.7825 373.28 
Q 385.7825 376.48 388.9825 376.48 
z
" style="fill:#ffffff;opacity:0.8;stroke:#cccccc;stroke-linejoin:miter;"/>
    </g>
    <g id="line2d_15">
     <path d="M 392.1825 337.6675 
L 424.1825 337.6675 
" style="fill:none;stroke:#0000ff;stroke-linecap:square;stroke-width:1.5;"/>
    </g>
    <g id="line2d_16"/>
    <g id="text_16">
     <!-- baseline -->
     <g transform="translate(436.9825 343.2675)scale(0.16 -0.16)">
      <defs>
       <path d="M 48.6875 27.296875 
Q 48.6875 37.203125 44.609375 42.84375 
Q 40.53125 48.484375 33.40625 48.484375 
Q 26.265625 48.484375 22.1875 42.84375 
Q 18.109375 37.203125 18.109375 27.296875 
Q 18.109375 17.390625 22.1875 11.75 
Q 26.265625 6.109375 33.40625 6.109375 
Q 40.53125 6.109375 44.609375 11.75 
Q 48.6875 17.390625 48.6875 27.296875 
z
M 18.109375 46.390625 
Q 20.953125 51.265625 25.265625 53.625 
Q 29.59375 56 35.59375 56 
Q 45.5625 56 51.78125 48.09375 
Q 58.015625 40.1875 58.015625 27.296875 
Q 58.015625 14.40625 51.78125 6.484375 
Q 45.5625 -1.421875 35.59375 -1.421875 
Q 29.59375 -1.421875 25.265625 0.953125 
Q 20.953125 3.328125 18.109375 8.203125 
L 18.109375 0 
L 9.078125 0 
L 9.078125 75.984375 
L 18.109375 75.984375 
z
" id="DejaVuSans-98"/>
       <path d="M 54.890625 33.015625 
L 54.890625 0 
L 45.90625 0 
L 45.90625 32.71875 
Q 45.90625 40.484375 42.875 44.328125 
Q 39.84375 48.1875 33.796875 48.1875 
Q 26.515625 48.1875 22.3125 43.546875 
Q 18.109375 38.921875 18.109375 30.90625 
L 18.109375 0 
L 9.078125 0 
L 9.078125 54.6875 
L 18.109375 54.6875 
L 18.109375 46.1875 
Q 21.34375 51.125 25.703125 53.5625 
Q 30.078125 56 35.796875 56 
Q 45.21875 56 50.046875 50.171875 
Q 54.890625 44.34375 54.890625 33.015625 
z
" id="DejaVuSans-110"/>
      </defs>
      <use xlink:href="#DejaVuSans-98"/>
      <use x="63.476562" xlink:href="#DejaVuSans-97"/>
      <use x="124.755859" xlink:href="#DejaVuSans-115"/>
      <use x="176.855469" xlink:href="#DejaVuSans-101"/>
      <use x="238.378906" xlink:href="#DejaVuSans-108"/>
      <use x="266.162109" xlink:href="#DejaVuSans-105"/>
      <use x="293.945312" xlink:href="#DejaVuSans-110"/>
      <use x="357.324219" xlink:href="#DejaVuSans-101"/>
     </g>
    </g>
    <g id="line2d_17">
     <path d="M 392.1825 361.1525 
L 424.1825 361.1525 
" style="fill:none;stroke:#ff0000;stroke-linecap:square;stroke-width:1.5;"/>
    </g>
    <g id="line2d_18"/>
    <g id="text_17">
     <!-- model -->
     <g transform="translate(436.9825 366.7525)scale(0.16 -0.16)">
      <defs>
       <path d="M 52 44.1875 
Q 55.375 50.25 60.0625 53.125 
Q 64.75 56 71.09375 56 
Q 79.640625 56 84.28125 50.015625 
Q 88.921875 44.046875 88.921875 33.015625 
L 88.921875 0 
L 79.890625 0 
L 79.890625 32.71875 
Q 79.890625 40.578125 77.09375 44.375 
Q 74.3125 48.1875 68.609375 48.1875 
Q 61.625 48.1875 57.5625 43.546875 
Q 53.515625 38.921875 53.515625 30.90625 
L 53.515625 0 
L 44.484375 0 
L 44.484375 32.71875 
Q 44.484375 40.625 41.703125 44.40625 
Q 38.921875 48.1875 33.109375 48.1875 
Q 26.21875 48.1875 22.15625 43.53125 
Q 18.109375 38.875 18.109375 30.90625 
L 18.109375 0 
L 9.078125 0 
L 9.078125 54.6875 
L 18.109375 54.6875 
L 18.109375 46.1875 
Q 21.1875 51.21875 25.484375 53.609375 
Q 29.78125 56 35.6875 56 
Q 41.65625 56 45.828125 52.96875 
Q 50 49.953125 52 44.1875 
z
" id="DejaVuSans-109"/>
       <path d="M 45.40625 46.390625 
L 45.40625 75.984375 
L 54.390625 75.984375 
L 54.390625 0 
L 45.40625 0 
L 45.40625 8.203125 
Q 42.578125 3.328125 38.25 0.953125 
Q 33.9375 -1.421875 27.875 -1.421875 
Q 17.96875 -1.421875 11.734375 6.484375 
Q 5.515625 14.40625 5.515625 27.296875 
Q 5.515625 40.1875 11.734375 48.09375 
Q 17.96875 56 27.875 56 
Q 33.9375 56 38.25 53.625 
Q 42.578125 51.265625 45.40625 46.390625 
z
M 14.796875 27.296875 
Q 14.796875 17.390625 18.875 11.75 
Q 22.953125 6.109375 30.078125 6.109375 
Q 37.203125 6.109375 41.296875 11.75 
Q 45.40625 17.390625 45.40625 27.296875 
Q 45.40625 37.203125 41.296875 42.84375 
Q 37.203125 48.484375 30.078125 48.484375 
Q 22.953125 48.484375 18.875 42.84375 
Q 14.796875 37.203125 14.796875 27.296875 
z
" id="DejaVuSans-100"/>
      </defs>
      <use xlink:href="#DejaVuSans-109"/>
      <use x="97.412109" xlink:href="#DejaVuSans-111"/>
      <use x="158.59375" xlink:href="#DejaVuSans-100"/>
      <use x="222.070312" xlink:href="#DejaVuSans-101"/>
      <use x="283.59375" xlink:href="#DejaVuSans-108"/>
     </g>
    </g>
   </g>
  </g>
 </g>
 <defs>
  <clipPath id="p31ce66b323">
   <rect height="332.64" width="446.4" x="72" y="51.84"/>
  </clipPath>
 </defs>
</svg>
