<?xml version="1.0" encoding="utf-8" standalone="no"?>
<!DOCTYPE svg PUBLIC "-//W3C//DTD SVG 1.1//EN"
  "http://www.w3.org/Graphics/SVG/1.1/DTD/svg11.dtd">
<!-- Created with matplotlib (https://matplotlib.org/) -->
<svg height="432pt" version="1.1" viewBox="0 0 576 432" width="576pt" xmlns="http://www.w3.org/2000/svg" xmlns:xlink="http://www.w3.org/1999/xlink">
 <metadata>
  <rdf:RDF xmlns:cc="http://creativecommons.org/ns#" xmlns:dc="http://purl.org/dc/elements/1.1/" xmlns:rdf="http://www.w3.org/1999/02/22-rdf-syntax-ns#">
   <cc:Work>
    <dc:type rdf:resource="http://purl.org/dc/dcmitype/StillImage"/>
    <dc:date>2020-09-01T22:03:17.778481</dc:date>
    <dc:format>image/svg+xml</dc:format>
    <dc:creator>
     <cc:Agent>
      <dc:title>Matplotlib v3.3.0, https://matplotlib.org/</dc:title>
     </cc:Agent>
    </dc:creator>
   </cc:Work>
  </rdf:RDF>
 </metadata>
 <defs>
  <style type="text/css">*{stroke-linecap:butt;stroke-linejoin:round;}</style>
 </defs>
 <g id="figure_1">
  <g id="patch_1">
   <path d="M 0 432 
L 576 432 
L 576 0 
L 0 0 
z
" style="fill:#ffffff;"/>
  </g>
  <g id="axes_1">
   <g id="patch_2">
    <path d="M 72 384.48 
L 518.4 384.48 
L 518.4 51.84 
L 72 51.84 
z
" style="fill:#ffffff;"/>
   </g>
   <g id="matplotlib.axis_1">
    <g id="xtick_1">
     <g id="line2d_1">
      <defs>
       <path d="M 0 0 
L 0 3.5 
" id="mfc8245c722" style="stroke:#000000;stroke-width:0.8;"/>
      </defs>
      <g>
       <use style="stroke:#000000;stroke-width:0.8;" x="92.290909" xlink:href="#mfc8245c722" y="384.48"/>
      </g>
     </g>
     <g id="text_1">
      <!-- 0.0 -->
      <g transform="translate(79.568409 403.6375)scale(0.16 -0.16)">
       <defs>
        <path d="M 31.78125 66.40625 
Q 24.171875 66.40625 20.328125 58.90625 
Q 16.5 51.421875 16.5 36.375 
Q 16.5 21.390625 20.328125 13.890625 
Q 24.171875 6.390625 31.78125 6.390625 
Q 39.453125 6.390625 43.28125 13.890625 
Q 47.125 21.390625 47.125 36.375 
Q 47.125 51.421875 43.28125 58.90625 
Q 39.453125 66.40625 31.78125 66.40625 
z
M 31.78125 74.21875 
Q 44.046875 74.21875 50.515625 64.515625 
Q 56.984375 54.828125 56.984375 36.375 
Q 56.984375 17.96875 50.515625 8.265625 
Q 44.046875 -1.421875 31.78125 -1.421875 
Q 19.53125 -1.421875 13.0625 8.265625 
Q 6.59375 17.96875 6.59375 36.375 
Q 6.59375 54.828125 13.0625 64.515625 
Q 19.53125 74.21875 31.78125 74.21875 
z
" id="DejaVuSans-48"/>
        <path d="M 10.6875 12.40625 
L 21 12.40625 
L 21 0 
L 10.6875 0 
z
" id="DejaVuSans-46"/>
       </defs>
       <use xlink:href="#DejaVuSans-48"/>
       <use x="63.623047" xlink:href="#DejaVuSans-46"/>
       <use x="95.410156" xlink:href="#DejaVuSans-48"/>
      </g>
     </g>
    </g>
    <g id="xtick_2">
     <g id="line2d_2">
      <g>
       <use style="stroke:#000000;stroke-width:0.8;" x="173.454545" xlink:href="#mfc8245c722" y="384.48"/>
      </g>
     </g>
     <g id="text_2">
      <!-- 0.2 -->
      <g transform="translate(160.732045 403.6375)scale(0.16 -0.16)">
       <defs>
        <path d="M 19.1875 8.296875 
L 53.609375 8.296875 
L 53.609375 0 
L 7.328125 0 
L 7.328125 8.296875 
Q 12.9375 14.109375 22.625 23.890625 
Q 32.328125 33.6875 34.8125 36.53125 
Q 39.546875 41.84375 41.421875 45.53125 
Q 43.3125 49.21875 43.3125 52.78125 
Q 43.3125 58.59375 39.234375 62.25 
Q 35.15625 65.921875 28.609375 65.921875 
Q 23.96875 65.921875 18.8125 64.3125 
Q 13.671875 62.703125 7.8125 59.421875 
L 7.8125 69.390625 
Q 13.765625 71.78125 18.9375 73 
Q 24.125 74.21875 28.421875 74.21875 
Q 39.75 74.21875 46.484375 68.546875 
Q 53.21875 62.890625 53.21875 53.421875 
Q 53.21875 48.921875 51.53125 44.890625 
Q 49.859375 40.875 45.40625 35.40625 
Q 44.1875 33.984375 37.640625 27.21875 
Q 31.109375 20.453125 19.1875 8.296875 
z
" id="DejaVuSans-50"/>
       </defs>
       <use xlink:href="#DejaVuSans-48"/>
       <use x="63.623047" xlink:href="#DejaVuSans-46"/>
       <use x="95.410156" xlink:href="#DejaVuSans-50"/>
      </g>
     </g>
    </g>
    <g id="xtick_3">
     <g id="line2d_3">
      <g>
       <use style="stroke:#000000;stroke-width:0.8;" x="254.618182" xlink:href="#mfc8245c722" y="384.48"/>
      </g>
     </g>
     <g id="text_3">
      <!-- 0.4 -->
      <g transform="translate(241.895682 403.6375)scale(0.16 -0.16)">
       <defs>
        <path d="M 37.796875 64.3125 
L 12.890625 25.390625 
L 37.796875 25.390625 
z
M 35.203125 72.90625 
L 47.609375 72.90625 
L 47.609375 25.390625 
L 58.015625 25.390625 
L 58.015625 17.1875 
L 47.609375 17.1875 
L 47.609375 0 
L 37.796875 0 
L 37.796875 17.1875 
L 4.890625 17.1875 
L 4.890625 26.703125 
z
" id="DejaVuSans-52"/>
       </defs>
       <use xlink:href="#DejaVuSans-48"/>
       <use x="63.623047" xlink:href="#DejaVuSans-46"/>
       <use x="95.410156" xlink:href="#DejaVuSans-52"/>
      </g>
     </g>
    </g>
    <g id="xtick_4">
     <g id="line2d_4">
      <g>
       <use style="stroke:#000000;stroke-width:0.8;" x="335.781818" xlink:href="#mfc8245c722" y="384.48"/>
      </g>
     </g>
     <g id="text_4">
      <!-- 0.6 -->
      <g transform="translate(323.059318 403.6375)scale(0.16 -0.16)">
       <defs>
        <path d="M 33.015625 40.375 
Q 26.375 40.375 22.484375 35.828125 
Q 18.609375 31.296875 18.609375 23.390625 
Q 18.609375 15.53125 22.484375 10.953125 
Q 26.375 6.390625 33.015625 6.390625 
Q 39.65625 6.390625 43.53125 10.953125 
Q 47.40625 15.53125 47.40625 23.390625 
Q 47.40625 31.296875 43.53125 35.828125 
Q 39.65625 40.375 33.015625 40.375 
z
M 52.59375 71.296875 
L 52.59375 62.3125 
Q 48.875 64.0625 45.09375 64.984375 
Q 41.3125 65.921875 37.59375 65.921875 
Q 27.828125 65.921875 22.671875 59.328125 
Q 17.53125 52.734375 16.796875 39.40625 
Q 19.671875 43.65625 24.015625 45.921875 
Q 28.375 48.1875 33.59375 48.1875 
Q 44.578125 48.1875 50.953125 41.515625 
Q 57.328125 34.859375 57.328125 23.390625 
Q 57.328125 12.15625 50.6875 5.359375 
Q 44.046875 -1.421875 33.015625 -1.421875 
Q 20.359375 -1.421875 13.671875 8.265625 
Q 6.984375 17.96875 6.984375 36.375 
Q 6.984375 53.65625 15.1875 63.9375 
Q 23.390625 74.21875 37.203125 74.21875 
Q 40.921875 74.21875 44.703125 73.484375 
Q 48.484375 72.75 52.59375 71.296875 
z
" id="DejaVuSans-54"/>
       </defs>
       <use xlink:href="#DejaVuSans-48"/>
       <use x="63.623047" xlink:href="#DejaVuSans-46"/>
       <use x="95.410156" xlink:href="#DejaVuSans-54"/>
      </g>
     </g>
    </g>
    <g id="xtick_5">
     <g id="line2d_5">
      <g>
       <use style="stroke:#000000;stroke-width:0.8;" x="416.945455" xlink:href="#mfc8245c722" y="384.48"/>
      </g>
     </g>
     <g id="text_5">
      <!-- 0.8 -->
      <g transform="translate(404.222955 403.6375)scale(0.16 -0.16)">
       <defs>
        <path d="M 31.78125 34.625 
Q 24.75 34.625 20.71875 30.859375 
Q 16.703125 27.09375 16.703125 20.515625 
Q 16.703125 13.921875 20.71875 10.15625 
Q 24.75 6.390625 31.78125 6.390625 
Q 38.8125 6.390625 42.859375 10.171875 
Q 46.921875 13.96875 46.921875 20.515625 
Q 46.921875 27.09375 42.890625 30.859375 
Q 38.875 34.625 31.78125 34.625 
z
M 21.921875 38.8125 
Q 15.578125 40.375 12.03125 44.71875 
Q 8.5 49.078125 8.5 55.328125 
Q 8.5 64.0625 14.71875 69.140625 
Q 20.953125 74.21875 31.78125 74.21875 
Q 42.671875 74.21875 48.875 69.140625 
Q 55.078125 64.0625 55.078125 55.328125 
Q 55.078125 49.078125 51.53125 44.71875 
Q 48 40.375 41.703125 38.8125 
Q 48.828125 37.15625 52.796875 32.3125 
Q 56.78125 27.484375 56.78125 20.515625 
Q 56.78125 9.90625 50.3125 4.234375 
Q 43.84375 -1.421875 31.78125 -1.421875 
Q 19.734375 -1.421875 13.25 4.234375 
Q 6.78125 9.90625 6.78125 20.515625 
Q 6.78125 27.484375 10.78125 32.3125 
Q 14.796875 37.15625 21.921875 38.8125 
z
M 18.3125 54.390625 
Q 18.3125 48.734375 21.84375 45.5625 
Q 25.390625 42.390625 31.78125 42.390625 
Q 38.140625 42.390625 41.71875 45.5625 
Q 45.3125 48.734375 45.3125 54.390625 
Q 45.3125 60.0625 41.71875 63.234375 
Q 38.140625 66.40625 31.78125 66.40625 
Q 25.390625 66.40625 21.84375 63.234375 
Q 18.3125 60.0625 18.3125 54.390625 
z
" id="DejaVuSans-56"/>
       </defs>
       <use xlink:href="#DejaVuSans-48"/>
       <use x="63.623047" xlink:href="#DejaVuSans-46"/>
       <use x="95.410156" xlink:href="#DejaVuSans-56"/>
      </g>
     </g>
    </g>
    <g id="xtick_6">
     <g id="line2d_6">
      <g>
       <use style="stroke:#000000;stroke-width:0.8;" x="498.109091" xlink:href="#mfc8245c722" y="384.48"/>
      </g>
     </g>
     <g id="text_6">
      <!-- 1.0 -->
      <g transform="translate(485.386591 403.6375)scale(0.16 -0.16)">
       <defs>
        <path d="M 12.40625 8.296875 
L 28.515625 8.296875 
L 28.515625 63.921875 
L 10.984375 60.40625 
L 10.984375 69.390625 
L 28.421875 72.90625 
L 38.28125 72.90625 
L 38.28125 8.296875 
L 54.390625 8.296875 
L 54.390625 0 
L 12.40625 0 
z
" id="DejaVuSans-49"/>
       </defs>
       <use xlink:href="#DejaVuSans-49"/>
       <use x="63.623047" xlink:href="#DejaVuSans-46"/>
       <use x="95.410156" xlink:href="#DejaVuSans-48"/>
      </g>
     </g>
    </g>
    <g id="text_7">
     <!-- False Positive Rate -->
     <g transform="translate(220.85375 423.1225)scale(0.16 -0.16)">
      <defs>
       <path d="M 9.8125 72.90625 
L 51.703125 72.90625 
L 51.703125 64.59375 
L 19.671875 64.59375 
L 19.671875 43.109375 
L 48.578125 43.109375 
L 48.578125 34.8125 
L 19.671875 34.8125 
L 19.671875 0 
L 9.8125 0 
z
" id="DejaVuSans-70"/>
       <path d="M 34.28125 27.484375 
Q 23.390625 27.484375 19.1875 25 
Q 14.984375 22.515625 14.984375 16.5 
Q 14.984375 11.71875 18.140625 8.90625 
Q 21.296875 6.109375 26.703125 6.109375 
Q 34.1875 6.109375 38.703125 11.40625 
Q 43.21875 16.703125 43.21875 25.484375 
L 43.21875 27.484375 
z
M 52.203125 31.203125 
L 52.203125 0 
L 43.21875 0 
L 43.21875 8.296875 
Q 40.140625 3.328125 35.546875 0.953125 
Q 30.953125 -1.421875 24.3125 -1.421875 
Q 15.921875 -1.421875 10.953125 3.296875 
Q 6 8.015625 6 15.921875 
Q 6 25.140625 12.171875 29.828125 
Q 18.359375 34.515625 30.609375 34.515625 
L 43.21875 34.515625 
L 43.21875 35.40625 
Q 43.21875 41.609375 39.140625 45 
Q 35.0625 48.390625 27.6875 48.390625 
Q 23 48.390625 18.546875 47.265625 
Q 14.109375 46.140625 10.015625 43.890625 
L 10.015625 52.203125 
Q 14.9375 54.109375 19.578125 55.046875 
Q 24.21875 56 28.609375 56 
Q 40.484375 56 46.34375 49.84375 
Q 52.203125 43.703125 52.203125 31.203125 
z
" id="DejaVuSans-97"/>
       <path d="M 9.421875 75.984375 
L 18.40625 75.984375 
L 18.40625 0 
L 9.421875 0 
z
" id="DejaVuSans-108"/>
       <path d="M 44.28125 53.078125 
L 44.28125 44.578125 
Q 40.484375 46.53125 36.375 47.5 
Q 32.28125 48.484375 27.875 48.484375 
Q 21.1875 48.484375 17.84375 46.4375 
Q 14.5 44.390625 14.5 40.28125 
Q 14.5 37.15625 16.890625 35.375 
Q 19.28125 33.59375 26.515625 31.984375 
L 29.59375 31.296875 
Q 39.15625 29.25 43.1875 25.515625 
Q 47.21875 21.78125 47.21875 15.09375 
Q 47.21875 7.46875 41.1875 3.015625 
Q 35.15625 -1.421875 24.609375 -1.421875 
Q 20.21875 -1.421875 15.453125 -0.5625 
Q 10.6875 0.296875 5.421875 2 
L 5.421875 11.28125 
Q 10.40625 8.6875 15.234375 7.390625 
Q 20.0625 6.109375 24.8125 6.109375 
Q 31.15625 6.109375 34.5625 8.28125 
Q 37.984375 10.453125 37.984375 14.40625 
Q 37.984375 18.0625 35.515625 20.015625 
Q 33.0625 21.96875 24.703125 23.78125 
L 21.578125 24.515625 
Q 13.234375 26.265625 9.515625 29.90625 
Q 5.8125 33.546875 5.8125 39.890625 
Q 5.8125 47.609375 11.28125 51.796875 
Q 16.75 56 26.8125 56 
Q 31.78125 56 36.171875 55.265625 
Q 40.578125 54.546875 44.28125 53.078125 
z
" id="DejaVuSans-115"/>
       <path d="M 56.203125 29.59375 
L 56.203125 25.203125 
L 14.890625 25.203125 
Q 15.484375 15.921875 20.484375 11.0625 
Q 25.484375 6.203125 34.421875 6.203125 
Q 39.59375 6.203125 44.453125 7.46875 
Q 49.3125 8.734375 54.109375 11.28125 
L 54.109375 2.78125 
Q 49.265625 0.734375 44.1875 -0.34375 
Q 39.109375 -1.421875 33.890625 -1.421875 
Q 20.796875 -1.421875 13.15625 6.1875 
Q 5.515625 13.8125 5.515625 26.8125 
Q 5.515625 40.234375 12.765625 48.109375 
Q 20.015625 56 32.328125 56 
Q 43.359375 56 49.78125 48.890625 
Q 56.203125 41.796875 56.203125 29.59375 
z
M 47.21875 32.234375 
Q 47.125 39.59375 43.09375 43.984375 
Q 39.0625 48.390625 32.421875 48.390625 
Q 24.90625 48.390625 20.390625 44.140625 
Q 15.875 39.890625 15.1875 32.171875 
z
" id="DejaVuSans-101"/>
       <path id="DejaVuSans-32"/>
       <path d="M 19.671875 64.796875 
L 19.671875 37.40625 
L 32.078125 37.40625 
Q 38.96875 37.40625 42.71875 40.96875 
Q 46.484375 44.53125 46.484375 51.125 
Q 46.484375 57.671875 42.71875 61.234375 
Q 38.96875 64.796875 32.078125 64.796875 
z
M 9.8125 72.90625 
L 32.078125 72.90625 
Q 44.34375 72.90625 50.609375 67.359375 
Q 56.890625 61.8125 56.890625 51.125 
Q 56.890625 40.328125 50.609375 34.8125 
Q 44.34375 29.296875 32.078125 29.296875 
L 19.671875 29.296875 
L 19.671875 0 
L 9.8125 0 
z
" id="DejaVuSans-80"/>
       <path d="M 30.609375 48.390625 
Q 23.390625 48.390625 19.1875 42.75 
Q 14.984375 37.109375 14.984375 27.296875 
Q 14.984375 17.484375 19.15625 11.84375 
Q 23.34375 6.203125 30.609375 6.203125 
Q 37.796875 6.203125 41.984375 11.859375 
Q 46.1875 17.53125 46.1875 27.296875 
Q 46.1875 37.015625 41.984375 42.703125 
Q 37.796875 48.390625 30.609375 48.390625 
z
M 30.609375 56 
Q 42.328125 56 49.015625 48.375 
Q 55.71875 40.765625 55.71875 27.296875 
Q 55.71875 13.875 49.015625 6.21875 
Q 42.328125 -1.421875 30.609375 -1.421875 
Q 18.84375 -1.421875 12.171875 6.21875 
Q 5.515625 13.875 5.515625 27.296875 
Q 5.515625 40.765625 12.171875 48.375 
Q 18.84375 56 30.609375 56 
z
" id="DejaVuSans-111"/>
       <path d="M 9.421875 54.6875 
L 18.40625 54.6875 
L 18.40625 0 
L 9.421875 0 
z
M 9.421875 75.984375 
L 18.40625 75.984375 
L 18.40625 64.59375 
L 9.421875 64.59375 
z
" id="DejaVuSans-105"/>
       <path d="M 18.3125 70.21875 
L 18.3125 54.6875 
L 36.8125 54.6875 
L 36.8125 47.703125 
L 18.3125 47.703125 
L 18.3125 18.015625 
Q 18.3125 11.328125 20.140625 9.421875 
Q 21.96875 7.515625 27.59375 7.515625 
L 36.8125 7.515625 
L 36.8125 0 
L 27.59375 0 
Q 17.1875 0 13.234375 3.875 
Q 9.28125 7.765625 9.28125 18.015625 
L 9.28125 47.703125 
L 2.6875 47.703125 
L 2.6875 54.6875 
L 9.28125 54.6875 
L 9.28125 70.21875 
z
" id="DejaVuSans-116"/>
       <path d="M 2.984375 54.6875 
L 12.5 54.6875 
L 29.59375 8.796875 
L 46.6875 54.6875 
L 56.203125 54.6875 
L 35.6875 0 
L 23.484375 0 
z
" id="DejaVuSans-118"/>
       <path d="M 44.390625 34.1875 
Q 47.5625 33.109375 50.5625 29.59375 
Q 53.5625 26.078125 56.59375 19.921875 
L 66.609375 0 
L 56 0 
L 46.6875 18.703125 
Q 43.0625 26.03125 39.671875 28.421875 
Q 36.28125 30.8125 30.421875 30.8125 
L 19.671875 30.8125 
L 19.671875 0 
L 9.8125 0 
L 9.8125 72.90625 
L 32.078125 72.90625 
Q 44.578125 72.90625 50.734375 67.671875 
Q 56.890625 62.453125 56.890625 51.90625 
Q 56.890625 45.015625 53.6875 40.46875 
Q 50.484375 35.9375 44.390625 34.1875 
z
M 19.671875 64.796875 
L 19.671875 38.921875 
L 32.078125 38.921875 
Q 39.203125 38.921875 42.84375 42.21875 
Q 46.484375 45.515625 46.484375 51.90625 
Q 46.484375 58.296875 42.84375 61.546875 
Q 39.203125 64.796875 32.078125 64.796875 
z
" id="DejaVuSans-82"/>
      </defs>
      <use xlink:href="#DejaVuSans-70"/>
      <use x="48.394531" xlink:href="#DejaVuSans-97"/>
      <use x="109.673828" xlink:href="#DejaVuSans-108"/>
      <use x="137.457031" xlink:href="#DejaVuSans-115"/>
      <use x="189.556641" xlink:href="#DejaVuSans-101"/>
      <use x="251.080078" xlink:href="#DejaVuSans-32"/>
      <use x="282.867188" xlink:href="#DejaVuSans-80"/>
      <use x="339.544922" xlink:href="#DejaVuSans-111"/>
      <use x="400.726562" xlink:href="#DejaVuSans-115"/>
      <use x="452.826172" xlink:href="#DejaVuSans-105"/>
      <use x="480.609375" xlink:href="#DejaVuSans-116"/>
      <use x="519.818359" xlink:href="#DejaVuSans-105"/>
      <use x="547.601562" xlink:href="#DejaVuSans-118"/>
      <use x="606.78125" xlink:href="#DejaVuSans-101"/>
      <use x="668.304688" xlink:href="#DejaVuSans-32"/>
      <use x="700.091797" xlink:href="#DejaVuSans-82"/>
      <use x="767.324219" xlink:href="#DejaVuSans-97"/>
      <use x="828.603516" xlink:href="#DejaVuSans-116"/>
      <use x="867.8125" xlink:href="#DejaVuSans-101"/>
     </g>
    </g>
   </g>
   <g id="matplotlib.axis_2">
    <g id="ytick_1">
     <g id="line2d_7">
      <defs>
       <path d="M 0 0 
L -3.5 0 
" id="m9355f835fc" style="stroke:#000000;stroke-width:0.8;"/>
      </defs>
      <g>
       <use style="stroke:#000000;stroke-width:0.8;" x="72" xlink:href="#m9355f835fc" y="369.36"/>
      </g>
     </g>
     <g id="text_8">
      <!-- 0.0 -->
      <g transform="translate(39.555 375.43875)scale(0.16 -0.16)">
       <use xlink:href="#DejaVuSans-48"/>
       <use x="63.623047" xlink:href="#DejaVuSans-46"/>
       <use x="95.410156" xlink:href="#DejaVuSans-48"/>
      </g>
     </g>
    </g>
    <g id="ytick_2">
     <g id="line2d_8">
      <g>
       <use style="stroke:#000000;stroke-width:0.8;" x="72" xlink:href="#m9355f835fc" y="308.88"/>
      </g>
     </g>
     <g id="text_9">
      <!-- 0.2 -->
      <g transform="translate(39.555 314.95875)scale(0.16 -0.16)">
       <use xlink:href="#DejaVuSans-48"/>
       <use x="63.623047" xlink:href="#DejaVuSans-46"/>
       <use x="95.410156" xlink:href="#DejaVuSans-50"/>
      </g>
     </g>
    </g>
    <g id="ytick_3">
     <g id="line2d_9">
      <g>
       <use style="stroke:#000000;stroke-width:0.8;" x="72" xlink:href="#m9355f835fc" y="248.4"/>
      </g>
     </g>
     <g id="text_10">
      <!-- 0.4 -->
      <g transform="translate(39.555 254.47875)scale(0.16 -0.16)">
       <use xlink:href="#DejaVuSans-48"/>
       <use x="63.623047" xlink:href="#DejaVuSans-46"/>
       <use x="95.410156" xlink:href="#DejaVuSans-52"/>
      </g>
     </g>
    </g>
    <g id="ytick_4">
     <g id="line2d_10">
      <g>
       <use style="stroke:#000000;stroke-width:0.8;" x="72" xlink:href="#m9355f835fc" y="187.92"/>
      </g>
     </g>
     <g id="text_11">
      <!-- 0.6 -->
      <g transform="translate(39.555 193.99875)scale(0.16 -0.16)">
       <use xlink:href="#DejaVuSans-48"/>
       <use x="63.623047" xlink:href="#DejaVuSans-46"/>
       <use x="95.410156" xlink:href="#DejaVuSans-54"/>
      </g>
     </g>
    </g>
    <g id="ytick_5">
     <g id="line2d_11">
      <g>
       <use style="stroke:#000000;stroke-width:0.8;" x="72" xlink:href="#m9355f835fc" y="127.44"/>
      </g>
     </g>
     <g id="text_12">
      <!-- 0.8 -->
      <g transform="translate(39.555 133.51875)scale(0.16 -0.16)">
       <use xlink:href="#DejaVuSans-48"/>
       <use x="63.623047" xlink:href="#DejaVuSans-46"/>
       <use x="95.410156" xlink:href="#DejaVuSans-56"/>
      </g>
     </g>
    </g>
    <g id="ytick_6">
     <g id="line2d_12">
      <g>
       <use style="stroke:#000000;stroke-width:0.8;" x="72" xlink:href="#m9355f835fc" y="66.96"/>
      </g>
     </g>
     <g id="text_13">
      <!-- 1.0 -->
      <g transform="translate(39.555 73.03875)scale(0.16 -0.16)">
       <use xlink:href="#DejaVuSans-49"/>
       <use x="63.623047" xlink:href="#DejaVuSans-46"/>
       <use x="95.410156" xlink:href="#DejaVuSans-48"/>
      </g>
     </g>
    </g>
    <g id="text_14">
     <!-- True Positive Rate -->
     <g transform="translate(32.2275 289.4075)rotate(-90)scale(0.16 -0.16)">
      <defs>
       <path d="M -0.296875 72.90625 
L 61.375 72.90625 
L 61.375 64.59375 
L 35.5 64.59375 
L 35.5 0 
L 25.59375 0 
L 25.59375 64.59375 
L -0.296875 64.59375 
z
" id="DejaVuSans-84"/>
       <path d="M 41.109375 46.296875 
Q 39.59375 47.171875 37.8125 47.578125 
Q 36.03125 48 33.890625 48 
Q 26.265625 48 22.1875 43.046875 
Q 18.109375 38.09375 18.109375 28.8125 
L 18.109375 0 
L 9.078125 0 
L 9.078125 54.6875 
L 18.109375 54.6875 
L 18.109375 46.1875 
Q 20.953125 51.171875 25.484375 53.578125 
Q 30.03125 56 36.53125 56 
Q 37.453125 56 38.578125 55.875 
Q 39.703125 55.765625 41.0625 55.515625 
z
" id="DejaVuSans-114"/>
       <path d="M 8.5 21.578125 
L 8.5 54.6875 
L 17.484375 54.6875 
L 17.484375 21.921875 
Q 17.484375 14.15625 20.5 10.265625 
Q 23.53125 6.390625 29.59375 6.390625 
Q 36.859375 6.390625 41.078125 11.03125 
Q 45.3125 15.671875 45.3125 23.6875 
L 45.3125 54.6875 
L 54.296875 54.6875 
L 54.296875 0 
L 45.3125 0 
L 45.3125 8.40625 
Q 42.046875 3.421875 37.71875 1 
Q 33.40625 -1.421875 27.6875 -1.421875 
Q 18.265625 -1.421875 13.375 4.4375 
Q 8.5 10.296875 8.5 21.578125 
z
M 31.109375 56 
z
" id="DejaVuSans-117"/>
      </defs>
      <use xlink:href="#DejaVuSans-84"/>
      <use x="46.333984" xlink:href="#DejaVuSans-114"/>
      <use x="87.447266" xlink:href="#DejaVuSans-117"/>
      <use x="150.826172" xlink:href="#DejaVuSans-101"/>
      <use x="212.349609" xlink:href="#DejaVuSans-32"/>
      <use x="244.136719" xlink:href="#DejaVuSans-80"/>
      <use x="300.814453" xlink:href="#DejaVuSans-111"/>
      <use x="361.996094" xlink:href="#DejaVuSans-115"/>
      <use x="414.095703" xlink:href="#DejaVuSans-105"/>
      <use x="441.878906" xlink:href="#DejaVuSans-116"/>
      <use x="481.087891" xlink:href="#DejaVuSans-105"/>
      <use x="508.871094" xlink:href="#DejaVuSans-118"/>
      <use x="568.050781" xlink:href="#DejaVuSans-101"/>
      <use x="629.574219" xlink:href="#DejaVuSans-32"/>
      <use x="661.361328" xlink:href="#DejaVuSans-82"/>
      <use x="728.59375" xlink:href="#DejaVuSans-97"/>
      <use x="789.873047" xlink:href="#DejaVuSans-116"/>
      <use x="829.082031" xlink:href="#DejaVuSans-101"/>
     </g>
    </g>
   </g>
   <g id="line2d_13">
    <path clip-path="url(#p0d0c5de4cd)" d="M 92.290909 369.36 
L 498.109091 66.96 
" style="fill:none;stroke:#0000ff;stroke-linecap:square;stroke-width:1.5;"/>
   </g>
   <g id="line2d_14">
    <path clip-path="url(#p0d0c5de4cd)" d="M 92.290909 369.36 
L 92.295495 369.251825 
L 92.406463 366.222915 
L 92.410437 366.11474 
L 92.521405 363.268896 
L 92.52813 363.160721 
L 92.639098 360.656046 
L 92.643989 360.54787 
L 92.754652 358.043195 
L 92.761988 357.93502 
L 92.872956 354.914432 
L 92.876319 354.814577 
L 92.986676 351.569317 
L 92.986982 351.569317 
L 92.992178 351.477784 
L 92.992178 351.461142 
L 93.102841 348.299094 
L 93.107732 348.207561 
L 93.2187 344.621132 
L 93.22298 344.512957 
L 93.333948 341.059667 
L 93.337616 340.951492 
L 93.447667 337.240245 
L 93.448584 337.240245 
L 93.45317 337.173676 
L 93.45317 337.148712 
L 93.563832 332.938195 
L 93.566583 332.846662 
L 93.566583 332.83002 
L 93.677551 328.153517 
L 93.680914 328.070305 
L 93.680914 328.053663 
L 93.791576 323.59351 
L 93.797385 323.493656 
L 93.908353 318.817153 
L 93.910493 318.742262 
L 94.020544 313.483277 
L 94.023906 313.375101 
L 94.134874 308.548817 
L 94.137626 308.457284 
L 94.137626 308.440642 
L 94.248594 304.146913 
L 94.250734 304.047059 
L 94.361702 298.937854 
L 94.364759 298.829679 
L 94.475727 293.728796 
L 94.480618 293.637263 
L 94.480618 293.62062 
L 94.591586 289.143825 
L 94.594949 289.03565 
L 94.705917 284.80017 
L 94.709279 284.700315 
L 94.820247 280.123666 
L 94.824221 280.015491 
L 94.934578 275.863222 
L 94.937635 275.796653 
L 94.937635 275.763368 
L 95.048603 271.602778 
L 95.052272 271.494603 
L 95.16324 267.234159 
L 95.168436 267.184232 
L 95.279099 263.323204 
L 95.28185 263.22335 
L 95.392818 259.320717 
L 95.399544 259.245826 
L 95.399544 259.237505 
L 95.563092 254.236476 
L 95.567371 254.1283 
L 95.677422 251.324063 
L 95.681396 251.215887 
L 95.791447 247.463035 
L 95.801535 247.396466 
L 95.801535 247.35486 
L 95.912503 243.993103 
L 95.919534 243.909891 
L 96.030197 240.548135 
L 96.034477 240.439959 
L 96.14361 237.053239 
L 96.144222 237.053239 
L 96.14789 236.961706 
L 96.258553 233.658198 
L 96.264972 233.550022 
L 96.375635 230.313083 
L 96.385111 230.213229 
L 96.495774 227.525488 
L 96.497302 227.492203 
L 96.60827 224.355118 
L 96.612856 224.255264 
L 96.723518 221.317888 
L 96.724435 221.276282 
L 96.835403 218.164161 
L 96.83846 218.064306 
L 96.949428 215.842551 
L 96.955542 215.734376 
L 97.06651 213.179774 
L 97.073541 213.071598 
L 97.184509 210.433784 
L 97.187566 210.325609 
L 97.298534 208.020642 
L 97.304343 207.912467 
L 97.415311 205.590858 
L 97.418979 205.482682 
L 97.529947 203.294212 
L 97.534227 203.186037 
L 97.644584 200.839464 
L 97.65192 200.73961 
L 97.761666 198.209971 
L 97.762888 198.209971 
L 97.769614 198.143402 
L 97.769614 198.118438 
L 97.879665 195.813471 
L 97.885779 195.705296 
L 97.995524 193.625001 
L 98.001026 193.516826 
L 98.111689 191.161932 
L 98.115969 191.053756 
L 98.22602 188.906892 
L 98.229382 188.840323 
L 98.339739 186.85156 
L 98.347993 186.751706 
L 98.457127 184.821193 
L 98.465992 184.713017 
L 98.574514 182.274912 
L 98.57696 182.274912 
L 98.585825 182.166736 
L 98.695265 180.086441 
L 98.695876 180.086441 
L 98.702601 179.994908 
L 98.812652 178.047752 
L 98.818766 177.947898 
L 98.929429 176.208771 
L 98.929734 176.208771 
L 98.9386 176.108917 
L 99.048651 174.103513 
L 99.049568 174.103513 
L 99.060573 173.995337 
L 99.171541 172.339423 
L 99.181017 172.239569 
L 99.291986 170.641902 
L 99.297794 170.533727 
L 99.408762 168.661461 
L 99.41885 168.553286 
L 99.529818 167.205255 
L 99.541434 167.122043 
L 99.650568 165.640873 
L 99.661268 165.532698 
L 99.771013 163.71868 
L 99.787521 163.610505 
L 99.893292 162.012838 
L 99.897877 162.012838 
L 99.901546 161.904663 
L 100.012514 160.465099 
L 100.025964 160.356924 
L 100.136321 159.017214 
L 100.136627 159.017214 
L 100.145186 158.909038 
L 100.253097 157.594292 
L 100.25432 157.594292 
L 100.263185 157.502759 
L 100.373848 156.146407 
L 100.386993 156.054874 
L 100.497349 154.839981 
L 100.504075 154.731806 
L 100.614737 153.483629 
L 100.624214 153.383775 
L 100.733348 151.944211 
L 100.74099 151.836035 
L 100.851958 150.429756 
L 100.859906 150.329902 
L 100.970569 149.131652 
L 100.982491 149.023477 
L 101.093459 147.717051 
L 101.102018 147.608876 
L 101.212987 146.144348 
L 101.222463 146.036173 
L 101.33282 144.796317 
L 101.346576 144.688142 
L 101.456627 143.598067 
L 101.468244 143.489892 
L 101.577989 142.225073 
L 101.594497 142.116897 
L 101.701796 141.193246 
L 101.705465 141.193246 
L 101.710661 141.085071 
L 101.815516 140.028281 
L 101.81735 140.028281 
L 101.840888 139.920106 
L 101.951245 139.071345 
L 101.963473 138.96317 
L 102.07169 138.106088 
L 102.079332 137.997913 
L 102.1903 136.941123 
L 102.204668 136.874554 
L 102.204668 136.841269 
L 102.315636 136.109005 
L 102.328475 136.00083 
L 102.436692 135.143748 
L 102.448309 135.035573 
L 102.559277 134.228419 
L 102.580676 134.120243 
L 102.688892 133.171629 
L 102.712125 133.063453 
L 102.820648 132.256299 
L 102.822176 132.256299 
L 102.835321 132.173087 
L 102.945984 131.482429 
L 102.959434 131.374254 
L 103.06918 130.325785 
L 103.070097 130.325785 
L 103.092107 130.225931 
L 103.201547 129.252353 
L 103.202158 129.252353 
L 103.222334 129.144178 
L 103.330245 128.328702 
L 103.349198 128.220527 
L 103.436933 127.546511 
L 103.460166 127.546511 
L 103.477591 127.446657 
L 103.586725 126.76432 
L 103.588559 126.76432 
L 103.606595 126.664466 
L 103.716646 125.957166 
L 103.741102 125.882275 
L 103.851459 125.058478 
L 103.872552 124.958624 
L 103.98352 124.334536 
L 103.996053 124.234681 
L 104.105493 123.51906 
L 104.106716 123.51906 
L 104.129337 123.410885 
L 104.238471 122.711906 
L 104.258036 122.60373 
L 104.360139 121.921393 
L 104.368698 121.921393 
L 104.378786 121.813218 
L 104.489754 121.222414 
L 104.501371 121.12256 
L 104.609893 120.523435 
L 104.612033 120.523435 
L 104.631292 120.431902 
L 104.631292 120.41526 
L 104.74226 119.749566 
L 104.765188 119.64139 
L 104.875239 118.850878 
L 104.892052 118.742703 
L 104.996295 118.151899 
L 105.001797 118.151899 
L 105.02503 118.043724 
L 105.135387 117.38635 
L 105.152812 117.278175 
L 105.262863 116.770583 
L 105.291598 116.662408 
L 105.402566 116.179779 
L 105.418157 116.071604 
L 105.526373 115.663866 
L 105.552052 115.555691 
L 105.65874 115.048099 
L 105.66088 115.048099 
L 105.688699 114.939924 
L 105.797833 114.515543 
L 105.821066 114.407368 
L 105.928977 113.933061 
L 105.952515 113.824885 
L 106.057675 113.275688 
L 106.063178 113.275688 
L 106.102307 113.167512 
L 106.212969 112.51846 
L 106.248124 112.410285 
L 106.358481 111.844445 
L 106.375295 111.736269 
L 106.482594 111.228677 
L 106.504299 111.120502 
L 106.585003 110.721085 
L 106.585308 110.721085 
L 106.674878 110.61291 
L 106.782483 110.213493 
L 106.785846 110.213493 
L 106.821307 110.105318 
L 106.925244 109.655974 
L 106.928912 109.655974 
L 106.972015 109.547799 
L 107.082678 108.99028 
L 107.101325 108.882105 
L 107.209542 108.299622 
L 107.259065 108.191447 
L 107.366365 107.72546 
L 107.397852 107.617285 
L 107.508514 107.15962 
L 107.543975 107.051445 
L 107.647606 106.535532 
L 107.693461 106.443999 
L 107.804123 106.019619 
L 107.82919 105.911443 
L 107.939241 105.528669 
L 107.960946 105.428815 
L 108.055712 105.11261 
L 108.070385 105.11261 
L 108.095452 105.004435 
L 108.199389 104.746478 
L 108.204892 104.746478 
L 108.240659 104.663266 
L 108.345513 104.26385 
L 108.349487 104.26385 
L 108.381891 104.172317 
L 108.492859 103.806185 
L 108.513646 103.698009 
L 108.621863 103.365162 
L 108.660992 103.256987 
L 108.768903 102.957424 
L 108.790302 102.85757 
L 108.898825 102.441511 
L 108.939482 102.333336 
L 109.048005 101.859029 
L 109.080409 101.750853 
L 109.182512 101.459612 
L 109.190765 101.459612 
L 109.219807 101.351437 
L 109.318241 100.877129 
L 109.318547 100.877129 
L 109.409645 100.768954 
L 109.513887 100.452749 
L 109.519696 100.452749 
L 109.564939 100.344574 
L 109.68844 99.986763 
L 109.737352 99.886909 
L 109.848014 99.570704 
L 109.863911 99.462529 
L 109.974879 99.179609 
L 110.037547 99.071433 
L 110.143929 98.796834 
L 110.147292 98.796834 
L 110.164411 98.688659 
L 110.266819 98.447345 
L 110.271099 98.447345 
L 110.345689 98.33917 
L 110.456657 98.114498 
L 110.499761 98.006322 
L 110.60706 97.656833 
L 110.609812 97.656833 
L 110.647412 97.548657 
L 110.755018 97.332307 
L 110.758075 97.332307 
L 110.831136 97.232453 
L 110.932322 96.966175 
L 110.941187 96.966175 
L 110.9794 96.858 
L 111.087311 96.591722 
L 111.139279 96.483546 
L 111.248413 96.217269 
L 111.303744 96.109093 
L 111.41135 95.967633 
L 111.438557 95.8761 
L 111.546468 95.626465 
L 111.548913 95.626465 
L 111.618307 95.51829 
L 111.702373 95.318581 
L 111.71185 95.318581 
L 111.824958 95.210406 
L 111.933786 95.02734 
L 111.935926 95.02734 
L 111.993397 94.919165 
L 112.092137 94.777705 
L 112.102531 94.777705 
L 112.166116 94.669529 
L 112.271887 94.386609 
L 112.272499 94.386609 
L 112.310711 94.278434 
L 112.418622 94.095368 
L 112.421373 94.095368 
L 112.458057 93.995514 
L 112.569025 93.729236 
L 112.718511 93.621061 
L 112.828867 93.329819 
L 112.888784 93.221644 
L 112.98997 93.030257 
L 112.996389 93.030257 
L 113.024514 92.922081 
L 113.132119 92.639161 
L 113.173694 92.530986 
L 113.278854 92.364562 
L 113.284662 92.364562 
L 113.333573 92.256387 
L 113.442096 91.973467 
L 113.498038 91.865292 
L 113.595862 91.673904 
L 113.608089 91.673904 
L 113.661281 91.565729 
L 113.771026 91.399305 
L 113.822077 91.29113 
L 113.929071 91.033174 
L 113.929683 91.033174 
L 114.010081 90.933319 
L 114.107293 90.72529 
L 114.115852 90.72529 
L 114.184329 90.617115 
L 114.268701 90.459012 
L 114.290711 90.459012 
L 114.335037 90.350837 
L 114.43928 90.109523 
L 114.445394 90.109523 
L 114.497057 90.001347 
L 114.607413 89.784997 
L 114.708599 89.676821 
L 114.815288 89.452149 
L 114.819262 89.452149 
L 114.895992 89.343974 
L 114.995037 89.110981 
L 115.004514 89.110981 
L 115.116705 89.002806 
L 115.223699 88.803097 
L 115.225839 88.803097 
L 115.266802 88.694922 
L 115.364014 88.453608 
L 115.37777 88.453608 
L 115.473148 88.345432 
L 115.578919 88.154045 
L 115.581976 88.154045 
L 115.68469 88.054191 
L 115.777011 87.871125 
L 115.792601 87.871125 
L 115.874528 87.76295 
L 115.984579 87.488351 
L 116.074454 87.380176 
L 116.185117 87.205431 
L 116.297919 87.097255 
L 116.407358 86.939153 
L 116.442819 86.84762 
L 116.442819 86.830978 
L 116.545839 86.639591 
L 116.549508 86.639591 
L 116.663533 86.548058 
L 116.76747 86.256816 
L 116.773584 86.256816 
L 116.838697 86.148641 
L 116.941717 85.990539 
L 116.945691 85.990539 
L 117.01967 85.882363 
L 117.123607 85.566158 
L 117.128804 85.566158 
L 117.182301 85.457983 
L 117.242829 85.283238 
L 117.292963 85.283238 
L 117.356854 85.191705 
L 117.356854 85.183384 
L 117.461708 84.975355 
L 117.464459 84.975355 
L 117.510619 84.867179 
L 117.621587 84.73404 
L 117.78911 84.625865 
L 117.898549 84.417836 
L 117.899161 84.417836 
L 117.984144 84.30966 
L 118.095112 84.151558 
L 118.153501 84.051704 
L 118.261106 83.88528 
L 118.264163 83.88528 
L 118.385219 83.777105 
L 118.486099 83.702214 
L 118.494964 83.702214 
L 118.605932 83.594039 
L 118.715983 83.444257 
L 118.837345 83.336082 
L 118.947702 83.202943 
L 118.948007 83.202943 
L 119.085877 83.094768 
L 119.190731 82.96995 
L 119.195928 82.96995 
L 119.316067 82.861775 
L 119.423367 82.637103 
L 119.423672 82.637103 
L 119.498874 82.528928 
L 119.606785 82.40411 
L 119.682292 82.295935 
L 119.785006 82.171117 
L 119.79326 82.171117 
L 119.862959 82.062942 
L 119.968425 81.929803 
L 119.969953 81.929803 
L 120.122802 81.821627 
L 120.216651 81.621919 
L 120.232241 81.621919 
L 120.407406 81.513744 
L 120.517762 81.405568 
L 120.630259 81.297393 
L 120.739699 81.172575 
L 120.740921 81.172575 
L 120.798392 81.0644 
L 120.905998 80.939582 
L 120.908443 80.939582 
L 121.02308 80.831407 
L 121.12396 80.739874 
L 121.133131 80.739874 
L 121.308907 80.631699 
L 121.413455 80.540166 
L 121.419263 80.540166 
L 121.580366 80.43199 
L 121.688277 80.323815 
L 121.689805 80.323815 
L 121.840208 80.21564 
L 121.949037 80.115785 
L 122.133983 80.00761 
L 122.241894 79.924398 
L 122.244034 79.924398 
L 122.362339 79.816223 
L 122.466888 79.733011 
L 122.468722 79.733011 
L 122.677513 79.624836 
L 122.788481 79.558266 
L 122.964868 79.450091 
L 123.067582 79.350237 
L 123.075225 79.350237 
L 123.200561 79.250383 
L 123.308166 79.183813 
L 123.455512 79.075638 
L 123.564952 78.959141 
L 123.757235 78.850966 
L 123.850167 78.742791 
L 123.867898 78.742791 
L 124.023192 78.634615 
L 124.127435 78.52644 
L 124.132937 78.52644 
L 124.227703 78.418265 
L 124.329806 78.310089 
L 124.338671 78.310089 
L 124.479292 78.201914 
L 124.574669 78.151987 
L 124.589649 78.151987 
L 124.74372 78.043812 
L 124.854077 77.968921 
L 124.965656 77.860746 
L 125.076624 77.75257 
L 125.19982 77.644395 
L 125.286638 77.569504 
L 125.310483 77.569504 
L 125.404026 77.461329 
L 125.475865 77.419723 
L 125.514688 77.419723 
L 125.655003 77.311548 
L 125.762303 77.2533 
L 125.76536 77.2533 
L 126.042322 77.153445 
L 126.148704 77.036949 
L 126.152984 77.036949 
L 126.358718 76.937095 
L 126.438811 76.862204 
L 126.469686 76.862204 
L 126.660441 76.754029 
L 126.770798 76.687459 
L 127.064573 76.579284 
L 127.165453 76.504393 
L 127.174624 76.504393 
L 127.403285 76.396218 
L 127.505388 76.304685 
L 127.511808 76.304685 
L 127.693698 76.19651 
L 127.772262 76.12994 
L 127.796412 76.12994 
L 128.042498 76.021765 
L 128.13971 75.963517 
L 128.152549 75.963517 
L 128.413309 75.855341 
L 128.486676 75.797093 
L 128.522443 75.797093 
L 128.749576 75.688918 
L 128.839145 75.630669 
L 128.85443 75.630669 
L 129.161655 75.522494 
L 129.270178 75.455925 
L 129.619284 75.347749 
L 129.714662 75.306143 
L 129.727501 75.306143 
L 130.069882 75.197968 
L 130.148752 75.148041 
L 130.180544 75.148041 
L 130.37405 75.039866 
L 130.457506 74.989939 
L 130.484407 74.989939 
L 130.789799 74.881763 
L 130.899238 74.823515 
L 130.900155 74.823515 
L 131.214412 74.71534 
L 131.303064 74.673734 
L 131.319266 74.673734 
L 131.558321 74.565558 
L 131.654004 74.50731 
L 131.666538 74.50731 
L 132.177969 74.399135 
L 132.215876 74.374171 
L 132.287715 74.374171 
L 132.760322 74.274317 
L 132.813819 74.22439 
L 132.87129 74.22439 
L 133.125936 74.116215 
L 133.211531 74.099572 
L 133.236904 74.099572 
L 133.545964 73.991397 
L 133.611078 73.94147 
L 133.656932 73.94147 
L 134.228892 73.833295 
L 134.338943 73.791689 
L 134.751939 73.683513 
L 134.861073 73.641907 
L 135.373422 73.533732 
L 135.459934 73.483805 
L 135.483778 73.483805 
L 135.838081 73.37563 
L 135.929179 73.342345 
L 135.94905 73.342345 
L 136.421963 73.23417 
L 136.470875 73.184243 
L 136.526511 73.184243 
L 136.967938 73.076067 
L 136.970689 73.051104 
L 137.078601 73.051104 
L 137.833978 72.942928 
L 137.894506 72.909644 
L 137.944946 72.909644 
L 138.439259 72.801468 
L 138.527299 72.768184 
L 138.549615 72.768184 
L 139.028948 72.660008 
L 139.137471 72.635045 
L 139.139611 72.635045 
L 139.613747 72.526869 
L 139.709125 72.476942 
L 139.724104 72.476942 
L 140.313182 72.368767 
L 140.398472 72.327161 
L 140.422316 72.327161 
L 140.896758 72.218986 
L 140.978685 72.202343 
L 141.007421 72.202343 
L 141.639602 72.094168 
L 141.690959 72.077526 
L 141.750265 72.077526 
L 142.562196 71.96935 
L 142.627921 71.944387 
L 142.672553 71.944387 
L 143.30932 71.836211 
L 143.388801 71.802927 
L 143.41234 71.802927 
L 143.835119 71.694751 
L 143.90115 71.653145 
L 143.945476 71.653145 
L 144.452628 71.54497 
L 144.487477 71.503364 
L 144.56115 71.503364 
L 145.018167 71.395189 
L 145.018167 71.386868 
L 145.12027 71.386868 
L 145.670831 71.278692 
L 145.76468 71.253729 
L 145.778742 71.253729 
L 146.292619 71.145554 
L 146.3131 71.128911 
L 146.400224 71.128911 
L 147.279409 71.020736 
L 147.31915 70.987451 
L 147.38732 70.987451 
L 148.126496 70.879276 
L 148.202003 70.854312 
L 148.237464 70.854312 
L 148.845801 70.746137 
L 148.954324 70.69621 
L 149.655288 70.588034 
L 149.743023 70.563071 
L 149.76595 70.563071 
L 150.863097 70.454896 
L 150.910786 70.438253 
L 150.974065 70.438253 
L 151.491305 70.330078 
L 151.539605 70.313436 
L 151.602273 70.313436 
L 152.521504 70.20526 
L 152.569804 70.180297 
L 152.630332 70.180297 
L 153.56974 70.072121 
L 153.657781 70.055479 
L 153.669091 70.055479 
L 154.38962 69.947304 
L 154.496308 69.914019 
L 154.499976 69.914019 
L 155.167313 69.805844 
L 155.167313 69.797522 
L 155.277364 69.797522 
L 155.846878 69.689347 
L 155.846878 69.681026 
L 155.95754 69.681026 
L 156.849259 69.57285 
L 156.872798 69.547887 
L 156.941579 69.547887 
L 157.707351 69.439712 
L 157.723247 69.423069 
L 157.817402 69.423069 
L 159.576078 69.314894 
L 159.65617 69.298252 
L 159.687046 69.298252 
L 160.792752 69.190076 
L 160.792752 69.181755 
L 160.899441 69.181755 
L 163.249029 69.07358 
L 163.342572 69.048616 
L 163.359691 69.048616 
L 164.96827 68.940441 
L 164.992114 68.923798 
L 165.078627 68.923798 
L 166.938182 68.815623 
L 167.011244 68.798981 
L 167.049151 68.798981 
L 168.805992 68.690805 
L 168.831976 68.674163 
L 168.916349 68.674163 
L 171.196544 68.565988 
L 171.282139 68.549345 
L 171.307206 68.549345 
L 173.109902 68.44117 
L 173.109902 68.432849 
L 173.219953 68.432849 
L 174.190236 68.324674 
L 174.190236 68.316352 
L 174.300593 68.316352 
L 175.792701 68.208177 
L 175.876768 68.191535 
L 175.882576 68.191535 
L 178.9692 68.083359 
L 178.987236 68.066717 
L 179.079251 68.066717 
L 181.358835 67.958542 
L 181.358835 67.933578 
L 181.469497 67.933578 
L 185.723579 67.825403 
L 185.804589 67.80876 
L 185.825987 67.80876 
L 188.265756 67.700585 
L 188.265756 67.692264 
L 188.376419 67.692264 
L 193.931548 67.584088 
L 193.931548 67.575767 
L 194.040682 67.575767 
L 204.206641 67.467592 
L 204.206641 67.459271 
L 204.317609 67.459271 
L 211.097361 67.351095 
L 211.119982 67.334453 
L 211.208329 67.334453 
L 228.852558 67.226278 
L 228.852558 67.217957 
L 228.961386 67.217957 
L 270.317932 67.109781 
L 270.317932 67.10146 
L 270.426455 67.10146 
L 418.972655 66.993285 
L 418.972655 66.984964 
L 419.0824 66.984964 
L 498.109091 66.96 
L 498.109091 66.96 
" style="fill:none;stroke:#ff0000;stroke-linecap:square;stroke-width:1.5;"/>
   </g>
   <g id="patch_3">
    <path d="M 72 384.48 
L 72 51.84 
" style="fill:none;stroke:#000000;stroke-linecap:square;stroke-linejoin:miter;stroke-width:0.8;"/>
   </g>
   <g id="patch_4">
    <path d="M 518.4 384.48 
L 518.4 51.84 
" style="fill:none;stroke:#000000;stroke-linecap:square;stroke-linejoin:miter;stroke-width:0.8;"/>
   </g>
   <g id="patch_5">
    <path d="M 72 384.48 
L 518.4 384.48 
" style="fill:none;stroke:#000000;stroke-linecap:square;stroke-linejoin:miter;stroke-width:0.8;"/>
   </g>
   <g id="patch_6">
    <path d="M 72 51.84 
L 518.4 51.84 
" style="fill:none;stroke:#000000;stroke-linecap:square;stroke-linejoin:miter;stroke-width:0.8;"/>
   </g>
   <g id="text_15">
    <!-- ROC Curves -->
    <g transform="translate(237.894 45.84)scale(0.192 -0.192)">
     <defs>
      <path d="M 39.40625 66.21875 
Q 28.65625 66.21875 22.328125 58.203125 
Q 16.015625 50.203125 16.015625 36.375 
Q 16.015625 22.609375 22.328125 14.59375 
Q 28.65625 6.59375 39.40625 6.59375 
Q 50.140625 6.59375 56.421875 14.59375 
Q 62.703125 22.609375 62.703125 36.375 
Q 62.703125 50.203125 56.421875 58.203125 
Q 50.140625 66.21875 39.40625 66.21875 
z
M 39.40625 74.21875 
Q 54.734375 74.21875 63.90625 63.9375 
Q 73.09375 53.65625 73.09375 36.375 
Q 73.09375 19.140625 63.90625 8.859375 
Q 54.734375 -1.421875 39.40625 -1.421875 
Q 24.03125 -1.421875 14.8125 8.828125 
Q 5.609375 19.09375 5.609375 36.375 
Q 5.609375 53.65625 14.8125 63.9375 
Q 24.03125 74.21875 39.40625 74.21875 
z
" id="DejaVuSans-79"/>
      <path d="M 64.40625 67.28125 
L 64.40625 56.890625 
Q 59.421875 61.53125 53.78125 63.8125 
Q 48.140625 66.109375 41.796875 66.109375 
Q 29.296875 66.109375 22.65625 58.46875 
Q 16.015625 50.828125 16.015625 36.375 
Q 16.015625 21.96875 22.65625 14.328125 
Q 29.296875 6.6875 41.796875 6.6875 
Q 48.140625 6.6875 53.78125 8.984375 
Q 59.421875 11.28125 64.40625 15.921875 
L 64.40625 5.609375 
Q 59.234375 2.09375 53.4375 0.328125 
Q 47.65625 -1.421875 41.21875 -1.421875 
Q 24.65625 -1.421875 15.125 8.703125 
Q 5.609375 18.84375 5.609375 36.375 
Q 5.609375 53.953125 15.125 64.078125 
Q 24.65625 74.21875 41.21875 74.21875 
Q 47.75 74.21875 53.53125 72.484375 
Q 59.328125 70.75 64.40625 67.28125 
z
" id="DejaVuSans-67"/>
     </defs>
     <use xlink:href="#DejaVuSans-82"/>
     <use x="69.482422" xlink:href="#DejaVuSans-79"/>
     <use x="148.193359" xlink:href="#DejaVuSans-67"/>
     <use x="218.017578" xlink:href="#DejaVuSans-32"/>
     <use x="249.804688" xlink:href="#DejaVuSans-67"/>
     <use x="319.628906" xlink:href="#DejaVuSans-117"/>
     <use x="383.007812" xlink:href="#DejaVuSans-114"/>
     <use x="424.121094" xlink:href="#DejaVuSans-118"/>
     <use x="483.300781" xlink:href="#DejaVuSans-101"/>
     <use x="544.824219" xlink:href="#DejaVuSans-115"/>
    </g>
   </g>
   <g id="legend_1">
    <g id="patch_7">
     <path d="M 388.9825 376.48 
L 507.2 376.48 
Q 510.4 376.48 510.4 373.28 
L 510.4 327.91 
Q 510.4 324.71 507.2 324.71 
L 388.9825 324.71 
Q 385.7825 324.71 385.7825 327.91 
L 385.7825 373.28 
Q 385.7825 376.48 388.9825 376.48 
z
" style="fill:#ffffff;opacity:0.8;stroke:#cccccc;stroke-linejoin:miter;"/>
    </g>
    <g id="line2d_15">
     <path d="M 392.1825 337.6675 
L 424.1825 337.6675 
" style="fill:none;stroke:#0000ff;stroke-linecap:square;stroke-width:1.5;"/>
    </g>
    <g id="line2d_16"/>
    <g id="text_16">
     <!-- baseline -->
     <g transform="translate(436.9825 343.2675)scale(0.16 -0.16)">
      <defs>
       <path d="M 48.6875 27.296875 
Q 48.6875 37.203125 44.609375 42.84375 
Q 40.53125 48.484375 33.40625 48.484375 
Q 26.265625 48.484375 22.1875 42.84375 
Q 18.109375 37.203125 18.109375 27.296875 
Q 18.109375 17.390625 22.1875 11.75 
Q 26.265625 6.109375 33.40625 6.109375 
Q 40.53125 6.109375 44.609375 11.75 
Q 48.6875 17.390625 48.6875 27.296875 
z
M 18.109375 46.390625 
Q 20.953125 51.265625 25.265625 53.625 
Q 29.59375 56 35.59375 56 
Q 45.5625 56 51.78125 48.09375 
Q 58.015625 40.1875 58.015625 27.296875 
Q 58.015625 14.40625 51.78125 6.484375 
Q 45.5625 -1.421875 35.59375 -1.421875 
Q 29.59375 -1.421875 25.265625 0.953125 
Q 20.953125 3.328125 18.109375 8.203125 
L 18.109375 0 
L 9.078125 0 
L 9.078125 75.984375 
L 18.109375 75.984375 
z
" id="DejaVuSans-98"/>
       <path d="M 54.890625 33.015625 
L 54.890625 0 
L 45.90625 0 
L 45.90625 32.71875 
Q 45.90625 40.484375 42.875 44.328125 
Q 39.84375 48.1875 33.796875 48.1875 
Q 26.515625 48.1875 22.3125 43.546875 
Q 18.109375 38.921875 18.109375 30.90625 
L 18.109375 0 
L 9.078125 0 
L 9.078125 54.6875 
L 18.109375 54.6875 
L 18.109375 46.1875 
Q 21.34375 51.125 25.703125 53.5625 
Q 30.078125 56 35.796875 56 
Q 45.21875 56 50.046875 50.171875 
Q 54.890625 44.34375 54.890625 33.015625 
z
" id="DejaVuSans-110"/>
      </defs>
      <use xlink:href="#DejaVuSans-98"/>
      <use x="63.476562" xlink:href="#DejaVuSans-97"/>
      <use x="124.755859" xlink:href="#DejaVuSans-115"/>
      <use x="176.855469" xlink:href="#DejaVuSans-101"/>
      <use x="238.378906" xlink:href="#DejaVuSans-108"/>
      <use x="266.162109" xlink:href="#DejaVuSans-105"/>
      <use x="293.945312" xlink:href="#DejaVuSans-110"/>
      <use x="357.324219" xlink:href="#DejaVuSans-101"/>
     </g>
    </g>
    <g id="line2d_17">
     <path d="M 392.1825 361.1525 
L 424.1825 361.1525 
" style="fill:none;stroke:#ff0000;stroke-linecap:square;stroke-width:1.5;"/>
    </g>
    <g id="line2d_18"/>
    <g id="text_17">
     <!-- model -->
     <g transform="translate(436.9825 366.7525)scale(0.16 -0.16)">
      <defs>
       <path d="M 52 44.1875 
Q 55.375 50.25 60.0625 53.125 
Q 64.75 56 71.09375 56 
Q 79.640625 56 84.28125 50.015625 
Q 88.921875 44.046875 88.921875 33.015625 
L 88.921875 0 
L 79.890625 0 
L 79.890625 32.71875 
Q 79.890625 40.578125 77.09375 44.375 
Q 74.3125 48.1875 68.609375 48.1875 
Q 61.625 48.1875 57.5625 43.546875 
Q 53.515625 38.921875 53.515625 30.90625 
L 53.515625 0 
L 44.484375 0 
L 44.484375 32.71875 
Q 44.484375 40.625 41.703125 44.40625 
Q 38.921875 48.1875 33.109375 48.1875 
Q 26.21875 48.1875 22.15625 43.53125 
Q 18.109375 38.875 18.109375 30.90625 
L 18.109375 0 
L 9.078125 0 
L 9.078125 54.6875 
L 18.109375 54.6875 
L 18.109375 46.1875 
Q 21.1875 51.21875 25.484375 53.609375 
Q 29.78125 56 35.6875 56 
Q 41.65625 56 45.828125 52.96875 
Q 50 49.953125 52 44.1875 
z
" id="DejaVuSans-109"/>
       <path d="M 45.40625 46.390625 
L 45.40625 75.984375 
L 54.390625 75.984375 
L 54.390625 0 
L 45.40625 0 
L 45.40625 8.203125 
Q 42.578125 3.328125 38.25 0.953125 
Q 33.9375 -1.421875 27.875 -1.421875 
Q 17.96875 -1.421875 11.734375 6.484375 
Q 5.515625 14.40625 5.515625 27.296875 
Q 5.515625 40.1875 11.734375 48.09375 
Q 17.96875 56 27.875 56 
Q 33.9375 56 38.25 53.625 
Q 42.578125 51.265625 45.40625 46.390625 
z
M 14.796875 27.296875 
Q 14.796875 17.390625 18.875 11.75 
Q 22.953125 6.109375 30.078125 6.109375 
Q 37.203125 6.109375 41.296875 11.75 
Q 45.40625 17.390625 45.40625 27.296875 
Q 45.40625 37.203125 41.296875 42.84375 
Q 37.203125 48.484375 30.078125 48.484375 
Q 22.953125 48.484375 18.875 42.84375 
Q 14.796875 37.203125 14.796875 27.296875 
z
" id="DejaVuSans-100"/>
      </defs>
      <use xlink:href="#DejaVuSans-109"/>
      <use x="97.412109" xlink:href="#DejaVuSans-111"/>
      <use x="158.59375" xlink:href="#DejaVuSans-100"/>
      <use x="222.070312" xlink:href="#DejaVuSans-101"/>
      <use x="283.59375" xlink:href="#DejaVuSans-108"/>
     </g>
    </g>
   </g>
  </g>
 </g>
 <defs>
  <clipPath id="p0d0c5de4cd">
   <rect height="332.64" width="446.4" x="72" y="51.84"/>
  </clipPath>
 </defs>
</svg>
