<?xml version="1.0" encoding="utf-8" standalone="no"?>
<!DOCTYPE svg PUBLIC "-//W3C//DTD SVG 1.1//EN"
  "http://www.w3.org/Graphics/SVG/1.1/DTD/svg11.dtd">
<!-- Created with matplotlib (https://matplotlib.org/) -->
<svg height="432pt" version="1.1" viewBox="0 0 576 432" width="576pt" xmlns="http://www.w3.org/2000/svg" xmlns:xlink="http://www.w3.org/1999/xlink">
 <metadata>
  <rdf:RDF xmlns:cc="http://creativecommons.org/ns#" xmlns:dc="http://purl.org/dc/elements/1.1/" xmlns:rdf="http://www.w3.org/1999/02/22-rdf-syntax-ns#">
   <cc:Work>
    <dc:type rdf:resource="http://purl.org/dc/dcmitype/StillImage"/>
    <dc:date>2020-09-18T03:03:41.138808</dc:date>
    <dc:format>image/svg+xml</dc:format>
    <dc:creator>
     <cc:Agent>
      <dc:title>Matplotlib v3.3.0, https://matplotlib.org/</dc:title>
     </cc:Agent>
    </dc:creator>
   </cc:Work>
  </rdf:RDF>
 </metadata>
 <defs>
  <style type="text/css">*{stroke-linecap:butt;stroke-linejoin:round;}</style>
 </defs>
 <g id="figure_1">
  <g id="patch_1">
   <path d="M 0 432 
L 576 432 
L 576 0 
L 0 0 
z
" style="fill:#ffffff;"/>
  </g>
  <g id="axes_1">
   <g id="patch_2">
    <path d="M 72 384.48 
L 518.4 384.48 
L 518.4 51.84 
L 72 51.84 
z
" style="fill:#ffffff;"/>
   </g>
   <g id="matplotlib.axis_1">
    <g id="xtick_1">
     <g id="line2d_1">
      <defs>
       <path d="M 0 0 
L 0 3.5 
" id="m4b24d01f3d" style="stroke:#000000;stroke-width:0.8;"/>
      </defs>
      <g>
       <use style="stroke:#000000;stroke-width:0.8;" x="92.290909" xlink:href="#m4b24d01f3d" y="384.48"/>
      </g>
     </g>
     <g id="text_1">
      <!-- 0.0 -->
      <g transform="translate(79.568409 403.6375)scale(0.16 -0.16)">
       <defs>
        <path d="M 31.78125 66.40625 
Q 24.171875 66.40625 20.328125 58.90625 
Q 16.5 51.421875 16.5 36.375 
Q 16.5 21.390625 20.328125 13.890625 
Q 24.171875 6.390625 31.78125 6.390625 
Q 39.453125 6.390625 43.28125 13.890625 
Q 47.125 21.390625 47.125 36.375 
Q 47.125 51.421875 43.28125 58.90625 
Q 39.453125 66.40625 31.78125 66.40625 
z
M 31.78125 74.21875 
Q 44.046875 74.21875 50.515625 64.515625 
Q 56.984375 54.828125 56.984375 36.375 
Q 56.984375 17.96875 50.515625 8.265625 
Q 44.046875 -1.421875 31.78125 -1.421875 
Q 19.53125 -1.421875 13.0625 8.265625 
Q 6.59375 17.96875 6.59375 36.375 
Q 6.59375 54.828125 13.0625 64.515625 
Q 19.53125 74.21875 31.78125 74.21875 
z
" id="DejaVuSans-48"/>
        <path d="M 10.6875 12.40625 
L 21 12.40625 
L 21 0 
L 10.6875 0 
z
" id="DejaVuSans-46"/>
       </defs>
       <use xlink:href="#DejaVuSans-48"/>
       <use x="63.623047" xlink:href="#DejaVuSans-46"/>
       <use x="95.410156" xlink:href="#DejaVuSans-48"/>
      </g>
     </g>
    </g>
    <g id="xtick_2">
     <g id="line2d_2">
      <g>
       <use style="stroke:#000000;stroke-width:0.8;" x="173.454545" xlink:href="#m4b24d01f3d" y="384.48"/>
      </g>
     </g>
     <g id="text_2">
      <!-- 0.2 -->
      <g transform="translate(160.732045 403.6375)scale(0.16 -0.16)">
       <defs>
        <path d="M 19.1875 8.296875 
L 53.609375 8.296875 
L 53.609375 0 
L 7.328125 0 
L 7.328125 8.296875 
Q 12.9375 14.109375 22.625 23.890625 
Q 32.328125 33.6875 34.8125 36.53125 
Q 39.546875 41.84375 41.421875 45.53125 
Q 43.3125 49.21875 43.3125 52.78125 
Q 43.3125 58.59375 39.234375 62.25 
Q 35.15625 65.921875 28.609375 65.921875 
Q 23.96875 65.921875 18.8125 64.3125 
Q 13.671875 62.703125 7.8125 59.421875 
L 7.8125 69.390625 
Q 13.765625 71.78125 18.9375 73 
Q 24.125 74.21875 28.421875 74.21875 
Q 39.75 74.21875 46.484375 68.546875 
Q 53.21875 62.890625 53.21875 53.421875 
Q 53.21875 48.921875 51.53125 44.890625 
Q 49.859375 40.875 45.40625 35.40625 
Q 44.1875 33.984375 37.640625 27.21875 
Q 31.109375 20.453125 19.1875 8.296875 
z
" id="DejaVuSans-50"/>
       </defs>
       <use xlink:href="#DejaVuSans-48"/>
       <use x="63.623047" xlink:href="#DejaVuSans-46"/>
       <use x="95.410156" xlink:href="#DejaVuSans-50"/>
      </g>
     </g>
    </g>
    <g id="xtick_3">
     <g id="line2d_3">
      <g>
       <use style="stroke:#000000;stroke-width:0.8;" x="254.618182" xlink:href="#m4b24d01f3d" y="384.48"/>
      </g>
     </g>
     <g id="text_3">
      <!-- 0.4 -->
      <g transform="translate(241.895682 403.6375)scale(0.16 -0.16)">
       <defs>
        <path d="M 37.796875 64.3125 
L 12.890625 25.390625 
L 37.796875 25.390625 
z
M 35.203125 72.90625 
L 47.609375 72.90625 
L 47.609375 25.390625 
L 58.015625 25.390625 
L 58.015625 17.1875 
L 47.609375 17.1875 
L 47.609375 0 
L 37.796875 0 
L 37.796875 17.1875 
L 4.890625 17.1875 
L 4.890625 26.703125 
z
" id="DejaVuSans-52"/>
       </defs>
       <use xlink:href="#DejaVuSans-48"/>
       <use x="63.623047" xlink:href="#DejaVuSans-46"/>
       <use x="95.410156" xlink:href="#DejaVuSans-52"/>
      </g>
     </g>
    </g>
    <g id="xtick_4">
     <g id="line2d_4">
      <g>
       <use style="stroke:#000000;stroke-width:0.8;" x="335.781818" xlink:href="#m4b24d01f3d" y="384.48"/>
      </g>
     </g>
     <g id="text_4">
      <!-- 0.6 -->
      <g transform="translate(323.059318 403.6375)scale(0.16 -0.16)">
       <defs>
        <path d="M 33.015625 40.375 
Q 26.375 40.375 22.484375 35.828125 
Q 18.609375 31.296875 18.609375 23.390625 
Q 18.609375 15.53125 22.484375 10.953125 
Q 26.375 6.390625 33.015625 6.390625 
Q 39.65625 6.390625 43.53125 10.953125 
Q 47.40625 15.53125 47.40625 23.390625 
Q 47.40625 31.296875 43.53125 35.828125 
Q 39.65625 40.375 33.015625 40.375 
z
M 52.59375 71.296875 
L 52.59375 62.3125 
Q 48.875 64.0625 45.09375 64.984375 
Q 41.3125 65.921875 37.59375 65.921875 
Q 27.828125 65.921875 22.671875 59.328125 
Q 17.53125 52.734375 16.796875 39.40625 
Q 19.671875 43.65625 24.015625 45.921875 
Q 28.375 48.1875 33.59375 48.1875 
Q 44.578125 48.1875 50.953125 41.515625 
Q 57.328125 34.859375 57.328125 23.390625 
Q 57.328125 12.15625 50.6875 5.359375 
Q 44.046875 -1.421875 33.015625 -1.421875 
Q 20.359375 -1.421875 13.671875 8.265625 
Q 6.984375 17.96875 6.984375 36.375 
Q 6.984375 53.65625 15.1875 63.9375 
Q 23.390625 74.21875 37.203125 74.21875 
Q 40.921875 74.21875 44.703125 73.484375 
Q 48.484375 72.75 52.59375 71.296875 
z
" id="DejaVuSans-54"/>
       </defs>
       <use xlink:href="#DejaVuSans-48"/>
       <use x="63.623047" xlink:href="#DejaVuSans-46"/>
       <use x="95.410156" xlink:href="#DejaVuSans-54"/>
      </g>
     </g>
    </g>
    <g id="xtick_5">
     <g id="line2d_5">
      <g>
       <use style="stroke:#000000;stroke-width:0.8;" x="416.945455" xlink:href="#m4b24d01f3d" y="384.48"/>
      </g>
     </g>
     <g id="text_5">
      <!-- 0.8 -->
      <g transform="translate(404.222955 403.6375)scale(0.16 -0.16)">
       <defs>
        <path d="M 31.78125 34.625 
Q 24.75 34.625 20.71875 30.859375 
Q 16.703125 27.09375 16.703125 20.515625 
Q 16.703125 13.921875 20.71875 10.15625 
Q 24.75 6.390625 31.78125 6.390625 
Q 38.8125 6.390625 42.859375 10.171875 
Q 46.921875 13.96875 46.921875 20.515625 
Q 46.921875 27.09375 42.890625 30.859375 
Q 38.875 34.625 31.78125 34.625 
z
M 21.921875 38.8125 
Q 15.578125 40.375 12.03125 44.71875 
Q 8.5 49.078125 8.5 55.328125 
Q 8.5 64.0625 14.71875 69.140625 
Q 20.953125 74.21875 31.78125 74.21875 
Q 42.671875 74.21875 48.875 69.140625 
Q 55.078125 64.0625 55.078125 55.328125 
Q 55.078125 49.078125 51.53125 44.71875 
Q 48 40.375 41.703125 38.8125 
Q 48.828125 37.15625 52.796875 32.3125 
Q 56.78125 27.484375 56.78125 20.515625 
Q 56.78125 9.90625 50.3125 4.234375 
Q 43.84375 -1.421875 31.78125 -1.421875 
Q 19.734375 -1.421875 13.25 4.234375 
Q 6.78125 9.90625 6.78125 20.515625 
Q 6.78125 27.484375 10.78125 32.3125 
Q 14.796875 37.15625 21.921875 38.8125 
z
M 18.3125 54.390625 
Q 18.3125 48.734375 21.84375 45.5625 
Q 25.390625 42.390625 31.78125 42.390625 
Q 38.140625 42.390625 41.71875 45.5625 
Q 45.3125 48.734375 45.3125 54.390625 
Q 45.3125 60.0625 41.71875 63.234375 
Q 38.140625 66.40625 31.78125 66.40625 
Q 25.390625 66.40625 21.84375 63.234375 
Q 18.3125 60.0625 18.3125 54.390625 
z
" id="DejaVuSans-56"/>
       </defs>
       <use xlink:href="#DejaVuSans-48"/>
       <use x="63.623047" xlink:href="#DejaVuSans-46"/>
       <use x="95.410156" xlink:href="#DejaVuSans-56"/>
      </g>
     </g>
    </g>
    <g id="xtick_6">
     <g id="line2d_6">
      <g>
       <use style="stroke:#000000;stroke-width:0.8;" x="498.109091" xlink:href="#m4b24d01f3d" y="384.48"/>
      </g>
     </g>
     <g id="text_6">
      <!-- 1.0 -->
      <g transform="translate(485.386591 403.6375)scale(0.16 -0.16)">
       <defs>
        <path d="M 12.40625 8.296875 
L 28.515625 8.296875 
L 28.515625 63.921875 
L 10.984375 60.40625 
L 10.984375 69.390625 
L 28.421875 72.90625 
L 38.28125 72.90625 
L 38.28125 8.296875 
L 54.390625 8.296875 
L 54.390625 0 
L 12.40625 0 
z
" id="DejaVuSans-49"/>
       </defs>
       <use xlink:href="#DejaVuSans-49"/>
       <use x="63.623047" xlink:href="#DejaVuSans-46"/>
       <use x="95.410156" xlink:href="#DejaVuSans-48"/>
      </g>
     </g>
    </g>
    <g id="text_7">
     <!-- False Positive Rate -->
     <g transform="translate(220.85375 423.1225)scale(0.16 -0.16)">
      <defs>
       <path d="M 9.8125 72.90625 
L 51.703125 72.90625 
L 51.703125 64.59375 
L 19.671875 64.59375 
L 19.671875 43.109375 
L 48.578125 43.109375 
L 48.578125 34.8125 
L 19.671875 34.8125 
L 19.671875 0 
L 9.8125 0 
z
" id="DejaVuSans-70"/>
       <path d="M 34.28125 27.484375 
Q 23.390625 27.484375 19.1875 25 
Q 14.984375 22.515625 14.984375 16.5 
Q 14.984375 11.71875 18.140625 8.90625 
Q 21.296875 6.109375 26.703125 6.109375 
Q 34.1875 6.109375 38.703125 11.40625 
Q 43.21875 16.703125 43.21875 25.484375 
L 43.21875 27.484375 
z
M 52.203125 31.203125 
L 52.203125 0 
L 43.21875 0 
L 43.21875 8.296875 
Q 40.140625 3.328125 35.546875 0.953125 
Q 30.953125 -1.421875 24.3125 -1.421875 
Q 15.921875 -1.421875 10.953125 3.296875 
Q 6 8.015625 6 15.921875 
Q 6 25.140625 12.171875 29.828125 
Q 18.359375 34.515625 30.609375 34.515625 
L 43.21875 34.515625 
L 43.21875 35.40625 
Q 43.21875 41.609375 39.140625 45 
Q 35.0625 48.390625 27.6875 48.390625 
Q 23 48.390625 18.546875 47.265625 
Q 14.109375 46.140625 10.015625 43.890625 
L 10.015625 52.203125 
Q 14.9375 54.109375 19.578125 55.046875 
Q 24.21875 56 28.609375 56 
Q 40.484375 56 46.34375 49.84375 
Q 52.203125 43.703125 52.203125 31.203125 
z
" id="DejaVuSans-97"/>
       <path d="M 9.421875 75.984375 
L 18.40625 75.984375 
L 18.40625 0 
L 9.421875 0 
z
" id="DejaVuSans-108"/>
       <path d="M 44.28125 53.078125 
L 44.28125 44.578125 
Q 40.484375 46.53125 36.375 47.5 
Q 32.28125 48.484375 27.875 48.484375 
Q 21.1875 48.484375 17.84375 46.4375 
Q 14.5 44.390625 14.5 40.28125 
Q 14.5 37.15625 16.890625 35.375 
Q 19.28125 33.59375 26.515625 31.984375 
L 29.59375 31.296875 
Q 39.15625 29.25 43.1875 25.515625 
Q 47.21875 21.78125 47.21875 15.09375 
Q 47.21875 7.46875 41.1875 3.015625 
Q 35.15625 -1.421875 24.609375 -1.421875 
Q 20.21875 -1.421875 15.453125 -0.5625 
Q 10.6875 0.296875 5.421875 2 
L 5.421875 11.28125 
Q 10.40625 8.6875 15.234375 7.390625 
Q 20.0625 6.109375 24.8125 6.109375 
Q 31.15625 6.109375 34.5625 8.28125 
Q 37.984375 10.453125 37.984375 14.40625 
Q 37.984375 18.0625 35.515625 20.015625 
Q 33.0625 21.96875 24.703125 23.78125 
L 21.578125 24.515625 
Q 13.234375 26.265625 9.515625 29.90625 
Q 5.8125 33.546875 5.8125 39.890625 
Q 5.8125 47.609375 11.28125 51.796875 
Q 16.75 56 26.8125 56 
Q 31.78125 56 36.171875 55.265625 
Q 40.578125 54.546875 44.28125 53.078125 
z
" id="DejaVuSans-115"/>
       <path d="M 56.203125 29.59375 
L 56.203125 25.203125 
L 14.890625 25.203125 
Q 15.484375 15.921875 20.484375 11.0625 
Q 25.484375 6.203125 34.421875 6.203125 
Q 39.59375 6.203125 44.453125 7.46875 
Q 49.3125 8.734375 54.109375 11.28125 
L 54.109375 2.78125 
Q 49.265625 0.734375 44.1875 -0.34375 
Q 39.109375 -1.421875 33.890625 -1.421875 
Q 20.796875 -1.421875 13.15625 6.1875 
Q 5.515625 13.8125 5.515625 26.8125 
Q 5.515625 40.234375 12.765625 48.109375 
Q 20.015625 56 32.328125 56 
Q 43.359375 56 49.78125 48.890625 
Q 56.203125 41.796875 56.203125 29.59375 
z
M 47.21875 32.234375 
Q 47.125 39.59375 43.09375 43.984375 
Q 39.0625 48.390625 32.421875 48.390625 
Q 24.90625 48.390625 20.390625 44.140625 
Q 15.875 39.890625 15.1875 32.171875 
z
" id="DejaVuSans-101"/>
       <path id="DejaVuSans-32"/>
       <path d="M 19.671875 64.796875 
L 19.671875 37.40625 
L 32.078125 37.40625 
Q 38.96875 37.40625 42.71875 40.96875 
Q 46.484375 44.53125 46.484375 51.125 
Q 46.484375 57.671875 42.71875 61.234375 
Q 38.96875 64.796875 32.078125 64.796875 
z
M 9.8125 72.90625 
L 32.078125 72.90625 
Q 44.34375 72.90625 50.609375 67.359375 
Q 56.890625 61.8125 56.890625 51.125 
Q 56.890625 40.328125 50.609375 34.8125 
Q 44.34375 29.296875 32.078125 29.296875 
L 19.671875 29.296875 
L 19.671875 0 
L 9.8125 0 
z
" id="DejaVuSans-80"/>
       <path d="M 30.609375 48.390625 
Q 23.390625 48.390625 19.1875 42.75 
Q 14.984375 37.109375 14.984375 27.296875 
Q 14.984375 17.484375 19.15625 11.84375 
Q 23.34375 6.203125 30.609375 6.203125 
Q 37.796875 6.203125 41.984375 11.859375 
Q 46.1875 17.53125 46.1875 27.296875 
Q 46.1875 37.015625 41.984375 42.703125 
Q 37.796875 48.390625 30.609375 48.390625 
z
M 30.609375 56 
Q 42.328125 56 49.015625 48.375 
Q 55.71875 40.765625 55.71875 27.296875 
Q 55.71875 13.875 49.015625 6.21875 
Q 42.328125 -1.421875 30.609375 -1.421875 
Q 18.84375 -1.421875 12.171875 6.21875 
Q 5.515625 13.875 5.515625 27.296875 
Q 5.515625 40.765625 12.171875 48.375 
Q 18.84375 56 30.609375 56 
z
" id="DejaVuSans-111"/>
       <path d="M 9.421875 54.6875 
L 18.40625 54.6875 
L 18.40625 0 
L 9.421875 0 
z
M 9.421875 75.984375 
L 18.40625 75.984375 
L 18.40625 64.59375 
L 9.421875 64.59375 
z
" id="DejaVuSans-105"/>
       <path d="M 18.3125 70.21875 
L 18.3125 54.6875 
L 36.8125 54.6875 
L 36.8125 47.703125 
L 18.3125 47.703125 
L 18.3125 18.015625 
Q 18.3125 11.328125 20.140625 9.421875 
Q 21.96875 7.515625 27.59375 7.515625 
L 36.8125 7.515625 
L 36.8125 0 
L 27.59375 0 
Q 17.1875 0 13.234375 3.875 
Q 9.28125 7.765625 9.28125 18.015625 
L 9.28125 47.703125 
L 2.6875 47.703125 
L 2.6875 54.6875 
L 9.28125 54.6875 
L 9.28125 70.21875 
z
" id="DejaVuSans-116"/>
       <path d="M 2.984375 54.6875 
L 12.5 54.6875 
L 29.59375 8.796875 
L 46.6875 54.6875 
L 56.203125 54.6875 
L 35.6875 0 
L 23.484375 0 
z
" id="DejaVuSans-118"/>
       <path d="M 44.390625 34.1875 
Q 47.5625 33.109375 50.5625 29.59375 
Q 53.5625 26.078125 56.59375 19.921875 
L 66.609375 0 
L 56 0 
L 46.6875 18.703125 
Q 43.0625 26.03125 39.671875 28.421875 
Q 36.28125 30.8125 30.421875 30.8125 
L 19.671875 30.8125 
L 19.671875 0 
L 9.8125 0 
L 9.8125 72.90625 
L 32.078125 72.90625 
Q 44.578125 72.90625 50.734375 67.671875 
Q 56.890625 62.453125 56.890625 51.90625 
Q 56.890625 45.015625 53.6875 40.46875 
Q 50.484375 35.9375 44.390625 34.1875 
z
M 19.671875 64.796875 
L 19.671875 38.921875 
L 32.078125 38.921875 
Q 39.203125 38.921875 42.84375 42.21875 
Q 46.484375 45.515625 46.484375 51.90625 
Q 46.484375 58.296875 42.84375 61.546875 
Q 39.203125 64.796875 32.078125 64.796875 
z
" id="DejaVuSans-82"/>
      </defs>
      <use xlink:href="#DejaVuSans-70"/>
      <use x="48.394531" xlink:href="#DejaVuSans-97"/>
      <use x="109.673828" xlink:href="#DejaVuSans-108"/>
      <use x="137.457031" xlink:href="#DejaVuSans-115"/>
      <use x="189.556641" xlink:href="#DejaVuSans-101"/>
      <use x="251.080078" xlink:href="#DejaVuSans-32"/>
      <use x="282.867188" xlink:href="#DejaVuSans-80"/>
      <use x="339.544922" xlink:href="#DejaVuSans-111"/>
      <use x="400.726562" xlink:href="#DejaVuSans-115"/>
      <use x="452.826172" xlink:href="#DejaVuSans-105"/>
      <use x="480.609375" xlink:href="#DejaVuSans-116"/>
      <use x="519.818359" xlink:href="#DejaVuSans-105"/>
      <use x="547.601562" xlink:href="#DejaVuSans-118"/>
      <use x="606.78125" xlink:href="#DejaVuSans-101"/>
      <use x="668.304688" xlink:href="#DejaVuSans-32"/>
      <use x="700.091797" xlink:href="#DejaVuSans-82"/>
      <use x="767.324219" xlink:href="#DejaVuSans-97"/>
      <use x="828.603516" xlink:href="#DejaVuSans-116"/>
      <use x="867.8125" xlink:href="#DejaVuSans-101"/>
     </g>
    </g>
   </g>
   <g id="matplotlib.axis_2">
    <g id="ytick_1">
     <g id="line2d_7">
      <defs>
       <path d="M 0 0 
L -3.5 0 
" id="mc7f7af6692" style="stroke:#000000;stroke-width:0.8;"/>
      </defs>
      <g>
       <use style="stroke:#000000;stroke-width:0.8;" x="72" xlink:href="#mc7f7af6692" y="369.36"/>
      </g>
     </g>
     <g id="text_8">
      <!-- 0.0 -->
      <g transform="translate(39.555 375.43875)scale(0.16 -0.16)">
       <use xlink:href="#DejaVuSans-48"/>
       <use x="63.623047" xlink:href="#DejaVuSans-46"/>
       <use x="95.410156" xlink:href="#DejaVuSans-48"/>
      </g>
     </g>
    </g>
    <g id="ytick_2">
     <g id="line2d_8">
      <g>
       <use style="stroke:#000000;stroke-width:0.8;" x="72" xlink:href="#mc7f7af6692" y="308.88"/>
      </g>
     </g>
     <g id="text_9">
      <!-- 0.2 -->
      <g transform="translate(39.555 314.95875)scale(0.16 -0.16)">
       <use xlink:href="#DejaVuSans-48"/>
       <use x="63.623047" xlink:href="#DejaVuSans-46"/>
       <use x="95.410156" xlink:href="#DejaVuSans-50"/>
      </g>
     </g>
    </g>
    <g id="ytick_3">
     <g id="line2d_9">
      <g>
       <use style="stroke:#000000;stroke-width:0.8;" x="72" xlink:href="#mc7f7af6692" y="248.4"/>
      </g>
     </g>
     <g id="text_10">
      <!-- 0.4 -->
      <g transform="translate(39.555 254.47875)scale(0.16 -0.16)">
       <use xlink:href="#DejaVuSans-48"/>
       <use x="63.623047" xlink:href="#DejaVuSans-46"/>
       <use x="95.410156" xlink:href="#DejaVuSans-52"/>
      </g>
     </g>
    </g>
    <g id="ytick_4">
     <g id="line2d_10">
      <g>
       <use style="stroke:#000000;stroke-width:0.8;" x="72" xlink:href="#mc7f7af6692" y="187.92"/>
      </g>
     </g>
     <g id="text_11">
      <!-- 0.6 -->
      <g transform="translate(39.555 193.99875)scale(0.16 -0.16)">
       <use xlink:href="#DejaVuSans-48"/>
       <use x="63.623047" xlink:href="#DejaVuSans-46"/>
       <use x="95.410156" xlink:href="#DejaVuSans-54"/>
      </g>
     </g>
    </g>
    <g id="ytick_5">
     <g id="line2d_11">
      <g>
       <use style="stroke:#000000;stroke-width:0.8;" x="72" xlink:href="#mc7f7af6692" y="127.44"/>
      </g>
     </g>
     <g id="text_12">
      <!-- 0.8 -->
      <g transform="translate(39.555 133.51875)scale(0.16 -0.16)">
       <use xlink:href="#DejaVuSans-48"/>
       <use x="63.623047" xlink:href="#DejaVuSans-46"/>
       <use x="95.410156" xlink:href="#DejaVuSans-56"/>
      </g>
     </g>
    </g>
    <g id="ytick_6">
     <g id="line2d_12">
      <g>
       <use style="stroke:#000000;stroke-width:0.8;" x="72" xlink:href="#mc7f7af6692" y="66.96"/>
      </g>
     </g>
     <g id="text_13">
      <!-- 1.0 -->
      <g transform="translate(39.555 73.03875)scale(0.16 -0.16)">
       <use xlink:href="#DejaVuSans-49"/>
       <use x="63.623047" xlink:href="#DejaVuSans-46"/>
       <use x="95.410156" xlink:href="#DejaVuSans-48"/>
      </g>
     </g>
    </g>
    <g id="text_14">
     <!-- True Positive Rate -->
     <g transform="translate(32.2275 289.4075)rotate(-90)scale(0.16 -0.16)">
      <defs>
       <path d="M -0.296875 72.90625 
L 61.375 72.90625 
L 61.375 64.59375 
L 35.5 64.59375 
L 35.5 0 
L 25.59375 0 
L 25.59375 64.59375 
L -0.296875 64.59375 
z
" id="DejaVuSans-84"/>
       <path d="M 41.109375 46.296875 
Q 39.59375 47.171875 37.8125 47.578125 
Q 36.03125 48 33.890625 48 
Q 26.265625 48 22.1875 43.046875 
Q 18.109375 38.09375 18.109375 28.8125 
L 18.109375 0 
L 9.078125 0 
L 9.078125 54.6875 
L 18.109375 54.6875 
L 18.109375 46.1875 
Q 20.953125 51.171875 25.484375 53.578125 
Q 30.03125 56 36.53125 56 
Q 37.453125 56 38.578125 55.875 
Q 39.703125 55.765625 41.0625 55.515625 
z
" id="DejaVuSans-114"/>
       <path d="M 8.5 21.578125 
L 8.5 54.6875 
L 17.484375 54.6875 
L 17.484375 21.921875 
Q 17.484375 14.15625 20.5 10.265625 
Q 23.53125 6.390625 29.59375 6.390625 
Q 36.859375 6.390625 41.078125 11.03125 
Q 45.3125 15.671875 45.3125 23.6875 
L 45.3125 54.6875 
L 54.296875 54.6875 
L 54.296875 0 
L 45.3125 0 
L 45.3125 8.40625 
Q 42.046875 3.421875 37.71875 1 
Q 33.40625 -1.421875 27.6875 -1.421875 
Q 18.265625 -1.421875 13.375 4.4375 
Q 8.5 10.296875 8.5 21.578125 
z
M 31.109375 56 
z
" id="DejaVuSans-117"/>
      </defs>
      <use xlink:href="#DejaVuSans-84"/>
      <use x="46.333984" xlink:href="#DejaVuSans-114"/>
      <use x="87.447266" xlink:href="#DejaVuSans-117"/>
      <use x="150.826172" xlink:href="#DejaVuSans-101"/>
      <use x="212.349609" xlink:href="#DejaVuSans-32"/>
      <use x="244.136719" xlink:href="#DejaVuSans-80"/>
      <use x="300.814453" xlink:href="#DejaVuSans-111"/>
      <use x="361.996094" xlink:href="#DejaVuSans-115"/>
      <use x="414.095703" xlink:href="#DejaVuSans-105"/>
      <use x="441.878906" xlink:href="#DejaVuSans-116"/>
      <use x="481.087891" xlink:href="#DejaVuSans-105"/>
      <use x="508.871094" xlink:href="#DejaVuSans-118"/>
      <use x="568.050781" xlink:href="#DejaVuSans-101"/>
      <use x="629.574219" xlink:href="#DejaVuSans-32"/>
      <use x="661.361328" xlink:href="#DejaVuSans-82"/>
      <use x="728.59375" xlink:href="#DejaVuSans-97"/>
      <use x="789.873047" xlink:href="#DejaVuSans-116"/>
      <use x="829.082031" xlink:href="#DejaVuSans-101"/>
     </g>
    </g>
   </g>
   <g id="line2d_13">
    <path clip-path="url(#pfacbba9b9b)" d="M 92.290909 369.36 
L 498.109091 66.96 
" style="fill:none;stroke:#0000ff;stroke-linecap:square;stroke-width:1.5;"/>
   </g>
   <g id="line2d_14">
    <path clip-path="url(#pfacbba9b9b)" d="M 92.290909 369.36 
L 92.401545 354.298455 
L 92.403499 354.235723 
L 92.514526 345.424634 
L 92.516871 345.32198 
L 92.627898 339.122851 
L 92.629071 339.077228 
L 92.629071 339.054416 
L 92.740097 331.840158 
L 92.741661 331.76602 
L 92.741661 331.737505 
L 92.852296 325.253228 
L 92.856988 325.144871 
L 92.968014 319.002772 
L 92.971533 318.922931 
L 93.082559 313.556436 
L 93.088814 313.476594 
L 93.199841 307.899089 
L 93.202577 307.887683 
L 93.202577 307.802139 
L 93.313604 302.612436 
L 93.315949 302.521188 
L 93.426976 297.856158 
L 93.42854 297.747802 
L 93.539566 293.584634 
L 93.542693 293.48198 
L 93.653329 289.273188 
L 93.659193 289.176238 
L 93.659193 289.164832 
L 93.77022 285.098614 
L 93.775302 285.013069 
L 93.775302 284.99596 
L 93.885546 280.667406 
L 93.891801 280.55905 
L 94.002437 277.399604 
L 94.00791 277.291248 
L 94.118546 273.726891 
L 94.121673 273.64705 
L 94.121673 273.635644 
L 94.2327 270.248079 
L 94.234263 270.151129 
L 94.34529 267.299644 
L 94.349981 267.19699 
L 94.461008 263.541386 
L 94.465308 263.43303 
L 94.576334 260.336317 
L 94.58298 260.245069 
L 94.694007 257.678733 
L 94.697525 257.581782 
L 94.808552 254.918495 
L 94.812852 254.810139 
L 94.923878 252.243802 
L 94.929352 252.141149 
L 95.040378 249.209822 
L 95.04546 249.101465 
L 95.156096 246.61497 
L 95.162742 246.552238 
L 95.273768 243.792 
L 95.279632 243.683644 
L 95.390659 241.043168 
L 95.397696 240.946218 
L 95.397696 240.934812 
L 95.508722 238.613703 
L 95.515368 238.505347 
L 95.626004 236.218455 
L 95.634213 236.115802 
L 95.744849 234.119762 
L 95.751495 234.022812 
L 95.862521 231.42796 
L 95.866431 231.319604 
L 95.977457 229.08404 
L 95.984103 228.975683 
L 96.09513 227.173545 
L 96.099821 227.088 
L 96.210456 224.641426 
L 96.216711 224.561584 
L 96.216711 224.538772 
L 96.327738 222.502812 
L 96.333993 222.405861 
L 96.444628 220.255842 
L 96.452447 220.147485 
L 96.56191 218.744554 
L 96.574029 218.636198 
L 96.684274 216.98804 
L 96.685055 216.98804 
L 96.695611 216.879683 
L 96.806637 214.83802 
L 96.813674 214.729663 
L 96.924701 213.058693 
L 96.935647 212.950337 
L 97.046282 210.977109 
L 97.059574 210.874455 
L 97.169819 208.992475 
L 97.18702 208.889822 
L 97.296874 207.059168 
L 97.309384 206.956515 
L 97.419238 205.188594 
L 97.420019 205.188594 
L 97.423929 205.091644 
L 97.534564 203.660198 
L 97.543556 203.551842 
L 97.654582 201.755406 
L 97.666701 201.652752 
L 97.777728 200.249822 
L 97.787892 200.141465 
L 97.898528 198.561743 
L 97.904001 198.464792 
L 98.015028 196.964911 
L 98.026756 196.856554 
L 98.137 195.539168 
L 98.137782 195.539168 
L 98.146774 195.430812 
L 98.2578 193.959446 
L 98.262882 193.885307 
L 98.373518 192.653465 
L 98.386419 192.550812 
L 98.497445 191.102257 
L 98.506828 190.993901 
L 98.617463 189.448396 
L 98.629192 189.34004 
L 98.740218 187.800238 
L 98.746473 187.691881 
L 98.8575 186.237624 
L 98.867664 186.129267 
L 98.972435 184.846099 
L 98.972826 184.846099 
L 98.985336 184.749149 
L 99.096363 183.380436 
L 99.110046 183.272079 
L 99.219508 181.971802 
L 99.220681 181.971802 
L 99.225763 181.863446 
L 99.335617 180.546059 
L 99.354382 180.437703 
L 99.465409 179.502416 
L 99.475573 179.394059 
L 99.585036 177.979723 
L 99.586599 177.979723 
L 99.595982 177.877069 
L 99.705054 176.445624 
L 99.713263 176.337267 
L 99.82429 175.287921 
L 99.837582 175.179564 
L 99.948608 173.839366 
L 99.96581 173.736713 
L 100.076445 172.396515 
L 100.119057 172.293861 
L 100.230084 171.067723 
L 100.239466 170.965069 
L 100.350493 169.79596 
L 100.357921 169.687604 
L 100.468556 168.564119 
L 100.477157 168.461465 
L 100.587792 167.423525 
L 100.597175 167.326574 
L 100.707029 166.379881 
L 100.726575 166.271525 
L 100.837602 165.381861 
L 100.851676 165.273505 
L 100.962311 164.423762 
L 100.970912 164.315406 
L 101.079593 163.231842 
L 101.094448 163.123485 
L 101.204693 162.376396 
L 101.221894 162.26804 
L 101.33253 161.355564 
L 101.346604 161.252911 
L 101.456848 160.363248 
L 101.471704 160.254891 
L 101.579603 159.251168 
L 101.609705 159.142812 
L 101.720732 158.281663 
L 101.728159 158.184713 
L 101.838013 157.192396 
L 101.838404 157.192396 
L 101.851305 157.08404 
L 101.962331 156.274218 
L 101.979924 156.171564 
L 102.090559 155.190653 
L 102.102678 155.082297 
L 102.212923 154.272475 
L 102.229733 154.164119 
L 102.338023 153.251644 
L 102.338414 153.251644 
L 102.362261 153.143287 
L 102.471724 152.470337 
L 102.472897 152.470337 
L 102.49518 152.36198 
L 102.604643 151.660515 
L 102.626536 151.557861 
L 102.735998 150.63398 
L 102.758282 150.525624 
L 102.869308 149.681584 
L 102.881036 149.573228 
L 102.990499 148.626535 
L 103.02842 148.518178 
L 103.138665 147.65703 
L 103.139447 147.65703 
L 103.152739 147.554376 
L 103.263765 146.681822 
L 103.283703 146.573465 
L 103.394338 145.883406 
L 103.410758 145.77505 
L 103.521002 144.948119 
L 103.534685 144.839762 
L 103.645321 143.864554 
L 103.645712 143.864554 
L 103.664477 143.756198 
L 103.773939 142.883644 
L 103.775112 142.883644 
L 103.79505 142.792396 
L 103.79505 142.78099 
L 103.904904 142.056713 
L 103.92836 141.948356 
L 104.037432 141.212673 
L 104.038996 141.212673 
L 104.052288 141.104317 
L 104.163314 140.391446 
L 104.179342 140.283089 
L 104.289978 139.59303 
L 104.317735 139.484673 
L 104.426025 138.908673 
L 104.445571 138.800317 
L 104.556598 138.007604 
L 104.579663 137.899248 
L 104.689908 137.157861 
L 104.708673 137.049505 
L 104.819308 136.410772 
L 104.843938 136.302416 
L 104.953791 135.720713 
L 104.960828 135.612356 
L 105.071073 135.013545 
L 105.093747 134.910891 
L 105.093747 134.905188 
L 105.202819 134.300673 
L 105.203992 134.300673 
L 105.218847 134.209426 
L 105.32831 133.587802 
L 105.350594 133.485149 
L 105.46162 132.840713 
L 105.483122 132.732356 
L 105.592975 132.099327 
L 105.617995 131.996673 
L 105.724722 131.443485 
L 105.727849 131.443485 
L 105.748569 131.340832 
L 105.859204 130.74202 
L 105.881488 130.645069 
L 105.992514 130.006337 
L 106.014798 129.89798 
L 106.123869 129.401822 
L 106.125433 129.401822 
L 106.150844 129.299168 
L 106.256789 128.757386 
L 106.289627 128.64903 
L 106.400654 127.936158 
L 106.420983 127.833505 
L 106.528491 127.308832 
L 106.531227 127.308832 
L 106.549601 127.200475 
L 106.660628 126.658693 
L 106.693076 126.55604 
L 106.803711 126.065584 
L 106.804102 126.065584 
L 106.827167 125.957228 
L 106.936239 125.483881 
L 106.952659 125.375525 
L 107.063685 124.930693 
L 107.10317 124.822337 
L 107.213415 124.297663 
L 107.213805 124.297663 
L 107.249381 124.189307 
L 107.360407 123.733069 
L 107.394419 123.624713 
L 107.503491 123.168475 
L 107.550794 123.060119 
L 107.658693 122.592475 
L 107.660648 122.592475 
L 107.68645 122.484119 
L 107.794349 121.982257 
L 107.795913 121.982257 
L 107.827969 121.879604 
L 107.938214 121.337822 
L 107.967144 121.229465 
L 108.075042 120.761822 
L 108.102799 120.653465 
L 108.213826 120.202931 
L 108.254874 120.094574 
L 108.365901 119.592713 
L 108.396003 119.484356 
L 108.507029 119.142178 
L 108.550423 119.033822 
L 108.66145 118.58899 
L 108.685688 118.480634 
L 108.792414 117.938851 
L 108.827208 117.830495 
L 108.937452 117.368554 
L 108.985538 117.265901 
L 109.093437 116.86099 
L 109.095 116.86099 
L 109.13214 116.752634 
L 109.241211 116.347723 
L 109.261931 116.239366 
L 109.370612 115.834455 
L 109.409706 115.726099 
L 109.519559 115.446653 
L 109.520341 115.446653 
L 109.55709 115.338297 
L 109.66577 114.910574 
L 109.710337 114.813624 
L 109.8198 114.425822 
L 109.839347 114.317465 
L 109.947637 113.872634 
L 109.988294 113.76998 
L 110.097366 113.370772 
L 110.130987 113.262416 
L 110.242013 112.914535 
L 110.284626 112.806178 
L 110.393697 112.435485 
L 110.395261 112.435485 
L 110.437874 112.327129 
L 110.546554 111.979248 
L 110.5489 111.979248 
L 110.583303 111.870891 
L 110.691983 111.58004 
L 110.735768 111.471683 
L 110.846404 111.095287 
L 110.862432 110.986931 
L 110.970722 110.599129 
L 111.021935 110.490772 
L 111.132962 110.279762 
L 111.162673 110.182812 
L 111.2737 109.869149 
L 111.29481 109.760792 
L 111.402318 109.401505 
L 111.4031 109.401505 
L 111.462132 109.293149 
L 111.571985 108.956673 
L 111.638445 108.848317 
L 111.749471 108.597386 
L 111.826486 108.48903 
L 111.937513 108.118337 
L 111.975434 108.00998 
L 112.08646 107.696317 
L 112.143928 107.593663 
L 112.251436 107.274297 
L 112.300304 107.165941 
L 112.41133 106.835168 
L 112.455897 106.726812 
L 112.564187 106.635564 
L 112.617354 106.527208 
L 112.725644 106.321901 
L 112.727599 106.321901 
L 112.780376 106.213545 
L 112.883974 105.922693 
L 112.891402 105.922693 
L 112.953561 105.814337 
L 113.064197 105.506376 
L 113.135348 105.39802 
L 113.241292 105.084356 
L 113.24481 105.084356 
L 113.316743 104.976 
L 113.423469 104.679446 
L 113.426988 104.679446 
L 113.472727 104.571089 
L 113.583754 104.240317 
L 113.620502 104.13196 
L 113.725665 103.852515 
L 113.730747 103.852515 
L 113.788606 103.744158 
L 113.899632 103.550257 
L 113.938726 103.441901 
L 114.045061 103.185267 
L 114.047016 103.185267 
L 114.095492 103.076911 
L 114.202218 102.76895 
L 114.206128 102.76895 
L 114.247958 102.666297 
L 114.35312 102.443881 
L 114.354293 102.443881 
L 114.429353 102.335525 
L 114.526697 102.130218 
L 114.54038 102.130218 
L 114.621695 102.021861 
L 114.728421 101.839366 
L 114.729203 101.839366 
L 114.799181 101.73101 
L 114.909426 101.457267 
L 114.910208 101.457267 
L 114.971976 101.354614 
L 115.076747 101.126495 
L 115.080657 101.126495 
L 115.162363 101.018139 
L 115.270653 100.744396 
L 115.32773 100.63604 
L 115.438365 100.390812 
L 115.505997 100.282455 
L 115.614678 100.105663 
L 115.617024 100.105663 
L 115.658463 99.997307 
L 115.760107 99.837624 
L 115.764408 99.837624 
L 115.822658 99.729267 
L 115.93212 99.461228 
L 115.988024 99.352871 
L 116.099051 99.090535 
L 116.19053 98.982178 
L 116.299211 98.839604 
L 116.301557 98.839604 
L 116.34886 98.731248 
L 116.459887 98.508832 
L 116.564267 98.400475 
L 116.669039 98.166653 
L 116.674512 98.166653 
L 116.726898 98.058297 
L 116.836751 97.835881 
L 116.837924 97.835881 
L 116.862944 97.727525 
L 116.971234 97.602059 
L 116.973189 97.602059 
L 117.027138 97.493703 
L 117.135819 97.294099 
L 117.138165 97.294099 
L 117.217525 97.191446 
L 117.328552 96.986139 
L 117.40283 96.877782 
L 117.513857 96.70099 
L 117.56937 96.592634 
L 117.678832 96.427248 
L 117.764839 96.318891 
L 117.875084 96.085069 
L 117.875865 96.085069 
L 117.920432 95.982416 
L 118.028722 95.862653 
L 118.103001 95.754297 
L 118.214027 95.531881 
L 118.313325 95.423525 
L 118.417706 95.229624 
L 118.42357 95.229624 
L 118.482211 95.121267 
L 118.583464 94.967287 
L 118.592455 94.967287 
L 118.633113 94.858931 
L 118.736712 94.722059 
L 118.744139 94.722059 
L 118.873931 94.613703 
L 118.984957 94.465426 
L 119.061972 94.357069 
L 119.169871 94.203089 
L 119.250795 94.094733 
L 119.357912 93.923644 
L 119.4318 93.832396 
L 119.4318 93.82099 
L 119.541263 93.632792 
L 119.542826 93.632792 
L 119.670272 93.524436 
L 119.776607 93.364752 
L 119.779344 93.364752 
L 119.839157 93.256396 
L 119.949011 93.079604 
L 120.06512 92.971248 
L 120.173801 92.805861 
L 120.239869 92.697505 
L 120.349723 92.532119 
L 120.401718 92.423762 
L 120.509226 92.235564 
L 120.512353 92.235564 
L 120.58585 92.127208 
L 120.692576 91.973228 
L 120.695312 91.973228 
L 120.798911 91.870574 
L 120.909547 91.722297 
L 120.983434 91.613941 
L 121.084687 91.465663 
L 121.092897 91.465663 
L 121.196104 91.357307 
L 121.304003 91.220436 
L 121.306349 91.220436 
L 121.407993 91.112079 
L 121.514328 90.946693 
L 121.518237 90.946693 
L 121.614408 90.84404 
L 121.724262 90.724277 
L 121.810268 90.615921 
L 121.920904 90.456238 
L 122.014729 90.347881 
L 122.124583 90.159683 
L 122.125756 90.159683 
L 122.207071 90.051327 
L 122.310278 89.863129 
L 122.312233 89.863129 
L 122.415441 89.777584 
L 122.526467 89.63501 
L 122.657041 89.532356 
L 122.761812 89.424 
L 122.764158 89.424 
L 122.872839 89.315644 
L 122.972528 89.224396 
L 122.982301 89.224396 
L 123.117957 89.11604 
L 123.225465 88.973465 
L 123.22742 88.973465 
L 123.359557 88.865109 
L 123.468238 88.705426 
L 123.469019 88.705426 
L 123.576918 88.597069 
L 123.678171 88.505822 
L 123.686772 88.505822 
L 123.852921 88.397465 
L 123.960429 88.300515 
L 123.961993 88.300515 
L 124.037053 88.192158 
L 124.143779 88.072396 
L 124.144952 88.072396 
L 124.322047 87.96404 
L 124.427209 87.867089 
L 124.432682 87.867089 
L 124.51517 87.758733 
L 124.624633 87.661782 
L 124.626197 87.661782 
L 124.715331 87.559129 
L 124.821275 87.433663 
L 124.822448 87.433663 
L 124.916664 87.33101 
L 125.024172 87.17703 
L 125.146536 87.068673 
L 125.250525 86.937505 
L 125.25678 86.937505 
L 125.38149 86.829149 
L 125.464369 86.737901 
L 125.492516 86.737901 
L 125.660229 86.629545 
L 125.745844 86.566812 
L 125.770864 86.566812 
L 125.920203 86.458455 
L 126.030838 86.327287 
L 126.137564 86.218931 
L 126.233735 86.110574 
L 126.243899 86.110574 
L 126.393238 86.002218 
L 126.485108 85.91097 
L 126.500355 85.91097 
L 126.6149 85.802614 
L 126.722408 85.694257 
L 126.725926 85.694257 
L 126.836562 85.597307 
L 126.938206 85.517465 
L 127.093799 85.409109 
L 127.201698 85.306455 
L 127.367065 85.198099 
L 127.47731 85.135366 
L 127.626257 85.02701 
L 127.736893 84.935762 
L 127.737284 84.935762 
L 127.893659 84.827406 
L 127.991785 84.736158 
L 128.003122 84.736158 
L 128.114539 84.627802 
L 128.220093 84.490931 
L 128.224002 84.490931 
L 128.354575 84.382574 
L 128.463256 84.302733 
L 128.604776 84.194376 
L 128.707202 84.108832 
L 128.712284 84.108832 
L 128.846767 84.000475 
L 128.944892 83.909228 
L 128.951929 83.909228 
L 129.069992 83.800871 
L 129.172027 83.726733 
L 129.178673 83.726733 
L 129.341694 83.618376 
L 129.448812 83.538535 
L 129.452721 83.538535 
L 129.63568 83.430178 
L 129.742797 83.350337 
L 129.746707 83.350337 
L 129.887835 83.24198 
L 129.992216 83.133624 
L 130.209187 83.025267 
L 130.306139 82.962535 
L 130.31904 82.962535 
L 130.505909 82.854178 
L 130.592697 82.791446 
L 130.615762 82.791446 
L 130.70646 82.683089 
L 130.808495 82.586139 
L 130.817096 82.586139 
L 130.950796 82.477782 
L 131.012174 82.437861 
L 131.029375 82.437861 
L 131.204515 82.329505 
L 131.288958 82.261069 
L 131.30655 82.261069 
L 131.551669 82.152713 
L 131.646667 82.107089 
L 131.657222 82.107089 
L 131.777631 82.004436 
L 131.885139 81.907485 
L 131.887094 81.907485 
L 132.014149 81.799129 
L 132.120484 81.707881 
L 132.124393 81.707881 
L 132.266695 81.599525 
L 132.36482 81.531089 
L 132.373812 81.531089 
L 132.580618 81.422733 
L 132.678744 81.371406 
L 132.688908 81.371406 
L 132.919953 81.26305 
L 133.004004 81.217426 
L 133.028633 81.217426 
L 133.14787 81.109069 
L 133.253423 81.063446 
L 133.477431 80.955089 
L 133.5521 80.863842 
L 133.588066 80.863842 
L 133.804255 80.755485 
L 133.906681 80.698455 
L 133.915282 80.698455 
L 134.102541 80.590099 
L 134.206531 80.527366 
L 134.208094 80.527366 
L 134.514981 80.41901 
L 134.60646 80.367683 
L 134.624444 80.367683 
L 134.916865 80.259327 
L 135.020464 80.208 
L 135.021246 80.208 
L 135.271446 80.099644 
L 135.371527 80.05402 
L 135.377391 80.05402 
L 135.697569 79.945663 
L 135.80195 79.888634 
L 135.808596 79.888634 
L 136.059578 79.780277 
L 136.144021 79.740356 
L 136.170214 79.740356 
L 136.38523 79.632 
L 136.494301 79.569267 
L 136.779686 79.466614 
L 136.875466 79.375366 
L 136.890322 79.375366 
L 137.161633 79.26701 
L 137.265232 79.187168 
L 137.271096 79.187168 
L 137.517778 79.084515 
L 137.626459 78.993267 
L 138.013097 78.884911 
L 138.102622 78.810772 
L 138.122559 78.810772 
L 138.504897 78.702416 
L 138.608496 78.662495 
L 138.614751 78.662495 
L 138.874725 78.554139 
L 138.984578 78.508515 
L 139.369262 78.400158 
L 139.463087 78.371644 
L 139.470906 78.371644 
L 139.811413 78.263287 
L 139.900156 78.234772 
L 139.908365 78.234772 
L 140.323933 78.126416 
L 140.423622 78.069386 
L 140.434568 78.069386 
L 140.627301 77.972436 
L 140.627301 77.96103 
L 140.724254 77.915406 
L 140.729727 77.915406 
L 140.999474 77.818455 
L 141.101509 77.761426 
L 141.106591 77.761426 
L 141.354446 77.653069 
L 141.41856 77.630257 
L 141.431461 77.630257 
L 141.718019 77.521901 
L 141.793861 77.453465 
L 141.828654 77.453465 
L 142.149224 77.345109 
L 142.258686 77.305188 
L 142.65197 77.196832 
L 142.761433 77.168317 
L 143.184819 77.05996 
L 143.266916 77.008634 
L 143.295846 77.008634 
L 143.629316 76.900277 
L 143.72275 76.854653 
L 143.738388 76.854653 
L 144.045274 76.746297 
L 144.152782 76.683564 
L 144.15591 76.683564 
L 144.663348 76.575208 
L 144.756 76.512475 
L 144.774374 76.512475 
L 145.146939 76.404119 
L 145.243891 76.392713 
L 145.257965 76.392713 
L 145.606291 76.284356 
L 145.702462 76.244436 
L 145.71419 76.244436 
L 146.131321 76.136079 
L 146.225537 76.101861 
L 146.241566 76.101861 
L 146.465964 75.993505 
L 146.521087 75.953584 
L 146.564481 75.953584 
L 146.835792 75.845228 
L 146.926099 75.793901 
L 146.939391 75.793901 
L 147.25996 75.685545 
L 147.358085 75.628515 
L 147.369032 75.628515 
L 147.81001 75.520158 
L 147.907745 75.480238 
L 147.919082 75.480238 
L 148.435511 75.371881 
L 148.488288 75.349069 
L 148.546538 75.349069 
L 149.018009 75.240713 
L 149.129036 75.195089 
L 149.553204 75.086733 
L 149.638429 75.046812 
L 149.661494 75.046812 
L 150.327653 74.938455 
L 150.431251 74.904238 
L 150.437506 74.904238 
L 150.90155 74.795881 
L 151.010231 74.744554 
L 151.296007 74.636198 
L 151.39296 74.613386 
L 151.406642 74.613386 
L 152.048563 74.50503 
L 152.14708 74.470812 
L 152.15959 74.470812 
L 152.654126 74.362455 
L 152.688529 74.333941 
L 152.765153 74.333941 
L 153.284319 74.225584 
L 153.389872 74.185663 
L 153.391827 74.185663 
L 153.746799 74.077307 
L 153.759309 74.065901 
L 153.855871 74.065901 
L 154.732354 73.957545 
L 154.843381 73.923327 
L 155.466927 73.81497 
L 155.570917 73.757941 
L 155.575999 73.757941 
L 156.172571 73.649584 
L 156.274606 73.615366 
L 156.283598 73.615366 
L 156.84694 73.50701 
L 156.931382 73.484198 
L 156.956793 73.484198 
L 157.84696 73.375842 
L 157.957204 73.330218 
L 158.58036 73.221861 
L 158.65933 73.210455 
L 158.683177 73.210455 
L 159.649576 73.102099 
L 159.703135 73.056475 
L 159.75943 73.056475 
L 160.578837 72.948119 
L 160.678135 72.913901 
L 160.689472 72.913901 
L 161.458448 72.805545 
L 161.542499 72.77703 
L 161.569083 72.77703 
L 162.453777 72.668673 
L 162.521018 72.651564 
L 162.554639 72.651564 
L 163.154729 72.543208 
L 163.259891 72.514693 
L 164.002674 72.406337 
L 164.06327 72.383525 
L 164.112137 72.383525 
L 164.806443 72.275168 
L 164.806443 72.269465 
L 164.85492 72.269465 
L 165.858849 72.161109 
L 165.968703 72.132594 
L 166.840886 72.024238 
L 166.951131 72.007129 
L 167.818232 71.898772 
L 167.887819 71.870257 
L 167.922612 71.870257 
L 168.973845 71.761901 
L 169.061806 71.739089 
L 169.081744 71.739089 
L 169.873785 71.630733 
L 169.956273 71.607921 
L 169.981293 71.607921 
L 171.144335 71.499564 
L 171.173264 71.488158 
L 171.25497 71.488158 
L 171.976251 71.379802 
L 172.036065 71.35699 
L 172.086887 71.35699 
L 173.15063 71.248634 
L 173.249537 71.231525 
L 173.257747 71.231525 
L 174.888742 71.123168 
L 174.982176 71.08895 
L 174.998986 71.08895 
L 176.214022 70.980594 
L 176.320358 70.946376 
L 176.324658 70.946376 
L 177.631174 70.83802 
L 177.685514 70.820911 
L 177.737509 70.820911 
L 179.174207 70.712554 
L 179.207828 70.701149 
L 179.280542 70.701149 
L 180.397062 70.592792 
L 180.418955 70.581386 
L 180.506916 70.581386 
L 181.77512 70.47303 
L 181.77512 70.467327 
L 181.886146 70.467327 
L 183.151222 70.35897 
L 183.151222 70.353267 
L 183.260294 70.353267 
L 184.360004 70.244911 
L 184.360004 70.239208 
L 184.469466 70.239208 
L 185.990607 70.130851 
L 186.068404 70.113743 
L 186.099679 70.113743 
L 187.70409 70.005386 
L 187.815116 69.982574 
L 189.301073 69.874218 
L 189.398416 69.857109 
L 189.411708 69.857109 
L 191.2499 69.748752 
L 191.2499 69.74305 
L 191.35819 69.74305 
L 193.060726 69.634693 
L 193.060726 69.62899 
L 193.169016 69.62899 
L 195.917312 69.520634 
L 196.006446 69.509228 
L 196.025993 69.509228 
L 199.083912 69.400871 
L 199.083912 69.395168 
L 199.194548 69.395168 
L 201.295059 69.286812 
L 201.311479 69.275406 
L 201.404522 69.275406 
L 204.177838 69.16705 
L 204.241952 69.155644 
L 204.287301 69.155644 
L 206.510567 69.047287 
L 206.562562 69.035881 
L 206.618466 69.035881 
L 208.341722 68.927525 
L 208.398408 68.916119 
L 208.448448 68.916119 
L 210.710808 68.807762 
L 210.710808 68.802059 
L 210.818707 68.802059 
L 213.067775 68.693703 
L 213.067775 68.688 
L 213.17841 68.688 
L 217.335648 68.579644 
L 217.446675 68.562535 
L 221.360749 68.454178 
L 221.381469 68.437069 
L 221.469821 68.437069 
L 227.21505 68.328713 
L 227.325294 68.32301 
L 231.621315 68.214653 
L 231.654936 68.203248 
L 231.731951 68.203248 
L 239.343519 68.094891 
L 239.343519 68.089188 
L 239.454155 68.089188 
L 246.539129 67.980832 
L 246.539129 67.975129 
L 246.645855 67.975129 
L 254.782454 67.866772 
L 254.782454 67.861069 
L 254.89309 67.861069 
L 268.746379 67.752713 
L 268.785864 67.741307 
L 268.856232 67.741307 
L 281.565636 67.63295 
L 281.565636 67.627248 
L 281.675881 67.627248 
L 291.367632 67.518891 
L 291.367632 67.513188 
L 291.477095 67.513188 
L 310.146744 67.404832 
L 310.146744 67.399129 
L 310.247997 67.399129 
L 324.425765 67.290772 
L 324.425765 67.285069 
L 324.536791 67.285069 
L 358.386183 67.176713 
L 358.386183 67.17101 
L 358.497209 67.17101 
L 404.76241 67.062653 
L 404.76241 67.05695 
L 404.869527 67.05695 
L 498.109091 66.96 
L 498.109091 66.96 
" style="fill:none;stroke:#ff0000;stroke-linecap:square;stroke-width:1.5;"/>
   </g>
   <g id="patch_3">
    <path d="M 72 384.48 
L 72 51.84 
" style="fill:none;stroke:#000000;stroke-linecap:square;stroke-linejoin:miter;stroke-width:0.8;"/>
   </g>
   <g id="patch_4">
    <path d="M 518.4 384.48 
L 518.4 51.84 
" style="fill:none;stroke:#000000;stroke-linecap:square;stroke-linejoin:miter;stroke-width:0.8;"/>
   </g>
   <g id="patch_5">
    <path d="M 72 384.48 
L 518.4 384.48 
" style="fill:none;stroke:#000000;stroke-linecap:square;stroke-linejoin:miter;stroke-width:0.8;"/>
   </g>
   <g id="patch_6">
    <path d="M 72 51.84 
L 518.4 51.84 
" style="fill:none;stroke:#000000;stroke-linecap:square;stroke-linejoin:miter;stroke-width:0.8;"/>
   </g>
   <g id="text_15">
    <!-- ROC Curves -->
    <g transform="translate(237.894 45.84)scale(0.192 -0.192)">
     <defs>
      <path d="M 39.40625 66.21875 
Q 28.65625 66.21875 22.328125 58.203125 
Q 16.015625 50.203125 16.015625 36.375 
Q 16.015625 22.609375 22.328125 14.59375 
Q 28.65625 6.59375 39.40625 6.59375 
Q 50.140625 6.59375 56.421875 14.59375 
Q 62.703125 22.609375 62.703125 36.375 
Q 62.703125 50.203125 56.421875 58.203125 
Q 50.140625 66.21875 39.40625 66.21875 
z
M 39.40625 74.21875 
Q 54.734375 74.21875 63.90625 63.9375 
Q 73.09375 53.65625 73.09375 36.375 
Q 73.09375 19.140625 63.90625 8.859375 
Q 54.734375 -1.421875 39.40625 -1.421875 
Q 24.03125 -1.421875 14.8125 8.828125 
Q 5.609375 19.09375 5.609375 36.375 
Q 5.609375 53.65625 14.8125 63.9375 
Q 24.03125 74.21875 39.40625 74.21875 
z
" id="DejaVuSans-79"/>
      <path d="M 64.40625 67.28125 
L 64.40625 56.890625 
Q 59.421875 61.53125 53.78125 63.8125 
Q 48.140625 66.109375 41.796875 66.109375 
Q 29.296875 66.109375 22.65625 58.46875 
Q 16.015625 50.828125 16.015625 36.375 
Q 16.015625 21.96875 22.65625 14.328125 
Q 29.296875 6.6875 41.796875 6.6875 
Q 48.140625 6.6875 53.78125 8.984375 
Q 59.421875 11.28125 64.40625 15.921875 
L 64.40625 5.609375 
Q 59.234375 2.09375 53.4375 0.328125 
Q 47.65625 -1.421875 41.21875 -1.421875 
Q 24.65625 -1.421875 15.125 8.703125 
Q 5.609375 18.84375 5.609375 36.375 
Q 5.609375 53.953125 15.125 64.078125 
Q 24.65625 74.21875 41.21875 74.21875 
Q 47.75 74.21875 53.53125 72.484375 
Q 59.328125 70.75 64.40625 67.28125 
z
" id="DejaVuSans-67"/>
     </defs>
     <use xlink:href="#DejaVuSans-82"/>
     <use x="69.482422" xlink:href="#DejaVuSans-79"/>
     <use x="148.193359" xlink:href="#DejaVuSans-67"/>
     <use x="218.017578" xlink:href="#DejaVuSans-32"/>
     <use x="249.804688" xlink:href="#DejaVuSans-67"/>
     <use x="319.628906" xlink:href="#DejaVuSans-117"/>
     <use x="383.007812" xlink:href="#DejaVuSans-114"/>
     <use x="424.121094" xlink:href="#DejaVuSans-118"/>
     <use x="483.300781" xlink:href="#DejaVuSans-101"/>
     <use x="544.824219" xlink:href="#DejaVuSans-115"/>
    </g>
   </g>
   <g id="legend_1">
    <g id="patch_7">
     <path d="M 388.9825 376.48 
L 507.2 376.48 
Q 510.4 376.48 510.4 373.28 
L 510.4 327.91 
Q 510.4 324.71 507.2 324.71 
L 388.9825 324.71 
Q 385.7825 324.71 385.7825 327.91 
L 385.7825 373.28 
Q 385.7825 376.48 388.9825 376.48 
z
" style="fill:#ffffff;opacity:0.8;stroke:#cccccc;stroke-linejoin:miter;"/>
    </g>
    <g id="line2d_15">
     <path d="M 392.1825 337.6675 
L 424.1825 337.6675 
" style="fill:none;stroke:#0000ff;stroke-linecap:square;stroke-width:1.5;"/>
    </g>
    <g id="line2d_16"/>
    <g id="text_16">
     <!-- baseline -->
     <g transform="translate(436.9825 343.2675)scale(0.16 -0.16)">
      <defs>
       <path d="M 48.6875 27.296875 
Q 48.6875 37.203125 44.609375 42.84375 
Q 40.53125 48.484375 33.40625 48.484375 
Q 26.265625 48.484375 22.1875 42.84375 
Q 18.109375 37.203125 18.109375 27.296875 
Q 18.109375 17.390625 22.1875 11.75 
Q 26.265625 6.109375 33.40625 6.109375 
Q 40.53125 6.109375 44.609375 11.75 
Q 48.6875 17.390625 48.6875 27.296875 
z
M 18.109375 46.390625 
Q 20.953125 51.265625 25.265625 53.625 
Q 29.59375 56 35.59375 56 
Q 45.5625 56 51.78125 48.09375 
Q 58.015625 40.1875 58.015625 27.296875 
Q 58.015625 14.40625 51.78125 6.484375 
Q 45.5625 -1.421875 35.59375 -1.421875 
Q 29.59375 -1.421875 25.265625 0.953125 
Q 20.953125 3.328125 18.109375 8.203125 
L 18.109375 0 
L 9.078125 0 
L 9.078125 75.984375 
L 18.109375 75.984375 
z
" id="DejaVuSans-98"/>
       <path d="M 54.890625 33.015625 
L 54.890625 0 
L 45.90625 0 
L 45.90625 32.71875 
Q 45.90625 40.484375 42.875 44.328125 
Q 39.84375 48.1875 33.796875 48.1875 
Q 26.515625 48.1875 22.3125 43.546875 
Q 18.109375 38.921875 18.109375 30.90625 
L 18.109375 0 
L 9.078125 0 
L 9.078125 54.6875 
L 18.109375 54.6875 
L 18.109375 46.1875 
Q 21.34375 51.125 25.703125 53.5625 
Q 30.078125 56 35.796875 56 
Q 45.21875 56 50.046875 50.171875 
Q 54.890625 44.34375 54.890625 33.015625 
z
" id="DejaVuSans-110"/>
      </defs>
      <use xlink:href="#DejaVuSans-98"/>
      <use x="63.476562" xlink:href="#DejaVuSans-97"/>
      <use x="124.755859" xlink:href="#DejaVuSans-115"/>
      <use x="176.855469" xlink:href="#DejaVuSans-101"/>
      <use x="238.378906" xlink:href="#DejaVuSans-108"/>
      <use x="266.162109" xlink:href="#DejaVuSans-105"/>
      <use x="293.945312" xlink:href="#DejaVuSans-110"/>
      <use x="357.324219" xlink:href="#DejaVuSans-101"/>
     </g>
    </g>
    <g id="line2d_17">
     <path d="M 392.1825 361.1525 
L 424.1825 361.1525 
" style="fill:none;stroke:#ff0000;stroke-linecap:square;stroke-width:1.5;"/>
    </g>
    <g id="line2d_18"/>
    <g id="text_17">
     <!-- model -->
     <g transform="translate(436.9825 366.7525)scale(0.16 -0.16)">
      <defs>
       <path d="M 52 44.1875 
Q 55.375 50.25 60.0625 53.125 
Q 64.75 56 71.09375 56 
Q 79.640625 56 84.28125 50.015625 
Q 88.921875 44.046875 88.921875 33.015625 
L 88.921875 0 
L 79.890625 0 
L 79.890625 32.71875 
Q 79.890625 40.578125 77.09375 44.375 
Q 74.3125 48.1875 68.609375 48.1875 
Q 61.625 48.1875 57.5625 43.546875 
Q 53.515625 38.921875 53.515625 30.90625 
L 53.515625 0 
L 44.484375 0 
L 44.484375 32.71875 
Q 44.484375 40.625 41.703125 44.40625 
Q 38.921875 48.1875 33.109375 48.1875 
Q 26.21875 48.1875 22.15625 43.53125 
Q 18.109375 38.875 18.109375 30.90625 
L 18.109375 0 
L 9.078125 0 
L 9.078125 54.6875 
L 18.109375 54.6875 
L 18.109375 46.1875 
Q 21.1875 51.21875 25.484375 53.609375 
Q 29.78125 56 35.6875 56 
Q 41.65625 56 45.828125 52.96875 
Q 50 49.953125 52 44.1875 
z
" id="DejaVuSans-109"/>
       <path d="M 45.40625 46.390625 
L 45.40625 75.984375 
L 54.390625 75.984375 
L 54.390625 0 
L 45.40625 0 
L 45.40625 8.203125 
Q 42.578125 3.328125 38.25 0.953125 
Q 33.9375 -1.421875 27.875 -1.421875 
Q 17.96875 -1.421875 11.734375 6.484375 
Q 5.515625 14.40625 5.515625 27.296875 
Q 5.515625 40.1875 11.734375 48.09375 
Q 17.96875 56 27.875 56 
Q 33.9375 56 38.25 53.625 
Q 42.578125 51.265625 45.40625 46.390625 
z
M 14.796875 27.296875 
Q 14.796875 17.390625 18.875 11.75 
Q 22.953125 6.109375 30.078125 6.109375 
Q 37.203125 6.109375 41.296875 11.75 
Q 45.40625 17.390625 45.40625 27.296875 
Q 45.40625 37.203125 41.296875 42.84375 
Q 37.203125 48.484375 30.078125 48.484375 
Q 22.953125 48.484375 18.875 42.84375 
Q 14.796875 37.203125 14.796875 27.296875 
z
" id="DejaVuSans-100"/>
      </defs>
      <use xlink:href="#DejaVuSans-109"/>
      <use x="97.412109" xlink:href="#DejaVuSans-111"/>
      <use x="158.59375" xlink:href="#DejaVuSans-100"/>
      <use x="222.070312" xlink:href="#DejaVuSans-101"/>
      <use x="283.59375" xlink:href="#DejaVuSans-108"/>
     </g>
    </g>
   </g>
  </g>
 </g>
 <defs>
  <clipPath id="pfacbba9b9b">
   <rect height="332.64" width="446.4" x="72" y="51.84"/>
  </clipPath>
 </defs>
</svg>
