<?xml version="1.0" encoding="utf-8" standalone="no"?>
<!DOCTYPE svg PUBLIC "-//W3C//DTD SVG 1.1//EN"
  "http://www.w3.org/Graphics/SVG/1.1/DTD/svg11.dtd">
<!-- Created with matplotlib (https://matplotlib.org/) -->
<svg height="432pt" version="1.1" viewBox="0 0 576 432" width="576pt" xmlns="http://www.w3.org/2000/svg" xmlns:xlink="http://www.w3.org/1999/xlink">
 <metadata>
  <rdf:RDF xmlns:cc="http://creativecommons.org/ns#" xmlns:dc="http://purl.org/dc/elements/1.1/" xmlns:rdf="http://www.w3.org/1999/02/22-rdf-syntax-ns#">
   <cc:Work>
    <dc:type rdf:resource="http://purl.org/dc/dcmitype/StillImage"/>
    <dc:date>2020-09-18T22:13:58.783115</dc:date>
    <dc:format>image/svg+xml</dc:format>
    <dc:creator>
     <cc:Agent>
      <dc:title>Matplotlib v3.3.0, https://matplotlib.org/</dc:title>
     </cc:Agent>
    </dc:creator>
   </cc:Work>
  </rdf:RDF>
 </metadata>
 <defs>
  <style type="text/css">*{stroke-linecap:butt;stroke-linejoin:round;}</style>
 </defs>
 <g id="figure_1">
  <g id="patch_1">
   <path d="M 0 432 
L 576 432 
L 576 0 
L 0 0 
z
" style="fill:#ffffff;"/>
  </g>
  <g id="axes_1">
   <g id="patch_2">
    <path d="M 72 384.48 
L 518.4 384.48 
L 518.4 51.84 
L 72 51.84 
z
" style="fill:#ffffff;"/>
   </g>
   <g id="matplotlib.axis_1">
    <g id="xtick_1">
     <g id="line2d_1">
      <defs>
       <path d="M 0 0 
L 0 3.5 
" id="mb567daadc6" style="stroke:#000000;stroke-width:0.8;"/>
      </defs>
      <g>
       <use style="stroke:#000000;stroke-width:0.8;" x="92.290909" xlink:href="#mb567daadc6" y="384.48"/>
      </g>
     </g>
     <g id="text_1">
      <!-- 0.0 -->
      <g transform="translate(79.568409 403.6375)scale(0.16 -0.16)">
       <defs>
        <path d="M 31.78125 66.40625 
Q 24.171875 66.40625 20.328125 58.90625 
Q 16.5 51.421875 16.5 36.375 
Q 16.5 21.390625 20.328125 13.890625 
Q 24.171875 6.390625 31.78125 6.390625 
Q 39.453125 6.390625 43.28125 13.890625 
Q 47.125 21.390625 47.125 36.375 
Q 47.125 51.421875 43.28125 58.90625 
Q 39.453125 66.40625 31.78125 66.40625 
z
M 31.78125 74.21875 
Q 44.046875 74.21875 50.515625 64.515625 
Q 56.984375 54.828125 56.984375 36.375 
Q 56.984375 17.96875 50.515625 8.265625 
Q 44.046875 -1.421875 31.78125 -1.421875 
Q 19.53125 -1.421875 13.0625 8.265625 
Q 6.59375 17.96875 6.59375 36.375 
Q 6.59375 54.828125 13.0625 64.515625 
Q 19.53125 74.21875 31.78125 74.21875 
z
" id="DejaVuSans-48"/>
        <path d="M 10.6875 12.40625 
L 21 12.40625 
L 21 0 
L 10.6875 0 
z
" id="DejaVuSans-46"/>
       </defs>
       <use xlink:href="#DejaVuSans-48"/>
       <use x="63.623047" xlink:href="#DejaVuSans-46"/>
       <use x="95.410156" xlink:href="#DejaVuSans-48"/>
      </g>
     </g>
    </g>
    <g id="xtick_2">
     <g id="line2d_2">
      <g>
       <use style="stroke:#000000;stroke-width:0.8;" x="173.454545" xlink:href="#mb567daadc6" y="384.48"/>
      </g>
     </g>
     <g id="text_2">
      <!-- 0.2 -->
      <g transform="translate(160.732045 403.6375)scale(0.16 -0.16)">
       <defs>
        <path d="M 19.1875 8.296875 
L 53.609375 8.296875 
L 53.609375 0 
L 7.328125 0 
L 7.328125 8.296875 
Q 12.9375 14.109375 22.625 23.890625 
Q 32.328125 33.6875 34.8125 36.53125 
Q 39.546875 41.84375 41.421875 45.53125 
Q 43.3125 49.21875 43.3125 52.78125 
Q 43.3125 58.59375 39.234375 62.25 
Q 35.15625 65.921875 28.609375 65.921875 
Q 23.96875 65.921875 18.8125 64.3125 
Q 13.671875 62.703125 7.8125 59.421875 
L 7.8125 69.390625 
Q 13.765625 71.78125 18.9375 73 
Q 24.125 74.21875 28.421875 74.21875 
Q 39.75 74.21875 46.484375 68.546875 
Q 53.21875 62.890625 53.21875 53.421875 
Q 53.21875 48.921875 51.53125 44.890625 
Q 49.859375 40.875 45.40625 35.40625 
Q 44.1875 33.984375 37.640625 27.21875 
Q 31.109375 20.453125 19.1875 8.296875 
z
" id="DejaVuSans-50"/>
       </defs>
       <use xlink:href="#DejaVuSans-48"/>
       <use x="63.623047" xlink:href="#DejaVuSans-46"/>
       <use x="95.410156" xlink:href="#DejaVuSans-50"/>
      </g>
     </g>
    </g>
    <g id="xtick_3">
     <g id="line2d_3">
      <g>
       <use style="stroke:#000000;stroke-width:0.8;" x="254.618182" xlink:href="#mb567daadc6" y="384.48"/>
      </g>
     </g>
     <g id="text_3">
      <!-- 0.4 -->
      <g transform="translate(241.895682 403.6375)scale(0.16 -0.16)">
       <defs>
        <path d="M 37.796875 64.3125 
L 12.890625 25.390625 
L 37.796875 25.390625 
z
M 35.203125 72.90625 
L 47.609375 72.90625 
L 47.609375 25.390625 
L 58.015625 25.390625 
L 58.015625 17.1875 
L 47.609375 17.1875 
L 47.609375 0 
L 37.796875 0 
L 37.796875 17.1875 
L 4.890625 17.1875 
L 4.890625 26.703125 
z
" id="DejaVuSans-52"/>
       </defs>
       <use xlink:href="#DejaVuSans-48"/>
       <use x="63.623047" xlink:href="#DejaVuSans-46"/>
       <use x="95.410156" xlink:href="#DejaVuSans-52"/>
      </g>
     </g>
    </g>
    <g id="xtick_4">
     <g id="line2d_4">
      <g>
       <use style="stroke:#000000;stroke-width:0.8;" x="335.781818" xlink:href="#mb567daadc6" y="384.48"/>
      </g>
     </g>
     <g id="text_4">
      <!-- 0.6 -->
      <g transform="translate(323.059318 403.6375)scale(0.16 -0.16)">
       <defs>
        <path d="M 33.015625 40.375 
Q 26.375 40.375 22.484375 35.828125 
Q 18.609375 31.296875 18.609375 23.390625 
Q 18.609375 15.53125 22.484375 10.953125 
Q 26.375 6.390625 33.015625 6.390625 
Q 39.65625 6.390625 43.53125 10.953125 
Q 47.40625 15.53125 47.40625 23.390625 
Q 47.40625 31.296875 43.53125 35.828125 
Q 39.65625 40.375 33.015625 40.375 
z
M 52.59375 71.296875 
L 52.59375 62.3125 
Q 48.875 64.0625 45.09375 64.984375 
Q 41.3125 65.921875 37.59375 65.921875 
Q 27.828125 65.921875 22.671875 59.328125 
Q 17.53125 52.734375 16.796875 39.40625 
Q 19.671875 43.65625 24.015625 45.921875 
Q 28.375 48.1875 33.59375 48.1875 
Q 44.578125 48.1875 50.953125 41.515625 
Q 57.328125 34.859375 57.328125 23.390625 
Q 57.328125 12.15625 50.6875 5.359375 
Q 44.046875 -1.421875 33.015625 -1.421875 
Q 20.359375 -1.421875 13.671875 8.265625 
Q 6.984375 17.96875 6.984375 36.375 
Q 6.984375 53.65625 15.1875 63.9375 
Q 23.390625 74.21875 37.203125 74.21875 
Q 40.921875 74.21875 44.703125 73.484375 
Q 48.484375 72.75 52.59375 71.296875 
z
" id="DejaVuSans-54"/>
       </defs>
       <use xlink:href="#DejaVuSans-48"/>
       <use x="63.623047" xlink:href="#DejaVuSans-46"/>
       <use x="95.410156" xlink:href="#DejaVuSans-54"/>
      </g>
     </g>
    </g>
    <g id="xtick_5">
     <g id="line2d_5">
      <g>
       <use style="stroke:#000000;stroke-width:0.8;" x="416.945455" xlink:href="#mb567daadc6" y="384.48"/>
      </g>
     </g>
     <g id="text_5">
      <!-- 0.8 -->
      <g transform="translate(404.222955 403.6375)scale(0.16 -0.16)">
       <defs>
        <path d="M 31.78125 34.625 
Q 24.75 34.625 20.71875 30.859375 
Q 16.703125 27.09375 16.703125 20.515625 
Q 16.703125 13.921875 20.71875 10.15625 
Q 24.75 6.390625 31.78125 6.390625 
Q 38.8125 6.390625 42.859375 10.171875 
Q 46.921875 13.96875 46.921875 20.515625 
Q 46.921875 27.09375 42.890625 30.859375 
Q 38.875 34.625 31.78125 34.625 
z
M 21.921875 38.8125 
Q 15.578125 40.375 12.03125 44.71875 
Q 8.5 49.078125 8.5 55.328125 
Q 8.5 64.0625 14.71875 69.140625 
Q 20.953125 74.21875 31.78125 74.21875 
Q 42.671875 74.21875 48.875 69.140625 
Q 55.078125 64.0625 55.078125 55.328125 
Q 55.078125 49.078125 51.53125 44.71875 
Q 48 40.375 41.703125 38.8125 
Q 48.828125 37.15625 52.796875 32.3125 
Q 56.78125 27.484375 56.78125 20.515625 
Q 56.78125 9.90625 50.3125 4.234375 
Q 43.84375 -1.421875 31.78125 -1.421875 
Q 19.734375 -1.421875 13.25 4.234375 
Q 6.78125 9.90625 6.78125 20.515625 
Q 6.78125 27.484375 10.78125 32.3125 
Q 14.796875 37.15625 21.921875 38.8125 
z
M 18.3125 54.390625 
Q 18.3125 48.734375 21.84375 45.5625 
Q 25.390625 42.390625 31.78125 42.390625 
Q 38.140625 42.390625 41.71875 45.5625 
Q 45.3125 48.734375 45.3125 54.390625 
Q 45.3125 60.0625 41.71875 63.234375 
Q 38.140625 66.40625 31.78125 66.40625 
Q 25.390625 66.40625 21.84375 63.234375 
Q 18.3125 60.0625 18.3125 54.390625 
z
" id="DejaVuSans-56"/>
       </defs>
       <use xlink:href="#DejaVuSans-48"/>
       <use x="63.623047" xlink:href="#DejaVuSans-46"/>
       <use x="95.410156" xlink:href="#DejaVuSans-56"/>
      </g>
     </g>
    </g>
    <g id="xtick_6">
     <g id="line2d_6">
      <g>
       <use style="stroke:#000000;stroke-width:0.8;" x="498.109091" xlink:href="#mb567daadc6" y="384.48"/>
      </g>
     </g>
     <g id="text_6">
      <!-- 1.0 -->
      <g transform="translate(485.386591 403.6375)scale(0.16 -0.16)">
       <defs>
        <path d="M 12.40625 8.296875 
L 28.515625 8.296875 
L 28.515625 63.921875 
L 10.984375 60.40625 
L 10.984375 69.390625 
L 28.421875 72.90625 
L 38.28125 72.90625 
L 38.28125 8.296875 
L 54.390625 8.296875 
L 54.390625 0 
L 12.40625 0 
z
" id="DejaVuSans-49"/>
       </defs>
       <use xlink:href="#DejaVuSans-49"/>
       <use x="63.623047" xlink:href="#DejaVuSans-46"/>
       <use x="95.410156" xlink:href="#DejaVuSans-48"/>
      </g>
     </g>
    </g>
    <g id="text_7">
     <!-- False Positive Rate -->
     <g transform="translate(220.85375 423.1225)scale(0.16 -0.16)">
      <defs>
       <path d="M 9.8125 72.90625 
L 51.703125 72.90625 
L 51.703125 64.59375 
L 19.671875 64.59375 
L 19.671875 43.109375 
L 48.578125 43.109375 
L 48.578125 34.8125 
L 19.671875 34.8125 
L 19.671875 0 
L 9.8125 0 
z
" id="DejaVuSans-70"/>
       <path d="M 34.28125 27.484375 
Q 23.390625 27.484375 19.1875 25 
Q 14.984375 22.515625 14.984375 16.5 
Q 14.984375 11.71875 18.140625 8.90625 
Q 21.296875 6.109375 26.703125 6.109375 
Q 34.1875 6.109375 38.703125 11.40625 
Q 43.21875 16.703125 43.21875 25.484375 
L 43.21875 27.484375 
z
M 52.203125 31.203125 
L 52.203125 0 
L 43.21875 0 
L 43.21875 8.296875 
Q 40.140625 3.328125 35.546875 0.953125 
Q 30.953125 -1.421875 24.3125 -1.421875 
Q 15.921875 -1.421875 10.953125 3.296875 
Q 6 8.015625 6 15.921875 
Q 6 25.140625 12.171875 29.828125 
Q 18.359375 34.515625 30.609375 34.515625 
L 43.21875 34.515625 
L 43.21875 35.40625 
Q 43.21875 41.609375 39.140625 45 
Q 35.0625 48.390625 27.6875 48.390625 
Q 23 48.390625 18.546875 47.265625 
Q 14.109375 46.140625 10.015625 43.890625 
L 10.015625 52.203125 
Q 14.9375 54.109375 19.578125 55.046875 
Q 24.21875 56 28.609375 56 
Q 40.484375 56 46.34375 49.84375 
Q 52.203125 43.703125 52.203125 31.203125 
z
" id="DejaVuSans-97"/>
       <path d="M 9.421875 75.984375 
L 18.40625 75.984375 
L 18.40625 0 
L 9.421875 0 
z
" id="DejaVuSans-108"/>
       <path d="M 44.28125 53.078125 
L 44.28125 44.578125 
Q 40.484375 46.53125 36.375 47.5 
Q 32.28125 48.484375 27.875 48.484375 
Q 21.1875 48.484375 17.84375 46.4375 
Q 14.5 44.390625 14.5 40.28125 
Q 14.5 37.15625 16.890625 35.375 
Q 19.28125 33.59375 26.515625 31.984375 
L 29.59375 31.296875 
Q 39.15625 29.25 43.1875 25.515625 
Q 47.21875 21.78125 47.21875 15.09375 
Q 47.21875 7.46875 41.1875 3.015625 
Q 35.15625 -1.421875 24.609375 -1.421875 
Q 20.21875 -1.421875 15.453125 -0.5625 
Q 10.6875 0.296875 5.421875 2 
L 5.421875 11.28125 
Q 10.40625 8.6875 15.234375 7.390625 
Q 20.0625 6.109375 24.8125 6.109375 
Q 31.15625 6.109375 34.5625 8.28125 
Q 37.984375 10.453125 37.984375 14.40625 
Q 37.984375 18.0625 35.515625 20.015625 
Q 33.0625 21.96875 24.703125 23.78125 
L 21.578125 24.515625 
Q 13.234375 26.265625 9.515625 29.90625 
Q 5.8125 33.546875 5.8125 39.890625 
Q 5.8125 47.609375 11.28125 51.796875 
Q 16.75 56 26.8125 56 
Q 31.78125 56 36.171875 55.265625 
Q 40.578125 54.546875 44.28125 53.078125 
z
" id="DejaVuSans-115"/>
       <path d="M 56.203125 29.59375 
L 56.203125 25.203125 
L 14.890625 25.203125 
Q 15.484375 15.921875 20.484375 11.0625 
Q 25.484375 6.203125 34.421875 6.203125 
Q 39.59375 6.203125 44.453125 7.46875 
Q 49.3125 8.734375 54.109375 11.28125 
L 54.109375 2.78125 
Q 49.265625 0.734375 44.1875 -0.34375 
Q 39.109375 -1.421875 33.890625 -1.421875 
Q 20.796875 -1.421875 13.15625 6.1875 
Q 5.515625 13.8125 5.515625 26.8125 
Q 5.515625 40.234375 12.765625 48.109375 
Q 20.015625 56 32.328125 56 
Q 43.359375 56 49.78125 48.890625 
Q 56.203125 41.796875 56.203125 29.59375 
z
M 47.21875 32.234375 
Q 47.125 39.59375 43.09375 43.984375 
Q 39.0625 48.390625 32.421875 48.390625 
Q 24.90625 48.390625 20.390625 44.140625 
Q 15.875 39.890625 15.1875 32.171875 
z
" id="DejaVuSans-101"/>
       <path id="DejaVuSans-32"/>
       <path d="M 19.671875 64.796875 
L 19.671875 37.40625 
L 32.078125 37.40625 
Q 38.96875 37.40625 42.71875 40.96875 
Q 46.484375 44.53125 46.484375 51.125 
Q 46.484375 57.671875 42.71875 61.234375 
Q 38.96875 64.796875 32.078125 64.796875 
z
M 9.8125 72.90625 
L 32.078125 72.90625 
Q 44.34375 72.90625 50.609375 67.359375 
Q 56.890625 61.8125 56.890625 51.125 
Q 56.890625 40.328125 50.609375 34.8125 
Q 44.34375 29.296875 32.078125 29.296875 
L 19.671875 29.296875 
L 19.671875 0 
L 9.8125 0 
z
" id="DejaVuSans-80"/>
       <path d="M 30.609375 48.390625 
Q 23.390625 48.390625 19.1875 42.75 
Q 14.984375 37.109375 14.984375 27.296875 
Q 14.984375 17.484375 19.15625 11.84375 
Q 23.34375 6.203125 30.609375 6.203125 
Q 37.796875 6.203125 41.984375 11.859375 
Q 46.1875 17.53125 46.1875 27.296875 
Q 46.1875 37.015625 41.984375 42.703125 
Q 37.796875 48.390625 30.609375 48.390625 
z
M 30.609375 56 
Q 42.328125 56 49.015625 48.375 
Q 55.71875 40.765625 55.71875 27.296875 
Q 55.71875 13.875 49.015625 6.21875 
Q 42.328125 -1.421875 30.609375 -1.421875 
Q 18.84375 -1.421875 12.171875 6.21875 
Q 5.515625 13.875 5.515625 27.296875 
Q 5.515625 40.765625 12.171875 48.375 
Q 18.84375 56 30.609375 56 
z
" id="DejaVuSans-111"/>
       <path d="M 9.421875 54.6875 
L 18.40625 54.6875 
L 18.40625 0 
L 9.421875 0 
z
M 9.421875 75.984375 
L 18.40625 75.984375 
L 18.40625 64.59375 
L 9.421875 64.59375 
z
" id="DejaVuSans-105"/>
       <path d="M 18.3125 70.21875 
L 18.3125 54.6875 
L 36.8125 54.6875 
L 36.8125 47.703125 
L 18.3125 47.703125 
L 18.3125 18.015625 
Q 18.3125 11.328125 20.140625 9.421875 
Q 21.96875 7.515625 27.59375 7.515625 
L 36.8125 7.515625 
L 36.8125 0 
L 27.59375 0 
Q 17.1875 0 13.234375 3.875 
Q 9.28125 7.765625 9.28125 18.015625 
L 9.28125 47.703125 
L 2.6875 47.703125 
L 2.6875 54.6875 
L 9.28125 54.6875 
L 9.28125 70.21875 
z
" id="DejaVuSans-116"/>
       <path d="M 2.984375 54.6875 
L 12.5 54.6875 
L 29.59375 8.796875 
L 46.6875 54.6875 
L 56.203125 54.6875 
L 35.6875 0 
L 23.484375 0 
z
" id="DejaVuSans-118"/>
       <path d="M 44.390625 34.1875 
Q 47.5625 33.109375 50.5625 29.59375 
Q 53.5625 26.078125 56.59375 19.921875 
L 66.609375 0 
L 56 0 
L 46.6875 18.703125 
Q 43.0625 26.03125 39.671875 28.421875 
Q 36.28125 30.8125 30.421875 30.8125 
L 19.671875 30.8125 
L 19.671875 0 
L 9.8125 0 
L 9.8125 72.90625 
L 32.078125 72.90625 
Q 44.578125 72.90625 50.734375 67.671875 
Q 56.890625 62.453125 56.890625 51.90625 
Q 56.890625 45.015625 53.6875 40.46875 
Q 50.484375 35.9375 44.390625 34.1875 
z
M 19.671875 64.796875 
L 19.671875 38.921875 
L 32.078125 38.921875 
Q 39.203125 38.921875 42.84375 42.21875 
Q 46.484375 45.515625 46.484375 51.90625 
Q 46.484375 58.296875 42.84375 61.546875 
Q 39.203125 64.796875 32.078125 64.796875 
z
" id="DejaVuSans-82"/>
      </defs>
      <use xlink:href="#DejaVuSans-70"/>
      <use x="48.394531" xlink:href="#DejaVuSans-97"/>
      <use x="109.673828" xlink:href="#DejaVuSans-108"/>
      <use x="137.457031" xlink:href="#DejaVuSans-115"/>
      <use x="189.556641" xlink:href="#DejaVuSans-101"/>
      <use x="251.080078" xlink:href="#DejaVuSans-32"/>
      <use x="282.867188" xlink:href="#DejaVuSans-80"/>
      <use x="339.544922" xlink:href="#DejaVuSans-111"/>
      <use x="400.726562" xlink:href="#DejaVuSans-115"/>
      <use x="452.826172" xlink:href="#DejaVuSans-105"/>
      <use x="480.609375" xlink:href="#DejaVuSans-116"/>
      <use x="519.818359" xlink:href="#DejaVuSans-105"/>
      <use x="547.601562" xlink:href="#DejaVuSans-118"/>
      <use x="606.78125" xlink:href="#DejaVuSans-101"/>
      <use x="668.304688" xlink:href="#DejaVuSans-32"/>
      <use x="700.091797" xlink:href="#DejaVuSans-82"/>
      <use x="767.324219" xlink:href="#DejaVuSans-97"/>
      <use x="828.603516" xlink:href="#DejaVuSans-116"/>
      <use x="867.8125" xlink:href="#DejaVuSans-101"/>
     </g>
    </g>
   </g>
   <g id="matplotlib.axis_2">
    <g id="ytick_1">
     <g id="line2d_7">
      <defs>
       <path d="M 0 0 
L -3.5 0 
" id="m36dd5cfc5b" style="stroke:#000000;stroke-width:0.8;"/>
      </defs>
      <g>
       <use style="stroke:#000000;stroke-width:0.8;" x="72" xlink:href="#m36dd5cfc5b" y="369.36"/>
      </g>
     </g>
     <g id="text_8">
      <!-- 0.0 -->
      <g transform="translate(39.555 375.43875)scale(0.16 -0.16)">
       <use xlink:href="#DejaVuSans-48"/>
       <use x="63.623047" xlink:href="#DejaVuSans-46"/>
       <use x="95.410156" xlink:href="#DejaVuSans-48"/>
      </g>
     </g>
    </g>
    <g id="ytick_2">
     <g id="line2d_8">
      <g>
       <use style="stroke:#000000;stroke-width:0.8;" x="72" xlink:href="#m36dd5cfc5b" y="308.88"/>
      </g>
     </g>
     <g id="text_9">
      <!-- 0.2 -->
      <g transform="translate(39.555 314.95875)scale(0.16 -0.16)">
       <use xlink:href="#DejaVuSans-48"/>
       <use x="63.623047" xlink:href="#DejaVuSans-46"/>
       <use x="95.410156" xlink:href="#DejaVuSans-50"/>
      </g>
     </g>
    </g>
    <g id="ytick_3">
     <g id="line2d_9">
      <g>
       <use style="stroke:#000000;stroke-width:0.8;" x="72" xlink:href="#m36dd5cfc5b" y="248.4"/>
      </g>
     </g>
     <g id="text_10">
      <!-- 0.4 -->
      <g transform="translate(39.555 254.47875)scale(0.16 -0.16)">
       <use xlink:href="#DejaVuSans-48"/>
       <use x="63.623047" xlink:href="#DejaVuSans-46"/>
       <use x="95.410156" xlink:href="#DejaVuSans-52"/>
      </g>
     </g>
    </g>
    <g id="ytick_4">
     <g id="line2d_10">
      <g>
       <use style="stroke:#000000;stroke-width:0.8;" x="72" xlink:href="#m36dd5cfc5b" y="187.92"/>
      </g>
     </g>
     <g id="text_11">
      <!-- 0.6 -->
      <g transform="translate(39.555 193.99875)scale(0.16 -0.16)">
       <use xlink:href="#DejaVuSans-48"/>
       <use x="63.623047" xlink:href="#DejaVuSans-46"/>
       <use x="95.410156" xlink:href="#DejaVuSans-54"/>
      </g>
     </g>
    </g>
    <g id="ytick_5">
     <g id="line2d_11">
      <g>
       <use style="stroke:#000000;stroke-width:0.8;" x="72" xlink:href="#m36dd5cfc5b" y="127.44"/>
      </g>
     </g>
     <g id="text_12">
      <!-- 0.8 -->
      <g transform="translate(39.555 133.51875)scale(0.16 -0.16)">
       <use xlink:href="#DejaVuSans-48"/>
       <use x="63.623047" xlink:href="#DejaVuSans-46"/>
       <use x="95.410156" xlink:href="#DejaVuSans-56"/>
      </g>
     </g>
    </g>
    <g id="ytick_6">
     <g id="line2d_12">
      <g>
       <use style="stroke:#000000;stroke-width:0.8;" x="72" xlink:href="#m36dd5cfc5b" y="66.96"/>
      </g>
     </g>
     <g id="text_13">
      <!-- 1.0 -->
      <g transform="translate(39.555 73.03875)scale(0.16 -0.16)">
       <use xlink:href="#DejaVuSans-49"/>
       <use x="63.623047" xlink:href="#DejaVuSans-46"/>
       <use x="95.410156" xlink:href="#DejaVuSans-48"/>
      </g>
     </g>
    </g>
    <g id="text_14">
     <!-- True Positive Rate -->
     <g transform="translate(32.2275 289.4075)rotate(-90)scale(0.16 -0.16)">
      <defs>
       <path d="M -0.296875 72.90625 
L 61.375 72.90625 
L 61.375 64.59375 
L 35.5 64.59375 
L 35.5 0 
L 25.59375 0 
L 25.59375 64.59375 
L -0.296875 64.59375 
z
" id="DejaVuSans-84"/>
       <path d="M 41.109375 46.296875 
Q 39.59375 47.171875 37.8125 47.578125 
Q 36.03125 48 33.890625 48 
Q 26.265625 48 22.1875 43.046875 
Q 18.109375 38.09375 18.109375 28.8125 
L 18.109375 0 
L 9.078125 0 
L 9.078125 54.6875 
L 18.109375 54.6875 
L 18.109375 46.1875 
Q 20.953125 51.171875 25.484375 53.578125 
Q 30.03125 56 36.53125 56 
Q 37.453125 56 38.578125 55.875 
Q 39.703125 55.765625 41.0625 55.515625 
z
" id="DejaVuSans-114"/>
       <path d="M 8.5 21.578125 
L 8.5 54.6875 
L 17.484375 54.6875 
L 17.484375 21.921875 
Q 17.484375 14.15625 20.5 10.265625 
Q 23.53125 6.390625 29.59375 6.390625 
Q 36.859375 6.390625 41.078125 11.03125 
Q 45.3125 15.671875 45.3125 23.6875 
L 45.3125 54.6875 
L 54.296875 54.6875 
L 54.296875 0 
L 45.3125 0 
L 45.3125 8.40625 
Q 42.046875 3.421875 37.71875 1 
Q 33.40625 -1.421875 27.6875 -1.421875 
Q 18.265625 -1.421875 13.375 4.4375 
Q 8.5 10.296875 8.5 21.578125 
z
M 31.109375 56 
z
" id="DejaVuSans-117"/>
      </defs>
      <use xlink:href="#DejaVuSans-84"/>
      <use x="46.333984" xlink:href="#DejaVuSans-114"/>
      <use x="87.447266" xlink:href="#DejaVuSans-117"/>
      <use x="150.826172" xlink:href="#DejaVuSans-101"/>
      <use x="212.349609" xlink:href="#DejaVuSans-32"/>
      <use x="244.136719" xlink:href="#DejaVuSans-80"/>
      <use x="300.814453" xlink:href="#DejaVuSans-111"/>
      <use x="361.996094" xlink:href="#DejaVuSans-115"/>
      <use x="414.095703" xlink:href="#DejaVuSans-105"/>
      <use x="441.878906" xlink:href="#DejaVuSans-116"/>
      <use x="481.087891" xlink:href="#DejaVuSans-105"/>
      <use x="508.871094" xlink:href="#DejaVuSans-118"/>
      <use x="568.050781" xlink:href="#DejaVuSans-101"/>
      <use x="629.574219" xlink:href="#DejaVuSans-32"/>
      <use x="661.361328" xlink:href="#DejaVuSans-82"/>
      <use x="728.59375" xlink:href="#DejaVuSans-97"/>
      <use x="789.873047" xlink:href="#DejaVuSans-116"/>
      <use x="829.082031" xlink:href="#DejaVuSans-101"/>
     </g>
    </g>
   </g>
   <g id="line2d_13">
    <path clip-path="url(#p08410a4366)" d="M 92.290909 369.36 
L 498.109091 66.96 
" style="fill:none;stroke:#0000ff;stroke-linecap:square;stroke-width:1.5;"/>
   </g>
   <g id="line2d_14">
    <path clip-path="url(#p08410a4366)" d="M 92.290909 369.36 
L 92.296641 369.266593 
L 92.406317 365.685991 
L 92.413577 365.582205 
L 92.524399 363.008323 
L 92.527839 362.904538 
L 92.638278 360.330656 
L 92.648978 360.247627 
L 92.7598 357.559581 
L 92.762475 357.486931 
L 92.873297 354.041251 
L 92.880558 353.937465 
L 92.99138 350.273835 
L 92.996348 350.201185 
L 93.106023 346.983832 
L 93.11443 346.890425 
L 93.223723 343.247552 
L 93.228309 343.143766 
L 93.339131 339.345215 
L 93.340277 339.3037 
L 93.340277 339.262186 
L 93.451099 334.716378 
L 93.452628 334.622971 
L 93.56345 330.295113 
L 93.569182 330.191328 
L 93.680004 325.977634 
L 93.682679 325.884227 
L 93.793118 321.504476 
L 93.794265 321.400691 
L 93.905087 316.221791 
L 93.907762 316.138762 
L 94.018202 311.395762 
L 94.021259 311.291977 
L 94.131698 305.666799 
L 94.133609 305.625285 
L 94.133609 305.58377 
L 94.244049 300.135028 
L 94.247488 300.031243 
L 94.35831 295.609978 
L 94.361749 295.506192 
L 94.472571 290.576378 
L 94.474864 290.524485 
L 94.585304 286.570255 
L 94.588361 286.466469 
L 94.699183 281.401734 
L 94.70224 281.339463 
L 94.70224 281.308327 
L 94.81268 276.648355 
L 94.815737 276.617219 
L 94.926559 271.116584 
L 94.931909 271.012799 
L 95.04082 266.446234 
L 95.04273 266.446234 
L 95.047698 266.352827 
L 95.157374 262.284433 
L 95.159667 262.222162 
L 95.270489 257.759382 
L 95.274692 257.665975 
L 95.385514 253.846666 
L 95.3901 253.774017 
L 95.500922 249.840544 
L 95.5078 249.747137 
L 95.5078 249.736758 
L 95.61824 246.135399 
L 95.621297 246.041992 
L 95.731737 242.492526 
L 95.734794 242.38874 
L 95.845234 238.849652 
L 95.849055 238.745867 
L 95.959113 235.372836 
L 95.966373 235.279429 
L 96.077195 231.67807 
L 96.080252 231.574284 
L 96.191074 228.709803 
L 96.196424 228.626774 
L 96.307246 225.679264 
L 96.312214 225.575479 
L 96.423036 222.794025 
L 96.42915 222.69024 
L 96.539972 219.37948 
L 96.547997 219.296452 
L 96.658819 216.43197 
L 96.66073 216.390456 
L 96.771551 213.525975 
L 96.776901 213.422189 
L 96.887723 210.505815 
L 96.894602 210.402029 
L 97.005042 207.73474 
L 97.008863 207.66209 
L 97.008863 207.630954 
L 97.118539 204.963665 
L 97.127328 204.85988 
L 97.23815 202.078427 
L 97.244264 201.974641 
L 97.355086 199.079024 
L 97.362729 198.985617 
L 97.473168 195.529558 
L 97.478136 195.436151 
L 97.588958 193.298168 
L 97.59813 193.194382 
L 97.707805 190.755422 
L 97.714684 190.662015 
L 97.714684 190.651636 
L 97.825123 188.223054 
L 97.832384 188.129647 
L 97.943206 185.524629 
L 97.944735 185.451979 
L 98.055556 183.428161 
L 98.062435 183.334754 
L 98.171728 181.456235 
L 98.172493 181.456235 
L 98.178989 181.373207 
L 98.289811 179.660745 
L 98.297072 179.598473 
L 98.405601 177.657683 
L 98.406747 177.657683 
L 98.419358 177.564276 
L 98.529415 175.384779 
L 98.540498 175.291372 
L 98.650937 173.412854 
L 98.653994 173.340204 
L 98.653994 173.309068 
L 98.764816 171.627742 
L 98.771695 171.523956 
L 98.88137 169.230296 
L 98.890542 169.12651 
L 99.001364 167.455562 
L 99.009389 167.351777 
L 99.118682 165.784615 
L 99.12365 165.680829 
L 99.233707 164.09291 
L 99.24135 163.989124 
L 99.352172 162.245527 
L 99.363254 162.141741 
L 99.471019 160.387765 
L 99.473312 160.387765 
L 99.483248 160.294358 
L 99.593305 158.675304 
L 99.607445 158.571518 
L 99.715209 157.201549 
L 99.723999 157.139277 
L 99.723999 157.128899 
L 99.834821 155.406058 
L 99.848578 155.312651 
L 99.955196 153.942682 
L 99.959017 153.942682 
L 99.971628 153.838896 
L 100.081686 152.666119 
L 100.09315 152.562334 
L 100.203208 151.29615 
L 100.217729 151.192364 
L 100.32664 149.988452 
L 100.339251 149.884666 
L 100.450073 148.49394 
L 100.456951 148.390154 
L 100.566627 146.802235 
L 100.581148 146.708828 
L 100.69197 145.048259 
L 100.699995 144.944473 
L 100.810817 143.937753 
L 100.826103 143.833968 
L 100.936543 142.609298 
L 100.944568 142.515891 
L 101.055007 141.51955 
L 101.076025 141.426143 
L 101.184172 140.305259 
L 101.202133 140.22223 
L 101.312955 139.153239 
L 101.328241 139.049453 
L 101.43868 137.918191 
L 101.450145 137.835162 
L 101.450145 137.824784 
L 101.560584 136.465193 
L 101.572049 136.371786 
L 101.680578 135.365066 
L 101.682106 135.365066 
L 101.695481 135.271659 
L 101.801717 134.337589 
L 101.806303 134.337589 
L 101.820442 134.244182 
L 101.930118 133.32049 
L 101.942729 133.227083 
L 102.05164 132.417556 
L 102.052786 132.417556 
L 102.068454 132.31377 
L 102.178512 131.327807 
L 102.195708 131.224022 
L 102.30653 130.310709 
L 102.335191 130.206923 
L 102.444484 129.428531 
L 102.468559 129.345503 
L 102.578999 128.401054 
L 102.600781 128.297269 
L 102.711603 127.28017 
L 102.721157 127.186763 
L 102.831596 126.283829 
L 102.845736 126.180043 
L 102.955411 125.090295 
L 102.956558 125.090295 
L 102.97299 124.986509 
L 103.124701 123.865625 
L 103.140369 123.76184 
L 103.248516 123.128748 
L 103.269916 123.035341 
L 103.377299 122.53717 
L 103.396406 122.443763 
L 103.507228 121.582343 
L 103.548499 121.478557 
L 103.658175 120.700165 
L 103.681868 120.59638 
L 103.792689 120.035938 
L 103.822879 119.932152 
L 103.933701 119.133003 
L 103.951279 119.029218 
L 104.051019 118.448019 
L 104.06019 118.448019 
L 104.087323 118.344233 
L 104.197762 117.711141 
L 104.23292 117.617734 
L 104.341067 116.995021 
L 104.42896 116.901614 
L 104.534432 116.268522 
L 104.539399 116.268522 
L 104.563857 116.164736 
L 104.670857 115.479752 
L 104.671621 115.479752 
L 104.713275 115.386345 
L 104.822568 114.618331 
L 104.847408 114.514546 
L 104.957848 113.902211 
L 104.994151 113.798425 
L 105.104591 113.25874 
L 105.133252 113.165333 
L 105.242163 112.584134 
L 105.268531 112.480349 
L 105.379353 111.951042 
L 105.389671 111.847257 
L 105.495907 111.46325 
L 105.527625 111.359465 
L 105.631186 110.830158 
L 105.636154 110.830158 
L 105.660993 110.726373 
L 105.760733 110.248959 
L 105.769904 110.248959 
L 105.788247 110.145173 
L 105.896012 109.501703 
L 105.899069 109.501703 
L 105.923526 109.397917 
L 106.034348 108.775204 
L 106.053455 108.681797 
L 106.159691 108.339305 
L 106.164277 108.339305 
L 106.186059 108.235519 
L 106.293442 107.706213 
L 106.295353 107.706213 
L 106.321339 107.602427 
L 106.429485 107.166528 
L 106.449739 107.062742 
L 106.556357 106.616464 
L 106.557504 106.616464 
L 106.599157 106.523057 
L 106.708833 106.118294 
L 106.726029 106.024887 
L 106.835705 105.402173 
L 106.836469 105.402173 
L 106.855576 105.298388 
L 106.965634 104.914381 
L 106.985888 104.810595 
L 107.089449 104.499239 
L 107.095563 104.499239 
L 107.122695 104.395453 
L 107.23046 103.959554 
L 107.233135 103.959554 
L 107.268674 103.855768 
L 107.376057 103.430247 
L 107.379496 103.430247 
L 107.430704 103.326462 
L 107.541525 102.900941 
L 107.576301 102.797156 
L 107.68674 102.485799 
L 107.721515 102.392392 
L 107.832337 101.966871 
L 107.857559 101.863085 
L 107.96112 101.614 
L 107.967998 101.614 
L 108.008888 101.510215 
L 108.110156 101.095072 
L 108.114742 101.095072 
L 108.152574 100.991287 
L 108.25881 100.648794 
L 108.263396 100.648794 
L 108.313457 100.545009 
L 108.408993 100.223274 
L 108.424279 100.223274 
L 108.444915 100.119488 
L 108.541215 99.860024 
L 108.551533 99.860024 
L 108.582869 99.756238 
L 108.646305 99.559046 
L 108.752159 99.45526 
L 108.859923 99.164661 
L 108.895463 99.060875 
L 109.004374 98.562704 
L 109.060167 98.458919 
L 109.169842 98.095669 
L 109.170989 98.095669 
L 109.20691 97.991884 
L 109.315439 97.670149 
L 109.374672 97.566363 
L 109.485112 97.327656 
L 109.534408 97.223871 
L 109.636441 96.922893 
L 109.637969 96.922893 
L 109.683062 96.819107 
L 109.791973 96.590779 
L 109.793502 96.590779 
L 109.837831 96.486993 
L 109.94827 96.206772 
L 110.012853 96.102987 
L 110.116414 95.750116 
L 110.12291 95.750116 
L 110.16915 95.64633 
L 110.275004 95.397245 
L 110.277679 95.397245 
L 110.3136 95.293459 
L 110.411429 95.065131 
L 110.424422 95.065131 
L 110.454612 94.971724 
L 110.563523 94.701881 
L 110.641098 94.598096 
L 110.751156 94.286739 
L 110.766824 94.182954 
L 110.872295 93.913111 
L 110.87306 93.913111 
L 110.952546 93.809326 
L 111.0584 93.570619 
L 111.134064 93.466833 
L 111.240683 93.176234 
L 111.244504 93.176234 
L 111.295711 93.082827 
L 111.405387 92.812984 
L 111.447041 92.709199 
L 111.518119 92.563899 
L 111.557098 92.563899 
L 111.591873 92.460113 
L 111.677474 92.179892 
L 111.691995 92.179892 
L 111.76957 92.076107 
L 111.811606 91.972321 
L 111.826892 91.972321 
L 111.920517 91.868536 
L 112.028664 91.567557 
L 112.074522 91.463772 
L 112.172733 91.204308 
L 112.178465 91.204308 
L 112.244958 91.100522 
L 112.344315 90.872194 
L 112.354251 90.872194 
L 112.393994 90.768409 
L 112.504434 90.54008 
L 112.584684 90.436295 
L 112.693213 90.187209 
L 112.695506 90.187209 
L 112.742128 90.083424 
L 112.85295 89.886231 
L 112.873585 89.803203 
L 112.97065 89.595632 
L 112.984407 89.595632 
L 113.070772 89.491846 
L 113.159811 89.284275 
L 113.179683 89.284275 
L 113.237769 89.180489 
L 113.343623 88.983297 
L 113.346298 88.983297 
L 113.451388 88.879511 
L 113.546159 88.67194 
L 113.559152 88.67194 
L 113.632524 88.568155 
L 113.733028 88.391719 
L 113.742582 88.391719 
L 113.820921 88.287934 
L 113.927539 88.018091 
L 113.929832 88.018091 
L 113.992122 87.914306 
L 114.093772 87.706734 
L 114.100269 87.706734 
L 114.213766 87.602949 
L 114.323059 87.405756 
L 114.394902 87.301971 
L 114.503431 87.011371 
L 114.505342 87.011371 
L 114.539353 86.907586 
L 114.647499 86.648122 
L 114.730425 86.544336 
L 114.830547 86.336765 
L 114.837807 86.336765 
L 114.903154 86.264115 
L 115.012829 85.983894 
L 115.141612 85.880108 
L 115.247084 85.786701 
L 115.313959 85.682916 
L 115.41752 85.558373 
L 115.424399 85.558373 
L 115.488217 85.454588 
L 115.597892 85.267774 
L 115.599039 85.267774 
L 115.690371 85.163988 
L 115.7989 85.00831 
L 115.800811 85.00831 
L 115.931887 84.904524 
L 116.029715 84.71771 
L 116.041944 84.71771 
L 116.184484 84.613925 
L 116.294542 84.468625 
L 116.295306 84.468625 
L 116.349952 84.364839 
L 116.447399 84.198782 
L 116.460392 84.198782 
L 116.583825 84.105375 
L 116.691207 83.918561 
L 116.746236 83.814776 
L 116.829926 83.721369 
L 116.856294 83.721369 
L 116.917819 83.617583 
L 117.024055 83.49304 
L 117.135641 83.389255 
L 117.224299 83.243955 
L 117.244934 83.243955 
L 117.332828 83.14017 
L 117.424542 82.963734 
L 117.442885 82.963734 
L 117.512053 82.859949 
L 117.591922 82.735406 
L 117.622493 82.735406 
L 117.723761 82.63162 
L 117.83229 82.496699 
L 118.002345 82.392913 
L 118.091384 82.174964 
L 118.110109 82.174964 
L 118.185392 82.071178 
L 118.293156 81.9155 
L 118.295067 81.9155 
L 118.408946 81.811714 
L 118.509832 81.676793 
L 118.518622 81.676793 
L 118.598108 81.573008 
L 118.699376 81.386193 
L 118.706254 81.386193 
L 118.864462 81.282408 
L 118.974902 81.189001 
L 119.143045 81.085215 
L 119.243167 81.022944 
L 119.253485 81.022944 
L 119.420482 80.919158 
L 119.507229 80.794616 
L 119.529011 80.794616 
L 119.678812 80.69083 
L 119.788105 80.535152 
L 119.982234 80.431366 
L 120.080445 80.358716 
L 120.093056 80.358716 
L 120.271518 80.254931 
L 120.351004 80.182281 
L 120.3789 80.182281 
L 120.459533 80.088874 
L 120.549337 79.985088 
L 120.568062 79.985088 
L 120.661687 79.881303 
L 120.768305 79.75676 
L 120.910845 79.652975 
L 121.00256 79.601082 
L 121.021285 79.601082 
L 121.145864 79.497296 
L 121.245221 79.341618 
L 121.254393 79.341618 
L 121.349929 79.237832 
L 121.457694 79.071775 
L 121.594119 78.96799 
L 121.669402 78.89534 
L 121.704941 78.89534 
L 121.756531 78.791554 
L 121.835252 78.687769 
L 121.866206 78.687769 
L 122.014096 78.583983 
L 122.122625 78.459441 
L 122.314843 78.355655 
L 122.407322 78.314141 
L 122.425665 78.314141 
L 122.631259 78.210355 
L 122.725266 78.158462 
L 122.741317 78.158462 
L 122.975189 78.054677 
L 123.018753 78.023541 
L 123.076075 78.023541 
L 123.274026 77.919756 
L 123.373765 77.847106 
L 123.37988 77.847106 
L 123.52433 77.74332 
L 123.627891 77.649913 
L 123.633241 77.649913 
L 124.008507 77.546128 
L 124.1178 77.400828 
L 124.119329 77.400828 
L 124.355494 77.297042 
L 124.462495 77.245149 
L 124.466316 77.245149 
L 124.638281 77.141364 
L 124.734581 77.089471 
L 124.749103 77.089471 
L 124.903489 76.985686 
L 125.008579 76.8819 
L 125.013929 76.8819 
L 125.369323 76.778114 
L 125.478999 76.695086 
L 125.704846 76.5913 
L 125.812228 76.529029 
L 125.815668 76.529029 
L 126.051451 76.425244 
L 126.151573 76.362972 
L 126.156923 76.362972 
L 126.309016 76.259187 
L 126.40952 76.196915 
L 126.417927 76.196915 
L 126.759946 76.09313 
L 126.859304 76.041237 
L 126.86924 76.041237 
L 127.071776 75.937451 
L 127.182216 75.833666 
L 127.472646 75.72988 
L 127.56436 75.667609 
L 127.578882 75.667609 
L 127.988923 75.563823 
L 128.095541 75.480795 
L 128.099362 75.480795 
L 128.275531 75.377009 
L 128.37871 75.345874 
L 128.554496 75.242088 
L 128.615639 75.210952 
L 128.662643 75.210952 
L 128.903776 75.107167 
L 129.013834 75.055274 
L 129.387953 74.951488 
L 129.44451 74.909974 
L 129.496482 74.909974 
L 129.690993 74.806189 
L 129.781562 74.743917 
L 129.801433 74.743917 
L 130.123963 74.640132 
L 130.22676 74.557103 
L 130.234403 74.557103 
L 130.408278 74.453318 
L 130.472097 74.380668 
L 130.472479 74.380668 
L 130.895512 74.276882 
L 131.004806 74.235368 
L 131.006334 74.235368 
L 131.299821 74.131583 
L 131.345296 74.110825 
L 131.410261 74.110825 
L 132.059142 74.00704 
L 132.151621 73.955147 
L 132.165378 73.955147 
L 132.654141 73.851361 
L 132.687387 73.809847 
L 132.76458 73.809847 
L 133.188761 73.706062 
L 133.280857 73.664547 
L 133.298818 73.664547 
L 133.567848 73.560762 
L 133.652302 73.529626 
L 133.673702 73.529626 
L 134.188832 73.425841 
L 134.261822 73.394705 
L 134.298126 73.394705 
L 134.810581 73.290919 
L 134.872106 73.228648 
L 134.920639 73.228648 
L 135.419719 73.124863 
L 135.530541 73.104105 
L 135.968479 73.010698 
L 136.006693 72.969184 
L 136.0793 72.969184 
L 136.739264 72.865399 
L 136.843207 72.792749 
L 136.848939 72.792749 
L 137.656028 72.688963 
L 137.659085 72.668206 
L 137.766468 72.668206 
L 138.01104 72.56442 
L 138.103137 72.522906 
L 138.121862 72.522906 
L 138.477638 72.419121 
L 138.583492 72.356849 
L 139.113909 72.253064 
L 139.21938 72.201171 
L 139.224348 72.201171 
L 139.656554 72.097385 
L 139.7647 72.045493 
L 139.766229 72.045493 
L 140.448739 71.941707 
L 140.530136 71.910571 
L 140.558414 71.910571 
L 141.123606 71.806786 
L 141.14042 71.786029 
L 141.231753 71.786029 
L 141.856176 71.682243 
L 141.963559 71.661486 
L 141.966616 71.661486 
L 142.628108 71.557701 
L 142.721733 71.516186 
L 142.734344 71.516186 
L 143.308707 71.412401 
L 143.360297 71.381265 
L 143.417618 71.381265 
L 143.732505 71.277479 
L 143.821927 71.246344 
L 143.84027 71.246344 
L 144.62443 71.142558 
L 144.666466 71.121801 
L 144.735252 71.121801 
L 145.202614 71.018016 
L 145.249618 70.997258 
L 145.304647 70.997258 
L 145.777742 70.893473 
L 145.846528 70.862337 
L 145.888563 70.862337 
L 146.735395 70.758552 
L 146.840867 70.737795 
L 147.851257 70.634009 
L 147.922718 70.602873 
L 147.962079 70.602873 
L 148.725221 70.499088 
L 148.829546 70.447195 
L 148.836043 70.447195 
L 149.766946 70.343409 
L 149.782614 70.322652 
L 149.873947 70.322652 
L 150.435699 70.218867 
L 150.435699 70.208488 
L 150.545757 70.208488 
L 151.093752 70.104703 
L 151.093752 70.094324 
L 151.204573 70.094324 
L 152.229102 69.990538 
L 152.318524 69.969781 
L 152.33916 69.969781 
L 153.179113 69.865996 
L 153.276178 69.814103 
L 153.288789 69.814103 
L 154.047727 69.710317 
L 154.064542 69.68956 
L 154.157021 69.68956 
L 154.925131 69.585775 
L 154.925131 69.575396 
L 155.031749 69.575396 
L 155.996663 69.471611 
L 156.10481 69.440475 
L 157.130486 69.336689 
L 157.241308 69.284797 
L 157.975407 69.181011 
L 158.043046 69.139497 
L 158.078204 69.139497 
L 159.678624 69.035711 
L 159.678624 69.025333 
L 159.788682 69.025333 
L 160.999315 68.921547 
L 160.999315 68.911169 
L 161.104787 68.911169 
L 162.115941 68.807383 
L 162.115941 68.797004 
L 162.226763 68.797004 
L 163.687318 68.693219 
L 163.687318 68.68284 
L 163.793937 68.68284 
L 166.020692 68.579055 
L 166.020692 68.568676 
L 166.129603 68.568676 
L 167.492329 68.464891 
L 167.492329 68.454512 
L 167.595508 68.454512 
L 169.124468 68.350727 
L 169.232615 68.309212 
L 172.696371 68.205427 
L 172.73 68.18467 
L 172.806811 68.18467 
L 175.757729 68.080884 
L 175.757729 68.070506 
L 175.868551 68.070506 
L 176.963777 67.96672 
L 176.963777 67.956341 
L 177.071542 67.956341 
L 180.182961 67.852556 
L 180.182961 67.842177 
L 180.292636 67.842177 
L 183.974597 67.738392 
L 183.974597 67.728013 
L 184.085037 67.728013 
L 188.357793 67.624228 
L 188.357793 67.613849 
L 188.468614 67.613849 
L 195.574971 67.510063 
L 195.574971 67.499685 
L 195.683882 67.499685 
L 204.48008 67.395899 
L 204.48008 67.385521 
L 204.588609 67.385521 
L 215.617677 67.281735 
L 215.617677 67.271357 
L 215.728117 67.271357 
L 241.824371 67.167571 
L 241.824371 67.157193 
L 241.929079 67.157193 
L 306.577201 67.053407 
L 306.577201 67.043028 
L 306.687259 67.043028 
L 498.109091 66.96 
L 498.109091 66.96 
" style="fill:none;stroke:#ff0000;stroke-linecap:square;stroke-width:1.5;"/>
   </g>
   <g id="patch_3">
    <path d="M 72 384.48 
L 72 51.84 
" style="fill:none;stroke:#000000;stroke-linecap:square;stroke-linejoin:miter;stroke-width:0.8;"/>
   </g>
   <g id="patch_4">
    <path d="M 518.4 384.48 
L 518.4 51.84 
" style="fill:none;stroke:#000000;stroke-linecap:square;stroke-linejoin:miter;stroke-width:0.8;"/>
   </g>
   <g id="patch_5">
    <path d="M 72 384.48 
L 518.4 384.48 
" style="fill:none;stroke:#000000;stroke-linecap:square;stroke-linejoin:miter;stroke-width:0.8;"/>
   </g>
   <g id="patch_6">
    <path d="M 72 51.84 
L 518.4 51.84 
" style="fill:none;stroke:#000000;stroke-linecap:square;stroke-linejoin:miter;stroke-width:0.8;"/>
   </g>
   <g id="text_15">
    <!-- ROC Curves -->
    <g transform="translate(237.894 45.84)scale(0.192 -0.192)">
     <defs>
      <path d="M 39.40625 66.21875 
Q 28.65625 66.21875 22.328125 58.203125 
Q 16.015625 50.203125 16.015625 36.375 
Q 16.015625 22.609375 22.328125 14.59375 
Q 28.65625 6.59375 39.40625 6.59375 
Q 50.140625 6.59375 56.421875 14.59375 
Q 62.703125 22.609375 62.703125 36.375 
Q 62.703125 50.203125 56.421875 58.203125 
Q 50.140625 66.21875 39.40625 66.21875 
z
M 39.40625 74.21875 
Q 54.734375 74.21875 63.90625 63.9375 
Q 73.09375 53.65625 73.09375 36.375 
Q 73.09375 19.140625 63.90625 8.859375 
Q 54.734375 -1.421875 39.40625 -1.421875 
Q 24.03125 -1.421875 14.8125 8.828125 
Q 5.609375 19.09375 5.609375 36.375 
Q 5.609375 53.65625 14.8125 63.9375 
Q 24.03125 74.21875 39.40625 74.21875 
z
" id="DejaVuSans-79"/>
      <path d="M 64.40625 67.28125 
L 64.40625 56.890625 
Q 59.421875 61.53125 53.78125 63.8125 
Q 48.140625 66.109375 41.796875 66.109375 
Q 29.296875 66.109375 22.65625 58.46875 
Q 16.015625 50.828125 16.015625 36.375 
Q 16.015625 21.96875 22.65625 14.328125 
Q 29.296875 6.6875 41.796875 6.6875 
Q 48.140625 6.6875 53.78125 8.984375 
Q 59.421875 11.28125 64.40625 15.921875 
L 64.40625 5.609375 
Q 59.234375 2.09375 53.4375 0.328125 
Q 47.65625 -1.421875 41.21875 -1.421875 
Q 24.65625 -1.421875 15.125 8.703125 
Q 5.609375 18.84375 5.609375 36.375 
Q 5.609375 53.953125 15.125 64.078125 
Q 24.65625 74.21875 41.21875 74.21875 
Q 47.75 74.21875 53.53125 72.484375 
Q 59.328125 70.75 64.40625 67.28125 
z
" id="DejaVuSans-67"/>
     </defs>
     <use xlink:href="#DejaVuSans-82"/>
     <use x="69.482422" xlink:href="#DejaVuSans-79"/>
     <use x="148.193359" xlink:href="#DejaVuSans-67"/>
     <use x="218.017578" xlink:href="#DejaVuSans-32"/>
     <use x="249.804688" xlink:href="#DejaVuSans-67"/>
     <use x="319.628906" xlink:href="#DejaVuSans-117"/>
     <use x="383.007812" xlink:href="#DejaVuSans-114"/>
     <use x="424.121094" xlink:href="#DejaVuSans-118"/>
     <use x="483.300781" xlink:href="#DejaVuSans-101"/>
     <use x="544.824219" xlink:href="#DejaVuSans-115"/>
    </g>
   </g>
   <g id="legend_1">
    <g id="patch_7">
     <path d="M 388.9825 376.48 
L 507.2 376.48 
Q 510.4 376.48 510.4 373.28 
L 510.4 327.91 
Q 510.4 324.71 507.2 324.71 
L 388.9825 324.71 
Q 385.7825 324.71 385.7825 327.91 
L 385.7825 373.28 
Q 385.7825 376.48 388.9825 376.48 
z
" style="fill:#ffffff;opacity:0.8;stroke:#cccccc;stroke-linejoin:miter;"/>
    </g>
    <g id="line2d_15">
     <path d="M 392.1825 337.6675 
L 424.1825 337.6675 
" style="fill:none;stroke:#0000ff;stroke-linecap:square;stroke-width:1.5;"/>
    </g>
    <g id="line2d_16"/>
    <g id="text_16">
     <!-- baseline -->
     <g transform="translate(436.9825 343.2675)scale(0.16 -0.16)">
      <defs>
       <path d="M 48.6875 27.296875 
Q 48.6875 37.203125 44.609375 42.84375 
Q 40.53125 48.484375 33.40625 48.484375 
Q 26.265625 48.484375 22.1875 42.84375 
Q 18.109375 37.203125 18.109375 27.296875 
Q 18.109375 17.390625 22.1875 11.75 
Q 26.265625 6.109375 33.40625 6.109375 
Q 40.53125 6.109375 44.609375 11.75 
Q 48.6875 17.390625 48.6875 27.296875 
z
M 18.109375 46.390625 
Q 20.953125 51.265625 25.265625 53.625 
Q 29.59375 56 35.59375 56 
Q 45.5625 56 51.78125 48.09375 
Q 58.015625 40.1875 58.015625 27.296875 
Q 58.015625 14.40625 51.78125 6.484375 
Q 45.5625 -1.421875 35.59375 -1.421875 
Q 29.59375 -1.421875 25.265625 0.953125 
Q 20.953125 3.328125 18.109375 8.203125 
L 18.109375 0 
L 9.078125 0 
L 9.078125 75.984375 
L 18.109375 75.984375 
z
" id="DejaVuSans-98"/>
       <path d="M 54.890625 33.015625 
L 54.890625 0 
L 45.90625 0 
L 45.90625 32.71875 
Q 45.90625 40.484375 42.875 44.328125 
Q 39.84375 48.1875 33.796875 48.1875 
Q 26.515625 48.1875 22.3125 43.546875 
Q 18.109375 38.921875 18.109375 30.90625 
L 18.109375 0 
L 9.078125 0 
L 9.078125 54.6875 
L 18.109375 54.6875 
L 18.109375 46.1875 
Q 21.34375 51.125 25.703125 53.5625 
Q 30.078125 56 35.796875 56 
Q 45.21875 56 50.046875 50.171875 
Q 54.890625 44.34375 54.890625 33.015625 
z
" id="DejaVuSans-110"/>
      </defs>
      <use xlink:href="#DejaVuSans-98"/>
      <use x="63.476562" xlink:href="#DejaVuSans-97"/>
      <use x="124.755859" xlink:href="#DejaVuSans-115"/>
      <use x="176.855469" xlink:href="#DejaVuSans-101"/>
      <use x="238.378906" xlink:href="#DejaVuSans-108"/>
      <use x="266.162109" xlink:href="#DejaVuSans-105"/>
      <use x="293.945312" xlink:href="#DejaVuSans-110"/>
      <use x="357.324219" xlink:href="#DejaVuSans-101"/>
     </g>
    </g>
    <g id="line2d_17">
     <path d="M 392.1825 361.1525 
L 424.1825 361.1525 
" style="fill:none;stroke:#ff0000;stroke-linecap:square;stroke-width:1.5;"/>
    </g>
    <g id="line2d_18"/>
    <g id="text_17">
     <!-- model -->
     <g transform="translate(436.9825 366.7525)scale(0.16 -0.16)">
      <defs>
       <path d="M 52 44.1875 
Q 55.375 50.25 60.0625 53.125 
Q 64.75 56 71.09375 56 
Q 79.640625 56 84.28125 50.015625 
Q 88.921875 44.046875 88.921875 33.015625 
L 88.921875 0 
L 79.890625 0 
L 79.890625 32.71875 
Q 79.890625 40.578125 77.09375 44.375 
Q 74.3125 48.1875 68.609375 48.1875 
Q 61.625 48.1875 57.5625 43.546875 
Q 53.515625 38.921875 53.515625 30.90625 
L 53.515625 0 
L 44.484375 0 
L 44.484375 32.71875 
Q 44.484375 40.625 41.703125 44.40625 
Q 38.921875 48.1875 33.109375 48.1875 
Q 26.21875 48.1875 22.15625 43.53125 
Q 18.109375 38.875 18.109375 30.90625 
L 18.109375 0 
L 9.078125 0 
L 9.078125 54.6875 
L 18.109375 54.6875 
L 18.109375 46.1875 
Q 21.1875 51.21875 25.484375 53.609375 
Q 29.78125 56 35.6875 56 
Q 41.65625 56 45.828125 52.96875 
Q 50 49.953125 52 44.1875 
z
" id="DejaVuSans-109"/>
       <path d="M 45.40625 46.390625 
L 45.40625 75.984375 
L 54.390625 75.984375 
L 54.390625 0 
L 45.40625 0 
L 45.40625 8.203125 
Q 42.578125 3.328125 38.25 0.953125 
Q 33.9375 -1.421875 27.875 -1.421875 
Q 17.96875 -1.421875 11.734375 6.484375 
Q 5.515625 14.40625 5.515625 27.296875 
Q 5.515625 40.1875 11.734375 48.09375 
Q 17.96875 56 27.875 56 
Q 33.9375 56 38.25 53.625 
Q 42.578125 51.265625 45.40625 46.390625 
z
M 14.796875 27.296875 
Q 14.796875 17.390625 18.875 11.75 
Q 22.953125 6.109375 30.078125 6.109375 
Q 37.203125 6.109375 41.296875 11.75 
Q 45.40625 17.390625 45.40625 27.296875 
Q 45.40625 37.203125 41.296875 42.84375 
Q 37.203125 48.484375 30.078125 48.484375 
Q 22.953125 48.484375 18.875 42.84375 
Q 14.796875 37.203125 14.796875 27.296875 
z
" id="DejaVuSans-100"/>
      </defs>
      <use xlink:href="#DejaVuSans-109"/>
      <use x="97.412109" xlink:href="#DejaVuSans-111"/>
      <use x="158.59375" xlink:href="#DejaVuSans-100"/>
      <use x="222.070312" xlink:href="#DejaVuSans-101"/>
      <use x="283.59375" xlink:href="#DejaVuSans-108"/>
     </g>
    </g>
   </g>
  </g>
 </g>
 <defs>
  <clipPath id="p08410a4366">
   <rect height="332.64" width="446.4" x="72" y="51.84"/>
  </clipPath>
 </defs>
</svg>
